<svg xmlns="http://www.w3.org/2000/svg" width="331.001" height="150.464" viewBox="0 0 331.001 150.464">
  <g id="Grupo_958056" data-name="Grupo 958056" transform="translate(-656.999 -2651.596)">
    <path id="Trazado_32392" data-name="Trazado 32392" d="M98.293,68.678c-8.312,0-12.472-12.37-16.5-24.346-3.968-11.8-8.073-24-15.8-24-8.6,0-12.636,12.415-16.544,24.421C45.416,57.133,41.614,68.837,32.9,67.509c-8.264-1.585-12.187-10.691-15.981-19.5C12.791,38.422,8.89,29.365,0,29.365V28.091c9.729,0,13.981,9.869,18.092,19.414,3.663,8.5,7.45,17.3,15.027,18.748,7.611,1.161,11.258-10.043,15.117-21.9,4.049-12.438,8.234-25.3,17.755-25.3,8.646,0,12.9,12.643,17.011,24.87,3.991,11.868,8.124,24.153,15.929,23.45,7.735-.839,11.79-11.455,15.711-21.721,4.147-10.857,8.434-22.083,17.342-22.083,8.646,0,12.8,9.2,16.821,18.1,3.937,8.715,8.006,17.726,16.185,17.8h.124c7.993,0,11.878-7.06,15.989-14.533,4.092-7.436,8.323-15.123,16.987-15.44,9.855-.359,14.128,6.132,18.269,12.409,3.8,5.762,7.391,11.2,15.079,11.254h.187c8.7,0,12.429-3.9,16.372-8.037,3.751-3.931,7.631-8,15.96-8h.034c8.928-.255,13.146,3.473,17.6,7.425,3.876,3.437,7.884,6.991,15.5,8.143,8.134,1.557,12.377-4.775,16.87-11.48,4.325-6.452,8.8-13.125,17.04-13.125v1.274c-7.564,0-11.844,6.386-15.982,12.56-4.527,6.754-9.207,13.733-18.143,12.026-7.96-1.206-12.112-4.886-16.126-8.445-4.263-3.78-8.291-7.348-16.742-7.1h-.032c-7.8,0-11.327,3.693-15.058,7.6-3.956,4.145-8.047,8.43-17.3,8.431h-.193c-8.369-.054-12.317-6.039-16.134-11.826-4.129-6.259-8.033-12.154-17.159-11.839-7.944.29-11.818,7.329-15.918,14.782-4.131,7.507-8.41,15.29-17.24,15.191-8.992-.08-13.232-9.47-17.334-18.549-4.03-8.921-7.837-17.347-15.66-17.347-8.032,0-11.977,10.328-16.152,21.263-4.058,10.624-8.253,21.611-16.776,22.535-.257.023-.511.034-.761.034" transform="translate(657 2701.932)" fill="#a280a5"/>
    <path id="Trazado_32393" data-name="Trazado 32393" d="M164.984,72.108c-9.822,0-14.023-16.747-18.085-32.942-3.649-14.552-7.416-29.6-14.694-27.865-7.26,2.083-11.253,13.943-15.116,25.411-3.416,10.148-6.644,19.733-12.2,22.32a7.681,7.681,0,0,1-6.251.031C90.82,56.02,86.553,48.007,82.788,40.937,78.35,32.6,74.516,25.4,66.244,27.68c-7.562,1.637-11.539,6.074-15.386,10.365-4.3,4.791-8.737,9.746-17.818,9.8C24.1,48.568,19.579,43,15.2,37.622,11.132,32.61,7.285,27.876,0,27.876v-1.91c8.194,0,12.512,5.312,16.688,10.45,4.254,5.235,8.277,10.178,16.233,9.526l.074,0c8.258-.042,12.051-4.271,16.441-9.17,4.05-4.518,8.237-9.189,16.353-10.943,9.7-2.671,14.062,5.531,18.685,14.214,3.785,7.107,7.7,14.457,14.858,17.245a5.767,5.767,0,0,0,4.75.016c4.814-2.241,7.914-11.449,11.2-21.2,4.02-11.936,8.175-24.279,16.44-26.649C140.874,7.28,144.7,22.536,148.752,38.7c3.884,15.484,7.9,31.5,16.232,31.5,7.457,0,11.487-15.211,15.385-29.923C184.708,23.9,188.809,8.413,198.025,8.8c9.933.409,14.073,14.728,18.078,28.576,3.6,12.463,7.331,25.35,14.911,25.568l.253,0c8.257,0,12.242-11.691,16.1-23,3.867-11.343,7.866-23.072,16.568-23.22,8.937-.866,12.839,11.559,16.97,24.726,3.9,12.429,7.93,25.28,16.1,25.378h.087c8.438,0,11.334-14.9,14.4-30.666C314.95,18.385,318.525,0,331,0v1.91c-10.9,0-14.322,17.6-17.632,34.621C310.147,53.092,307.1,68.74,297.1,68.742h-.117c-9.558-.115-13.8-13.638-17.9-26.716-3.9-12.424-7.58-24.149-14.994-23.394l-.087,0c-7.384.094-11,10.7-14.828,21.928-4.073,11.947-8.285,24.3-17.89,24.3-.108,0-.215,0-.324,0-8.973-.257-12.723-13.221-16.691-26.945-3.816-13.2-7.763-26.846-16.321-27.2-.078,0-.155-.005-.231-.005-7.537,0-11.583,15.278-15.5,30.058-4.27,16.119-8.3,31.343-17.231,31.343" transform="translate(657 2704.156)" fill="#3d3a87"/>
    <path id="Trazado_32394" data-name="Trazado 32394" d="M66,51.66h-.018c-5.789-.045-8.67-4.085-11.455-7.992-2.736-3.837-5.313-7.455-10.517-7.292-5.083.2-7.638,3.5-10.343,7-2.835,3.661-5.774,7.437-11.719,7.033-5.608-.441-8.417-3.3-11.135-6.067C8.064,41.541,5.465,38.9,0,38.9V37.622c6,0,8.909,2.961,11.724,5.827,2.671,2.718,5.194,5.285,10.32,5.689,5.272.379,7.868-2.99,10.618-6.542,2.764-3.572,5.623-7.264,11.3-7.492,5.885-.177,8.79,3.885,11.6,7.825,2.72,3.815,5.29,7.418,10.425,7.458h.015c5.139,0,7.711-3.645,10.434-7.5,2.8-3.972,5.7-8.052,11.553-7.975,5.753.134,8.628,4.031,11.408,7.8,2.742,3.717,5.336,7.21,10.555,7.03,5.108-.211,7.666-3.377,10.375-6.727,2.829-3.5,5.751-7.117,11.682-6.815,5.616.3,8.465,3.376,11.22,6.35s5.371,5.789,10.707,5.483c5.1-.3,7.763-2.709,10.341-5.036,2.846-2.571,5.79-5.224,11.734-4.876,5.571.324,8.413,3.036,11.16,5.655,2.768,2.642,5.388,5.145,10.769,4.848,5.117-.262,7.677-3.325,10.386-6.569,2.83-3.387,5.745-6.886,11.677-6.643,5.617.213,8.473,2.637,11.234,4.981s5.359,4.572,10.721,4.43a27.175,27.175,0,0,0,10.695-2.163,27.353,27.353,0,0,1,11.323-2.181,21.4,21.4,0,0,1,11.455,2.867A21.81,21.81,0,0,0,286,46.232c5.266.2,7.768-2.419,10.415-5.2,2.7-2.841,5.5-5.781,11.238-5.781,5.892,0,9,3.2,12,6.295s5.824,6,11.347,6v1.273c-6.062,0-9.213-3.247-12.261-6.387-2.95-3.039-5.736-5.91-11.089-5.91-5.2,0-7.682,2.616-10.316,5.386-2.726,2.867-5.548,5.832-11.383,5.6a22.883,22.883,0,0,1-11.1-3.027,20.032,20.032,0,0,0-10.869-2.727,25.956,25.956,0,0,0-10.872,2.1,28.246,28.246,0,0,1-11.126,2.248c-5.828.12-8.753-2.341-11.572-4.733-2.716-2.305-5.282-4.484-10.461-4.68-5.294-.232-7.9,2.893-10.648,6.188s-5.626,6.733-11.3,7.023c-5.936.308-8.873-2.486-11.715-5.2-2.7-2.576-5.25-5.01-10.354-5.306-5.415-.321-8.033,2.046-10.806,4.55-2.742,2.476-5.576,5.036-11.12,5.362-5.937.341-8.876-2.824-11.716-5.888-2.7-2.917-5.252-5.672-10.351-5.944-5.284-.286-7.876,2.942-10.626,6.343-2.768,3.423-5.63,6.963-11.315,7.2-5.914.221-8.813-3.726-11.63-7.545-2.717-3.683-5.283-7.163-10.408-7.281-5.184-.1-7.755,3.563-10.486,7.435C74.691,47.571,71.8,51.66,66,51.66" transform="translate(657 2700.08)" fill="#098dce"/>
    <rect id="Rectángulo_4467" data-name="Rectángulo 4467" width="331" height="72.109" transform="translate(657 2704.156)" fill="none"/>
    <path id="Trazado_725275" data-name="Trazado 725275" d="M2.02,0V-15.4H6.273q8.143,0,8.143,7.509a7.567,7.567,0,0,1-2.261,5.731A8.388,8.388,0,0,1,6.1,0Zm1.8-13.771V-1.633h2.3a6.524,6.524,0,0,0,4.716-1.622,6.081,6.081,0,0,0,1.687-4.6q0-5.919-6.295-5.919ZM17.445,0V-15.4h4.383A4.79,4.79,0,0,1,25-14.427a3.159,3.159,0,0,1,1.171,2.546A3.746,3.746,0,0,1,25.459-9.6,3.823,3.823,0,0,1,23.5-8.229v.043A3.919,3.919,0,0,1,26-7.009a3.618,3.618,0,0,1,.935,2.583,4.027,4.027,0,0,1-1.418,3.2A5.278,5.278,0,0,1,21.936,0Zm1.8-13.771V-8.8H21.1a3.509,3.509,0,0,0,2.331-.714,2.488,2.488,0,0,0,.849-2.014q0-2.245-2.954-2.245Zm0,6.6v5.543H21.7a3.67,3.67,0,0,0,2.465-.752,2.576,2.576,0,0,0,.875-2.062q0-2.729-3.717-2.729Z" transform="translate(694 2667)" fill="#00223d"/>
    <path id="Trazado_725276" data-name="Trazado 725276" d="M11.129-13.771H6.682V0h-1.8V-13.771H.44V-15.4H11.129Zm3.083-.021a1.116,1.116,0,0,1-.806-.322,1.088,1.088,0,0,1-.333-.816,1.105,1.105,0,0,1,.333-.822,1.107,1.107,0,0,1,.806-.328,1.138,1.138,0,0,1,.822.328,1.1,1.1,0,0,1,.338.822,1.089,1.089,0,0,1-.338.806A1.128,1.128,0,0,1,14.212-13.793ZM15.071,0H13.31V-11h1.762ZM27.479-5.06H19.712A4.114,4.114,0,0,0,20.7-2.224a3.407,3.407,0,0,0,2.6,1,5.4,5.4,0,0,0,3.416-1.225V-.795A6.384,6.384,0,0,1,22.881.258a4.649,4.649,0,0,1-3.663-1.5,6.134,6.134,0,0,1-1.332-4.216,6.015,6.015,0,0,1,1.456-4.184,4.667,4.667,0,0,1,3.615-1.617,4.136,4.136,0,0,1,3.341,1.4,5.822,5.822,0,0,1,1.182,3.878Zm-1.8-1.493a3.584,3.584,0,0,0-.736-2.374,2.507,2.507,0,0,0-2.014-.849,2.846,2.846,0,0,0-2.116.892,4.046,4.046,0,0,0-1.074,2.331ZM45.762,0H44V-6.316a4.765,4.765,0,0,0-.564-2.643,2.139,2.139,0,0,0-1.9-.816,2.348,2.348,0,0,0-1.917,1.031,3.945,3.945,0,0,0-.79,2.471V0H37.071V-6.531q0-3.244-2.5-3.244a2.319,2.319,0,0,0-1.912.972,4.019,4.019,0,0,0-.752,2.53V0H30.143V-11H31.9v1.74h.043a3.737,3.737,0,0,1,3.416-2,3.185,3.185,0,0,1,1.966.628A3.161,3.161,0,0,1,38.479-8.98a3.925,3.925,0,0,1,3.652-2.277q3.631,0,3.631,4.479ZM50.9-1.59h-.043V5.06H49.092V-11h1.762v1.934H50.9a4.166,4.166,0,0,1,3.8-2.191,4.028,4.028,0,0,1,3.319,1.477,6.118,6.118,0,0,1,1.192,3.958A6.818,6.818,0,0,1,57.868-1.4,4.471,4.471,0,0,1,54.194.258,3.68,3.68,0,0,1,50.9-1.59Zm-.043-4.437V-4.49a3.271,3.271,0,0,0,.886,2.315,2.943,2.943,0,0,0,2.25.951A2.949,2.949,0,0,0,56.5-2.449a5.618,5.618,0,0,0,.908-3.405,4.435,4.435,0,0,0-.849-2.879,2.808,2.808,0,0,0-2.3-1.042,3.121,3.121,0,0,0-2.471,1.069A3.925,3.925,0,0,0,50.854-6.026ZM66.623.258a5.1,5.1,0,0,1-3.894-1.542,5.71,5.71,0,0,1-1.456-4.087A5.948,5.948,0,0,1,62.788-9.7a5.445,5.445,0,0,1,4.093-1.558,4.934,4.934,0,0,1,3.84,1.515,6.006,6.006,0,0,1,1.38,4.2,5.91,5.91,0,0,1-1.488,4.216A5.213,5.213,0,0,1,66.623.258Zm.129-10.033a3.351,3.351,0,0,0-2.686,1.155,4.743,4.743,0,0,0-.988,3.185,4.485,4.485,0,0,0,1,3.083,3.4,3.4,0,0,0,2.675,1.128,3.221,3.221,0,0,0,2.626-1.106A4.8,4.8,0,0,0,70.3-5.479a4.884,4.884,0,0,0-.918-3.18A3.206,3.206,0,0,0,66.752-9.775Z" transform="translate(874 2797)" fill="#00223d"/>
    <path id="Trazado_32399" data-name="Trazado 32399" d="M2813.176-18411H2660v-107.109" transform="translate(-1966 21201)" fill="none" stroke="#505050" stroke-width="1"/>
  </g>
</svg>
