<svg xmlns="http://www.w3.org/2000/svg" width="332.122" height="156.272" viewBox="0 0 332.122 156.272">
  <g id="Grupo_958057" data-name="Grupo 958057" transform="translate(-995 -2651.596)">
    <path id="Trazado_32395" data-name="Trazado 32395" d="M106.016,84.849c-4.344,0-6.414-2.051-8.256-3.874-1.825-1.807-3.549-3.516-7.527-3.516V75.54c4.768,0,6.951,2.162,8.878,4.072s3.612,3.565,7.808,3.287c4.667-.3,6.5-7.306,8.274-14.081,1.768-6.758,3.438-13.14,8.1-13.555,5.006-.359,7.256,6.659,9.441,13.446,1.954,6.066,3.974,12.34,7.458,12.4h.008c3.465,0,5.486-6.343,7.442-12.48,2.146-6.737,4.366-13.7,9.166-13.7.067,0,.135,0,.2,0,4.818.248,7.046,6.939,9.2,13.409,1.959,5.88,3.984,11.953,7.48,11.67,3.509-.321,5.518-5.825,7.461-11.148,2.211-6.058,4.493-12.322,9.528-11.751,4.653.549,6.87,5.851,9.014,10.979,2.043,4.885,3.977,9.491,7.554,9.036,3.555-.465,5.54-4.433,7.46-8.271,2.248-4.5,4.571-9.15,9.588-8.494,4.488.579,6.8,4.3,8.847,7.591,2.124,3.418,3.958,6.363,7.717,5.925,3.637-.413,5.516-2.776,7.5-5.277,2.266-2.852,4.609-5.8,9.5-5.352,4.394.369,6.719,2.675,8.769,4.709,2.13,2.114,3.97,3.937,7.894,3.738,3.832-.154,5.739-1.781,7.758-3.5,2.209-1.885,4.492-3.832,9.092-3.845,4.655-.057,6.973,1.964,9.2,3.942,2.007,1.781,3.9,3.461,7.669,3.731,3.961.347,5.818-1.758,7.964-4.2,2.023-2.3,4.316-4.915,8.633-5.579,5.106-.891,7.487,3.031,9.79,6.823,1.9,3.125,3.858,6.356,7.4,7.243l-.466,1.862c-4.307-1.078-6.574-4.813-8.575-8.108-2.482-4.089-4.184-6.565-7.839-5.926-3.646.562-5.518,2.694-7.5,4.952-2.281,2.6-4.639,5.287-9.558,4.845-4.4-.313-6.732-2.382-8.789-4.209-2.132-1.893-3.973-3.527-7.909-3.459-3.91.012-5.832,1.65-7.867,3.386-2.076,1.771-4.43,3.778-8.915,3.959-4.762.247-7.084-2.063-9.333-4.294-1.995-1.979-3.878-3.847-7.585-4.158-3.866-.357-5.7,1.957-7.831,4.633-2.044,2.573-4.361,5.488-8.784,5.989-4.965.586-7.3-3.178-9.567-6.817-1.995-3.209-3.879-6.238-7.465-6.7-3.661-.476-5.5,3.2-7.626,7.448-2.144,4.288-4.36,8.72-8.928,9.316-5.036.645-7.342-4.865-9.572-10.2-1.932-4.619-3.929-9.395-7.464-9.813-3.532-.394-5.458,4.9-7.5,10.5-2.148,5.884-4.37,11.969-9.1,12.4-5,.409-7.274-6.39-9.468-12.977-1.952-5.858-3.97-11.918-7.468-12.1-3.458-.118-5.5,6.217-7.453,12.363-2.164,6.793-4.4,13.816-9.282,13.816h-.016c-4.87-.084-7.1-7.022-9.264-13.73-1.958-6.082-3.975-12.373-7.461-12.121-3.3.293-4.876,6.309-6.4,12.126-1.945,7.435-3.957,15.123-10,15.51q-.535.037-1.029.036" transform="translate(984.833 2667.811)" fill="#bc9aaa"/>
    <rect id="Rect치ngulo_4468" data-name="Rect치ngulo 4468" width="80.466" height="1.919" transform="translate(995.639 2743.352)" fill="#bc9aaa"/>
    <path id="Trazado_32396" data-name="Trazado 32396" d="M3.539,133.868l-.76-33-.939.025L.049,67.809H0v-.924l1.278-.035L1.84,77.22V60.041l1.28-.015.42,18.239V.021L4.818,0l2.16,66.844h.03L8.065,83.761l2.164-16v-.881l1.272-.1.638,4.111V59.128l1.268-.12,1.3,6.857,1.522,3.807v-3.75l2.227.924V65.789l1.934,1.083.995-.027,1.372,25.163V14.81l1.279-.021.988,29.441,1.257-.056,1.976,22.191,1.383.423V53.239l1.275-.071,1.527,13.685.1,0,1.3,33.206L36.31,67.749l0-.874,1.277-.056L38.829,80.98V27.09l1.278-.038,2.335,39.772.054,0,.466,5.942V67.719l1.278-.05.686,8.712V63.214l2.543,2.918L49.286,31.99V6.3l1.28-.01,1.309,81.827,1.57-20.377,0-.876,1.276-.058.475,5.146V55.546l1.279-.028,1.134,25.8,1.453-13.564v-.889l1.648-35.64v-7.4l1.278-.037,2.542,43.029.055,0,.964,13.271V31.708l1.278-.045,2.465,35.1.061,0,1.092,6.524,2.216-31.845,0-7.149,1.28-.02.77,23.715V38.613l1.279-.035,1.583,28.247.051,0,1.011,16.44V39.853L79.9,39.8l.7,9.274V29.566l1.273-.083.474,3.629V24.767l1.279-.02L85.006,67.38l1.328-5.24V44.783l1.279-.02,1.131,36.818,1.791-13.84v-.883l1.269-.117.461,2.451.642-28.868,1.279-.01,1.066,28.329.7-22.154,1.278.04-1.28,40.658-1.279,0-.958-25.485L93.27,81.484,91.362,71.322,89.254,87.61V98.174l-1.279.02L86.951,64.907l-1.6,6.311v6.9l-1.279.02L82.937,43l-.584.038-.474-3.629V66.155L80.6,66.2l-.7-9.273v47.157l-1.278.039L76.4,67.82l-.057,0-.357-6.368V97.366l-1.28.02L73.22,51.732l-1.7,24.489,0,3.548-1.271.106L68.229,67.828l-.151.005L66.823,49.951V97.72l-1.278.045L63.369,67.826l-.067,0L61.614,39.252,60.336,66.9v.929l0,.034L58.677,83.316v22.418l-1.279.028-.928-21.1V85.87l-1.276.059-1.02-11.061L52.322,98.933v17.34l-1.279.011L49.9,44.563,48.708,66.9v2.6l-2.5-2.873V92.654l-1.277.05-.686-8.712V89.1l-1.278.05L41.292,67.832l-.073,0L40.108,48.9V95.585l-1.277.057-1.8-20.536-1.973,25.777v30.465l-1.278.025L31.3,67.868l-.035,0-.349-3.126V68.52l-2.537-.777V67.8l-1.277.057-.822-9.228V81.814l-1.279.021L24.037,52.96v62.531l-1.279.035L20.179,68.218l-.444-.248v.791l-2.226-.924v8.484l-3.369-8.43-.343.033-.378-1.993V79.187l-1.272.1-1.167-7.522L9.31,84.094v19.624l-1.278.04L5.787,67.827H5.73l-.911-28.2v94.229Z" transform="translate(995 2674)" fill="#4f4198"/>
    <path id="Trazado_32397" data-name="Trazado 32397" d="M181.38,85.742c-6.227,0-9.2-6.349-12.072-12.49-2.824-6.036-5.492-11.738-10.892-11.742-5.06.095-7.325,4.037-9.946,8.6-2.946,5.13-6.284,10.945-14.55,10.945-21.578,0-25.741-28.459-25.781-28.746l1.268-.175c.038.276,4.052,27.641,24.513,27.641,7.525,0,10.532-5.238,13.44-10.3,2.579-4.493,5.247-9.138,11.044-9.245,6.225,0,9.193,6.345,12.062,12.478,2.829,6.044,5.5,11.753,10.913,11.753,6.692,0,9.508-5.793,12.232-11.395,2.584-5.316,5.256-10.813,11.264-10.813,6.408,0,9.422,4.278,12.337,8.413,2.786,3.951,5.417,7.684,10.889,7.684,6.464,0,9.111-2.949,11.913-6.072,2.635-2.936,5.361-5.973,11.32-5.973,6.023,0,9.056,2.222,11.989,4.37,2.9,2.124,5.634,4.13,11.251,4.13a19.981,19.981,0,0,0,11.643-3.215,22.43,22.43,0,0,1,23.916.4,17.8,17.8,0,0,0,10.924,3.319c6.154,0,8.577-1.82,11.142-3.745,2.648-1.988,5.386-4.044,12.107-4.044V68.8c-6.294,0-8.745,1.841-11.338,3.789-2.62,1.968-5.329,4-11.91,4a19.1,19.1,0,0,1-11.6-3.512,21.155,21.155,0,0,0-22.605-.376,21.3,21.3,0,0,1-12.28,3.383c-6.036,0-9.071-2.225-12.007-4.375-2.894-2.121-5.628-4.124-11.233-4.124-5.388,0-7.807,2.7-10.367,5.548-2.867,3.2-5.831,6.5-12.865,6.5-6.136,0-9.083-4.182-11.934-8.226s-5.548-7.869-11.292-7.869c-5.208,0-7.59,4.9-10.113,10.091-2.761,5.679-5.89,12.115-13.383,12.115" transform="translate(982.815 2668.125)" fill="#4f4198"/>
    <rect id="Rect치ngulo_4469" data-name="Rect치ngulo 4469" width="332.122" height="133.868" transform="translate(995 2674)" fill="none"/>
    <path id="Trazado_725277" data-name="Trazado 725277" d="M2.02,0V-15.4H6.273q8.143,0,8.143,7.509a7.567,7.567,0,0,1-2.261,5.731A8.388,8.388,0,0,1,6.1,0Zm1.8-13.771V-1.633h2.3a6.524,6.524,0,0,0,4.716-1.622,6.081,6.081,0,0,0,1.687-4.6q0-5.919-6.295-5.919ZM17.445,0V-15.4h4.383A4.79,4.79,0,0,1,25-14.427a3.159,3.159,0,0,1,1.171,2.546A3.746,3.746,0,0,1,25.459-9.6,3.823,3.823,0,0,1,23.5-8.229v.043A3.919,3.919,0,0,1,26-7.009a3.618,3.618,0,0,1,.935,2.583,4.027,4.027,0,0,1-1.418,3.2A5.278,5.278,0,0,1,21.936,0Zm1.8-13.771V-8.8H21.1a3.509,3.509,0,0,0,2.331-.714,2.488,2.488,0,0,0,.849-2.014q0-2.245-2.954-2.245Zm0,6.6v5.543H21.7a3.67,3.67,0,0,0,2.465-.752,2.576,2.576,0,0,0,.875-2.062q0-2.729-3.717-2.729Z" transform="translate(1037 2667)" fill="#00223d"/>
    <path id="Trazado_725278" data-name="Trazado 725278" d="M11.129-13.771H6.682V0h-1.8V-13.771H.44V-15.4H11.129Zm3.083-.021a1.116,1.116,0,0,1-.806-.322,1.088,1.088,0,0,1-.333-.816,1.105,1.105,0,0,1,.333-.822,1.107,1.107,0,0,1,.806-.328,1.138,1.138,0,0,1,.822.328,1.1,1.1,0,0,1,.338.822,1.089,1.089,0,0,1-.338.806A1.128,1.128,0,0,1,14.212-13.793ZM15.071,0H13.31V-11h1.762ZM27.479-5.06H19.712A4.114,4.114,0,0,0,20.7-2.224a3.407,3.407,0,0,0,2.6,1,5.4,5.4,0,0,0,3.416-1.225V-.795A6.384,6.384,0,0,1,22.881.258a4.649,4.649,0,0,1-3.663-1.5,6.134,6.134,0,0,1-1.332-4.216,6.015,6.015,0,0,1,1.456-4.184,4.667,4.667,0,0,1,3.615-1.617,4.136,4.136,0,0,1,3.341,1.4,5.822,5.822,0,0,1,1.182,3.878Zm-1.8-1.493a3.584,3.584,0,0,0-.736-2.374,2.507,2.507,0,0,0-2.014-.849,2.846,2.846,0,0,0-2.116.892,4.046,4.046,0,0,0-1.074,2.331ZM45.762,0H44V-6.316a4.765,4.765,0,0,0-.564-2.643,2.139,2.139,0,0,0-1.9-.816,2.348,2.348,0,0,0-1.917,1.031,3.945,3.945,0,0,0-.79,2.471V0H37.071V-6.531q0-3.244-2.5-3.244a2.319,2.319,0,0,0-1.912.972,4.019,4.019,0,0,0-.752,2.53V0H30.143V-11H31.9v1.74h.043a3.737,3.737,0,0,1,3.416-2,3.185,3.185,0,0,1,1.966.628A3.161,3.161,0,0,1,38.479-8.98a3.925,3.925,0,0,1,3.652-2.277q3.631,0,3.631,4.479ZM50.9-1.59h-.043V5.06H49.092V-11h1.762v1.934H50.9a4.166,4.166,0,0,1,3.8-2.191,4.028,4.028,0,0,1,3.319,1.477,6.118,6.118,0,0,1,1.192,3.958A6.818,6.818,0,0,1,57.868-1.4,4.471,4.471,0,0,1,54.194.258,3.68,3.68,0,0,1,50.9-1.59Zm-.043-4.437V-4.49a3.271,3.271,0,0,0,.886,2.315,2.943,2.943,0,0,0,2.25.951A2.949,2.949,0,0,0,56.5-2.449a5.618,5.618,0,0,0,.908-3.405,4.435,4.435,0,0,0-.849-2.879,2.808,2.808,0,0,0-2.3-1.042,3.121,3.121,0,0,0-2.471,1.069A3.925,3.925,0,0,0,50.854-6.026ZM66.623.258a5.1,5.1,0,0,1-3.894-1.542,5.71,5.71,0,0,1-1.456-4.087A5.948,5.948,0,0,1,62.788-9.7a5.445,5.445,0,0,1,4.093-1.558,4.934,4.934,0,0,1,3.84,1.515,6.006,6.006,0,0,1,1.38,4.2,5.91,5.91,0,0,1-1.488,4.216A5.213,5.213,0,0,1,66.623.258Zm.129-10.033a3.351,3.351,0,0,0-2.686,1.155,4.743,4.743,0,0,0-.988,3.185,4.485,4.485,0,0,0,1,3.083,3.4,3.4,0,0,0,2.675,1.128,3.221,3.221,0,0,0,2.626-1.106A4.8,4.8,0,0,0,70.3-5.479a4.884,4.884,0,0,0-.918-3.18A3.206,3.206,0,0,0,66.752-9.775Z" transform="translate(1217 2797)" fill="#00223d"/>
    <path id="Trazado_32401" data-name="Trazado 32401" d="M2813.176-18411H2660v-107.109" transform="translate(-1618 21201)" fill="none" stroke="#505050" stroke-width="1"/>
  </g>
</svg>
