<svg xmlns="http://www.w3.org/2000/svg" width="354" height="74" viewBox="0 0 354 74">
  <g id="Grupo_959092" data-name="Grupo 959092" transform="translate(-0.007)">
    <rect id="Rectángulo_4684" data-name="Rectángulo 4684" width="354" height="74" rx="14" transform="translate(0.007)" fill="#fffffd"/>
    <g id="Grupo_958079" data-name="Grupo 958079" transform="translate(42.623 11)">
      <path id="Trazado_725285" data-name="Trazado 725285" d="M10.354,19h-1.8l-2.9-4.825a4.327,4.327,0,0,1-.29-.624H5.326q-.088.2-.3.624L2.039,19H.229l4.219-6.337L.563,6.4H2.373l2.575,4.43a8.885,8.885,0,0,1,.448.879h.035a9.7,9.7,0,0,1,.492-.914L8.6,6.4h1.7L6.337,12.646Z" transform="translate(0.384 21)" fill="#00223d"/>
      <path id="Trazado_26104" data-name="Trazado 26104" d="M26,0" transform="translate(-8.507 32.029)" fill="none" stroke="#707070" stroke-width="1"/>
      <text id="_x1_x2_x3_x4_xn_" data-name=" x1 + x2 + x3 + x4 + … xn       " transform="translate(50.384)" fill="#00223d" font-size="18" font-family="SegoeUI, Segoe UI"><tspan x="0" y="19" xml:space="preserve"> x</tspan><tspan y="19" font-size="10.499" baseline-shift="-5.999400079342301">1</tspan><tspan y="19" xml:space="preserve"> + x</tspan><tspan y="19" font-size="10.499" baseline-shift="-5.999400079342301">2</tspan><tspan y="19" xml:space="preserve"> + x</tspan><tspan y="19" font-size="10.499" baseline-shift="-5.999400079342301">3</tspan><tspan y="19" xml:space="preserve"> + x</tspan><tspan y="19" font-size="10.499" baseline-shift="-5.999400079342301">4</tspan><tspan y="19" xml:space="preserve"> + … x</tspan><tspan y="19" xml:space="preserve" font-size="10.499" baseline-shift="-5.999400079342301">n    </tspan><tspan y="19" xml:space="preserve" font-size="10.499" text-decoration="underline" baseline-shift="-5.999400079342301">  </tspan><tspan y="19"> </tspan></text>
      <path id="Trazado_26104-2" data-name="Trazado 26104" d="M26,0" transform="translate(89.913 12.84)" fill="none" stroke="#707070" stroke-width="1"/>
      <path id="Trazado_725286" data-name="Trazado 725286" d="M12.964,10,9.94,14.553,12.911,19H11.232L9.466,16.082q-.167-.272-.4-.686H9.035q-.044.079-.413.686L6.82,19H5.159l3.067-4.412L5.291,10H6.97l1.74,3.076q.193.343.378.7h.035L11.373,10ZM16.9,25h-.841V18.648a1.946,1.946,0,0,1-.285.223,4.638,4.638,0,0,1-.42.249q-.233.123-.492.231a3.577,3.577,0,0,1-.5.169v-.851a4.888,4.888,0,0,0,.587-.208q.31-.131.61-.292t.566-.338a4.5,4.5,0,0,0,.461-.346H16.9Zm17.18-10.658H30.533v3.542H29.364V14.342H25.822V13.164h3.542V9.622h1.169v3.542h3.551ZM49.06,10l-3.023,4.553L49.007,19H47.329l-1.767-2.918q-.167-.272-.4-.686h-.035q-.044.079-.413.686L42.917,19H41.256l3.067-4.412L41.387,10h1.679l1.74,3.076q.193.343.378.7h.035L47.469,10Zm4.186,9.576a1.52,1.52,0,0,0-.105-.59,1.141,1.141,0,0,0-.715-.666,1.676,1.676,0,0,0-.533-.082,1.764,1.764,0,0,0-.482.067,2.343,2.343,0,0,0-.459.185,2.822,2.822,0,0,0-.431.282,3.111,3.111,0,0,0-.387.364v-.9a2.514,2.514,0,0,1,.792-.525A2.789,2.789,0,0,1,52,17.525a2.58,2.58,0,0,1,.836.131,1.916,1.916,0,0,1,.666.382,1.766,1.766,0,0,1,.443.62,2.092,2.092,0,0,1,.161.846,2.9,2.9,0,0,1-.1.79,2.442,2.442,0,0,1-.3.666,3.216,3.216,0,0,1-.51.6,7.225,7.225,0,0,1-.723.584q-.518.369-.854.631a3.773,3.773,0,0,0-.533.49,1.421,1.421,0,0,0-.277.456,1.6,1.6,0,0,0-.079.525h3.66V25H49.848v-.364a3.033,3.033,0,0,1,.1-.831,2.157,2.157,0,0,1,.338-.682,3.784,3.784,0,0,1,.618-.646q.382-.323.936-.728a5.915,5.915,0,0,0,.669-.549,2.852,2.852,0,0,0,.433-.523,1.878,1.878,0,0,0,.233-.531A2.288,2.288,0,0,0,53.247,19.576ZM70.18,14.342H66.629v3.542H65.46V14.342H61.918V13.164H65.46V9.622h1.169v3.542H70.18ZM85.157,10l-3.023,4.553L85.1,19H83.425l-1.767-2.918q-.167-.272-.4-.686h-.035q-.044.079-.413.686L79.013,19H77.352l3.067-4.412L77.484,10h1.679l1.74,3.076q.193.343.378.7h.035L83.566,10Zm5.114,12.919a2.143,2.143,0,0,1-.187.9,2,2,0,0,1-.528.7,2.437,2.437,0,0,1-.818.449,3.308,3.308,0,0,1-1.051.159,3.054,3.054,0,0,1-1.671-.4v-.9a2.678,2.678,0,0,0,1.7.584,2.313,2.313,0,0,0,.695-.1,1.558,1.558,0,0,0,.533-.282,1.252,1.252,0,0,0,.343-.446,1.393,1.393,0,0,0,.12-.59q0-1.441-2.051-1.441h-.61v-.713h.579q1.815,0,1.815-1.353,0-1.251-1.384-1.251a2.357,2.357,0,0,0-1.461.523v-.815a3.194,3.194,0,0,1,1.671-.42,2.568,2.568,0,0,1,.836.128,1.915,1.915,0,0,1,.641.359,1.59,1.59,0,0,1,.413.554,1.709,1.709,0,0,1,.146.713,1.794,1.794,0,0,1-1.466,1.866v.021a2.319,2.319,0,0,1,.692.182,1.847,1.847,0,0,1,.549.367,1.634,1.634,0,0,1,.361.531A1.694,1.694,0,0,1,90.271,22.919Zm16.006-8.577h-3.551v3.542h-1.169V14.342H98.015V13.164h3.542V9.622h1.169v3.542h3.551ZM121.253,10l-3.023,4.553L121.2,19h-1.679l-1.767-2.918q-.167-.272-.4-.686h-.035q-.044.079-.413.686L115.109,19h-1.661l3.067-4.412L113.58,10h1.679L117,13.076q.193.343.378.7h.035L119.662,10Zm4.586,7.648V22.5h.943v.769h-.943V25h-.831V23.272h-3.455v-.728q.482-.543.974-1.161t.941-1.253q.449-.636.831-1.269a11.6,11.6,0,0,0,.643-1.212ZM122.5,22.5h2.507V18.9q-.385.672-.728,1.2t-.654.959q-.31.431-.592.779Zm19.871-8.162h-3.551v3.542h-1.169V14.342h-3.542V13.164h3.542V9.622h1.169v3.542h3.551Zm17.947,4.816a.918.918,0,0,1-.681-.281.94.94,0,0,1-.277-.686.985.985,0,0,1,.277-.7.9.9,0,0,1,.681-.294.916.916,0,0,1,.681.294.969.969,0,0,1,.286.7.926.926,0,0,1-.286.686A.937.937,0,0,1,160.32,19.158Zm-4.412,0a.947.947,0,0,1-.69-.281.926.926,0,0,1-.286-.686.969.969,0,0,1,.286-.7.926.926,0,0,1,.69-.294.916.916,0,0,1,.681.294.969.969,0,0,1,.286.7.926.926,0,0,1-.286.686A.937.937,0,0,1,155.908,19.158Zm-4.412,0a.9.9,0,0,1-.677-.281.948.948,0,0,1-.272-.686.994.994,0,0,1,.272-.7.885.885,0,0,1,.677-.294.916.916,0,0,1,.681.294.969.969,0,0,1,.286.7.96.96,0,0,1-.967.967ZM175.472,10l-3.023,4.553L175.42,19h-1.679l-1.767-2.918q-.167-.272-.4-.686h-.035q-.044.079-.413.686L169.329,19h-1.661l3.067-4.412L167.8,10h1.679l1.74,3.076q.193.343.378.7h.035L173.882,10Zm5.437,15h-.841V22.006q0-1.671-1.22-1.671a1.324,1.324,0,0,0-1.043.474,1.758,1.758,0,0,0-.413,1.2V25h-.841V19.75h.841v.872h.021a1.9,1.9,0,0,1,1.723-.995,1.606,1.606,0,0,1,1.318.556,2.478,2.478,0,0,1,.456,1.607Z" transform="translate(50.384)" fill="#00223d"/>
      <text id="_" transform="translate(0.384 6)" fill="#00223d" font-size="18" font-family="SegoeUI, Segoe UI"><tspan x="0" y="19">_</tspan></text>
      <path id="Trazado_26104-3" data-name="Trazado 26104" d="M26,0" transform="translate(-8.507 17.029)" fill="none" stroke="#707070" stroke-width="1"/>
      <text id="_2" data-name="=" transform="translate(15.384 21)" fill="#00223d" font-size="18" font-family="SegoeUI, Segoe UI"><tspan x="0" y="19">=</tspan></text>
      <path id="Trazado_26104-4" data-name="Trazado 26104" d="M26,0" transform="translate(6.493 32.029)" fill="none" stroke="#707070" stroke-width="1"/>
      <path id="Trazado_725287" data-name="Trazado 725287" d="M11.813,19H10L3.516,8.954a4.2,4.2,0,0,1-.4-.791H3.059a12.976,12.976,0,0,1,.07,1.731V19H1.652V6.4H3.568l6.311,9.888q.4.615.51.844h.035a13.335,13.335,0,0,1-.088-1.854V6.4h1.477Z" transform="translate(144.384 33)" fill="#00223d"/>
      <path id="Trazado_26104-5" data-name="Trazado 26104" d="M26,0" transform="translate(134.836 42.029)" fill="none" stroke="#707070" stroke-width="1"/>
      <path id="Trazado_59855" data-name="Trazado 59855" d="M2988.885-12606.5h220.551" transform="translate(-2941.13 12638)" fill="none" stroke="#00223d" stroke-width="1"/>
    </g>
  </g>
</svg>
