<svg xmlns="http://www.w3.org/2000/svg" xmlns:xlink="http://www.w3.org/1999/xlink" width="401" height="142" viewBox="0 0 401 142">
  <defs>
    <filter id="Rectángulo_4686" x="0" y="6" width="401" height="136" filterUnits="userSpaceOnUse">
      <feOffset dy="3" input="SourceAlpha"/>
      <feGaussianBlur stdDeviation="3" result="blur"/>
      <feFlood flood-opacity="0.161"/>
      <feComposite operator="in" in2="blur"/>
      <feComposite in="SourceGraphic"/>
    </filter>
    <filter id="Rectángulo_339830" x="0" y="0" width="147" height="52" filterUnits="userSpaceOnUse">
      <feOffset dy="3" input="SourceAlpha"/>
      <feGaussianBlur stdDeviation="3" result="blur-2"/>
      <feFlood flood-opacity="0.161"/>
      <feComposite operator="in" in2="blur-2"/>
      <feComposite in="SourceGraphic"/>
    </filter>
  </defs>
  <g id="Grupo_959089" data-name="Grupo 959089" transform="translate(-208 -4567)">
    <path id="Trazado_26104" data-name="Trazado 26104" d="M26,0" transform="translate(326.5 4628.84)" fill="none" stroke="#707070" stroke-width="1"/>
    <g id="Grupo_958093" data-name="Grupo 958093" transform="translate(0 79)">
      <g transform="matrix(1, 0, 0, 1, 208, 4488)" filter="url(#Rectángulo_4686)">
        <rect id="Rectángulo_4686-2" data-name="Rectángulo 4686" width="383" height="118" rx="14" transform="translate(9 12)" fill="#fff"/>
      </g>
      <g transform="matrix(1, 0, 0, 1, 208, 4488)" filter="url(#Rectángulo_339830)">
        <rect id="Rectángulo_339830-2" data-name="Rectángulo 339830" width="129" height="34" rx="10" transform="translate(9 6)" fill="#80cab6"/>
      </g>
      <text id="Media" transform="translate(253 4500)" fill="#00223d" font-size="18" font-family="SegoeUI-Bold, Segoe UI" font-weight="700"><tspan x="0" y="19">Media</tspan></text>
      <g id="Grupo_959088" data-name="Grupo 959088" transform="translate(-18 -12)">
        <path id="Trazado_725273" data-name="Trazado 725273" d="M0,0H33" transform="translate(547 4581.5)" fill="none" stroke="#707070" stroke-width="1"/>
        <g id="Grupo_959087" data-name="Grupo 959087">
          <g id="Grupo_958092" data-name="Grupo 958092" transform="translate(-33 1)">
            <text id="X" transform="translate(268 4568)" fill="#00223d" font-size="18" font-family="SegoeUI, Segoe UI"><tspan x="0" y="19">X</tspan></text>
            <path id="Trazado_26104-2" data-name="Trazado 26104" d="M26,0" transform="translate(259.5 4579.029)" fill="none" stroke="#707070" stroke-width="1"/>
            <path id="Trazado_725277" data-name="Trazado 725277" d="M11.294,19H9.853V8.11a3.336,3.336,0,0,1-.488.382,7.951,7.951,0,0,1-.721.426q-.4.211-.844.4a6.132,6.132,0,0,1-.866.29V8.146A8.379,8.379,0,0,0,7.941,7.79q.532-.224,1.046-.5t.971-.58a7.71,7.71,0,0,0,.791-.593h.545Zm5.3.193a.933.933,0,0,1-.69-.29.955.955,0,0,1-.286-.694.969.969,0,0,1,.286-.7.926.926,0,0,1,.69-.294.95.95,0,0,1,.7.294.962.962,0,0,1,.29.7.947.947,0,0,1-.29.694A.958.958,0,0,1,16.594,19.193ZM25.321,9.7a2.606,2.606,0,0,0-.18-1.011,1.957,1.957,0,0,0-1.226-1.143A2.874,2.874,0,0,0,23,7.407a3.023,3.023,0,0,0-.826.114,4.016,4.016,0,0,0-.787.316,4.839,4.839,0,0,0-.738.483,5.333,5.333,0,0,0-.664.624V7.4a4.309,4.309,0,0,1,1.358-.9,4.781,4.781,0,0,1,1.833-.312,4.424,4.424,0,0,1,1.433.224,3.285,3.285,0,0,1,1.143.655,3.027,3.027,0,0,1,.76,1.063,3.587,3.587,0,0,1,.277,1.45,4.973,4.973,0,0,1-.171,1.354,4.186,4.186,0,0,1-.519,1.143,5.513,5.513,0,0,1-.875,1.028,12.388,12.388,0,0,1-1.239,1q-.888.633-1.463,1.081a6.469,6.469,0,0,0-.914.839,2.436,2.436,0,0,0-.475.782,2.734,2.734,0,0,0-.136.9h6.275V19H19.494v-.624a5.2,5.2,0,0,1,.176-1.424,3.7,3.7,0,0,1,.58-1.169,6.487,6.487,0,0,1,1.059-1.107q.655-.554,1.6-1.248a10.141,10.141,0,0,0,1.147-.94,4.889,4.889,0,0,0,.743-.9,3.22,3.22,0,0,0,.4-.91A3.922,3.922,0,0,0,25.321,9.7ZM38.54,14.342H34.989v3.542H33.82V14.342H30.278V13.164H33.82V9.622h1.169v3.542H38.54Zm10.389,1.09a3.674,3.674,0,0,1-.321,1.551,3.425,3.425,0,0,1-.905,1.2,4.178,4.178,0,0,1-1.4.769,5.67,5.67,0,0,1-1.8.272,5.236,5.236,0,0,1-2.865-.686V16.987a4.592,4.592,0,0,0,2.918,1,3.965,3.965,0,0,0,1.191-.167,2.67,2.67,0,0,0,.914-.483,2.147,2.147,0,0,0,.589-.765,2.388,2.388,0,0,0,.207-1.011q0-2.47-3.516-2.47H42.891V11.872h.993Q47,11.872,47,9.552q0-2.145-2.373-2.145a4.041,4.041,0,0,0-2.5.9v-1.4a5.476,5.476,0,0,1,2.865-.721,4.4,4.4,0,0,1,1.433.22,3.283,3.283,0,0,1,1.1.615,2.726,2.726,0,0,1,.708.949,2.93,2.93,0,0,1,.25,1.222,3.076,3.076,0,0,1-2.514,3.2v.035a3.976,3.976,0,0,1,1.187.312,3.166,3.166,0,0,1,.94.628,2.8,2.8,0,0,1,.62.91A2.9,2.9,0,0,1,48.929,15.432Zm3.287,3.762a.933.933,0,0,1-.69-.29.955.955,0,0,1-.286-.694.969.969,0,0,1,.286-.7.926.926,0,0,1,.69-.294.95.95,0,0,1,.7.294.962.962,0,0,1,.29.7.947.947,0,0,1-.29.694A.958.958,0,0,1,52.216,19.193ZM60.943,9.7a2.606,2.606,0,0,0-.18-1.011,1.957,1.957,0,0,0-1.226-1.143,2.874,2.874,0,0,0-.914-.141,3.023,3.023,0,0,0-.826.114,4.016,4.016,0,0,0-.787.316,4.839,4.839,0,0,0-.738.483,5.333,5.333,0,0,0-.664.624V7.4a4.309,4.309,0,0,1,1.358-.9A4.781,4.781,0,0,1,58.8,6.186a4.424,4.424,0,0,1,1.433.224,3.285,3.285,0,0,1,1.143.655,3.027,3.027,0,0,1,.76,1.063,3.587,3.587,0,0,1,.277,1.45,4.973,4.973,0,0,1-.171,1.354,4.186,4.186,0,0,1-.519,1.143,5.513,5.513,0,0,1-.875,1.028,12.388,12.388,0,0,1-1.239,1q-.888.633-1.463,1.081a6.469,6.469,0,0,0-.914.839,2.436,2.436,0,0,0-.475.782,2.734,2.734,0,0,0-.136.9h6.275V19H55.116v-.624a5.2,5.2,0,0,1,.176-1.424,3.7,3.7,0,0,1,.58-1.169,6.487,6.487,0,0,1,1.059-1.107q.655-.554,1.6-1.248a10.141,10.141,0,0,0,1.147-.94,4.889,4.889,0,0,0,.743-.9,3.22,3.22,0,0,0,.4-.91A3.922,3.922,0,0,0,60.943,9.7Zm13.219,4.641H70.611v3.542H69.442V14.342H65.9V13.164h3.542V9.622h1.169v3.542h3.551ZM82.96,9.7a2.606,2.606,0,0,0-.18-1.011,1.957,1.957,0,0,0-1.226-1.143,2.874,2.874,0,0,0-.914-.141,3.023,3.023,0,0,0-.826.114,4.016,4.016,0,0,0-.787.316,4.839,4.839,0,0,0-.738.483,5.333,5.333,0,0,0-.664.624V7.4a4.309,4.309,0,0,1,1.358-.9,4.781,4.781,0,0,1,1.833-.312,4.424,4.424,0,0,1,1.433.224,3.285,3.285,0,0,1,1.143.655,3.027,3.027,0,0,1,.76,1.063,3.587,3.587,0,0,1,.277,1.45,4.973,4.973,0,0,1-.171,1.354,4.186,4.186,0,0,1-.519,1.143,5.513,5.513,0,0,1-.875,1.028,12.388,12.388,0,0,1-1.239,1q-.888.633-1.463,1.081a6.469,6.469,0,0,0-.914.839,2.436,2.436,0,0,0-.475.782,2.734,2.734,0,0,0-.136.9h6.275V19H77.133v-.624a5.2,5.2,0,0,1,.176-1.424,3.7,3.7,0,0,1,.58-1.169,6.487,6.487,0,0,1,1.059-1.107q.655-.554,1.6-1.248a10.141,10.141,0,0,0,1.147-.94,4.889,4.889,0,0,0,.743-.9,3.22,3.22,0,0,0,.4-.91A3.922,3.922,0,0,0,82.96,9.7Zm4.878,9.492a.933.933,0,0,1-.69-.29.955.955,0,0,1-.286-.694.969.969,0,0,1,.286-.7.926.926,0,0,1,.69-.294.95.95,0,0,1,.7.294.962.962,0,0,1,.29.7.947.947,0,0,1-.29.694A.958.958,0,0,1,87.838,19.193ZM96.565,9.7a2.606,2.606,0,0,0-.18-1.011,1.957,1.957,0,0,0-1.226-1.143,2.874,2.874,0,0,0-.914-.141,3.023,3.023,0,0,0-.826.114,4.016,4.016,0,0,0-.787.316,4.839,4.839,0,0,0-.738.483,5.333,5.333,0,0,0-.664.624V7.4a4.309,4.309,0,0,1,1.358-.9,4.781,4.781,0,0,1,1.833-.312,4.424,4.424,0,0,1,1.433.224A3.285,3.285,0,0,1,97,7.064a3.027,3.027,0,0,1,.76,1.063,3.587,3.587,0,0,1,.277,1.45,4.973,4.973,0,0,1-.171,1.354,4.186,4.186,0,0,1-.519,1.143,5.513,5.513,0,0,1-.875,1.028,12.388,12.388,0,0,1-1.239,1q-.888.633-1.463,1.081a6.469,6.469,0,0,0-.914.839,2.436,2.436,0,0,0-.475.782,2.734,2.734,0,0,0-.136.9h6.275V19H90.738v-.624a5.2,5.2,0,0,1,.176-1.424,3.7,3.7,0,0,1,.58-1.169,6.487,6.487,0,0,1,1.059-1.107q.655-.554,1.6-1.248a10.141,10.141,0,0,0,1.147-.94,4.889,4.889,0,0,0,.743-.9,3.22,3.22,0,0,0,.4-.91A3.922,3.922,0,0,0,96.565,9.7Zm13.219,4.641h-3.551v3.542h-1.169V14.342h-3.542V13.164h3.542V9.622h1.169v3.542h3.551Zm10.529.809A4.242,4.242,0,0,1,120,16.82a3.651,3.651,0,0,1-.9,1.283,4.034,4.034,0,0,1-1.411.826,5.517,5.517,0,0,1-1.837.29,5.074,5.074,0,0,1-2.61-.527V17.163a4.8,4.8,0,0,0,2.628.826,3.556,3.556,0,0,0,1.235-.2,2.744,2.744,0,0,0,.936-.562,2.408,2.408,0,0,0,.593-.87,2.945,2.945,0,0,0,.207-1.116,2.391,2.391,0,0,0-.826-1.929,3.623,3.623,0,0,0-2.4-.7q-.255,0-.536.009t-.562.022q-.281.013-.549.031t-.488.044l.431-6.319h5.827V7.7h-4.579l-.255,3.7q.281-.018.6-.031t.563-.013a5.657,5.657,0,0,1,1.793.264,3.8,3.8,0,0,1,1.34.751,3.151,3.151,0,0,1,.835,1.2A4.2,4.2,0,0,1,120.313,15.15Zm3.146,4.043a.933.933,0,0,1-.69-.29.955.955,0,0,1-.286-.694.969.969,0,0,1,.286-.7.926.926,0,0,1,.69-.294.95.95,0,0,1,.7.294.962.962,0,0,1,.29.7.947.947,0,0,1-.29.694A.958.958,0,0,1,123.46,19.193Zm9.413-12.8V14.72h1.617v1.318h-1.617V19h-1.424V16.038h-5.924V14.79q.826-.932,1.67-1.991t1.613-2.149q.769-1.09,1.424-2.175a19.88,19.88,0,0,0,1.1-2.079Zm-5.722,8.323h4.3V8.55Q130.79,9.7,130.2,10.606t-1.121,1.644q-.532.738-1.015,1.336T127.151,14.72Z" transform="translate(406 4556)" fill="#00223d"/>
            <path id="Trazado_725275" data-name="Trazado 725275" d="M13.79,19H5.326v-.686l4.1-5.818L5.7,7.188V6.4h7.541V7.75H7.866l3.3,4.711L7.506,17.7H13.79Zm13.395-9-3.023,4.553L27.132,19H25.453l-1.767-2.918q-.167-.272-.4-.686h-.035q-.044.079-.413.686L21.041,19H19.38l3.067-4.412L19.512,10H21.19l1.74,3.076q.193.343.378.7h.035L25.594,10Zm3.94,15h-.841V18.648a1.946,1.946,0,0,1-.285.223,4.638,4.638,0,0,1-.42.249q-.233.123-.492.231a3.577,3.577,0,0,1-.5.169v-.851a4.888,4.888,0,0,0,.587-.208q.31-.131.61-.292t.566-.338a4.5,4.5,0,0,0,.461-.346h.318Zm8.839-5.807a.933.933,0,0,1-.69-.29.955.955,0,0,1-.286-.694.969.969,0,0,1,.286-.7.926.926,0,0,1,.69-.294.95.95,0,0,1,.7.294.962.962,0,0,1,.29.7.947.947,0,0,1-.29.694A.958.958,0,0,1,39.964,19.193ZM52.743,6.941a1.92,1.92,0,0,0-.958-.237q-1.512,0-1.512,1.907V10h2.109v1.23H50.273V19H48.84V11.23H47.3V10H48.84V8.541A3.032,3.032,0,0,1,49.658,6.3,2.759,2.759,0,0,1,51.7,5.482a2.824,2.824,0,0,1,1.046.158ZM56.182,25h-.841V18.648a1.946,1.946,0,0,1-.285.223,4.638,4.638,0,0,1-.42.249q-.233.123-.492.231a3.577,3.577,0,0,1-.5.169v-.851a4.888,4.888,0,0,0,.587-.208q.31-.131.61-.292t.566-.338a4.5,4.5,0,0,0,.461-.346h.318Z" transform="translate(318 4549)" fill="#00223d"/>
            <path id="Trazado_725274" data-name="Trazado 725274" d="M7.471,21.61H0V20.564H7.471Z" transform="translate(268 4553)" fill="#00223d"/>
            <path id="Trazado_26104-3" data-name="Trazado 26104" d="M26,0" transform="translate(259.5 4564.029)" fill="none" stroke="#707070" stroke-width="1"/>
            <text id="_" data-name="=" transform="translate(283 4568)" fill="#00223d" font-size="18" font-family="SegoeUI, Segoe UI"><tspan x="0" y="19">=</tspan></text>
            <path id="Trazado_26104-4" data-name="Trazado 26104" d="M26,0" transform="translate(274.5 4579.029)" fill="none" stroke="#707070" stroke-width="1"/>
            <path id="Trazado_725276" data-name="Trazado 725276" d="M11.813,19H10L3.516,8.954a4.2,4.2,0,0,1-.4-.791H3.059a12.976,12.976,0,0,1,.07,1.731V19H1.652V6.4H3.568l6.311,9.888q.4.615.51.844h.035a13.335,13.335,0,0,1-.088-1.854V6.4h1.477Z" transform="translate(344 4580)" fill="#00223d"/>
            <path id="Trazado_26104-5" data-name="Trazado 26104" d="M26,0" transform="translate(328.444 4586.622)" fill="none" stroke="#707070" stroke-width="1"/>
            <line id="Línea_4" data-name="Línea 4" x2="75" transform="translate(314.54 4580.5)" fill="none" stroke="#707070" stroke-width="1"/>
            <text id="_2" data-name="=" transform="translate(392 4569)" fill="#00223d" font-size="18" font-family="SegoeUI, Segoe UI"><tspan x="0" y="19">=</tspan></text>
            <path id="Trazado_26104-6" data-name="Trazado 26104" d="M26,0" transform="translate(383.59 4580.029)" fill="none" stroke="#707070" stroke-width="1"/>
            <line id="Línea_5" data-name="Línea 5" x2="158" transform="translate(405.688 4580.5)" fill="none" stroke="#707070" stroke-width="1"/>
            <path id="Trazado_725278" data-name="Trazado 725278" d="M6.363,19H4.922V8.11a3.336,3.336,0,0,1-.488.382,7.951,7.951,0,0,1-.721.426q-.4.211-.844.4A6.132,6.132,0,0,1,2,9.6V8.146A8.379,8.379,0,0,0,3.01,7.79q.532-.224,1.046-.5t.971-.58a7.71,7.71,0,0,0,.791-.593h.545Zm12.3-6.354a12.381,12.381,0,0,1-.286,2.8,6.533,6.533,0,0,1-.826,2.061,3.718,3.718,0,0,1-1.327,1.274,3.633,3.633,0,0,1-1.789.435,3.393,3.393,0,0,1-1.692-.417A3.546,3.546,0,0,1,11.5,17.585a6.17,6.17,0,0,1-.773-1.964,12.146,12.146,0,0,1-.264-2.667,13.749,13.749,0,0,1,.277-2.918,6.674,6.674,0,0,1,.813-2.123A3.619,3.619,0,0,1,12.88,6.621,3.739,3.739,0,0,1,14.7,6.186Q18.668,6.186,18.668,12.646Zm-1.477.141q0-5.379-2.558-5.379-2.7,0-2.7,5.476,0,5.106,2.646,5.106Q17.191,17.989,17.191,12.786Z" transform="translate(461 4583)" fill="#00223d"/>
            <path id="Trazado_26104-7" data-name="Trazado 26104" d="M26,0" transform="translate(451.634 4588.568)" fill="none" stroke="#707070" stroke-width="1"/>
          </g>
          <text id="_3" data-name="=" transform="translate(533.312 4570)" fill="#00223d" font-size="18" font-family="SegoeUI, Segoe UI"><tspan x="0" y="19">=</tspan></text>
          <path id="Trazado_725279" data-name="Trazado 725279" d="M13.307,15.432a3.674,3.674,0,0,1-.321,1.551,3.425,3.425,0,0,1-.905,1.2,4.178,4.178,0,0,1-1.4.769,5.67,5.67,0,0,1-1.8.272,5.236,5.236,0,0,1-2.865-.686V16.987a4.592,4.592,0,0,0,2.918,1,3.965,3.965,0,0,0,1.191-.167,2.67,2.67,0,0,0,.914-.483,2.147,2.147,0,0,0,.589-.765,2.388,2.388,0,0,0,.207-1.011q0-2.47-3.516-2.47H7.269V11.872h.993q3.111,0,3.111-2.32,0-2.145-2.373-2.145a4.041,4.041,0,0,0-2.5.9v-1.4A5.476,5.476,0,0,1,9.36,6.186a4.4,4.4,0,0,1,1.433.22,3.283,3.283,0,0,1,1.1.615,2.726,2.726,0,0,1,.708.949,2.93,2.93,0,0,1,.25,1.222,3.076,3.076,0,0,1-2.514,3.2v.035a3.976,3.976,0,0,1,1.187.312,3.166,3.166,0,0,1,.94.628,2.8,2.8,0,0,1,.62.91A2.9,2.9,0,0,1,13.307,15.432ZM23.616,15a4.669,4.669,0,0,1-.3,1.7,4.078,4.078,0,0,1-.826,1.336,3.691,3.691,0,0,1-1.257.875,3.98,3.98,0,0,1-1.582.312,3.488,3.488,0,0,1-2.975-1.534,5.459,5.459,0,0,1-.8-1.815,9.833,9.833,0,0,1-.272-2.417,11.358,11.358,0,0,1,.365-2.984,7.249,7.249,0,0,1,1.037-2.294A4.781,4.781,0,0,1,18.633,6.7a4.345,4.345,0,0,1,2.118-.519,5.1,5.1,0,0,1,2.092.36V7.908a4.442,4.442,0,0,0-2.057-.5,3.065,3.065,0,0,0-1.521.378,3.492,3.492,0,0,0-1.16,1.068,5.209,5.209,0,0,0-.743,1.666,8.45,8.45,0,0,0-.259,2.171h.035a3.027,3.027,0,0,1,2.874-1.573,3.783,3.783,0,0,1,1.49.281,3.216,3.216,0,0,1,1.134.8,3.581,3.581,0,0,1,.725,1.226A4.667,4.667,0,0,1,23.616,15Zm-1.477.185A3.922,3.922,0,0,0,21.973,14a2.574,2.574,0,0,0-.479-.9,2.065,2.065,0,0,0-.769-.567,2.588,2.588,0,0,0-1.037-.2,2.428,2.428,0,0,0-.993.2,2.473,2.473,0,0,0-.791.549,2.572,2.572,0,0,0-.712,1.789,3.909,3.909,0,0,0,.185,1.217,3.144,3.144,0,0,0,.519.989,2.466,2.466,0,0,0,.8.664,2.173,2.173,0,0,0,1.024.242,2.345,2.345,0,0,0,.993-.207,2.216,2.216,0,0,0,.765-.576,2.665,2.665,0,0,0,.492-.883A3.5,3.5,0,0,0,22.14,15.186Z" transform="translate(547.312 4557)" fill="#00223d"/>
          <path id="Trazado_725280" data-name="Trazado 725280" d="M6.363,19H4.922V8.11a3.336,3.336,0,0,1-.488.382,7.951,7.951,0,0,1-.721.426q-.4.211-.844.4A6.132,6.132,0,0,1,2,9.6V8.146A8.379,8.379,0,0,0,3.01,7.79q.532-.224,1.046-.5t.971-.58a7.71,7.71,0,0,0,.791-.593h.545Zm12.3-6.354a12.381,12.381,0,0,1-.286,2.8,6.533,6.533,0,0,1-.826,2.061,3.718,3.718,0,0,1-1.327,1.274,3.633,3.633,0,0,1-1.789.435,3.393,3.393,0,0,1-1.692-.417A3.546,3.546,0,0,1,11.5,17.585a6.17,6.17,0,0,1-.773-1.964,12.146,12.146,0,0,1-.264-2.667,13.749,13.749,0,0,1,.277-2.918,6.674,6.674,0,0,1,.813-2.123A3.619,3.619,0,0,1,12.88,6.621,3.739,3.739,0,0,1,14.7,6.186Q18.668,6.186,18.668,12.646Zm-1.477.141q0-5.379-2.558-5.379-2.7,0-2.7,5.476,0,5.106,2.646,5.106Q17.191,17.989,17.191,12.786Z" transform="translate(556.156 4583)" fill="#00223d"/>
          <text id="_4" data-name="=" transform="translate(582.623 4568)" fill="#00223d" font-size="18" font-family="SegoeUI, Segoe UI"><tspan x="0" y="19">=</tspan></text>
          <path id="Trazado_725281" data-name="Trazado 725281" d="M13.307,15.432a3.674,3.674,0,0,1-.321,1.551,3.425,3.425,0,0,1-.905,1.2,4.178,4.178,0,0,1-1.4.769,5.67,5.67,0,0,1-1.8.272,5.236,5.236,0,0,1-2.865-.686V16.987a4.592,4.592,0,0,0,2.918,1,3.965,3.965,0,0,0,1.191-.167,2.67,2.67,0,0,0,.914-.483,2.147,2.147,0,0,0,.589-.765,2.388,2.388,0,0,0,.207-1.011q0-2.47-3.516-2.47H7.269V11.872h.993q3.111,0,3.111-2.32,0-2.145-2.373-2.145a4.041,4.041,0,0,0-2.5.9v-1.4A5.476,5.476,0,0,1,9.36,6.186a4.4,4.4,0,0,1,1.433.22,3.283,3.283,0,0,1,1.1.615,2.726,2.726,0,0,1,.708.949,2.93,2.93,0,0,1,.25,1.222,3.076,3.076,0,0,1-2.514,3.2v.035a3.976,3.976,0,0,1,1.187.312,3.166,3.166,0,0,1,.94.628,2.8,2.8,0,0,1,.62.91A2.9,2.9,0,0,1,13.307,15.432ZM17.411,17,16,21.32H14.977L16,17Zm10.107-2a4.669,4.669,0,0,1-.3,1.7,4.078,4.078,0,0,1-.826,1.336,3.691,3.691,0,0,1-1.257.875,3.98,3.98,0,0,1-1.582.312,3.488,3.488,0,0,1-2.975-1.534,5.459,5.459,0,0,1-.8-1.815,9.833,9.833,0,0,1-.272-2.417,11.358,11.358,0,0,1,.365-2.984,7.249,7.249,0,0,1,1.037-2.294A4.781,4.781,0,0,1,22.535,6.7a4.345,4.345,0,0,1,2.118-.519,5.1,5.1,0,0,1,2.092.36V7.908a4.442,4.442,0,0,0-2.057-.5,3.065,3.065,0,0,0-1.521.378,3.492,3.492,0,0,0-1.16,1.068,5.209,5.209,0,0,0-.743,1.666,8.45,8.45,0,0,0-.259,2.171h.035a3.027,3.027,0,0,1,2.874-1.573,3.783,3.783,0,0,1,1.49.281,3.216,3.216,0,0,1,1.134.8,3.581,3.581,0,0,1,.725,1.226A4.667,4.667,0,0,1,27.519,15Zm-1.477.185A3.922,3.922,0,0,0,25.875,14a2.574,2.574,0,0,0-.479-.9,2.065,2.065,0,0,0-.769-.567,2.588,2.588,0,0,0-1.037-.2,2.428,2.428,0,0,0-.993.2,2.473,2.473,0,0,0-.791.549,2.572,2.572,0,0,0-.712,1.789,3.909,3.909,0,0,0,.185,1.217,3.144,3.144,0,0,0,.519.989,2.466,2.466,0,0,0,.8.664,2.173,2.173,0,0,0,1.024.242,2.345,2.345,0,0,0,.993-.207,2.216,2.216,0,0,0,.765-.576,2.665,2.665,0,0,0,.492-.883A3.5,3.5,0,0,0,26.042,15.186Z" transform="translate(590.623 4568)" fill="#00223d"/>
        </g>
      </g>
    </g>
  </g>
</svg>
