<svg xmlns="http://www.w3.org/2000/svg" xmlns:xlink="http://www.w3.org/1999/xlink" width="401" height="142" viewBox="0 0 401 142">
  <defs>
    <filter id="Rectángulo_4686" x="0" y="6" width="401" height="136" filterUnits="userSpaceOnUse">
      <feOffset dy="3" input="SourceAlpha"/>
      <feGaussianBlur stdDeviation="3" result="blur"/>
      <feFlood flood-opacity="0.161"/>
      <feComposite operator="in" in2="blur"/>
      <feComposite in="SourceGraphic"/>
    </filter>
    <filter id="Rectángulo_339830" x="0" y="0" width="147" height="52" filterUnits="userSpaceOnUse">
      <feOffset dy="3" input="SourceAlpha"/>
      <feGaussianBlur stdDeviation="3" result="blur-2"/>
      <feFlood flood-opacity="0.161"/>
      <feComposite operator="in" in2="blur-2"/>
      <feComposite in="SourceGraphic"/>
    </filter>
  </defs>
  <g id="Grupo_958093" data-name="Grupo 958093" transform="translate(-208 -4488)">
    <g transform="matrix(1, 0, 0, 1, 208, 4488)" filter="url(#Rectángulo_4686)">
      <rect id="Rectángulo_4686-2" data-name="Rectángulo 4686" width="383" height="118" rx="14" transform="translate(9 12)" fill="#fff"/>
    </g>
    <g id="Grupo_958092" data-name="Grupo 958092" transform="translate(0 -6)">
      <text id="X" transform="translate(268 4568)" fill="#00223d" font-size="18" font-family="SegoeUI, Segoe UI"><tspan x="0" y="19">X</tspan></text>
      <path id="Trazado_26104" data-name="Trazado 26104" d="M26,0" transform="translate(259.5 4579.029)" fill="none" stroke="#707070" stroke-width="1"/>
      <text id="_1.2_3.2_2.2_5.4_" data-name=" 1.2+3.2+2.2+5.4     " transform="translate(406 4556)" fill="#00223d" font-size="18" font-family="SegoeUI, Segoe UI"><tspan x="0" y="19" xml:space="preserve"> 1.2+3.2+2.2+5.4</tspan><tspan y="19" xml:space="preserve" font-size="10.499" baseline-shift="-5.999400079342301">  </tspan><tspan y="19" xml:space="preserve" font-size="10.499" text-decoration="underline" baseline-shift="-5.999400079342301">  </tspan><tspan y="19"> </tspan></text>
      <text id="_Ʃ_x1_._f1" data-name=" Ʃ x1 . f1" transform="translate(318 4549)" fill="#00223d" font-size="18" font-family="SegoeUI, Segoe UI"><tspan x="0" y="19" xml:space="preserve"> Ʃ x</tspan><tspan y="19" font-size="10.499" baseline-shift="-5.999400079342301">1</tspan><tspan y="19" xml:space="preserve"> . f</tspan><tspan y="19" font-size="10.499" baseline-shift="-5.999400079342301">1</tspan></text>
      <text id="_" transform="translate(268 4553)" fill="#00223d" font-size="18" font-family="SegoeUI, Segoe UI"><tspan x="0" y="19">_</tspan></text>
      <path id="Trazado_26104-2" data-name="Trazado 26104" d="M26,0" transform="translate(259.5 4564.029)" fill="none" stroke="#707070" stroke-width="1"/>
      <text id="_2" data-name="=" transform="translate(283 4568)" fill="#00223d" font-size="18" font-family="SegoeUI, Segoe UI"><tspan x="0" y="19">=</tspan></text>
      <path id="Trazado_26104-3" data-name="Trazado 26104" d="M26,0" transform="translate(274.5 4579.029)" fill="none" stroke="#707070" stroke-width="1"/>
      <text id="N" transform="translate(344 4580)" fill="#00223d" font-size="18" font-family="SegoeUI, Segoe UI"><tspan x="0" y="19">N</tspan></text>
      <path id="Trazado_26104-4" data-name="Trazado 26104" d="M26,0" transform="translate(328.389 4586.622)" fill="none" stroke="#707070" stroke-width="1"/>
      <line id="Línea_4" data-name="Línea 4" x2="75" transform="translate(314.5 4580.5)" fill="none" stroke="#707070" stroke-width="1"/>
      <text id="_3" data-name="=" transform="translate(392 4569)" fill="#00223d" font-size="18" font-family="SegoeUI, Segoe UI"><tspan x="0" y="19">=</tspan></text>
      <path id="Trazado_26104-5" data-name="Trazado 26104" d="M26,0" transform="translate(383.5 4580.029)" fill="none" stroke="#707070" stroke-width="1"/>
      <line id="Línea_5" data-name="Línea 5" x2="158" transform="translate(405.5 4580.5)" fill="none" stroke="#707070" stroke-width="1"/>
      <text id="_10" data-name="10" transform="translate(461 4583)" fill="#00223d" font-size="18" font-family="SegoeUI, Segoe UI"><tspan x="0" y="19">10</tspan></text>
      <path id="Trazado_26104-6" data-name="Trazado 26104" d="M26,0" transform="translate(451.5 4588.568)" fill="none" stroke="#707070" stroke-width="1"/>
    </g>
    <g transform="matrix(1, 0, 0, 1, 208, 4488)" filter="url(#Rectángulo_339830)">
      <rect id="Rectángulo_339830-2" data-name="Rectángulo 339830" width="129" height="34" rx="10" transform="translate(9 6)" fill="#80cab6"/>
    </g>
    <path id="Trazado_725293" data-name="Trazado 725293" d="M15.8,19H13V11.459q0-1.222.105-2.7h-.07a13.277,13.277,0,0,1-.4,1.67L9.686,19H7.365L4.359,10.519a16.5,16.5,0,0,1-.4-1.758H3.885Q4,10.624,4,12.03V19H1.441V6.4H5.6l2.575,7.471a10.519,10.519,0,0,1,.448,1.8h.053a18.142,18.142,0,0,1,.5-1.819L11.751,6.4H15.8Zm10.679-3.709H20.61q.141,1.96,2.47,1.96a4.822,4.822,0,0,0,2.61-.7v2a6.858,6.858,0,0,1-3.243.668,4.565,4.565,0,0,1-3.384-1.208,4.566,4.566,0,0,1-1.2-3.371,4.816,4.816,0,0,1,1.3-3.551,4.334,4.334,0,0,1,3.2-1.31A3.933,3.933,0,0,1,25.4,10.949a4.5,4.5,0,0,1,1.077,3.173Zm-2.575-1.705q0-1.934-1.564-1.934a1.494,1.494,0,0,0-1.156.554,2.513,2.513,0,0,0-.593,1.38ZM36.94,19H34.163V17.761h-.035a3.114,3.114,0,0,1-2.786,1.459,3.412,3.412,0,0,1-2.716-1.191A4.93,4.93,0,0,1,27.6,14.7a5.366,5.366,0,0,1,1.134-3.577A3.7,3.7,0,0,1,31.7,9.78a2.527,2.527,0,0,1,2.426,1.248h.035V5.676H36.94Zm-2.725-4.377v-.677a2.13,2.13,0,0,0-.51-1.459,1.8,1.8,0,0,0-2.769.145,3.367,3.367,0,0,0-.519,1.991,2.914,2.914,0,0,0,.5,1.828,1.779,1.779,0,0,0,2.764-.035A2.821,2.821,0,0,0,34.216,14.623Zm6.469-6.047a1.622,1.622,0,0,1-1.151-.417,1.345,1.345,0,0,1-.448-1.024,1.3,1.3,0,0,1,.448-1.02,1.88,1.88,0,0,1,2.307,0,1.3,1.3,0,0,1,.444,1.02,1.34,1.34,0,0,1-.444,1.037A1.65,1.65,0,0,1,40.685,8.576ZM42.056,19H39.278V10h2.777Zm9.826,0H49.254V17.708h-.035a2.933,2.933,0,0,1-2.681,1.512,2.8,2.8,0,0,1-2.061-.743,2.661,2.661,0,0,1-.751-1.982q0-2.619,3.1-3.023l2.443-.325q0-1.477-1.6-1.477a5.46,5.46,0,0,0-3.059.958V10.536a6.881,6.881,0,0,1,1.586-.527,8.339,8.339,0,0,1,1.833-.229q3.85,0,3.85,3.841Zm-2.61-3.656v-.606l-1.635.211q-1.354.176-1.354,1.222a1.01,1.01,0,0,0,.33.778,1.266,1.266,0,0,0,.892.3,1.644,1.644,0,0,0,1.274-.541A1.952,1.952,0,0,0,49.271,15.344Z" transform="translate(253 4500)" fill="#00223d"/>
  </g>
</svg>
