<svg xmlns="http://www.w3.org/2000/svg" xmlns:xlink="http://www.w3.org/1999/xlink" width="186" height="186" viewBox="0 0 186 186">
  <defs>
    <filter id="Elipse_5604" x="0" y="0" width="186" height="186" filterUnits="userSpaceOnUse">
      <feOffset dy="3" input="SourceAlpha"/>
      <feGaussianBlur stdDeviation="3" result="blur"/>
      <feFlood flood-opacity="0.161"/>
      <feComposite operator="in" in2="blur"/>
      <feComposite in="SourceGraphic"/>
    </filter>
    <clipPath id="clip-path">
      <rect id="Rectángulo_4466" data-name="Rectángulo 4466" width="112.009" height="76.534" fill="none"/>
    </clipPath>
  </defs>
  <g id="Grupo_958055" data-name="Grupo 958055" transform="translate(-707 -1050)">
    <g transform="matrix(1, 0, 0, 1, 707, 1050)" filter="url(#Elipse_5604)">
      <circle id="Elipse_5604-2" data-name="Elipse 5604" cx="84" cy="84" r="84" transform="translate(9 6)" fill="#80cab6"/>
    </g>
    <g id="Grupo_17127" data-name="Grupo 17127" transform="translate(744 1102)">
      <g id="Grupo_17126" data-name="Grupo 17126" clip-path="url(#clip-path)">
        <path id="Trazado_32360" data-name="Trazado 32360" d="M54.952,16.384a2.943,2.943,0,0,1-2.838,3.039H46.723a2.944,2.944,0,0,1-2.839-3.039v-2.9a2.944,2.944,0,0,1,2.839-3.039h5.392a2.943,2.943,0,0,1,2.838,3.039Z" transform="translate(-19.208 -4.678)" fill="#202020"/>
        <path id="Rectángulo_4464" data-name="Rectángulo 4464" d="M5.048,0H8.44a5.047,5.047,0,0,1,5.047,5.047v5.137a5.048,5.048,0,0,1-5.048,5.048H5.047A5.047,5.047,0,0,1,0,10.185V5.048A5.048,5.048,0,0,1,5.048,0Z" transform="translate(15.237 2.641)" fill="#3f3f3f"/>
        <path id="Trazado_32361" data-name="Trazado 32361" d="M37.746,25.323H29.934A2.812,2.812,0,0,1,27.1,22.536v2.641a2.812,2.812,0,0,0,2.837,2.787h7.812a2.813,2.813,0,0,0,2.838-2.787V22.536a2.813,2.813,0,0,1-2.838,2.787" transform="translate(-11.86 -10.092)" fill="#202020"/>
        <path id="Trazado_32362" data-name="Trazado 32362" d="M95.652,0H58.38L55.22,1.557V19.281l3.429,2.793v1.677l2.526,2.417H98.63V3.113Z" transform="translate(-24.17 0)" fill="#fbb03b"/>
        <path id="Trazado_32363" data-name="Trazado 32363" d="M148.72,71.115C148.722,39.34,137.955,16,137.955,16V12.2l1.984-3.295-1.88-3.27H95.024l-2.3,3.27H87.765v29.2H122.75l10.289,34.049-3.477,3.414v3.484h20.861V75.575Z" transform="translate(-38.414 -2.525)" fill="#fbb03b"/>
        <path id="Trazado_32364" data-name="Trazado 32364" d="M174.026,76.38a6.324,6.324,0,1,1-6.324-6.21,6.267,6.267,0,0,1,6.324,6.21" transform="translate(-70.635 -31.422)" fill="#ff9130"/>
        <path id="Trazado_32365" data-name="Trazado 32365" d="M83.382,11.559v29.2l-5.631-4.574V21.409Z" transform="translate(-34.031 -5.176)" fill="#ff9130"/>
        <path id="Trazado_32366" data-name="Trazado 32366" d="M123.617,64.446l2.116,4.753h7.172l2.575,2.077,2.85,11.469a8.814,8.814,0,0,0,5.642,0l-5.53-18.3Z" transform="translate(-54.107 -28.859)" fill="#3f3f3f"/>
        <path id="Trazado_32367" data-name="Trazado 32367" d="M92.619,24.822a1.11,1.11,0,0,1-2.22,0V17.478a1.11,1.11,0,0,1,2.22,0Z" transform="translate(-39.567 -7.339)" fill="#202020"/>
        <path id="Trazado_32368" data-name="Trazado 32368" d="M92.619,48.41a1.11,1.11,0,0,1-2.22,0V41.066a1.11,1.11,0,0,1,2.22,0Z" transform="translate(-39.567 -17.901)" fill="#202020"/>
        <path id="Trazado_32369" data-name="Trazado 32369" d="M142.448,67.287c-.818-2.639-4.005-2.842-4.005-2.842H123.618l.868,1.951H136.34l5.07,16.778a10.556,10.556,0,0,0,2.563-.43,3.289,3.289,0,0,0,1.046-2.376c-.233-2.181-2.57-13.083-2.57-13.083" transform="translate(-54.107 -28.859)" fill="#202020"/>
        <path id="Trazado_32370" data-name="Trazado 32370" d="M173.558,78.065a4.209,4.209,0,1,1-4.209-4.133,4.172,4.172,0,0,1,4.209,4.133" transform="translate(-72.282 -33.107)" fill="#fbb03b"/>
        <path id="Trazado_32371" data-name="Trazado 32371" d="M173.312,78.949a3.1,3.1,0,1,1-3.1-3.042,3.071,3.071,0,0,1,3.1,3.042" transform="translate(-73.146 -33.991)" fill="#202020"/>
        <path id="Rectángulo_4465" data-name="Rectángulo 4465" d="M5.047,0H16.432a5.047,5.047,0,0,1,5.047,5.047v5.237a5.048,5.048,0,0,1-5.048,5.048H5.049A5.049,5.049,0,0,1,0,10.283V5.047A5.047,5.047,0,0,1,5.047,0Z" transform="translate(58.208 12.282)" fill="#202020"/>
        <path id="Trazado_32372" data-name="Trazado 32372" d="M155.05,22.964a.729.729,0,0,1-.736.723h-6.151a.723.723,0,1,1,0-1.445h6.151a.729.729,0,0,1,.736.722" transform="translate(-64.528 -9.96)" fill="#ff9130"/>
        <path id="Trazado_32373" data-name="Trazado 32373" d="M155.05,27.994a.729.729,0,0,1-.736.723h-6.151a.723.723,0,1,1,0-1.445h6.151a.729.729,0,0,1,.736.722" transform="translate(-64.528 -12.213)" fill="#ff9130"/>
        <path id="Trazado_32374" data-name="Trazado 32374" d="M155.05,33.023a.729.729,0,0,1-.736.723h-6.151a.723.723,0,1,1,0-1.445h6.151a.729.729,0,0,1,.736.722" transform="translate(-64.528 -14.465)" fill="#ff9130"/>
        <path id="Trazado_32375" data-name="Trazado 32375" d="M155.05,38.053a.729.729,0,0,1-.736.723h-6.151a.723.723,0,1,1,0-1.445h6.151a.729.729,0,0,1,.736.722" transform="translate(-64.528 -16.717)" fill="#ff9130"/>
        <path id="Trazado_32376" data-name="Trazado 32376" d="M155.05,43.083a.729.729,0,0,1-.736.723h-6.151a.723.723,0,1,1,0-1.445h6.151a.729.729,0,0,1,.736.722" transform="translate(-64.528 -18.969)" fill="#ff9130"/>
        <path id="Trazado_32377" data-name="Trazado 32377" d="M155.05,48.113a.729.729,0,0,1-.736.723h-6.151a.723.723,0,1,1,0-1.446h6.151a.729.729,0,0,1,.736.723" transform="translate(-64.528 -21.221)" fill="#ff9130"/>
        <path id="Trazado_32378" data-name="Trazado 32378" d="M70.086,4.177,73.52,6.383h4.962l2.3-3.27h6.653V0H58.38L55.22,1.557,59.6,4.177Z" transform="translate(-24.17 0)" fill="#ff9130"/>
        <path id="Trazado_32379" data-name="Trazado 32379" d="M61.319,39.976h2.53l0,4.095-2.526-2.417Z" transform="translate(-26.839 -17.901)" fill="#ff9130"/>
        <path id="Trazado_32380" data-name="Trazado 32380" d="M162.1,128.673l19.158-4.46,1.7,4.46v3.484H162.1Z" transform="translate(-70.949 -55.623)" fill="#ff9130"/>
        <path id="Trazado_32381" data-name="Trazado 32381" d="M162.1,133.962l20.861-1.672v3.484H162.1Z" transform="translate(-70.949 -59.24)" fill="#202020"/>
        <path id="Trazado_32382" data-name="Trazado 32382" d="M158.662,9.459a.729.729,0,0,0,.736-.723v-3.1h-1.473v3.1a.73.73,0,0,0,.737.723" transform="translate(-69.123 -2.525)" fill="#202020"/>
        <path id="Trazado_32383" data-name="Trazado 32383" d="M153.632,9.459a.73.73,0,0,0,.736-.723v-3.1H152.9v3.1a.73.73,0,0,0,.737.723" transform="translate(-66.922 -2.525)" fill="#202020"/>
        <path id="Trazado_32384" data-name="Trazado 32384" d="M163.692,9.459a.729.729,0,0,0,.735-.723v-3.1h-1.473v3.1a.73.73,0,0,0,.737.723" transform="translate(-71.325 -2.525)" fill="#202020"/>
        <path id="Trazado_32385" data-name="Trazado 32385" d="M149.339,8.736v-3.1h-1.472v3.1a.736.736,0,0,0,1.472,0" transform="translate(-64.721 -2.525)" fill="#202020"/>
        <path id="Trazado_32386" data-name="Trazado 32386" d="M143.572,9.459a.73.73,0,0,0,.737-.723v-3.1h-1.473v3.1a.73.73,0,0,0,.736.723" transform="translate(-62.519 -2.525)" fill="#202020"/>
        <path id="Trazado_32387" data-name="Trazado 32387" d="M168.722,9.459a.729.729,0,0,0,.736-.723v-3.1h-1.472v3.1a.73.73,0,0,0,.737.723" transform="translate(-73.526 -2.525)" fill="#202020"/>
        <path id="Trazado_32388" data-name="Trazado 32388" d="M13.278,8.513,11.106,10.2V17.8l2.172,1.822Z" transform="translate(-4.861 -3.812)" fill="#3f3f3f"/>
        <path id="Trazado_32389" data-name="Trazado 32389" d="M13.278,23.359l-2.172-1.822v2.1l2.172,1.822Z" transform="translate(-4.861 -9.644)" fill="#202020"/>
        <path id="Trazado_32390" data-name="Trazado 32390" d="M0,14.554v3.066l6.244,1.533V13.021Z" transform="translate(0 -5.831)" fill="#656565"/>
        <path id="Trazado_32391" data-name="Trazado 32391" d="M0,19.956l6.244,1.533v-1.72L0,18.236Z" transform="translate(0 -8.166)" fill="#3f3f3f"/>
      </g>
    </g>
  </g>
</svg>
