<svg xmlns="http://www.w3.org/2000/svg" width="124" height="124" viewBox="0 0 124 124">
  <g id="Grupo_959098" data-name="Grupo 959098" transform="translate(-600 -520)">
    <rect id="Rectángulo_340126" data-name="Rectángulo 340126" width="124" height="124" transform="translate(600 520)" fill="#80cab6"/>
    <g id="muestra-de-orina" transform="translate(622.002 541.002)">
      <path id="Trazado_724294" data-name="Trazado 724294" d="M36,40V66.258h4.774V63.871a2.386,2.386,0,0,1,2.387-2.387h16.71a2.386,2.386,0,0,1,2.387,2.387v2.387h4.774V40" transform="translate(6.774 7.549)" fill="#c7e2fc"/>
      <path id="Trazado_724295" data-name="Trazado 724295" d="M36,55.566A47.861,47.861,0,0,0,48.616,40H36Z" transform="translate(6.774 7.549)" fill="#ebf7fe"/>
      <path id="Trazado_724296" data-name="Trazado 724296" d="M44,39.419V6H55.936V39.419" transform="translate(8.323 0.968)" fill="#c7e2fc"/>
      <path id="Trazado_724297" data-name="Trazado 724297" d="M44,39.419h6A47.652,47.652,0,0,0,52.22,25.03,47.492,47.492,0,0,0,48.26,6H44Z" transform="translate(8.323 0.968)" fill="#ebf7fe"/>
      <path id="Trazado_724298" data-name="Trazado 724298" d="M55.936,25V53.645a5.968,5.968,0,0,1-11.936,0V25Z" transform="translate(8.323 4.645)" fill="#f2c351"/>
      <path id="Trazado_724299" data-name="Trazado 724299" d="M52.067,25H44V48.118A47.407,47.407,0,0,0,52.067,25Z" transform="translate(8.323 4.645)" fill="#f7d881"/>
      <path id="Trazado_724300" data-name="Trazado 724300" d="M32.645,68.968H6.387A2.386,2.386,0,0,1,4,66.581V26H35.032V66.581A2.386,2.386,0,0,1,32.645,68.968Z" transform="translate(0.581 4.839)" fill="#c7e2fc"/>
      <path id="Trazado_724301" data-name="Trazado 724301" d="M4,65.714A40.088,40.088,0,0,0,25.752,30.06a40.366,40.366,0,0,0-.2-4.059H4Z" transform="translate(0.581 4.839)" fill="#ebf7fe"/>
      <path id="Trazado_724302" data-name="Trazado 724302" d="M35.032,45V62.9a2.386,2.386,0,0,1-2.387,2.387H6.387A2.386,2.386,0,0,1,4,62.9V45Z" transform="translate(0.581 8.516)" fill="#f2c351"/>
      <path id="Trazado_724303" data-name="Trazado 724303" d="M4,62.037A40.267,40.267,0,0,0,21.167,45H4V62.037Z" transform="translate(0.581 8.516)" fill="#f7d881"/>
      <path id="Trazado_724304" data-name="Trazado 724304" d="M9,36H28.1V52.71H9Z" transform="translate(1.548 6.775)" fill="#a8b0bc"/>
      <path id="Trazado_724305" data-name="Trazado 724305" d="M24.008,36H9V52.71h7.353A39.935,39.935,0,0,0,24.008,36Z" transform="translate(1.548 6.775)" fill="#c1c8d1"/>
      <g id="Grupo_958766" data-name="Grupo 958766" transform="translate(3.387 18.903)">
        <path id="Trazado_724306" data-name="Trazado 724306" d="M3,24.355V18.387A2.386,2.386,0,0,1,5.387,16H34.032a2.386,2.386,0,0,1,2.387,2.387v5.968" transform="translate(-3 -16)" fill="#758190"/>
        <path id="Trazado_724307" data-name="Trazado 724307" d="M9,36H28.1v3.581H9Z" transform="translate(-1.839 -12.129)" fill="#758190"/>
        <path id="Trazado_724308" data-name="Trazado 724308" d="M9,47H28.1v3.581H9Z" transform="translate(-1.839 -10)" fill="#758190"/>
      </g>
      <path id="Trazado_724309" data-name="Trazado 724309" d="M35.419,26.774H4.387a2.387,2.387,0,1,1,0-4.774H35.419a2.387,2.387,0,1,1,0,4.774Z" transform="translate(0.194 4.065)" fill="#a8b0bc"/>
      <g id="Grupo_958767" data-name="Grupo 958767" transform="translate(6.968 18.902)">
        <path id="Trazado_724310" data-name="Trazado 724310" d="M6,16H8.386v7.16H6Z" transform="translate(-6 -15.999)" fill="#8892a0"/>
      </g>
      <g id="Grupo_958768" data-name="Grupo 958768" transform="translate(11.742 18.902)">
        <path id="Trazado_724311" data-name="Trazado 724311" d="M10,16h2.386v7.16H10Z" transform="translate(-10 -15.999)" fill="#8892a0"/>
      </g>
      <g id="Grupo_958769" data-name="Grupo 958769" transform="translate(16.516 18.902)">
        <path id="Trazado_724312" data-name="Trazado 724312" d="M14,16h2.386v7.16H14Z" transform="translate(-14 -15.999)" fill="#8892a0"/>
      </g>
      <g id="Grupo_958770" data-name="Grupo 958770" transform="translate(21.29 18.902)">
        <path id="Trazado_724313" data-name="Trazado 724313" d="M18,16h2.386v7.16H18Z" transform="translate(-18 -15.999)" fill="#8892a0"/>
      </g>
      <g id="Grupo_958771" data-name="Grupo 958771" transform="translate(26.065 18.902)">
        <path id="Trazado_724314" data-name="Trazado 724314" d="M22,16h2.386v7.16H22Z" transform="translate(-22 -15.999)" fill="#8892a0"/>
      </g>
      <g id="Grupo_958772" data-name="Grupo 958772" transform="translate(30.839 18.902)">
        <path id="Trazado_724315" data-name="Trazado 724315" d="M26,16h2.386v7.16H26Z" transform="translate(-26 -15.999)" fill="#8892a0"/>
      </g>
      <g id="Grupo_958773" data-name="Grupo 958773" transform="translate(14.129 49.935)">
        <path id="Trazado_724316" data-name="Trazado 724316" d="M12,42h2.386v2.386H12Z" transform="translate(-12 -41.999)" fill="#e7e4dd"/>
      </g>
      <g id="Grupo_958774" data-name="Grupo 958774" transform="translate(18.903 49.935)">
        <path id="Trazado_724317" data-name="Trazado 724317" d="M16,42h2.386v2.386H16Z" transform="translate(-16 -41.999)" fill="#e7e4dd"/>
      </g>
      <g id="Grupo_958775" data-name="Grupo 958775" transform="translate(23.677 49.935)">
        <path id="Trazado_724318" data-name="Trazado 724318" d="M20,42h2.386v2.386H20Z" transform="translate(-20 -41.999)" fill="#d5cec2"/>
      </g>
      <path id="Trazado_724319" data-name="Trazado 724319" d="M36,34H67.032v7.161H36Z" transform="translate(6.774 6.387)" fill="#a8b0bc"/>
      <path id="Trazado_724320" data-name="Trazado 724320" d="M56.323,6.774H44.387a2.387,2.387,0,0,1,0-4.774H56.323a2.387,2.387,0,1,1,0,4.774Z" transform="translate(7.936 0.194)" fill="#a1cdfb"/>
      <g id="Grupo_958776" data-name="Grupo 958776" transform="translate(59.483 10.547)">
        <path id="Trazado_724321" data-name="Trazado 724321" d="M50,9h2.386v7.16H50Z" transform="translate(-49.999 -8.999)" fill="#fff"/>
      </g>
      <path id="Trazado_724322" data-name="Trazado 724322" d="M24.008,36H9v3.581H23.115C23.465,38.409,23.765,37.215,24.008,36Z" transform="translate(1.548 6.775)" fill="#8892a0"/>
      <path id="Trazado_724323" data-name="Trazado 724323" d="M18.844,47H9v3.581h7.353A40.244,40.244,0,0,0,18.844,47Z" transform="translate(1.548 8.904)" fill="#8892a0"/>
      <path id="Trazado_724324" data-name="Trazado 724324" d="M46.234,2H44.387a2.387,2.387,0,0,0,0,4.774h4.26A47.552,47.552,0,0,0,46.234,2Z" transform="translate(7.936 0.194)" fill="#c7e2fc"/>
      <path id="Trazado_724325" data-name="Trazado 724325" d="M51.553,34H36v7.161H48.616A47.315,47.315,0,0,0,51.553,34Z" transform="translate(6.774 6.387)" fill="#c1c8d1"/>
      <g id="Grupo_958777" data-name="Grupo 958777" transform="translate(1 0.999)">
        <path id="Trazado_724326" data-name="Trazado 724326" d="M38,23.092V18.58A3.585,3.585,0,0,0,34.418,15H5.774A3.585,3.585,0,0,0,2.194,18.58v4.512A3.548,3.548,0,0,0,3.387,29.1v39.6a3.585,3.585,0,0,0,3.581,3.581H33.225a3.585,3.585,0,0,0,3.581-3.581V29.1A3.55,3.55,0,0,0,38,23.092Zm-3.581,26.52H30.838V40.064a1.192,1.192,0,0,0-1.194-1.194h-19.1a1.192,1.192,0,0,0-1.194,1.194v9.548H5.774V29.322H34.418Zm-5.968-7.161H11.742V41.257H28.451ZM11.742,54.387l16.709,0v1.194H11.742ZM28.451,52H11.742V44.839l16.709,0Zm7.163-25.066H4.579a1.193,1.193,0,0,1,0-2.386H35.613a1.193,1.193,0,0,1,0,2.386ZM28.451,22.16V17.386h2.388V22.16Zm-2.386,0H23.676V17.386h2.388Zm-4.774,0H18.9V17.386H21.29Zm-4.774,0H14.128V17.386h2.388Zm-4.774,0H9.354V17.386h2.388Zm23.87-3.581V22.16H33.225V17.386h1.194A1.194,1.194,0,0,1,35.612,18.58ZM5.774,17.386H6.968V22.16H4.581V18.58A1.194,1.194,0,0,1,5.774,17.386ZM33.225,69.9H6.968a1.194,1.194,0,0,1-1.194-1.194V52H9.355v4.774a1.192,1.192,0,0,0,1.194,1.194h19.1a1.192,1.192,0,0,0,1.194-1.194V52h3.581v16.71A1.194,1.194,0,0,1,33.225,69.9Z" transform="translate(-1 1.711)"/>
        <path id="Trazado_724327" data-name="Trazado 724327" d="M12,42h2.386v2.386H12Z" transform="translate(1.129 6.937)"/>
        <path id="Trazado_724328" data-name="Trazado 724328" d="M16,42h2.386v2.386H16Z" transform="translate(1.903 6.937)"/>
        <path id="Trazado_724329" data-name="Trazado 724329" d="M20,42h2.386v2.386H20Z" transform="translate(2.677 6.937)"/>
        <path id="Trazado_724330" data-name="Trazado 724330" d="M68.417,40.387a1.192,1.192,0,0,0-1.194-1.194H58.869V7.94A3.571,3.571,0,0,0,57.678,1H45.741A3.571,3.571,0,0,0,44.547,7.94V39.194H36.193A1.192,1.192,0,0,0,35,40.387v7.16h0V73.8A1.192,1.192,0,0,0,36.193,75h4.774A1.193,1.193,0,0,0,42.16,73.8V71.417a1.2,1.2,0,0,1,1.194-1.194H60.062a1.2,1.2,0,0,1,1.194,1.194V73.8A1.193,1.193,0,0,0,62.45,75h4.774A1.192,1.192,0,0,0,68.417,73.8V47.549h0ZM56.482,8.16v20.29H46.935V8.16ZM45.741,3.386H57.678a1.193,1.193,0,0,1,0,2.386H45.741a1.193,1.193,0,1,1,0-2.386Zm1.194,27.451h9.547v8.357H46.935ZM37.386,41.581H66.03v4.773H37.386Zm9.548,7.16h9.547V58.29a4.774,4.774,0,1,1-9.547,0Zm16.709,23.87V71.417a3.586,3.586,0,0,0-3.581-3.581H43.354a3.586,3.586,0,0,0-3.581,3.581v1.194H37.386V48.741h7.161V58.29a7.161,7.161,0,1,0,14.321,0V48.741H66.03v23.87Z" transform="translate(5.581 -0.999)"/>
        <path id="Trazado_724331" data-name="Trazado 724331" d="M50,9h2.386v7.16H50Z" transform="translate(8.484 0.549)"/>
      </g>
    </g>
  </g>
</svg>
