<svg xmlns="http://www.w3.org/2000/svg" width="105" height="105" viewBox="0 0 105 105">
  <g id="Grupo_959104" data-name="Grupo 959104" transform="translate(-748 -1099)">
    <circle id="Elipse_5685" data-name="Elipse 5685" cx="52.5" cy="52.5" r="52.5" transform="translate(748 1099)" fill="#80cab6"/>
    <g id="lista-de-verificacion_2_" data-name="lista-de-verificacion (2)" transform="translate(731.278 1118.439)">
      <g id="Grupo_958783" data-name="Grupo 958783" transform="translate(43.795 0.909)">
        <path id="Trazado_724366" data-name="Trazado 724366" d="M96.023,9.925v55.4A2.425,2.425,0,0,1,93.6,67.752H52.809a2.425,2.425,0,0,1-2.425-2.425V9.925A2.425,2.425,0,0,1,52.809,7.5H93.6A2.425,2.425,0,0,1,96.023,9.925Z" transform="translate(-50.384 -7.5)" fill="#fca62f"/>
        <path id="Trazado_724367" data-name="Trazado 724367" d="M391.966,9.925v55.4a2.425,2.425,0,0,1-2.425,2.425h-2.387a2.425,2.425,0,0,0,2.425-2.425V9.925A2.425,2.425,0,0,0,387.154,7.5h2.387A2.425,2.425,0,0,1,391.966,9.925Z" transform="translate(-346.327 -7.5)" fill="#fb9927"/>
        <path id="Trazado_724368" data-name="Trazado 724368" d="M346.094,115.434v13.706a7.678,7.678,0,1,1,0-13.706Z" transform="translate(-300.455 -101.625)" fill="#fb9927"/>
        <g id="Grupo_958782" data-name="Grupo 958782" transform="translate(3.938 3.664)">
          <path id="Trazado_724369" data-name="Trazado 724369" d="M120.627,38.858V89.423a1.137,1.137,0,0,1-1.138,1.137H84a1.137,1.137,0,0,1-1.138-1.137V38.858A1.139,1.139,0,0,1,84,37.72h35.487A1.139,1.139,0,0,1,120.627,38.858Z" transform="translate(-82.864 -37.72)" fill="#f8f3f1"/>
          <g id="Grupo_958781" data-name="Grupo 958781" transform="translate(7.062)">
            <path id="Trazado_724370" data-name="Trazado 724370" d="M141.114,37.72v3.352a1.213,1.213,0,0,0,1.212,1.212h.689v1.624a2.819,2.819,0,0,0,2.816,2.816h14.206a2.819,2.819,0,0,0,2.816-2.816V42.284h.689a1.213,1.213,0,0,0,1.212-1.212V37.72Zm19.921,6.189a1,1,0,0,1-1,1H145.831a1,1,0,0,1-1-1V42.284h16.2Z" transform="translate(-141.114 -37.72)" fill="#efe2dd"/>
            <path id="Trazado_724371" data-name="Trazado 724371" d="M367.017,38.858V89.422a1.139,1.139,0,0,1-1.138,1.138h-2.635a1.139,1.139,0,0,0,1.138-1.138V38.858a1.139,1.139,0,0,0-1.138-1.138h2.635A1.139,1.139,0,0,1,367.017,38.858Z" transform="translate(-336.315 -37.72)" fill="#efe2dd"/>
          </g>
        </g>
        <path id="Trazado_724372" data-name="Trazado 724372" d="M163.542,13.909H142.326a1.212,1.212,0,0,1-1.212-1.212V7.5h23.64v5.2A1.212,1.212,0,0,1,163.542,13.909Z" transform="translate(-130.115 -7.5)" fill="#5bbd93"/>
        <path id="Trazado_724373" data-name="Trazado 724373" d="M310.023,7.5v5.2a1.213,1.213,0,0,1-1.212,1.212h-2.387a1.213,1.213,0,0,0,1.212-1.212V7.5Z" transform="translate(-275.384 -7.5)" fill="#2db181"/>
        <circle id="Elipse_5687" data-name="Elipse 5687" cx="7.677" cy="7.677" r="7.677" transform="translate(34.499 10.85)" fill="#bcea73"/>
        <path id="Trazado_724374" data-name="Trazado 724374" d="M397.4,104.678a7.687,7.687,0,0,1-8.858,7.588,7.679,7.679,0,0,0,0-15.174A7.6,7.6,0,0,1,389.725,97,7.677,7.677,0,0,1,397.4,104.678Z" transform="translate(-347.548 -86.15)" fill="#a3e440"/>
      </g>
      <path id="Trazado_724375" data-name="Trazado 724375" d="M126.111,187.833H122.6a.606.606,0,0,1-.606-.606v-3.516a.606.606,0,0,1,.606-.606h3.516a.606.606,0,0,1,.606.606v3.516A.606.606,0,0,1,126.111,187.833Z" transform="translate(-69.513 -160.907)" fill="#bcea73"/>
      <g id="Grupo_958785" data-name="Grupo 958785" transform="translate(42.886)">
        <path id="Trazado_724376" data-name="Trazado 724376" d="M126.111,288.045H122.6a.606.606,0,0,1-.606-.606v-3.516a.606.606,0,0,1,.606-.606h3.516a.606.606,0,0,1,.606.606v3.516A.606.606,0,0,1,126.111,288.045Z" transform="translate(-112.399 -248.97)" fill="#bcea73"/>
        <g id="Grupo_958784" data-name="Grupo 958784">
          <path id="Trazado_724377" data-name="Trazado 724377" d="M117.23,382.168h.048a7.658,7.658,0,0,0,2.625-.619c.9.839,2.3.814,3.686-.1l.067-.044a1.431,1.431,0,0,0,.548.423,2.375,2.375,0,0,0,1.92-.187,10.992,10.992,0,0,0,1.119-.671,1.455,1.455,0,0,0,1.07.936,1.709,1.709,0,0,0,1.039-.17A7.873,7.873,0,0,0,131,380.72c2.008,1.316,4.624,1.1,6.937.781a.909.909,0,1,0-.246-1.8c-2.071.283-4.405.491-5.895-.642a1.365,1.365,0,0,0-1.718.064,6.061,6.061,0,0,1-1.174.8,1.364,1.364,0,0,0-2.185-.833,9.168,9.168,0,0,1-1.438.931,1.212,1.212,0,0,1-.236.094,1.184,1.184,0,0,0-.652-.619,2.065,2.065,0,0,0-1.811.429,3.16,3.16,0,0,1-.584.3,7.656,7.656,0,0,0,2.292-3.431,1.79,1.79,0,0,0-.508-1.888,1.818,1.818,0,0,0-2.6.312,6.967,6.967,0,0,0-2.057,3.945,2.947,2.947,0,0,0-.022.736,5.768,5.768,0,0,1-1.923.446.909.909,0,0,0,.047,1.817Zm5.214-5.633.024-.023a5.8,5.8,0,0,1-1.308,2A5.171,5.171,0,0,1,122.445,376.535Z" transform="translate(-107.419 -329.099)"/>
          <path id="Trazado_724378" data-name="Trazado 724378" d="M169.21,28.252h.117a.909.909,0,1,0,0-1.818h-.117a.909.909,0,1,0,0,1.818Z" transform="translate(-153.097 -23.229)"/>
          <path id="Trazado_724379" data-name="Trazado 724379" d="M293.872,28.252h.117a.909.909,0,0,0,0-1.818h-.117a.909.909,0,1,0,0,1.818Z" transform="translate(-262.646 -23.229)"/>
          <path id="Trazado_724380" data-name="Trazado 724380" d="M90.343,12.05V3.334A3.338,3.338,0,0,0,87.009,0H78.762a.874.874,0,0,1-.328,0H54.794a.89.89,0,0,1-.343,0H46.22a3.338,3.338,0,0,0-3.334,3.334v42.31a.909.909,0,1,0,1.818,0V3.334A1.517,1.517,0,0,1,46.22,1.818h7.665V3.664H48.87a2.05,2.05,0,0,0-2.047,2.047V56.275a2.05,2.05,0,0,0,2.047,2.047H84.358a2.05,2.05,0,0,0,2.047-2.047V47.462a.909.909,0,0,0-1.818,0v8.813a.229.229,0,0,1-.229.229H48.87a.229.229,0,0,1-.229-.229V5.712a.229.229,0,0,1,.229-.229h5.015v.623a2.124,2.124,0,0,0,2.122,2.122h.688V9.671a2.819,2.819,0,0,0,2.816,2.816H73.717a2.819,2.819,0,0,0,2.816-2.816V8.228h.688a2.124,2.124,0,0,0,2.122-2.122V5.483h5.014a.229.229,0,0,1,.229.229v5.252A8.613,8.613,0,0,0,78.059,16.1H51.933a.909.909,0,1,0,0,1.818H77.521A8.541,8.541,0,0,0,79.2,24.7H61.226a.909.909,0,0,0,0,1.818h19.9a8.534,8.534,0,0,0,3.457,1.389V43.34a.909.909,0,1,0,1.818,0V28.012a8.541,8.541,0,0,0,2.119-.376v31.1a1.517,1.517,0,0,1-1.515,1.515H46.22A1.517,1.517,0,0,1,44.7,58.736V49.765a.909.909,0,0,0-1.818,0v8.971A3.338,3.338,0,0,0,46.22,62.07H87.009a3.338,3.338,0,0,0,3.334-3.334V26.823a8.579,8.579,0,0,0,0-14.773ZM77.525,6.106a.3.3,0,0,1-.3.3H64.539a.909.909,0,1,0,0,1.818H74.715V9.671a1,1,0,0,1-1,1H59.511a1,1,0,0,1-1-1V8.228h1.9a.909.909,0,0,0,0-1.818H56.007a.3.3,0,0,1-.3-.3V1.818H77.525Zm6.833-2.442H79.344V1.818h7.665a1.517,1.517,0,0,1,1.515,1.515v7.9a8.534,8.534,0,0,0-2.119-.376V5.712a2.049,2.049,0,0,0-2.047-2.047ZM81.1,26.5l0,0C81.1,26.5,81.094,26.5,81.1,26.5Zm4.873-.3a6.768,6.768,0,1,1,6.768-6.768A6.776,6.776,0,0,1,85.972,26.2Z" transform="translate(-42.886)"/>
          <path id="Trazado_724381" data-name="Trazado 724381" d="M371.835,133.095l-4.206,4.206-.771-.771a.909.909,0,0,0-1.286,1.286l1.414,1.414a.909.909,0,0,0,1.286,0l4.849-4.849a.909.909,0,0,0-1.286-1.286Z" transform="translate(-326.218 -116.725)"/>
          <path id="Trazado_724382" data-name="Trazado 724382" d="M116,182.151h3.516a1.517,1.517,0,0,0,1.515-1.515V177.12a1.517,1.517,0,0,0-1.515-1.515H116a1.517,1.517,0,0,0-1.515,1.515v3.516A1.517,1.517,0,0,0,116,182.151Zm.3-4.728h2.91v2.91h-2.91Z" transform="translate(-105.809 -154.316)"/>
          <path id="Trazado_724383" data-name="Trazado 724383" d="M190.42,235a.909.909,0,0,0,0-1.818H190.3a.909.909,0,1,0,0,1.818Z" transform="translate(-171.627 -204.915)"/>
          <path id="Trazado_724384" data-name="Trazado 724384" d="M214.159,235a.909.909,0,1,0,0-1.818h-.123a.909.909,0,0,0,0,1.818Z" transform="translate(-192.488 -204.915)"/>
          <path id="Trazado_724385" data-name="Trazado 724385" d="M237.777,235h.123a.909.909,0,0,0,0-1.818h-.123a.909.909,0,0,0,0,1.818Z" transform="translate(-213.351 -204.915)"/>
          <path id="Trazado_724386" data-name="Trazado 724386" d="M261.639,235a.909.909,0,1,0,0-1.818h-.123a.909.909,0,1,0,0,1.818Z" transform="translate(-234.212 -204.915)"/>
          <path id="Trazado_724387" data-name="Trazado 724387" d="M187.579,177.423h5.337a.909.909,0,0,0,0-1.818h-5.337a.909.909,0,0,0,0,1.818Z" transform="translate(-169.239 -154.316)"/>
          <path id="Trazado_724388" data-name="Trazado 724388" d="M114.489,280.847A1.517,1.517,0,0,0,116,282.362h3.516a1.517,1.517,0,0,0,1.515-1.515v-3.516a1.517,1.517,0,0,0-1.515-1.515H116a1.517,1.517,0,0,0-1.515,1.515Zm1.818-3.213h2.91v2.91h-2.91Z" transform="translate(-105.809 -242.379)"/>
          <path id="Trazado_724389" data-name="Trazado 724389" d="M190.3,335.213h.123a.909.909,0,1,0,0-1.818H190.3a.909.909,0,1,0,0,1.818Z" transform="translate(-171.627 -292.977)"/>
          <path id="Trazado_724390" data-name="Trazado 724390" d="M214.037,335.213h.123a.909.909,0,0,0,0-1.818h-.123a.909.909,0,1,0,0,1.818Z" transform="translate(-192.489 -292.977)"/>
          <path id="Trazado_724391" data-name="Trazado 724391" d="M237.9,335.213a.909.909,0,1,0,0-1.818h-.123a.909.909,0,1,0,0,1.818Z" transform="translate(-213.351 -292.977)"/>
          <path id="Trazado_724392" data-name="Trazado 724392" d="M261.639,335.213a.909.909,0,1,0,0-1.818h-.123a.909.909,0,1,0,0,1.818Z" transform="translate(-234.212 -292.977)"/>
          <path id="Trazado_724393" data-name="Trazado 724393" d="M208.29,304.888a.909.909,0,0,0-.909-.909h-19.8a.909.909,0,1,0,0,1.818h19.8A.909.909,0,0,0,208.29,304.888Z" transform="translate(-169.239 -267.127)"/>
          <path id="Trazado_724394" data-name="Trazado 724394" d="M186.67,276.725a.909.909,0,0,0,.909.909h5.337a.909.909,0,1,0,0-1.818h-5.337A.909.909,0,0,0,186.67,276.725Z" transform="translate(-169.239 -242.379)"/>
        </g>
      </g>
    </g>
  </g>
</svg>
