<svg xmlns="http://www.w3.org/2000/svg" width="105" height="105" viewBox="0 0 105 105">
  <g id="Grupo_959105" data-name="Grupo 959105" transform="translate(-1168 -1099)">
    <circle id="Elipse_5686" data-name="Elipse 5686" cx="52.5" cy="52.5" r="52.5" transform="translate(1168 1099)" fill="#80cab6"/>
    <g id="Layer_48" transform="translate(1180.624 1118)">
      <g id="Grupo_958861" data-name="Grupo 958861" transform="translate(9.376)">
        <g id="Grupo_958787" data-name="Grupo 958787" transform="translate(8.242 6.877)">
          <g id="Grupo_958786" data-name="Grupo 958786">
            <path id="Trazado_724406" data-name="Trazado 724406" d="M82.824,35.074l-8.486-8.486h-31.1a2,2,0,0,0-2,2V83.278a2,2,0,0,0,2,2H80.82a2,2,0,0,0,2-2V61.667l-3.4,8.452-4.9-1.973,8.3-20.625Z" transform="translate(-41.238 -26.588)" fill="#dae6f1"/>
          </g>
        </g>
        <g id="Grupo_958789" data-name="Grupo 958789" transform="translate(51.966 17.68)">
          <g id="Grupo_958788" data-name="Grupo 958788">
            <path id="Trazado_724407" data-name="Trazado 724407" d="M215.939,69.28l-2.15-.866a.9.9,0,0,0-1.14.424l-2.373,4.332,4.9,1.973,1.29-4.768A.9.9,0,0,0,215.939,69.28Z" transform="translate(-210.276 -68.349)" fill="#6cadef"/>
          </g>
        </g>
        <g id="Grupo_958791" data-name="Grupo 958791" transform="translate(46.08 22.493)">
          <g id="Grupo_958790" data-name="Grupo 958790" transform="translate(0)">
            <path id="Trazado_724408" data-name="Trazado 724408" d="M0,0H15.85V5.283H0Z" transform="translate(0 14.709) rotate(-68.05)" fill="#f5c84c"/>
          </g>
        </g>
        <g id="Grupo_958793" data-name="Grupo 958793" transform="translate(41.126 48.435)">
          <g id="Grupo_958792" data-name="Grupo 958792" transform="translate(0)">
            <path id="Trazado_724409" data-name="Trazado 724409" d="M168.766,187.248l-.4,6.5a.614.614,0,0,0,1.08.435l4.218-4.962Z" transform="translate(-168.368 -187.248)" fill="#dae6f1"/>
          </g>
        </g>
        <g id="Grupo_958795" data-name="Grupo 958795" transform="translate(41.126 51.678)">
          <g id="Grupo_958794" data-name="Grupo 958794" transform="translate(0)">
            <path id="Trazado_724410" data-name="Trazado 724410" d="M168.568,199.784l-.2,3.258a.614.614,0,0,0,1.08.435l2.114-2.487Z" transform="translate(-168.368 -199.784)" fill="#6cadef"/>
          </g>
        </g>
        <g id="Grupo_958797" data-name="Grupo 958797" transform="translate(41.561 37.205)">
          <g id="Grupo_958796" data-name="Grupo 958796" transform="translate(0)">
            <path id="Trazado_724411" data-name="Trazado 724411" d="M0,0H12.107V5.283H0Z" transform="translate(0 11.236) rotate(-68.05)" fill="#fcdd86"/>
          </g>
        </g>
        <g id="Grupo_958799" data-name="Grupo 958799" transform="translate(12.19 11.089)">
          <g id="Grupo_958798" data-name="Grupo 958798">
            <path id="Trazado_724412" data-name="Trazado 724412" d="M87.658,47.143a2,2,0,0,1-2-2v-2.27H57.139a.638.638,0,0,0-.638.638v5.568a.638.638,0,0,0,.638.638H89.553a.638.638,0,0,0,.638-.638V47.144H87.658Z" transform="translate(-56.501 -42.869)" fill="#fc657e"/>
          </g>
        </g>
        <g id="Grupo_958801" data-name="Grupo 958801" transform="translate(41.343 6.877)">
          <g id="Grupo_958800" data-name="Grupo 958800">
            <path id="Trazado_724413" data-name="Trazado 724413" d="M169.205,26.588v6.481a2,2,0,0,0,2,2h6.481Z" transform="translate(-169.205 -26.588)" fill="#edf4fc"/>
          </g>
        </g>
        <g id="Grupo_958803" data-name="Grupo 958803" transform="translate(7.595 6.231)">
          <g id="Grupo_958802" data-name="Grupo 958802">
            <path id="Trazado_724414" data-name="Trazado 724414" d="M80.971,46.258a.647.647,0,0,0,.647-.647V33.22a.648.648,0,0,0-.189-.457l-8.486-8.486a.646.646,0,0,0-.457-.189h-31.1a2.654,2.654,0,0,0-2.651,2.651V81.425a2.654,2.654,0,0,0,2.651,2.651H78.966a2.654,2.654,0,0,0,2.651-2.651V59.88a.647.647,0,0,0-1.293,0V81.425a1.359,1.359,0,0,1-1.358,1.358H41.389a1.359,1.359,0,0,1-1.358-1.358V26.739a1.359,1.359,0,0,1,1.358-1.358H72.218l8.107,8.107V45.611A.647.647,0,0,0,80.971,46.258Z" transform="translate(-38.738 -24.088)"/>
          </g>
        </g>
        <g id="Grupo_958805" data-name="Grupo 958805" transform="translate(22.509 21.003)">
          <g id="Grupo_958804" data-name="Grupo 958804">
            <path id="Trazado_724415" data-name="Trazado 724415" d="M108.8,81.2H97.043a.647.647,0,0,0,0,1.293H108.8a.647.647,0,0,0,0-1.293Z" transform="translate(-96.396 -81.197)"/>
          </g>
        </g>
        <g id="Grupo_958807" data-name="Grupo 958807" transform="translate(13.156 24.301)">
          <g id="Grupo_958806" data-name="Grupo 958806">
            <path id="Trazado_724416" data-name="Trazado 724416" d="M91.348,93.946H60.884a.647.647,0,0,0,0,1.293H91.348a.647.647,0,0,0,0-1.293Z" transform="translate(-60.237 -93.946)"/>
          </g>
        </g>
        <g id="Grupo_958809" data-name="Grupo 958809" transform="translate(13.156 27.598)">
          <g id="Grupo_958808" data-name="Grupo 958808">
            <path id="Trazado_724417" data-name="Trazado 724417" d="M91.348,106.694H60.884a.647.647,0,0,0,0,1.293H91.348a.647.647,0,0,0,0-1.293Z" transform="translate(-60.237 -106.694)"/>
          </g>
        </g>
        <g id="Grupo_958811" data-name="Grupo 958811" transform="translate(25.916 30.896)">
          <g id="Grupo_958810" data-name="Grupo 958810">
            <path id="Trazado_724418" data-name="Trazado 724418" d="M122.113,119.443h-11.9a.647.647,0,0,0,0,1.293h11.9a.647.647,0,1,0,0-1.293Z" transform="translate(-109.568 -119.443)"/>
          </g>
        </g>
        <g id="Grupo_958813" data-name="Grupo 958813" transform="translate(25.916 34.194)">
          <g id="Grupo_958812" data-name="Grupo 958812">
            <path id="Trazado_724419" data-name="Trazado 724419" d="M122.113,132.192h-11.9a.647.647,0,0,0,0,1.293h11.9a.647.647,0,1,0,0-1.293Z" transform="translate(-109.568 -132.192)"/>
          </g>
        </g>
        <g id="Grupo_958815" data-name="Grupo 958815" transform="translate(25.916 37.491)">
          <g id="Grupo_958814" data-name="Grupo 958814">
            <path id="Trazado_724420" data-name="Trazado 724420" d="M122.113,144.94h-11.9a.647.647,0,1,0,0,1.293h11.9a.647.647,0,1,0,0-1.293Z" transform="translate(-109.568 -144.94)"/>
          </g>
        </g>
        <g id="Grupo_958817" data-name="Grupo 958817" transform="translate(18.962 30.896)">
          <g id="Grupo_958816" data-name="Grupo 958816">
            <path id="Trazado_724421" data-name="Trazado 724421" d="M87.178,119.443H83.328a.647.647,0,0,0,0,1.293h3.851a.647.647,0,0,0,0-1.293Z" transform="translate(-82.681 -119.443)"/>
          </g>
        </g>
        <g id="Grupo_958819" data-name="Grupo 958819" transform="translate(18.962 34.194)">
          <g id="Grupo_958818" data-name="Grupo 958818">
            <path id="Trazado_724422" data-name="Trazado 724422" d="M87.178,132.192H83.328a.647.647,0,1,0,0,1.293h3.851a.647.647,0,1,0,0-1.293Z" transform="translate(-82.681 -132.192)"/>
          </g>
        </g>
        <g id="Grupo_958821" data-name="Grupo 958821" transform="translate(18.962 37.491)">
          <g id="Grupo_958820" data-name="Grupo 958820">
            <path id="Trazado_724423" data-name="Trazado 724423" d="M87.178,144.94H83.328a.647.647,0,1,0,0,1.293h3.851a.647.647,0,0,0,0-1.293Z" transform="translate(-82.681 -144.94)"/>
          </g>
        </g>
        <g id="Grupo_958823" data-name="Grupo 958823" transform="translate(13.156 40.789)">
          <g id="Grupo_958822" data-name="Grupo 958822">
            <path id="Trazado_724424" data-name="Trazado 724424" d="M91.348,157.689H60.884a.647.647,0,0,0,0,1.293H91.348a.647.647,0,0,0,0-1.293Z" transform="translate(-60.237 -157.689)"/>
          </g>
        </g>
        <g id="Grupo_958825" data-name="Grupo 958825" transform="translate(13.156 44.087)">
          <g id="Grupo_958824" data-name="Grupo 958824">
            <path id="Trazado_724425" data-name="Trazado 724425" d="M90.055,170.438H60.884a.647.647,0,0,0,0,1.293H90.055a.647.647,0,0,0,0-1.293Z" transform="translate(-60.237 -170.438)"/>
          </g>
        </g>
        <g id="Grupo_958827" data-name="Grupo 958827" transform="translate(32.656 58.717)">
          <g id="Grupo_958826" data-name="Grupo 958826">
            <path id="Trazado_724426" data-name="Trazado 724426" d="M146.617,227H136.271a.647.647,0,1,0,0,1.293h10.347a.647.647,0,1,0,0-1.293Z" transform="translate(-135.624 -227)"/>
          </g>
        </g>
        <g id="Grupo_958829" data-name="Grupo 958829" transform="translate(13.774 58.717)">
          <g id="Grupo_958828" data-name="Grupo 958828">
            <path id="Trazado_724427" data-name="Trazado 724427" d="M73.618,227H63.272a.647.647,0,1,0,0,1.293H73.618a.647.647,0,1,0,0-1.293Z" transform="translate(-62.625 -227)"/>
          </g>
        </g>
        <g id="Grupo_958831" data-name="Grupo 958831" transform="translate(13.774 50.604)">
          <g id="Grupo_958830" data-name="Grupo 958830">
            <path id="Trazado_724428" data-name="Trazado 724428" d="M74.2,198.931a.647.647,0,0,0-.868-.289l-1.7.85a.067.067,0,0,1-.066,0l-2.029-1.353a1.36,1.36,0,0,0-2.016.626.066.066,0,0,1-.124,0l-.77-2.212a1.359,1.359,0,0,0-2.568,0l-1.4,4.014a.647.647,0,1,0,1.221.425l1.4-4.014a.066.066,0,0,1,.125,0l.77,2.212a1.36,1.36,0,0,0,2.546.058.062.062,0,0,1,.042-.039.063.063,0,0,1,.056.008l2.029,1.353a1.363,1.363,0,0,0,1.362.085l1.7-.85a.647.647,0,0,0,.289-.868Z" transform="translate(-62.624 -195.633)"/>
          </g>
        </g>
        <g id="Grupo_958833" data-name="Grupo 958833" transform="translate(32.656 50.604)">
          <g id="Grupo_958832" data-name="Grupo 958832" transform="translate(0)">
            <path id="Trazado_724429" data-name="Trazado 724429" d="M144.388,199.371l-1.854-1.236a1.359,1.359,0,0,0-2.016.626.066.066,0,0,1-.124,0l-.77-2.212a1.343,1.343,0,0,0-1.284-.913h0a1.344,1.344,0,0,0-1.284.913l-1.4,4.014a.647.647,0,1,0,1.221.425l1.4-4.014a.066.066,0,0,1,.125,0l.77,2.212a1.359,1.359,0,0,0,2.546.058.066.066,0,0,1,.1-.03l1.854,1.236a.647.647,0,0,0,.718-1.076Z" transform="translate(-135.624 -195.633)"/>
          </g>
        </g>
        <g id="Grupo_958835" data-name="Grupo 958835" transform="translate(51.319 17.031)">
          <g id="Grupo_958834" data-name="Grupo 958834">
            <path id="Trazado_724430" data-name="Trazado 724430" d="M214.327,66.822l-2.15-.866a1.538,1.538,0,0,0-1.948.713L207.855,71a.647.647,0,0,0,1.134.622l2.381-4.346a.255.255,0,0,1,.324-.12l2.15.866a.26.26,0,0,1,.146.326l-1.29,4.768a.647.647,0,1,0,1.248.338l1.286-4.752A1.544,1.544,0,0,0,214.327,66.822Z" transform="translate(-207.775 -65.842)"/>
          </g>
        </g>
        <g id="Grupo_958837" data-name="Grupo 958837" transform="translate(51.594 19.354)">
          <g id="Grupo_958836" data-name="Grupo 958836">
            <path id="Trazado_724431" data-name="Trazado 724431" d="M215.875,77.345l-6.148-2.475a.647.647,0,1,0-.483,1.2l6.148,2.475a1.425,1.425,0,0,1,.789,1.852l-3.925,9.749a.647.647,0,0,0-.674.928l.3.594a.647.647,0,0,0,.579.358h.026a.647.647,0,0,0,.574-.4l4.325-10.741A2.72,2.72,0,0,0,215.875,77.345Z" transform="translate(-208.838 -74.823)"/>
          </g>
        </g>
        <g id="Grupo_958840" data-name="Grupo 958840" transform="translate(45.4 21.854)">
          <g id="Grupo_958839" data-name="Grupo 958839" transform="translate(0)">
            <g id="Grupo_958838" data-name="Grupo 958838">
              <path id="Trazado_724432" data-name="Trazado 724432" d="M196.6,86.508l-4.9-1.973a.647.647,0,0,0-.841.359l-5.92,14.7a.647.647,0,0,0,.359.841l4.9,1.973a.647.647,0,0,0,.841-.359l5.92-14.7a.646.646,0,0,0-.359-.841Zm-6.519,14.461-3.7-1.49,5.437-13.5,3.7,1.49Z" transform="translate(-184.89 -84.488)"/>
            </g>
          </g>
        </g>
        <g id="Grupo_958842" data-name="Grupo 958842" transform="translate(52.362 50.447)">
          <g id="Grupo_958841" data-name="Grupo 958841" transform="translate(0)">
            <path id="Trazado_724433" data-name="Trazado 724433" d="M215.11,196.622a2.016,2.016,0,0,1-1.6-1.578c0-.026-.078-.026-.078,0a2.016,2.016,0,0,1-1.6,1.578c-.026,0-.026.052,0,.078a2.016,2.016,0,0,1,1.6,1.578c0,.026.078.026.078,0a2.016,2.016,0,0,1,1.6-1.578C215.136,196.674,215.136,196.622,215.11,196.622Z" transform="translate(-211.806 -195.025)" fill="#70d6f9"/>
          </g>
        </g>
        <g id="Grupo_958844" data-name="Grupo 958844" transform="translate(0 24.315)">
          <g id="Grupo_958843" data-name="Grupo 958843">
            <path id="Trazado_724434" data-name="Trazado 724434" d="M13.076,95.423h-.621v-.595A.817.817,0,0,0,11.628,94a.829.829,0,0,0-.828.8v.621H10.2a.817.817,0,0,0-.828.828.8.8,0,0,0,.828.828H10.8v.595a.817.817,0,0,0,.828.828.829.829,0,0,0,.828-.8v-.621h.595a.817.817,0,0,0,.828-.828A.829.829,0,0,0,13.076,95.423Z" transform="translate(-9.376 -94)" fill="#fc657e"/>
          </g>
        </g>
        <g id="Grupo_958846" data-name="Grupo 958846" transform="translate(40.146)">
          <g id="Grupo_958845" data-name="Grupo 958845" transform="translate(0)">
            <path id="Trazado_724435" data-name="Trazado 724435" d="M165.46,0a.879.879,0,1,0,.879.879A.879.879,0,0,0,165.46,0Z" transform="translate(-164.581)" fill="#87d147"/>
          </g>
        </g>
        <g id="Grupo_958848" data-name="Grupo 958848" transform="translate(3.157 33.885)">
          <g id="Grupo_958847" data-name="Grupo 958847">
            <path id="Trazado_724436" data-name="Trazado 724436" d="M22.46,131a.879.879,0,1,0,.879.879A.879.879,0,0,0,22.46,131Z" transform="translate(-21.581 -131)" fill="#f5c84c"/>
          </g>
        </g>
        <g id="Grupo_958850" data-name="Grupo 958850" transform="translate(46.523 3.712)">
          <g id="Grupo_958849" data-name="Grupo 958849">
            <path id="Trazado_724437" data-name="Trazado 724437" d="M193.978,16.639a2.87,2.87,0,0,1-2.3-2.25c0-.052-.1-.052-.1,0a2.87,2.87,0,0,1-2.3,2.25c-.052,0-.052.078,0,.1a2.87,2.87,0,0,1,2.3,2.25c0,.052.1.052.1,0a2.87,2.87,0,0,1,2.3-2.25c.052-.026.052-.1,0-.1Z" transform="translate(-189.231 -14.35)" fill="#f5c84c"/>
          </g>
        </g>
        <g id="Grupo_958852" data-name="Grupo 958852" transform="translate(40.479 47.788)">
          <g id="Grupo_958851" data-name="Grupo 958851" transform="translate(0)">
            <path id="Trazado_724438" data-name="Trazado 724438" d="M172.233,186.875a.646.646,0,0,0-.912.074l-4.154,4.887.391-6.4a.647.647,0,1,0-1.291-.079l-.4,6.5a1.243,1.243,0,0,0,.787,1.246,1.28,1.28,0,0,0,.479.094,1.244,1.244,0,0,0,.952-.447l4.218-4.962A.648.648,0,0,0,172.233,186.875Z" transform="translate(-165.868 -184.748)"/>
          </g>
        </g>
        <g id="Grupo_958854" data-name="Grupo 958854" transform="translate(40.876 51.11)">
          <g id="Grupo_958853" data-name="Grupo 958853" transform="translate(0)">
            <path id="Trazado_724439" data-name="Trazado 724439" d="M170.9,198.687l-2.606-1.049a.647.647,0,0,0-.483,1.2l2.606,1.049a.647.647,0,0,0,.483-1.2Z" transform="translate(-167.402 -197.591)"/>
          </g>
        </g>
        <g id="Grupo_958856" data-name="Grupo 958856" transform="translate(40.878 36.557)">
          <g id="Grupo_958855" data-name="Grupo 958855" transform="translate(0)">
            <path id="Trazado_724440" data-name="Trazado 724440" d="M177.719,143.347a.646.646,0,0,0-.841.358L172.6,154.337l-3.7-1.49,4.281-10.632a.647.647,0,0,0-1.2-.483l-4.522,11.231a.647.647,0,0,0,.359.841l4.9,1.973a.647.647,0,0,0,.841-.359l4.522-11.231a.646.646,0,0,0-.358-.841Z" transform="translate(-167.408 -141.327)"/>
          </g>
        </g>
        <g id="Grupo_958858" data-name="Grupo 958858" transform="translate(11.543 10.442)">
          <g id="Grupo_958857" data-name="Grupo 958857">
            <path id="Trazado_724441" data-name="Trazado 724441" d="M88.338,44.841a.647.647,0,0,0-.647.647l.009,1.725-32.406.009-.009-5.559H83.607a.647.647,0,0,0,0-1.293H55.286A1.286,1.286,0,0,0,54,41.653v5.568a1.286,1.286,0,0,0,1.285,1.285H87.7a1.286,1.286,0,0,0,1.285-1.285V45.487a.647.647,0,0,0-.647-.647Z" transform="translate(-54.001 -40.369)"/>
          </g>
        </g>
        <g id="Grupo_958860" data-name="Grupo 958860" transform="translate(40.696 6.434)">
          <g id="Grupo_958859" data-name="Grupo 958859">
            <path id="Trazado_724442" data-name="Trazado 724442" d="M175.511,33.157h-6.155A1.359,1.359,0,0,1,168,31.8V25.522a.647.647,0,1,0-1.293,0V31.8a2.654,2.654,0,0,0,2.651,2.651h6.155a.647.647,0,1,0,0-1.293Z" transform="translate(-166.704 -24.875)"/>
          </g>
        </g>
      </g>
    </g>
  </g>
</svg>
