<svg xmlns="http://www.w3.org/2000/svg" width="74.088" height="80.185" viewBox="0 0 74.088 80.185">
  <g id="descargar-pdf" transform="translate(-112.189 -75.815)">
    <g id="Grupo_956917" data-name="Grupo 956917" transform="translate(113.977 75.815)">
      <path id="Trazado_721172" data-name="Trazado 721172" d="M161.552,89.455l-.793.033-5.391-13.672h-34.9V149.8h58.513V99.432Z" transform="translate(-120.471 -75.815)" fill="#fff"/>
    </g>
    <g id="Grupo_956918" data-name="Grupo 956918" transform="translate(143.157 75.815)">
      <path id="Trazado_721173" data-name="Trazado 721173" d="M284.978,99.432l-17.432-9.978-.793.033L261.36,75.815h-5.716V149.8h29.334Z" transform="translate(-255.644 -75.815)" fill="#e9edf5"/>
    </g>
    <g id="Grupo_956919" data-name="Grupo 956919" transform="translate(148.873 75.815)">
      <path id="Trazado_721174" data-name="Trazado 721174" d="M282.125,99.432h23.617L282.125,75.815Z" transform="translate(-282.125 -75.815)" fill="#bec3d2"/>
    </g>
    <g id="Grupo_956920" data-name="Grupo 956920" transform="translate(112.189 101.66)">
      <path id="Trazado_721175" data-name="Trazado 721175" d="M112.189,195.541h40.26V219.2h-40.26Z" transform="translate(-112.189 -195.541)" fill="#ff6c52"/>
    </g>
    <g id="Grupo_956921" data-name="Grupo 956921" transform="translate(143.157 101.66)">
      <path id="Trazado_721176" data-name="Trazado 721176" d="M255.644,195.541h9.292V219.2h-9.292Z" transform="translate(-255.644 -195.541)" fill="#ff432e"/>
    </g>
    <g id="Grupo_956923" data-name="Grupo 956923" transform="translate(115.173 107.479)">
      <g id="Grupo_956922" data-name="Grupo 956922" transform="translate(0)">
        <path id="Trazado_721177" data-name="Trazado 721177" d="M126.014,234.914V222.5h6.218a4.128,4.128,0,1,1,0,8.248h-3.016v4.17Zm7.279-8.285a1.333,1.333,0,0,0-1.489-1.341h-2.588v2.662H131.8A1.329,1.329,0,0,0,133.293,226.629Z" transform="translate(-126.014 -222.496)" fill="#fff"/>
        <path id="Trazado_721178" data-name="Trazado 721178" d="M181.469,234.914V222.5h5.213c3.91,0,6.721,2.346,6.721,6.2s-2.811,6.218-6.7,6.218Zm8.657-6.218a3.18,3.18,0,0,0-3.426-3.407h-2.029v6.833h2.011A3.3,3.3,0,0,0,190.126,228.7Z" transform="translate(-169.498 -222.496)" fill="#fff"/>
        <path id="Trazado_721179" data-name="Trazado 721179" d="M244.169,234.914V222.5h9.1v2.792h-5.9v1.936h5.771v2.793h-5.771v4.9Z" transform="translate(-218.663 -222.496)" fill="#fff"/>
      </g>
      <path id="Trazado_721180" data-name="Trazado 721180" d="M262.271,225.289V222.5h-6.627v12.418h.725v-4.9h5.771v-2.792h-5.771v-1.936Z" transform="translate(-227.661 -222.496)" fill="#e9edf5"/>
    </g>
    <g id="Grupo_956924" data-name="Grupo 956924" transform="translate(153.785 116.827)">
      <path id="Trazado_721181" data-name="Trazado 721181" d="M329.174,286.054V265.8h-16.1v20.255h-8.194l16.246,18.918,16.246-18.918Z" transform="translate(-304.877 -265.799)" fill="#1dd882"/>
    </g>
    <g id="Grupo_956925" data-name="Grupo 956925" transform="translate(170.031 116.827)">
      <path id="Trazado_721182" data-name="Trazado 721182" d="M388.187,286.054V265.8h-8.052v39.173l16.246-18.918Z" transform="translate(-380.135 -265.799)" fill="#2cc47f"/>
    </g>
  </g>
</svg>
