<svg xmlns="http://www.w3.org/2000/svg" xmlns:xlink="http://www.w3.org/1999/xlink" width="259" height="134" viewBox="0 0 259 134">
  <defs>
    <filter id="Rect치ngulo_4681" x="0" y="0" width="259" height="134" filterUnits="userSpaceOnUse">
      <feOffset dy="3" input="SourceAlpha"/>
      <feGaussianBlur stdDeviation="3" result="blur"/>
      <feFlood flood-opacity="0.161"/>
      <feComposite operator="in" in2="blur"/>
      <feComposite in="SourceGraphic"/>
    </filter>
  </defs>
  <g id="Grupo_959091" data-name="Grupo 959091" transform="translate(-814 -3224)">
    <g id="Grupo_958071" data-name="Grupo 958071" transform="translate(507 242)">
      <g transform="matrix(1, 0, 0, 1, 307, 2982)" filter="url(#Rect치ngulo_4681)">
        <rect id="Rect치ngulo_4681-2" data-name="Rect치ngulo 4681" width="241" height="116" rx="14" transform="translate(9 6)" fill="#fffffd"/>
      </g>
    </g>
    <path id="Trazado_725284" data-name="Trazado 725284" d="M10.012,24H2.02V8.6h1.8V22.367h6.188Zm6.725.258a5.1,5.1,0,0,1-3.894-1.542,5.71,5.71,0,0,1-1.456-4.087A5.948,5.948,0,0,1,12.9,14.3a5.445,5.445,0,0,1,4.093-1.558,4.934,4.934,0,0,1,3.84,1.515,6.006,6.006,0,0,1,1.38,4.2,5.91,5.91,0,0,1-1.488,4.216A5.213,5.213,0,0,1,16.736,24.258Zm.129-10.033a3.351,3.351,0,0,0-2.686,1.155,4.743,4.743,0,0,0-.988,3.185,4.485,4.485,0,0,0,1,3.083,3.4,3.4,0,0,0,2.675,1.128,3.221,3.221,0,0,0,2.626-1.106,4.8,4.8,0,0,0,.918-3.147,4.884,4.884,0,0,0-.918-3.18A3.206,3.206,0,0,0,16.865,14.225Zm17.553,8.895q0,6.059-5.8,6.059a7.789,7.789,0,0,1-3.566-.773V26.643A7.325,7.325,0,0,0,28.6,27.674q4.061,0,4.061-4.318v-1.2h-.043a4.12,4.12,0,0,1-3.781,2.105,4.129,4.129,0,0,1-3.3-1.466,5.861,5.861,0,0,1-1.251-3.937A6.848,6.848,0,0,1,25.625,14.4a4.5,4.5,0,0,1,3.69-1.654,3.585,3.585,0,0,1,3.3,1.783h.043V13h1.762Zm-1.762-4.093V17.4a3.147,3.147,0,0,0-.886-2.245,2.918,2.918,0,0,0-2.208-.935,3.059,3.059,0,0,0-2.557,1.187,5.3,5.3,0,0,0-.924,3.325,4.548,4.548,0,0,0,.886,2.938,2.863,2.863,0,0,0,2.347,1.1,3.066,3.066,0,0,0,2.412-1.053A3.924,3.924,0,0,0,32.656,19.026Zm8.382,5.344a1.858,1.858,0,0,0-.128-.721,1.395,1.395,0,0,0-.874-.815,2.049,2.049,0,0,0-.652-.1,2.155,2.155,0,0,0-.589.081,2.864,2.864,0,0,0-.561.226,3.45,3.45,0,0,0-.526.345,3.8,3.8,0,0,0-.473.445v-1.1a3.072,3.072,0,0,1,.968-.642,3.409,3.409,0,0,1,1.306-.222,3.154,3.154,0,0,1,1.021.16,2.342,2.342,0,0,1,.815.467,2.158,2.158,0,0,1,.542.758,2.557,2.557,0,0,1,.2,1.034,3.545,3.545,0,0,1-.122.965,2.984,2.984,0,0,1-.37.815,3.931,3.931,0,0,1-.623.733,8.831,8.831,0,0,1-.883.714q-.633.451-1.043.771a4.612,4.612,0,0,0-.652.6,1.736,1.736,0,0,0-.338.558,1.949,1.949,0,0,0-.1.642h4.474V31H36.884v-.445a3.707,3.707,0,0,1,.125-1.015,2.636,2.636,0,0,1,.414-.833,4.625,4.625,0,0,1,.755-.79q.467-.395,1.144-.89a7.229,7.229,0,0,0,.818-.67,3.486,3.486,0,0,0,.529-.639,2.3,2.3,0,0,0,.285-.649A2.8,2.8,0,0,0,41.038,24.371ZM52.25,8.6V18.769h1.977V20.38H52.25V24h-1.74V20.38h-7.24V18.854q1.01-1.139,2.041-2.433t1.971-2.626q.94-1.332,1.74-2.659A24.3,24.3,0,0,0,50.37,8.6ZM45.256,18.769h5.253V11.228q-.806,1.407-1.525,2.514t-1.37,2.009q-.65.9-1.241,1.633T45.256,18.769Zm28.338-.462h-4.34v4.329H67.826V18.307H63.5V16.867h4.329V12.538h1.429v4.329h4.34ZM92.092,24H84.1V8.6h1.8V22.367h6.188Zm6.725.258a5.1,5.1,0,0,1-3.894-1.542,5.71,5.71,0,0,1-1.456-4.087A5.948,5.948,0,0,1,94.982,14.3a5.445,5.445,0,0,1,4.093-1.558,4.934,4.934,0,0,1,3.84,1.515,6.006,6.006,0,0,1,1.38,4.2,5.91,5.91,0,0,1-1.488,4.216A5.213,5.213,0,0,1,98.817,24.258Zm.129-10.033a3.351,3.351,0,0,0-2.686,1.155,4.743,4.743,0,0,0-.988,3.185,4.485,4.485,0,0,0,1,3.083,3.4,3.4,0,0,0,2.675,1.128,3.221,3.221,0,0,0,2.626-1.106,4.8,4.8,0,0,0,.918-3.147,4.884,4.884,0,0,0-.918-3.18A3.206,3.206,0,0,0,98.946,14.225ZM116.5,23.119q0,6.059-5.8,6.059a7.789,7.789,0,0,1-3.566-.773V26.643a7.325,7.325,0,0,0,3.545,1.031q4.061,0,4.061-4.318v-1.2h-.043a4.451,4.451,0,0,1-7.084.639,5.861,5.861,0,0,1-1.251-3.937,6.848,6.848,0,0,1,1.348-4.458,4.5,4.5,0,0,1,3.69-1.654,3.585,3.585,0,0,1,3.3,1.783h.043V13H116.5Zm-1.762-4.093V17.4a3.147,3.147,0,0,0-.886-2.245,2.918,2.918,0,0,0-2.208-.935,3.059,3.059,0,0,0-2.557,1.187,5.3,5.3,0,0,0-.924,3.325,4.548,4.548,0,0,0,.886,2.938,2.863,2.863,0,0,0,2.347,1.1,3.066,3.066,0,0,0,2.412-1.053A3.924,3.924,0,0,0,114.737,19.026Zm8.382,5.344a1.858,1.858,0,0,0-.128-.721,1.395,1.395,0,0,0-.874-.815,2.049,2.049,0,0,0-.652-.1,2.155,2.155,0,0,0-.589.081,2.863,2.863,0,0,0-.561.226,3.45,3.45,0,0,0-.526.345,3.8,3.8,0,0,0-.473.445v-1.1a3.072,3.072,0,0,1,.968-.642,3.409,3.409,0,0,1,1.306-.222,3.154,3.154,0,0,1,1.021.16,2.342,2.342,0,0,1,.815.467,2.158,2.158,0,0,1,.542.758,2.557,2.557,0,0,1,.2,1.034,3.545,3.545,0,0,1-.122.965,2.984,2.984,0,0,1-.37.815,3.931,3.931,0,0,1-.623.733,8.831,8.831,0,0,1-.883.714q-.633.451-1.043.771a4.612,4.612,0,0,0-.652.6,1.736,1.736,0,0,0-.338.558,1.949,1.949,0,0,0-.1.642h4.474V31h-5.545v-.445a3.707,3.707,0,0,1,.125-1.015,2.636,2.636,0,0,1,.414-.833,4.625,4.625,0,0,1,.755-.79q.467-.395,1.144-.89a7.229,7.229,0,0,0,.818-.67,3.486,3.486,0,0,0,.529-.639,2.3,2.3,0,0,0,.285-.649A2.8,2.8,0,0,0,123.119,24.371Zm3.047-4.668a4.1,4.1,0,0,1,.193-1.23,4.455,4.455,0,0,1,.553-1.155,4.578,4.578,0,0,1,.892-.978,4.251,4.251,0,0,1,1.208-.7,4.567,4.567,0,0,1-1.59-1.434,3.391,3.391,0,0,1-.591-1.939,3.739,3.739,0,0,1,1.235-2.814,4.2,4.2,0,0,1,1.375-.822,5.135,5.135,0,0,1,3.448.005,4.27,4.27,0,0,1,1.375.827,3.713,3.713,0,0,1,.9,1.246,3.767,3.767,0,0,1,.322,1.558,3.391,3.391,0,0,1-.591,1.939,4.624,4.624,0,0,1-1.568,1.434,4.212,4.212,0,0,1,1.192.7,4.646,4.646,0,0,1,.886.978,4.455,4.455,0,0,1,.553,1.155,4.1,4.1,0,0,1,.193,1.23,4.575,4.575,0,0,1-.365,1.848,4.129,4.129,0,0,1-1.026,1.434,4.736,4.736,0,0,1-1.579.929,5.9,5.9,0,0,1-2.025.333,5.824,5.824,0,0,1-2.009-.333,4.809,4.809,0,0,1-1.579-.929,4.157,4.157,0,0,1-1.037-1.434A4.517,4.517,0,0,1,126.166,19.7Zm1.912-.15a3.639,3.639,0,0,0,.22,1.3,2.8,2.8,0,0,0,.623.988,2.72,2.72,0,0,0,.978.628,3.531,3.531,0,0,0,1.273.22,3.353,3.353,0,0,0,1.246-.226,2.9,2.9,0,0,0,.983-.634,2.85,2.85,0,0,0,.645-.988,3.457,3.457,0,0,0,.231-1.289,3.293,3.293,0,0,0-.22-1.208,3.025,3.025,0,0,0-.628-.994,2.952,2.952,0,0,0-.978-.677,3.18,3.18,0,0,0-1.278-.247,3.215,3.215,0,0,0-1.23.231,2.943,2.943,0,0,0-.978.645,2.985,2.985,0,0,0-.65.988A3.288,3.288,0,0,0,128.078,19.553Zm.548-7.144a2.557,2.557,0,0,0,1.558,2.379,2.539,2.539,0,0,0,1.982-.005,2.568,2.568,0,0,0,.811-.553,2.681,2.681,0,0,0,.548-.816,2.482,2.482,0,0,0,.2-1,2.634,2.634,0,0,0-.2-1.031,2.532,2.532,0,0,0-2.358-1.558,2.563,2.563,0,0,0-1.037.2,2.5,2.5,0,0,0-.806.553,2.419,2.419,0,0,0-.521.822A2.777,2.777,0,0,0,128.626,12.409Zm27.049,3.6h-10.1V14.59h10.1Zm0,4.576h-10.1V19.166h10.1Zm18.9-1.289a5.185,5.185,0,0,1-.387,2.041,4.462,4.462,0,0,1-1.1,1.568,4.93,4.93,0,0,1-1.724,1.01,6.743,6.743,0,0,1-2.245.354,6.2,6.2,0,0,1-3.19-.645V21.755a5.866,5.866,0,0,0,3.212,1.01,4.347,4.347,0,0,0,1.509-.247,3.354,3.354,0,0,0,1.144-.687,2.944,2.944,0,0,0,.725-1.063,3.6,3.6,0,0,0,.252-1.364,2.923,2.923,0,0,0-1.01-2.358,4.428,4.428,0,0,0-2.933-.854q-.312,0-.655.011t-.687.027q-.344.016-.671.038t-.6.054l.526-7.724h7.122v1.59h-5.6l-.312,4.522q.344-.021.73-.038t.688-.016a6.914,6.914,0,0,1,2.191.322,4.643,4.643,0,0,1,1.638.918,3.851,3.851,0,0,1,1.021,1.461A5.139,5.139,0,0,1,174.57,19.295ZM23.977,39.219v12.8l1.3-1.343h1.579l-3.566,3.427h-.043L19.69,50.681H21.27L22.548,52V39.219Zm76.678,0v12.8l1.3-1.343h1.579l-3.566,3.427h-.043l-3.556-3.427h1.579L99.226,52V39.219ZM26.372,72.635a3.185,3.185,0,0,0-.22-1.235,2.392,2.392,0,0,0-1.5-1.4,3.512,3.512,0,0,0-1.117-.172,3.7,3.7,0,0,0-1.01.14,4.909,4.909,0,0,0-.961.387,5.914,5.914,0,0,0-.9.591,6.518,6.518,0,0,0-.811.763V69.82a5.267,5.267,0,0,1,1.66-1.1,5.844,5.844,0,0,1,2.24-.381,5.407,5.407,0,0,1,1.751.274,4.015,4.015,0,0,1,1.4.8,3.7,3.7,0,0,1,.929,1.3,4.384,4.384,0,0,1,.338,1.772,6.078,6.078,0,0,1-.209,1.654,5.116,5.116,0,0,1-.634,1.4,6.738,6.738,0,0,1-1.069,1.257,15.141,15.141,0,0,1-1.515,1.225q-1.085.773-1.789,1.321a7.906,7.906,0,0,0-1.117,1.026,2.977,2.977,0,0,0-.58.956,3.342,3.342,0,0,0-.167,1.1h7.67V84H19.25v-.763a6.356,6.356,0,0,1,.215-1.74,4.519,4.519,0,0,1,.709-1.429,7.929,7.929,0,0,1,1.294-1.354q.8-.677,1.96-1.525a12.394,12.394,0,0,0,1.4-1.149,5.976,5.976,0,0,0,.908-1.1,3.935,3.935,0,0,0,.489-1.112A4.794,4.794,0,0,0,26.372,72.635Zm52.314,5.672h-4.34v4.329H72.918V78.307H68.589V76.867h4.329V72.538h1.429v4.329h4.34Zm30.776,1.332a4.491,4.491,0,0,1-.392,1.9A4.186,4.186,0,0,1,107.964,83a5.107,5.107,0,0,1-1.713.94,6.931,6.931,0,0,1-2.2.333,6.4,6.4,0,0,1-3.5-.838V81.54a5.612,5.612,0,0,0,3.566,1.225,4.847,4.847,0,0,0,1.456-.2,3.264,3.264,0,0,0,1.117-.591,2.624,2.624,0,0,0,.72-.935,2.919,2.919,0,0,0,.252-1.235q0-3.019-4.3-3.019h-1.278V75.288H103.3q3.8,0,3.8-2.836,0-2.621-2.9-2.621a4.939,4.939,0,0,0-3.062,1.1V69.219a6.693,6.693,0,0,1,3.5-.881,5.381,5.381,0,0,1,1.751.269,4.012,4.012,0,0,1,1.343.752,3.332,3.332,0,0,1,.865,1.16,3.581,3.581,0,0,1,.306,1.493,3.76,3.76,0,0,1-3.072,3.91v.043a4.86,4.86,0,0,1,1.45.381,3.87,3.87,0,0,1,1.149.768,3.424,3.424,0,0,1,.757,1.112A3.55,3.55,0,0,1,109.463,79.639Zm50.37-3.631h-10.1V74.59h10.1Zm0,4.576h-10.1V79.166h10.1Zm18.9-1.289a5.185,5.185,0,0,1-.387,2.041,4.462,4.462,0,0,1-1.1,1.568,4.93,4.93,0,0,1-1.724,1.01,6.743,6.743,0,0,1-2.245.354,6.2,6.2,0,0,1-3.19-.645V81.755a5.866,5.866,0,0,0,3.212,1.01,4.347,4.347,0,0,0,1.509-.247,3.354,3.354,0,0,0,1.144-.687,2.944,2.944,0,0,0,.725-1.063,3.6,3.6,0,0,0,.252-1.364,2.923,2.923,0,0,0-1.01-2.358,4.428,4.428,0,0,0-2.933-.854q-.312,0-.655.011t-.687.027q-.344.016-.671.038t-.6.054L170.9,68.6h7.122v1.59h-5.6l-.312,4.522q.344-.021.73-.038t.688-.016a6.913,6.913,0,0,1,2.191.322,4.643,4.643,0,0,1,1.638.918,3.851,3.851,0,0,1,1.021,1.461A5.139,5.139,0,0,1,178.729,79.295Z" transform="translate(849 3240)" fill="#00223d"/>
  </g>
</svg>
