<svg id="ventoso" xmlns="http://www.w3.org/2000/svg" width="92" height="92" viewBox="0 0 92 92">
  <g id="Grupo_958543" data-name="Grupo 958543" transform="translate(1.348 1.348)">
    <path id="Trazado_723669" data-name="Trazado 723669" d="M263.548,31.315a7.442,7.442,0,1,1,.694-14.852,1.426,1.426,0,0,0,1.466-.97,11.859,11.859,0,0,1,20.729-3.207,2.88,2.88,0,0,0,2.334,1.169h.056a8.93,8.93,0,0,1,8.929,9.083,9.026,9.026,0,0,1-9.076,8.778H263.548Z" transform="translate(-211.454 -7.5)" fill="#ddeafb"/>
    <path id="Trazado_723670" data-name="Trazado 723670" d="M374.326,13.454h-.056a2.88,2.88,0,0,1-2.334-1.169,11.856,11.856,0,0,0-11.58-4.6,11.856,11.856,0,0,1,7.447,4.6,2.88,2.88,0,0,0,2.334,1.169h.056a8.93,8.93,0,0,1,8.929,9.083,9.026,9.026,0,0,1-9.076,8.778h4.133a9.026,9.026,0,0,0,9.076-8.778A8.93,8.93,0,0,0,374.326,13.454Z" transform="translate(-296.952 -7.5)" fill="#bed8fb"/>
    <g id="Grupo_958541" data-name="Grupo 958541" transform="translate(0 5.954)">
      <g id="Grupo_958540" data-name="Grupo 958540">
        <path id="Trazado_723671" data-name="Trazado 723671" d="M84.9,64.449h0a.491.491,0,0,1-.47-.358,11.91,11.91,0,0,0-17.036-7.172,1.443,1.443,0,0,1-1.883-.447,8.938,8.938,0,0,0-9.489-3.683,1.437,1.437,0,0,1-1.711-.925,16.375,16.375,0,0,0-31.92,5.144c0,.205.005.409.014.613a.85.85,0,0,1-.181.557l-.013.016a.871.871,0,0,1-.642.33,14.882,14.882,0,0,0,1.009,29.741H84.72A11.908,11.908,0,1,0,84.9,64.449Z" transform="translate(-7.5 -40.634)" fill="#ecf4ff"/>
        <path id="Trazado_723672" data-name="Trazado 723672" d="M84.9,64.449h0a.491.491,0,0,1-.47-.358,11.91,11.91,0,0,0-17.036-7.172,1.443,1.443,0,0,1-1.883-.447,8.938,8.938,0,0,0-9.489-3.683,1.437,1.437,0,0,1-1.711-.925,16.375,16.375,0,0,0-31.92,5.144c0,.205.005.409.014.613a.85.85,0,0,1-.181.557l-.013.016a.871.871,0,0,1-.642.33,14.882,14.882,0,0,0,1.009,29.741H84.72A11.908,11.908,0,1,0,84.9,64.449Z" transform="translate(-7.5 -40.634)" fill="#ecf4ff"/>
        <path id="Trazado_723673" data-name="Trazado 723673" d="M374.446,132.4h0a.491.491,0,0,1-.47-.358,11.911,11.911,0,0,0-13.5-8.392,11.922,11.922,0,0,1,9.366,8.392.491.491,0,0,0,.47.358h0a11.908,11.908,0,1,1-.178,23.815h4.133a11.908,11.908,0,1,0,.178-23.815Z" transform="translate(-297.049 -108.583)" fill="#ddeafb"/>
      </g>
    </g>
    <g id="Grupo_958542" data-name="Grupo 958542" transform="translate(65.493 59.536)">
      <path id="Trazado_723674" data-name="Trazado 723674" d="M371.984,344.788a5.954,5.954,0,0,1,5.954-5.954H382.4a1.488,1.488,0,0,1,1.488,1.488v4.465a5.954,5.954,0,0,1-5.954,5.954h-5.954Z" transform="translate(-371.984 -338.834)" fill="#b3e59f"/>
      <path id="Trazado_723675" data-name="Trazado 723675" d="M390.717,338.833h-4.133a1.488,1.488,0,0,1,1.489,1.488v4.465a5.954,5.954,0,0,1-5.954,5.954h4.133a5.954,5.954,0,0,0,5.954-5.954v-4.465A1.489,1.489,0,0,0,390.717,338.833Z" transform="translate(-380.298 -338.833)" fill="#95d6a4"/>
    </g>
  </g>
  <g id="Grupo_958544" data-name="Grupo 958544" transform="translate(0 0)">
    <path id="Trazado_723676" data-name="Trazado 723676" d="M16.232,115.979h2.893a1.348,1.348,0,0,0,0-2.7H16.232a13.536,13.536,0,0,1-.013-27.073l.082,0h0A13.551,13.551,0,0,1,29.768,99.747a1.348,1.348,0,1,0,2.7,0,16.253,16.253,0,0,0-14.88-16.175c0-.066,0-.132,0-.2A14.94,14.94,0,0,1,20.2,74.888a1.348,1.348,0,1,0-2.223-1.524,17.625,17.625,0,0,0-3.1,10.011c0,.065,0,.13,0,.2a16.232,16.232,0,0,0,1.347,32.408Z" transform="translate(0 -59.701)"/>
    <path id="Trazado_723677" data-name="Trazado 723677" d="M177.3,29.783a13.191,13.191,0,0,0-1.662-3.275l1.031,0a10.278,10.278,0,1,0,0-20.556c-.28,0-.563.012-.847.036a13.208,13.208,0,0,0-23.572,2.983c-.286-.028-.573-.042-.86-.042a8.824,8.824,0,0,0-7.083,3.606,17.716,17.716,0,0,0-24.392-3.053,1.348,1.348,0,0,0,1.616,2.157,15.028,15.028,0,0,1,23.332,7.524,10.279,10.279,0,0,0-5.262,8.975,1.348,1.348,0,0,0,2.7,0,7.581,7.581,0,0,1,4.668-7l.013,0a7.536,7.536,0,0,1,2.9-.576,7.622,7.622,0,0,1,6.858,4.346,1.348,1.348,0,0,0,1.99.529,10.559,10.559,0,0,1,16.265,6.029,1.348,1.348,0,0,0,1.347,1.012s.251-.009.331-.009a10.56,10.56,0,1,1-10.56,10.56,1.348,1.348,0,0,0-2.7,0,13.241,13.241,0,0,0,5.255,10.56H122.441a1.348,1.348,0,0,0,0,2.7h54.23a13.255,13.255,0,0,0,.631-26.5Zm-18.867-7.337a10.287,10.287,0,0,0-11.059-4.277,17.7,17.7,0,0,0-1.411-3.189,6.074,6.074,0,0,1,6.921-3.168,1.347,1.347,0,0,0,1.643-1A10.51,10.51,0,0,1,172.97,6.64a10.256,10.256,0,0,0-6.577,9.592,1.348,1.348,0,0,0,2.7,0,7.564,7.564,0,0,1,6.268-7.469,7.673,7.673,0,0,1,1.315-.113,7.583,7.583,0,0,1,0,15.166l-3.546-.007a13.261,13.261,0,0,0-14.693-1.361Z" transform="translate(-97.926 0)"/>
    <path id="Trazado_723678" data-name="Trazado 723678" d="M47.349,338.635a7.3,7.3,0,0,0-14.6,0,1.348,1.348,0,0,0,2.7,0,4.606,4.606,0,1,1,4.606,4.606H1.35a1.348,1.348,0,1,0,0,2.7h38.7A7.31,7.31,0,0,0,47.349,338.635Z" transform="translate(-0.002 -271.797)"/>
    <path id="Trazado_723679" data-name="Trazado 723679" d="M151.742,210.707H133.881a1.348,1.348,0,0,0,0,2.7h17.861a7.3,7.3,0,1,0-7.3-7.3,1.348,1.348,0,0,0,2.7,0,4.606,4.606,0,1,1,4.606,4.606Z" transform="translate(-108.718 -163.078)"/>
    <path id="Trazado_723680" data-name="Trazado 723680" d="M106.314,430.733h-38.7a1.348,1.348,0,0,0,0,2.7h38.7a4.606,4.606,0,1,1-4.606,4.606,1.348,1.348,0,1,0-2.7,0,7.3,7.3,0,1,0,7.3-7.3Z" transform="translate(-54.36 -353.336)"/>
    <path id="Trazado_723681" data-name="Trazado 723681" d="M362.644,331.333h-4.465a7.31,7.31,0,0,0-7.3,7.3v5.4l-2.582,2.582a1.348,1.348,0,1,0,1.906,1.906l2.582-2.582h5.4a7.31,7.31,0,0,0,7.3-7.3v-4.465a2.839,2.839,0,0,0-2.836-2.836Zm.141,7.3a4.611,4.611,0,0,1-4.606,4.606h-2.7l3.653-3.653a1.348,1.348,0,0,0-1.906-1.906l-3.653,3.653v-2.7a4.611,4.611,0,0,1,4.606-4.606h4.465a.141.141,0,0,1,.141.141Z" transform="translate(-285.387 -271.797)"/>
  </g>
</svg>
