<svg xmlns="http://www.w3.org/2000/svg" xmlns:xlink="http://www.w3.org/1999/xlink" width="313" height="133" viewBox="0 0 313 133">
  <defs>
    <filter id="Rectángulo_339841" x="0" y="8" width="313" height="125" filterUnits="userSpaceOnUse">
      <feOffset dy="3" input="SourceAlpha"/>
      <feGaussianBlur stdDeviation="3" result="blur"/>
      <feFlood flood-opacity="0.161"/>
      <feComposite operator="in" in2="blur"/>
      <feComposite in="SourceGraphic"/>
    </filter>
    <filter id="Rectángulo_339842" x="0" y="0" width="136" height="46" filterUnits="userSpaceOnUse">
      <feOffset dy="3" input="SourceAlpha"/>
      <feGaussianBlur stdDeviation="3" result="blur-2"/>
      <feFlood flood-opacity="0.161"/>
      <feComposite operator="in" in2="blur-2"/>
      <feComposite in="SourceGraphic"/>
    </filter>
  </defs>
  <g id="Grupo_959089" data-name="Grupo 959089" transform="translate(-381 -8941)">
    <g transform="matrix(1, 0, 0, 1, 381, 8941)" filter="url(#Rectángulo_339841)">
      <rect id="Rectángulo_339841-2" data-name="Rectángulo 339841" width="295" height="107" rx="20" transform="translate(9 14)" fill="#fff"/>
    </g>
    <g transform="matrix(1, 0, 0, 1, 381, 8941)" filter="url(#Rectángulo_339842)">
      <rect id="Rectángulo_339842-2" data-name="Rectángulo 339842" width="118" height="28" rx="14" transform="translate(9 6)" fill="#d2e1f1"/>
    </g>
    <path id="Trazado_725286" data-name="Trazado 725286" d="M5.492-4.6H2.82V0H1.313V-11.375H5.078a4.457,4.457,0,0,1,2.957.875A3.148,3.148,0,0,1,9.07-7.953,3.062,3.062,0,0,1,8.5-6.1a3.428,3.428,0,0,1-1.6,1.18L9.57-.094V0H7.961ZM2.82-5.828h2.3A2.6,2.6,0,0,0,6.9-6.407a1.959,1.959,0,0,0,.66-1.55,2.062,2.062,0,0,0-.629-1.62,2.663,2.663,0,0,0-1.816-.571H2.82ZM14.453.156a3.693,3.693,0,0,1-2.8-1.129,4.19,4.19,0,0,1-1.078-3.02v-.266a5.073,5.073,0,0,1,.48-2.246A3.748,3.748,0,0,1,12.4-8.051a3.378,3.378,0,0,1,1.871-.559,3.166,3.166,0,0,1,2.563,1.086,4.7,4.7,0,0,1,.914,3.109v.6H12.023a3,3,0,0,0,.73,2.02,2.3,2.3,0,0,0,1.777.77,2.517,2.517,0,0,0,1.3-.312,3.259,3.259,0,0,0,.93-.828l.883.688A3.55,3.55,0,0,1,14.453.156Zm-.18-7.578a1.928,1.928,0,0,0-1.469.637A3.1,3.1,0,0,0,12.07-5H16.3v-.109a2.753,2.753,0,0,0-.594-1.707A1.815,1.815,0,0,0,14.273-7.422Zm10.07,5.18a1.064,1.064,0,0,0-.441-.91,4.249,4.249,0,0,0-1.539-.559,7.277,7.277,0,0,1-1.742-.562,2.479,2.479,0,0,1-.953-.781,1.869,1.869,0,0,1-.309-1.078,2.193,2.193,0,0,1,.879-1.758,3.432,3.432,0,0,1,2.246-.719,3.532,3.532,0,0,1,2.332.742,2.357,2.357,0,0,1,.895,1.9H24.258a1.3,1.3,0,0,0-.5-1.023,1.888,1.888,0,0,0-1.27-.43,1.976,1.976,0,0,0-1.234.344,1.082,1.082,0,0,0-.445.9.877.877,0,0,0,.414.789,5.1,5.1,0,0,0,1.5.508,7.8,7.8,0,0,1,1.754.578,2.558,2.558,0,0,1,1,.809,1.988,1.988,0,0,1,.324,1.152,2.163,2.163,0,0,1-.906,1.816,3.8,3.8,0,0,1-2.352.684,4.257,4.257,0,0,1-1.8-.359,2.922,2.922,0,0,1-1.223-1A2.42,2.42,0,0,1,19.07-2.6h1.445A1.5,1.5,0,0,0,21.1-1.449a2.258,2.258,0,0,0,1.434.426,2.331,2.331,0,0,0,1.316-.332A1.02,1.02,0,0,0,24.344-2.242ZM34.813-4.133a5.062,5.062,0,0,1-.883,3.109A2.829,2.829,0,0,1,31.539.156,3.1,3.1,0,0,1,29.117-.82V3.25H27.672v-11.7h1.32l.07.938a2.977,2.977,0,0,1,2.453-1.094,2.882,2.882,0,0,1,2.41,1.148,5.117,5.117,0,0,1,.887,3.2ZM33.367-4.3a3.735,3.735,0,0,0-.609-2.258,1.963,1.963,0,0,0-1.672-.828,2.125,2.125,0,0,0-1.969,1.164V-2.18A2.129,2.129,0,0,0,31.1-1.023a1.954,1.954,0,0,0,1.652-.824A4.077,4.077,0,0,0,33.367-4.3Zm8.5,3.461a3.07,3.07,0,0,1-2.477.992,2.628,2.628,0,0,1-2.059-.785,3.4,3.4,0,0,1-.715-2.324v-5.5h1.445v5.461q0,1.922,1.563,1.922a2.163,2.163,0,0,0,2.2-1.234V-8.453h1.445V0H41.9Zm7.109.992a3.693,3.693,0,0,1-2.8-1.129A4.19,4.19,0,0,1,45.1-3.992v-.266a5.073,5.073,0,0,1,.48-2.246,3.748,3.748,0,0,1,1.344-1.547A3.378,3.378,0,0,1,48.8-8.609a3.166,3.166,0,0,1,2.563,1.086,4.7,4.7,0,0,1,.914,3.109v.6H46.547a3,3,0,0,0,.73,2.02,2.3,2.3,0,0,0,1.777.77,2.517,2.517,0,0,0,1.3-.312,3.259,3.259,0,0,0,.93-.828l.883.688A3.55,3.55,0,0,1,48.977.156ZM48.8-7.422a1.928,1.928,0,0,0-1.469.637A3.1,3.1,0,0,0,46.594-5h4.234v-.109a2.753,2.753,0,0,0-.594-1.707A1.815,1.815,0,0,0,48.8-7.422Zm10.07,5.18a1.064,1.064,0,0,0-.441-.91,4.249,4.249,0,0,0-1.539-.559,7.277,7.277,0,0,1-1.742-.562,2.479,2.479,0,0,1-.953-.781,1.869,1.869,0,0,1-.309-1.078,2.193,2.193,0,0,1,.879-1.758,3.432,3.432,0,0,1,2.246-.719,3.532,3.532,0,0,1,2.332.742,2.357,2.357,0,0,1,.895,1.9H58.781a1.3,1.3,0,0,0-.5-1.023,1.888,1.888,0,0,0-1.27-.43,1.976,1.976,0,0,0-1.234.344,1.082,1.082,0,0,0-.445.9.877.877,0,0,0,.414.789,5.1,5.1,0,0,0,1.5.508,7.8,7.8,0,0,1,1.754.578,2.558,2.558,0,0,1,1,.809,1.988,1.988,0,0,1,.324,1.152,2.163,2.163,0,0,1-.906,1.816,3.8,3.8,0,0,1-2.352.684,4.257,4.257,0,0,1-1.8-.359,2.922,2.922,0,0,1-1.223-1A2.42,2.42,0,0,1,53.594-2.6h1.445a1.5,1.5,0,0,0,.582,1.152,2.258,2.258,0,0,0,1.434.426,2.331,2.331,0,0,0,1.316-.332A1.02,1.02,0,0,0,58.867-2.242ZM64.156-10.5v2.047h1.578v1.117H64.156v5.249a1.173,1.173,0,0,0,.211.763.888.888,0,0,0,.719.254,3.5,3.5,0,0,0,.688-.094V0a4.215,4.215,0,0,1-1.109.155A1.8,1.8,0,0,1,63.2-.43a2.517,2.517,0,0,1-.492-1.664V-7.336H61.172V-8.453h1.539V-10.5ZM72.641,0a3.036,3.036,0,0,1-.2-.891A3.225,3.225,0,0,1,70.031.156,2.984,2.984,0,0,1,67.98-.551a2.288,2.288,0,0,1-.8-1.793,2.39,2.39,0,0,1,1-2.051,4.733,4.733,0,0,1,2.824-.73h1.406v-.664A1.623,1.623,0,0,0,71.961-7a1.821,1.821,0,0,0-1.336-.449,2.108,2.108,0,0,0-1.3.391,1.151,1.151,0,0,0-.523.945H67.352A2,2,0,0,1,67.8-7.332a3.066,3.066,0,0,1,1.219-.934,4.1,4.1,0,0,1,1.691-.344A3.342,3.342,0,0,1,73-7.879a2.635,2.635,0,0,1,.859,2.012v3.891a4.757,4.757,0,0,0,.3,1.852V0Zm-2.4-1.1a2.54,2.54,0,0,0,1.289-.352,2.127,2.127,0,0,0,.883-.914V-4.1H71.281q-2.656,0-2.656,1.555a1.316,1.316,0,0,0,.453,1.063A1.742,1.742,0,0,0,70.242-1.1Zm5.836.344a.905.905,0,0,1,.223-.625.848.848,0,0,1,.668-.25.874.874,0,0,1,.676.25.887.887,0,0,1,.23.625.839.839,0,0,1-.23.6.89.89,0,0,1-.676.242A.863.863,0,0,1,76.3-.156.855.855,0,0,1,76.078-.758Zm.008-6.9a.905.905,0,0,1,.223-.625.848.848,0,0,1,.668-.25.874.874,0,0,1,.676.25.887.887,0,0,1,.23.625.839.839,0,0,1-.23.6.89.89,0,0,1-.676.242.863.863,0,0,1-.668-.242A.855.855,0,0,1,76.086-7.656Z" transform="translate(410 8968)" fill="#12263f"/>
    <g id="Grupo_12176" data-name="Grupo 12176" transform="translate(-1 4018)">
      <g id="Grupo_12157" data-name="Grupo 12157" transform="translate(26 674)">
        <path id="Trazado_725283" data-name="Trazado 725283" d="M3.384,11.116A2.339,2.339,0,0,1,1.661,10.4,2.371,2.371,0,0,1,.949,8.664a2.318,2.318,0,0,1,.7-1.709,2.34,2.34,0,0,1,1.714-.7,2.387,2.387,0,0,1,1.736.7,2.3,2.3,0,0,1,.716,1.705A2.371,2.371,0,0,1,5.106,10.4,2.339,2.339,0,0,1,3.384,11.116Zm0-3.832A1.38,1.38,0,0,0,2,8.664,1.411,1.411,0,0,0,2.4,9.67a1.281,1.281,0,0,0,.967.417,1.33,1.33,0,0,0,.984-.422,1.383,1.383,0,0,0,.413-1,1.373,1.373,0,0,0-1.38-1.38ZM17.016,18.473a7.392,7.392,0,0,1-3.48.738,5.613,5.613,0,0,1-4.307-1.731,6.389,6.389,0,0,1-1.617-4.544A6.7,6.7,0,0,1,9.431,8.049a6.175,6.175,0,0,1,4.614-1.863,7.4,7.4,0,0,1,2.971.519V8.277a6.024,6.024,0,0,0-2.988-.756,4.585,4.585,0,0,0-3.52,1.45,5.463,5.463,0,0,0-1.349,3.876,5.2,5.2,0,0,0,1.261,3.669,4.292,4.292,0,0,0,3.309,1.367,6.208,6.208,0,0,0,3.287-.844Zm16.146-6.012H24.9V11.3h8.262Zm0,3.744H24.9v-1.16h8.262Z" transform="translate(409 4311)" fill="#00223d"/>
        <path id="Trazado_26104" data-name="Trazado 26104" d="M26,0" transform="translate(400.5 4319.456)" fill="none" stroke="#707070" stroke-width="1"/>
      </g>
      <g id="Grupo_12162" data-name="Grupo 12162" transform="translate(79.5 686)">
        <path id="Trazado_725285" data-name="Trazado 725285" d="M6.363,19H4.922V8.11a3.336,3.336,0,0,1-.488.382,7.951,7.951,0,0,1-.721.426q-.4.211-.844.4A6.132,6.132,0,0,1,2,9.6V8.146A8.379,8.379,0,0,0,3.01,7.79q.532-.224,1.046-.5t.971-.58a7.71,7.71,0,0,0,.791-.593h.545Zm5.3.193a.933.933,0,0,1-.69-.29.955.955,0,0,1-.286-.694.969.969,0,0,1,.286-.7.926.926,0,0,1,.69-.294.95.95,0,0,1,.7.294.962.962,0,0,1,.29.7.947.947,0,0,1-.29.694A.958.958,0,0,1,11.663,19.193ZM14.4,15.484a3.353,3.353,0,0,1,.158-1.006,3.645,3.645,0,0,1,.453-.945,3.746,3.746,0,0,1,.729-.8,3.478,3.478,0,0,1,.989-.571,3.737,3.737,0,0,1-1.3-1.173A2.775,2.775,0,0,1,14.941,9.4a3.059,3.059,0,0,1,1.011-2.3,3.433,3.433,0,0,1,1.125-.672,4.2,4.2,0,0,1,2.821,0,3.494,3.494,0,0,1,1.125.677,3.038,3.038,0,0,1,.738,1.02A3.082,3.082,0,0,1,22.025,9.4a2.775,2.775,0,0,1-.483,1.586,3.783,3.783,0,0,1-1.283,1.173,3.446,3.446,0,0,1,.976.571,3.8,3.8,0,0,1,.725.8,3.645,3.645,0,0,1,.453.945,3.353,3.353,0,0,1,.158,1.006,3.743,3.743,0,0,1-.3,1.512,3.378,3.378,0,0,1-.839,1.173,3.875,3.875,0,0,1-1.292.76,4.829,4.829,0,0,1-1.657.272,4.765,4.765,0,0,1-1.644-.272,3.934,3.934,0,0,1-1.292-.76A3.4,3.4,0,0,1,14.7,17,3.7,3.7,0,0,1,14.4,15.484Zm1.564-.123a2.977,2.977,0,0,0,.18,1.063,2.293,2.293,0,0,0,.51.809,2.225,2.225,0,0,0,.8.514,2.889,2.889,0,0,0,1.042.18,2.744,2.744,0,0,0,1.02-.185,2.376,2.376,0,0,0,.8-.519,2.332,2.332,0,0,0,.527-.809,2.828,2.828,0,0,0,.189-1.055,2.694,2.694,0,0,0-.18-.989,2.475,2.475,0,0,0-.514-.813,2.415,2.415,0,0,0-.8-.554,2.6,2.6,0,0,0-1.046-.2,2.63,2.63,0,0,0-1.006.189,2.408,2.408,0,0,0-.8.527,2.442,2.442,0,0,0-.532.809A2.69,2.69,0,0,0,15.961,15.361Zm.448-5.845a2.092,2.092,0,0,0,1.274,1.947,2.077,2.077,0,0,0,1.622,0,2.1,2.1,0,0,0,.664-.453,2.194,2.194,0,0,0,.448-.668,2.03,2.03,0,0,0,.167-.822,2.155,2.155,0,0,0-.163-.844A2.072,2.072,0,0,0,18.492,7.4a2.1,2.1,0,0,0-.848.167,2.049,2.049,0,0,0-.659.453,1.979,1.979,0,0,0-.426.672A2.272,2.272,0,0,0,16.409,9.517Z" transform="translate(410.5 4313)" fill="#00223d"/>
        <path id="Trazado_26104-2" data-name="Trazado 26104" d="M26,0" transform="translate(409.809 4322.029)" fill="none" stroke="#707070" stroke-width="1"/>
      </g>
      <line id="Línea_8" data-name="Línea 8" x2="64" transform="translate(479.5 4999.5)" fill="none" stroke="#707070" stroke-width="1"/>
      <g id="Grupo_12174" data-name="Grupo 12174" transform="translate(74.5 662)">
        <path id="Trazado_725284" data-name="Trazado 725284" d="M8.982,15a4.669,4.669,0,0,1-.3,1.7,4.078,4.078,0,0,1-.826,1.336,3.691,3.691,0,0,1-1.257.875,3.98,3.98,0,0,1-1.582.312,3.6,3.6,0,0,1-1.7-.4,3.6,3.6,0,0,1-1.274-1.138,5.459,5.459,0,0,1-.8-1.815,9.833,9.833,0,0,1-.272-2.417A11.358,11.358,0,0,1,1.34,10.47,7.249,7.249,0,0,1,2.377,8.176,4.781,4.781,0,0,1,4,6.7a4.345,4.345,0,0,1,2.118-.519,5.1,5.1,0,0,1,2.092.36V7.908a4.442,4.442,0,0,0-2.057-.5,3.065,3.065,0,0,0-1.521.378,3.492,3.492,0,0,0-1.16,1.068,5.209,5.209,0,0,0-.743,1.666,8.45,8.45,0,0,0-.259,2.171H2.5a3.027,3.027,0,0,1,2.874-1.573,3.783,3.783,0,0,1,1.49.281,3.216,3.216,0,0,1,1.134.8,3.581,3.581,0,0,1,.725,1.226A4.667,4.667,0,0,1,8.982,15Zm-1.477.185A3.922,3.922,0,0,0,7.339,14a2.574,2.574,0,0,0-.479-.9,2.065,2.065,0,0,0-.769-.567,2.588,2.588,0,0,0-1.037-.2,2.428,2.428,0,0,0-.993.2,2.473,2.473,0,0,0-.791.549,2.572,2.572,0,0,0-.712,1.789A3.909,3.909,0,0,0,2.742,16.1a3.144,3.144,0,0,0,.519.989,2.466,2.466,0,0,0,.8.664,2.173,2.173,0,0,0,1.024.242,2.345,2.345,0,0,0,.993-.207,2.216,2.216,0,0,0,.765-.576,2.665,2.665,0,0,0,.492-.883A3.5,3.5,0,0,0,7.506,15.186Zm10.573.246a3.674,3.674,0,0,1-.321,1.551,3.425,3.425,0,0,1-.905,1.2,4.178,4.178,0,0,1-1.4.769,5.67,5.67,0,0,1-1.8.272,5.236,5.236,0,0,1-2.865-.686V16.987a4.592,4.592,0,0,0,2.918,1,3.965,3.965,0,0,0,1.191-.167,2.67,2.67,0,0,0,.914-.483,2.147,2.147,0,0,0,.589-.765,2.388,2.388,0,0,0,.207-1.011q0-2.47-3.516-2.47H12.041V11.872h.993q3.111,0,3.111-2.32,0-2.145-2.373-2.145a4.041,4.041,0,0,0-2.5.9v-1.4a5.476,5.476,0,0,1,2.865-.721,4.4,4.4,0,0,1,1.433.22,3.283,3.283,0,0,1,1.1.615,2.726,2.726,0,0,1,.708.949,2.93,2.93,0,0,1,.25,1.222,3.076,3.076,0,0,1-2.514,3.2v.035a3.976,3.976,0,0,1,1.187.312,3.166,3.166,0,0,1,.94.628,2.8,2.8,0,0,1,.62.91A2.9,2.9,0,0,1,18.079,15.432Zm7.392-.879h-4.8V13.419h4.8Zm9.51.879a3.674,3.674,0,0,1-.321,1.551,3.425,3.425,0,0,1-.905,1.2,4.178,4.178,0,0,1-1.4.769,5.67,5.67,0,0,1-1.8.272,5.236,5.236,0,0,1-2.865-.686V16.987a4.592,4.592,0,0,0,2.918,1,3.965,3.965,0,0,0,1.191-.167,2.67,2.67,0,0,0,.914-.483,2.147,2.147,0,0,0,.589-.765,2.388,2.388,0,0,0,.207-1.011q0-2.47-3.516-2.47H28.942V11.872h.993q3.111,0,3.111-2.32,0-2.145-2.373-2.145a4.041,4.041,0,0,0-2.5.9v-1.4a5.476,5.476,0,0,1,2.865-.721,4.4,4.4,0,0,1,1.433.22,3.283,3.283,0,0,1,1.1.615,2.726,2.726,0,0,1,.708.949,2.93,2.93,0,0,1,.25,1.222,3.076,3.076,0,0,1-2.514,3.2v.035a3.976,3.976,0,0,1,1.187.312,3.166,3.166,0,0,1,.94.628,2.8,2.8,0,0,1,.62.91A2.9,2.9,0,0,1,34.98,15.432ZM43.093,9.7a2.606,2.606,0,0,0-.18-1.011,1.957,1.957,0,0,0-1.226-1.143,2.874,2.874,0,0,0-.914-.141,3.023,3.023,0,0,0-.826.114,4.016,4.016,0,0,0-.787.316,4.839,4.839,0,0,0-.738.483,5.333,5.333,0,0,0-.664.624V7.4a4.309,4.309,0,0,1,1.358-.9,4.781,4.781,0,0,1,1.833-.312,4.424,4.424,0,0,1,1.433.224,3.285,3.285,0,0,1,1.143.655,3.027,3.027,0,0,1,.76,1.063,3.587,3.587,0,0,1,.277,1.45,4.973,4.973,0,0,1-.171,1.354,4.186,4.186,0,0,1-.519,1.143A5.513,5.513,0,0,1,43,13.1a12.388,12.388,0,0,1-1.239,1q-.888.633-1.463,1.081a6.469,6.469,0,0,0-.914.839,2.436,2.436,0,0,0-.475.782,2.734,2.734,0,0,0-.136.9h6.275V19H37.266v-.624a5.2,5.2,0,0,1,.176-1.424,3.7,3.7,0,0,1,.58-1.169,6.487,6.487,0,0,1,1.059-1.107q.655-.554,1.6-1.248a10.141,10.141,0,0,0,1.147-.94,4.889,4.889,0,0,0,.743-.9,3.22,3.22,0,0,0,.4-.91A3.922,3.922,0,0,0,43.093,9.7Z" transform="translate(410.5 4313)" fill="#00223d"/>
        <path id="Trazado_26104-3" data-name="Trazado 26104" d="M26,0" transform="translate(416.136 4322.029)" fill="none" stroke="#707070" stroke-width="1"/>
      </g>
      <g id="Grupo_12175" data-name="Grupo 12175" transform="translate(138 677)">
        <path id="Trazado_725282" data-name="Trazado 725282" d="M10.3,12.461H2.039V11.3H10.3Zm0,3.744H2.039v-1.16H10.3ZM18.677,19H17.235V8.11a3.336,3.336,0,0,1-.488.382,7.951,7.951,0,0,1-.721.426q-.4.211-.844.4a6.132,6.132,0,0,1-.866.29V8.146a8.379,8.379,0,0,0,1.006-.356q.532-.224,1.046-.5t.971-.58a7.71,7.71,0,0,0,.791-.593h.545ZM30.894,7.231q-.29.5-.7,1.248t-.866,1.679q-.457.932-.932,2t-.888,2.215q-.413,1.143-.725,2.316A17.229,17.229,0,0,0,26.332,19H24.785a17.526,17.526,0,0,1,.488-2.3q.33-1.173.747-2.3t.883-2.175q.466-1.046.905-1.925t.8-1.551q.365-.672.584-1.05H22.878V6.4h8.016ZM33.68,19.193a.933.933,0,0,1-.69-.29.955.955,0,0,1-.286-.694.969.969,0,0,1,.286-.7.926.926,0,0,1,.69-.294.95.95,0,0,1,.7.294.962.962,0,0,1,.29.7.947.947,0,0,1-.29.694A.958.958,0,0,1,33.68,19.193ZM42.407,9.7a2.606,2.606,0,0,0-.18-1.011A1.957,1.957,0,0,0,41,7.548a2.874,2.874,0,0,0-.914-.141,3.023,3.023,0,0,0-.826.114,4.016,4.016,0,0,0-.787.316,4.839,4.839,0,0,0-.738.483,5.333,5.333,0,0,0-.664.624V7.4a4.309,4.309,0,0,1,1.358-.9,4.781,4.781,0,0,1,1.833-.312A4.424,4.424,0,0,1,41.7,6.41a3.285,3.285,0,0,1,1.143.655,3.027,3.027,0,0,1,.76,1.063,3.587,3.587,0,0,1,.277,1.45,4.973,4.973,0,0,1-.171,1.354,4.186,4.186,0,0,1-.519,1.143,5.513,5.513,0,0,1-.875,1.028,12.388,12.388,0,0,1-1.239,1q-.888.633-1.463,1.081a6.469,6.469,0,0,0-.914.839,2.436,2.436,0,0,0-.475.782,2.734,2.734,0,0,0-.136.9h6.275V19H36.58v-.624a5.2,5.2,0,0,1,.176-1.424,3.7,3.7,0,0,1,.58-1.169A6.487,6.487,0,0,1,38.4,14.676q.655-.554,1.6-1.248a10.141,10.141,0,0,0,1.147-.94,4.889,4.889,0,0,0,.743-.9,3.22,3.22,0,0,0,.4-.91A3.922,3.922,0,0,0,42.407,9.7Zm9.7,0a2.606,2.606,0,0,0-.18-1.011A1.957,1.957,0,0,0,50.7,7.548a2.874,2.874,0,0,0-.914-.141,3.023,3.023,0,0,0-.826.114,4.016,4.016,0,0,0-.787.316,4.839,4.839,0,0,0-.738.483,5.333,5.333,0,0,0-.664.624V7.4a4.309,4.309,0,0,1,1.358-.9,4.781,4.781,0,0,1,1.833-.312A4.424,4.424,0,0,1,51.4,6.41a3.285,3.285,0,0,1,1.143.655,3.027,3.027,0,0,1,.76,1.063,3.587,3.587,0,0,1,.277,1.45,4.973,4.973,0,0,1-.171,1.354,4.186,4.186,0,0,1-.519,1.143,5.513,5.513,0,0,1-.875,1.028,12.388,12.388,0,0,1-1.239,1q-.888.633-1.463,1.081a6.469,6.469,0,0,0-.914.839,2.436,2.436,0,0,0-.475.782,2.734,2.734,0,0,0-.136.9h6.275V19H46.283v-.624a5.2,5.2,0,0,1,.176-1.424,3.7,3.7,0,0,1,.58-1.169A6.487,6.487,0,0,1,48.1,14.676q.655-.554,1.6-1.248a10.141,10.141,0,0,0,1.147-.94,4.889,4.889,0,0,0,.743-.9,3.22,3.22,0,0,0,.4-.91A3.922,3.922,0,0,0,52.11,9.7Zm6.3,1.415a2.339,2.339,0,0,1-1.723-.716,2.371,2.371,0,0,1-.712-1.736,2.393,2.393,0,0,1,2.417-2.408,2.387,2.387,0,0,1,1.736.7,2.3,2.3,0,0,1,.716,1.705,2.371,2.371,0,0,1-.712,1.736A2.339,2.339,0,0,1,58.412,11.116Zm0-3.832a1.38,1.38,0,0,0-1.38,1.38,1.411,1.411,0,0,0,.4,1.006,1.281,1.281,0,0,0,.967.417,1.33,1.33,0,0,0,.984-.422,1.383,1.383,0,0,0,.413-1,1.373,1.373,0,0,0-1.38-1.38ZM72.044,18.473a7.392,7.392,0,0,1-3.48.738,5.613,5.613,0,0,1-4.307-1.731,6.389,6.389,0,0,1-1.617-4.544,6.7,6.7,0,0,1,1.819-4.887,6.175,6.175,0,0,1,4.614-1.863,7.4,7.4,0,0,1,2.971.519V8.277a6.024,6.024,0,0,0-2.988-.756,4.585,4.585,0,0,0-3.52,1.45,5.463,5.463,0,0,0-1.349,3.876,5.2,5.2,0,0,0,1.261,3.669,4.292,4.292,0,0,0,3.309,1.367,6.208,6.208,0,0,0,3.287-.844Z" transform="translate(409 4311)" fill="#00223d"/>
        <path id="Trazado_26104-4" data-name="Trazado 26104" d="M26,0" transform="translate(400.5 4319.456)" fill="none" stroke="#707070" stroke-width="1"/>
      </g>
    </g>
  </g>
</svg>
