<svg xmlns="http://www.w3.org/2000/svg" width="371" height="109" viewBox="0 0 371 109">
  <g id="Grupo_19292" data-name="Grupo 19292" transform="translate(-612 -17456)">
    <path id="Trazado_66415" data-name="Trazado 66415" d="M17,0H354a17,17,0,0,1,17,17V92a17,17,0,0,1-17,17H17A17,17,0,0,1,0,92V17A17,17,0,0,1,17,0Z" transform="translate(612 17456)" fill="#fff"/>
    <path id="Trazado_66416" data-name="Trazado 66416" d="M5.159,4.625H6.583V17H5.08V6.286L2.109,8.861V7.235ZM19.942,17.158a4.161,4.161,0,0,1-3.094-1.239,4.421,4.421,0,0,1-1.222-3.243,4.43,4.43,0,0,1,1.217-3.243,4.158,4.158,0,0,1,3.1-1.239,4.191,4.191,0,0,1,2.5.756,3.815,3.815,0,0,1,1.455,2.1l-1.424.229A2.63,2.63,0,0,0,21.5,9.934a2.656,2.656,0,0,0-1.564-.475,2.554,2.554,0,0,0-2,.888,3.382,3.382,0,0,0-.787,2.329A3.365,3.365,0,0,0,17.934,15a2.56,2.56,0,0,0,2,.883,2.656,2.656,0,0,0,1.564-.475,2.63,2.63,0,0,0,.976-1.345L23.9,14.3a3.819,3.819,0,0,1-1.463,2.1A4.185,4.185,0,0,1,19.942,17.158ZM34.972,8.193a2.785,2.785,0,0,1,2.013.734,2.722,2.722,0,0,1,.765,2.061V17H36.229V11.384a1.952,1.952,0,0,0-.475-1.424,1.616,1.616,0,0,0-1.2-.483,1.706,1.706,0,0,0-1.318.545,2.343,2.343,0,0,0-.5,1.635V17H31.184V11.445A2.042,2.042,0,0,0,30.7,9.973a1.629,1.629,0,0,0-1.226-.5,1.69,1.69,0,0,0-1.314.558,2.424,2.424,0,0,0-.505,1.674V17H26.139V8.36h1.521V9.477a2.625,2.625,0,0,1,.989-.949,2.82,2.82,0,0,1,1.375-.334,2.935,2.935,0,0,1,1.477.365,2.271,2.271,0,0,1,.958,1.05A2.689,2.689,0,0,1,33.5,8.558,2.966,2.966,0,0,1,34.972,8.193Z" transform="translate(651 17479)" fill="#00223d"/>
    <path id="Trazado_66417" data-name="Trazado 66417" d="M5.159,4.625H6.583V17H5.08V6.286L2.109,8.861V7.235Zm7.857,12.551a.987.987,0,0,1-.716-.3,1.022,1.022,0,0,1,.716-1.74.994.994,0,0,1,.721.3,1,1,0,0,1,0,1.437A1,1,0,0,1,13.017,17.176ZM21,17.167a3.447,3.447,0,0,1-3.05-1.617A8.623,8.623,0,0,1,16.875,10.8a8.662,8.662,0,0,1,1.059-4.737A3.444,3.444,0,0,1,21,4.458a3.436,3.436,0,0,1,3.05,1.613A8.637,8.637,0,0,1,25.11,10.8a8.6,8.6,0,0,1-1.077,4.742A3.44,3.44,0,0,1,21,17.167Zm0-1.406a2.093,2.093,0,0,0,1.925-1.239A8.08,8.08,0,0,0,23.59,10.8a7.851,7.851,0,0,0-.681-3.713,2.115,2.115,0,0,0-3.828,0A7.891,7.891,0,0,0,18.4,10.8a8.122,8.122,0,0,0,.664,3.722A2.091,2.091,0,0,0,21,15.761Zm10.134,1.406a3.447,3.447,0,0,1-3.05-1.617A8.623,8.623,0,0,1,27.009,10.8a8.662,8.662,0,0,1,1.059-4.737,3.705,3.705,0,0,1,6.113,0A8.637,8.637,0,0,1,35.244,10.8a8.6,8.6,0,0,1-1.077,4.742A3.44,3.44,0,0,1,31.131,17.167Zm0-1.406a2.093,2.093,0,0,0,1.925-1.239,8.08,8.08,0,0,0,.668-3.718,7.851,7.851,0,0,0-.681-3.713,2.115,2.115,0,0,0-3.828,0,7.891,7.891,0,0,0-.677,3.718,8.122,8.122,0,0,0,.664,3.722A2.091,2.091,0,0,0,31.131,15.761Zm10.134,1.406a3.447,3.447,0,0,1-3.05-1.617A8.623,8.623,0,0,1,37.143,10.8,8.662,8.662,0,0,1,38.2,6.066a3.705,3.705,0,0,1,6.113,0A8.637,8.637,0,0,1,45.378,10.8,8.6,8.6,0,0,1,44.3,15.545,3.44,3.44,0,0,1,41.265,17.167Zm0-1.406a2.093,2.093,0,0,0,1.925-1.239,8.08,8.08,0,0,0,.668-3.718,7.851,7.851,0,0,0-.681-3.713,2.115,2.115,0,0,0-3.828,0,7.891,7.891,0,0,0-.677,3.718,8.122,8.122,0,0,0,.664,3.722A2.091,2.091,0,0,0,41.265,15.761Zm6.688,1.415a.987.987,0,0,1-.716-.3,1.022,1.022,0,0,1,.716-1.74.994.994,0,0,1,.721.3,1,1,0,0,1,0,1.437A1,1,0,0,1,47.953,17.176Zm7.98-.009a3.447,3.447,0,0,1-3.05-1.617A8.623,8.623,0,0,1,51.812,10.8a8.662,8.662,0,0,1,1.059-4.737,3.705,3.705,0,0,1,6.113,0A8.637,8.637,0,0,1,60.047,10.8a8.6,8.6,0,0,1-1.077,4.742A3.44,3.44,0,0,1,55.934,17.167Zm0-1.406a2.093,2.093,0,0,0,1.925-1.239,8.08,8.08,0,0,0,.668-3.718,7.851,7.851,0,0,0-.681-3.713,2.115,2.115,0,0,0-3.828,0,7.891,7.891,0,0,0-.677,3.718A8.122,8.122,0,0,0,54,14.526,2.091,2.091,0,0,0,55.934,15.761Zm10.134,1.406a3.447,3.447,0,0,1-3.05-1.617A8.623,8.623,0,0,1,61.945,10.8,8.662,8.662,0,0,1,63,6.066a3.705,3.705,0,0,1,6.113,0A8.637,8.637,0,0,1,70.181,10.8,8.6,8.6,0,0,1,69.1,15.545,3.44,3.44,0,0,1,66.067,17.167Zm0-1.406a2.093,2.093,0,0,0,1.925-1.239A8.08,8.08,0,0,0,68.66,10.8a7.851,7.851,0,0,0-.681-3.713,2.115,2.115,0,0,0-3.828,0,7.891,7.891,0,0,0-.677,3.718,8.122,8.122,0,0,0,.664,3.722A2.091,2.091,0,0,0,66.067,15.761ZM76.2,17.167a3.447,3.447,0,0,1-3.05-1.617A8.623,8.623,0,0,1,72.079,10.8a8.662,8.662,0,0,1,1.059-4.737,3.705,3.705,0,0,1,6.113,0A8.637,8.637,0,0,1,80.314,10.8a8.6,8.6,0,0,1-1.077,4.742A3.44,3.44,0,0,1,76.2,17.167Zm0-1.406a2.093,2.093,0,0,0,1.925-1.239,8.08,8.08,0,0,0,.668-3.718,7.851,7.851,0,0,0-.681-3.713,2.115,2.115,0,0,0-3.828,0,7.891,7.891,0,0,0-.677,3.718,8.122,8.122,0,0,0,.664,3.722A2.091,2.091,0,0,0,76.2,15.761Z" transform="translate(822 17482)" fill="#00223d"/>
    <path id="Trazado_66418" data-name="Trazado 66418" d="M4.781,9.037a4.8,4.8,0,0,1,3.375,1.042,3.778,3.778,0,0,1,1.116,2.9,4.107,4.107,0,0,1-1.147,3.01,4.026,4.026,0,0,1-3,1.165,4.769,4.769,0,0,1-1.551-.25,4.19,4.19,0,0,1-1.31-.721,3.3,3.3,0,0,1-.914-1.217,4,4,0,0,1-.338-1.67,5.645,5.645,0,0,1,.044-.633l1.556-.132a6.186,6.186,0,0,0-.07.694,2.794,2.794,0,0,0,.224,1.151,1.968,1.968,0,0,0,.6.787,2.738,2.738,0,0,0,.813.426,2.968,2.968,0,0,0,.918.141,2.538,2.538,0,0,0,1.92-.756,2.69,2.69,0,0,0,.725-1.942,2.559,2.559,0,0,0-.751-1.951,3.368,3.368,0,0,0-2.377-.712H1.485l.765-5.73H8.736V6.058h-5.2l-.4,2.979Zm15.161,8.121a4.161,4.161,0,0,1-3.094-1.239,4.421,4.421,0,0,1-1.222-3.243,4.43,4.43,0,0,1,1.217-3.243,4.158,4.158,0,0,1,3.1-1.239,4.191,4.191,0,0,1,2.5.756,3.815,3.815,0,0,1,1.455,2.1l-1.424.229A2.63,2.63,0,0,0,21.5,9.934a2.656,2.656,0,0,0-1.564-.475,2.554,2.554,0,0,0-2,.888,3.382,3.382,0,0,0-.787,2.329A3.365,3.365,0,0,0,17.934,15a2.56,2.56,0,0,0,2,.883,2.656,2.656,0,0,0,1.564-.475,2.63,2.63,0,0,0,.976-1.345L23.9,14.3a3.819,3.819,0,0,1-1.463,2.1A4.185,4.185,0,0,1,19.942,17.158ZM34.972,8.193a2.785,2.785,0,0,1,2.013.734,2.722,2.722,0,0,1,.765,2.061V17H36.229V11.384a1.952,1.952,0,0,0-.475-1.424,1.616,1.616,0,0,0-1.2-.483,1.706,1.706,0,0,0-1.318.545,2.343,2.343,0,0,0-.5,1.635V17H31.184V11.445A2.042,2.042,0,0,0,30.7,9.973a1.629,1.629,0,0,0-1.226-.5,1.69,1.69,0,0,0-1.314.558,2.424,2.424,0,0,0-.505,1.674V17H26.139V8.36h1.521V9.477a2.625,2.625,0,0,1,.989-.949,2.82,2.82,0,0,1,1.375-.334,2.935,2.935,0,0,1,1.477.365,2.271,2.271,0,0,1,.958,1.05A2.689,2.689,0,0,1,33.5,8.558,2.966,2.966,0,0,1,34.972,8.193Z" transform="translate(651 17511)" fill="#00223d"/>
    <path id="Trazado_66419" data-name="Trazado 66419" d="M42.583,17l4.825-6.46L42.8,4.625H44.71l3.63,4.8,3.621-4.8h1.907l-4.6,5.915L54.088,17H52.1L48.34,11.753,44.578,17Z" transform="translate(822 17514)" fill="#00223d"/>
    <g id="Grupo_17954" data-name="Grupo 17954" transform="translate(-135 14210)">
      <path id="Trazado_63765" data-name="Trazado 63765" d="M6652-18612.641h90.438" transform="translate(-5809 21895)" fill="none" stroke="#707070" stroke-width="1"/>
      <path id="Polígono_10" data-name="Polígono 10" d="M7,0l7,11H0Z" transform="translate(941.5 3275.5) rotate(90)" fill="#00223d"/>
    </g>
    <g id="Grupo_17955" data-name="Grupo 17955" transform="translate(-135 14241)">
      <path id="Trazado_63765-2" data-name="Trazado 63765" d="M6652-18612.641h90.438" transform="translate(-5809 21895)" fill="none" stroke="#707070" stroke-width="1"/>
      <path id="Polígono_10-2" data-name="Polígono 10" d="M7,0l7,11H0Z" transform="translate(941.5 3275.5) rotate(90)" fill="#00223d"/>
    </g>
  </g>
</svg>
