<svg xmlns="http://www.w3.org/2000/svg" width="124" height="124" viewBox="0 0 124 124">
  <g id="Grupo_959100" data-name="Grupo 959100" transform="translate(-180 -658)">
    <rect id="Rectángulo_340134" data-name="Rectángulo 340134" width="124" height="124" transform="translate(180 658)" fill="#80cab6"/>
    <g id="examen-de-orina" transform="translate(200 678)">
      <path id="Trazado_724213" data-name="Trazado 724213" d="M40.91,48.845,59.224,67.159a5.611,5.611,0,1,0,7.935-7.935L48.845,40.91" transform="translate(12.874 12.874)" fill="#2d76a7"/>
      <path id="Trazado_724214" data-name="Trazado 724214" d="M48.186,40.91l-5.231,5.232L60.006,63.191a5.58,5.58,0,0,0,8.117-.218A5.606,5.606,0,0,0,66.5,59.224Z" transform="translate(13.533 12.874)" fill="#3c95ce"/>
      <path id="Trazado_724215" data-name="Trazado 724215" d="M3,10,8.29,41.742H34.742L40.032,10" transform="translate(0.645 2.903)" fill="#c1c2c4"/>
      <path id="Trazado_724216" data-name="Trazado 724216" d="M5,10l5.29,31.742H34.1L39.387,10Z" transform="translate(1.29 2.903)" fill="#dbdcde"/>
      <path id="Trazado_724217" data-name="Trazado 724217" d="M17.064,21.645A9.028,9.028,0,0,0,10.679,19H4.5L7.806,38.839H34.258L36.682,24.29H23.456A9.028,9.028,0,0,1,17.064,21.645Z" transform="translate(1.129 5.806)" fill="#f9d647"/>
      <path id="Trazado_724218" data-name="Trazado 724218" d="M22.8,24.29a9.028,9.028,0,0,1-6.386-2.646A9.028,9.028,0,0,0,10.034,19H6.5L9.806,38.839H33.613L36.037,24.29Z" transform="translate(1.774 5.806)" fill="#fde972"/>
      <path id="Trazado_724219" data-name="Trazado 724219" d="M2,2H41.677V12.581H2Z" transform="translate(0.323 0.323)" fill="#d8b42f"/>
      <path id="Trazado_724220" data-name="Trazado 724220" d="M9.29,7.29H41.032V2H4A5.29,5.29,0,0,0,9.29,7.29Z" transform="translate(0.968 0.323)" fill="#f9d647"/>
      <path id="Trazado_724221" data-name="Trazado 724221" d="M8,13h7.935v2.645H8Z" transform="translate(2.258 3.871)" fill="#5a5b5d"/>
      <path id="Trazado_724222" data-name="Trazado 724222" d="M8,17h7.935v2.645H8Z" transform="translate(2.258 5.161)" fill="#5a5b5d"/>
      <g id="Grupo_958763" data-name="Grupo 958763" transform="translate(7.613 2.323)">
        <path id="Trazado_724223" data-name="Trazado 724223" d="M6,2H8.645V8.613H6Z" transform="translate(-6 -2)" fill="#bf9e29"/>
        <path id="Trazado_724224" data-name="Trazado 724224" d="M11,2h2.645V8.613H11Z" transform="translate(-4.387 -2)" fill="#bf9e29"/>
        <path id="Trazado_724225" data-name="Trazado 724225" d="M16,2h2.645V8.613H16Z" transform="translate(-2.774 -2)" fill="#bf9e29"/>
        <path id="Trazado_724226" data-name="Trazado 724226" d="M21,2h2.645V8.613H21Z" transform="translate(-1.161 -2)" fill="#bf9e29"/>
        <path id="Trazado_724227" data-name="Trazado 724227" d="M26,2h2.645V8.613H26Z" transform="translate(0.451 -2)" fill="#bf9e29"/>
      </g>
      <path id="Trazado_724228" data-name="Trazado 724228" d="M8,21h7.935v2.645H8Z" transform="translate(2.258 6.451)" fill="#5a5b5d"/>
      <path id="Trazado_724229" data-name="Trazado 724229" d="M8,25h7.935v2.645H8Z" transform="translate(2.258 7.742)" fill="#5a5b5d"/>
      <path id="Trazado_724230" data-name="Trazado 724230" d="M8,29h7.935v2.645H8Z" transform="translate(2.258 9.032)" fill="#5a5b5d"/>
      <circle id="Elipse_5669" data-name="Elipse 5669" cx="21" cy="21" r="21" transform="translate(22 22)" fill="#4ab8e4"/>
      <path id="Trazado_724231" data-name="Trazado 724231" d="M37.515,17a21.106,21.106,0,0,0-16.157,7.511A21.148,21.148,0,0,0,56.317,47.844,21.139,21.139,0,0,0,37.515,17Z" transform="translate(5.807 5.161)" fill="#6ac4e8"/>
      <circle id="Elipse_5670" data-name="Elipse 5670" cx="16" cy="16" r="16" transform="translate(27 27)" fill="#fff"/>
      <ellipse id="Elipse_5671" data-name="Elipse 5671" cx="3" cy="2.5" rx="3" ry="2.5" transform="translate(39 49)" fill="#34815a"/>
      <path id="Trazado_724232" data-name="Trazado 724232" d="M37,32h2.645v2.645H37Z" transform="translate(11.613 10)" fill="#34815a"/>
      <path id="Trazado_724233" data-name="Trazado 724233" d="M26,28h2.645v2.645H26Z" transform="translate(8.064 8.709)" fill="#34815a"/>
      <path id="Trazado_724234" data-name="Trazado 724234" d="M34,24h2.645v2.645H34Z" transform="translate(10.645 7.419)" fill="#34815a"/>
      <path id="Trazado_724235" data-name="Trazado 724235" d="M26,35h2.645v2.645H26Z" transform="translate(8.064 10.967)" fill="#d8b42f"/>
      <path id="Trazado_724236" data-name="Trazado 724236" d="M0,0H3.74V2.645H0Z" transform="translate(41.056 41.064) rotate(-45)" fill="#d8b42f"/>
      <path id="Trazado_724237" data-name="Trazado 724237" d="M0,0H2.645V3.74H0Z" transform="translate(50.314 37.646) rotate(-45)" fill="#d8b42f"/>
      <path id="Trazado_724238" data-name="Trazado 724238" d="M0,0H2.645V3.74H0Z" transform="translate(47.667 49.548) rotate(-45)" fill="#d8b42f"/>
      <path id="Trazado_724239" data-name="Trazado 724239" d="M0,0H11.222V5.612H0Z" transform="translate(58.519 66.468) rotate(-45)" fill="#f9d647"/>
      <path id="Trazado_724240" data-name="Trazado 724240" d="M0,0H7.4V5.612H0Z" transform="translate(61.223 63.762) rotate(-45)" fill="#fde972"/>
      <path id="Trazado_724241" data-name="Trazado 724241" d="M8,13h7.935v2.645H8Z" transform="translate(2.258 3.871)"/>
      <path id="Trazado_724242" data-name="Trazado 724242" d="M37.193,20A17.193,17.193,0,1,0,54.387,37.193,17.193,17.193,0,0,0,37.193,20Zm0,31.742A14.548,14.548,0,1,1,51.742,37.193,14.548,14.548,0,0,1,37.193,51.742Z" transform="translate(6.129 6.129)"/>
      <path id="Trazado_724243" data-name="Trazado 724243" d="M63.331,53.526A22.4,22.4,0,0,0,40.667,21.01L41.8,14.226H42A1.323,1.323,0,0,0,43.322,12.9V2.323A1.323,1.323,0,0,0,42,1H2.323A1.323,1.323,0,0,0,1,2.323V12.9a1.323,1.323,0,0,0,1.323,1.323h.2L7.631,44.862a1.323,1.323,0,0,0,1.3,1.106H21.008A22.427,22.427,0,0,0,53.526,63.331L71.164,80.969a6.934,6.934,0,0,0,9.806-9.806ZM68.565,62.5,62.5,68.565l-2.1-2.1L66.467,60.4ZM3.645,3.645H7.613v5.29h2.645V3.645h3.968v5.29h2.645V3.645h3.968v5.29h2.645V3.645h3.968v5.29H30.1V3.645h3.968v5.29h2.645V3.645h3.968v7.935H3.645ZM39.116,14.226l-1.217,7.3a22.484,22.484,0,0,0-11.689,7.246H24.579a7.656,7.656,0,0,1-5.45-2.258,10.362,10.362,0,0,0-2.258-1.71h1.323V22.161H10.258v1.323H6.749L5.206,14.226Zm-29.061,29.1L7.19,26.129h4.618a7.655,7.655,0,0,1,4.317,1.323H10.258V30.1h7.935v-.89a10.247,10.247,0,0,0,6.1,2.2,22.313,22.313,0,0,0-3.453,11.918Zm13.428,0A19.839,19.839,0,1,1,43.322,63.161,19.839,19.839,0,0,1,23.484,43.322ZM61.956,55.887,64.6,58.532,58.532,64.6l-2.645-2.645a22.657,22.657,0,0,0,6.069-6.065ZM76.066,80.354A4.261,4.261,0,0,1,73.034,79.1L64.37,70.435l6.065-6.065L79.1,73.034a4.289,4.289,0,0,1-3.033,7.32Z" transform="translate(0 0)"/>
      <path id="Trazado_724244" data-name="Trazado 724244" d="M32.968,36a3.968,3.968,0,1,0,3.968,3.968A3.968,3.968,0,0,0,32.968,36Zm0,5.29a1.323,1.323,0,1,1,1.323-1.323A1.323,1.323,0,0,1,32.968,41.29Z" transform="translate(9.032 11.29)"/>
      <path id="Trazado_724245" data-name="Trazado 724245" d="M37,32h2.645v2.645H37Z" transform="translate(11.613 10)"/>
      <path id="Trazado_724246" data-name="Trazado 724246" d="M26,28h2.645v2.645H26Z" transform="translate(8.064 8.709)"/>
      <path id="Trazado_724247" data-name="Trazado 724247" d="M34,24h2.645v2.645H34Z" transform="translate(10.645 7.419)"/>
      <path id="Trazado_724248" data-name="Trazado 724248" d="M26,35h2.645v2.645H26Z" transform="translate(8.064 10.967)"/>
      <path id="Trazado_724249" data-name="Trazado 724249" d="M0,0H3.74V2.645H0Z" transform="translate(41.056 41.064) rotate(-45)"/>
      <path id="Trazado_724250" data-name="Trazado 724250" d="M0,0H2.645V3.74H0Z" transform="translate(50.314 37.646) rotate(-45)"/>
      <path id="Trazado_724251" data-name="Trazado 724251" d="M0,0H2.645V3.74H0Z" transform="translate(47.667 49.548) rotate(-45)"/>
      <path id="Trazado_724252" data-name="Trazado 724252" d="M8,25h7.935v2.645H8Z" transform="translate(2.258 7.742)"/>
      <path id="Trazado_724253" data-name="Trazado 724253" d="M8,29h7.935v2.645H8Z" transform="translate(2.258 9.032)"/>
    </g>
  </g>
</svg>
