<svg xmlns="http://www.w3.org/2000/svg" xmlns:xlink="http://www.w3.org/1999/xlink" width="479" height="218" viewBox="0 0 479 218">
  <defs>
    <filter id="Rectángulo_340046" x="0" y="0" width="258" height="135" filterUnits="userSpaceOnUse">
      <feOffset dy="3" input="SourceAlpha"/>
      <feGaussianBlur stdDeviation="3" result="blur"/>
      <feFlood flood-opacity="0.161"/>
      <feComposite operator="in" in2="blur"/>
      <feComposite in="SourceGraphic"/>
    </filter>
  </defs>
  <g id="Grupo_959089" data-name="Grupo 959089" transform="translate(-836 -8183)">
    <g id="Grupo_958045" data-name="Grupo 958045" transform="translate(860.136 8083.317)">
      <path id="Trazado_722450" data-name="Trazado 722450" d="M236.969,317.373s-32.768-31.805-11.921-69.224,48.846-18.6,47.491-62.154,64.392-47.295,85.32-34.666,20.8,27.838,64.005,22.806,51.457,36.917,40.217,58.3c-15.947,30.334,44.261,25.331,6.323,84.942Z" transform="translate(-29.78 0)" fill="#ebf3fa"/>
      <g id="Grupo_958031" data-name="Grupo 958031" transform="translate(350.434 203.504)">
        <path id="Trazado_722451" data-name="Trazado 722451" d="M1779.87,799.172s6.963-29.511,30.451-32.755a5.791,5.791,0,0,1,6.092,4.471c1.522,5.032-7.565,5.068-13.181,7.093S1784.521,788.585,1779.87,799.172Z" transform="translate(-1779.216 -760.143)" fill="#aec3ff" opacity="0.3"/>
        <path id="Trazado_722452" data-name="Trazado 722452" d="M1773.718,739.885s-2.442-24.444,14.7-33.12a4.691,4.691,0,0,1,5.845,1.82c2.492,3.454-4.46,5.877-8.23,8.908S1774.491,730.549,1773.718,739.885Z" transform="translate(-1773.597 -706.379)" fill="#aec3ff" opacity="0.3"/>
      </g>
      <rect id="Rectángulo_339817" data-name="Rectángulo 339817" width="270" height="0.742" rx="0.371" transform="translate(184.864 316.941)" fill="#2e3552"/>
      <path id="Trazado_722453" data-name="Trazado 722453" d="M553.259,1348.81c-3.626-8.263,9.528-15.363,9.528-15.363s17.333,5.61,19.822,4.072-13.883-7.69-13.883-7.69c4.039-3.952,19.529-7.575,19.529-7.575s10.448,14.418,12.481,12.314-9.9-12.294-9.9-12.294c5.264-2.143,13.2-.384,13.2-.384,11.434,4.071,5.616,18.543,5.616,18.543a28.948,28.948,0,0,0,11.135,8.04h0a21.02,21.02,0,0,1,3.563,1.659l-1.156.931c-.344-.234-.689-.45-1.036-.644a.009.009,0,0,0-.006,0l-.015-.008c-.223-.115-.542-.277-.933-.473h0c-.91-.407-1.56-.725-2.008-.972l0,0c-2.806-1.318-6.607-2.917-8.1-2.692a2.873,2.873,0,0,0-.18-.729l.18.729c1.436,5.833-7.887,14.507-14.309,17.816s-5.272-.181-4.336-5.094,7.689-9.256,8.729-11.725-2.441-1.3-5.888,1.947-2.324,8.4-7.8,13.742-18.994-2.176-18.994-2.176c5.122-2.029,10.65-10.209,9.794-11.849s-11.623,7.265-13.66,8.206S556.886,1357.073,553.259,1348.81Z" transform="translate(-329.437 -1053.632)" fill="#cde0fb"/>
      <path id="Trazado_722454" data-name="Trazado 722454" d="M1613.823,1367.3c5.29-6.242-4.3-15.817-4.3-15.817s-16.515.389-18.28-1.593,14.056-3.089,14.056-3.089c-2.487-4.48-15.01-11.637-15.01-11.637s-12.812,9.825-14.034,7.471,11.788-8.121,11.788-8.121c-4.02-3.225-11.376-3.751-11.376-3.751-10.99.578-9.68,14.661-9.68,14.661a26.246,26.246,0,0,1-11.758,4.1h0a19.035,19.035,0,0,0-3.526.52l.764,1.108c.359-.114.715-.212,1.067-.292a.008.008,0,0,1,.006,0l.015,0c.223-.042.542-.1.933-.169h0c.9-.118,1.543-.227,2-.325h0c2.779-.419,6.5-.825,7.737-.242a2.609,2.609,0,0,1,.345-.587l-.345.587c-2.758,4.7,3.1,14.648,7.823,19.186s4.628,1.207,5.087-3.3-4.286-10.035-4.551-12.45,2.457-.494,4.613,3.216-.153,7.9,3.225,13.962,17.069,3.026,17.069,3.026c-3.926-3.089-6.612-11.629-5.444-12.833s8.22,9.322,9.747,10.668S1608.533,1373.547,1613.823,1367.3Z" transform="translate(-1224.39 -1062.192)" fill="#cde0fb"/>
      <path id="Trazado_722455" data-name="Trazado 722455" d="M858.326,482.828c5.453-9.149,21.293-1.379,21.293-1.379s6.494,20.5,9.678,21.837-2.129-18.612-2.129-18.612c6.567,1.171,20.667,13.57,20.667,13.57s-6.69,19.924-3.274,20.435,5.023-17.944,5.023-17.944c5.668,3.588,9.422,12.424,9.422,12.424,3.928,13.777-13.966,18.109-13.966,18.109a34.167,34.167,0,0,0-.09,16.211h0a24.775,24.775,0,0,1,.849,4.561l-1.687-.472c-.011-.491-.041-.971-.091-1.438a.009.009,0,0,0,0-.008l0-.02c-.043-.293-.1-.71-.185-1.22v0s0,0,0,0c-.233-1.153-.372-2-.442-2.6a.013.013,0,0,1,0-.005c-.658-3.6-1.727-8.348-2.969-9.629a3.39,3.39,0,0,0,.577-.673l-.577.673c-4.62,5.379-19.346,2.369-26.928-1.533s-3.441-5.189,1.921-7.659,14.166,1.041,17.251.348-.429-3.234-5.907-4.323S877.1,527,868.2,525.4s-10.932-19.741-10.932-19.741c5.462,3.531,17.111,3.233,18.1,1.286s-14.949-6.186-17.251-7.5S852.873,491.977,858.326,482.828Z" transform="translate(-600.504 -298.628)" fill="#cde0fb" opacity="0.5"/>
      <g id="Grupo_958033" data-name="Grupo 958033" transform="translate(318.704 170.719)">
        <g id="Grupo_958032" data-name="Grupo 958032" transform="translate(0)">
          <path id="Trazado_722456" data-name="Trazado 722456" d="M1469.132,422.015a4.182,4.182,0,0,1,.317-1.639,3.833,3.833,0,0,1,.9-1.3,4.107,4.107,0,0,1,1.39-.86,5.123,5.123,0,0,1,1.831-.309,5.239,5.239,0,0,1,1.845.309,4.085,4.085,0,0,1,1.4.86,3.835,3.835,0,0,1,.895,1.3,4.189,4.189,0,0,1,.317,1.639,4.09,4.09,0,0,1-.317,1.626,3.86,3.86,0,0,1-.895,1.29,4.075,4.075,0,0,1-1.4.86,5.242,5.242,0,0,1-1.845.309,5.126,5.126,0,0,1-1.831-.309,4.1,4.1,0,0,1-1.39-.86,3.857,3.857,0,0,1-.9-1.29A4.084,4.084,0,0,1,1469.132,422.015Zm7.737-7.648h-6.608l-.936-22.579h8.48Z" transform="translate(-1469.132 -391.789)" fill="#f78248"/>
        </g>
      </g>
      <g id="Grupo_958035" data-name="Grupo 958035" transform="translate(298.752 155.675)">
        <g id="Grupo_958034" data-name="Grupo 958034" transform="translate(0 0)">
          <path id="Trazado_722457" data-name="Trazado 722457" d="M1277.678,270.629a3.211,3.211,0,0,1,.243-1.258,2.94,2.94,0,0,1,.687-1,3.156,3.156,0,0,1,1.067-.66,3.933,3.933,0,0,1,1.406-.237,4.021,4.021,0,0,1,1.416.237,3.139,3.139,0,0,1,1.078.66,2.941,2.941,0,0,1,.687,1,3.213,3.213,0,0,1,.243,1.258,3.136,3.136,0,0,1-.243,1.248,2.958,2.958,0,0,1-.687.99,3.129,3.129,0,0,1-1.078.66,4.024,4.024,0,0,1-1.416.237,3.936,3.936,0,0,1-1.406-.237,3.145,3.145,0,0,1-1.067-.66,2.957,2.957,0,0,1-.687-.99A3.134,3.134,0,0,1,1277.678,270.629Zm5.938-5.869h-5.072l-.718-17.329h6.509Z" transform="translate(-1277.678 -247.431)" fill="#aec3ff"/>
        </g>
      </g>
      <g id="Grupo_958037" data-name="Grupo 958037" transform="translate(397.274 184.955)">
        <g id="Grupo_958036" data-name="Grupo 958036">
          <path id="Trazado_722458" data-name="Trazado 722458" d="M2223.052,551.588a3.21,3.21,0,0,1,.243-1.258,2.945,2.945,0,0,1,.687-1,3.158,3.158,0,0,1,1.067-.66,3.937,3.937,0,0,1,1.406-.237,4.026,4.026,0,0,1,1.416.237,3.14,3.14,0,0,1,1.078.66,2.952,2.952,0,0,1,.687,1,3.223,3.223,0,0,1,.243,1.258,3.147,3.147,0,0,1-.243,1.248,2.969,2.969,0,0,1-.687.99,3.13,3.13,0,0,1-1.078.66,4.023,4.023,0,0,1-1.416.237,3.934,3.934,0,0,1-1.406-.237,3.148,3.148,0,0,1-1.067-.66,2.962,2.962,0,0,1-.687-.99A3.134,3.134,0,0,1,2223.052,551.588Zm5.938-5.87h-5.071l-.719-17.329h6.509Z" transform="translate(-2223.052 -528.39)" fill="#aec3ff"/>
        </g>
      </g>
      <g id="Grupo_958039" data-name="Grupo 958039" transform="translate(369.117 229.01)">
        <g id="Grupo_958038" data-name="Grupo 958038">
          <path id="Trazado_722459" data-name="Trazado 722459" d="M1969.872,1095.994a34.18,34.18,0,0,1-3.734,5.568h0a11.21,11.21,0,0,1-4.093,3.414l-.009,0c-.064.022-.127.043-.19.06a.016.016,0,0,1-.01,0h0a2.227,2.227,0,0,1-.712.091c-4.018-.18-8.253-8.8-8.253-8.8a3.064,3.064,0,0,1,.892-1.744,3.614,3.614,0,0,1,1.206-.794s4.328,4.444,5.386,4.764c.665.2,1.539-2.9,2.792-6.8s5.655-4.859,5.655-4.859S1973.255,1089.72,1969.872,1095.994Z" transform="translate(-1952.871 -1072.751)" fill="#aec3ff"/>
          <path id="Trazado_722460" data-name="Trazado 722460" d="M2043.2,1201.451h0a11.211,11.211,0,0,1-4.093,3.414l-.009,0-.19.06-.011,0h0a3.112,3.112,0,0,0,1.56-1.97c.21-1.289-1.154-2.344,2.274-4.337C2044.725,1197.462,2043.2,1201.451,2043.2,1201.451Z" transform="translate(-2029.929 -1172.64)" fill="#94b0ed"/>
          <path id="Trazado_722461" data-name="Trazado 722461" d="M2050.074,1750.421h9.418c.675-.458-.182-4.932-.182-4.932s-2.57-.975-3.015,1.008-3.274,2.612-4.771,2.854A1.612,1.612,0,0,0,2050.074,1750.421Z" transform="translate(-2039.944 -1662.49)" fill="#24406d"/>
          <path id="Trazado_722462" data-name="Trazado 722462" d="M2086.218,1322.135s-.3,5.494-.668,11.861c-.267,4.565-.572,9.578-.833,13.333-.035.5-.07.975-.1,1.425-.009.14-.02.278-.03.417a83.716,83.716,0,0,1-2.93,15.8c-2.648.558-3.844-.463-3.844-.463s-1.824-21.382-2.5-30.006c-.5-6.348-.921-15.591-.921-15.591Z" transform="translate(-2061.726 -1280.577)" fill="#ff9e55"/>
          <path id="Trazado_722463" data-name="Trazado 722463" d="M2129.034,1406.409c-.268,4.565-.572,9.579-.833,13.334-1.731-4.083-5.268-20-5.268-20Z" transform="translate(-2105.21 -1352.991)" fill="#ed7d2b"/>
          <path id="Trazado_722464" data-name="Trazado 722464" d="M2184.1,1750.421h9.418c.675-.458-.182-4.932-.182-4.932s-2.571-.975-3.014,1.008-3.274,2.612-4.771,2.854A1.611,1.611,0,0,0,2184.1,1750.421Z" transform="translate(-2160.006 -1662.49)" fill="#24406d"/>
          <path id="Trazado_722465" data-name="Trazado 722465" d="M2098.939,1311.6s6.726,16.741,8.876,23.087c1.531,4.52,5.85,20.377,5.85,20.377a4.342,4.342,0,0,0,3.457-.533s1.607-16.2-1.639-20.769c-1.722-2.424-.429-25.194-7.411-25.389S2098.939,1311.6,2098.939,1311.6Z" transform="translate(-2083.716 -1271.136)" fill="#ff9e55"/>
          <path id="Trazado_722466" data-name="Trazado 722466" d="M2082.145,1100.234c-.028,2.381-.055,4.129-.048,4.57.019,1.44-.9,1.766-1.852,1.985,0,0-.877.189-1.984.377a21.805,21.805,0,0,1-3.314.355,29.893,29.893,0,0,1-8.674-1.428c-.889,0-1.294-1.374-1.439-3.293-.1-1.3.3-14.251.353-17.486a8.437,8.437,0,0,1,1.664-4.777c3.3-2.915,13.028-2.548,14.779-.537.434.5.56,5.293.574,10.546C2082.212,1093.926,2082.178,1097.5,2082.145,1100.234Z" transform="translate(-2053.151 -1065.153)" fill="#aec3ff"/>
          <path id="Trazado_722467" data-name="Trazado 722467" d="M2129.519,1043.961c-1.242,1.346-5.414,1.147-5.29-.028.016-.145.044-1.005.057-1.138.01-.107.021-.212.029-.311q.042-.435.07-.767c.056-.644.073-.994.073-.994h0c.119-.034,2.8-.8,4.137-1.111a2.132,2.132,0,0,1,.74-.123C2128.931,1042.487,2129.926,1043.52,2129.519,1043.961Z" transform="translate(-2106.368 -1030.27)" fill="#ffb27d"/>
          <path id="Trazado_722468" data-name="Trazado 722468" d="M2130.118,1041.658s-1.12,1.138-4.356,1.22c.056-.644.073-.994.073-.994h0c.12-.034,2.8-.8,4.137-1.111C2130.211,1040.87,2129.9,1041.5,2130.118,1041.658Z" transform="translate(-2107.744 -1031.431)" fill="#ed975d"/>
          <path id="Trazado_722469" data-name="Trazado 722469" d="M2113.851,979.6a10.138,10.138,0,0,0,1.864.434c1.527.206,3.536.085,4.166-1.763,1.063-3.11,2.42-4.975-.707-6.245a4.965,4.965,0,0,0-3.472-.457,2.515,2.515,0,0,0-1.287,1.114C2113.808,973.63,2112.586,979.051,2113.851,979.6Z" transform="translate(-2096.579 -969.301)" fill="#ffb27d"/>
          <path id="Trazado_722470" data-name="Trazado 722470" d="M2120.565,952.094a1.476,1.476,0,0,0,.564,2.685,10.824,10.824,0,0,1,1.833.336c.777.345,1.446.712,1.262,1.919-.062.41-.262.91.794.662a.514.514,0,0,1,.384.023c.438.26-.122,1.52-.291,1.793,0,0-.243.9.3,1.342.065.053,1.125.516,3.677-3.392a3.628,3.628,0,0,0,.165-3.325c-.619-1.33-2.346-3.013-5.6-3.013A6.205,6.205,0,0,0,2120.565,952.094Z" transform="translate(-2102.494 -951.124)" fill="#233862"/>
          <path id="Trazado_722471" data-name="Trazado 722471" d="M2203.8,1192.884c-.475,2.208-.354,2.232-1.083,1.652-2.97-2.361-2.1-3.6-1.442-5.643s-1.656-5.246,0-6.609c1.62-1.333,2.543.816,2.583.912C2203.866,1186.577,2203.831,1190.148,2203.8,1192.884Z" transform="translate(-2174.804 -1157.804)" fill="#94b0ed"/>
          <path id="Trazado_722472" data-name="Trazado 722472" d="M2183.711,1285.014s-1.119,1.831-1.853,1.766-1.724-.338-2.3.208-1.493,1.953-1.235,2.328,1.293.043,2.037-.368,1.916.2,2.541-.264a21.8,21.8,0,0,0,2.119-2.318Z" transform="translate(-2154.79 -1250.218)" fill="#ffb27d"/>
          <path id="Trazado_722473" data-name="Trazado 722473" d="M2208.864,1093.576s9.291,8.743,8.084,14.558c-.55,2.65-2.256,4.886-6.8,8.505,0,0-2.151-1.486-2.623-2.693,0,0,4.127-5.812,3.967-6.8-.195-1.211-3.012-4.249-4.023-4.721S2206.55,1094.59,2208.864,1093.576Z" transform="translate(-2180.386 -1078.73)" fill="#aec3ff"/>
          <path id="Trazado_722474" data-name="Trazado 722474" d="M2199.5,1296.2s-.979-.428-1.294-.612-.245.113-.149.262a1.086,1.086,0,0,0,.743.516A1.229,1.229,0,0,0,2199.5,1296.2Z" transform="translate(-2172.434 -1259.638)" fill="#ffb27d"/>
        </g>
      </g>
      <g id="Grupo_958041" data-name="Grupo 958041" transform="translate(221.768 226.557)">
        <path id="Trazado_722475" data-name="Trazado 722475" d="M606.551,947.607c-.336-.648,7.328-2.981,7.45,3.413,0,0,14.357-.353,7.5-8.355-2.373-2.771-2.129-5.061-2.058-7.193s-1.478-8.33-6.792-7.706a3.957,3.957,0,0,0-3.128.335C605.574,930.149,596.726,949.965,606.551,947.607Z" transform="translate(-595.501 -927.59)" fill="#163560"/>
        <path id="Trazado_722476" data-name="Trazado 722476" d="M870.234,1161.453s.935-1.423,1.688-1.45,2.148-.418,2.036-.14-.976.307-1.06.474,1.283.418,1.674.447,1.311,0,1.283.2a4.433,4.433,0,0,1-2.81.893,7.808,7.808,0,0,0-2.574.335Z" transform="translate(-835.712 -1135.568)" fill="#ffb27d"/>
        <path id="Trazado_722477" data-name="Trazado 722477" d="M740.543,1082.746a14.015,14.015,0,0,0,1.429,2.162,8.368,8.368,0,0,0,4.973,3.315,5.338,5.338,0,0,0,2.954-.48h0a13.47,13.47,0,0,0,4.574-3.825,2.147,2.147,0,0,0-.293-2.106s-5.273,1.186-5.775.935-3.589-7.1-4.145-8.241a6.254,6.254,0,0,0-3.058-3.12Z" transform="translate(-719.537 -1056.399)" fill="#aec3ff"/>
        <path id="Trazado_722478" data-name="Trazado 722478" d="M752.833,1177.123a8.367,8.367,0,0,0,4.973,3.315,5.339,5.339,0,0,0,2.954-.479c-.1.013-2.71.335-3.749-1.524-1.06-1.9-2.207-4.91-3.782-3.906C752.549,1174.962,752.579,1176.039,752.833,1177.123Z" transform="translate(-730.398 -1148.614)" fill="#94b0ed"/>
        <path id="Trazado_722479" data-name="Trazado 722479" d="M540.317,1720.526s-1.609,1.468-1.295,2.511,1.766,1.739,1.962,3.014.981,1.971,1.687,1.971h3.367s.52-.9-.736-1.168-1.729-1.769-1.651-3.16a24.521,24.521,0,0,0-.118-3.245l-2.668-.618Z" transform="translate(-538.981 -1637.267)" fill="#1d3356"/>
        <path id="Trazado_722480" data-name="Trazado 722480" d="M680.538,1732.485s-.579,6.22.128,6.568l9.039-.019s0-1.043-1.452-1.275-4-1.082-4.434-2.975S680.538,1732.485,680.538,1732.485Z" transform="translate(-665.586 -1648.602)" fill="#1d3356"/>
        <path id="Trazado_722481" data-name="Trazado 722481" d="M615.221,1072.134a36,36,0,0,0,0,4.178c.09,1.511,1.618,3.534,1.834,4.034.544,1.255,1.157,1.459,1.157,1.459l4.746,1.163,1.669.409,5.262-1.572s2.4-6.69,1.434-10.456a28.948,28.948,0,0,0-2.433-6.381s-3.568-1.408-9.885-.357Z" transform="translate(-607.222 -1049.983)" fill="#aec3ff"/>
        <path id="Trazado_722482" data-name="Trazado 722482" d="M629.066,1173.011a14.77,14.77,0,0,0,.445,3.418c.544,1.255,1.157,1.459,1.157,1.459l4.746,1.163,2.061-.606s-6.881-1.043-6.119-6.963Z" transform="translate(-619.678 -1146.066)" fill="#f2ccaa"/>
        <path id="Trazado_722483" data-name="Trazado 722483" d="M678.231,1242.691s2.606,8.112,2.773,10.874-4.982,39.233-5.189,40.505c-.2,1.2-1.685,1.964-1.685,1.964a2.254,2.254,0,0,1-1.663.128,4.111,4.111,0,0,1-1.785-.842s-2.028-26.011-.773-35.3a147.161,147.161,0,0,0,1.27-17.327Z" transform="translate(-655.898 -1209.853)" fill="#233862"/>
        <path id="Trazado_722484" data-name="Trazado 722484" d="M566.474,1240.371s-3.975,5.334-4.346,8.939-.581,16.27-1.371,19.785-3.69,10.279-3.69,21.242a2.188,2.188,0,0,0,1.233.963,10.2,10.2,0,0,0,1.084.3,1.7,1.7,0,0,0,1.906-.9c1.961-3.949,8.208-16.684,8.529-19.328.227-1.871,2.2-14.253,6.5-21.519,1.033-1.744-.634-8.681-.634-8.681Z" transform="translate(-555.182 -1207.774)" fill="#2b478b"/>
        <path id="Trazado_722485" data-name="Trazado 722485" d="M653.949,1230.676a5.463,5.463,0,0,1-3.125.87c-2.482.05-8.634-.633-8.634-.633a5.083,5.083,0,0,0-.262,1.57s7.513,1.895,11.866.277A2.751,2.751,0,0,0,653.949,1230.676Z" transform="translate(-631.199 -1199.09)" fill="#233862"/>
        <g id="Grupo_958040" data-name="Grupo 958040" transform="translate(19.088 32.031)">
          <path id="Trazado_722486" data-name="Trazado 722486" d="M722.139,1236.224a1.141,1.141,0,1,1,1.133,1.282A1.216,1.216,0,0,1,722.139,1236.224Zm.375,0a.77.77,0,1,0,.757-.907A.843.843,0,0,0,722.514,1236.224Z" transform="translate(-722.139 -1234.942)" fill="#fff"/>
        </g>
        <path id="Trazado_722487" data-name="Trazado 722487" d="M571.376,1158.626l6.1,5.312a1.058,1.058,0,0,0,1.493-.1l7.785-8.94a1.058,1.058,0,0,0-.1-1.493l-6.1-5.312a1.058,1.058,0,0,0-1.493.1l-7.785,8.94A1.059,1.059,0,0,0,571.376,1158.626Z" transform="translate(-567.674 -1124.877)" fill="#f78248"/>
        <path id="Trazado_722488" data-name="Trazado 722488" d="M656.508,1244.992c.087.023,3.241.394,3.241,1.045a1.961,1.961,0,0,1-1.8,1.716,10.357,10.357,0,0,1-1.98-1.516Z" transform="translate(-643.781 -1211.914)" fill="#ffb27d"/>
        <path id="Trazado_722489" data-name="Trazado 722489" d="M675.835,1031.676a10.494,10.494,0,0,0,.562-3.836l.238.047,4.006.793s-.091,1.261-.094,2.449c0,.01,0,.02,0,.03,0,1.032.7,2.067-.958,2.476C679.079,1033.76,675.082,1033.5,675.835,1031.676Z" transform="translate(-661.488 -1017.392)" fill="#ffb27d"/>
        <path id="Trazado_722490" data-name="Trazado 722490" d="M688.335,1029.083s-.091,1.261-.094,2.449c-2.242-.063-3.427-2.108-3.912-3.242Z" transform="translate(-669.181 -1017.796)" fill="#e8945b"/>
        <path id="Trazado_722491" data-name="Trazado 722491" d="M683.819,969.76s-5.3.088-5.308-3.216-.691-5.518,2.7-5.714,4.046,1.065,4.315,2.167S685.2,969.653,683.819,969.76Z" transform="translate(-663.916 -957.348)" fill="#ffb27d"/>
        <path id="Trazado_722492" data-name="Trazado 722492" d="M668.963,954.455s-1.452,3.876-3.681,4.45-3.2-.024-3.2-.024a6.311,6.311,0,0,0,2.064-3.729S667.867,952.61,668.963,954.455Z" transform="translate(-649.256 -951.054)" fill="#163560"/>
        <path id="Trazado_722493" data-name="Trazado 722493" d="M724.618,957.814a3.291,3.291,0,0,1,1.52,1.188,5.34,5.34,0,0,1,.717,3.033s1.094-2.635-.135-4.125C725.416,956.33,724.618,957.814,724.618,957.814Z" transform="translate(-705.272 -954.098)" fill="#163560"/>
        <path id="Trazado_722494" data-name="Trazado 722494" d="M661.1,1243.4a3.607,3.607,0,0,1,1.261-.172c.505.071.879-.01.879.132s-.652.207-.791.275A6.863,6.863,0,0,1,661.1,1243.4Z" transform="translate(-648.378 -1210.324)" fill="#ffb27d"/>
        <path id="Trazado_722495" data-name="Trazado 722495" d="M571.341,1067.964a6.422,6.422,0,0,0-5.209,3.773c-1.443,3.509-4.182,9.4-4.182,10.391s1.53,4.046,9.745,5.8c0,0,.85-.894.8-1.6,0,0-5.128-4.4-5.114-4.92.026-.974.841-2.259,5.343-6.763C573.947,1073.422,571.341,1067.964,571.341,1067.964Z" transform="translate(-559.557 -1053.335)" fill="#aec3ff"/>
      </g>
      <g id="Grupo_958044" data-name="Grupo 958044" transform="translate(265.609 211.288)">
        <g id="Grupo_958043" data-name="Grupo 958043" transform="translate(0 0)">
          <path id="Trazado_722496" data-name="Trazado 722496" d="M1032.824,781.076H992.135a3.711,3.711,0,0,0-2.624,1.087L960.74,810.934a3.71,3.71,0,0,0-1.087,2.624v40.689a3.709,3.709,0,0,0,1.087,2.624l28.771,28.772a3.71,3.71,0,0,0,2.624,1.087h40.689a3.709,3.709,0,0,0,2.624-1.087l28.772-28.772a3.71,3.71,0,0,0,1.087-2.624V813.558a3.71,3.71,0,0,0-1.087-2.624l-28.772-28.772A3.709,3.709,0,0,0,1032.824,781.076Z" transform="translate(-959.653 -781.076)" fill="#f78248"/>
          <g id="Grupo_958042" data-name="Grupo 958042" transform="translate(5.289 5.289)">
            <path id="Trazado_722497" data-name="Trazado 722497" d="M1075.423,926.9h-34.964a5.3,5.3,0,0,1-3.77-1.561l-24.723-24.724a5.3,5.3,0,0,1-1.562-3.77V861.88a5.3,5.3,0,0,1,1.562-3.77l24.723-24.723a5.3,5.3,0,0,1,3.77-1.562h34.964a5.3,5.3,0,0,1,3.77,1.562l24.724,24.723a5.3,5.3,0,0,1,1.562,3.77v34.964a5.3,5.3,0,0,1-1.562,3.77l-24.724,24.724A5.3,5.3,0,0,1,1075.423,926.9Zm-34.964-91.45a1.7,1.7,0,0,0-1.207.5l-24.723,24.723a1.7,1.7,0,0,0-.5,1.206v34.964a1.7,1.7,0,0,0,.5,1.206l24.723,24.724a1.7,1.7,0,0,0,1.207.5h34.964a1.7,1.7,0,0,0,1.207-.5l24.723-24.723a1.7,1.7,0,0,0,.5-1.207V861.88a1.7,1.7,0,0,0-.5-1.206l-24.723-24.724a1.7,1.7,0,0,0-1.207-.5Z" transform="translate(-1010.403 -831.825)" fill="#ffe5d4"/>
          </g>
          <path id="Trazado_722498" data-name="Trazado 722498" d="M1334.97,1012.238l-.712-.617a4.317,4.317,0,0,0-6.071.437l-4.023,4.647a.949.949,0,0,1-1.666-.621h0a10.3,10.3,0,0,0-.058-1.091V985.739a3.5,3.5,0,0,0-3.493-3.493h-.258a3.5,3.5,0,0,0-3.493,3.493v19.04a.836.836,0,0,1-.837.836h0a.924.924,0,0,1-.923-.924V982.05a3.386,3.386,0,0,0-3.376-3.376h-.492a3.386,3.386,0,0,0-3.376,3.376v22.791a.775.775,0,0,1-.775.774h0a.986.986,0,0,1-.986-.986V986.461a3.5,3.5,0,0,0-3.493-3.493h-.258a3.5,3.5,0,0,0-3.493,3.493v18.316a.838.838,0,0,1-.838.838h0a.922.922,0,0,1-.922-.922v-14.33a3.5,3.5,0,0,0-3.493-3.493h-.258a3.5,3.5,0,0,0-3.493,3.493v25.16c0,.07,0,.139.007.208,0,.117-.007.234-.007.352v13.849a10.264,10.264,0,0,0,10.234,10.234h13.849a10.248,10.248,0,0,0,8.607-4.715,21.633,21.633,0,0,1,1.814-2.449l12.722-14.694A4.316,4.316,0,0,0,1334.97,1012.238Z" transform="translate(-1253.943 -958.081)" fill="#ffe5d4"/>
        </g>
      </g>
    </g>
    <g id="Grupo_958438" data-name="Grupo 958438" transform="translate(-65 -317)">
      <g transform="matrix(1, 0, 0, 1, 901, 8500)" filter="url(#Rectángulo_340046)">
        <rect id="Rectángulo_340046-2" data-name="Rectángulo 340046" width="240" height="117" rx="20" transform="translate(9 6)" fill="#fff"/>
      </g>
      <path id="Trazado_725279" data-name="Trazado 725279" d="M63.816,17H62.309L56.582,8.234V17H55.074V5.625h1.508l5.742,8.8v-8.8h1.492Zm4.164-4.453V17h-1.5V5.625h4.2a4.215,4.215,0,0,1,2.926.953A3.231,3.231,0,0,1,74.66,9.1a3.189,3.189,0,0,1-1.035,2.551,4.4,4.4,0,0,1-2.965.895Zm0-1.227h2.7a2.7,2.7,0,0,0,1.844-.567,2.075,2.075,0,0,0,.641-1.64,2.143,2.143,0,0,0-.641-1.628,2.525,2.525,0,0,0-1.758-.634H67.98Zm14.977-.68H76.441V9.383h6.516Zm0,3.242H76.441v-1.25h6.516ZM98.059,17H96.551L90.824,8.234V17H89.316V5.625h1.508l5.742,8.8v-8.8h1.492Zm2.664,0V5.625h3.211a5.169,5.169,0,0,1,2.625.656,4.438,4.438,0,0,1,1.762,1.867,6.078,6.078,0,0,1,.629,2.781v.727a6.1,6.1,0,0,1-.621,2.82,4.369,4.369,0,0,1-1.773,1.859,5.5,5.5,0,0,1-2.684.664Zm1.5-10.148v8.922H103.8a3.434,3.434,0,0,0,2.7-1.079,4.458,4.458,0,0,0,.965-3.073v-.665a4.529,4.529,0,0,0-.91-3.014,3.239,3.239,0,0,0-2.582-1.091Zm15.563,4.781,1.875-3.086h1.688l-2.766,4.18L121.434,17h-1.672l-1.953-3.164L115.855,17h-1.68l2.852-4.273-2.766-4.18h1.672ZM135.809,17H134.3l-5.727-8.766V17h-1.508V5.625h1.508l5.742,8.8v-8.8h1.492Zm9.094-5.258h-4.93v4.031H145.7V17h-7.227V5.625h7.148V6.852h-5.648v3.664h4.93ZM21.91,41H20.4l-5.727-8.766V41H13.168V29.625h1.508l5.742,8.8v-8.8H21.91Zm2.664,0V29.625h3.211a5.169,5.169,0,0,1,2.625.656,4.438,4.438,0,0,1,1.762,1.867A6.078,6.078,0,0,1,32.8,34.93v.727a6.1,6.1,0,0,1-.621,2.82,4.369,4.369,0,0,1-1.773,1.859A5.5,5.5,0,0,1,27.723,41Zm1.5-10.148v8.922h1.578a3.434,3.434,0,0,0,2.7-1.079,4.458,4.458,0,0,0,.965-3.073v-.665a4.529,4.529,0,0,0-.91-3.014,3.239,3.239,0,0,0-2.582-1.091ZM45.41,34.641H38.895V33.383H45.41Zm0,3.242H38.895v-1.25H45.41ZM60.512,41H59l-5.727-8.766V41H51.77V29.625h1.508l5.742,8.8v-8.8h1.492Zm4.008,0H63.074V32.547H64.52ZM62.957,30.3a.863.863,0,0,1,.215-.594.807.807,0,0,1,.637-.242.819.819,0,0,1,.641.242.854.854,0,0,1,.219.594.826.826,0,0,1-.219.586.834.834,0,0,1-.641.234.821.821,0,0,1-.637-.234A.834.834,0,0,1,62.957,30.3Zm6.664,8.734,2.094-6.492h1.477L70.16,41h-1.1L66,32.547h1.477Zm8.469,2.117a3.693,3.693,0,0,1-2.8-1.129,4.19,4.19,0,0,1-1.078-3.02v-.266A5.073,5.073,0,0,1,74.7,34.5a3.748,3.748,0,0,1,1.344-1.547,3.378,3.378,0,0,1,1.871-.559,3.166,3.166,0,0,1,2.563,1.086,4.7,4.7,0,0,1,.914,3.109v.6H75.66a3,3,0,0,0,.73,2.02,2.3,2.3,0,0,0,1.777.77,2.517,2.517,0,0,0,1.3-.312,3.259,3.259,0,0,0,.93-.828l.883.688A3.55,3.55,0,0,1,78.09,41.156Zm-.18-7.578a1.928,1.928,0,0,0-1.469.637A3.1,3.1,0,0,0,75.707,36h4.234v-.109a2.753,2.753,0,0,0-.594-1.707A1.815,1.815,0,0,0,77.91,33.578ZM84.629,41H83.184V29h1.445Zm5.922-4.3a4.952,4.952,0,0,1,.922-3.129,3.137,3.137,0,0,1,4.766-.168V29h1.445V41H96.355l-.07-.906a2.943,2.943,0,0,1-2.414,1.063,2.887,2.887,0,0,1-2.395-1.2,5.008,5.008,0,0,1-.926-3.141ZM92,36.867a3.749,3.749,0,0,0,.594,2.25,1.92,1.92,0,0,0,1.641.813A2.108,2.108,0,0,0,96.238,38.7V34.813a2.125,2.125,0,0,0-1.992-1.2,1.929,1.929,0,0,0-1.656.82A4.128,4.128,0,0,0,92,36.867Zm11.438,4.289a3.693,3.693,0,0,1-2.8-1.129,4.19,4.19,0,0,1-1.078-3.02v-.266a5.073,5.073,0,0,1,.48-2.246,3.748,3.748,0,0,1,1.344-1.547,3.378,3.378,0,0,1,1.871-.559,3.166,3.166,0,0,1,2.563,1.086,4.7,4.7,0,0,1,.914,3.109v.6H101a3,3,0,0,0,.73,2.02,2.3,2.3,0,0,0,1.777.77,2.517,2.517,0,0,0,1.3-.312,3.259,3.259,0,0,0,.93-.828l.883.688A3.55,3.55,0,0,1,103.434,41.156Zm-.18-7.578a1.928,1.928,0,0,0-1.469.637A3.1,3.1,0,0,0,101.051,36h4.234v-.109a2.753,2.753,0,0,0-.594-1.707A1.815,1.815,0,0,0,103.254,33.578Zm8.758,3.125a4.952,4.952,0,0,1,.922-3.129,3.137,3.137,0,0,1,4.766-.168V29h1.445V41h-1.328l-.07-.906a2.943,2.943,0,0,1-2.414,1.063,2.887,2.887,0,0,1-2.395-1.2,5.008,5.008,0,0,1-.926-3.141Zm1.445.164a3.749,3.749,0,0,0,.594,2.25,1.92,1.92,0,0,0,1.641.813A2.108,2.108,0,0,0,117.7,38.7V34.813a2.125,2.125,0,0,0-1.992-1.2,1.929,1.929,0,0,0-1.656.82A4.128,4.128,0,0,0,113.457,36.867Zm11.438,4.289a3.693,3.693,0,0,1-2.8-1.129,4.19,4.19,0,0,1-1.078-3.02v-.266a5.073,5.073,0,0,1,.48-2.246,3.748,3.748,0,0,1,1.344-1.547,3.378,3.378,0,0,1,1.871-.559,3.166,3.166,0,0,1,2.563,1.086,4.7,4.7,0,0,1,.914,3.109v.6h-5.727a3,3,0,0,0,.73,2.02,2.3,2.3,0,0,0,1.777.77,2.517,2.517,0,0,0,1.3-.312,3.259,3.259,0,0,0,.93-.828l.883.688A3.55,3.55,0,0,1,124.895,41.156Zm-.18-7.578a1.928,1.928,0,0,0-1.469.637A3.1,3.1,0,0,0,122.512,36h4.234v-.109a2.753,2.753,0,0,0-.594-1.707A1.815,1.815,0,0,0,124.715,33.578ZM130.348,41V33.664h-1.336V32.547h1.336v-.719a2.937,2.937,0,0,1,.809-2.2,3.136,3.136,0,0,1,2.285-.789,6.881,6.881,0,0,1,2.211.477l-.242,1.219a5.008,5.008,0,0,0-1.859-.391,1.819,1.819,0,0,0-1.34.418,1.723,1.723,0,0,0-.41,1.254v.734h1.727v1.117H131.8V41Zm6.023,0h-1.453V32.547h1.453Zm5.742-1.023a2.082,2.082,0,0,0,1.352-.469,1.649,1.649,0,0,0,.641-1.172h1.367a2.621,2.621,0,0,1-.5,1.383,3.293,3.293,0,0,1-1.23,1.047,3.55,3.55,0,0,1-1.629.391A3.482,3.482,0,0,1,139.367,40a4.59,4.59,0,0,1-1.02-3.152v-.242a5.089,5.089,0,0,1,.453-2.2,3.451,3.451,0,0,1,1.3-1.492,3.7,3.7,0,0,1,2-.531,3.39,3.39,0,0,1,2.363.852,3.043,3.043,0,0,1,1,2.211h-1.367a1.992,1.992,0,0,0-.621-1.348,1.932,1.932,0,0,0-1.379-.527,2.023,2.023,0,0,0-1.707.793,3.724,3.724,0,0,0-.605,2.293v.273a3.65,3.65,0,0,0,.6,2.25A2.033,2.033,0,0,0,142.113,39.977ZM148.668,41h-1.445V32.547h1.445Zm-1.562-10.7a.863.863,0,0,1,.215-.594.807.807,0,0,1,.637-.242.819.819,0,0,1,.641.242.854.854,0,0,1,.219.594.826.826,0,0,1-.219.586.834.834,0,0,1-.641.234.821.821,0,0,1-.637-.234A.834.834,0,0,1,147.105,30.3Zm7.383,10.852a3.693,3.693,0,0,1-2.8-1.129,4.19,4.19,0,0,1-1.078-3.02v-.266a5.073,5.073,0,0,1,.48-2.246,3.748,3.748,0,0,1,1.344-1.547,3.378,3.378,0,0,1,1.871-.559,3.166,3.166,0,0,1,2.563,1.086,4.7,4.7,0,0,1,.914,3.109v.6h-5.727a3,3,0,0,0,.73,2.02,2.3,2.3,0,0,0,1.777.77,2.517,2.517,0,0,0,1.3-.312,3.258,3.258,0,0,0,.93-.828l.883.688A3.55,3.55,0,0,1,154.488,41.156Zm-.18-7.578a1.928,1.928,0,0,0-1.469.637A3.1,3.1,0,0,0,152.105,36h4.234v-.109a2.753,2.753,0,0,0-.594-1.707A1.815,1.815,0,0,0,154.309,33.578Zm6.516-1.031.047,1.063a3.08,3.08,0,0,1,2.531-1.219q2.68,0,2.7,3.023V41H164.66V35.406a1.946,1.946,0,0,0-.418-1.352,1.675,1.675,0,0,0-1.277-.437,2.086,2.086,0,0,0-1.234.375,2.546,2.546,0,0,0-.828.984V41h-1.445V32.547Zm10.852,7.43a2.082,2.082,0,0,0,1.352-.469,1.649,1.649,0,0,0,.641-1.172h1.367a2.621,2.621,0,0,1-.5,1.383,3.293,3.293,0,0,1-1.23,1.047,3.55,3.55,0,0,1-1.629.391A3.482,3.482,0,0,1,168.93,40a4.59,4.59,0,0,1-1.02-3.152v-.242a5.089,5.089,0,0,1,.453-2.2,3.451,3.451,0,0,1,1.3-1.492,3.7,3.7,0,0,1,2-.531,3.39,3.39,0,0,1,2.363.852,3.043,3.043,0,0,1,1,2.211h-1.367a1.992,1.992,0,0,0-.621-1.348,1.932,1.932,0,0,0-1.379-.527,2.023,2.023,0,0,0-1.707.793,3.724,3.724,0,0,0-.605,2.293v.273a3.65,3.65,0,0,0,.6,2.25A2.033,2.033,0,0,0,171.676,39.977ZM178.23,41h-1.445V32.547h1.445Zm-1.562-10.7a.863.863,0,0,1,.215-.594.807.807,0,0,1,.637-.242.819.819,0,0,1,.641.242.854.854,0,0,1,.219.594.826.826,0,0,1-.219.586.834.834,0,0,1-.641.234.821.821,0,0,1-.637-.234A.834.834,0,0,1,176.668,30.3ZM185.762,41a3.036,3.036,0,0,1-.2-.891,3.225,3.225,0,0,1-2.406,1.047,2.984,2.984,0,0,1-2.051-.707,2.287,2.287,0,0,1-.8-1.793,2.39,2.39,0,0,1,1-2.051,4.733,4.733,0,0,1,2.824-.73h1.406v-.664A1.623,1.623,0,0,0,185.082,34a1.821,1.821,0,0,0-1.336-.449,2.107,2.107,0,0,0-1.3.391,1.151,1.151,0,0,0-.523.945h-1.453a2,2,0,0,1,.449-1.223,3.066,3.066,0,0,1,1.219-.934,4.1,4.1,0,0,1,1.691-.344,3.342,3.342,0,0,1,2.289.73,2.635,2.635,0,0,1,.859,2.012v3.891a4.757,4.757,0,0,0,.3,1.852V41Zm-2.4-1.1a2.54,2.54,0,0,0,1.289-.352,2.127,2.127,0,0,0,.883-.914V36.9H184.4q-2.656,0-2.656,1.555a1.316,1.316,0,0,0,.453,1.063A1.742,1.742,0,0,0,183.363,39.9ZM22.625,65H21.117l-5.727-8.766V65H13.883V53.625h1.508l5.742,8.8v-8.8h1.492Zm9.094-5.258h-4.93v4.031h5.727V65H25.289V53.625h7.148v1.227H26.789v3.664h4.93Zm13.008-1.1H38.211V57.383h6.516Zm0,3.242H38.211v-1.25h6.516ZM59.828,65H58.32l-5.727-8.766V65H51.086V53.625h1.508l5.742,8.8v-8.8h1.492Zm4.008,0H62.391V56.547h1.445ZM62.273,54.3a.863.863,0,0,1,.215-.594.807.807,0,0,1,.637-.242.819.819,0,0,1,.641.242.854.854,0,0,1,.219.594.826.826,0,0,1-.219.586.834.834,0,0,1-.641.234.821.821,0,0,1-.637-.234A.834.834,0,0,1,62.273,54.3Zm6.664,8.734,2.094-6.492h1.477L69.477,65h-1.1l-3.062-8.453h1.477Zm8.469,2.117a3.693,3.693,0,0,1-2.8-1.129,4.19,4.19,0,0,1-1.078-3.02v-.266a5.073,5.073,0,0,1,.48-2.246,3.748,3.748,0,0,1,1.344-1.547,3.378,3.378,0,0,1,1.871-.559,3.166,3.166,0,0,1,2.563,1.086,4.7,4.7,0,0,1,.914,3.109v.6H74.977a3,3,0,0,0,.73,2.02,2.3,2.3,0,0,0,1.777.77,2.517,2.517,0,0,0,1.3-.312,3.259,3.259,0,0,0,.93-.828l.883.688A3.55,3.55,0,0,1,77.406,65.156Zm-.18-7.578a1.928,1.928,0,0,0-1.469.637A3.1,3.1,0,0,0,75.023,60h4.234v-.109a2.753,2.753,0,0,0-.594-1.707A1.815,1.815,0,0,0,77.227,57.578ZM83.945,65H82.5V53h1.445Zm5.922-4.3a4.952,4.952,0,0,1,.922-3.129,3.137,3.137,0,0,1,4.766-.168V53H97V65H95.672l-.07-.906a2.943,2.943,0,0,1-2.414,1.063,2.887,2.887,0,0,1-2.395-1.2,5.008,5.008,0,0,1-.926-3.141Zm1.445.164a3.749,3.749,0,0,0,.594,2.25,1.92,1.92,0,0,0,1.641.813A2.108,2.108,0,0,0,95.555,62.7V58.813a2.125,2.125,0,0,0-1.992-1.2,1.929,1.929,0,0,0-1.656.82A4.128,4.128,0,0,0,91.313,60.867Zm11.438,4.289a3.693,3.693,0,0,1-2.8-1.129,4.19,4.19,0,0,1-1.078-3.02v-.266a5.073,5.073,0,0,1,.48-2.246,3.748,3.748,0,0,1,1.344-1.547,3.378,3.378,0,0,1,1.871-.559,3.166,3.166,0,0,1,2.563,1.086,4.7,4.7,0,0,1,.914,3.109v.6H100.32a3,3,0,0,0,.73,2.02,2.3,2.3,0,0,0,1.777.77,2.517,2.517,0,0,0,1.3-.312,3.259,3.259,0,0,0,.93-.828l.883.688A3.55,3.55,0,0,1,102.75,65.156Zm-.18-7.578a1.928,1.928,0,0,0-1.469.637A3.1,3.1,0,0,0,100.367,60H104.6v-.109a2.753,2.753,0,0,0-.594-1.707A1.815,1.815,0,0,0,102.57,57.578Zm12.617,7.578a3.693,3.693,0,0,1-2.8-1.129,4.19,4.19,0,0,1-1.078-3.02v-.266a5.073,5.073,0,0,1,.48-2.246,3.748,3.748,0,0,1,1.344-1.547,3.378,3.378,0,0,1,1.871-.559,3.166,3.166,0,0,1,2.563,1.086,4.7,4.7,0,0,1,.914,3.109v.6h-5.727a3,3,0,0,0,.73,2.02,2.3,2.3,0,0,0,1.777.77,2.517,2.517,0,0,0,1.3-.312,3.259,3.259,0,0,0,.93-.828l.883.688A3.55,3.55,0,0,1,115.188,65.156Zm-.18-7.578a1.928,1.928,0,0,0-1.469.637A3.1,3.1,0,0,0,112.8,60h4.234v-.109a2.753,2.753,0,0,0-.594-1.707A1.815,1.815,0,0,0,115.008,57.578Zm7.984,2.055,1.875-3.086h1.688l-2.766,4.18L126.641,65h-1.672l-1.953-3.164L121.063,65h-1.68l2.852-4.273-2.766-4.18h1.672Zm12.234,1.234a5.062,5.062,0,0,1-.883,3.109,2.829,2.829,0,0,1-2.391,1.18,3.1,3.1,0,0,1-2.422-.977v4.07h-1.445v-11.7h1.32l.07.938a2.977,2.977,0,0,1,2.453-1.094,2.882,2.882,0,0,1,2.41,1.148,5.117,5.117,0,0,1,.887,3.2Zm-1.445-.164a3.735,3.735,0,0,0-.609-2.258,1.963,1.963,0,0,0-1.672-.828,2.125,2.125,0,0,0-1.969,1.164V62.82a2.129,2.129,0,0,0,1.984,1.156,1.954,1.954,0,0,0,1.652-.824A4.077,4.077,0,0,0,133.781,60.7Zm2.9-.008a4.993,4.993,0,0,1,.488-2.234,3.642,3.642,0,0,1,1.359-1.531,3.7,3.7,0,0,1,1.988-.539,3.565,3.565,0,0,1,2.793,1.2,4.6,4.6,0,0,1,1.066,3.18v.1a5.036,5.036,0,0,1-.473,2.215,3.589,3.589,0,0,1-1.352,1.527,3.743,3.743,0,0,1-2.02.547,3.556,3.556,0,0,1-2.785-1.2A4.575,4.575,0,0,1,136.68,60.8Zm1.453.172a3.616,3.616,0,0,0,.652,2.258,2.211,2.211,0,0,0,3.5-.012,3.954,3.954,0,0,0,.648-2.418,3.61,3.61,0,0,0-.66-2.254,2.1,2.1,0,0,0-1.754-.863,2.075,2.075,0,0,0-1.727.852A3.925,3.925,0,0,0,138.133,60.867Zm12.977,1.891a1.064,1.064,0,0,0-.441-.91,4.249,4.249,0,0,0-1.539-.559,7.277,7.277,0,0,1-1.742-.562,2.479,2.479,0,0,1-.953-.781,1.869,1.869,0,0,1-.309-1.078A2.193,2.193,0,0,1,147,57.109a3.432,3.432,0,0,1,2.246-.719,3.532,3.532,0,0,1,2.332.742,2.357,2.357,0,0,1,.895,1.9h-1.453a1.3,1.3,0,0,0-.5-1.023,1.888,1.888,0,0,0-1.27-.43,1.976,1.976,0,0,0-1.234.344,1.082,1.082,0,0,0-.445.9.877.877,0,0,0,.414.789,5.1,5.1,0,0,0,1.5.508,7.8,7.8,0,0,1,1.754.578,2.558,2.558,0,0,1,1,.809,1.988,1.988,0,0,1,.324,1.152,2.163,2.163,0,0,1-.906,1.816,3.8,3.8,0,0,1-2.352.684,4.257,4.257,0,0,1-1.8-.359,2.922,2.922,0,0,1-1.223-1,2.42,2.42,0,0,1-.441-1.395h1.445a1.5,1.5,0,0,0,.582,1.152,2.258,2.258,0,0,0,1.434.426,2.331,2.331,0,0,0,1.316-.332A1.02,1.02,0,0,0,151.109,62.758Zm4.9,2.242h-1.445V56.547h1.445Zm-1.562-10.7a.863.863,0,0,1,.215-.594.807.807,0,0,1,.637-.242.819.819,0,0,1,.641.242.854.854,0,0,1,.219.594.826.826,0,0,1-.219.586.834.834,0,0,1-.641.234.821.821,0,0,1-.637-.234A.834.834,0,0,1,154.445,54.3Zm7.266,9.672a2.082,2.082,0,0,0,1.352-.469,1.649,1.649,0,0,0,.641-1.172h1.367a2.621,2.621,0,0,1-.5,1.383,3.293,3.293,0,0,1-1.23,1.047,3.55,3.55,0,0,1-1.629.391A3.482,3.482,0,0,1,158.965,64a4.59,4.59,0,0,1-1.02-3.152v-.242a5.089,5.089,0,0,1,.453-2.2,3.451,3.451,0,0,1,1.3-1.492,3.7,3.7,0,0,1,2-.531,3.39,3.39,0,0,1,2.363.852,3.043,3.043,0,0,1,1,2.211H163.7a1.992,1.992,0,0,0-.621-1.348,1.932,1.932,0,0,0-1.379-.527,2.023,2.023,0,0,0-1.707.793,3.724,3.724,0,0,0-.605,2.293v.273a3.65,3.65,0,0,0,.6,2.25A2.033,2.033,0,0,0,161.711,63.977ZM168.266,65H166.82V56.547h1.445ZM166.7,54.3a.863.863,0,0,1,.215-.594.807.807,0,0,1,.637-.242.819.819,0,0,1,.641.242.854.854,0,0,1,.219.594.826.826,0,0,1-.219.586.834.834,0,0,1-.641.234.821.821,0,0,1-.637-.234A.834.834,0,0,1,166.7,54.3ZM170.2,60.7a4.993,4.993,0,0,1,.488-2.234,3.642,3.642,0,0,1,1.359-1.531,3.7,3.7,0,0,1,1.988-.539,3.565,3.565,0,0,1,2.793,1.2,4.6,4.6,0,0,1,1.066,3.18v.1a5.036,5.036,0,0,1-.473,2.215,3.589,3.589,0,0,1-1.352,1.527,3.743,3.743,0,0,1-2.02.547,3.556,3.556,0,0,1-2.785-1.2A4.575,4.575,0,0,1,170.2,60.8Zm1.453.172a3.616,3.616,0,0,0,.652,2.258,2.211,2.211,0,0,0,3.5-.012,3.954,3.954,0,0,0,.648-2.418,3.61,3.61,0,0,0-.66-2.254,2.1,2.1,0,0,0-1.754-.863,2.075,2.075,0,0,0-1.727.852A3.925,3.925,0,0,0,171.648,60.867ZM174.688,53h1.75l-2.094,2.3-1.164,0Zm6.383,3.547.047,1.063a3.08,3.08,0,0,1,2.531-1.219q2.68,0,2.7,3.023V65h-1.445V59.406a1.946,1.946,0,0,0-.418-1.352,1.675,1.675,0,0,0-1.277-.437,2.086,2.086,0,0,0-1.234.375,2.546,2.546,0,0,0-.828.984V65H179.7V56.547Z" transform="translate(930 8529)" fill="#12263f"/>
    </g>
  </g>
</svg>
