<svg xmlns="http://www.w3.org/2000/svg" xmlns:xlink="http://www.w3.org/1999/xlink" width="167.568" height="212.079" viewBox="0 0 167.568 212.079">
  <defs>
    <clipPath id="clip-path">
      <rect id="Rectángulo_3913" data-name="Rectángulo 3913" width="167.568" height="212.079" fill="none"/>
    </clipPath>
    <clipPath id="clip-path-2">
      <path id="Trazado_31976" data-name="Trazado 31976" d="M82.665,73.621a8.641,8.641,0,0,0-3.737,1.8,18.651,18.651,0,0,1-2.134,2.512c-.894.636-3.269,2.046-3.269,2.046a14.786,14.786,0,0,1,3.063,4.353l.774-.224s-.018,2.735-.07,4.231-1.084,5.5-1.255,6.537-.275,2.065-.275,2.065,1.462,3.526,4.059,4.145a26.292,26.292,0,0,0,7.208.74c1.308-.172,3.922-2.288,3.922-2.288s-.687-3.165-.36-4.231,1.995-5.161,2.545-6.537,2.546-7.81,2.684-8.7,0-1.049,0-1.049A33.618,33.618,0,0,0,92,75.83c-1.272-.757-2.287-1.5-2.287-1.5a6.713,6.713,0,0,0-3.057-.865s-.589-.043-1.393-.043a15.055,15.055,0,0,0-2.6.2" transform="translate(-73.525 -73.425)" fill="none"/>
    </clipPath>
  </defs>
  <g id="Grupo_16956" data-name="Grupo 16956" transform="translate(0)">
    <g id="Grupo_16951" data-name="Grupo 16951" transform="translate(0)">
      <g id="Grupo_16950" data-name="Grupo 16950" clip-path="url(#clip-path)">
        <path id="Trazado_31964" data-name="Trazado 31964" d="M92.169,187.676c5.018,2.9,5.018,7.595,0,10.493s-13.155,2.9-18.173,0-5.019-7.6,0-10.493,13.155-2.9,18.173,0" transform="translate(-3.104 -8.198)" fill="#e3dbda"/>
        <path id="Trazado_31965" data-name="Trazado 31965" d="M64.6,102.88l-1.759-.1a4.3,4.3,0,0,1,.141-.859c.264-1,1.43-2.893,8.479-7.727,3.967-2.719,7.895-5.053,8.395-5.322l.834,1.55c-.485.261-4.323,2.543-8.233,5.224-6.8,4.66-7.666,6.323-7.772,6.721a2.647,2.647,0,0,0-.085.508" transform="translate(-2.777 -3.928)" fill="#855e5e"/>
        <path id="Trazado_31966" data-name="Trazado 31966" d="M60.552,143.179c.192-.208.4-.411.616-.605.431-.39.879-.749,1.315-1.08s.86-.635,1.256-.909c.794-.549,1.475-.984,1.952-1.282.24-.149.428-.265.556-.341l.193-.116-1.15-1.795-.2.142c-.13.091-.317.226-.554.4-.474.346-1.144.846-1.929,1.478-.392.315-.812.664-1.249,1.049s-.89.8-1.341,1.276c-.208.22-.417.45-.619.7l1.084,1.161.073-.079" transform="translate(-2.625 -6.057)" fill="#58706c"/>
        <path id="Trazado_31967" data-name="Trazado 31967" d="M73.817,80.281s-2.236,1.675-2.729,2.132a3.911,3.911,0,0,1-1.732,1.181c-.975.333-3.5,1.709-3.842,1.835s-1.089-.126-1.732,0-.4.238-.431.238a3.773,3.773,0,0,0-.573,1.388,7.855,7.855,0,0,0,.114,2.167,1.216,1.216,0,0,0,.436.689,1.917,1.917,0,0,0,1.063-.411,2.149,2.149,0,0,0,.883-.974s2.419-.379,3.692-.711A9.662,9.662,0,0,0,71.7,86.737a36.161,36.161,0,0,1,3.338-1.686c.631-.264,1.514-.648,1.514-.648s-.677-2.677-.768-2.884-1.2-1.64-1.961-1.239" transform="translate(-2.773 -3.545)" fill="#ffad91"/>
        <path id="Trazado_31968" data-name="Trazado 31968" d="M66.862,136.727a21.721,21.721,0,0,0-3.3,1.434,8.684,8.684,0,0,0-2.27,2.317,1.814,1.814,0,0,0-.069,1.249c0,.035.057.963,2.615.929a5.929,5.929,0,0,0,4.243-1.4c.619-.529,1.4-1.181,1.4-1.181l.378.356a6.3,6.3,0,0,0,2.236-.739c.459-.454.39-2.106.39-2.106s.3-1.72-.94-1.812-4.175.206-4.68.952" transform="translate(-2.702 -6)" fill="#47423f"/>
        <path id="Trazado_31969" data-name="Trazado 31969" d="M79.346,144.216s-2.873,2.529-3.406,3.234a5,5,0,0,0-.705,2.7,4.276,4.276,0,0,0,3.423.688,6.564,6.564,0,0,0,3.613-1.462c.55-.637,1.341-1.634,1.341-1.634l.414.189a14.753,14.753,0,0,0,1.53-1.272,16.339,16.339,0,0,0,0-2.908s-5.522-.344-6.21.465" transform="translate(-3.324 -6.35)" fill="#47423f"/>
        <path id="Trazado_31970" data-name="Trazado 31970" d="M75.613,97.941a6.267,6.267,0,0,1-.414,2.248c-.435,1.008-2.844,3.325-3.646,4.5s-4.308,6.491-5.225,8.257-2.224,5.344-2.155,7.018.458,7.178.481,8.44.161,3.533.138,4.473a14.374,14.374,0,0,0,.275,2.431s-.739.85,1.142,1.353a7.435,7.435,0,0,0,3.785.229c.413-.184,2.039.96,2.107-.279s-.367-5.183-.367-6.651.023-5.252.047-6.1a14.592,14.592,0,0,0-.391-2.592s3.536-6.028,4.8-7.679,6.123-7.638,6.123-7.638l.5-3.923-3.165-2.668s-3.005-2.011-4.036-1.415" transform="translate(-2.836 -4.324)" fill="#eb4f46"/>
        <path id="Trazado_31971" data-name="Trazado 31971" d="M90.522,100.368a26.849,26.849,0,0,1-.528,6.353c-.642,2.866-2.432,10.368-2.73,11.766s-.871,5.826-1.031,6.261.527,2.707.664,3.946a16.849,16.849,0,0,1-.32,5,25.786,25.786,0,0,0-.369,4.633c-.045.757-.024,2.776,0,3.464a11.151,11.151,0,0,1-.159,1.766,7.446,7.446,0,0,1-1.766.71c-.895.207-1.766-.688-2.638-.917a18.5,18.5,0,0,1-2.362-.94,4.759,4.759,0,0,1,.228-2.11,45.683,45.683,0,0,0,.85-7.041c-.024-1.216-.734-3.325-.619-4.426s.161-5.55.482-7.546.94-10.115.985-11.193a8.664,8.664,0,0,0-.55-3.945,6.49,6.49,0,0,1-.78-4.931c.573-2.087,9.243-2.661,10.642-.849" transform="translate(-3.503 -4.388)" fill="#eb4f46"/>
        <path id="Trazado_31972" data-name="Trazado 31972" d="M86.657,73.467a19.091,19.091,0,0,0-3.991.154,8.646,8.646,0,0,0-3.738,1.8,18.766,18.766,0,0,1-2.133,2.511c-.894.637-3.268,2.047-3.268,2.047a14.8,14.8,0,0,1,3.061,4.352l.774-.224s-.017,2.736-.069,4.232-1.084,5.5-1.256,6.537-.274,2.065-.274,2.065,1.461,3.526,4.059,4.145a26.288,26.288,0,0,0,7.208.74c1.307-.172,3.922-2.288,3.922-2.288s-.688-3.166-.361-4.231,2-5.161,2.546-6.537,2.545-7.81,2.683-8.7,0-1.049,0-1.049A33.6,33.6,0,0,0,92,75.83c-1.273-.757-2.288-1.5-2.288-1.5a6.717,6.717,0,0,0-3.056-.866" transform="translate(-3.25 -3.245)" fill="#eb4f46"/>
      </g>
    </g>
    <g id="Grupo_16953" data-name="Grupo 16953" transform="translate(70.276 70.18)">
      <g id="Grupo_16952" data-name="Grupo 16952" clip-path="url(#clip-path-2)">
        <path id="Trazado_31973" data-name="Trazado 31973" d="M83.264,73.342,82.51,87.781,93.159,75.333l1.118-2.9s-7.658-2.487-11.013.914" transform="translate(-73.922 -73.342)" fill="#e6ddcd"/>
        <path id="Trazado_31974" data-name="Trazado 31974" d="M94.835,76.918s-5.111,4.886-7.2,8.095.5,7.476,4.871,6.492,8.059-6.929,8.387-9.992-3.646-5-6.053-4.595" transform="translate(-74.116 -73.577)" fill="#e6ddcd"/>
        <path id="Trazado_31975" data-name="Trazado 31975" d="M81.18,73.291s-.128,11.443-1.252,12.848c-1.662,2.079-3.683,2.479-4.558,2.3s-3.938-6.892-3.683-9.591,8.071-6.467,9.493-5.555" transform="translate(-73.443 -73.413)" fill="#e6ddcd"/>
      </g>
    </g>
    <g id="Grupo_16955" data-name="Grupo 16955" transform="translate(0)">
      <g id="Grupo_16954" data-name="Grupo 16954" clip-path="url(#clip-path)">
        <path id="Trazado_31977" data-name="Trazado 31977" d="M85.334,72.885a2.049,2.049,0,0,1-.057.746,5.691,5.691,0,0,0-1.055,1.434,2.173,2.173,0,0,0,1.032,2.74,3.762,3.762,0,0,0,3.819,0,11.4,11.4,0,0,0,2.591-2.144s-.654-.367-.688-.837a18.751,18.751,0,0,1,1.612-3.292s-.3-1.261-.913-1.146-6.342,2.5-6.342,2.5" transform="translate(-3.716 -3.11)" fill="#ed967e"/>
        <path id="Trazado_31978" data-name="Trazado 31978" d="M84.549,71.981s.077-.439.172-.816.095-1.085.172-1.376a11.572,11.572,0,0,1,.3-1.695,10.538,10.538,0,0,0,.766-1.376,4.067,4.067,0,0,1,.5-1.2c.206-.284,1.1-2.073,2.451-2.563a5.208,5.208,0,0,1,4.576.464c1.187.93,1.763,1.841,1.685,2.942a9.525,9.525,0,0,1-1.1,3.07c-.2.354-2.055,1.428-2.511,1.868a13.518,13.518,0,0,1-1.5,1.479,11.01,11.01,0,0,1-3.732.327c-.671-.1-1.7-.206-1.781-1.127" transform="translate(-3.737 -2.769)" fill="#ffad91"/>
        <path id="Trazado_31979" data-name="Trazado 31979" d="M92.482,70.338a1.035,1.035,0,0,1,1.067-.78c.956-.06.985.734.688,1.273S93.721,72.1,92.7,72.276s-1.319-.011-1.273-.4.986-1.032,1.055-1.537" transform="translate(-4.04 -3.074)" fill="#fa9278"/>
        <path id="Trazado_31980" data-name="Trazado 31980" d="M77.537,84.274a2.378,2.378,0,0,1-.038-.317c-.006-.1-.011-.226-.007-.368a4.161,4.161,0,0,1,.039-.478c.011-.088.028-.178.044-.271s.041-.19.068-.288a4.527,4.527,0,0,1,.208-.607c.085-.2.177-.4.271-.608s.19-.413.286-.621l.285-.62c.092-.2.183-.405.263-.6s.158-.386.22-.569a3.55,3.55,0,0,0,.139-.52c.062-.339.114-.622.149-.82s.052-.313.052-.313.014.115.021.318.007.492-.013.839c0,.042-.006.089-.011.135s-.008.1-.016.143-.016.1-.025.145-.023.1-.033.146a6.012,6.012,0,0,1-.179.609c-.143.414-.327.84-.52,1.26-.1.209-.2.418-.3.619s-.2.4-.3.594a5.916,5.916,0,0,0-.241.552c-.066.181-.123.355-.166.518s-.078.315-.105.451-.047.256-.059.356-.023.179-.028.232-.007.083-.007.083" transform="translate(-3.425 -3.415)" fill="#d1c3ab"/>
        <path id="Trazado_31981" data-name="Trazado 31981" d="M86.842,64.212s3.263.939,4.671,2.37a20.8,20.8,0,0,1,2.723,3.428,6.876,6.876,0,0,0,1.6-3.192c.141-1.314-1.15-3.1-2.652-4.084s-5-.353-6.338,1.479" transform="translate(-3.838 -2.752)" fill="#e6382e"/>
        <path id="Trazado_31982" data-name="Trazado 31982" d="M85.127,62.368a1.072,1.072,0,0,1,.888-1.657,2.6,2.6,0,0,1,1.33.334C88.636,61.8,91.8,66.9,91.8,66.9a11.826,11.826,0,0,0-5.038-2.757,7.487,7.487,0,0,1-1.632-1.775" transform="translate(-3.755 -2.683)" fill="#ff7f78"/>
        <path id="Trazado_31983" data-name="Trazado 31983" d="M97.311,185.411l-22.6,13.049-3.661-2.114-11.252,6.5,3.662,2.113L40.858,218l3.928,2.269,22.6-13.05,3.662,2.113,11.251-6.5-3.661-2.114,22.6-13.049Z" transform="translate(-1.806 -8.194)" fill="#e3dbda"/>
        <path id="Trazado_31984" data-name="Trazado 31984" d="M74.416,58.717l-4.576,2.642-4.576-2.642,4.576-2.643Z" transform="translate(-2.884 -2.478)" fill="#dbd3cb"/>
        <path id="Trazado_31985" data-name="Trazado 31985" d="M65.263,58.84V197.107l4.576,2.643V61.481Z" transform="translate(-2.884 -2.6)" fill="#ccc5bd"/>
        <path id="Trazado_31986" data-name="Trazado 31986" d="M74.627,58.84V197.107l-4.576,2.643V61.481Z" transform="translate(-3.096 -2.6)" fill="#b3aa9f"/>
        <path id="Trazado_31987" data-name="Trazado 31987" d="M91.2,40.639l-49.361,28.5v3.072l1.645-.949c.246.339.531.638.772.625.554-.028,49.915-29.509,49.915-29.509Z" transform="translate(-1.849 -1.796)" fill="#877869"/>
        <path id="Trazado_31988" data-name="Trazado 31988" d="M94.3,45.529l-49.361,28.5V70.954L94.3,42.457Z" transform="translate(-1.986 -1.876)" fill="#574e44"/>
        <path id="Trazado_31989" data-name="Trazado 31989" d="M41.835,73.526l2.972,1.738V72.192l-2.972-1.738Z" transform="translate(-1.849 -3.114)" fill="#736659"/>
        <path id="Trazado_31990" data-name="Trazado 31990" d="M21.54,11.935l-.411.71,47.116,27.2a2.338,2.338,0,0,1,.4-.714Z" transform="translate(-0.934 -0.527)" fill="#57494c"/>
        <path id="Trazado_31991" data-name="Trazado 31991" d="M70.483,46.568l-1.107.638-1.107-.638,1.107-.638Z" transform="translate(-3.017 -2.03)" fill="#dbd3cb"/>
        <path id="Trazado_31992" data-name="Trazado 31992" d="M68.27,46.6v9l1.107.639v-9Z" transform="translate(-3.017 -2.059)" fill="#96867b"/>
        <path id="Trazado_31993" data-name="Trazado 31993" d="M70.535,46.6v9l-1.107.639v-9Z" transform="translate(-3.068 -2.059)" fill="#524b47"/>
        <path id="Trazado_31994" data-name="Trazado 31994" d="M72.533,46.759c-.074-.05-.151-.1-.232-.146a6.315,6.315,0,0,0-5.711,0c-.1.057-.192.118-.279.179l-.9,0V48.41h.009a2.1,2.1,0,0,0,1.175,1.5,6.309,6.309,0,0,0,5.711,0,2.046,2.046,0,0,0,1.18-1.583h0V46.754Z" transform="translate(-2.891 -2.03)" fill="#522f39"/>
        <path id="Trazado_31995" data-name="Trazado 31995" d="M72.3,45.078c1.577.911,1.577,2.387,0,3.3a6.321,6.321,0,0,1-5.711,0c-1.577-.912-1.577-2.388,0-3.3a6.315,6.315,0,0,1,5.711,0" transform="translate(-2.891 -1.962)" fill="#7d4d5b"/>
        <path id="Trazado_31996" data-name="Trazado 31996" d="M72.186,44.953c-.064-.044-.134-.087-.205-.129a5.554,5.554,0,0,0-5.025,0q-.132.076-.247.158l-.8,0v1.421h.009a1.846,1.846,0,0,0,1.033,1.319,5.548,5.548,0,0,0,5.025,0,1.8,1.8,0,0,0,1.04-1.393h0V44.949Z" transform="translate(-2.913 -1.954)" fill="#522f39"/>
        <path id="Trazado_31997" data-name="Trazado 31997" d="M71.981,43.475c1.388.8,1.388,2.1,0,2.9a5.556,5.556,0,0,1-5.026,0c-1.388-.8-1.388-2.1,0-2.9a5.556,5.556,0,0,1,5.026,0" transform="translate(-2.913 -1.895)" fill="#7d4d5b"/>
        <path id="Trazado_31998" data-name="Trazado 31998" d="M72.5,42.321c-.074-.05-.15-.1-.232-.146a6.315,6.315,0,0,0-5.711,0c-.1.057-.192.118-.279.179l-.9,0v1.614h.009a2.1,2.1,0,0,0,1.174,1.5,6.309,6.309,0,0,0,5.711,0,2.048,2.048,0,0,0,1.181-1.583h0V42.316Z" transform="translate(-2.889 -1.834)" fill="#522f39"/>
        <path id="Trazado_31999" data-name="Trazado 31999" d="M72.269,40.641c1.577.911,1.577,2.387,0,3.3a6.315,6.315,0,0,1-5.711,0c-1.577-.911-1.577-2.387,0-3.3a6.309,6.309,0,0,1,5.711,0" transform="translate(-2.889 -1.766)" fill="#7d4d5b"/>
        <path id="Trazado_32000" data-name="Trazado 32000" d="M71.651,37.827c-.052-.035-.106-.07-.164-.1a4.459,4.459,0,0,0-4.037,0c-.07.04-.136.082-.2.125l-.638,0V41.82h.006a1.484,1.484,0,0,0,.83,1.06,4.465,4.465,0,0,0,4.037,0,1.446,1.446,0,0,0,.835-1.119h0V37.823Z" transform="translate(-2.944 -1.646)" fill="#522f39"/>
        <path id="Trazado_32001" data-name="Trazado 32001" d="M71.487,36.754a1.23,1.23,0,0,1,0,2.33,4.459,4.459,0,0,1-4.037,0,1.23,1.23,0,0,1,0-2.33,4.464,4.464,0,0,1,4.037,0" transform="translate(-2.944 -1.603)" fill="#7d4d5b"/>
        <path id="Trazado_32002" data-name="Trazado 32002" d="M72.276,40.52a2.173,2.173,0,0,1-.983,1.7c-.544.314-.984.059-.984-.568a2.172,2.172,0,0,1,.984-1.7c.543-.314.983-.059.983.568" transform="translate(-3.107 -1.76)" fill="#24171a"/>
        <path id="Trazado_32003" data-name="Trazado 32003" d="M72.157,41.16l-1.329-.768a2.338,2.338,0,0,0-.4.714l1.315.76L150.4,87.152l.513-.65Z" transform="translate(-3.112 -1.785)" fill="#57494c"/>
        <path id="Trazado_32004" data-name="Trazado 32004" d="M42.216,0l-.41.71,47.116,27.2a2.338,2.338,0,0,1,.4-.714Z" transform="translate(-1.848)" fill="#57494c"/>
        <path id="Trazado_32005" data-name="Trazado 32005" d="M91.16,34.633l-1.107.638-1.107-.638,1.107-.638Z" transform="translate(-3.931 -1.502)" fill="#dbd3cb"/>
        <path id="Trazado_32006" data-name="Trazado 32006" d="M88.947,34.662v9l1.107.639v-9Z" transform="translate(-3.931 -1.532)" fill="#96867b"/>
        <path id="Trazado_32007" data-name="Trazado 32007" d="M91.211,34.662v9L90.1,44.3v-9Z" transform="translate(-3.982 -1.532)" fill="#524b47"/>
        <path id="Trazado_32008" data-name="Trazado 32008" d="M93.21,34.823c-.074-.05-.15-.1-.232-.146a6.315,6.315,0,0,0-5.711,0c-.1.058-.192.118-.279.18l-.9,0v1.615h.009a2.1,2.1,0,0,0,1.174,1.5,6.309,6.309,0,0,0,5.711,0,2.048,2.048,0,0,0,1.181-1.583h0V34.819Z" transform="translate(-3.805 -1.502)" fill="#522f39"/>
        <path id="Trazado_32009" data-name="Trazado 32009" d="M92.977,33.143c1.577.911,1.577,2.387,0,3.3a6.315,6.315,0,0,1-5.711,0c-1.577-.911-1.577-2.387,0-3.3a6.309,6.309,0,0,1,5.711,0" transform="translate(-3.805 -1.435)" fill="#7d4d5b"/>
        <path id="Trazado_32010" data-name="Trazado 32010" d="M92.862,33.017c-.065-.043-.133-.086-.2-.127a5.55,5.55,0,0,0-5.026,0c-.087.05-.169.1-.246.157l-.8,0v1.421H86.6a1.841,1.841,0,0,0,1.033,1.318,5.544,5.544,0,0,0,5.026,0A1.8,1.8,0,0,0,93.7,34.4h0V33.014Z" transform="translate(-3.827 -1.427)" fill="#522f39"/>
        <path id="Trazado_32011" data-name="Trazado 32011" d="M92.657,31.54c1.388.8,1.388,2.1,0,2.9a5.556,5.556,0,0,1-5.026,0c-1.388-.8-1.388-2.1,0-2.9a5.556,5.556,0,0,1,5.026,0" transform="translate(-3.827 -1.367)" fill="#7d4d5b"/>
        <path id="Trazado_32012" data-name="Trazado 32012" d="M93.178,30.386q-.11-.076-.232-.146a6.309,6.309,0,0,0-5.711,0c-.1.057-.192.117-.279.179l-.9,0v1.614h.01a2.1,2.1,0,0,0,1.174,1.5,6.309,6.309,0,0,0,5.711,0,2.043,2.043,0,0,0,1.18-1.583h0V30.381Z" transform="translate(-3.803 -1.306)" fill="#522f39"/>
        <path id="Trazado_32013" data-name="Trazado 32013" d="M92.946,28.705c1.577.911,1.577,2.387,0,3.3a6.321,6.321,0,0,1-5.711,0c-1.577-.912-1.577-2.388,0-3.3a6.315,6.315,0,0,1,5.711,0" transform="translate(-3.803 -1.239)" fill="#7d4d5b"/>
        <path id="Trazado_32014" data-name="Trazado 32014" d="M92.328,25.892c-.052-.035-.106-.07-.164-.1a4.459,4.459,0,0,0-4.037,0,2.32,2.32,0,0,0-.2.126l-.639,0v3.968H87.3a1.484,1.484,0,0,0,.83,1.06,4.465,4.465,0,0,0,4.037,0A1.446,1.446,0,0,0,93,29.826h0V25.889Z" transform="translate(-3.858 -1.118)" fill="#522f39"/>
        <path id="Trazado_32015" data-name="Trazado 32015" d="M92.164,24.818a1.231,1.231,0,0,1,0,2.331,4.459,4.459,0,0,1-4.037,0,1.231,1.231,0,0,1,0-2.331,4.47,4.47,0,0,1,4.037,0" transform="translate(-3.858 -1.076)" fill="#7d4d5b"/>
        <path id="Trazado_32016" data-name="Trazado 32016" d="M92.952,28.584a2.172,2.172,0,0,1-.984,1.7c-.543.314-.983.059-.983-.568a2.173,2.173,0,0,1,.983-1.7c.544-.314.984-.059.984.568" transform="translate(-4.021 -1.232)" fill="#24171a"/>
        <path id="Trazado_32017" data-name="Trazado 32017" d="M92.833,29.224,91.5,28.456a2.39,2.39,0,0,0-.4.714l1.316.761,78.665,45.287.512-.651Z" transform="translate(-4.026 -1.258)" fill="#57494c"/>
        <path id="Trazado_32018" data-name="Trazado 32018" d="M82.2,149.143l-.65.558c-.414.354-1.006.854-1.722,1.449s-1.558,1.282-2.475,2.005-1.9,1.482-2.943,2.2c-.131.09-.261.18-.395.268s-.266.176-.4.261-.275.169-.413.253-.282.164-.436.241l-.113.058-.029.014-.024.012-.013.006-.052.024-.053.024-.067.029c-.045.019-.09.039-.13.054a4.654,4.654,0,0,1-.493.163,6.235,6.235,0,0,1-.97.183,8.852,8.852,0,0,1-1.793,0,11.47,11.47,0,0,1-1.551-.255,9.569,9.569,0,0,1-2.229-.788,3.07,3.07,0,0,1-.618-.411,1.389,1.389,0,0,1-.173-.184c-.019-.025-.036-.051-.046-.065l-.015-.023.772-.487.006,0c.006.006.023.022.058.051a2.273,2.273,0,0,0,.443.246,8.552,8.552,0,0,0,2.021.563,10.4,10.4,0,0,0,1.408.137,7.584,7.584,0,0,0,1.532-.1,4.761,4.761,0,0,0,.749-.193,3.212,3.212,0,0,0,.349-.142c.031-.012.053-.025.077-.037l.036-.018.049-.027.05-.027.012-.007.006,0,0,0,.021-.012.086-.053c.115-.065.233-.148.351-.224s.237-.162.356-.251.237-.173.356-.265.237-.182.355-.275c.944-.746,1.865-1.552,2.718-2.316s1.638-1.5,2.308-2.127,1.222-1.162,1.607-1.535l.6-.586Z" transform="translate(-2.846 -6.521)" fill="#58706c"/>
        <path id="Trazado_32019" data-name="Trazado 32019" d="M79.734,148.993l6.671-6,.335,3.215L81.5,151.285s-2.209.532-1.762-2.292" transform="translate(-3.521 -6.32)" fill="#58706c"/>
        <path id="Trazado_32020" data-name="Trazado 32020" d="M68.873,146.2l-.177.137a5.131,5.131,0,0,1-.53.34,5.265,5.265,0,0,1-.894.389,6.039,6.039,0,0,1-1.237.263,7.209,7.209,0,0,1-1.5,0A8.073,8.073,0,0,1,62.9,147a7.083,7.083,0,0,1-1.6-.725,4.89,4.89,0,0,1-.692-.518,2.847,2.847,0,0,1-.515-.608,1.332,1.332,0,0,1-.212-.612.724.724,0,0,1,0-.118s.006-.057.011-.095l0-.031,0-.014c-.006.054,0,.014,0,.026v0l.006-.018a1.175,1.175,0,0,1,.117-.246,3.71,3.71,0,0,1,.415-.545l-1.085-1.161c-.016.019-.033.038-.048.058a5.343,5.343,0,0,0-.618.942,2.5,2.5,0,0,0-.227.661l-.015.1,0,.013,0,.041v.015l0,.03c0,.044,0,.07,0,.15a2.17,2.17,0,0,0,.027.371,2.533,2.533,0,0,0,.193.651,3.008,3.008,0,0,0,.32.547,4.16,4.16,0,0,0,.819.829,5.989,5.989,0,0,0,.919.582,8.188,8.188,0,0,0,1.914.7,8.656,8.656,0,0,0,3.534.1,6.756,6.756,0,0,0,1.362-.4,5.94,5.94,0,0,0,.968-.515,6.044,6.044,0,0,0,.562-.425l.184-.168Z" transform="translate(-2.582 -6.29)" fill="#58706c"/>
        <path id="Trazado_32021" data-name="Trazado 32021" d="M67.111,106.16a5.137,5.137,0,0,1-3.4-.963,2.635,2.635,0,0,1-.862-2.2l1.759.1a.878.878,0,0,0,.273.785c.638.567,2.324.679,4.512.3,2.468-.428,16.574-7.669,21.8-10.424l-.147,2.067c-1.947,1.027-18.16,9.539-21.351,10.092a15.411,15.411,0,0,1-2.58.245" transform="translate(-2.777 -4.144)" fill="#855e5e"/>
        <path id="Trazado_32022" data-name="Trazado 32022" d="M92.1,92.687s.349,1.959.52,2.613a6.923,6.923,0,0,1,.206,1.222s-4.627,2.356-5.367,2.752a5.729,5.729,0,0,1-2.047.465,5.57,5.57,0,0,0-1.444-.465,12.591,12.591,0,0,0-2.176-.052,6.129,6.129,0,0,0-1.153.344s-.327.163.267.421a9.571,9.571,0,0,0,1.445.292c.146.095.31.181.267.413s-.465.447-.774.551-1.17.206-1.591.3a4.369,4.369,0,0,0-1.265.379c-.137.146-.189.4.087.465a12.142,12.142,0,0,0,1.9-.052c.43-.034,1.015-.138,1.015-.138a14.529,14.529,0,0,1-2.022,1.109,5.367,5.367,0,0,0-1.633.671,1.107,1.107,0,0,0-.113.594,5.1,5.1,0,0,0,1.188-.225c.679-.206,1.135-.412,1.547-.508a4.067,4.067,0,0,0,.869-.343s-2.082,1.479-2.469,1.695-.618.429-.627.567.18.379.18.379.724-.344.748-.361a.582.582,0,0,0,.6.155c.4-.129,1.695-1.049,2.194-1.316s1.256-.628,1.875-.955,1.324-.757,1.78-1.015a26.745,26.745,0,0,1,3.389-1.418,35.134,35.134,0,0,0,6.035-2.234,2.726,2.726,0,0,0,1.525-2.558c0-.825-.516-4.231-.516-4.231s-3.92-.535-4.443.484" transform="translate(-3.457 -4.069)" fill="#ffad91"/>
        <path id="Trazado_32023" data-name="Trazado 32023" d="M96.648,79.271a4.169,4.169,0,0,1,1.422,3.354c-.116,2.156-.709,9.473-.709,9.473A5.305,5.305,0,0,1,94.79,93a6.927,6.927,0,0,1-2.522-.413s.114-2.982.286-4.977,0-4.92,1.135-6.366,1.788-1.892,2.959-1.978" transform="translate(-4.078 -3.503)" fill="#f2e9d8"/>
        <path id="Trazado_32024" data-name="Trazado 32024" d="M.41,24.271l-.41.71,47.116,27.2a2.358,2.358,0,0,1,.4-.714Z" transform="translate(0 -1.073)" fill="#57494c"/>
        <path id="Trazado_32025" data-name="Trazado 32025" d="M49.354,58.9l-1.107.638L47.141,58.9l1.106-.638Z" transform="translate(-2.083 -2.575)" fill="#dbd3cb"/>
        <path id="Trazado_32026" data-name="Trazado 32026" d="M47.141,58.934v9l1.107.639v-9Z" transform="translate(-2.083 -2.605)" fill="#96867b"/>
        <path id="Trazado_32027" data-name="Trazado 32027" d="M49.4,58.934v9l-1.107.639v-9Z" transform="translate(-2.135 -2.605)" fill="#524b47"/>
        <path id="Trazado_32028" data-name="Trazado 32028" d="M51.4,59.094c-.074-.049-.151-.1-.232-.146a6.315,6.315,0,0,0-5.711,0c-.1.058-.192.118-.279.18l-.9,0v1.615h.009a2.1,2.1,0,0,0,1.174,1.5,6.315,6.315,0,0,0,5.711,0,2.045,2.045,0,0,0,1.18-1.584h0V59.09Z" transform="translate(-1.957 -2.575)" fill="#522f39"/>
        <path id="Trazado_32029" data-name="Trazado 32029" d="M51.171,57.414c1.577.911,1.577,2.387,0,3.3a6.315,6.315,0,0,1-5.711,0c-1.577-.911-1.577-2.387,0-3.3a6.309,6.309,0,0,1,5.711,0" transform="translate(-1.957 -2.507)" fill="#7d4d5b"/>
        <path id="Trazado_32030" data-name="Trazado 32030" d="M51.056,57.289c-.064-.044-.133-.087-.2-.129a5.556,5.556,0,0,0-5.026,0c-.087.051-.169.1-.246.158l-.8,0v1.421h.008a1.846,1.846,0,0,0,1.033,1.319,5.55,5.55,0,0,0,5.026,0,1.8,1.8,0,0,0,1.04-1.393h0V57.285Z" transform="translate(-1.979 -2.5)" fill="#522f39"/>
        <path id="Trazado_32031" data-name="Trazado 32031" d="M50.851,55.811c1.388.8,1.388,2.1,0,2.9a5.556,5.556,0,0,1-5.026,0c-1.388-.8-1.388-2.1,0-2.9a5.556,5.556,0,0,1,5.026,0" transform="translate(-1.979 -2.44)" fill="#7d4d5b"/>
        <path id="Trazado_32032" data-name="Trazado 32032" d="M51.372,54.657c-.074-.05-.151-.1-.232-.146a6.315,6.315,0,0,0-5.711,0c-.1.057-.192.117-.279.179l-.9,0v1.614h.009a2.1,2.1,0,0,0,1.175,1.5,6.309,6.309,0,0,0,5.711,0,2.046,2.046,0,0,0,1.18-1.583h0V54.652Z" transform="translate(-1.955 -2.379)" fill="#522f39"/>
        <path id="Trazado_32033" data-name="Trazado 32033" d="M51.139,52.977c1.577.911,1.577,2.387,0,3.3a6.315,6.315,0,0,1-5.711,0c-1.577-.911-1.577-2.387,0-3.3a6.309,6.309,0,0,1,5.711,0" transform="translate(-1.955 -2.311)" fill="#7d4d5b"/>
        <path id="Trazado_32034" data-name="Trazado 32034" d="M50.521,50.163c-.052-.035-.106-.07-.164-.1a4.459,4.459,0,0,0-4.037,0c-.07.04-.136.082-.2.125l-.638,0v3.968h.006a1.484,1.484,0,0,0,.83,1.06,4.464,4.464,0,0,0,4.037,0,1.445,1.445,0,0,0,.835-1.119h0V50.159Z" transform="translate(-2.01 -2.191)" fill="#522f39"/>
        <path id="Trazado_32035" data-name="Trazado 32035" d="M50.357,49.09a1.23,1.23,0,0,1,0,2.33,4.459,4.459,0,0,1-4.037,0,1.23,1.23,0,0,1,0-2.33,4.465,4.465,0,0,1,4.037,0" transform="translate(-2.01 -2.148)" fill="#7d4d5b"/>
        <path id="Trazado_32036" data-name="Trazado 32036" d="M51.146,52.856a2.174,2.174,0,0,1-.984,1.7c-.543.314-.984.059-.984-.568a2.174,2.174,0,0,1,.984-1.7c.543-.313.984-.059.984.568" transform="translate(-2.174 -2.305)" fill="#24171a"/>
        <path id="Trazado_32037" data-name="Trazado 32037" d="M51.027,53.5,49.7,52.728a2.358,2.358,0,0,0-.4.714l1.315.76,78.665,45.286.513-.65Z" transform="translate(-2.179 -2.33)" fill="#57494c"/>
        <path id="Trazado_32038" data-name="Trazado 32038" d="M63.516,85.73a1.664,1.664,0,0,1,.854-.279c.639-.084,2.327-.063,2.558.324s-.095.567-.23.818.178.3.1.513-.282.472-.209.64a.5.5,0,0,1-.147.587c-.209.2-.083.43-.23.671a9.111,9.111,0,0,1-2.82,1.136c-.6.058-.388-3.817.12-4.411" transform="translate(-2.786 -3.775)" fill="#ffad91"/>
      </g>
    </g>
  </g>
</svg>
