<svg xmlns="http://www.w3.org/2000/svg" xmlns:xlink="http://www.w3.org/1999/xlink" width="1030" height="444" viewBox="0 0 1030 444">
  <defs>
    <clipPath id="clip-path">
      <rect id="Rectángulo_339585" data-name="Rectángulo 339585" width="1030" height="444" transform="translate(285 1000)" fill="#faedc0"/>
    </clipPath>
  </defs>
  <g id="Enmascarar_grupo_927228" data-name="Enmascarar grupo 927228" transform="translate(-285 -1000)" clip-path="url(#clip-path)">
    <rect id="Rectángulo_339568" data-name="Rectángulo 339568" width="1030" height="444" transform="translate(285 1000)" fill="#faedc0"/>
    <circle id="Elipse_5476" data-name="Elipse 5476" cx="385" cy="385" r="385" transform="translate(565 891)" fill="#fdf8e4"/>
    <circle id="Elipse_5475" data-name="Elipse 5475" cx="315" cy="315" r="315" transform="translate(705 1031)" fill="#fcfaf2"/>
    <g id="Grupo_956656" data-name="Grupo 956656" transform="translate(810 1263.635)">
      <g id="Grupo_956623" data-name="Grupo 956623" transform="translate(44.734 129.101)">
        <path id="Trazado_720960" data-name="Trazado 720960" d="M399.18,1717.71H348.713l4.5,34a12.29,12.29,0,0,0,12.184,10.677h17.1a12.29,12.29,0,0,0,12.184-10.677Z" transform="translate(-348.713 -1717.71)" fill="#edbc2c"/>
      </g>
      <g id="Grupo_956624" data-name="Grupo 956624" transform="translate(42.731 118.007)">
        <path id="Trazado_720961" data-name="Trazado 720961" d="M391.262,1652.617c0-1.579-12.27-2.858-27.407-2.858s-27.407,1.279-27.407,2.858v10.262c0,1.579,12.271,2.859,27.407,2.859s27.407-1.28,27.407-2.859Z" transform="translate(-336.448 -1649.759)" fill="#edbc2c"/>
      </g>
      <g id="Grupo_956625" data-name="Grupo 956625" transform="translate(45.368 120.241)">
        <ellipse id="Elipse_5468" data-name="Elipse 5468" cx="24.751" cy="2.581" rx="24.751" ry="2.581" fill="#3c251d"/>
      </g>
      <g id="Grupo_956626" data-name="Grupo 956626" transform="translate(43.956 11.703)">
        <path id="Trazado_720962" data-name="Trazado 720962" d="M367.54,1081.459c3.426-19.761,5.886-26.754,2.425-36.232s-10.412-18.827-12.285-29.577-6.3-18.84-8.517-16.705-7.073,18.684-4.464,36.635,11.57,36.505,11.57,36.505l5.842,18.95Z" transform="translate(-343.949 -998.601)" fill="#d3db8a"/>
      </g>
      <g id="Grupo_956627" data-name="Grupo 956627" transform="translate(46.574 22.103)">
        <path id="Trazado_720963" data-name="Trazado 720963" d="M371.957,1098.45c.605.628,1.109,1.339,1.777,1.912a3.372,3.372,0,0,0,2.474.91,2.586,2.586,0,0,0,2.194-2.158,3.982,3.982,0,0,0-.966-2.958,17.8,17.8,0,0,0-2.387-2.294,34.086,34.086,0,0,1-4.2-4.4c-.976-1.225-1.9-2.73-1.413-4.176a9.168,9.168,0,0,1,2.039-2.612,6.19,6.19,0,0,0,1.451-3.487c.075-.97-.426-2.229-1.5-2.188-1.045.04-1.638,1.341-2.684,1.346a1.818,1.818,0,0,1-1.185-.549,3.81,3.81,0,0,1-.772-4.668,19.914,19.914,0,0,1,1.71-2.087,2.72,2.72,0,0,0,.691-2.434c-.352-1.066-1.641-1.6-2.451-2.432a3.252,3.252,0,0,1-.77-3.275,4.689,4.689,0,0,0-3.812-.3,2.887,2.887,0,0,0-1.476,2.5,7.984,7.984,0,0,0,.615,2.893l.945,2.727a3.667,3.667,0,0,1,.22,2.68c-.335.741-1.12,1.223-1.643,1.869-1.057,1.3-.927,3.094-.6,4.685a5.343,5.343,0,0,0,1.092,2.579c.651.726,1.636,1.159,2.276,1.894,1.229,1.411.845,3.434.488,5.2s-.5,3.882.99,5.067a8.366,8.366,0,0,0,2.567,1.1A10.868,10.868,0,0,1,371.957,1098.45Z" transform="translate(-359.982 -1062.306)" fill="#b5b130"/>
      </g>
      <g id="Grupo_956628" data-name="Grupo 956628" transform="translate(50.311 24.441)">
        <path id="Trazado_720964" data-name="Trazado 720964" d="M396.486,1145.8a.367.367,0,0,1-.056-.006.229.229,0,0,1-.189-.273c3.947-15.978-2.616-30.925-5.771-38.107-.216-.492-.416-.948-.594-1.363-4.377-10.165-6.731-19.987-7-29.2a.24.24,0,0,1,.245-.234.244.244,0,0,1,.258.222c.266,9.155,2.609,18.926,6.965,29.041q.267.622.594,1.36c3.173,7.226,9.774,22.259,5.794,38.377A.247.247,0,0,1,396.486,1145.8Z" transform="translate(-382.875 -1076.626)" fill="#3c251d"/>
      </g>
      <g id="Grupo_956629" data-name="Grupo 956629" transform="translate(46.881 45.581)">
        <path id="Trazado_720965" data-name="Trazado 720965" d="M363,1206.12c.63.039.922.732.96,1.3a1.914,1.914,0,0,1-.155,1.013,1.058,1.058,0,0,1-.87.585,1.071,1.071,0,0,1-1-.742,2.142,2.142,0,0,1,.056-1.245c.114-.41.417-.9.875-.827" transform="translate(-361.863 -1206.12)" fill="#b5b130"/>
      </g>
      <g id="Grupo_956630" data-name="Grupo 956630" transform="translate(52.37 58.849)">
        <path id="Trazado_720966" data-name="Trazado 720966" d="M398.974,1289.029a1.439,1.439,0,0,0,.065-.731.861.861,0,0,0-.189-.3,1.951,1.951,0,0,0-2.081-.483,2.178,2.178,0,0,0-1.249,1.786,11.9,11.9,0,0,0,.087,2.209,3.215,3.215,0,0,0,.31,1.608c.357.561,1.1.87,1.383,1.466a2.552,2.552,0,0,0,.173.376c.3.442,1.034.39,1.555.176a2.971,2.971,0,0,0,1.579-1.381,1.834,1.834,0,0,0-.183-1.937c-.238-.294-.574-.511-.84-.784A2.248,2.248,0,0,1,398.974,1289.029Z" transform="translate(-395.487 -1287.393)" fill="#b5b130"/>
      </g>
      <g id="Grupo_956631" data-name="Grupo 956631" transform="translate(66.829 0)">
        <path id="Trazado_720967" data-name="Trazado 720967" d="M484.052,1029.467c1.393-26.294.279-35.9,7.525-47.278s18.951-21.743,24.526-35.143,13.656-22.754,15.886-19.468,3.623,25.788-5.017,48.289-25.64,44.244-25.64,44.244l-13.1,23.007Z" transform="translate(-484.052 -926.918)" fill="#b5b130"/>
      </g>
      <g id="Grupo_956632" data-name="Grupo 956632" transform="translate(80.588 13.302)">
        <path id="Trazado_720968" data-name="Trazado 720968" d="M576.845,1053.028c-.964.663-1.822,1.457-2.852,2.034a4.565,4.565,0,0,1-3.456.574,3.236,3.236,0,0,1-2.193-3.311,5.465,5.465,0,0,1,2.114-3.578,24.8,24.8,0,0,1,3.75-2.378,47.565,47.565,0,0,0,6.708-4.651c1.617-1.343,3.247-3.059,3.048-5.04-.141-1.408-1.184-2.584-1.859-3.859a7.9,7.9,0,0,1-.844-4.844c.189-1.268,1.2-2.769,2.572-2.457,1.335.3,1.716,2.125,3.063,2.383a2.477,2.477,0,0,0,1.689-.421,5.147,5.147,0,0,0,2.367-5.829,24.812,24.812,0,0,0-1.589-3.1,3.518,3.518,0,0,1-.175-3.3c.766-1.289,2.584-1.659,3.873-2.541a4.426,4.426,0,0,0,1.955-4.034c1.7-.364,3.679-.5,5,.537a3.65,3.65,0,0,1,1.168,3.574,10.887,10.887,0,0,1-1.644,3.58l-2.019,3.286a4.927,4.927,0,0,0-1.071,3.4c.214,1.036,1.084,1.848,1.568,2.806.978,1.937.284,4.211-.6,6.183a7.387,7.387,0,0,1-2.165,3.06c-1.052.779-2.45,1.1-3.49,1.89-2,1.522-2.1,4.221-2.158,6.587s-.5,5.124-2.765,6.291a11.4,11.4,0,0,1-3.631.8A14.973,14.973,0,0,0,576.845,1053.028Z" transform="translate(-568.335 -1008.4)" fill="#d9d94f"/>
      </g>
      <g id="Grupo_956633" data-name="Grupo 956633" transform="translate(69.058 61.508)">
        <path id="Trazado_720969" data-name="Trazado 720969" d="M497.709,1366.21s1.672-50.817,26.476-58.655,30.378-2.023,33.722,2.023,16.164,37.418,6.41,37.924-18.951-20.732-24.247-20.732-25.64-3.287-30.935,39.946C509.136,1366.716,497.988,1365.957,497.709,1366.21Z" transform="translate(-497.709 -1303.679)" fill="#d3db8a"/>
      </g>
      <g id="Grupo_956634" data-name="Grupo 956634" transform="translate(88.317 61.509)">
        <path id="Trazado_720970" data-name="Trazado 720970" d="M654.974,1308.815a2.457,2.457,0,0,0-.326-1.448c-3.836-3.454-11.207-6.269-31.65.19a22.4,22.4,0,0,0-7.322,4.016c1.551.878,3.693.623,5.455-.013,1.967-.709,3.918-1.742,6.029-1.612-.231,1.48,1.485,2.918,3.093,2.592,1.322-.268,2.192-1.412,3.4-1.967a4.082,4.082,0,0,1,4.982,1.439,3.724,3.724,0,0,0,.95,1.4c1.009.68,2.535-.361,2.589-1.5a4.213,4.213,0,0,0-1.669-2.96,9.823,9.823,0,0,1,9.174.812,7.72,7.72,0,0,0,1.669,1.023A2.809,2.809,0,0,0,654.974,1308.815Z" transform="translate(-615.675 -1303.682)" fill="#b5b130"/>
      </g>
      <g id="Grupo_956635" data-name="Grupo 956635" transform="translate(100.83 78.531)">
        <path id="Trazado_720971" data-name="Trazado 720971" d="M692.323,1407.95l4.088,6.258a38.362,38.362,0,0,1,6.5-.191,3.005,3.005,0,0,1,1.336.417A31.644,31.644,0,0,0,692.323,1407.95Z" transform="translate(-692.323 -1407.95)" fill="#3c251d"/>
      </g>
      <g id="Grupo_956636" data-name="Grupo 956636" transform="translate(83.718 77.864)">
        <path id="Trazado_720972" data-name="Trazado 720972" d="M587.755,1413.735a.27.27,0,0,1-.155-.051.211.211,0,0,1-.042-.317c.276-.317,6.764-7.774,9.447-8.669a10.348,10.348,0,0,1,8.7.26.217.217,0,0,1,.116.3.259.259,0,0,1-.335.107,9.786,9.786,0,0,0-8.305-.243c-2.551.85-9.159,8.447-9.225,8.521A.259.259,0,0,1,587.755,1413.735Z" transform="translate(-587.504 -1403.865)" fill="#3c251d"/>
      </g>
      <g id="Grupo_956637" data-name="Grupo 956637" transform="translate(68.669 104.787)">
        <path id="Trazado_720973" data-name="Trazado 720973" d="M502.92,1586.651l-5.706-17.871c-.868,5.144-1.346,9.728-1.6,12.918l-.284,4.634A71.9,71.9,0,0,1,502.92,1586.651Z" transform="translate(-495.328 -1568.78)" fill="#3c251d"/>
      </g>
      <g id="Grupo_956638" data-name="Grupo 956638" transform="translate(106.623 71.366)">
        <path id="Trazado_720974" data-name="Trazado 720974" d="M727.805,1367.787a5.965,5.965,0,0,1,.363-2,2.329,2.329,0,0,1,1.92-1.72,2.565,2.565,0,0,1,1.434.518,2.5,2.5,0,0,1,.95.966,4.476,4.476,0,0,1,.108,1.8c.013.622.2,1.308-.189,1.823a1.628,1.628,0,0,1-1.185.559,5.13,5.13,0,0,1-1.366-.143c-.732-.144-1.561-.355-1.882-.969A1.754,1.754,0,0,1,727.805,1367.787Z" transform="translate(-727.805 -1364.064)" fill="#b5b130"/>
      </g>
      <g id="Grupo_956639" data-name="Grupo 956639" transform="translate(125.881 71.456)">
        <path id="Trazado_720975" data-name="Trazado 720975" d="M846.848,1364.716a.732.732,0,0,0-1,.284.957.957,0,0,0,.211,1.028,3.309,3.309,0,0,0,.952.671,1.533,1.533,0,0,0,1.368.238c.439-.228.468-.783.443-1.242a.592.592,0,0,0-.237-.537,1.072,1.072,0,0,0-.535-.027,1.141,1.141,0,0,1-.919-.4" transform="translate(-845.769 -1364.613)" fill="#b5b130"/>
      </g>
      <g id="Grupo_956640" data-name="Grupo 956640" transform="translate(116.721 77.096)">
        <path id="Trazado_720976" data-name="Trazado 720976" d="M794.406,1406.026a2.193,2.193,0,0,1-.523.293,3.008,3.008,0,0,1-3.905-4.126,6.429,6.429,0,0,1,1.716-2.181,2.868,2.868,0,0,1,1.744-.849,2.568,2.568,0,0,1,2.214,1.822,3.8,3.8,0,0,1,.224.742,5.441,5.441,0,0,1-.62,2.974A3.07,3.07,0,0,1,794.406,1406.026Z" transform="translate(-789.663 -1399.164)" fill="#b5b130"/>
      </g>
      <g id="Grupo_956641" data-name="Grupo 956641" transform="translate(69.783 62.685)">
        <path id="Trazado_720977" data-name="Trazado 720977" d="M502.4,1359.073a.243.243,0,0,1-.047-.006.229.229,0,0,1-.2-.267c3.766-17.563,8.6-34.73,18.379-41.375,11.085-7.531,20.922-6.513,21.333-6.462.149.015,15.38,4.053,20.977,28.241a.228.228,0,0,1-.193.27.248.248,0,0,1-.3-.175c-5.436-23.486-20.4-27.868-20.55-27.885-.408-.039-10.045-1.046-20.971,6.373-10.975,7.457-15.667,29.343-18.187,41.1A.248.248,0,0,1,502.4,1359.073Z" transform="translate(-502.149 -1310.89)" fill="#3c251d"/>
      </g>
      <g id="Grupo_956642" data-name="Grupo 956642" transform="translate(71.585 16.362)">
        <path id="Trazado_720978" data-name="Trazado 720978" d="M513.447,1112.922a.243.243,0,0,1-.252-.225c-.392-21.711,12.528-39.476,18.739-48.015.421-.581.81-1.114,1.159-1.6,8.593-11.99,14.488-24.025,17.524-35.767a.249.249,0,0,1,.3-.169.229.229,0,0,1,.188.275c-3.05,11.792-8.968,23.871-17.592,35.909q-.527.734-1.163,1.606c-6.181,8.5-19.044,26.185-18.654,47.757A.233.233,0,0,1,513.447,1112.922Z" transform="translate(-513.187 -1027.139)" fill="#3c251d"/>
      </g>
      <g id="Grupo_956643" data-name="Grupo 956643" transform="translate(104.62 44.147)">
        <path id="Trazado_720979" data-name="Trazado 720979" d="M717.311,1197.345c-.823-.1-1.4.72-1.621,1.447a2.51,2.51,0,0,0-.1,1.343,1.321,1.321,0,0,0,.949.964,1.477,1.477,0,0,0,1.508-.714,2.843,2.843,0,0,0,.294-1.619c-.026-.556-.271-1.265-.884-1.277" transform="translate(-715.537 -1197.337)" fill="#d9d94f"/>
      </g>
      <g id="Grupo_956644" data-name="Grupo 956644" transform="translate(72.277 59.558)">
        <path id="Trazado_720980" data-name="Trazado 720980" d="M520.412,1293.225a1.588,1.588,0,0,1,.11-.8,1.01,1.01,0,0,1,.278-.286,2.185,2.185,0,0,1,2.368-.1,2.3,2.3,0,0,1,.91,2.184,13.359,13.359,0,0,1-.638,2.37,3.664,3.664,0,0,1-.732,1.675c-.524.534-1.409.716-1.856,1.3a2.96,2.96,0,0,1-.279.371c-.433.417-1.213.211-1.724-.126a3.1,3.1,0,0,1-1.366-1.813,2.068,2.068,0,0,1,.675-2.056c.33-.27.746-.436,1.1-.677A2.582,2.582,0,0,0,520.412,1293.225Z" transform="translate(-517.429 -1291.734)" fill="#d9d94f"/>
      </g>
      <g id="Grupo_956645" data-name="Grupo 956645" transform="translate(66.995 61.741)">
        <path id="Trazado_720981" data-name="Trazado 720981" d="M485.322,1333.471a.241.241,0,0,1-.251-.228c0-.833-.06-20.52,3.787-28a.263.263,0,0,1,.333-.113.219.219,0,0,1,.121.3c-3.8,7.392-3.74,27.607-3.738,27.811a.24.24,0,0,1-.25.228Z" transform="translate(-485.07 -1305.108)" fill="#3c251d"/>
      </g>
      <g id="Grupo_956646" data-name="Grupo 956646" transform="translate(0 65.251)">
        <path id="Trazado_720982" data-name="Trazado 720982" d="M146.128,1385.455s.209-37.165-10.451-48.353-16.931-10.619-25.083-10.429-49.121,47.4-31.563,44.371S110.8,1350.186,114.148,1350s15.677-.758,19.857,35.079Z" transform="translate(-74.701 -1326.603)" fill="#d9d94f"/>
      </g>
      <g id="Grupo_956647" data-name="Grupo 956647" transform="translate(38.396 83.335)">
        <path id="Trazado_720983" data-name="Trazado 720983" d="M318.116,1437.375a92.06,92.06,0,0,0-8.227,5.64,2.493,2.493,0,0,1,.912-.33c1.706-.1,5.75-.28,9.859,4.308.026-.1.083-.157.1-.263C321.74,1441.926,318.116,1437.375,318.116,1437.375Z" transform="translate(-309.889 -1437.375)" fill="#3c251d"/>
      </g>
      <g id="Grupo_956648" data-name="Grupo 956648" transform="translate(46.372 83.106)">
        <path id="Trazado_720984" data-name="Trazado 720984" d="M375.026,1472.836h0a.243.243,0,0,1-.25-.231c0-.172.088-17.5-4.3-26.2-4.347-8.625-11.454-9.97-11.524-9.985a.23.23,0,0,1-.2-.266.236.236,0,0,1,.294-.178c.073.012,7.424,1.389,11.887,10.239,4.429,8.793,4.342,26.218,4.342,26.392A.242.242,0,0,1,375.026,1472.836Z" transform="translate(-358.75 -1435.972)" fill="#3c251d"/>
      </g>
      <g id="Grupo_956649" data-name="Grupo 956649" transform="translate(11.675 66.801)">
        <path id="Trazado_720985" data-name="Trazado 720985" d="M146.464,1363.605a.272.272,0,0,1-.155-.05.211.211,0,0,1-.042-.317c.918-1.061,22.542-25.989,27.307-27.133a.251.251,0,0,1,.305.16.226.226,0,0,1-.178.278c-4.6,1.105-26.815,26.715-27.039,26.973A.257.257,0,0,1,146.464,1363.605Z" transform="translate(-146.213 -1336.097)" fill="#3c251d"/>
      </g>
      <g id="Grupo_956652" data-name="Grupo 956652" transform="translate(18.723 65.698)">
        <g id="Grupo_956650" data-name="Grupo 956650" transform="translate(0 7.612)">
          <path id="Trazado_720986" data-name="Trazado 720986" d="M190.912,1382.2a9.707,9.707,0,0,0,3.06-.606,2.913,2.913,0,0,0,1.727-1.029,2.385,2.385,0,0,0,.246-1.064,5.025,5.025,0,0,0-.715-3.529c-1.89,1.793-3.863,3.8-5.842,5.921A4.873,4.873,0,0,0,190.912,1382.2Z" transform="translate(-189.388 -1375.973)" fill="#b5b130"/>
        </g>
        <g id="Grupo_956651" data-name="Grupo 956651" transform="translate(21.314)">
          <path id="Trazado_720987" data-name="Trazado 720987" d="M342.445,1341.225a16.508,16.508,0,0,0-1.474-1.829c-6.4-6.719-11.219-9.185-15.813-10.052a5.432,5.432,0,0,1-.787,1c-1.038,1.012-2.4,1.737-3.33,2.831a4.141,4.141,0,0,0-.994,3.622,3.5,3.5,0,0,0,2.856,2.542c1.583.217,3.06-.66,4.456-1.37s3.18-1.276,4.53-.495c1.242.719,1.517,2.229,2.28,3.372a5.274,5.274,0,0,0,8.278.378Z" transform="translate(-319.944 -1329.344)" fill="#b5b130"/>
        </g>
      </g>
      <g id="Grupo_956653" data-name="Grupo 956653" transform="translate(30.428 75.74)">
        <path id="Trazado_720988" data-name="Trazado 720988" d="M266.263,1396.685a4.759,4.759,0,0,1-2.3.579,4.5,4.5,0,0,1-1.712-.636,2.283,2.283,0,0,1-1.066-.913c-.323-.71.238-1.479.78-2.07a5.776,5.776,0,0,1,2.048-1.606c.384-.151.8-.231,1.18-.39a1.378,1.378,0,0,0,.846-.792,5.43,5.43,0,0,1,2.005.3,1.149,1.149,0,0,1,.891,1.036,3.954,3.954,0,0,1,.1,2.285C268.641,1395.572,267.4,1396.182,266.263,1396.685Z" transform="translate(-261.086 -1390.854)" fill="#b5b130"/>
      </g>
      <g id="Grupo_956654" data-name="Grupo 956654" transform="translate(45.61 76.535)">
        <path id="Trazado_720989" data-name="Trazado 720989" d="M358.264,1396.554a1.061,1.061,0,0,1-.326,1.081,2.544,2.544,0,0,1-1.116.567,2.886,2.886,0,0,1-1.322.091,3.787,3.787,0,0,1-.86-.326c-.232-.111-.487-.247-.549-.478a.537.537,0,0,1,.179-.5,1.86,1.86,0,0,1,.5-.31l.986-.48a4.861,4.861,0,0,1,1.027-.406,2.968,2.968,0,0,1,.79-.066.356.356,0,0,1,.137.025.35.35,0,0,1,.131.143A3.465,3.465,0,0,1,358.264,1396.554Z" transform="translate(-354.079 -1395.722)" fill="#b5b130"/>
      </g>
      <g id="Grupo_956655" data-name="Grupo 956655" transform="translate(44.934 131.965)">
        <path id="Trazado_720990" data-name="Trazado 720990" d="M375.055,1738.547a103.333,103.333,0,0,1-24.939-2.818.243.243,0,1,1,.132-.467,109.687,109.687,0,0,0,49.434,0,.254.254,0,0,1,.293.18.243.243,0,0,1-.18.293A107.52,107.52,0,0,1,375.055,1738.547Z" transform="translate(-349.94 -1735.252)" fill="#3c251d"/>
      </g>
    </g>
    <g id="Grupo_956682" data-name="Grupo 956682" transform="translate(895.798 1299.747)">
      <g id="Grupo_956657" data-name="Grupo 956657" transform="translate(2.352)">
        <rect id="Rectángulo_339570" data-name="Rectángulo 339570" width="5.291" height="131.175" rx="2.646" fill="#20238a"/>
      </g>
      <g id="Grupo_956658" data-name="Grupo 956658" transform="translate(142.564 0.509)">
        <path id="Trazado_720991" data-name="Trazado 720991" d="M1476.026,1151.243h0a2.523,2.523,0,0,0-2.523,2.523V1279.9a2.523,2.523,0,0,0,2.523,2.523h0a2.522,2.522,0,0,0,2.523-2.523v-126.13A2.522,2.522,0,0,0,1476.026,1151.243Z" transform="translate(-1473.503 -1151.243)" fill="#20238a"/>
      </g>
      <g id="Grupo_956659" data-name="Grupo 956659" transform="translate(0 122.323)">
        <rect id="Rectángulo_339571" data-name="Rectángulo 339571" width="148.851" height="14.715" fill="#20238a"/>
      </g>
      <g id="Grupo_956666" data-name="Grupo 956666" transform="translate(98.093 5.391)">
        <g id="Grupo_956662" data-name="Grupo 956662">
          <g id="Grupo_956660" data-name="Grupo 956660" transform="translate(4.143 4.143)">
            <path id="Trazado_720992" data-name="Trazado 720992" d="M1226.484,1206.525v92.065a16.572,16.572,0,0,0,33.143,0v-92.065Z" transform="translate(-1226.484 -1206.525)" fill="#95a3fb"/>
          </g>
          <g id="Grupo_956661" data-name="Grupo 956661">
            <path id="Trazado_720993" data-name="Trazado 720993" d="M1238.39,1189.434h-33.143a4.143,4.143,0,1,1,0-8.286h33.143a4.143,4.143,0,0,1,0,8.286Z" transform="translate(-1201.104 -1181.148)" fill="#cdd5fc"/>
          </g>
        </g>
        <g id="Grupo_956663" data-name="Grupo 956663" transform="translate(5.993 23.86)">
          <path id="Trazado_720994" data-name="Trazado 720994" d="M1237.815,1327.532V1399.1a14.551,14.551,0,1,0,29.1,0v-70.941C1258.908,1335.277,1247.051,1325.727,1237.815,1327.532Z" transform="translate(-1237.815 -1327.3)" fill="#d9d94f"/>
        </g>
        <g id="Grupo_956664" data-name="Grupo 956664" transform="translate(6.064 11.757)" opacity="0.79">
          <path id="Trazado_720995" data-name="Trazado 720995" d="M1240.713,1271.046a2.466,2.466,0,0,1-2.466-2.466v-12.949a2.466,2.466,0,1,1,4.933,0v12.949A2.466,2.466,0,0,1,1240.713,1271.046Z" transform="translate(-1238.247 -1253.164)" fill="#fff"/>
        </g>
        <g id="Grupo_956665" data-name="Grupo 956665" transform="translate(6.064 45.561)" opacity="0.79">
          <path id="Trazado_720996" data-name="Trazado 720996" d="M1240.713,1501.285a2.466,2.466,0,0,1-2.466-2.466V1462.7a2.466,2.466,0,0,1,4.933,0v36.124A2.466,2.466,0,0,1,1240.713,1501.285Z" transform="translate(-1238.247 -1460.229)" fill="#fff"/>
        </g>
      </g>
      <g id="Grupo_956673" data-name="Grupo 956673" transform="translate(53.71 5.391)">
        <g id="Grupo_956669" data-name="Grupo 956669">
          <g id="Grupo_956667" data-name="Grupo 956667" transform="translate(4.143 4.143)">
            <path id="Trazado_720997" data-name="Trazado 720997" d="M954.623,1206.525v92.065a16.572,16.572,0,0,0,33.143,0v-92.065Z" transform="translate(-954.623 -1206.525)" fill="#95a3fb"/>
          </g>
          <g id="Grupo_956668" data-name="Grupo 956668">
            <path id="Trazado_720998" data-name="Trazado 720998" d="M966.529,1189.434H933.386a4.143,4.143,0,0,1,0-8.286h33.143a4.143,4.143,0,1,1,0,8.286Z" transform="translate(-929.243 -1181.148)" fill="#cdd5fc"/>
          </g>
        </g>
        <g id="Grupo_956670" data-name="Grupo 956670" transform="translate(5.993 23.86)">
          <path id="Trazado_720999" data-name="Trazado 720999" d="M965.954,1327.532V1399.1a14.551,14.551,0,1,0,29.1,0v-70.941C987.047,1335.277,975.19,1325.727,965.954,1327.532Z" transform="translate(-965.954 -1327.3)" fill="#6562f5"/>
        </g>
        <g id="Grupo_956671" data-name="Grupo 956671" transform="translate(6.064 11.757)" opacity="0.79">
          <path id="Trazado_721000" data-name="Trazado 721000" d="M968.854,1271.046a2.466,2.466,0,0,1-2.466-2.466v-12.949a2.466,2.466,0,1,1,4.933,0v12.949A2.466,2.466,0,0,1,968.854,1271.046Z" transform="translate(-966.387 -1253.164)" fill="#fff"/>
        </g>
        <g id="Grupo_956672" data-name="Grupo 956672" transform="translate(6.064 45.561)" opacity="0.79">
          <path id="Trazado_721001" data-name="Trazado 721001" d="M968.854,1501.285a2.466,2.466,0,0,1-2.466-2.466V1462.7a2.466,2.466,0,0,1,4.933,0v36.124A2.466,2.466,0,0,1,968.854,1501.285Z" transform="translate(-966.387 -1460.229)" fill="#fff"/>
        </g>
      </g>
      <g id="Grupo_956680" data-name="Grupo 956680" transform="translate(10.142 5.391)">
        <g id="Grupo_956676" data-name="Grupo 956676">
          <g id="Grupo_956674" data-name="Grupo 956674" transform="translate(4.143 4.143)">
            <path id="Trazado_721002" data-name="Trazado 721002" d="M687.751,1206.525v92.065a16.572,16.572,0,0,0,33.143,0v-92.065Z" transform="translate(-687.751 -1206.525)" fill="#95a3fb"/>
          </g>
          <g id="Grupo_956675" data-name="Grupo 956675">
            <path id="Trazado_721003" data-name="Trazado 721003" d="M699.657,1189.434H666.514a4.143,4.143,0,1,1,0-8.286h33.143a4.143,4.143,0,1,1,0,8.286Z" transform="translate(-662.371 -1181.148)" fill="#cdd5fc"/>
          </g>
        </g>
        <g id="Grupo_956677" data-name="Grupo 956677" transform="translate(5.993 23.86)">
          <path id="Trazado_721004" data-name="Trazado 721004" d="M699.082,1327.532V1399.1a14.551,14.551,0,0,0,29.1,0v-70.941C720.175,1335.277,708.318,1325.727,699.082,1327.532Z" transform="translate(-699.082 -1327.3)" fill="#df659d"/>
        </g>
        <g id="Grupo_956678" data-name="Grupo 956678" transform="translate(6.064 11.757)" opacity="0.79">
          <path id="Trazado_721005" data-name="Trazado 721005" d="M701.981,1271.046a2.466,2.466,0,0,1-2.466-2.466v-12.949a2.466,2.466,0,1,1,4.933,0v12.949A2.466,2.466,0,0,1,701.981,1271.046Z" transform="translate(-699.514 -1253.164)" fill="#fff"/>
        </g>
        <g id="Grupo_956679" data-name="Grupo 956679" transform="translate(6.064 45.561)" opacity="0.79">
          <path id="Trazado_721006" data-name="Trazado 721006" d="M701.981,1501.285a2.466,2.466,0,0,1-2.466-2.466V1462.7a2.466,2.466,0,0,1,4.933,0v36.124A2.466,2.466,0,0,1,701.981,1501.285Z" transform="translate(-699.514 -1460.229)" fill="#fff"/>
        </g>
      </g>
      <g id="Grupo_956681" data-name="Grupo 956681" transform="translate(4.017 35.12)">
        <rect id="Rectángulo_339572" data-name="Rectángulo 339572" width="141.61" height="5.194" fill="#20238a"/>
      </g>
    </g>
    <g id="Grupo_956771" data-name="Grupo 956771" transform="translate(1019.104 1199.436)">
      <g id="Grupo_956683" data-name="Grupo 956683" transform="translate(68.328 99.354)">
        <path id="Trazado_721007" data-name="Trazado 721007" d="M1834.865,1142.261s-13.4,8.75-16.626,12.655-44.157,128.7-44.157,128.7l60.985,1.212,31.1-94.507Z" transform="translate(-1774.082 -1142.261)" fill="#dfdaf2"/>
      </g>
      <g id="Grupo_956684" data-name="Grupo 956684" transform="translate(113.967 100.613)">
        <path id="Trazado_721008" data-name="Trazado 721008" d="M2056.645,1219.261a.4.4,0,0,1-.4-.354l-2.6-20.538a.391.391,0,0,1,.028-.208l6-14.012-3.4-7.649a.4.4,0,0,1,0-.328l11.425-25.961a.4.4,0,1,1,.738.328l-11.353,25.8,3.4,7.645a.41.41,0,0,1,0,.322l-6.033,14.072,2.59,20.431a.4.4,0,0,1-.35.451A.291.291,0,0,1,2056.645,1219.261Z" transform="translate(-2053.637 -1149.969)" fill="#3c251d"/>
      </g>
      <g id="Grupo_956685" data-name="Grupo 956685" transform="translate(117.807 82.724)">
        <path id="Trazado_721009" data-name="Trazado 721009" d="M2088.261,1057.027s-8.176,35.148-10.778,54.528,11.281,45.414,13.305,63.348,37.314,10.124,37.314,10.124,23.43-42.521,21.695-45.992-17.356-69.711-19.959-73.472-16.488-24.009-16.488-24.009l-6.942-1.157Z" transform="translate(-2077.159 -1040.397)" fill="#20238a"/>
      </g>
      <g id="Grupo_956686" data-name="Grupo 956686" transform="translate(120.98 66.647)">
        <path id="Trazado_721010" data-name="Trazado 721010" d="M2096.594,957.91l11.032,17.042s14.631-4.343,19.987-13.958l-10.7-14.768-10.49-4.309Z" transform="translate(-2096.594 -941.917)" fill="#e38064"/>
      </g>
      <g id="Grupo_956719" data-name="Grupo 956719" transform="translate(0 68.021)">
        <g id="Grupo_956687" data-name="Grupo 956687" transform="translate(81.914 167.049)">
          <rect id="Rectángulo_339573" data-name="Rectángulo 339573" width="15.402" height="6.503" fill="#6562f5"/>
        </g>
        <g id="Grupo_956688" data-name="Grupo 956688" transform="translate(2.322 167.049)">
          <rect id="Rectángulo_339574" data-name="Rectángulo 339574" width="15.402" height="6.503" fill="#6562f5"/>
        </g>
        <g id="Grupo_956693" data-name="Grupo 956693" transform="translate(9.95 110.921)">
          <g id="Grupo_956689" data-name="Grupo 956689" transform="translate(0 0)">
            <ellipse id="Elipse_5469" data-name="Elipse 5469" cx="11.486" cy="18.002" rx="11.486" ry="18.002" transform="matrix(0.309, -0.951, 0.951, 0.309, 0, 21.851)" fill="#95a3fb"/>
          </g>
          <g id="Grupo_956690" data-name="Grupo 956690" transform="translate(11.879 8.479)">
            <path id="Trazado_721011" data-name="Trazado 721011" d="M1503.514,1702.6c4.374,0,8.724-1.4,11.313-5.956,4.109-7.23-5.79-14.546-6.213-14.854a.456.456,0,1,0-.537.738c.1.071,9.662,7.145,5.957,13.667-6.259,11.011-23.936,2.12-24.114,2.025a.457.457,0,1,0-.416.813C1489.617,1699.088,1496.592,1702.6,1503.514,1702.6Z" transform="translate(-1489.255 -1681.7)" fill="#6562f5"/>
          </g>
          <g id="Grupo_956691" data-name="Grupo 956691" transform="translate(36.256 19.677)">
            <path id="Trazado_721012" data-name="Trazado 721012" d="M1638.571,1755.431s1.2-.856,3.879-.457a25.186,25.186,0,0,1,6.446,2.453l.628-2.053s-7.986-1.312-8.842-5.077Z" transform="translate(-1638.571 -1750.297)" fill="#6562f5"/>
          </g>
          <g id="Grupo_956692" data-name="Grupo 956692" transform="translate(40.477 21.845)">
            <circle id="Elipse_5470" data-name="Elipse 5470" cx="2.396" cy="2.396" r="2.396" fill="#6562f5"/>
          </g>
        </g>
        <g id="Grupo_956694" data-name="Grupo 956694" transform="translate(20.273 91.638)">
          <rect id="Rectángulo_339575" data-name="Rectángulo 339575" width="10.83" height="47.153" transform="translate(0 10.498) rotate(-75.763)" fill="#6562f5"/>
        </g>
        <g id="Grupo_956695" data-name="Grupo 956695" transform="translate(60.999 110.234)">
          <path id="Trazado_721013" data-name="Trazado 721013" d="M1735.118,1627l-4.563-1.445-1.369,4.564,2.966,4.107Z" transform="translate(-1729.185 -1625.557)" fill="#95a3fb"/>
        </g>
        <g id="Grupo_956696" data-name="Grupo 956696" transform="translate(54.99 32.198)">
          <path id="Trazado_721014" data-name="Trazado 721014" d="M1704.245,1175.624l17.342,3.879s11.18,13.919,5.02,28.979-14.147,18.025-14.147,18.025l-8.215-1.825-11.865,30.347s38.838-3.1,49.97-51.339c6.845-29.663-12.778-50.427-12.778-50.427l-17.569-5.7Z" transform="translate(-1692.38 -1147.559)" fill="#fff"/>
        </g>
        <g id="Grupo_956698" data-name="Grupo 956698" transform="translate(62.899 2.052)">
          <g id="Grupo_956697" data-name="Grupo 956697" transform="translate(0 0)">
            <rect id="Rectángulo_339576" data-name="Rectángulo 339576" width="24.795" height="11.104" transform="matrix(0.246, -0.969, 0.969, 0.246, 0, 24.033)" fill="#95a3fb"/>
          </g>
        </g>
        <g id="Grupo_956700" data-name="Grupo 956700" transform="translate(39.406 60.915)">
          <g id="Grupo_956699" data-name="Grupo 956699" transform="translate(0 0)">
            <rect id="Rectángulo_339577" data-name="Rectángulo 339577" width="6.106" height="13.633" transform="translate(5.918 14.716) rotate(-165.763)" fill="#95a3fb"/>
          </g>
        </g>
        <g id="Grupo_956702" data-name="Grupo 956702" transform="translate(48.715 65.514)">
          <g id="Grupo_956701" data-name="Grupo 956701" transform="translate(0 0)">
            <rect id="Rectángulo_339578" data-name="Rectángulo 339578" width="13.633" height="6.106" transform="translate(0 13.215) rotate(-75.763)" fill="#95a3fb"/>
          </g>
        </g>
        <g id="Grupo_956704" data-name="Grupo 956704" transform="translate(58.979 65.882)">
          <g id="Grupo_956703" data-name="Grupo 956703" transform="translate(0 0)">
            <rect id="Rectángulo_339579" data-name="Rectángulo 339579" width="6.106" height="13.633" transform="matrix(-0.969, -0.246, 0.246, -0.969, 5.918, 14.716)" fill="#95a3fb"/>
          </g>
        </g>
        <g id="Grupo_956705" data-name="Grupo 956705" transform="translate(59.302 22.123)">
          <path id="Trazado_721015" data-name="Trazado 721015" d="M1723.319,1085.843l10.948,2.778,1.344,3.283-1.777,7-15.039-3.816,1.777-7Z" transform="translate(-1718.795 -1085.843)" fill="#6562f5"/>
        </g>
        <g id="Grupo_956706" data-name="Grupo 956706" transform="translate(51.203 24.958)">
          <rect id="Rectángulo_339580" data-name="Rectángulo 339580" width="39.55" height="15.516" transform="translate(0 38.335) rotate(-75.763)" fill="#fff"/>
        </g>
        <g id="Grupo_956707" data-name="Grupo 956707" transform="translate(67.638 0)">
          <rect id="Rectángulo_339581" data-name="Rectángulo 339581" width="3.137" height="13.291" transform="translate(0 3.041) rotate(-75.763)" fill="#6562f5"/>
        </g>
        <g id="Grupo_956708" data-name="Grupo 956708" transform="translate(39.231 59.95)">
          <rect id="Rectángulo_339582" data-name="Rectángulo 339582" width="7.682" height="29.891" transform="matrix(0.246, -0.969, 0.969, 0.246, 0, 7.446)" fill="#6562f5"/>
        </g>
        <g id="Grupo_956709" data-name="Grupo 956709" transform="translate(60.314 30.753)">
          <path id="Trazado_721016" data-name="Trazado 721016" d="M1739.824,1140.228l-6.921-1.521-7.91,31.716,6.769,1.749Z" transform="translate(-1724.993 -1138.707)" fill="#95a3fb"/>
        </g>
        <g id="Grupo_956713" data-name="Grupo 956713" transform="translate(66.928 33.944)">
          <g id="Grupo_956710" data-name="Grupo 956710" transform="translate(0 0)">
            <circle id="Elipse_5471" data-name="Elipse 5471" cx="6.313" cy="6.313" r="6.313" transform="translate(0 12.495) rotate(-81.759)" fill="#95a3fb"/>
          </g>
          <g id="Grupo_956712" data-name="Grupo 956712" transform="translate(0.155 0.156)">
            <g id="Grupo_956711" data-name="Grupo 956711">
              <path id="Trazado_721017" data-name="Trazado 721017" d="M1766.456,1166.207a7,7,0,1,1,7,7A7.005,7.005,0,0,1,1766.456,1166.207Zm1.369,0a5.628,5.628,0,1,0,5.629-5.628A5.634,5.634,0,0,0,1767.825,1166.207Z" transform="translate(-1766.456 -1159.21)" fill="#6562f5"/>
            </g>
          </g>
        </g>
        <g id="Grupo_956714" data-name="Grupo 956714" transform="translate(74.537 50.528)">
          <circle id="Elipse_5472" data-name="Elipse 5472" cx="3.08" cy="3.08" r="3.08" fill="#95a3fb"/>
        </g>
        <g id="Grupo_956715" data-name="Grupo 956715" transform="translate(67.235 114.569)">
          <path id="Trazado_721018" data-name="Trazado 721018" d="M1772.712,1652.112a5.32,5.32,0,0,1,4.929,3.327l20.512,36.832h-30.766v-34.834A5.324,5.324,0,0,1,1772.712,1652.112Z" transform="translate(-1767.388 -1652.112)" fill="#fff"/>
        </g>
        <g id="Grupo_956716" data-name="Grupo 956716" transform="translate(68.241 115.651)">
          <circle id="Elipse_5473" data-name="Elipse 5473" cx="3.08" cy="3.08" r="3.08" transform="translate(0 4.356) rotate(-45)" fill="#95a3fb"/>
        </g>
        <g id="Grupo_956717" data-name="Grupo 956717" transform="translate(0 153.815)">
          <rect id="Rectángulo_339583" data-name="Rectángulo 339583" width="99.712" height="16.429" fill="#fff"/>
        </g>
        <g id="Grupo_956718" data-name="Grupo 956718" transform="translate(0 164.375)">
          <rect id="Rectángulo_339584" data-name="Rectángulo 339584" width="99.712" height="5.918" fill="#6562f5"/>
        </g>
      </g>
      <g id="Grupo_956739" data-name="Grupo 956739" transform="translate(49.242 168.871)">
        <g id="Grupo_956720" data-name="Grupo 956720" transform="translate(24.836)">
          <path id="Trazado_721019" data-name="Trazado 721019" d="M1846.623,1591.536c-6.343-4.387-9.82-7.028-11.293-8.859s-13.6-8.909-18.252-12.733c-4.31-3.54-9.479-2.046-7.231,4.541,2.1,6.152,14.893,11.024,12.971,11.291-5.93.825-8.086,1.19-8.086,1.19l4.513,25.656,4.232,4.3,12.565-2.053Z" transform="translate(-1809.302 -1568.079)" fill="#e38064"/>
        </g>
        <g id="Grupo_956721" data-name="Grupo 956721" transform="translate(18.081 42.43)">
          <path id="Trazado_721020" data-name="Trazado 721020" d="M1770.893,1840.777a4.037,4.037,0,0,0,1.914.076l24.138-4.787a4.082,4.082,0,1,0-1.59-8.008l-24.138,4.787a4.083,4.083,0,0,0-.324,7.932Z" transform="translate(-1767.926 -1827.977)" fill="#e38064"/>
        </g>
        <g id="Grupo_956722" data-name="Grupo 956722" transform="translate(0 18.209)">
          <path id="Trazado_721021" data-name="Trazado 721021" d="M1662.134,1692.873a5.5,5.5,0,0,0,.88.008l24.708-1.805a5.449,5.449,0,0,0,5.037-5.828c-.22-3,6.586-7.2-5.828-5.036l-24.708,1.805a5.446,5.446,0,0,0-.089,10.856Z" transform="translate(-1657.172 -1679.615)" fill="#e38064"/>
        </g>
        <g id="Grupo_956723" data-name="Grupo 956723" transform="translate(32.184 20.315)">
          <path id="Trazado_721022" data-name="Trazado 721022" d="M1888.914,1698.215s-11.256-6.455-15.12-5.628c-10.966,2.347-15.2,4.949-15.2,4.949s-7.887,24.928-2.248,25.806c5.307.826,33.756-1.661,33.756-1.661Z" transform="translate(-1854.314 -1692.514)" fill="#e38064"/>
        </g>
        <g id="Grupo_956726" data-name="Grupo 956726" transform="translate(33.828 22.757)">
          <g id="Grupo_956724" data-name="Grupo 956724" transform="translate(0.179)">
            <path id="Trazado_721023" data-name="Trazado 721023" d="M1865.476,1709.955a.225.225,0,0,0,.375.145l2.423-2.24a.224.224,0,0,0-.3-.33l-2.423,2.24A.225.225,0,0,0,1865.476,1709.955Z" transform="translate(-1865.475 -1707.472)" fill="#3c251d"/>
          </g>
          <g id="Grupo_956725" data-name="Grupo 956725" transform="translate(0 0.232)">
            <path id="Trazado_721024" data-name="Trazado 721024" d="M1867.607,1710.872a.225.225,0,0,1-.344.209l-2.781-1.775a.224.224,0,0,1,.24-.378l2.781,1.776A.225.225,0,0,1,1867.607,1710.872Z" transform="translate(-1864.38 -1708.892)" fill="#3c251d"/>
          </g>
        </g>
        <g id="Grupo_956727" data-name="Grupo 956727" transform="translate(2.031 23.997)">
          <path id="Trazado_721025" data-name="Trazado 721025" d="M1670.917,1720.79a.216.216,0,0,0,.188-.08.221.221,0,0,0-.032-.307c-1.87-1.526-.7-4.061-.417-4.612l5.182-.279c1.082,1.286.626,4.817.62,4.854a.218.218,0,0,0,.187.246h.01a.217.217,0,0,0,.235-.187c.022-.158.5-3.922-.8-5.287a.233.233,0,0,0-.17-.069l-5.407.291a.214.214,0,0,0-.176.113c-.019.031-1.884,3.352.464,5.268A.208.208,0,0,0,1670.917,1720.79Z" transform="translate(-1669.614 -1715.071)" fill="#3c251d"/>
        </g>
        <g id="Grupo_956728" data-name="Grupo 956728" transform="translate(10.535 27.051)">
          <path id="Trazado_721026" data-name="Trazado 721026" d="M1746.881,1744.525c-.14.027-.282.049-.426.068l-18.31,2.277a5.57,5.57,0,0,1-6.413-4.66,5.754,5.754,0,0,1,5.2-6.1l18.31-2.277a5.57,5.57,0,0,1,6.414,4.661A5.688,5.688,0,0,1,1746.881,1744.525Z" transform="translate(-1721.701 -1733.778)" fill="#e38064"/>
        </g>
        <g id="Grupo_956729" data-name="Grupo 956729" transform="translate(12.132 35.31)">
          <path id="Trazado_721027" data-name="Trazado 721027" d="M1756.663,1795.116c-.14.027-.282.049-.426.068l-18.31,2.276a5.57,5.57,0,0,1-6.413-4.66,5.755,5.755,0,0,1,5.2-6.1l18.31-2.277a5.571,5.571,0,0,1,6.414,4.661A5.688,5.688,0,0,1,1756.663,1795.116Z" transform="translate(-1731.483 -1784.37)" fill="#e38064"/>
        </g>
        <g id="Grupo_956730" data-name="Grupo 956730" transform="translate(11.951 29.175)">
          <path id="Trazado_721028" data-name="Trazado 721028" d="M1745.777,1747.062a.223.223,0,0,1-.178.169c-.363.071-14.376,1.589-14.974,1.653a.222.222,0,0,1-.246-.2.22.22,0,0,1,.2-.249c5.033-.545,14.631-1.592,14.937-1.647a.226.226,0,0,1,.263.179A.215.215,0,0,1,1745.777,1747.062Z" transform="translate(-1730.376 -1746.786)" fill="#3c251d"/>
        </g>
        <g id="Grupo_956731" data-name="Grupo 956731" transform="translate(13.261 38.335)">
          <path id="Trazado_721029" data-name="Trazado 721029" d="M1749.419,1803.173a.229.229,0,0,1-.194.174l-10.575,1.176a.226.226,0,0,1-.052-.449l10.575-1.176a.226.226,0,0,1,.249.2A.366.366,0,0,1,1749.419,1803.173Z" transform="translate(-1738.398 -1802.896)" fill="#3c251d"/>
        </g>
        <g id="Grupo_956732" data-name="Grupo 956732" transform="translate(19.156 46.723)">
          <path id="Trazado_721030" data-name="Trazado 721030" d="M1782.5,1854.551a.222.222,0,0,1-.178.169l-7.542,1.458a.224.224,0,0,1-.263-.178.222.222,0,0,1,.18-.264l7.542-1.458a.224.224,0,0,1,.263.178A.21.21,0,0,1,1782.5,1854.551Z" transform="translate(-1774.512 -1854.274)" fill="#3c251d"/>
        </g>
        <g id="Grupo_956735" data-name="Grupo 956735" transform="translate(35.066 31.085)">
          <g id="Grupo_956733" data-name="Grupo 956733" transform="translate(0.179)">
            <path id="Trazado_721031" data-name="Trazado 721031" d="M1873.058,1760.971a.221.221,0,0,0,.059.132.223.223,0,0,0,.316.013l2.423-2.24a.224.224,0,0,0-.3-.33l-2.423,2.24A.224.224,0,0,0,1873.058,1760.971Z" transform="translate(-1873.057 -1758.488)" fill="#3c251d"/>
          </g>
          <g id="Grupo_956734" data-name="Grupo 956734" transform="translate(0 0.232)">
            <path id="Trazado_721032" data-name="Trazado 721032" d="M1875.19,1761.888a.22.22,0,0,1-.035.14.223.223,0,0,1-.308.069l-2.781-1.776a.224.224,0,0,1,.24-.378l2.781,1.776A.224.224,0,0,1,1875.19,1761.888Z" transform="translate(-1871.962 -1759.908)" fill="#3c251d"/>
          </g>
        </g>
        <g id="Grupo_956738" data-name="Grupo 956738" transform="translate(35.948 38.862)">
          <g id="Grupo_956736" data-name="Grupo 956736" transform="translate(0.179)">
            <path id="Trazado_721033" data-name="Trazado 721033" d="M1878.465,1808.6a.219.219,0,0,0,.059.132.223.223,0,0,0,.316.013l2.423-2.24a.224.224,0,0,0-.3-.329l-2.423,2.239A.226.226,0,0,0,1878.465,1808.6Z" transform="translate(-1878.464 -1806.122)" fill="#3c251d"/>
          </g>
          <g id="Grupo_956737" data-name="Grupo 956737" transform="translate(0 0.232)">
            <path id="Trazado_721034" data-name="Trazado 721034" d="M1880.6,1809.522a.218.218,0,0,1-.035.14.223.223,0,0,1-.308.069l-2.781-1.776a.224.224,0,0,1,.24-.378l2.781,1.776A.221.221,0,0,1,1880.6,1809.522Z" transform="translate(-1877.369 -1807.542)" fill="#3c251d"/>
          </g>
        </g>
      </g>
      <g id="Grupo_956740" data-name="Grupo 956740" transform="translate(94.556 151.134)">
        <path id="Trazado_721035" data-name="Trazado 721035" d="M2014.141,1459.433s19.959,77.232-4.339,85.042-75.063-38.182-75.063-38.182" transform="translate(-1934.739 -1459.433)" fill="none"/>
      </g>
      <g id="Grupo_956741" data-name="Grupo 956741" transform="translate(129.111 87.642)">
        <path id="Trazado_721036" data-name="Trazado 721036" d="M2148.22,1080.615l-1.818,1.615s.606,11.713,5.25,10.3,11.51-7.068,15.751-22.011l-8.481,1.212Z" transform="translate(-2146.403 -1070.518)" fill="#e38064"/>
      </g>
      <g id="Grupo_956742" data-name="Grupo 956742" transform="translate(139.391 82.404)">
        <path id="Trazado_721037" data-name="Trazado 721037" d="M2219.98,1038.437c38.421,15.361,55.612,42.976,70.455,79.954,16.777,41.8,18.04,77.814,18.04,77.814l-94.507-.539-4.6-81.124Z" transform="translate(-2209.372 -1038.437)" fill="#f3f0fb"/>
      </g>
      <g id="Grupo_956743" data-name="Grupo 956743" transform="translate(91.262 108.24)">
        <path id="Trazado_721038" data-name="Trazado 721038" d="M1975.915,1331.631c-25.25,0-51.926-7.026-61.356-10.7l18.752-48.175c15.66,6.045,34.637,9.958,44.6,9.557,2.447-12.3-.263-41.047-3.12-51.927,2.291,8.721,11.667,17.991,24.532,17.991v-51.7c21.972,0,25.888,21.519,27.175,28.593,7.383,40.561,8.934,91.639-25.607,104.645C1993.193,1332.825,1984.7,1331.631,1975.915,1331.631Z" transform="translate(-1914.559 -1196.687)" fill="#f3f0fb"/>
      </g>
      <g id="Grupo_956744" data-name="Grupo 956744" transform="translate(155.043 135.005)">
        <path id="Trazado_721039" data-name="Trazado 721039" d="M2353.83,1368.6a.4.4,0,0,1-.274-.107c-14.6-13.615-47.453-3.382-47.784-3.278a.4.4,0,1,1-.246-.77c.338-.107,33.635-10.479,48.579,3.455a.4.4,0,0,1,.022.571A.413.413,0,0,1,2353.83,1368.6Z" transform="translate(-2305.245 -1360.633)" fill="#3c251d"/>
      </g>
      <g id="Grupo_956745" data-name="Grupo 956745" transform="translate(167.481 99.15)">
        <path id="Trazado_721040" data-name="Trazado 721040" d="M2391.8,1177.358a.4.4,0,0,1-.4-.388c-.6-16.682-9.826-35.191-9.917-35.374a.4.4,0,1,1,.719-.366c.095.189,9.4,18.853,10.005,35.708a.407.407,0,0,1-.388.42Z" transform="translate(-2381.432 -1141.007)" fill="#3c251d"/>
      </g>
      <g id="Grupo_956746" data-name="Grupo 956746" transform="translate(179.932 157.916)">
        <path id="Trazado_721041" data-name="Trazado 721041" d="M2458.1,1583.9a.4.4,0,0,1-.154-.776c35.9-15.048,25.712-81.022,25.6-81.687a.4.4,0,1,1,.8-.126c.11.669,10.4,67.264-26.091,82.558A.378.378,0,0,1,2458.1,1583.9Z" transform="translate(-2457.699 -1500.971)" fill="#3c251d"/>
      </g>
      <g id="Grupo_956747" data-name="Grupo 956747" transform="translate(207.395 161.686)">
        <path id="Trazado_721042" data-name="Trazado 721042" d="M2626.326,1539.143a.4.4,0,0,1-.208-.751c2.038-1.221,1.912-10.447,1.691-13.9a.407.407,0,0,1,.379-.429.425.425,0,0,1,.429.379c.082,1.318.741,12.949-2.082,14.643A.412.412,0,0,1,2626.326,1539.143Z" transform="translate(-2625.923 -1524.064)" fill="#3c251d"/>
      </g>
      <g id="Grupo_956748" data-name="Grupo 956748" transform="translate(109.61 183.907)">
        <path id="Trazado_721043" data-name="Trazado 721043" d="M2108.447,1682.924a.41.41,0,0,1-.354-.205c-.06-.11-6.386-10.848-28.735-11.375-22.687-.533-51.841-10.28-52.135-10.378a.4.4,0,0,1,.259-.764c.291.1,29.332,9.8,51.9,10.334,22.854.54,29.165,11.327,29.423,11.785a.407.407,0,0,1-.155.549A.387.387,0,0,1,2108.447,1682.924Z" transform="translate(-2026.949 -1660.18)" fill="#3c251d"/>
      </g>
      <g id="Grupo_956749" data-name="Grupo 956749" transform="translate(154.083 162.489)">
        <path id="Trazado_721044" data-name="Trazado 721044" d="M2299.9,1560.768a.323.323,0,0,1-.095-.012.4.4,0,0,1-.3-.486c2.505-10.3-.111-30.622-.139-30.824a.4.4,0,0,1,.347-.454.381.381,0,0,1,.454.347c.025.208,2.663,20.677.12,31.121A.4.4,0,0,1,2299.9,1560.768Z" transform="translate(-2299.365 -1528.984)" fill="#3c251d"/>
      </g>
      <g id="Grupo_956750" data-name="Grupo 956750" transform="translate(155.97 190.552)">
        <path id="Trazado_721045" data-name="Trazado 721045" d="M2338.791,1704.328a.454.454,0,0,1-.142-.025c-.142-.054-14.293-5.285-27.189-.8a.4.4,0,1,1-.265-.763c13.179-4.569,27.593.757,27.738.811a.4.4,0,0,1-.142.783Z" transform="translate(-2310.923 -1700.885)" fill="#3c251d"/>
      </g>
      <g id="Grupo_956751" data-name="Grupo 956751" transform="translate(105.081 189.151)">
        <path id="Trazado_721046" data-name="Trazado 721046" d="M1999.611,1735.916a.448.448,0,0,1-.126-.019.407.407,0,0,1-.259-.511l14-42.811a.418.418,0,0,1,.511-.259.407.407,0,0,1,.259.511l-14,42.811A.405.405,0,0,1,1999.611,1735.916Z" transform="translate(-1999.206 -1692.299)" fill="#3c251d"/>
      </g>
      <g id="Grupo_956752" data-name="Grupo 956752" transform="translate(143.582 84.134)">
        <path id="Trazado_721047" data-name="Trazado 721047" d="M2235.444,1144.89a.367.367,0,0,1-.06,0,.409.409,0,0,1-.341-.46l4.3-27.95-2.957-23.1a.4.4,0,0,1,.06-.268l12.041-18.73-2.407-24.9a.4.4,0,0,1,.363-.439.382.382,0,0,1,.438.363l2.423,25.04a.406.406,0,0,1-.06.255l-12.037,18.724,2.944,23.012a.6.6,0,0,1,0,.11l-4.31,28A.406.406,0,0,1,2235.444,1144.89Z" transform="translate(-2235.04 -1049.028)" fill="#3c251d"/>
      </g>
      <g id="Grupo_956753" data-name="Grupo 956753" transform="translate(130.836 0)">
        <path id="Trazado_721048" data-name="Trazado 721048" d="M2166.367,534.295c-2.03-.4-4.264-1.116-6.057-.083-1.655.955-2.236,3.02-2.67,4.881-.514,2.2-1.026,4.537-.353,6.7.8,2.567,3.193,4.594,3.3,7.281.059,1.528-.657,3.01-.573,4.537a6.678,6.678,0,0,0,.749,2.517,14.136,14.136,0,0,0,8.037,7.1c1.549-1.754,4.334-1.287,6.626-.809a58.543,58.543,0,0,0,11.791,1.234c2.556.007,5.58-.439,6.741-2.716a6.117,6.117,0,0,0,.544-2.119c.278-2.524-.126-5.347-2-7.056-1.521-1.385-3.91-1.973-4.673-3.884-.693-1.736.351-3.662,1.526-5.115s2.591-2.91,2.771-4.77c.218-2.262-1.522-4.283-3.486-5.427-3.26-1.9-7.207-2.155-10.979-2.052S2170.068,535.029,2166.367,534.295Z" transform="translate(-2156.966 -533.678)" fill="#763424"/>
      </g>
      <g id="Grupo_956754" data-name="Grupo 956754" transform="translate(74.817 40.088)">
        <path id="Trazado_721049" data-name="Trazado 721049" d="M1827.754,801.19a.626.626,0,0,0-.123-1.188c-.108-.022-10.825-2.292-12.252-7.01-1.456-4.82,2.822-12.753,2.864-12.833a.626.626,0,0,0-1.1-.6c-.187.343-4.574,8.474-2.963,13.795,1.641,5.428,12.726,7.777,13.2,7.875A.622.622,0,0,0,1827.754,801.19Z" transform="translate(-1813.826 -779.231)" fill="#763424"/>
      </g>
      <g id="Grupo_956755" data-name="Grupo 956755" transform="translate(121.135 69.77)">
        <path id="Trazado_721050" data-name="Trazado 721050" d="M2103.188,983.144l-5.644-6.749,6.563-15.347S2108.064,969.6,2103.188,983.144Z" transform="translate(-2097.544 -961.048)" fill="#3c251d"/>
      </g>
      <g id="Grupo_956756" data-name="Grupo 956756" transform="translate(78.962 18.265)">
        <path id="Trazado_721051" data-name="Trazado 721051" d="M1839.365,674.648c.486,4.82,4.635,10.916,7.512,20.012s4.768,30.693,25.323,25.726c18.141-4.383,18.477-30.291,18.477-30.291l2.443-26.747c-2.817-14-15.568-20.224-29.464-16.925q-.48.114-.968.247C1835.867,654,1839.365,674.648,1839.365,674.648Z" transform="translate(-1839.216 -645.556)" fill="#e38064"/>
      </g>
      <g id="Grupo_956757" data-name="Grupo 956757" transform="translate(76.436 16.038)">
        <path id="Trazado_721052" data-name="Trazado 721052" d="M1855.868,632.275a33.779,33.779,0,0,1,9.424-.049c6.754.939,14.1,3.692,18.8,8.7,5.816,6.194,8.082,14.783,9.016,23.136a50.12,50.12,0,0,1-.174,12.609c-.5,3.523-3.448,8.147-1.869,11.62.405.892,2.59,3.279,1.811,4.324-1.007,1.35-1.674-.182-4.182-2.279s1.047,1.211-.377,1.6-19.462-8-21.645-10.919-7.445-11.79-7.445-11.79-.879,14.736-3.608,9.726c-6.092-11.183-30.336-8.95-31.87-22.4-.119-1.045,1.552-3.224,2.041-4.047a41.506,41.506,0,0,1,7.307-9.05A42.825,42.825,0,0,1,1855.868,632.275Z" transform="translate(-1823.746 -631.92)" fill="#763424"/>
      </g>
      <g id="Grupo_956758" data-name="Grupo 956758" transform="translate(84.158 65.767)">
        <path id="Trazado_721053" data-name="Trazado 721053" d="M1873.7,936.524s-3.362,7.33-2.508,9.407,5.841,4.807,5.841,4.807l3.466-7.7Z" transform="translate(-1871.048 -936.524)" fill="#e38064"/>
      </g>
      <g id="Grupo_956759" data-name="Grupo 956759" transform="translate(89.058 62.1)">
        <path id="Trazado_721054" data-name="Trazado 721054" d="M1903.346,916.165c-.47-1.337-1.292-2.266-1.834-2.075s-.6,1.429-.13,2.766,1.292,2.265,1.834,2.074S1903.816,917.5,1903.346,916.165Z" transform="translate(-1901.063 -914.066)" fill="#3c251d"/>
      </g>
      <g id="Grupo_956760" data-name="Grupo 956760" transform="translate(96.004 75.781)">
        <path id="Trazado_721055" data-name="Trazado 721055" d="M1944.58,1009.339c-2.669-2.917.884-4.066,2.1-6.553s2.17-5.494,5.6-4.829c5.473,1.061,4.416,4.825,1.386,8.357S1946.788,1011.751,1944.58,1009.339Z" transform="translate(-1943.61 -997.863)" fill="#fff"/>
      </g>
      <g id="Grupo_956761" data-name="Grupo 956761" transform="translate(85.565 57.681)">
        <path id="Trazado_721056" data-name="Trazado 721056" d="M1887.873,888.617a.651.651,0,0,0-.219-1.141c-5.08-1.47-7.681.92-7.788,1.023a.651.651,0,0,0-.025.921.667.667,0,0,0,.918.028c.093-.093,2.214-1.97,6.533-.72A.651.651,0,0,0,1887.873,888.617Z" transform="translate(-1879.663 -886.999)" fill="#763424"/>
      </g>
      <g id="Grupo_956762" data-name="Grupo 956762" transform="translate(91.957 65.188)">
        <path id="Trazado_721057" data-name="Trazado 721057" d="M1918.92,938.942a1.27,1.27,0,0,0,.024,1.064c.411.891,1.877,1.233,2.745,1.353a7.97,7.97,0,0,0,5.531-1.777,5.031,5.031,0,0,0,2.05-2.8,3.292,3.292,0,0,0-1.436-3.482c-1.587-.909-2.914.307-4.021,1.377a25,25,0,0,1-3.118,2.563A4.819,4.819,0,0,0,1918.92,938.942Z" transform="translate(-1918.815 -932.98)" fill="#dc5c43"/>
      </g>
      <g id="Grupo_956763" data-name="Grupo 956763" transform="translate(81.188 40.202)">
        <path id="Trazado_721058" data-name="Trazado 721058" d="M1889.863,783.961a.313.313,0,0,0-.222-.584c-13.131,4.353-27.78.881-36.337-3.413a.313.313,0,1,0-.28.559c8.662,4.35,23.5,7.862,36.811,3.447A.125.125,0,0,0,1889.863,783.961Z" transform="translate(-1852.851 -779.932)" fill="#fff"/>
      </g>
      <g id="Grupo_956764" data-name="Grupo 956764" transform="translate(128.818 16.065)">
        <path id="Trazado_721059" data-name="Trazado 721059" d="M2162.488,652.787a6.394,6.394,0,0,0,2.782-2.536,1.166,1.166,0,0,0,.21-.709,1.43,1.43,0,0,0-.374-.726c-1.1-1.3-2.931-1.667-4.554-2.1s-3.5-1.322-3.942-2.856c-.473-1.658,1.048-3.207.21-4.787-.694-1.311-2.5-1.68-3.721-2.627-1.624-1.255-2.339-3.624-4.255-4.236a3.154,3.154,0,0,0-3.4,1.294,3.39,3.39,0,0,0-.285,4.072c.943,1.292,2.817,1.767,3.779,3.049,1.382,1.841.174,4.277,1.459,6.17,1.442,2.123,4.731,1.942,6.836,3.523,1.291.969,2.267,2.662,3.791,2.8A2.775,2.775,0,0,0,2162.488,652.787Z" transform="translate(-2144.603 -632.08)" fill="#edbc2c"/>
      </g>
      <g id="Grupo_956765" data-name="Grupo 956765" transform="translate(149.493 4.115)">
        <path id="Trazado_721060" data-name="Trazado 721060" d="M2283.051,590.8a19.9,19.9,0,0,1-11.645-3.834.4.4,0,0,1-.074-.565.4.4,0,0,1,.566-.073,18.817,18.817,0,0,0,13.287,3.515c3.051-.432,6.538-2.464,6.981-5.9a11.416,11.416,0,0,0-3.815-9.51l-.369-.313a4.787,4.787,0,0,1-1.888-2.458,4.556,4.556,0,0,1,.71-3.01,8.756,8.756,0,0,0,.592-1.388,5.145,5.145,0,0,0-1.079-4.417,16.069,16.069,0,0,0-3.741-3.237.4.4,0,0,1-.1-.562.41.41,0,0,1,.563-.1,16.64,16.64,0,0,1,3.92,3.414,5.942,5.942,0,0,1,1.212,5.131,9.656,9.656,0,0,1-.644,1.521,3.909,3.909,0,0,0-.646,2.474,4.116,4.116,0,0,0,1.615,2.013l.38.322a12.263,12.263,0,0,1,4.088,10.223c-.5,3.856-4.324,6.124-7.669,6.6A15.917,15.917,0,0,1,2283.051,590.8Z" transform="translate(-2271.249 -558.882)" fill="#763424"/>
      </g>
      <g id="Grupo_956766" data-name="Grupo 956766" transform="translate(85.493 58.069)">
        <path id="Trazado_721061" data-name="Trazado 721061" d="M1887.888,904.09c-1.919,0-4.525-2.152-6.484-5.355a14.854,14.854,0,0,1-2.108-5.43c-.246-1.776.13-3.067,1.057-3.635a2.086,2.086,0,0,1,1.1-.3c1.921,0,4.528,2.155,6.49,5.358,1.691,2.761,2.5,5.72,2.057,7.544a2.327,2.327,0,0,1-1.01,1.517A2.1,2.1,0,0,1,1887.888,904.09Zm-6.431-13.908a1.279,1.279,0,0,0-.681.177c-.628.385-.877,1.417-.678,2.837a13.93,13.93,0,0,0,1.994,5.118c1.76,2.88,4.2,4.969,5.8,4.969a1.3,1.3,0,0,0,.684-.177,1.554,1.554,0,0,0,.647-1.022c.392-1.622-.375-4.342-1.959-6.929C1885.5,892.274,1883.058,890.182,1881.458,890.182Z" transform="translate(-1879.223 -889.374)" fill="#3c251d"/>
      </g>
      <g id="Grupo_956767" data-name="Grupo 956767" transform="translate(93.976 55.602)">
        <path id="Trazado_721062" data-name="Trazado 721062" d="M1931.588,883.075a.4.4,0,0,1-.189-.761l15.212-8.008a.4.4,0,0,1,.378.713l-15.212,8.008A.409.409,0,0,1,1931.588,883.075Z" transform="translate(-1931.184 -874.259)" fill="#3c251d"/>
      </g>
      <g id="Grupo_956768" data-name="Grupo 956768" transform="translate(85.686 65.929)">
        <path id="Trazado_721063" data-name="Trazado 721063" d="M1882.1,938.5a.394.394,0,0,1-.1-.013,3.179,3.179,0,0,0-1.019-.155.388.388,0,0,1-.527-.183.415.415,0,0,1,.189-.549,2.717,2.717,0,0,1,1.565.1.4.4,0,0,1-.1.8Z" transform="translate(-1880.406 -937.516)" fill="#3c251d"/>
      </g>
      <g id="Grupo_956769" data-name="Grupo 956769" transform="translate(106.937 49.857)">
        <path id="Trazado_721064" data-name="Trazado 721064" d="M2010.579,850.428s1.522-9.549,7.339-11.172,13.532,7.934,9.926,13.414-12.356,5.818-12.356,5.818Z" transform="translate(-2010.579 -839.074)" fill="#e38064"/>
      </g>
      <g id="Grupo_956770" data-name="Grupo 956770" transform="translate(110.855 53.724)">
        <path id="Trazado_721065" data-name="Trazado 721065" d="M2044.913,871.286a.244.244,0,0,0,.078-.08,5.33,5.33,0,0,0-1.347-6.809c-1.474-1.246-2.74-1.76-3.984-1.618-1.56.179-3.018,1.352-5.033,4.048a.25.25,0,0,0,.4.3c1.9-2.539,3.3-3.691,4.69-3.85,1.1-.125,2.243.352,3.6,1.5a4.762,4.762,0,0,1,1.243,6.169.25.25,0,0,0,.349.339Z" transform="translate(-2034.578 -862.756)" fill="#3c251d"/>
      </g>
    </g>
    <g id="Grupo_956774" data-name="Grupo 956774" transform="translate(1232.81 1298.226)">
      <g id="Grupo_956772" data-name="Grupo 956772" transform="translate(0 0)">
        <path id="Trazado_721066" data-name="Trazado 721066" d="M2676.859,1151.5h-11.873a.413.413,0,0,1-.413-.413v-11.873a.413.413,0,0,1,.413-.413h11.873a.413.413,0,0,1,.413.413v11.873A.413.413,0,0,1,2676.859,1151.5Zm-11.46-.826h11.047v-11.047H2665.4Z" transform="translate(-2664.573 -1138.802)" fill="#0540b7"/>
      </g>
      <g id="Grupo_956773" data-name="Grupo 956773" transform="translate(1.827 1.827)">
        <path id="Trazado_721067" data-name="Trazado 721067" d="M2679.423,1158.229a.413.413,0,0,1-.3-.13l-3.247-3.451a.413.413,0,1,1,.6-.566l2.912,3.094,5.286-7.017a.413.413,0,1,1,.66.5l-5.581,7.408a.411.411,0,0,1-.307.164Z" transform="translate(-2675.763 -1149.996)" fill="#0540b7"/>
      </g>
    </g>
    <g id="Grupo_956777" data-name="Grupo 956777" transform="translate(1032.667 1127.348)">
      <g id="Grupo_956775" data-name="Grupo 956775" transform="translate(0 0)">
        <path id="Trazado_721068" data-name="Trazado 721068" d="M1716.558,555.287h-21.022a.731.731,0,0,1-.731-.731V533.533a.731.731,0,0,1,.731-.731h21.022a.731.731,0,0,1,.732.731v21.023A.731.731,0,0,1,1716.558,555.287Zm-20.291-1.463h19.561v-19.56h-19.561Z" transform="translate(-1694.805 -532.802)" fill="#0540b7"/>
      </g>
      <g id="Grupo_956776" data-name="Grupo 956776" transform="translate(3.235 3.236)">
        <path id="Trazado_721069" data-name="Trazado 721069" d="M1711.394,557.49a.73.73,0,0,1-.533-.23l-5.75-6.11a.731.731,0,1,1,1.065-1l5.156,5.478,9.359-12.424a.731.731,0,0,1,1.168.88l-9.881,13.116a.728.728,0,0,1-.544.29Z" transform="translate(-1704.913 -542.912)" fill="#0540b7"/>
      </g>
    </g>
    <g id="Grupo_956780" data-name="Grupo 956780" transform="translate(841.414 1375.249)">
      <g id="Grupo_956778" data-name="Grupo 956778" transform="translate(0 0)">
        <path id="Trazado_721070" data-name="Trazado 721070" d="M275.947,1619.722H267.42a.3.3,0,0,1-.3-.3V1610.9a.3.3,0,0,1,.3-.3h8.528a.3.3,0,0,1,.3.3v8.527A.3.3,0,0,1,275.947,1619.722Zm-8.231-.593h7.934v-7.934h-7.934Z" transform="translate(-267.123 -1610.601)" fill="#0540b7"/>
      </g>
      <g id="Grupo_956779" data-name="Grupo 956779" transform="translate(1.312 1.312)">
        <path id="Trazado_721071" data-name="Trazado 721071" d="M277.789,1624.554a.3.3,0,0,1-.216-.094l-2.332-2.478a.3.3,0,1,1,.432-.407l2.091,2.222,3.8-5.04a.3.3,0,1,1,.474.357l-4.008,5.321a.3.3,0,0,1-.221.117Z" transform="translate(-275.16 -1618.641)" fill="#0540b7"/>
      </g>
    </g>
    <g id="Grupo_956782" data-name="Grupo 956782" transform="translate(837.667 1184.838)">
      <g id="Grupo_956781" data-name="Grupo 956781" transform="translate(0 0)">
        <path id="Trazado_721072" data-name="Trazado 721072" d="M570.742,910.91a.9.9,0,0,1-.4-.1l-8.548-4.5-8.547,4.5a.862.862,0,0,1-.9-.066.844.844,0,0,1-.339-.831l1.629-9.521-6.912-6.743a.845.845,0,0,1,.472-1.448l9.558-1.39,4.274-8.661a.886.886,0,0,1,1.529,0l4.274,8.661,9.558,1.39a.845.845,0,0,1,.472,1.448l-6.912,6.743,1.628,9.521a.844.844,0,0,1-.339.831A.824.824,0,0,1,570.742,910.91Zm-8.947-6.4a.907.907,0,0,1,.4.1l7.418,3.9-1.416-8.262a.833.833,0,0,1,.246-.751l6-5.852-8.3-1.206a.853.853,0,0,1-.644-.465l-3.709-7.518-3.708,7.518a.856.856,0,0,1-.645.465l-8.3,1.206,6,5.852a.834.834,0,0,1,.246.751l-1.415,8.262,7.417-3.9A.9.9,0,0,1,561.8,904.506Z" transform="translate(-546.467 -881.715)" fill="#0540b7"/>
      </g>
    </g>
    <g id="Grupo_956784" data-name="Grupo 956784" transform="translate(1195.996 1235.33)">
      <g id="Grupo_956783" data-name="Grupo 956783" transform="translate(0 0)">
        <path id="Trazado_721073" data-name="Trazado 721073" d="M2458.4,781.938h-10.25a.529.529,0,0,1-.528-.528v-8.016H2439.6a.529.529,0,0,1-.528-.528v-10.25a.529.529,0,0,1,.528-.528h8.013v-8.016a.529.529,0,0,1,.528-.528h10.25a.529.529,0,0,1,.528.528v8.016h8.016a.529.529,0,0,1,.528.528v10.25a.529.529,0,0,1-.528.528h-8.016v8.016A.529.529,0,0,1,2458.4,781.938Zm-9.723-1.056h9.195v-8.016a.529.529,0,0,1,.528-.528h8.016v-9.2H2458.4a.529.529,0,0,1-.528-.528V754.6h-9.195v8.016a.529.529,0,0,1-.528.528h-8.014v9.2h8.014a.529.529,0,0,1,.528.528Z" transform="translate(-2439.077 -753.545)" fill="#0540b7"/>
      </g>
    </g>
    <g id="Grupo_956818" data-name="Grupo 956818" transform="translate(1238.785 1325.182)">
      <g id="Grupo_956787" data-name="Grupo 956787" transform="translate(6.975 68.233)">
        <g id="Grupo_956786" data-name="Grupo 956786">
          <path id="Trazado_721075" data-name="Trazado 721075" d="M2795.795,1727.874a6.006,6.006,0,0,0-6.006-6.006H2749.9a6.006,6.006,0,0,0-6.005,6.006v8.932h51.9Z" transform="translate(-2743.895 -1721.868)" fill="#6562f5"/>
        </g>
      </g>
      <g id="Grupo_956789" data-name="Grupo 956789" transform="translate(6.975 83.17)">
        <g id="Grupo_956788" data-name="Grupo 956788">
          <path id="Trazado_721076" data-name="Trazado 721076" d="M2743.9,1813.366v11.171a16.766,16.766,0,0,0,16.766,16.766h18.368a16.766,16.766,0,0,0,16.766-16.766v-11.171Z" transform="translate(-2743.895 -1813.366)" fill="#6562f5"/>
        </g>
      </g>
      <g id="Grupo_956791" data-name="Grupo 956791" transform="translate(10.897 68.985)">
        <g id="Grupo_956790" data-name="Grupo 956790">
          <ellipse id="Elipse_5474" data-name="Elipse 5474" cx="22.888" cy="2.418" rx="22.888" ry="2.418" fill="#3c251d"/>
        </g>
      </g>
      <g id="Grupo_956793" data-name="Grupo 956793" transform="translate(7.665 5.696)">
        <g id="Grupo_956792" data-name="Grupo 956792">
          <path id="Trazado_721077" data-name="Trazado 721077" d="M2772.143,1361.637c.484-.645,7.576-20.792-.967-22.565s-12.088,5.48-13.378,14.99,2.1,21.6.484,22.082-3.868-5.8-8.22-2.418-.483,9.348,2.74,12.572,3.063,4.513,2.417,4.513-4.029-1.934-5.963.806-1.934,9.671,9.348,13.216c0,0,9.188,2.418,15.473-.161S2772.143,1361.637,2772.143,1361.637Z" transform="translate(-2748.119 -1338.803)" fill="#b5b130"/>
        </g>
      </g>
      <g id="Grupo_956795" data-name="Grupo 956795" transform="translate(20.65 10.895)">
        <g id="Grupo_956794" data-name="Grupo 956794">
          <path id="Trazado_721078" data-name="Trazado 721078" d="M2840.635,1431.909c1.29,0,9.886.86,13.539-1.074s13.324-15.9,10.315-19.342-5.8-2.794-5.8-2.794,11.605-12.464,5.588-14.184-7.951,1.29-7.951,1.29,8.381-25.789-4.513-25.144-5.8,24.929-5.8,24.929-2.149-9.886-9.026-8.167-5.587,14.4-1.934,23.855c0,0-4.513-3.868-7.092.86S2840.635,1431.909,2840.635,1431.909Z" transform="translate(-2827.662 -1370.649)" fill="#d9d94f"/>
        </g>
      </g>
      <g id="Grupo_956797" data-name="Grupo 956797" transform="translate(38.522 33.905)">
        <g id="Grupo_956796" data-name="Grupo 956796">
          <path id="Trazado_721079" data-name="Trazado 721079" d="M2940.456,1541.942a.415.415,0,0,0,.315-.145c.245-.276,5.953-6.847,4.266-11.071a3.548,3.548,0,0,0-2.214-2.25,5.2,5.2,0,0,0-3.622.509c.317-2.769,1.1-11.718-1.261-17.127a.407.407,0,0,0-.553-.217.418.418,0,0,0-.219.552c2.662,6.105,1.113,17.39,1.1,17.5a.418.418,0,0,0,.194.414.438.438,0,0,0,.457,0c.021-.017,2.033-1.33,3.662-.825a2.744,2.744,0,0,1,1.678,1.761c1.5,3.741-4.059,10.138-4.115,10.2a.417.417,0,0,0,.038.591A.41.41,0,0,0,2940.456,1541.942Z" transform="translate(-2937.133 -1511.6)" fill="#3c251d"/>
        </g>
      </g>
      <g id="Grupo_956799" data-name="Grupo 956799" transform="translate(20.202 49.637)">
        <g id="Grupo_956798" data-name="Grupo 956798">
          <path id="Trazado_721080" data-name="Trazado 721080" d="M2833.825,1626.278a.427.427,0,0,0,.29-.115.42.42,0,0,0,.013-.594c-2.854-2.988-9.874-11.442-8.1-14.657a3.832,3.832,0,0,1,2.322-1.974,6.3,6.3,0,0,1,4.138.683.43.43,0,0,0,.573-.155.42.42,0,0,0-.153-.575,7.05,7.05,0,0,0-4.779-.765,4.64,4.64,0,0,0-2.837,2.378c-2.432,4.411,7.793,15.186,8.23,15.643A.413.413,0,0,0,2833.825,1626.278Z" transform="translate(-2824.917 -1607.959)" fill="#3c251d"/>
        </g>
      </g>
      <g id="Grupo_956801" data-name="Grupo 956801" transform="translate(41.261 22.831)">
        <g id="Grupo_956800" data-name="Grupo 956800">
          <path id="Trazado_721081" data-name="Trazado 721081" d="M2957.718,1453.589a.42.42,0,0,0,.333-.164c.156-.2,3.814-4.979,3.126-7.748a2.3,2.3,0,0,0-1.351-1.6,3.078,3.078,0,0,0-2.619-.049c-2.181.982-3.234,4.358-3.278,4.5a.42.42,0,0,0,.8.243c.01-.03.987-3.156,2.821-3.98a2.19,2.19,0,0,1,1.923.053,1.466,1.466,0,0,1,.884,1.031c.491,1.97-1.982,5.744-2.978,7.031a.419.419,0,0,0,.078.588A.414.414,0,0,0,2957.718,1453.589Z" transform="translate(-2953.911 -1443.763)" fill="#3c251d"/>
        </g>
      </g>
      <g id="Grupo_956803" data-name="Grupo 956803" transform="translate(17.948 45.502)">
        <g id="Grupo_956802" data-name="Grupo 956802">
          <path id="Trazado_721082" data-name="Trazado 721082" d="M2811.632,1588a.366.366,0,0,0,.143-.026.42.42,0,0,0,.253-.539c-.021-.059-.513-1.563,1.19-3.268a2.065,2.065,0,0,1,1.438-.7.383.383,0,0,1,.059,0,2.545,2.545,0,0,1,1.593.831.414.414,0,0,0,.593.046.418.418,0,0,0,.048-.591,3.368,3.368,0,0,0-2.194-1.127,2.812,2.812,0,0,0-2.131.939c-2.1,2.1-1.417,4.066-1.388,4.151A.421.421,0,0,0,2811.632,1588Z" transform="translate(-2811.107 -1582.635)" fill="#3c251d"/>
        </g>
      </g>
      <g id="Grupo_956805" data-name="Grupo 956805" transform="translate(58.787 40.817)">
        <g id="Grupo_956804" data-name="Grupo 956804">
          <path id="Trazado_721083" data-name="Trazado 721083" d="M3062.051,1562.922c2.186,2.308,9.993-7.737,6.447-8.865S3059.149,1559.86,3062.051,1562.922Z" transform="translate(-3061.264 -1553.934)" fill="#d9d94f"/>
        </g>
      </g>
      <g id="Grupo_956807" data-name="Grupo 956807" transform="translate(8.143 26.47)">
        <g id="Grupo_956806" data-name="Grupo 956806">
          <path id="Trazado_721084" data-name="Trazado 721084" d="M2751.937,1466.181c-3.04.933,2.489,12.391,5.075,9.715S2755.969,1464.943,2751.937,1466.181Z" transform="translate(-2751.049 -1466.055)" fill="#d9d94f"/>
        </g>
      </g>
      <g id="Grupo_956809" data-name="Grupo 956809" transform="translate(55.386 22.695)">
        <g id="Grupo_956808" data-name="Grupo 956808">
          <path id="Trazado_721085" data-name="Trazado 721085" d="M3040.913,1445.542c1.687.844,2.256-2.257,1.289-2.579S3039.624,1444.9,3040.913,1445.542Z" transform="translate(-3040.433 -1442.931)" fill="#3c251d"/>
        </g>
      </g>
      <g id="Grupo_956811" data-name="Grupo 956811" transform="translate(7.355 35.589)">
        <g id="Grupo_956810" data-name="Grupo 956810">
          <path id="Trazado_721086" data-name="Trazado 721086" d="M2746.7,1524.525c1.688.844,2.257-2.256,1.29-2.579S2745.412,1523.881,2746.7,1524.525Z" transform="translate(-2746.221 -1521.915)" fill="#3c251d"/>
        </g>
      </g>
      <g id="Grupo_956813" data-name="Grupo 956813" transform="translate(36.185 0)">
        <g id="Grupo_956812" data-name="Grupo 956812">
          <path id="Trazado_721087" data-name="Trazado 721087" d="M2924.61,1311.653c3.084.308,2.095-7.737.322-7.737S2921.386,1311.33,2924.61,1311.653Z" transform="translate(-2922.82 -1303.916)" fill="#b5b130"/>
        </g>
      </g>
      <g id="Grupo_956815" data-name="Grupo 956815" transform="translate(0 50.039)">
        <g id="Grupo_956814" data-name="Grupo 956814">
          <path id="Trazado_721088" data-name="Trazado 721088" d="M2707.716,1614.7s-.322-5-4.513-4.19-1.128,10.154,2.257,9.51S2707.716,1614.7,2707.716,1614.7Z" transform="translate(-2701.171 -1610.424)" fill="#b5b130"/>
        </g>
      </g>
      <g id="Grupo_956817" data-name="Grupo 956817" transform="translate(7.042 81.692)">
        <g id="Grupo_956816" data-name="Grupo 956816">
          <path id="Trazado_721089" data-name="Trazado 721089" d="M2796.206,1804.471c-.388-.049-.777-.1-1.16-.132-2.822-.224-6.167.844-6.8,3.758a6.655,6.655,0,0,0,.261,3.118c.06.237.121.473.171.71.173.811.081,1.526-.225,1.74-.383.28-1.31-.209-1.833-.952a12.987,12.987,0,0,1-.68-1.123,7.946,7.946,0,0,0-2.045-2.639,4.872,4.872,0,0,0-7.345,2.436,7.979,7.979,0,0,0-.233,1.224,5.767,5.767,0,0,1-.143.816,2.359,2.359,0,0,1-2.078,1.652,2.424,2.424,0,0,1-2.224-1.45,6.208,6.208,0,0,1-.276-1.6,8.557,8.557,0,0,0-.4-2.2,5.181,5.181,0,0,0-8.071-1.99,8.547,8.547,0,0,0-1.792,2.677c-.174.353-.346.705-.544,1.04-.438.743-1.224,1.448-1.811,1.3-.67-.171-1.075-1.35-1.433-2.388l-.092-.267a7.558,7.558,0,0,0-2.587-3.833,4.41,4.41,0,0,0-5.189-.1,5.976,5.976,0,0,0-1.141,1.284c-.117.164-.233.328-.363.484a3.383,3.383,0,0,1-3.059,1.035,4.108,4.108,0,0,1-.809-.192v.946c0,.576.045,1.141.086,1.707.138.026.262.08.4.1a5.924,5.924,0,0,0,5.362-1.944c.167-.2.323-.416.475-.63a3.845,3.845,0,0,1,.639-.761,1.871,1.871,0,0,1,2.09.169,5.122,5.122,0,0,1,1.658,2.584l.088.257c.514,1.493,1.216,3.538,3.24,4.05,2.055.524,3.8-1.02,4.665-2.494.23-.39.433-.8.636-1.209a6.4,6.4,0,0,1,1.219-1.914,2.619,2.619,0,0,1,3.906.962,6.455,6.455,0,0,1,.258,1.554,8.286,8.286,0,0,0,.439,2.294,4.973,4.973,0,0,0,4.541,3.1c.07,0,.141,0,.211,0a4.966,4.966,0,0,0,4.438-3.529,8.477,8.477,0,0,0,.217-1.173,5.745,5.745,0,0,1,.15-.839,2.314,2.314,0,0,1,3.322-1.1,5.89,5.89,0,0,1,1.348,1.841,15.2,15.2,0,0,0,.82,1.347c1.25,1.771,3.623,2.848,5.424,1.577,1.2-.839,1.671-2.478,1.267-4.385-.058-.272-.126-.542-.2-.813a4.6,4.6,0,0,1-.24-1.937c.284-1.317,2.314-1.876,4.064-1.733.453.038.912.1,1.371.157Z" transform="translate(-2744.306 -1804.31)" fill="#95a3fb"/>
        </g>
      </g>
    </g>
    <g id="Grupo_956836" data-name="Grupo 956836" transform="translate(849.933 1047.644)">
      <g id="Grupo_956819" data-name="Grupo 956819" transform="translate(39.892 38.852)">
        <path id="Trazado_721090" data-name="Trazado 721090" d="M1344.175,797.109a1.044,1.044,0,0,0,.141-.53l-.029-16.543a1.053,1.053,0,0,0-2.107,0l.029,16.543a1.054,1.054,0,0,0,1.965.527Z" transform="translate(-1342.181 -778.984)" fill="#0540b7"/>
      </g>
      <g id="Grupo_956820" data-name="Grupo 956820" transform="translate(53.328 9.887)">
        <path id="Trazado_721091" data-name="Trazado 721091" d="M1426.475,619.683a1.045,1.045,0,0,0,.141-.53l-.029-16.543a1.053,1.053,0,0,0-2.107,0l.029,16.543a1.054,1.054,0,0,0,1.965.527Z" transform="translate(-1424.481 -601.558)" fill="#0540b7"/>
      </g>
      <g id="Grupo_956821" data-name="Grupo 956821" transform="translate(22.417 27.603)">
        <path id="Trazado_721092" data-name="Trazado 721092" d="M1251.328,719.083a1.044,1.044,0,0,0-.382-.394l-14.216-8.462a1.053,1.053,0,0,0-1.078,1.81l14.215,8.462a1.054,1.054,0,0,0,1.46-1.417Z" transform="translate(-1235.138 -710.079)" fill="#0540b7"/>
      </g>
      <g id="Grupo_956822" data-name="Grupo 956822" transform="translate(57.254 10.061)">
        <path id="Trazado_721093" data-name="Trazado 721093" d="M1450.524,620.752a1.048,1.048,0,0,0,.141-.53l-.029-16.543a1.053,1.053,0,0,0-2.107,0l.029,16.543a1.054,1.054,0,0,0,1.965.527Z" transform="translate(-1448.53 -602.627)" fill="#0540b7"/>
      </g>
      <g id="Grupo_956823" data-name="Grupo 956823" transform="translate(72.428 59.534)">
        <path id="Trazado_721094" data-name="Trazado 721094" d="M1557.243,915.43a1.044,1.044,0,0,0-.362-.413l-13.767-9.174a1.053,1.053,0,0,0-1.168,1.753l13.767,9.174a1.054,1.054,0,0,0,1.53-1.341Z" transform="translate(-1541.476 -905.667)" fill="#0540b7"/>
      </g>
      <g id="Grupo_956824" data-name="Grupo 956824" transform="translate(74.321 56.076)">
        <path id="Trazado_721095" data-name="Trazado 721095" d="M1568.837,894.252a1.045,1.045,0,0,0-.362-.413l-13.767-9.174a1.053,1.053,0,0,0-1.168,1.753l13.767,9.174a1.054,1.054,0,0,0,1.53-1.341Z" transform="translate(-1553.07 -884.489)" fill="#0540b7"/>
      </g>
      <g id="Grupo_956825" data-name="Grupo 956825" transform="translate(0 21.582)">
        <path id="Trazado_721096" data-name="Trazado 721096" d="M1097.826,674.706h2.13v3.609h4.143v-3.609h2.133v9.677H1104.1V680.2h-4.143v4.181h-2.13Z" transform="translate(-1097.826 -674.46)" fill="#0540b7"/>
        <path id="Trazado_721097" data-name="Trazado 721097" d="M1189.81,675.959a2.06,2.06,0,0,0-.773-.587,2.589,2.589,0,0,0-1.057-.205,2.672,2.672,0,0,0-1.117.234,2.643,2.643,0,0,0-.886.647,3.16,3.16,0,0,0-.59.991,3.843,3.843,0,0,0,0,2.5,3.17,3.17,0,0,0,.581.984,2.63,2.63,0,0,0,.871.65,2.5,2.5,0,0,0,1.073.23,2.437,2.437,0,0,0,1.161-.271,2.308,2.308,0,0,0,.833-.767l1.78,1.325a3.74,3.74,0,0,1-1.559,1.272,4.823,4.823,0,0,1-1.944.41,5.947,5.947,0,0,1-2.089-.356A4.776,4.776,0,0,1,1184.44,682a4.627,4.627,0,0,1-1.089-1.606,5.9,5.9,0,0,1,0-4.209,4.6,4.6,0,0,1,1.089-1.606,4.783,4.783,0,0,1,1.653-1.019,5.95,5.95,0,0,1,2.089-.357,5.06,5.06,0,0,1,.855.076,4.483,4.483,0,0,1,.874.24,3.854,3.854,0,0,1,.827.439,3.237,3.237,0,0,1,.713.669Z" transform="translate(-1169.064 -673.198)" fill="#0540b7"/>
      </g>
      <g id="Grupo_956826" data-name="Grupo 956826" transform="translate(52.605 76.654)">
        <path id="Trazado_721098" data-name="Trazado 721098" d="M1420.051,1010.537h1.934v3.275h3.761v-3.275h1.937v8.785h-1.937v-3.8h-3.761v3.8h-1.934Z" transform="translate(-1420.051 -1010.537)" fill="#0540b7"/>
      </g>
      <g id="Grupo_956827" data-name="Grupo 956827" transform="translate(81.22 32.683)">
        <path id="Trazado_721099" data-name="Trazado 721099" d="M1595.33,741.192h1.937v3.275h3.761v-3.275h1.934v8.784h-1.934v-3.8h-3.761v3.8h-1.937Z" transform="translate(-1595.33 -741.192)" fill="#0540b7"/>
      </g>
      <g id="Grupo_956828" data-name="Grupo 956828" transform="translate(51.784 0)">
        <path id="Trazado_721100" data-name="Trazado 721100" d="M1415.026,545.615a4.889,4.889,0,0,1,.357-1.912,4.131,4.131,0,0,1,.984-1.458,4.341,4.341,0,0,1,1.5-.924,5.756,5.756,0,0,1,3.8,0,4.342,4.342,0,0,1,1.5.924,4.186,4.186,0,0,1,.988,1.458,5.343,5.343,0,0,1,0,3.821,4.227,4.227,0,0,1-.988,1.461,4.393,4.393,0,0,1-1.5.925,5.76,5.76,0,0,1-3.8,0,4.392,4.392,0,0,1-1.5-.925,4.171,4.171,0,0,1-.984-1.461A4.863,4.863,0,0,1,1415.026,545.615Zm2.01,0a3.131,3.131,0,0,0,.2,1.136,2.584,2.584,0,0,0,.549.893,2.554,2.554,0,0,0,.864.59,2.9,2.9,0,0,0,1.123.208,2.931,2.931,0,0,0,1.123-.208,2.527,2.527,0,0,0,.858-.59,2.608,2.608,0,0,0,.555-.893,3.483,3.483,0,0,0,0-2.266,2.574,2.574,0,0,0-.555-.9,2.528,2.528,0,0,0-.858-.59,2.876,2.876,0,0,0-1.123-.211,2.844,2.844,0,0,0-1.123.211,2.5,2.5,0,0,0-1.413,1.489A3.133,3.133,0,0,0,1417.036,545.615Z" transform="translate(-1415.026 -540.999)" fill="#0540b7"/>
      </g>
      <g id="Grupo_956829" data-name="Grupo 956829" transform="translate(8.396 27.085)">
        <path id="Trazado_721101" data-name="Trazado 721101" d="M1151,709.672h.467a2.69,2.69,0,0,0,.391-.028,1.151,1.151,0,0,0,.347-.11.663.663,0,0,0,.249-.227.71.71,0,0,0,.1-.385.62.62,0,0,0-.246-.5.9.9,0,0,0-.593-.2.832.832,0,0,0-.549.18.813.813,0,0,0-.287.445l-1.568-.322a2.154,2.154,0,0,1,.341-.745,1.907,1.907,0,0,1,.543-.5,2.374,2.374,0,0,1,.7-.278,3.381,3.381,0,0,1,.811-.091,3.245,3.245,0,0,1,.861.11,2.115,2.115,0,0,1,.726.341,1.684,1.684,0,0,1,.5.584,1.751,1.751,0,0,1,.186.836,1.585,1.585,0,0,1-.293.962,1.353,1.353,0,0,1-.858.511v.028a1.335,1.335,0,0,1,.54.183,1.453,1.453,0,0,1,.394.35,1.555,1.555,0,0,1,.246.477,1.811,1.811,0,0,1,.089.558,1.973,1.973,0,0,1-.2.887,1.891,1.891,0,0,1-.524.631,2.279,2.279,0,0,1-.77.375,3.494,3.494,0,0,1-.937.123,2.829,2.829,0,0,1-1.556-.417,2.039,2.039,0,0,1-.858-1.322l1.5-.353a.9.9,0,0,0,1,.779.889.889,0,0,0,.688-.24.879.879,0,0,0,.227-.625.72.72,0,0,0-.12-.442.733.733,0,0,0-.309-.234,1.381,1.381,0,0,0-.429-.088c-.158-.01-.316-.016-.473-.016H1151Z" transform="translate(-1149.256 -706.905)" fill="#0540b7"/>
      </g>
      <g id="Grupo_956830" data-name="Grupo 956830" transform="translate(89.301 65.434)">
        <path id="Trazado_721102" data-name="Trazado 721102" d="M1644.828,946.425a4.895,4.895,0,0,1,.356-1.912,4.13,4.13,0,0,1,.985-1.458,4.339,4.339,0,0,1,1.5-.925,5.758,5.758,0,0,1,3.8,0,4.338,4.338,0,0,1,1.5.925,4.182,4.182,0,0,1,.988,1.458,5.339,5.339,0,0,1,0,3.821,4.225,4.225,0,0,1-.988,1.461,4.39,4.39,0,0,1-1.5.925,5.758,5.758,0,0,1-3.8,0,4.391,4.391,0,0,1-1.5-.925,4.172,4.172,0,0,1-.985-1.461A4.867,4.867,0,0,1,1644.828,946.425Zm2.01,0a3.134,3.134,0,0,0,.2,1.136,2.586,2.586,0,0,0,.549.893,2.553,2.553,0,0,0,.865.59,2.9,2.9,0,0,0,1.123.208,2.932,2.932,0,0,0,1.123-.208,2.532,2.532,0,0,0,.858-.59,2.613,2.613,0,0,0,.555-.893,3.49,3.49,0,0,0,0-2.266,2.579,2.579,0,0,0-.555-.9,2.533,2.533,0,0,0-.858-.59,2.874,2.874,0,0,0-1.123-.211,2.843,2.843,0,0,0-1.123.211,2.5,2.5,0,0,0-1.413,1.489A3.136,3.136,0,0,0,1646.838,946.425Z" transform="translate(-1644.828 -941.809)" fill="#0540b7"/>
      </g>
      <g id="Grupo_956831" data-name="Grupo 956831" transform="translate(52.261 65.273)">
        <path id="Trazado_721103" data-name="Trazado 721103" d="M1417.944,940.824h2.631l3.733,6.105h.025v-6.105h1.934v8.784h-2.531l-3.834-6.254h-.025v6.254h-1.934Z" transform="translate(-1417.944 -940.824)" fill="#0540b7"/>
      </g>
      <g id="Grupo_956832" data-name="Grupo 956832" transform="translate(70.931 32.683)">
        <path id="Trazado_721104" data-name="Trazado 721104" d="M1532.3,741.192h2.632l3.733,6.105h.025v-6.105h1.937v8.784H1538.1l-3.837-6.254h-.025v6.254H1532.3Z" transform="translate(-1532.304 -741.192)" fill="#0540b7"/>
      </g>
      <g id="Grupo_956835" data-name="Grupo 956835" transform="translate(36.458 25.463)">
        <g id="Grupo_956833" data-name="Grupo 956833">
          <path id="Trazado_721105" data-name="Trazado 721105" d="M1340.9,699.237l13.373,7.721.347-2.232-13.192-7.617a1.057,1.057,0,0,0-1.054,0l-18.7,10.8a1.054,1.054,0,0,0-.527.912v21.6a1.053,1.053,0,0,0,.527.912l14.011,8.09.713-2.021-13.145-7.589V709.428Z" transform="translate(-1321.147 -696.968)" fill="#0540b7"/>
        </g>
        <g id="Grupo_956834" data-name="Grupo 956834" transform="translate(24.483 17.879)">
          <path id="Trazado_721106" data-name="Trazado 721106" d="M1484.039,806.484v14.962l-12.924,7.463.663,2.049,13.841-7.992a1.053,1.053,0,0,0,.527-.913v-15.57Z" transform="translate(-1471.115 -806.484)" fill="#0540b7"/>
        </g>
      </g>
    </g>
    <g id="Grupo_956837" data-name="Grupo 956837" transform="translate(938.199 1293.963) rotate(-93)">
      <path id="Trazado_721107" data-name="Trazado 721107" d="M898.485,873.38l0,0a1.42,1.42,0,0,1-1.986.05l-7.79-8.766c-3.87-4.357-3.543-10.876-2.719-18.331-6.144-.038-13.694-.142-17.715-4.667l-8.677-9.766a1.183,1.183,0,0,1-.265-1,1.679,1.679,0,0,1,.553-.974,1.422,1.422,0,0,1,1.991-.054l2.381,2.68,12.856-13.167-1.516-1.706a1.547,1.547,0,0,1,2.279-2.024l8.678,9.767c4.018,4.521,3.234,12.033,2.549,18.138,7.5.06,14.012.5,17.884,4.858l7.789,8.766a1.183,1.183,0,0,1,.265,1,1.68,1.68,0,0,1-.554.975,1.422,1.422,0,0,1-1.991.054l-.983-1.107-14.588,11.219,1.849,2.082a1.164,1.164,0,0,1,.281.853A1.654,1.654,0,0,1,898.485,873.38Zm-38.309-43.121a1.23,1.23,0,0,0-.415.719.754.754,0,0,0,.161.636l8.677,9.766c3.646,4.1,10.142,4.475,17.633,4.521a.215.215,0,0,1,.162.074.219.219,0,0,1,.054.169c-.83,7.449-1.207,13.964,2.586,18.234l7.789,8.766a.989.989,0,0,0,1.369-.089l.145.164-.142-.166a1.212,1.212,0,0,0,.424-.815.727.727,0,0,0-.172-.537l-2.006-2.258a.218.218,0,0,1-.053-.165.23.23,0,0,1,.083-.153l14.935-11.487a.219.219,0,0,1,.3.029l1.12,1.26a.99.99,0,0,0,1.37-.09,1.232,1.232,0,0,0,.414-.719.753.753,0,0,0-.161-.635l-7.79-8.767c-3.793-4.27-10.306-4.659-17.8-4.711a.216.216,0,0,1-.162-.074.219.219,0,0,1-.054-.169c.68-6.062,1.527-13.6-2.415-18.042l-8.679-9.767a1.121,1.121,0,0,0-1.623,1.444l1.651,1.858a.219.219,0,0,1-.007.3L864.4,833.034a.209.209,0,0,1-.162.066.218.218,0,0,1-.159-.074l-2.538-2.856A.989.989,0,0,0,860.175,830.259Zm50.942,27.08-.011.01-14.935,11.486a.219.219,0,0,1-.3-.029l-2.329-2.621a.218.218,0,0,1-.053-.17.2.2,0,0,1,.091-.153l15.467-10.887a.217.217,0,0,1,.29.034l1.8,2.022a.217.217,0,0,1,.053.165A.214.214,0,0,1,911.117,857.339Zm-15.052,11.024,14.587-11.218-1.51-1.7-15.107,10.633Zm12.686-13.687a.116.116,0,0,1-.019.015l-15.468,10.886a.217.217,0,0,1-.29-.034l-2.168-2.439a.219.219,0,0,1,.042-.327l15.773-10.543a.219.219,0,0,1,.286.037l1.862,2.1a.219.219,0,0,1,.053.17A.221.221,0,0,1,908.751,854.675Zm-15.579,10.431,15.108-10.633-1.573-1.77L891.3,863Zm13.143-13.172a.14.14,0,0,1-.023.018l-15.712,10.505a.218.218,0,0,1-.3-.049,10.164,10.164,0,0,1-1.554-2.875.214.214,0,0,1,.091-.256l15.325-9.7a.218.218,0,0,1,.266.025c.074.069.151.133.228.2a3.458,3.458,0,0,1,.392.361l1.3,1.465a.219.219,0,0,1,.053.172A.216.216,0,0,1,906.315,851.934Zm-15.807,10.044,15.332-10.249-1.135-1.278a3.11,3.11,0,0,0-.342-.314l-.122-.1-15.038,9.52A9.717,9.717,0,0,0,890.509,861.978Zm13.239-12.645a.3.3,0,0,1-.029.021l-14.91,9.437a.218.218,0,0,1-.2.02.222.222,0,0,1-.132-.148,17.639,17.639,0,0,1-.53-3.2.224.224,0,0,1,.1-.2l12.753-7.763a.217.217,0,0,1,.194-.017A11.056,11.056,0,0,1,903.736,849a.218.218,0,0,1,.085.183A.221.221,0,0,1,903.747,849.333Zm-14.918,8.926,14.386-9.1a10.8,10.8,0,0,0-2.272-1.225L888.4,855.565A17.493,17.493,0,0,0,888.83,858.259Zm11.21-10.786a.291.291,0,0,1-.031.023l-11.786,7.173a.219.219,0,0,1-.332-.179c-.033-.883-.022-1.866.032-3a.227.227,0,0,1,.106-.178l8.171-4.945a.215.215,0,0,1,.142-.029,21.7,21.7,0,0,1,3.62.763.219.219,0,0,1,.079.372ZM888.317,854.1l11.042-6.722a22.483,22.483,0,0,0-3-.6l-8.005,4.844C888.313,852.544,888.3,853.358,888.317,854.1Zm6.775-7.557c-.01.009-.021.015-.032.024l-6.751,4.085a.219.219,0,0,1-.331-.2c.083-1.239.207-2.575.4-4.336a.221.221,0,0,1,.22-.194c2.435.017,4.449.065,6.368.241a.219.219,0,0,1,.125.382Zm-6.648,3.515,5.813-3.518c-1.653-.125-3.408-.165-5.465-.183C888.633,847.822,888.523,848.99,888.444,850.059Zm-1.81-6.128a.217.217,0,0,1-.147.054c-1.307-.009-3.021-.031-4.7-.12a.217.217,0,0,1-.187-.127.22.22,0,0,1,.026-.226l5.217-6.7a.222.222,0,0,1,.246-.071.218.218,0,0,1,.145.209c-.037,2.069-.239,4.229-.531,6.835A.217.217,0,0,1,886.634,843.931Zm-4.4-.482c1.447.068,2.9.088,4.061.1.247-2.232.427-4.135.489-5.934Zm-1.323.3a.226.226,0,0,1-.16.055c-1.178-.085-2.125-.188-2.982-.327a.219.219,0,0,1-.137-.351l8.813-11.245a.223.223,0,0,1,.223-.078.218.218,0,0,1,.164.168,19.9,19.9,0,0,1,.4,3.6.222.222,0,0,1-.046.141l-6.243,8.008A.384.384,0,0,1,880.911,843.746Zm-2.7-.648c.718.1,1.513.188,2.459.258l6.123-7.855a20.1,20.1,0,0,0-.3-2.975Zm-1.2.13a.216.216,0,0,1-.188.05,16.062,16.062,0,0,1-3.1-.924.218.218,0,0,1-.126-.148.215.215,0,0,1,.043-.191l11.29-13.9a.22.22,0,0,1,.18-.081.216.216,0,0,1,.172.1,10.018,10.018,0,0,1,1.3,2.749.22.22,0,0,1-.037.2l-9.5,12.122A.337.337,0,0,1,877.011,843.228Zm-2.849-1.166a15.941,15.941,0,0,0,2.616.76l9.348-11.927a9.559,9.559,0,0,0-1.05-2.272Zm-1-.138a.22.22,0,0,1-.246.03A9.224,9.224,0,0,1,870.3,840a.218.218,0,0,1,0-.29L882.61,825.3a.234.234,0,0,1,.165-.077.219.219,0,0,1,.166.075l1.659,1.867a1.159,1.159,0,0,1,.1.141.747.747,0,0,0,.055.08.218.218,0,0,1,0,.277L873.192,841.9A.251.251,0,0,1,873.167,841.924Zm-2.415-2.075a8.833,8.833,0,0,0,2.214,1.633l11.349-13.971a.528.528,0,0,0-.042-.059l-1.492-1.679Zm-.728-.465a.224.224,0,0,1-.143.055.219.219,0,0,1-.166-.074l-2.168-2.44a.218.218,0,0,1,0-.291l12.631-14.079a.2.2,0,0,1,.163-.073.22.22,0,0,1,.164.074l1.863,2.1a.219.219,0,0,1,0,.287l-12.326,14.423A.2.2,0,0,1,870.024,839.383ZM868,836.78l1.871,2.106L881.914,824.8l-1.573-1.77Zm-.718-.476a.218.218,0,0,1-.309-.019l-2.33-2.622a.219.219,0,0,1,.007-.3l13.164-13.48a.2.2,0,0,1,.162-.066.218.218,0,0,1,.159.074l1.8,2.022a.218.218,0,0,1,0,.291L867.3,836.286A.128.128,0,0,1,867.287,836.3Zm-2.176-2.779,2.031,2.286,12.336-13.752-1.51-1.7Z" transform="translate(-859.31 -815.283)" fill="#0540b7"/>
    </g>
    <g id="Grupo_956838" data-name="Grupo 956838" transform="translate(1163.838 1047.644)">
      <path id="Trazado_721107-2" data-name="Trazado 721107" d="M911.977,893.389l-.005,0a1.909,1.909,0,0,1-2.67.068l-10.472-11.786c-5.2-5.857-4.763-14.622-3.656-24.643-8.26-.051-18.411-.19-23.816-6.274l-11.666-13.129a1.59,1.59,0,0,1-.356-1.338,2.257,2.257,0,0,1,.744-1.31,1.912,1.912,0,0,1,2.677-.073l3.2,3.6,17.284-17.7-2.038-2.293a2.08,2.08,0,0,1,3.064-2.721l11.667,13.131c5.4,6.078,4.348,16.178,3.427,24.385,10.083.08,18.838.672,24.043,6.531l10.472,11.785a1.591,1.591,0,0,1,.356,1.338,2.258,2.258,0,0,1-.744,1.31,1.911,1.911,0,0,1-2.676.073l-1.322-1.488-19.612,15.082,2.486,2.8a1.564,1.564,0,0,1,.378,1.147A2.223,2.223,0,0,1,911.977,893.389Zm-51.5-57.972a1.653,1.653,0,0,0-.557.967,1.013,1.013,0,0,0,.216.855L871.8,850.367c4.9,5.517,13.635,6.017,23.705,6.078a.289.289,0,0,1,.218.1.3.3,0,0,1,.072.227c-1.116,10.015-1.623,18.773,3.477,24.514l10.472,11.786a1.329,1.329,0,0,0,1.84-.119l.194.221-.191-.223a1.63,1.63,0,0,0,.571-1.1.978.978,0,0,0-.231-.722l-2.7-3.036a.294.294,0,0,1-.072-.222.308.308,0,0,1,.112-.206l20.079-15.443a.3.3,0,0,1,.4.039l1.505,1.694a1.331,1.331,0,0,0,1.842-.12,1.656,1.656,0,0,0,.557-.967,1.012,1.012,0,0,0-.216-.854L922.963,860.23c-5.1-5.74-13.855-6.264-23.932-6.334a.294.294,0,0,1-.29-.327c.914-8.15,2.052-18.29-3.247-24.256l-11.668-13.131a1.507,1.507,0,0,0-2.182,1.942l2.22,2.5a.3.3,0,0,1-.009.4l-17.7,18.125a.281.281,0,0,1-.218.088.293.293,0,0,1-.214-.1l-3.412-3.84A1.33,1.33,0,0,0,860.473,835.417Zm68.486,36.406-.015.013-20.078,15.442a.3.3,0,0,1-.4-.039l-3.131-3.524a.294.294,0,0,1-.071-.229.273.273,0,0,1,.123-.206l20.794-14.636a.292.292,0,0,1,.39.045l2.415,2.718a.3.3,0,0,1-.026.415Zm-20.236,14.821,19.611-15.081-2.03-2.286-20.31,14.3Zm17.055-18.4a.156.156,0,0,1-.026.02L904.959,882.9a.292.292,0,0,1-.389-.045l-2.915-3.279a.295.295,0,0,1,.057-.439l21.2-14.174a.3.3,0,0,1,.384.05l2.5,2.817a.3.3,0,0,1-.026.415Zm-20.944,14.023,20.311-14.295-2.114-2.379-20.713,13.843ZM922.5,864.557a.185.185,0,0,1-.031.024L901.35,878.7a.293.293,0,0,1-.4-.066,13.663,13.663,0,0,1-2.089-3.864.287.287,0,0,1,.122-.344l20.6-13.042a.293.293,0,0,1,.358.034c.1.093.2.179.307.266a4.67,4.67,0,0,1,.527.485l1.749,1.969a.294.294,0,0,1,.071.232A.29.29,0,0,1,922.5,864.557Zm-21.25,13.5,20.613-13.779-1.527-1.718a4.168,4.168,0,0,0-.46-.422l-.164-.138L899.5,874.8A13.066,13.066,0,0,0,901.253,878.06Zm17.8-17a.393.393,0,0,1-.039.028l-20.044,12.687a.293.293,0,0,1-.263.026.3.3,0,0,1-.177-.2,23.708,23.708,0,0,1-.712-4.3.3.3,0,0,1,.14-.274L915.1,858.593a.291.291,0,0,1,.261-.022,14.857,14.857,0,0,1,3.674,2.036.292.292,0,0,1,.114.245A.3.3,0,0,1,919.052,861.059ZM899,873.06l19.341-12.24a14.536,14.536,0,0,0-3.054-1.647l-16.866,10.266A23.52,23.52,0,0,0,899,873.06Zm15.071-14.5a.4.4,0,0,1-.042.031l-15.845,9.644a.294.294,0,0,1-.447-.24c-.044-1.187-.03-2.508.043-4.035a.3.3,0,0,1,.142-.239l10.985-6.648a.289.289,0,0,1,.19-.039,29.169,29.169,0,0,1,4.866,1.026.294.294,0,0,1,.107.5Zm-15.76,8.91,14.845-9.037a30.238,30.238,0,0,0-4.032-.8l-10.763,6.512C898.3,865.377,898.284,866.471,898.307,867.469Zm9.108-10.159a.524.524,0,0,1-.043.032l-9.076,5.492a.294.294,0,0,1-.445-.272c.112-1.665.279-3.462.54-5.829a.3.3,0,0,1,.3-.261c3.273.023,5.982.088,8.561.325a.294.294,0,0,1,.168.514Zm-8.937,4.726,7.815-4.729c-2.223-.169-4.582-.223-7.348-.246C898.731,859.029,898.585,860.6,898.478,862.036Zm-2.434-8.238a.292.292,0,0,1-.2.073c-1.756-.012-4.061-.041-6.315-.161a.292.292,0,0,1-.252-.17.3.3,0,0,1,.035-.3l7.014-9a.3.3,0,0,1,.331-.1.293.293,0,0,1,.2.281c-.049,2.781-.321,5.685-.714,9.189A.292.292,0,0,1,896.044,853.8Zm-5.916-.647c1.945.091,3.9.119,5.459.131.333-3,.574-5.559.658-7.978Zm-1.778.4a.3.3,0,0,1-.215.074c-1.583-.114-2.857-.253-4.009-.44a.3.3,0,0,1-.185-.471l11.848-15.117a.3.3,0,0,1,.3-.1.294.294,0,0,1,.22.225,26.746,26.746,0,0,1,.532,4.84.3.3,0,0,1-.061.189l-8.393,10.766A.5.5,0,0,1,888.35,853.549Zm-3.635-.871c.966.141,2.033.253,3.306.347l8.232-10.56a27.026,27.026,0,0,0-.4-4Zm-1.607.174a.291.291,0,0,1-.253.067,21.585,21.585,0,0,1-4.17-1.242.293.293,0,0,1-.17-.2.288.288,0,0,1,.057-.256l15.178-18.688a.3.3,0,0,1,.241-.108.29.29,0,0,1,.231.13,13.464,13.464,0,0,1,1.748,3.7.3.3,0,0,1-.05.265l-12.776,16.3A.444.444,0,0,1,883.107,852.852Zm-3.83-1.567a21.428,21.428,0,0,0,3.517,1.022l12.568-16.034a12.849,12.849,0,0,0-1.412-3.055Zm-1.339-.186a.3.3,0,0,1-.331.041,12.4,12.4,0,0,1-3.529-2.624.293.293,0,0,1-.007-.389l16.561-19.379a.315.315,0,0,1,.221-.1.293.293,0,0,1,.224.1l2.23,2.51a1.564,1.564,0,0,1,.136.189.978.978,0,0,0,.073.107.294.294,0,0,1,0,.373l-15.547,19.14A.363.363,0,0,1,877.939,851.1Zm-3.247-2.789a11.877,11.877,0,0,0,2.976,2.2l15.257-18.783a.723.723,0,0,0-.057-.079l-2.006-2.257Zm-.979-.626a.3.3,0,0,1-.192.074.294.294,0,0,1-.223-.1l-2.914-3.28a.292.292,0,0,1,0-.391l16.981-18.928a.263.263,0,0,1,.219-.1.3.3,0,0,1,.22.1l2.5,2.817a.3.3,0,0,1,0,.386l-16.571,19.39A.276.276,0,0,1,873.713,847.684Zm-2.714-3.5,2.515,2.832L889.7,828.077l-2.114-2.379Zm-.965-.641a.292.292,0,0,1-.2.074.3.3,0,0,1-.22-.1l-3.132-3.525a.3.3,0,0,1,.01-.4l17.7-18.123a.272.272,0,0,1,.218-.088.294.294,0,0,1,.214.1l2.415,2.718a.293.293,0,0,1,0,.391l-16.98,18.93A.178.178,0,0,1,870.034,843.543Zm-2.925-3.737,2.731,3.074,16.585-18.489-2.03-2.285Z" transform="translate(-859.31 -815.283)" fill="#0540b7"/>
    </g>
  </g>
</svg>
