<svg xmlns="http://www.w3.org/2000/svg" width="190" height="190" viewBox="0 0 190 190">
  <g id="Grupo_958431" data-name="Grupo 958431" transform="translate(-179 -652)">
    <circle id="Elipse_5477" data-name="Elipse 5477" cx="95" cy="95" r="95" transform="translate(179 652)" fill="#e2ecc4"/>
    <g id="Filled_outline" data-name="Filled outline" transform="translate(209.5 682.5)">
      <path id="Trazado_721108" data-name="Trazado 721108" d="M280.947,113.914a6.533,6.533,0,0,0-4.62-1.914H252.083a4.083,4.083,0,0,0,0,8.167,4.083,4.083,0,0,0,0,8.167,4.083,4.083,0,0,0,0,8.167h12.25v1.91a16.821,16.821,0,0,0,8.167,14.424h13.067v-34.3Z" transform="translate(-184.633 -76.4)" fill="#3ba6d4"/>
      <path id="Trazado_721109" data-name="Trazado 721109" d="M24,64H99.133v9.8H24Z" transform="translate(-6.367 -38.2)" fill="#e0e0de"/>
      <path id="Trazado_721110" data-name="Trazado 721110" d="M56,64h9.8v9.8H56Z" transform="translate(-31.833 -38.2)" fill="#ffb531"/>
      <path id="Trazado_721111" data-name="Trazado 721111" d="M136,64h9.8v9.8H136Z" transform="translate(-95.5 -38.2)" fill="#d46c6c"/>
      <path id="Trazado_721112" data-name="Trazado 721112" d="M216,64h9.8v9.8H216Z" transform="translate(-159.167 -38.2)" fill="#60d1e0"/>
      <path id="Trazado_721113" data-name="Trazado 721113" d="M323.433,82.8v9.8h24.5V37.657a4.9,4.9,0,0,0-1.674-3.687l-10.008-8.758A4.9,4.9,0,0,0,333.025,24H316.083a4.083,4.083,0,0,0,0,8.167h12.25L336.5,38.7V56.667L320.167,40.333a4.62,4.62,0,1,0-6.533,6.533L325.067,58.3a28.046,28.046,0,0,0-1.91,23.763l.276.737v9.8" transform="translate(-235.567 -6.367)" fill="#4db7e5"/>
      <path id="Trazado_721114" data-name="Trazado 721114" d="M392.5,360v26.133H368L371.267,360Z" transform="translate(-280.133 -273.767)" fill="#fec9a3"/>
      <path id="Trazado_721115" data-name="Trazado 721115" d="M402.846,360v4.9H381l.612-4.9Z" transform="translate(-290.479 -273.767)" fill="#fec093"/>
      <path id="Trazado_721116" data-name="Trazado 721116" d="M392,320h19.6v3.267H392Z" transform="translate(-299.233 -241.933)" fill="#3ba6d4"/>
      <rect id="Rect치ngulo_339586" data-name="Rect치ngulo 339586" width="11" height="3" rx="1.5" transform="translate(66.5 42.5)" fill="#2d97c4"/>
      <rect id="Rect치ngulo_339587" data-name="Rect치ngulo 339587" width="15" height="4" rx="2" transform="translate(66.5 49.5)" fill="#2d97c4"/>
      <path id="Trazado_721117" data-name="Trazado 721117" d="M75.933,309.733H43.267A3.267,3.267,0,0,1,40,306.467V264H79.2v42.467A3.267,3.267,0,0,1,75.933,309.733Z" transform="translate(-19.1 -197.367)" fill="#e0e0de"/>
      <path id="Trazado_721118" data-name="Trazado 721118" d="M24,208H69.733v11.433H24Z" transform="translate(-6.367 -152.8)" fill="#348fd9"/>
      <g id="Grupo_956840" data-name="Grupo 956840" transform="translate(22.533 60.1)">
        <path id="Trazado_721119" data-name="Trazado 721119" d="M48,232h3.267v6.533H48Z" transform="translate(-48 -232)" fill="#2d7dbf"/>
        <path id="Trazado_721120" data-name="Trazado 721120" d="M80,232h3.267v6.533H80Z" transform="translate(-73.467 -232)" fill="#2d7dbf"/>
        <path id="Trazado_721121" data-name="Trazado 721121" d="M112,232h3.267v6.533H112Z" transform="translate(-98.933 -232)" fill="#2d7dbf"/>
        <path id="Trazado_721122" data-name="Trazado 721122" d="M144,232h3.267v6.533H144Z" transform="translate(-124.4 -232)" fill="#2d7dbf"/>
        <path id="Trazado_721123" data-name="Trazado 721123" d="M176,232h3.267v6.533H176Z" transform="translate(-149.867 -232)" fill="#2d7dbf"/>
        <path id="Trazado_721124" data-name="Trazado 721124" d="M208,232h3.267v6.533H208Z" transform="translate(-175.333 -232)" fill="#2d7dbf"/>
      </g>
      <path id="Trazado_721125" data-name="Trazado 721125" d="M40,344H79.2v26.133a3.267,3.267,0,0,1-3.267,3.267H43.267A3.267,3.267,0,0,1,40,370.133Z" transform="translate(-19.1 -261.033)" fill="#ffb531"/>
      <path id="Trazado_721126" data-name="Trazado 721126" d="M128,312h21.233v19.6H128Z" transform="translate(-89.133 -235.567)" fill="#a0dde5"/>
      <path id="Trazado_721127" data-name="Trazado 721127" d="M152,368h16.333v3.267H152Z" transform="translate(-108.233 -280.133)" fill="#8fd0d9"/>
      <path id="Trazado_721128" data-name="Trazado 721128" d="M152,336h3.267v3.267H152Z" transform="translate(-108.233 -254.667)" fill="#8fd0d9"/>
      <path id="Trazado_721129" data-name="Trazado 721129" d="M184,336h9.8v3.267H184Z" transform="translate(-133.7 -254.667)" fill="#8fd0d9"/>
      <path id="Trazado_721130" data-name="Trazado 721130" d="M64,344h3.267v8.167H64Z" transform="translate(-38.2 -261.033)" fill="#ffc361"/>
      <path id="Trazado_721131" data-name="Trazado 721131" d="M64,288h3.267v3.267H64Z" transform="translate(-38.2 -216.467)" fill="#f2f2f2"/>
      <path id="Trazado_721132" data-name="Trazado 721132" d="M64,320h3.267v4.9H64Z" transform="translate(-38.2 -241.933)" fill="#f2f2f2"/>
      <path id="Trazado_721133" data-name="Trazado 721133" d="M40,264H79.2v4.9H40Z" transform="translate(-19.1 -197.367)" fill="#d9d9d7"/>
      <path id="Trazado_721134" data-name="Trazado 721134" d="M111.768,26.374l-10.006-8.757A6.536,6.536,0,0,0,97.458,16H80.517a5.721,5.721,0,0,0-5.168,8.167H17.633A1.633,1.633,0,0,0,16,25.8v9.8a1.633,1.633,0,0,0,1.633,1.633h57.45a6.234,6.234,0,0,0,1.829,4.422l10.57,10.571A29.566,29.566,0,0,0,84.724,71.56a15.253,15.253,0,0,1-3.391-9.551V60.1A1.633,1.633,0,0,0,79.7,58.467H67.45a2.45,2.45,0,0,1,0-4.9H81.333V50.3H67.45a2.45,2.45,0,0,1,0-4.9H74.8V42.133H67.45A2.452,2.452,0,0,1,65,39.683H61.733a5.679,5.679,0,0,0,1.674,4.042l.045.043a5.709,5.709,0,0,0-.045,8.124l.045.043a5.714,5.714,0,0,0,4,9.8H78.067v.276A18.556,18.556,0,0,0,86.233,77.33v8.9a1.633,1.633,0,0,0,1.633,1.633h1.417l-3.037,24.3A1.633,1.633,0,0,0,87.867,114h24.5A1.633,1.633,0,0,0,114,112.367v-14.7h-3.267v13.067H89.717l2.858-22.867h18.158V94.4H114V31.29a6.533,6.533,0,0,0-2.231-4.916ZM55.2,27.433v6.533H51.933V27.433Zm-16.333,0v6.533H35.6V27.433Zm-19.6,0h3.267v6.533H19.267ZM25.8,33.967V27.433h6.533v6.533Zm16.333,0V27.433h6.533v6.533Zm16.333,0V27.433H65v6.533Zm9.8,0V27.433H91.133v6.533H86.91l-1.155-1.155A6.249,6.249,0,0,0,76,33.967ZM94.4,29.2l4.9,3.92V38.19l-1.832-1.832A8.132,8.132,0,0,0,94.4,34.425ZM90.918,52.744a1.633,1.633,0,0,0-.263-1.965L79.222,39.345a3.023,3.023,0,0,1,0-4.223,2.99,2.99,0,0,1,4.223,0L99.778,51.455l2.31-2.31L90.177,37.233h1.518a4.933,4.933,0,0,1,3.463,1.435l4.62,4.62a1.645,1.645,0,0,0,2.788-1.155v-9.8a1.633,1.633,0,0,0-.613-1.275l-8.167-6.533a1.626,1.626,0,0,0-1.021-.358H80.517a2.45,2.45,0,0,1,0-4.9H97.458a3.268,3.268,0,0,1,2.152.809l10.006,8.757a3.267,3.267,0,0,1,1.117,2.458V78.067H92.767v3.267h17.967V84.6H89.5V76.433a2.72,2.72,0,0,0-.38-1.31,26.337,26.337,0,0,1,1.8-22.38Z"/>
      <path id="Trazado_721135" data-name="Trazado 721135" d="M61.733,211.433H58.467v-4.9H55.2v4.9H51.933v-4.9H48.667v4.9H45.4v-4.9H42.133v4.9H38.867v-4.9H35.6v4.9H32.333v-4.9H29.067v4.9H25.8v-4.9H22.533v4.9H19.267v-8.167h39.2V200H17.633A1.633,1.633,0,0,0,16,201.633v11.433a1.633,1.633,0,0,0,1.633,1.633H58.467v6.533h-19.6a1.633,1.633,0,0,0-1.633,1.633v4.9H29.067V224.5H25.8v3.267H22.533v-9.8H19.267v37.567a4.906,4.906,0,0,0,4.9,4.9H56.833a4.906,4.906,0,0,0,4.9-4.9V214.7h1.633A1.633,1.633,0,0,0,65,213.067V209.8H61.733ZM40.5,224.5H58.467v3.267H50.3v3.267h8.167V234.3h-14.7v3.267h14.7v3.267H40.5Zm16.333,32.667H24.167a1.635,1.635,0,0,1-1.633-1.633v-24.5H25.8v6.533h3.267v-6.533h8.167v11.433a1.633,1.633,0,0,0,1.633,1.633h19.6v11.433A1.635,1.635,0,0,1,56.833,257.167Z" transform="translate(0 -146.433)"/>
      <path id="Trazado_721136" data-name="Trazado 721136" d="M152,336h3.267v3.267H152Z" transform="translate(-108.233 -254.667)"/>
      <path id="Trazado_721137" data-name="Trazado 721137" d="M64,288h3.267v3.267H64Z" transform="translate(-38.2 -216.467)"/>
    </g>
  </g>
</svg>
