<svg xmlns="http://www.w3.org/2000/svg" xmlns:xlink="http://www.w3.org/1999/xlink" width="1048" height="690" viewBox="0 0 1048 690">
  <defs>
    <filter id="Trazado_725371" x="0" y="0" width="1048" height="690" filterUnits="userSpaceOnUse">
      <feOffset dy="3" input="SourceAlpha"/>
      <feGaussianBlur stdDeviation="3" result="blur"/>
      <feFlood flood-opacity="0.161"/>
      <feComposite operator="in" in2="blur"/>
      <feComposite in="SourceGraphic"/>
    </filter>
  </defs>
  <g id="Grupo_959298" data-name="Grupo 959298" transform="translate(-276 -1366)">
    <g transform="matrix(1, 0, 0, 1, 276, 1366)" filter="url(#Trazado_725371)">
      <path id="Trazado_725371-2" data-name="Trazado 725371" d="M0,0H1030V672H0Z" transform="translate(9 6)" fill="#fff"/>
    </g>
    <g id="Trazado_66524" data-name="Trazado 66524" transform="translate(704.24 1639.344)" fill="#fae7b7">
      <path d="M 97.71050262451172 132.2825469970703 C 84.61344909667969 132.2825469970703 71.91045379638672 130.5337371826172 59.95432662963867 127.084716796875 C 54.21280288696289 125.4284439086914 48.67612838745117 123.3788909912109 43.49810409545898 120.9930419921875 C 38.37455368041992 118.6322402954102 33.55797576904297 115.9220123291016 29.18220329284668 112.937614440918 C 24.81327819824219 109.957893371582 20.84845352172852 106.6807632446289 17.39787673950195 103.1972885131836 C 13.92177772521973 99.68806457519531 10.93767738342285 95.93891906738281 8.528428077697754 92.05401611328125 C 6.080652713775635 88.10699462890625 4.201427459716797 83.97891235351562 2.942952632904053 79.78443908691406 C 1.653702616691589 75.48738861083984 1.00000262260437 71.06539154052734 1.00000262260437 66.64126586914062 C 1.00000262260437 62.21714019775391 1.653702616691589 57.79513931274414 2.942952632904053 53.49809265136719 C 4.201427459716797 49.30361557006836 6.080652713775635 45.17554092407227 8.528428077697754 41.228515625 C 10.93767738342285 37.3436164855957 13.92177772521973 33.59446716308594 17.39787673950195 30.08524131774902 C 20.84845352172852 26.60176658630371 24.81327819824219 23.32464027404785 29.18220329284668 20.34491539001465 C 33.55797576904297 17.36051559448242 38.37455368041992 14.65029048919678 43.49810409545898 12.28949069976807 C 48.67612838745117 9.903640747070312 54.21280288696289 7.854090690612793 59.95432662963867 6.197815895080566 C 71.91045379638672 2.748790979385376 84.61344909667969 0.9999908804893494 97.71050262451172 0.9999908804893494 C 110.8075561523438 0.9999908804893494 123.5105514526367 2.748790979385376 135.4666748046875 6.197815895080566 C 141.2082061767578 7.854090690612793 146.744873046875 9.903640747070312 151.9228973388672 12.28949069976807 C 157.0464477539062 14.65029048919678 161.8630218505859 17.36051559448242 166.2388000488281 20.34491539001465 C 170.6077270507812 23.32464027404785 174.5725555419922 26.60176658630371 178.0231323242188 30.08524131774902 C 181.4992218017578 33.59446716308594 184.4833221435547 37.3436164855957 186.892578125 41.228515625 C 189.3403472900391 45.17554092407227 191.2195739746094 49.30361557006836 192.4780578613281 53.49809265136719 C 193.7673034667969 57.79513931274414 194.4210052490234 62.21714019775391 194.4210052490234 66.64126586914062 C 194.4210052490234 71.06539154052734 193.7673034667969 75.48738861083984 192.4780578613281 79.78443908691406 C 191.2195739746094 83.97891235351562 189.3403472900391 88.10699462890625 186.892578125 92.05401611328125 C 184.4833221435547 95.93891906738281 181.4992218017578 99.68806457519531 178.0231323242188 103.1972885131836 C 174.5725555419922 106.6807632446289 170.6077270507812 109.957893371582 166.2388000488281 112.937614440918 C 161.8630218505859 115.9220123291016 157.0464477539062 118.6322402954102 151.9228973388672 120.9930419921875 C 146.744873046875 123.3788909912109 141.2082061767578 125.4284439086914 135.4666748046875 127.084716796875 C 123.5105514526367 130.5337371826172 110.8075561523438 132.2825469970703 97.71050262451172 132.2825469970703 Z" stroke="none"/>
      <path d="M 97.71050262451172 2 C 44.93556213378906 2 2 30.99794769287109 2 66.64126586914062 C 2 102.2845840454102 44.93556213378906 131.2825317382812 97.71050262451172 131.2825317382812 C 150.4854431152344 131.2825317382812 193.4210052490234 102.2845840454102 193.4210052490234 66.64126586914062 C 193.4210052490234 30.99794769287109 150.4854431152344 2 97.71050262451172 2 M 97.71050262451172 0 C 151.6745300292969 0 195.4210052490234 29.83631896972656 195.4210052490234 66.64126586914062 C 195.4210052490234 103.4462127685547 151.6745300292969 133.2825317382812 97.71050262451172 133.2825317382812 C 43.74647521972656 133.2825317382812 0 103.4462127685547 0 66.64126586914062 C 0 29.83631896972656 43.74647521972656 0 97.71050262451172 0 Z" stroke="none" fill="#707070"/>
    </g>
    <g id="Trazado_66526" data-name="Trazado 66526" transform="translate(669 1466)" fill="#d8edc1">
      <path d="M 256.658935546875 70.64405822753906 L 9.00557804107666 70.64405822753906 C 4.315577983856201 70.64405822753906 0.5000115633010864 66.8284912109375 0.5000115633010864 62.13849258422852 L 0.5000115633010864 9.005592346191406 C 0.5000115633010864 4.315591812133789 4.315577983856201 0.4999919533729553 9.00557804107666 0.4999919533729553 L 256.658935546875 0.4999919533729553 C 261.3489074707031 0.4999919533729553 265.1644897460938 4.315591812133789 265.1644897460938 9.005592346191406 L 265.1644897460938 62.13849258422852 C 265.1644897460938 66.8284912109375 261.3489074707031 70.64405822753906 256.658935546875 70.64405822753906 Z" stroke="none"/>
      <path d="M 9.005584716796875 0.9999923706054688 C 4.591278076171875 0.9999923706054688 1 4.591293334960938 1 9.005592346191406 L 1 62.13849258422852 C 1 66.55279541015625 4.591278076171875 70.14405822753906 9.005584716796875 70.14405822753906 L 256.658935546875 70.14405822753906 C 261.0732116699219 70.14405822753906 264.6644897460938 66.55279541015625 264.6644897460938 62.13849258422852 L 264.6644897460938 9.005592346191406 C 264.6644897460938 4.591293334960938 261.0732116699219 0.9999923706054688 256.658935546875 0.9999923706054688 L 9.005584716796875 0.9999923706054688 M 9.005584716796875 -7.62939453125e-06 L 256.658935546875 -7.62939453125e-06 C 261.632568359375 -7.62939453125e-06 265.6644897460938 4.031929016113281 265.6644897460938 9.005592346191406 L 265.6644897460938 62.13849258422852 C 265.6644897460938 67.11212158203125 261.632568359375 71.14405822753906 256.658935546875 71.14405822753906 L 9.005584716796875 71.14405822753906 C 4.03192138671875 71.14405822753906 0 67.11212158203125 0 62.13849258422852 L 0 9.005592346191406 C 0 4.031929016113281 4.03192138671875 -7.62939453125e-06 9.005584716796875 -7.62939453125e-06 Z" stroke="none" fill="#707070"/>
    </g>
    <g id="Trazado_66521" data-name="Trazado 66521" transform="translate(317 1407)" fill="#d8edc1">
      <path d="M 256.658935546875 70.64405822753906 L 9.00557804107666 70.64405822753906 C 4.315577983856201 70.64405822753906 0.5000115633010864 66.8284912109375 0.5000115633010864 62.13849258422852 L 0.5000115633010864 9.005592346191406 C 0.5000115633010864 4.315591812133789 4.315577983856201 0.4999919533729553 9.00557804107666 0.4999919533729553 L 256.658935546875 0.4999919533729553 C 261.3489074707031 0.4999919533729553 265.1644897460938 4.315591812133789 265.1644897460938 9.005592346191406 L 265.1644897460938 62.13849258422852 C 265.1644897460938 66.8284912109375 261.3489074707031 70.64405822753906 256.658935546875 70.64405822753906 Z" stroke="none"/>
      <path d="M 9.005584716796875 0.9999923706054688 C 4.591278076171875 0.9999923706054688 1 4.591293334960938 1 9.005592346191406 L 1 62.13849258422852 C 1 66.55279541015625 4.591278076171875 70.14405822753906 9.005584716796875 70.14405822753906 L 256.658935546875 70.14405822753906 C 261.0732116699219 70.14405822753906 264.6644897460938 66.55279541015625 264.6644897460938 62.13849258422852 L 264.6644897460938 9.005592346191406 C 264.6644897460938 4.591293334960938 261.0732116699219 0.9999923706054688 256.658935546875 0.9999923706054688 L 9.005584716796875 0.9999923706054688 M 9.005584716796875 -7.62939453125e-06 L 256.658935546875 -7.62939453125e-06 C 261.632568359375 -7.62939453125e-06 265.6644897460938 4.031929016113281 265.6644897460938 9.005592346191406 L 265.6644897460938 62.13849258422852 C 265.6644897460938 67.11212158203125 261.632568359375 71.14405822753906 256.658935546875 71.14405822753906 L 9.005584716796875 71.14405822753906 C 4.03192138671875 71.14405822753906 0 67.11212158203125 0 62.13849258422852 L 0 9.005592346191406 C 0 4.031929016113281 4.03192138671875 -7.62939453125e-06 9.005584716796875 -7.62939453125e-06 Z" stroke="none" fill="#707070"/>
    </g>
    <g id="Trazado_66523" data-name="Trazado 66523" transform="translate(317 1574)" fill="#d8edc1">
      <path d="M 256.658935546875 70.64405822753906 L 9.00557804107666 70.64405822753906 C 4.315577983856201 70.64405822753906 0.5000115633010864 66.8284912109375 0.5000115633010864 62.13849258422852 L 0.5000115633010864 9.005592346191406 C 0.5000115633010864 4.315591812133789 4.315577983856201 0.4999919533729553 9.00557804107666 0.4999919533729553 L 256.658935546875 0.4999919533729553 C 261.3489074707031 0.4999919533729553 265.1644897460938 4.315591812133789 265.1644897460938 9.005592346191406 L 265.1644897460938 62.13849258422852 C 265.1644897460938 66.8284912109375 261.3489074707031 70.64405822753906 256.658935546875 70.64405822753906 Z" stroke="none"/>
      <path d="M 9.005584716796875 0.9999923706054688 C 4.591278076171875 0.9999923706054688 1 4.591293334960938 1 9.005592346191406 L 1 62.13849258422852 C 1 66.55279541015625 4.591278076171875 70.14405822753906 9.005584716796875 70.14405822753906 L 256.658935546875 70.14405822753906 C 261.0732116699219 70.14405822753906 264.6644897460938 66.55279541015625 264.6644897460938 62.13849258422852 L 264.6644897460938 9.005592346191406 C 264.6644897460938 4.591293334960938 261.0732116699219 0.9999923706054688 256.658935546875 0.9999923706054688 L 9.005584716796875 0.9999923706054688 M 9.005584716796875 -7.62939453125e-06 L 256.658935546875 -7.62939453125e-06 C 261.632568359375 -7.62939453125e-06 265.6644897460938 4.031929016113281 265.6644897460938 9.005592346191406 L 265.6644897460938 62.13849258422852 C 265.6644897460938 67.11212158203125 261.632568359375 71.14405822753906 256.658935546875 71.14405822753906 L 9.005584716796875 71.14405822753906 C 4.03192138671875 71.14405822753906 0 67.11212158203125 0 62.13849258422852 L 0 9.005592346191406 C 0 4.031929016113281 4.03192138671875 -7.62939453125e-06 9.005584716796875 -7.62939453125e-06 Z" stroke="none" fill="#707070"/>
    </g>
    <g id="Trazado_66529" data-name="Trazado 66529" transform="translate(317 1740)" fill="#d8edc1">
      <path d="M 256.658935546875 70.64405822753906 L 9.00557804107666 70.64405822753906 C 4.315577983856201 70.64405822753906 0.5000115633010864 66.8284912109375 0.5000115633010864 62.13849258422852 L 0.5000115633010864 9.005592346191406 C 0.5000115633010864 4.315591812133789 4.315577983856201 0.4999919533729553 9.00557804107666 0.4999919533729553 L 256.658935546875 0.4999919533729553 C 261.3489074707031 0.4999919533729553 265.1644897460938 4.315591812133789 265.1644897460938 9.005592346191406 L 265.1644897460938 62.13849258422852 C 265.1644897460938 66.8284912109375 261.3489074707031 70.64405822753906 256.658935546875 70.64405822753906 Z" stroke="none"/>
      <path d="M 9.005584716796875 0.9999923706054688 C 4.591278076171875 0.9999923706054688 1 4.591293334960938 1 9.005592346191406 L 1 62.13849258422852 C 1 66.55279541015625 4.591278076171875 70.14405822753906 9.005584716796875 70.14405822753906 L 256.658935546875 70.14405822753906 C 261.0732116699219 70.14405822753906 264.6644897460938 66.55279541015625 264.6644897460938 62.13849258422852 L 264.6644897460938 9.005592346191406 C 264.6644897460938 4.591293334960938 261.0732116699219 0.9999923706054688 256.658935546875 0.9999923706054688 L 9.005584716796875 0.9999923706054688 M 9.005584716796875 -7.62939453125e-06 L 256.658935546875 -7.62939453125e-06 C 261.632568359375 -7.62939453125e-06 265.6644897460938 4.031929016113281 265.6644897460938 9.005592346191406 L 265.6644897460938 62.13849258422852 C 265.6644897460938 67.11212158203125 261.632568359375 71.14405822753906 256.658935546875 71.14405822753906 L 9.005584716796875 71.14405822753906 C 4.03192138671875 71.14405822753906 0 67.11212158203125 0 62.13849258422852 L 0 9.005592346191406 C 0 4.031929016113281 4.03192138671875 -7.62939453125e-06 9.005584716796875 -7.62939453125e-06 Z" stroke="none" fill="#707070"/>
    </g>
    <g id="Trazado_66539" data-name="Trazado 66539" transform="translate(317 1928)" fill="#d8edc1">
      <path d="M 256.658935546875 70.64405822753906 L 9.00557804107666 70.64405822753906 C 4.315577983856201 70.64405822753906 0.5000115633010864 66.8284912109375 0.5000115633010864 62.13849258422852 L 0.5000115633010864 9.005592346191406 C 0.5000115633010864 4.315591812133789 4.315577983856201 0.4999919533729553 9.00557804107666 0.4999919533729553 L 256.658935546875 0.4999919533729553 C 261.3489074707031 0.4999919533729553 265.1644897460938 4.315591812133789 265.1644897460938 9.005592346191406 L 265.1644897460938 62.13849258422852 C 265.1644897460938 66.8284912109375 261.3489074707031 70.64405822753906 256.658935546875 70.64405822753906 Z" stroke="none"/>
      <path d="M 9.005584716796875 0.9999923706054688 C 4.591278076171875 0.9999923706054688 1 4.591293334960938 1 9.005592346191406 L 1 62.13849258422852 C 1 66.55279541015625 4.591278076171875 70.14405822753906 9.005584716796875 70.14405822753906 L 256.658935546875 70.14405822753906 C 261.0732116699219 70.14405822753906 264.6644897460938 66.55279541015625 264.6644897460938 62.13849258422852 L 264.6644897460938 9.005592346191406 C 264.6644897460938 4.591293334960938 261.0732116699219 0.9999923706054688 256.658935546875 0.9999923706054688 L 9.005584716796875 0.9999923706054688 M 9.005584716796875 -7.62939453125e-06 L 256.658935546875 -7.62939453125e-06 C 261.632568359375 -7.62939453125e-06 265.6644897460938 4.031929016113281 265.6644897460938 9.005592346191406 L 265.6644897460938 62.13849258422852 C 265.6644897460938 67.11212158203125 261.632568359375 71.14405822753906 256.658935546875 71.14405822753906 L 9.005584716796875 71.14405822753906 C 4.03192138671875 71.14405822753906 0 67.11212158203125 0 62.13849258422852 L 0 9.005592346191406 C 0 4.031929016113281 4.03192138671875 -7.62939453125e-06 9.005584716796875 -7.62939453125e-06 Z" stroke="none" fill="#707070"/>
    </g>
    <g id="Trazado_66537" data-name="Trazado 66537" transform="translate(669.117 1874.39)" fill="#d8edc1">
      <path d="M 256.658935546875 70.64405822753906 L 9.00557804107666 70.64405822753906 C 4.315577983856201 70.64405822753906 0.5000115633010864 66.8284912109375 0.5000115633010864 62.13849258422852 L 0.5000115633010864 9.005592346191406 C 0.5000115633010864 4.315591812133789 4.315577983856201 0.4999919533729553 9.00557804107666 0.4999919533729553 L 256.658935546875 0.4999919533729553 C 261.3489074707031 0.4999919533729553 265.1644897460938 4.315591812133789 265.1644897460938 9.005592346191406 L 265.1644897460938 62.13849258422852 C 265.1644897460938 66.8284912109375 261.3489074707031 70.64405822753906 256.658935546875 70.64405822753906 Z" stroke="none"/>
      <path d="M 9.005584716796875 0.9999923706054688 C 4.591278076171875 0.9999923706054688 1 4.591293334960938 1 9.005592346191406 L 1 62.13849258422852 C 1 66.55279541015625 4.591278076171875 70.14405822753906 9.005584716796875 70.14405822753906 L 256.658935546875 70.14405822753906 C 261.0732116699219 70.14405822753906 264.6644897460938 66.55279541015625 264.6644897460938 62.13849258422852 L 264.6644897460938 9.005592346191406 C 264.6644897460938 4.591293334960938 261.0732116699219 0.9999923706054688 256.658935546875 0.9999923706054688 L 9.005584716796875 0.9999923706054688 M 9.005584716796875 -7.62939453125e-06 L 256.658935546875 -7.62939453125e-06 C 261.632568359375 -7.62939453125e-06 265.6644897460938 4.031929016113281 265.6644897460938 9.005592346191406 L 265.6644897460938 62.13849258422852 C 265.6644897460938 67.11212158203125 261.632568359375 71.14405822753906 256.658935546875 71.14405822753906 L 9.005584716796875 71.14405822753906 C 4.03192138671875 71.14405822753906 0 67.11212158203125 0 62.13849258422852 L 0 9.005592346191406 C 0 4.031929016113281 4.03192138671875 -7.62939453125e-06 9.005584716796875 -7.62939453125e-06 Z" stroke="none" fill="#707070"/>
    </g>
    <g id="Trazado_66531" data-name="Trazado 66531" transform="translate(1020 1407)" fill="#d8edc1">
      <path d="M 256.658935546875 70.64405822753906 L 9.00557804107666 70.64405822753906 C 4.315577983856201 70.64405822753906 0.5000115633010864 66.8284912109375 0.5000115633010864 62.13849258422852 L 0.5000115633010864 9.005592346191406 C 0.5000115633010864 4.315591812133789 4.315577983856201 0.4999919533729553 9.00557804107666 0.4999919533729553 L 256.658935546875 0.4999919533729553 C 261.3489074707031 0.4999919533729553 265.1644897460938 4.315591812133789 265.1644897460938 9.005592346191406 L 265.1644897460938 62.13849258422852 C 265.1644897460938 66.8284912109375 261.3489074707031 70.64405822753906 256.658935546875 70.64405822753906 Z" stroke="none"/>
      <path d="M 9.005584716796875 0.9999923706054688 C 4.591278076171875 0.9999923706054688 1 4.591293334960938 1 9.005592346191406 L 1 62.13849258422852 C 1 66.55279541015625 4.591278076171875 70.14405822753906 9.005584716796875 70.14405822753906 L 256.658935546875 70.14405822753906 C 261.0732116699219 70.14405822753906 264.6644897460938 66.55279541015625 264.6644897460938 62.13849258422852 L 264.6644897460938 9.005592346191406 C 264.6644897460938 4.591293334960938 261.0732116699219 0.9999923706054688 256.658935546875 0.9999923706054688 L 9.005584716796875 0.9999923706054688 M 9.005584716796875 -7.62939453125e-06 L 256.658935546875 -7.62939453125e-06 C 261.632568359375 -7.62939453125e-06 265.6644897460938 4.031929016113281 265.6644897460938 9.005592346191406 L 265.6644897460938 62.13849258422852 C 265.6644897460938 67.11212158203125 261.632568359375 71.14405822753906 256.658935546875 71.14405822753906 L 9.005584716796875 71.14405822753906 C 4.03192138671875 71.14405822753906 0 67.11212158203125 0 62.13849258422852 L 0 9.005592346191406 C 0 4.031929016113281 4.03192138671875 -7.62939453125e-06 9.005584716796875 -7.62939453125e-06 Z" stroke="none" fill="#707070"/>
    </g>
    <g id="Trazado_66532" data-name="Trazado 66532" transform="translate(1020 1574)" fill="#d8edc1">
      <path d="M 256.658935546875 70.64405822753906 L 9.00557804107666 70.64405822753906 C 4.315577983856201 70.64405822753906 0.5000115633010864 66.8284912109375 0.5000115633010864 62.13849258422852 L 0.5000115633010864 9.005592346191406 C 0.5000115633010864 4.315591812133789 4.315577983856201 0.4999919533729553 9.00557804107666 0.4999919533729553 L 256.658935546875 0.4999919533729553 C 261.3489074707031 0.4999919533729553 265.1644897460938 4.315591812133789 265.1644897460938 9.005592346191406 L 265.1644897460938 62.13849258422852 C 265.1644897460938 66.8284912109375 261.3489074707031 70.64405822753906 256.658935546875 70.64405822753906 Z" stroke="none"/>
      <path d="M 9.005584716796875 0.9999923706054688 C 4.591278076171875 0.9999923706054688 1 4.591293334960938 1 9.005592346191406 L 1 62.13849258422852 C 1 66.55279541015625 4.591278076171875 70.14405822753906 9.005584716796875 70.14405822753906 L 256.658935546875 70.14405822753906 C 261.0732116699219 70.14405822753906 264.6644897460938 66.55279541015625 264.6644897460938 62.13849258422852 L 264.6644897460938 9.005592346191406 C 264.6644897460938 4.591293334960938 261.0732116699219 0.9999923706054688 256.658935546875 0.9999923706054688 L 9.005584716796875 0.9999923706054688 M 9.005584716796875 -7.62939453125e-06 L 256.658935546875 -7.62939453125e-06 C 261.632568359375 -7.62939453125e-06 265.6644897460938 4.031929016113281 265.6644897460938 9.005592346191406 L 265.6644897460938 62.13849258422852 C 265.6644897460938 67.11212158203125 261.632568359375 71.14405822753906 256.658935546875 71.14405822753906 L 9.005584716796875 71.14405822753906 C 4.03192138671875 71.14405822753906 0 67.11212158203125 0 62.13849258422852 L 0 9.005592346191406 C 0 4.031929016113281 4.03192138671875 -7.62939453125e-06 9.005584716796875 -7.62939453125e-06 Z" stroke="none" fill="#707070"/>
    </g>
    <g id="Trazado_66533" data-name="Trazado 66533" transform="translate(1020 1740)" fill="#d8edc1">
      <path d="M 256.658935546875 70.64405822753906 L 9.00557804107666 70.64405822753906 C 4.315577983856201 70.64405822753906 0.5000115633010864 66.8284912109375 0.5000115633010864 62.13849258422852 L 0.5000115633010864 9.005592346191406 C 0.5000115633010864 4.315591812133789 4.315577983856201 0.4999919533729553 9.00557804107666 0.4999919533729553 L 256.658935546875 0.4999919533729553 C 261.3489074707031 0.4999919533729553 265.1644897460938 4.315591812133789 265.1644897460938 9.005592346191406 L 265.1644897460938 62.13849258422852 C 265.1644897460938 66.8284912109375 261.3489074707031 70.64405822753906 256.658935546875 70.64405822753906 Z" stroke="none"/>
      <path d="M 9.005584716796875 0.9999923706054688 C 4.591278076171875 0.9999923706054688 1 4.591293334960938 1 9.005592346191406 L 1 62.13849258422852 C 1 66.55279541015625 4.591278076171875 70.14405822753906 9.005584716796875 70.14405822753906 L 256.658935546875 70.14405822753906 C 261.0732116699219 70.14405822753906 264.6644897460938 66.55279541015625 264.6644897460938 62.13849258422852 L 264.6644897460938 9.005592346191406 C 264.6644897460938 4.591293334960938 261.0732116699219 0.9999923706054688 256.658935546875 0.9999923706054688 L 9.005584716796875 0.9999923706054688 M 9.005584716796875 -7.62939453125e-06 L 256.658935546875 -7.62939453125e-06 C 261.632568359375 -7.62939453125e-06 265.6644897460938 4.031929016113281 265.6644897460938 9.005592346191406 L 265.6644897460938 62.13849258422852 C 265.6644897460938 67.11212158203125 261.632568359375 71.14405822753906 256.658935546875 71.14405822753906 L 9.005584716796875 71.14405822753906 C 4.03192138671875 71.14405822753906 0 67.11212158203125 0 62.13849258422852 L 0 9.005592346191406 C 0 4.031929016113281 4.03192138671875 -7.62939453125e-06 9.005584716796875 -7.62939453125e-06 Z" stroke="none" fill="#707070"/>
    </g>
    <g id="Trazado_66540" data-name="Trazado 66540" transform="translate(1020.336 1927.522)" fill="#d8edc1">
      <path d="M 256.658935546875 70.64405822753906 L 9.00557804107666 70.64405822753906 C 4.315577983856201 70.64405822753906 0.5000115633010864 66.8284912109375 0.5000115633010864 62.13849258422852 L 0.5000115633010864 9.005592346191406 C 0.5000115633010864 4.315591812133789 4.315577983856201 0.4999919533729553 9.00557804107666 0.4999919533729553 L 256.658935546875 0.4999919533729553 C 261.3489074707031 0.4999919533729553 265.1644897460938 4.315591812133789 265.1644897460938 9.005592346191406 L 265.1644897460938 62.13849258422852 C 265.1644897460938 66.8284912109375 261.3489074707031 70.64405822753906 256.658935546875 70.64405822753906 Z" stroke="none"/>
      <path d="M 9.005584716796875 0.9999923706054688 C 4.591278076171875 0.9999923706054688 1 4.591293334960938 1 9.005592346191406 L 1 62.13849258422852 C 1 66.55279541015625 4.591278076171875 70.14405822753906 9.005584716796875 70.14405822753906 L 256.658935546875 70.14405822753906 C 261.0732116699219 70.14405822753906 264.6644897460938 66.55279541015625 264.6644897460938 62.13849258422852 L 264.6644897460938 9.005592346191406 C 264.6644897460938 4.591293334960938 261.0732116699219 0.9999923706054688 256.658935546875 0.9999923706054688 L 9.005584716796875 0.9999923706054688 M 9.005584716796875 -7.62939453125e-06 L 256.658935546875 -7.62939453125e-06 C 261.632568359375 -7.62939453125e-06 265.6644897460938 4.031929016113281 265.6644897460938 9.005592346191406 L 265.6644897460938 62.13849258422852 C 265.6644897460938 67.11212158203125 261.632568359375 71.14405822753906 256.658935546875 71.14405822753906 L 9.005584716796875 71.14405822753906 C 4.03192138671875 71.14405822753906 0 67.11212158203125 0 62.13849258422852 L 0 9.005592346191406 C 0 4.031929016113281 4.03192138671875 -7.62939453125e-06 9.005584716796875 -7.62939453125e-06 Z" stroke="none" fill="#707070"/>
    </g>
    <path id="Trazado_66099" data-name="Trazado 66099" d="M18870.693-20605v41.887h158.9l127.025,143.383" transform="translate(-18430.594 22083.145)" fill="none" stroke="#4463aa" stroke-width="2"/>
    <path id="Trazado_66100" data-name="Trazado 66100" d="M19029-20459.5l120.217,88.08" transform="translate(-18446.336 22077.682)" fill="none" stroke="#4463aa" stroke-width="2"/>
    <path id="Trazado_66101" data-name="Trazado 66101" d="M19029-20371.422l120.217-88.08" transform="translate(-18446.336 22170.439)" fill="none" stroke="#4463aa" stroke-width="2"/>
    <path id="Trazado_66102" data-name="Trazado 66102" d="M18877-20124.758v-48.146h171.3l123.686-121.7" transform="translate(-18431.221 22052.279)" fill="none" stroke="#4463aa" stroke-width="2"/>
    <path id="Trazado_66103" data-name="Trazado 66103" d="M19156.617-20605v41.887h-158.895L18870.7-20419.73" transform="translate(-17993.824 22083.145)" fill="none" stroke="#4463aa" stroke-width="2"/>
    <path id="Trazado_66104" data-name="Trazado 66104" d="M19149.217-20459.5,19029-20371.42" transform="translate(-18128.441 22077.682)" fill="none" stroke="#4463aa" stroke-width="2"/>
    <path id="Trazado_66105" data-name="Trazado 66105" d="M19149.217-20371.422,19029-20459.5" transform="translate(-18128.441 22170.439)" fill="none" stroke="#4463aa" stroke-width="2"/>
    <path id="Trazado_66106" data-name="Trazado 66106" d="M19171.988-20124.756v-48.146h-171.3L18877-20294.607" transform="translate(-18014.262 22052.279)" fill="none" stroke="#4463aa" stroke-width="2"/>
    <path id="Trazado_66107" data-name="Trazado 66107" d="M19272-20539v103.752" transform="translate(-18470.5 22076.58)" fill="none" stroke="#4463aa" stroke-width="2"/>
    <path id="Trazado_66108" data-name="Trazado 66108" d="M19272-20539v103.752" transform="translate(-18470.5 22309.826)" fill="none" stroke="#4463aa" stroke-width="2"/>
    <path id="Trazado_725374" data-name="Trazado 725374" d="M4.078-11.375,7-3.125l2.906-8.25h3.078V0H10.633V-3.109l.234-5.367L7.8,0H6.188L3.125-8.469l.234,5.359V0H1.016V-11.375ZM19.945-.859A2.831,2.831,0,0,1,17.633.156a2.67,2.67,0,0,1-2.074-.781,3.335,3.335,0,0,1-.73-2.289V-8.453h2.258v5.467q0,1.322,1.2,1.322a1.63,1.63,0,0,0,1.578-.8V-8.453h2.266V0H20.008ZM27.727.156A4.15,4.15,0,0,1,24.7-.984a4.054,4.054,0,0,1-1.168-3.039v-.219a5.106,5.106,0,0,1,.492-2.277,3.612,3.612,0,0,1,1.395-1.547,3.914,3.914,0,0,1,2.059-.543,3.508,3.508,0,0,1,2.73,1.094,4.444,4.444,0,0,1,1,3.1v.922H25.82a2.1,2.1,0,0,0,.66,1.328,2,2,0,0,0,1.395.5,2.437,2.437,0,0,0,2.039-.945l1.109,1.242A3.389,3.389,0,0,1,29.648-.246,4.511,4.511,0,0,1,27.727.156Zm-.258-6.945a1.411,1.411,0,0,0-1.09.455,2.357,2.357,0,0,0-.535,1.3h3.141v-.181a1.681,1.681,0,0,0-.406-1.165A1.456,1.456,0,0,0,27.469-6.789Zm9.594,4.453a.727.727,0,0,0-.41-.652,4.659,4.659,0,0,0-1.316-.426Q32.32-4.047,32.32-5.977a2.323,2.323,0,0,1,.934-1.879A3.766,3.766,0,0,1,35.7-8.609a4.053,4.053,0,0,1,2.574.758,2.388,2.388,0,0,1,.965,1.969H36.977a1.092,1.092,0,0,0-.312-.8A1.322,1.322,0,0,0,35.688-7a1.351,1.351,0,0,0-.883.258.814.814,0,0,0-.312.656.7.7,0,0,0,.355.605,3.657,3.657,0,0,0,1.2.4,9.8,9.8,0,0,1,1.422.379A2.336,2.336,0,0,1,39.258-2.43a2.2,2.2,0,0,1-.992,1.871A4.28,4.28,0,0,1,35.7.156a4.47,4.47,0,0,1-1.887-.379,3.166,3.166,0,0,1-1.293-1.039,2.414,2.414,0,0,1-.469-1.426H34.2a1.179,1.179,0,0,0,.445.922,1.766,1.766,0,0,0,1.109.32,1.635,1.635,0,0,0,.98-.246A.766.766,0,0,0,37.063-2.336Zm6.352-8.2v2.078h1.445V-6.8H43.414v4.219a1.007,1.007,0,0,0,.18.672.9.9,0,0,0,.688.2,3.6,3.6,0,0,0,.664-.055V-.047a4.648,4.648,0,0,1-1.367.2,2.156,2.156,0,0,1-2.422-2.4V-6.8H39.922V-8.453h1.234v-2.078Zm7.453,4.2a6.134,6.134,0,0,0-.812-.062,1.654,1.654,0,0,0-1.68.867V0H46.117V-8.453H48.25l.063,1.008A2.092,2.092,0,0,1,50.2-8.609a2.366,2.366,0,0,1,.7.1ZM56.617,0a2.507,2.507,0,0,1-.227-.758,2.732,2.732,0,0,1-2.133.914A3,3,0,0,1,52.2-.562a2.312,2.312,0,0,1-.816-1.812,2.389,2.389,0,0,1,1-2.062,4.915,4.915,0,0,1,2.879-.727H56.3v-.484a1.393,1.393,0,0,0-.3-.937,1.183,1.183,0,0,0-.949-.352,1.345,1.345,0,0,0-.895.273.929.929,0,0,0-.324.75H51.57a2.268,2.268,0,0,1,.453-1.359,3,3,0,0,1,1.281-.98,4.669,4.669,0,0,1,1.859-.355,3.689,3.689,0,0,1,2.48.785,2.747,2.747,0,0,1,.918,2.207v3.664A4.041,4.041,0,0,0,58.9-.133V0ZM54.75-1.57a1.945,1.945,0,0,0,.922-.223,1.462,1.462,0,0,0,.625-.6V-3.844h-.844q-1.7,0-1.8,1.172l-.008.133a.9.9,0,0,0,.3.7A1.153,1.153,0,0,0,54.75-1.57Z" transform="translate(771 1712)" fill="#12263f"/>
    <path id="Trazado_725378" data-name="Trazado 725378" d="M6.914-2.984A1.2,1.2,0,0,0,6.445-4a6.148,6.148,0,0,0-1.687-.75,11.963,11.963,0,0,1-1.93-.777A3.153,3.153,0,0,1,.891-8.352,2.747,2.747,0,0,1,1.41-10,3.389,3.389,0,0,1,2.9-11.125a5.616,5.616,0,0,1,2.184-.406,5.112,5.112,0,0,1,2.172.441,3.458,3.458,0,0,1,1.48,1.246,3.261,3.261,0,0,1,.527,1.828H6.922A1.534,1.534,0,0,0,6.43-9.23a2.023,2.023,0,0,0-1.383-.434A2.162,2.162,0,0,0,3.711-9.3a1.146,1.146,0,0,0-.477.957,1.1,1.1,0,0,0,.559.93,6.311,6.311,0,0,0,1.645.7A7.106,7.106,0,0,1,8.352-5.219,2.972,2.972,0,0,1,9.266-3,2.737,2.737,0,0,1,8.148-.684a4.891,4.891,0,0,1-3.008.84A5.808,5.808,0,0,1,2.75-.324,3.783,3.783,0,0,1,1.105-1.641,3.371,3.371,0,0,1,.539-3.578H2.891q0,1.883,2.25,1.883a2.189,2.189,0,0,0,1.3-.34A1.106,1.106,0,0,0,6.914-2.984ZM15.766-.859A2.831,2.831,0,0,1,13.453.156a2.67,2.67,0,0,1-2.074-.781,3.335,3.335,0,0,1-.73-2.289V-8.453h2.258v5.467q0,1.322,1.2,1.322a1.63,1.63,0,0,0,1.578-.8V-8.453h2.266V0H15.828ZM27.273-4.148A5.119,5.119,0,0,1,26.406-.98,2.872,2.872,0,0,1,23.984.156,2.639,2.639,0,0,1,21.789-.9l-.1.9H19.656V-12h2.258v4.3a2.571,2.571,0,0,1,2.055-.914,2.9,2.9,0,0,1,2.426,1.137,5.126,5.126,0,0,1,.879,3.2Zm-2.258-.164a3.363,3.363,0,0,0-.406-1.871,1.374,1.374,0,0,0-1.211-.59,1.489,1.489,0,0,0-1.484.883v3.336a1.509,1.509,0,0,0,1.5.891,1.394,1.394,0,0,0,1.438-1.078A5.562,5.562,0,0,0,25.016-4.312Zm5.766-4.141.07.945a2.971,2.971,0,0,1,2.43-1.1A2.255,2.255,0,0,1,35.523-7.32a2.9,2.9,0,0,1,2.539-1.289,2.521,2.521,0,0,1,2.047.8,3.681,3.681,0,0,1,.672,2.41V0H38.516V-5.391a1.61,1.61,0,0,0-.281-1.051,1.246,1.246,0,0,0-.992-.332,1.409,1.409,0,0,0-1.406.969L35.844,0H33.586V-5.383A1.59,1.59,0,0,0,33.3-6.445a1.259,1.259,0,0,0-.984-.328,1.463,1.463,0,0,0-1.391.8V0H28.664V-8.453Zm16.8,7.594A2.831,2.831,0,0,1,45.266.156a2.67,2.67,0,0,1-2.074-.781,3.335,3.335,0,0,1-.73-2.289V-8.453h2.258v5.467q0,1.322,1.2,1.322a1.63,1.63,0,0,0,1.578-.8V-8.453h2.266V0H47.641ZM55.359.156A4.15,4.15,0,0,1,52.332-.984a4.054,4.054,0,0,1-1.168-3.039v-.219a5.106,5.106,0,0,1,.492-2.277,3.612,3.612,0,0,1,1.395-1.547,3.914,3.914,0,0,1,2.059-.543,3.508,3.508,0,0,1,2.73,1.094,4.444,4.444,0,0,1,1,3.1v.922H53.453a2.1,2.1,0,0,0,.66,1.328,2,2,0,0,0,1.395.5,2.437,2.437,0,0,0,2.039-.945l1.109,1.242A3.389,3.389,0,0,1,57.281-.246,4.511,4.511,0,0,1,55.359.156ZM55.1-6.789a1.411,1.411,0,0,0-1.09.455,2.357,2.357,0,0,0-.535,1.3h3.141v-.181a1.681,1.681,0,0,0-.406-1.165A1.456,1.456,0,0,0,55.1-6.789ZM64.7-2.336a.727.727,0,0,0-.41-.652,4.659,4.659,0,0,0-1.316-.426q-3.016-.633-3.016-2.562a2.323,2.323,0,0,1,.934-1.879,3.766,3.766,0,0,1,2.441-.754,4.053,4.053,0,0,1,2.574.758,2.388,2.388,0,0,1,.965,1.969H64.609a1.092,1.092,0,0,0-.312-.8A1.322,1.322,0,0,0,63.32-7a1.351,1.351,0,0,0-.883.258.814.814,0,0,0-.312.656.7.7,0,0,0,.355.605,3.657,3.657,0,0,0,1.2.4A9.8,9.8,0,0,1,65.1-4.7,2.336,2.336,0,0,1,66.891-2.43,2.2,2.2,0,0,1,65.9-.559a4.28,4.28,0,0,1-2.562.715,4.47,4.47,0,0,1-1.887-.379,3.166,3.166,0,0,1-1.293-1.039,2.414,2.414,0,0,1-.469-1.426h2.141a1.179,1.179,0,0,0,.445.922,1.766,1.766,0,0,0,1.109.32,1.635,1.635,0,0,0,.98-.246A.766.766,0,0,0,64.7-2.336Zm6.352-8.2v2.078h1.445V-6.8H71.047v4.219a1.007,1.007,0,0,0,.18.672.9.9,0,0,0,.688.2,3.6,3.6,0,0,0,.664-.055V-.047a4.648,4.648,0,0,1-1.367.2,2.156,2.156,0,0,1-2.422-2.4V-6.8H67.555V-8.453h1.234v-2.078Zm7.453,4.2a6.134,6.134,0,0,0-.812-.062,1.654,1.654,0,0,0-1.68.867V0H73.75V-8.453h2.133l.063,1.008a2.092,2.092,0,0,1,1.883-1.164,2.366,2.366,0,0,1,.7.1ZM83.477.156A4.15,4.15,0,0,1,80.449-.984a4.054,4.054,0,0,1-1.168-3.039v-.219a5.106,5.106,0,0,1,.492-2.277,3.612,3.612,0,0,1,1.395-1.547,3.914,3.914,0,0,1,2.059-.543,3.508,3.508,0,0,1,2.73,1.094,4.444,4.444,0,0,1,1,3.1v.922H81.57a2.1,2.1,0,0,0,.66,1.328,2,2,0,0,0,1.395.5,2.437,2.437,0,0,0,2.039-.945l1.109,1.242A3.389,3.389,0,0,1,85.4-.246,4.511,4.511,0,0,1,83.477.156Zm-.258-6.945a1.411,1.411,0,0,0-1.09.455,2.357,2.357,0,0,0-.535,1.3h3.141v-.181a1.681,1.681,0,0,0-.406-1.165A1.456,1.456,0,0,0,83.219-6.789ZM87.883-4.3a5.013,5.013,0,0,1,.484-2.242A3.546,3.546,0,0,1,89.762-8.07a4.069,4.069,0,0,1,2.113-.539,3.849,3.849,0,0,1,2.793,1.047,4.2,4.2,0,0,1,1.207,2.844l.016.578A4.418,4.418,0,0,1,94.8-1.02,3.775,3.775,0,0,1,91.891.156a3.793,3.793,0,0,1-2.918-1.172A4.5,4.5,0,0,1,87.883-4.2Zm2.258.16A3.16,3.16,0,0,0,90.594-2.3a1.5,1.5,0,0,0,1.3.638,1.5,1.5,0,0,0,1.281-.63,3.457,3.457,0,0,0,.461-2.015,3.128,3.128,0,0,0-.461-1.831,1.5,1.5,0,0,0-1.3-.649,1.474,1.474,0,0,0-1.281.646A3.516,3.516,0,0,0,90.141-4.144Z" transform="translate(754 1918)" fill="#12263f"/>
    <path id="Trazado_725375" data-name="Trazado 725375" d="M9.945-3.789A4.025,4.025,0,0,1,8.59-.9,4.76,4.76,0,0,1,5.367.156,4.28,4.28,0,0,1,1.926-1.316,6.038,6.038,0,0,1,.672-5.359v-.7A6.819,6.819,0,0,1,1.25-8.945,4.332,4.332,0,0,1,2.9-10.863a4.629,4.629,0,0,1,2.5-.668A4.637,4.637,0,0,1,8.57-10.477,4.326,4.326,0,0,1,9.961-7.516H7.617A2.376,2.376,0,0,0,7-9.113a2.271,2.271,0,0,0-1.605-.5,1.991,1.991,0,0,0-1.754.84,4.707,4.707,0,0,0-.6,2.605V-5.3a5.038,5.038,0,0,0,.559,2.7,1.954,1.954,0,0,0,1.762.852,2.314,2.314,0,0,0,1.621-.5A2.241,2.241,0,0,0,7.6-3.789ZM16.234,0a2.507,2.507,0,0,1-.227-.758,2.732,2.732,0,0,1-2.133.914,3,3,0,0,1-2.059-.719A2.312,2.312,0,0,1,11-2.375a2.389,2.389,0,0,1,1-2.062,4.915,4.915,0,0,1,2.879-.727h1.039v-.484a1.393,1.393,0,0,0-.3-.937,1.183,1.183,0,0,0-.949-.352,1.345,1.345,0,0,0-.895.273.929.929,0,0,0-.324.75H11.188a2.268,2.268,0,0,1,.453-1.359,3,3,0,0,1,1.281-.98,4.669,4.669,0,0,1,1.859-.355,3.689,3.689,0,0,1,2.48.785,2.747,2.747,0,0,1,.918,2.207v3.664a4.041,4.041,0,0,0,.336,1.82V0ZM14.367-1.57a1.945,1.945,0,0,0,.922-.223,1.462,1.462,0,0,0,.625-.6V-3.844H15.07q-1.7,0-1.8,1.172l-.008.133a.9.9,0,0,0,.3.7A1.153,1.153,0,0,0,14.367-1.57Zm5.2-2.719a5.094,5.094,0,0,1,.887-3.148,2.877,2.877,0,0,1,2.426-1.172,2.589,2.589,0,0,1,2.039.922V-12H27.18V0H25.141l-.109-.9A2.657,2.657,0,0,1,22.859.156,2.869,2.869,0,0,1,20.465-1.02,5.258,5.258,0,0,1,19.563-4.289Zm2.258.168A3.337,3.337,0,0,0,22.234-2.3a1.349,1.349,0,0,0,1.2.634,1.511,1.511,0,0,0,1.477-.884V-5.889a1.489,1.489,0,0,0-1.461-.884Q21.82-6.773,21.82-4.121Zm11,4.277A4.15,4.15,0,0,1,29.793-.984a4.054,4.054,0,0,1-1.168-3.039v-.219a5.106,5.106,0,0,1,.492-2.277,3.612,3.612,0,0,1,1.395-1.547,3.914,3.914,0,0,1,2.059-.543A3.508,3.508,0,0,1,35.3-7.516a4.444,4.444,0,0,1,1,3.1v.922H30.914a2.1,2.1,0,0,0,.66,1.328,2,2,0,0,0,1.395.5,2.437,2.437,0,0,0,2.039-.945l1.109,1.242A3.389,3.389,0,0,1,34.742-.246,4.511,4.511,0,0,1,32.82.156Zm-.258-6.945a1.411,1.411,0,0,0-1.09.455,2.357,2.357,0,0,0-.535,1.3h3.141v-.181a1.681,1.681,0,0,0-.406-1.165A1.456,1.456,0,0,0,32.563-6.789Zm7.094-1.664.07.977a2.951,2.951,0,0,1,2.43-1.133,2.453,2.453,0,0,1,2,.789,3.682,3.682,0,0,1,.672,2.359V0H42.57V-5.406a1.465,1.465,0,0,0-.312-1.043,1.4,1.4,0,0,0-1.039-.324,1.553,1.553,0,0,0-1.43.813V0H37.531V-8.453ZM51.438,0a2.507,2.507,0,0,1-.227-.758,2.732,2.732,0,0,1-2.133.914A3,3,0,0,1,47.02-.562,2.312,2.312,0,0,1,46.2-2.375a2.389,2.389,0,0,1,1-2.062,4.915,4.915,0,0,1,2.879-.727h1.039v-.484a1.393,1.393,0,0,0-.3-.937,1.183,1.183,0,0,0-.949-.352,1.345,1.345,0,0,0-.895.273.929.929,0,0,0-.324.75H46.391a2.268,2.268,0,0,1,.453-1.359,3,3,0,0,1,1.281-.98,4.669,4.669,0,0,1,1.859-.355,3.689,3.689,0,0,1,2.48.785,2.747,2.747,0,0,1,.918,2.207v3.664a4.041,4.041,0,0,0,.336,1.82V0ZM49.57-1.57a1.945,1.945,0,0,0,.922-.223,1.462,1.462,0,0,0,.625-.6V-3.844h-.844q-1.7,0-1.8,1.172l-.008.133a.9.9,0,0,0,.3.7A1.153,1.153,0,0,0,49.57-1.57Zm9.18-2.719a5.094,5.094,0,0,1,.887-3.148,2.877,2.877,0,0,1,2.426-1.172,2.589,2.589,0,0,1,2.039.922V-12h2.266V0H64.328l-.109-.9A2.657,2.657,0,0,1,62.047.156,2.869,2.869,0,0,1,59.652-1.02,5.258,5.258,0,0,1,58.75-4.289Zm2.258.168A3.337,3.337,0,0,0,61.422-2.3a1.349,1.349,0,0,0,1.2.634A1.511,1.511,0,0,0,64.1-2.548V-5.889a1.489,1.489,0,0,0-1.461-.884Q61.008-6.773,61.008-4.121Zm11,4.277A4.15,4.15,0,0,1,68.98-.984a4.054,4.054,0,0,1-1.168-3.039v-.219A5.106,5.106,0,0,1,68.3-6.52,3.612,3.612,0,0,1,69.7-8.066a3.914,3.914,0,0,1,2.059-.543,3.508,3.508,0,0,1,2.73,1.094,4.444,4.444,0,0,1,1,3.1v.922H70.1a2.1,2.1,0,0,0,.66,1.328,2,2,0,0,0,1.395.5A2.437,2.437,0,0,0,74.2-2.609L75.3-1.367A3.389,3.389,0,0,1,73.93-.246,4.511,4.511,0,0,1,72.008.156ZM71.75-6.789a1.411,1.411,0,0,0-1.09.455,2.357,2.357,0,0,0-.535,1.3h3.141v-.181a1.681,1.681,0,0,0-.406-1.165A1.456,1.456,0,0,0,71.75-6.789ZM84.266-1.664a1.481,1.481,0,0,0,1.016-.344,1.2,1.2,0,0,0,.406-.914H87.8a2.9,2.9,0,0,1-.469,1.574A3.093,3.093,0,0,1,86.074-.238,3.949,3.949,0,0,1,84.3.156,3.67,3.67,0,0,1,81.445-1,4.56,4.56,0,0,1,80.4-4.18v-.148a4.508,4.508,0,0,1,1.039-3.117,3.627,3.627,0,0,1,2.852-1.164,3.555,3.555,0,0,1,2.543.9A3.2,3.2,0,0,1,87.8-5.3H85.688a1.551,1.551,0,0,0-.406-1.072,1.354,1.354,0,0,0-1.031-.412,1.36,1.36,0,0,0-1.191.575,3.333,3.333,0,0,0-.4,1.866v.235a3.375,3.375,0,0,0,.4,1.878A1.377,1.377,0,0,0,84.266-1.664Zm9.891.8A2.831,2.831,0,0,1,91.844.156,2.67,2.67,0,0,1,89.77-.625a3.335,3.335,0,0,1-.73-2.289V-8.453H91.3v5.467q0,1.322,1.2,1.322a1.63,1.63,0,0,0,1.578-.8V-8.453h2.266V0H94.219Zm8.469-1.477a.727.727,0,0,0-.41-.652,4.659,4.659,0,0,0-1.316-.426q-3.016-.633-3.016-2.562a2.323,2.323,0,0,1,.934-1.879,3.766,3.766,0,0,1,2.441-.754,4.053,4.053,0,0,1,2.574.758,2.388,2.388,0,0,1,.965,1.969h-2.258a1.092,1.092,0,0,0-.312-.8A1.322,1.322,0,0,0,101.25-7a1.351,1.351,0,0,0-.883.258.814.814,0,0,0-.312.656.7.7,0,0,0,.355.605,3.657,3.657,0,0,0,1.2.4,9.8,9.8,0,0,1,1.422.379A2.336,2.336,0,0,1,104.82-2.43a2.2,2.2,0,0,1-.992,1.871,4.28,4.28,0,0,1-2.562.715,4.47,4.47,0,0,1-1.887-.379,3.166,3.166,0,0,1-1.293-1.039,2.414,2.414,0,0,1-.469-1.426h2.141a1.179,1.179,0,0,0,.445.922,1.766,1.766,0,0,0,1.109.32,1.635,1.635,0,0,0,.98-.246A.766.766,0,0,0,102.625-2.336Zm6.352-8.2v2.078h1.445V-6.8h-1.445v4.219a1.007,1.007,0,0,0,.18.672.9.9,0,0,0,.688.2,3.6,3.6,0,0,0,.664-.055V-.047a4.648,4.648,0,0,1-1.367.2,2.156,2.156,0,0,1-2.422-2.4V-6.8h-1.234V-8.453h1.234v-2.078ZM111.094-4.3a5.013,5.013,0,0,1,.484-2.242,3.546,3.546,0,0,1,1.395-1.523,4.069,4.069,0,0,1,2.113-.539,3.849,3.849,0,0,1,2.793,1.047,4.2,4.2,0,0,1,1.207,2.844l.016.578a4.418,4.418,0,0,1-1.086,3.121A3.775,3.775,0,0,1,115.1.156a3.793,3.793,0,0,1-2.918-1.172,4.5,4.5,0,0,1-1.09-3.187Zm2.258.16A3.16,3.16,0,0,0,113.8-2.3a1.5,1.5,0,0,0,1.3.638,1.5,1.5,0,0,0,1.281-.63,3.457,3.457,0,0,0,.461-2.015,3.128,3.128,0,0,0-.461-1.831,1.5,1.5,0,0,0-1.3-.649,1.474,1.474,0,0,0-1.281.646A3.516,3.516,0,0,0,113.352-4.144Zm6.789-.145a5.094,5.094,0,0,1,.887-3.148,2.877,2.877,0,0,1,2.426-1.172,2.589,2.589,0,0,1,2.039.922V-12h2.266V0h-2.039l-.109-.9A2.657,2.657,0,0,1,123.438.156a2.869,2.869,0,0,1-2.395-1.176A5.258,5.258,0,0,1,120.141-4.289Zm2.258.168a3.337,3.337,0,0,0,.414,1.823,1.349,1.349,0,0,0,1.2.634,1.511,1.511,0,0,0,1.477-.884V-5.889a1.489,1.489,0,0,0-1.461-.884Q122.4-6.773,122.4-4.121ZM131.891,0h-2.266V-8.453h2.266Zm-2.4-10.641a1.112,1.112,0,0,1,.34-.836,1.277,1.277,0,0,1,.926-.328,1.28,1.28,0,0,1,.922.328,1.105,1.105,0,0,1,.344.836,1.109,1.109,0,0,1-.348.844,1.283,1.283,0,0,1-.918.328,1.283,1.283,0,0,1-.918-.328A1.109,1.109,0,0,1,129.492-10.641ZM138.648,0a2.507,2.507,0,0,1-.227-.758,2.732,2.732,0,0,1-2.133.914,3,3,0,0,1-2.059-.719,2.312,2.312,0,0,1-.816-1.812,2.389,2.389,0,0,1,1-2.062,4.915,4.915,0,0,1,2.879-.727h1.039v-.484a1.393,1.393,0,0,0-.3-.937,1.183,1.183,0,0,0-.949-.352,1.345,1.345,0,0,0-.895.273.929.929,0,0,0-.324.75H133.6a2.268,2.268,0,0,1,.453-1.359,3,3,0,0,1,1.281-.98,4.669,4.669,0,0,1,1.859-.355,3.689,3.689,0,0,1,2.48.785,2.747,2.747,0,0,1,.918,2.207v3.664a4.041,4.041,0,0,0,.336,1.82V0Zm-1.867-1.57a1.945,1.945,0,0,0,.922-.223,1.462,1.462,0,0,0,.625-.6V-3.844h-.844q-1.7,0-1.8,1.172l-.008.133a.9.9,0,0,0,.3.7A1.153,1.153,0,0,0,136.781-1.57Z" transform="translate(731 1508)" fill="#12263f"/>
    <path id="Trazado_725379" data-name="Trazado 725379" d="M9.578-9.477H6.094V0H3.75V-9.477H.313v-1.9H9.578ZM13.148,0H10.883V-8.453h2.266Zm-2.4-10.641a1.112,1.112,0,0,1,.34-.836,1.277,1.277,0,0,1,.926-.328,1.28,1.28,0,0,1,.922.328,1.105,1.105,0,0,1,.344.836,1.108,1.108,0,0,1-.348.844,1.283,1.283,0,0,1-.918.328A1.283,1.283,0,0,1,11.1-9.8,1.108,1.108,0,0,1,10.75-10.641ZM22.617-4.148A5.07,5.07,0,0,1,21.73-1.02,2.843,2.843,0,0,1,19.336.156a2.633,2.633,0,0,1-2.07-.891V3.25H15.008v-11.7H17.1l.078.828a2.654,2.654,0,0,1,2.141-.984,2.862,2.862,0,0,1,2.43,1.156,5.207,5.207,0,0,1,.867,3.188Zm-2.258-.164a3.327,3.327,0,0,0-.418-1.82,1.361,1.361,0,0,0-1.215-.641,1.478,1.478,0,0,0-1.461.813V-2.5a1.5,1.5,0,0,0,1.477.836Q20.359-1.664,20.359-4.312Zm3.3.008a5.013,5.013,0,0,1,.484-2.242A3.546,3.546,0,0,1,25.543-8.07a4.069,4.069,0,0,1,2.113-.539,3.849,3.849,0,0,1,2.793,1.047,4.2,4.2,0,0,1,1.207,2.844l.016.578A4.418,4.418,0,0,1,30.586-1.02,3.775,3.775,0,0,1,27.672.156a3.793,3.793,0,0,1-2.918-1.172A4.5,4.5,0,0,1,23.664-4.2Zm2.258.16A3.16,3.16,0,0,0,26.375-2.3a1.5,1.5,0,0,0,1.3.638,1.5,1.5,0,0,0,1.281-.63,3.457,3.457,0,0,0,.461-2.015,3.128,3.128,0,0,0-.461-1.831,1.5,1.5,0,0,0-1.3-.649,1.474,1.474,0,0,0-1.281.646A3.516,3.516,0,0,0,25.922-4.144ZM36.7-4.289a5.094,5.094,0,0,1,.887-3.148,2.877,2.877,0,0,1,2.426-1.172,2.589,2.589,0,0,1,2.039.922V-12h2.266V0H42.273l-.109-.9A2.657,2.657,0,0,1,39.992.156,2.869,2.869,0,0,1,37.6-1.02,5.258,5.258,0,0,1,36.7-4.289Zm2.258.168A3.337,3.337,0,0,0,39.367-2.3a1.349,1.349,0,0,0,1.2.634,1.511,1.511,0,0,0,1.477-.884V-5.889a1.489,1.489,0,0,0-1.461-.884Q38.953-6.773,38.953-4.121Zm11,4.277A4.15,4.15,0,0,1,46.926-.984a4.054,4.054,0,0,1-1.168-3.039v-.219A5.106,5.106,0,0,1,46.25-6.52a3.612,3.612,0,0,1,1.395-1.547A3.914,3.914,0,0,1,49.7-8.609a3.508,3.508,0,0,1,2.73,1.094,4.444,4.444,0,0,1,1,3.1v.922H48.047a2.1,2.1,0,0,0,.66,1.328,2,2,0,0,0,1.395.5,2.437,2.437,0,0,0,2.039-.945L53.25-1.367A3.389,3.389,0,0,1,51.875-.246,4.511,4.511,0,0,1,49.953.156ZM49.7-6.789a1.411,1.411,0,0,0-1.09.455,2.357,2.357,0,0,0-.535,1.3h3.141v-.181A1.681,1.681,0,0,0,50.8-6.377,1.456,1.456,0,0,0,49.7-6.789ZM60.813-8.453l.07.945a2.971,2.971,0,0,1,2.43-1.1A2.255,2.255,0,0,1,65.555-7.32a2.9,2.9,0,0,1,2.539-1.289,2.521,2.521,0,0,1,2.047.8,3.681,3.681,0,0,1,.672,2.41V0H68.547V-5.391a1.61,1.61,0,0,0-.281-1.051,1.246,1.246,0,0,0-.992-.332,1.409,1.409,0,0,0-1.406.969L65.875,0H63.617V-5.383a1.59,1.59,0,0,0-.289-1.062,1.259,1.259,0,0,0-.984-.328,1.463,1.463,0,0,0-1.391.8V0H58.7V-8.453Zm16.8,7.594A2.831,2.831,0,0,1,75.3.156a2.67,2.67,0,0,1-2.074-.781,3.335,3.335,0,0,1-.73-2.289V-8.453H74.75v5.467q0,1.322,1.2,1.322a1.63,1.63,0,0,0,1.578-.8V-8.453H79.8V0H77.672ZM85.391.156A4.15,4.15,0,0,1,82.363-.984,4.054,4.054,0,0,1,81.2-4.023v-.219a5.106,5.106,0,0,1,.492-2.277,3.612,3.612,0,0,1,1.395-1.547,3.914,3.914,0,0,1,2.059-.543,3.508,3.508,0,0,1,2.73,1.094,4.444,4.444,0,0,1,1,3.1v.922H83.484a2.1,2.1,0,0,0,.66,1.328,2,2,0,0,0,1.395.5,2.437,2.437,0,0,0,2.039-.945l1.109,1.242A3.389,3.389,0,0,1,87.313-.246,4.511,4.511,0,0,1,85.391.156Zm-.258-6.945a1.411,1.411,0,0,0-1.09.455,2.357,2.357,0,0,0-.535,1.3h3.141v-.181a1.681,1.681,0,0,0-.406-1.165A1.456,1.456,0,0,0,85.133-6.789Zm9.594,4.453a.727.727,0,0,0-.41-.652A4.659,4.659,0,0,0,93-3.414q-3.016-.633-3.016-2.562a2.323,2.323,0,0,1,.934-1.879,3.766,3.766,0,0,1,2.441-.754,4.053,4.053,0,0,1,2.574.758A2.388,2.388,0,0,1,96.9-5.883H94.641a1.092,1.092,0,0,0-.312-.8A1.322,1.322,0,0,0,93.352-7a1.351,1.351,0,0,0-.883.258.814.814,0,0,0-.312.656.7.7,0,0,0,.355.605,3.657,3.657,0,0,0,1.2.4,9.8,9.8,0,0,1,1.422.379A2.336,2.336,0,0,1,96.922-2.43,2.2,2.2,0,0,1,95.93-.559a4.28,4.28,0,0,1-2.562.715A4.47,4.47,0,0,1,91.48-.223a3.166,3.166,0,0,1-1.293-1.039,2.414,2.414,0,0,1-.469-1.426h2.141a1.179,1.179,0,0,0,.445.922,1.766,1.766,0,0,0,1.109.32,1.635,1.635,0,0,0,.98-.246A.766.766,0,0,0,94.727-2.336Zm6.352-8.2v2.078h1.445V-6.8h-1.445v4.219a1.007,1.007,0,0,0,.18.672.9.9,0,0,0,.688.2,3.6,3.6,0,0,0,.664-.055V-.047a4.648,4.648,0,0,1-1.367.2,2.156,2.156,0,0,1-2.422-2.4V-6.8H97.586V-8.453H98.82v-2.078Zm7.453,4.2a6.134,6.134,0,0,0-.812-.062,1.654,1.654,0,0,0-1.68.867V0h-2.258V-8.453h2.133l.063,1.008a2.092,2.092,0,0,1,1.883-1.164,2.366,2.366,0,0,1,.7.1ZM114.281,0a2.507,2.507,0,0,1-.227-.758,2.732,2.732,0,0,1-2.133.914,3,3,0,0,1-2.059-.719,2.312,2.312,0,0,1-.816-1.812,2.389,2.389,0,0,1,1-2.062,4.915,4.915,0,0,1,2.879-.727h1.039v-.484a1.393,1.393,0,0,0-.3-.937,1.183,1.183,0,0,0-.949-.352,1.345,1.345,0,0,0-.895.273.929.929,0,0,0-.324.75h-2.258a2.268,2.268,0,0,1,.453-1.359,3,3,0,0,1,1.281-.98,4.669,4.669,0,0,1,1.859-.355,3.689,3.689,0,0,1,2.48.785,2.747,2.747,0,0,1,.918,2.207v3.664a4.041,4.041,0,0,0,.336,1.82V0Zm-1.867-1.57a1.945,1.945,0,0,0,.922-.223,1.462,1.462,0,0,0,.625-.6V-3.844h-.844q-1.7,0-1.8,1.172l-.008.133a.9.9,0,0,0,.3.7A1.153,1.153,0,0,0,112.414-1.57Z" transform="translate(1095 1448)" fill="#12263f"/>
    <path id="Trazado_725373" data-name="Trazado 725373" d="M10.266,0H7.922L3.359-7.484V0H1.016V-11.375H3.359l4.57,7.5v-7.5h2.336Zm6.961-.859A2.831,2.831,0,0,1,14.914.156,2.67,2.67,0,0,1,12.84-.625a3.335,3.335,0,0,1-.73-2.289V-8.453h2.258v5.467q0,1.322,1.2,1.322a1.63,1.63,0,0,0,1.578-.8V-8.453h2.266V0H17.289ZM16.219-12H18.68L16.516-9.578H14.68Zm7.016,3.547.07.945a2.971,2.971,0,0,1,2.43-1.1A2.255,2.255,0,0,1,27.977-7.32a2.9,2.9,0,0,1,2.539-1.289,2.521,2.521,0,0,1,2.047.8,3.681,3.681,0,0,1,.672,2.41V0H30.969V-5.391a1.61,1.61,0,0,0-.281-1.051,1.246,1.246,0,0,0-.992-.332,1.409,1.409,0,0,0-1.406.969L28.3,0H26.039V-5.383a1.59,1.59,0,0,0-.289-1.062,1.259,1.259,0,0,0-.984-.328,1.463,1.463,0,0,0-1.391.8V0H21.117V-8.453ZM38.859.156A4.15,4.15,0,0,1,35.832-.984a4.054,4.054,0,0,1-1.168-3.039v-.219a5.106,5.106,0,0,1,.492-2.277,3.612,3.612,0,0,1,1.395-1.547,3.914,3.914,0,0,1,2.059-.543,3.508,3.508,0,0,1,2.73,1.094,4.444,4.444,0,0,1,1,3.1v.922H36.953a2.1,2.1,0,0,0,.66,1.328,2,2,0,0,0,1.395.5,2.437,2.437,0,0,0,2.039-.945l1.109,1.242A3.389,3.389,0,0,1,40.781-.246,4.511,4.511,0,0,1,38.859.156ZM38.6-6.789a1.411,1.411,0,0,0-1.09.455,2.357,2.357,0,0,0-.535,1.3h3.141v-.181a1.681,1.681,0,0,0-.406-1.165A1.456,1.456,0,0,0,38.6-6.789Zm9.766.453a6.134,6.134,0,0,0-.812-.062,1.654,1.654,0,0,0-1.68.867V0H43.617V-8.453H45.75l.063,1.008A2.092,2.092,0,0,1,47.7-8.609a2.366,2.366,0,0,1,.7.1ZM48.82-4.3A5.013,5.013,0,0,1,49.3-6.547,3.546,3.546,0,0,1,50.7-8.07a4.069,4.069,0,0,1,2.113-.539,3.849,3.849,0,0,1,2.793,1.047,4.2,4.2,0,0,1,1.207,2.844l.016.578A4.418,4.418,0,0,1,55.742-1.02,3.775,3.775,0,0,1,52.828.156,3.793,3.793,0,0,1,49.91-1.016,4.5,4.5,0,0,1,48.82-4.2Zm2.258.16A3.16,3.16,0,0,0,51.531-2.3a1.5,1.5,0,0,0,1.3.638,1.5,1.5,0,0,0,1.281-.63,3.457,3.457,0,0,0,.461-2.015,3.128,3.128,0,0,0-.461-1.831,1.5,1.5,0,0,0-1.3-.649,1.474,1.474,0,0,0-1.281.646A3.516,3.516,0,0,0,51.078-4.144Zm10.773-.145a5.094,5.094,0,0,1,.887-3.148,2.877,2.877,0,0,1,2.426-1.172,2.589,2.589,0,0,1,2.039.922V-12h2.266V0H67.43L67.32-.9A2.657,2.657,0,0,1,65.148.156,2.869,2.869,0,0,1,62.754-1.02,5.258,5.258,0,0,1,61.852-4.289Zm2.258.168A3.337,3.337,0,0,0,64.523-2.3a1.349,1.349,0,0,0,1.2.634A1.511,1.511,0,0,0,67.2-2.548V-5.889a1.489,1.489,0,0,0-1.461-.884Q64.109-6.773,64.109-4.121Zm11,4.277A4.15,4.15,0,0,1,72.082-.984a4.054,4.054,0,0,1-1.168-3.039v-.219a5.106,5.106,0,0,1,.492-2.277A3.612,3.612,0,0,1,72.8-8.066a3.914,3.914,0,0,1,2.059-.543,3.508,3.508,0,0,1,2.73,1.094,4.444,4.444,0,0,1,1,3.1v.922H73.2a2.1,2.1,0,0,0,.66,1.328,2,2,0,0,0,1.395.5A2.437,2.437,0,0,0,77.3-2.609l1.109,1.242A3.389,3.389,0,0,1,77.031-.246,4.511,4.511,0,0,1,75.109.156Zm-.258-6.945a1.411,1.411,0,0,0-1.09.455,2.357,2.357,0,0,0-.535,1.3h3.141v-.181a1.681,1.681,0,0,0-.406-1.165A1.456,1.456,0,0,0,74.852-6.789ZM85.969-8.453l.07.945a2.971,2.971,0,0,1,2.43-1.1A2.255,2.255,0,0,1,90.711-7.32,2.9,2.9,0,0,1,93.25-8.609a2.521,2.521,0,0,1,2.047.8,3.681,3.681,0,0,1,.672,2.41V0H93.7V-5.391a1.61,1.61,0,0,0-.281-1.051,1.246,1.246,0,0,0-.992-.332,1.409,1.409,0,0,0-1.406.969L91.031,0H88.773V-5.383a1.59,1.59,0,0,0-.289-1.062,1.259,1.259,0,0,0-.984-.328,1.463,1.463,0,0,0-1.391.8V0H83.852V-8.453Zm16.8,7.594A2.831,2.831,0,0,1,100.453.156a2.67,2.67,0,0,1-2.074-.781,3.335,3.335,0,0,1-.73-2.289V-8.453h2.258v5.467q0,1.322,1.2,1.322a1.63,1.63,0,0,0,1.578-.8V-8.453h2.266V0h-2.125ZM110.547.156A4.15,4.15,0,0,1,107.52-.984a4.054,4.054,0,0,1-1.168-3.039v-.219a5.106,5.106,0,0,1,.492-2.277,3.612,3.612,0,0,1,1.395-1.547,3.914,3.914,0,0,1,2.059-.543,3.508,3.508,0,0,1,2.73,1.094,4.444,4.444,0,0,1,1,3.1v.922h-5.383a2.1,2.1,0,0,0,.66,1.328,2,2,0,0,0,1.395.5,2.437,2.437,0,0,0,2.039-.945l1.109,1.242a3.389,3.389,0,0,1-1.375,1.121A4.511,4.511,0,0,1,110.547.156Zm-.258-6.945a1.411,1.411,0,0,0-1.09.455,2.357,2.357,0,0,0-.535,1.3H111.8v-.181a1.681,1.681,0,0,0-.406-1.165A1.456,1.456,0,0,0,110.289-6.789Zm9.594,4.453a.727.727,0,0,0-.41-.652,4.659,4.659,0,0,0-1.316-.426q-3.016-.633-3.016-2.562a2.323,2.323,0,0,1,.934-1.879,3.766,3.766,0,0,1,2.441-.754,4.053,4.053,0,0,1,2.574.758,2.388,2.388,0,0,1,.965,1.969H119.8a1.092,1.092,0,0,0-.312-.8A1.322,1.322,0,0,0,118.508-7a1.351,1.351,0,0,0-.883.258.814.814,0,0,0-.312.656.7.7,0,0,0,.355.605,3.657,3.657,0,0,0,1.2.4,9.8,9.8,0,0,1,1.422.379,2.336,2.336,0,0,1,1.789,2.273,2.2,2.2,0,0,1-.992,1.871,4.28,4.28,0,0,1-2.562.715,4.47,4.47,0,0,1-1.887-.379,3.166,3.166,0,0,1-1.293-1.039,2.414,2.414,0,0,1-.469-1.426h2.141a1.179,1.179,0,0,0,.445.922,1.766,1.766,0,0,0,1.109.32,1.635,1.635,0,0,0,.98-.246A.766.766,0,0,0,119.883-2.336Zm6.352-8.2v2.078h1.445V-6.8h-1.445v4.219a1.007,1.007,0,0,0,.18.672.9.9,0,0,0,.688.2,3.6,3.6,0,0,0,.664-.055V-.047a4.648,4.648,0,0,1-1.367.2,2.156,2.156,0,0,1-2.422-2.4V-6.8h-1.234V-8.453h1.234v-2.078Zm7.453,4.2a6.134,6.134,0,0,0-.812-.062,1.654,1.654,0,0,0-1.68.867V0h-2.258V-8.453h2.133l.063,1.008a2.092,2.092,0,0,1,1.883-1.164,2.366,2.366,0,0,1,.7.1ZM139.438,0a2.507,2.507,0,0,1-.227-.758,2.732,2.732,0,0,1-2.133.914,3,3,0,0,1-2.059-.719,2.312,2.312,0,0,1-.816-1.812,2.389,2.389,0,0,1,1-2.062,4.915,4.915,0,0,1,2.879-.727h1.039v-.484a1.393,1.393,0,0,0-.3-.937,1.183,1.183,0,0,0-.949-.352,1.345,1.345,0,0,0-.895.273.929.929,0,0,0-.324.75h-2.258a2.268,2.268,0,0,1,.453-1.359,3,3,0,0,1,1.281-.98,4.669,4.669,0,0,1,1.859-.355,3.689,3.689,0,0,1,2.48.785,2.747,2.747,0,0,1,.918,2.207v3.664a4.041,4.041,0,0,0,.336,1.82V0ZM137.57-1.57a1.945,1.945,0,0,0,.922-.223,1.462,1.462,0,0,0,.625-.6V-3.844h-.844q-1.7,0-1.8,1.172l-.008.133a.9.9,0,0,0,.3.7A1.153,1.153,0,0,0,137.57-1.57Z" transform="translate(379 1615)" fill="#12263f"/>
    <path id="Trazado_725376" data-name="Trazado 725376" d="M3.359-4.008V0H1.016V-11.375H5.453a5.134,5.134,0,0,1,2.254.469A3.454,3.454,0,0,1,9.2-9.574a3.714,3.714,0,0,1,.523,1.965A3.266,3.266,0,0,1,8.582-4.973a4.767,4.767,0,0,1-3.168.965Zm0-1.9H5.453a2.059,2.059,0,0,0,1.418-.437,1.591,1.591,0,0,0,.488-1.25,1.876,1.876,0,0,0-.492-1.352,1.839,1.839,0,0,0-1.359-.531H3.359Zm17.32.477a6.867,6.867,0,0,1-.594,2.945,4.472,4.472,0,0,1-1.7,1.953,4.7,4.7,0,0,1-2.535.688,4.732,4.732,0,0,1-2.523-.68,4.515,4.515,0,0,1-1.719-1.941,6.67,6.67,0,0,1-.617-2.9V-5.93A6.831,6.831,0,0,1,11.6-8.887a4.508,4.508,0,0,1,1.711-1.961,4.706,4.706,0,0,1,2.527-.684,4.706,4.706,0,0,1,2.527.684,4.508,4.508,0,0,1,1.711,1.961,6.811,6.811,0,0,1,.605,2.949ZM18.3-5.945a4.787,4.787,0,0,0-.641-2.719,2.088,2.088,0,0,0-1.828-.93,2.088,2.088,0,0,0-1.82.918,4.732,4.732,0,0,0-.648,2.691v.555a4.847,4.847,0,0,0,.641,2.7,2.082,2.082,0,0,0,1.844.961,2.064,2.064,0,0,0,1.813-.926,4.819,4.819,0,0,0,.641-2.7ZM29.227-4.93h-4.5v3.047h5.281V0H22.383V-11.375h7.609v1.9H24.727v2.711h4.5Zm8.109-3.523.07.945a2.971,2.971,0,0,1,2.43-1.1A2.255,2.255,0,0,1,42.078-7.32a2.9,2.9,0,0,1,2.539-1.289,2.521,2.521,0,0,1,2.047.8,3.681,3.681,0,0,1,.672,2.41V0H45.07V-5.391a1.61,1.61,0,0,0-.281-1.051,1.246,1.246,0,0,0-.992-.332,1.409,1.409,0,0,0-1.406.969L42.4,0H40.141V-5.383a1.59,1.59,0,0,0-.289-1.062,1.259,1.259,0,0,0-.984-.328,1.463,1.463,0,0,0-1.391.8V0H35.219V-8.453Zm16.8,7.594A2.831,2.831,0,0,1,51.82.156a2.67,2.67,0,0,1-2.074-.781,3.335,3.335,0,0,1-.73-2.289V-8.453h2.258v5.467q0,1.322,1.2,1.322a1.63,1.63,0,0,0,1.578-.8V-8.453H56.32V0H54.2ZM61.914.156A4.15,4.15,0,0,1,58.887-.984a4.054,4.054,0,0,1-1.168-3.039v-.219a5.106,5.106,0,0,1,.492-2.277,3.612,3.612,0,0,1,1.395-1.547,3.914,3.914,0,0,1,2.059-.543,3.508,3.508,0,0,1,2.73,1.094,4.444,4.444,0,0,1,1,3.1v.922H60.008a2.1,2.1,0,0,0,.66,1.328,2,2,0,0,0,1.395.5A2.437,2.437,0,0,0,64.1-2.609l1.109,1.242A3.389,3.389,0,0,1,63.836-.246,4.511,4.511,0,0,1,61.914.156Zm-.258-6.945a1.411,1.411,0,0,0-1.09.455,2.357,2.357,0,0,0-.535,1.3h3.141v-.181a1.681,1.681,0,0,0-.406-1.165A1.456,1.456,0,0,0,61.656-6.789ZM71.25-2.336a.727.727,0,0,0-.41-.652,4.659,4.659,0,0,0-1.316-.426q-3.016-.633-3.016-2.562a2.323,2.323,0,0,1,.934-1.879,3.766,3.766,0,0,1,2.441-.754,4.053,4.053,0,0,1,2.574.758,2.388,2.388,0,0,1,.965,1.969H71.164a1.092,1.092,0,0,0-.312-.8A1.322,1.322,0,0,0,69.875-7a1.351,1.351,0,0,0-.883.258.814.814,0,0,0-.312.656.7.7,0,0,0,.355.605,3.657,3.657,0,0,0,1.2.4,9.8,9.8,0,0,1,1.422.379A2.336,2.336,0,0,1,73.445-2.43a2.2,2.2,0,0,1-.992,1.871,4.28,4.28,0,0,1-2.562.715A4.47,4.47,0,0,1,68-.223a3.166,3.166,0,0,1-1.293-1.039,2.414,2.414,0,0,1-.469-1.426h2.141a1.179,1.179,0,0,0,.445.922,1.766,1.766,0,0,0,1.109.32,1.635,1.635,0,0,0,.98-.246A.766.766,0,0,0,71.25-2.336Zm6.352-8.2v2.078h1.445V-6.8H77.6v4.219a1.007,1.007,0,0,0,.18.672.9.9,0,0,0,.688.2,3.6,3.6,0,0,0,.664-.055V-.047a4.648,4.648,0,0,1-1.367.2,2.156,2.156,0,0,1-2.422-2.4V-6.8H74.109V-8.453h1.234v-2.078Zm7.453,4.2a6.134,6.134,0,0,0-.812-.062,1.654,1.654,0,0,0-1.68.867V0H80.3V-8.453h2.133L82.5-7.445a2.092,2.092,0,0,1,1.883-1.164,2.366,2.366,0,0,1,.7.1ZM90.031.156A4.15,4.15,0,0,1,87-.984a4.054,4.054,0,0,1-1.168-3.039v-.219a5.106,5.106,0,0,1,.492-2.277,3.612,3.612,0,0,1,1.395-1.547,3.914,3.914,0,0,1,2.059-.543,3.508,3.508,0,0,1,2.73,1.094,4.444,4.444,0,0,1,1,3.1v.922H88.125a2.1,2.1,0,0,0,.66,1.328,2,2,0,0,0,1.395.5,2.437,2.437,0,0,0,2.039-.945l1.109,1.242A3.389,3.389,0,0,1,91.953-.246,4.511,4.511,0,0,1,90.031.156Zm-.258-6.945a1.411,1.411,0,0,0-1.09.455,2.357,2.357,0,0,0-.535,1.3h3.141v-.181a1.681,1.681,0,0,0-.406-1.165A1.456,1.456,0,0,0,89.773-6.789ZM94.438-4.3a5.013,5.013,0,0,1,.484-2.242A3.546,3.546,0,0,1,96.316-8.07a4.069,4.069,0,0,1,2.113-.539,3.849,3.849,0,0,1,2.793,1.047,4.2,4.2,0,0,1,1.207,2.844l.016.578a4.418,4.418,0,0,1-1.086,3.121A3.775,3.775,0,0,1,98.445.156a3.793,3.793,0,0,1-2.918-1.172A4.5,4.5,0,0,1,94.438-4.2Zm2.258.16A3.16,3.16,0,0,0,97.148-2.3a1.5,1.5,0,0,0,1.3.638,1.5,1.5,0,0,0,1.281-.63,3.457,3.457,0,0,0,.461-2.015,3.128,3.128,0,0,0-.461-1.831,1.5,1.5,0,0,0-1.3-.649,1.474,1.474,0,0,0-1.281.646A3.516,3.516,0,0,0,96.7-4.144Z" transform="translate(398 1781)" fill="#12263f"/>
    <path id="Trazado_725377" data-name="Trazado 725377" d="M4.383-1.664A1.481,1.481,0,0,0,5.4-2.008,1.2,1.2,0,0,0,5.8-2.922H7.922a2.9,2.9,0,0,1-.469,1.574A3.093,3.093,0,0,1,6.191-.238a3.949,3.949,0,0,1-1.77.395A3.67,3.67,0,0,1,1.563-1,4.56,4.56,0,0,1,.516-4.18v-.148A4.508,4.508,0,0,1,1.555-7.445,3.627,3.627,0,0,1,4.406-8.609a3.555,3.555,0,0,1,2.543.9,3.2,3.2,0,0,1,.973,2.4H5.8A1.551,1.551,0,0,0,5.4-6.377a1.354,1.354,0,0,0-1.031-.412,1.36,1.36,0,0,0-1.191.575,3.333,3.333,0,0,0-.4,1.866v.235a3.375,3.375,0,0,0,.4,1.878A1.377,1.377,0,0,0,4.383-1.664ZM14.109,0a2.507,2.507,0,0,1-.227-.758A2.732,2.732,0,0,1,11.75.156,3,3,0,0,1,9.691-.562a2.312,2.312,0,0,1-.816-1.812,2.389,2.389,0,0,1,1-2.062,4.915,4.915,0,0,1,2.879-.727h1.039v-.484a1.393,1.393,0,0,0-.3-.937,1.183,1.183,0,0,0-.949-.352,1.345,1.345,0,0,0-.895.273.929.929,0,0,0-.324.75H9.063a2.268,2.268,0,0,1,.453-1.359,3,3,0,0,1,1.281-.98,4.669,4.669,0,0,1,1.859-.355,3.689,3.689,0,0,1,2.48.785,2.747,2.747,0,0,1,.918,2.207v3.664a4.041,4.041,0,0,0,.336,1.82V0ZM12.242-1.57a1.945,1.945,0,0,0,.922-.223,1.462,1.462,0,0,0,.625-.6V-3.844h-.844q-1.7,0-1.8,1.172l-.008.133a.9.9,0,0,0,.3.7A1.153,1.153,0,0,0,12.242-1.57ZM20.172,0H17.906V-12h2.266Zm4.242,0H22.148V-8.453h2.266Zm-2.4-10.641a1.112,1.112,0,0,1,.34-.836,1.277,1.277,0,0,1,.926-.328,1.28,1.28,0,0,1,.922.328,1.105,1.105,0,0,1,.344.836A1.108,1.108,0,0,1,24.2-9.8a1.283,1.283,0,0,1-.918.328,1.283,1.283,0,0,1-.918-.328A1.108,1.108,0,0,1,22.016-10.641ZM33.891-4.148A5.119,5.119,0,0,1,33.023-.98,2.872,2.872,0,0,1,30.6.156,2.639,2.639,0,0,1,28.406-.9l-.1.9H26.273V-12h2.258v4.3a2.571,2.571,0,0,1,2.055-.914,2.9,2.9,0,0,1,2.426,1.137,5.126,5.126,0,0,1,.879,3.2Zm-2.258-.164a3.363,3.363,0,0,0-.406-1.871,1.374,1.374,0,0,0-1.211-.59,1.489,1.489,0,0,0-1.484.883v3.336a1.509,1.509,0,0,0,1.5.891,1.394,1.394,0,0,0,1.438-1.078A5.562,5.562,0,0,0,31.633-4.312Zm8.4-2.023a6.134,6.134,0,0,0-.812-.062,1.654,1.654,0,0,0-1.68.867V0H35.281V-8.453h2.133l.063,1.008a2.092,2.092,0,0,1,1.883-1.164,2.366,2.366,0,0,1,.7.1ZM45.781,0a2.507,2.507,0,0,1-.227-.758,2.732,2.732,0,0,1-2.133.914,3,3,0,0,1-2.059-.719,2.312,2.312,0,0,1-.816-1.812,2.389,2.389,0,0,1,1-2.062,4.915,4.915,0,0,1,2.879-.727h1.039v-.484a1.393,1.393,0,0,0-.3-.937,1.183,1.183,0,0,0-.949-.352,1.345,1.345,0,0,0-.895.273.929.929,0,0,0-.324.75H40.734a2.268,2.268,0,0,1,.453-1.359,3,3,0,0,1,1.281-.98,4.669,4.669,0,0,1,1.859-.355,3.689,3.689,0,0,1,2.48.785,2.747,2.747,0,0,1,.918,2.207v3.664a4.041,4.041,0,0,0,.336,1.82V0ZM43.914-1.57a1.945,1.945,0,0,0,.922-.223,1.462,1.462,0,0,0,.625-.6V-3.844h-.844q-1.7,0-1.8,1.172l-.008.133a.9.9,0,0,0,.3.7A1.153,1.153,0,0,0,43.914-1.57Zm9.063-.094a1.481,1.481,0,0,0,1.016-.344,1.2,1.2,0,0,0,.406-.914h2.117a2.9,2.9,0,0,1-.469,1.574A3.093,3.093,0,0,1,54.785-.238a3.949,3.949,0,0,1-1.77.395A3.67,3.67,0,0,1,50.156-1,4.56,4.56,0,0,1,49.109-4.18v-.148a4.508,4.508,0,0,1,1.039-3.117A3.627,3.627,0,0,1,53-8.609a3.555,3.555,0,0,1,2.543.9,3.2,3.2,0,0,1,.973,2.4H54.4a1.551,1.551,0,0,0-.406-1.072,1.354,1.354,0,0,0-1.031-.412,1.36,1.36,0,0,0-1.191.575,3.333,3.333,0,0,0-.4,1.866v.235a3.375,3.375,0,0,0,.4,1.878A1.377,1.377,0,0,0,52.977-1.664ZM60.188,0H57.922V-8.453h2.266Zm-2.4-10.641a1.112,1.112,0,0,1,.34-.836,1.277,1.277,0,0,1,.926-.328,1.28,1.28,0,0,1,.922.328,1.105,1.105,0,0,1,.344.836,1.108,1.108,0,0,1-.348.844,1.283,1.283,0,0,1-.918.328,1.283,1.283,0,0,1-.918-.328A1.108,1.108,0,0,1,57.789-10.641ZM61.7-4.3a5.013,5.013,0,0,1,.484-2.242A3.546,3.546,0,0,1,63.574-8.07a4.069,4.069,0,0,1,2.113-.539A3.849,3.849,0,0,1,68.48-7.562a4.2,4.2,0,0,1,1.207,2.844l.016.578A4.418,4.418,0,0,1,68.617-1.02,3.775,3.775,0,0,1,65.7.156a3.793,3.793,0,0,1-2.918-1.172A4.5,4.5,0,0,1,61.7-4.2Zm2.258.16A3.16,3.16,0,0,0,64.406-2.3a1.5,1.5,0,0,0,1.3.638,1.5,1.5,0,0,0,1.281-.63,3.457,3.457,0,0,0,.461-2.015,3.128,3.128,0,0,0-.461-1.831,1.5,1.5,0,0,0-1.3-.649,1.474,1.474,0,0,0-1.281.646A3.516,3.516,0,0,0,63.953-4.144ZM66.133-12h2.461L66.43-9.578H64.594Zm7.039,3.547.07.977a2.951,2.951,0,0,1,2.43-1.133,2.453,2.453,0,0,1,2,.789,3.682,3.682,0,0,1,.672,2.359V0H76.086V-5.406a1.465,1.465,0,0,0-.312-1.043,1.4,1.4,0,0,0-1.039-.324,1.553,1.553,0,0,0-1.43.813V0H71.047V-8.453ZM87.2-3.2l1.563-5.258H91.18l-3.4,9.766-.187.445a2.577,2.577,0,0,1-2.5,1.656,3.552,3.552,0,0,1-1-.148V1.555l.344.008a1.857,1.857,0,0,0,.957-.2,1.283,1.283,0,0,0,.5-.648l.266-.7L83.2-8.453h2.43ZM98.172-8.453l.07.945a2.971,2.971,0,0,1,2.43-1.1,2.255,2.255,0,0,1,2.242,1.289,2.9,2.9,0,0,1,2.539-1.289,2.521,2.521,0,0,1,2.047.8,3.681,3.681,0,0,1,.672,2.41V0h-2.266V-5.391a1.61,1.61,0,0,0-.281-1.051,1.246,1.246,0,0,0-.992-.332,1.409,1.409,0,0,0-1.406.969l.008,5.8h-2.258V-5.383a1.59,1.59,0,0,0-.289-1.062,1.259,1.259,0,0,0-.984-.328,1.463,1.463,0,0,0-1.391.8V0H96.055V-8.453Zm16.8,7.594A2.831,2.831,0,0,1,112.656.156a2.67,2.67,0,0,1-2.074-.781,3.335,3.335,0,0,1-.73-2.289V-8.453h2.258v5.467q0,1.322,1.2,1.322a1.63,1.63,0,0,0,1.578-.8V-8.453h2.266V0h-2.125ZM122.75.156a4.15,4.15,0,0,1-3.027-1.141,4.054,4.054,0,0,1-1.168-3.039v-.219a5.106,5.106,0,0,1,.492-2.277,3.612,3.612,0,0,1,1.395-1.547,3.914,3.914,0,0,1,2.059-.543,3.508,3.508,0,0,1,2.73,1.094,4.444,4.444,0,0,1,1,3.1v.922h-5.383a2.1,2.1,0,0,0,.66,1.328,2,2,0,0,0,1.395.5,2.437,2.437,0,0,0,2.039-.945l1.109,1.242a3.389,3.389,0,0,1-1.375,1.121A4.511,4.511,0,0,1,122.75.156Zm-.258-6.945a1.411,1.411,0,0,0-1.09.455,2.357,2.357,0,0,0-.535,1.3h3.141v-.181a1.681,1.681,0,0,0-.406-1.165A1.456,1.456,0,0,0,122.492-6.789Zm9.594,4.453a.727.727,0,0,0-.41-.652,4.659,4.659,0,0,0-1.316-.426q-3.016-.633-3.016-2.562a2.323,2.323,0,0,1,.934-1.879,3.766,3.766,0,0,1,2.441-.754,4.053,4.053,0,0,1,2.574.758,2.388,2.388,0,0,1,.965,1.969H132a1.092,1.092,0,0,0-.312-.8A1.322,1.322,0,0,0,130.711-7a1.351,1.351,0,0,0-.883.258.814.814,0,0,0-.312.656.7.7,0,0,0,.355.605,3.657,3.657,0,0,0,1.2.4,9.8,9.8,0,0,1,1.422.379,2.336,2.336,0,0,1,1.789,2.273,2.205,2.205,0,0,1-.992,1.871,4.28,4.28,0,0,1-2.562.715,4.47,4.47,0,0,1-1.887-.379,3.166,3.166,0,0,1-1.293-1.039,2.414,2.414,0,0,1-.469-1.426h2.141a1.179,1.179,0,0,0,.445.922,1.766,1.766,0,0,0,1.109.32,1.635,1.635,0,0,0,.98-.246A.766.766,0,0,0,132.086-2.336Zm6.352-8.2v2.078h1.445V-6.8h-1.445v4.219a1.007,1.007,0,0,0,.18.672.9.9,0,0,0,.688.2,3.6,3.6,0,0,0,.664-.055V-.047a4.648,4.648,0,0,1-1.367.2,2.156,2.156,0,0,1-2.422-2.4V-6.8h-1.234V-8.453h1.234v-2.078Zm7.453,4.2a6.134,6.134,0,0,0-.812-.062,1.654,1.654,0,0,0-1.68.867V0h-2.258V-8.453h2.133l.063,1.008a2.092,2.092,0,0,1,1.883-1.164,2.366,2.366,0,0,1,.7.1ZM150.867.156A4.15,4.15,0,0,1,147.84-.984a4.054,4.054,0,0,1-1.168-3.039v-.219a5.106,5.106,0,0,1,.492-2.277,3.612,3.612,0,0,1,1.395-1.547,3.914,3.914,0,0,1,2.059-.543,3.508,3.508,0,0,1,2.73,1.094,4.444,4.444,0,0,1,1,3.1v.922h-5.383a2.1,2.1,0,0,0,.66,1.328,2,2,0,0,0,1.395.5,2.437,2.437,0,0,0,2.039-.945l1.109,1.242a3.389,3.389,0,0,1-1.375,1.121A4.511,4.511,0,0,1,150.867.156Zm-.258-6.945a1.411,1.411,0,0,0-1.09.455,2.357,2.357,0,0,0-.535,1.3h3.141v-.181a1.681,1.681,0,0,0-.406-1.165A1.456,1.456,0,0,0,150.609-6.789ZM155.273-4.3a5.013,5.013,0,0,1,.484-2.242,3.546,3.546,0,0,1,1.395-1.523,4.069,4.069,0,0,1,2.113-.539,3.849,3.849,0,0,1,2.793,1.047,4.2,4.2,0,0,1,1.207,2.844l.016.578A4.418,4.418,0,0,1,162.2-1.02,3.775,3.775,0,0,1,159.281.156a3.793,3.793,0,0,1-2.918-1.172,4.5,4.5,0,0,1-1.09-3.187Zm2.258.16a3.16,3.16,0,0,0,.453,1.843,1.5,1.5,0,0,0,1.3.638,1.5,1.5,0,0,0,1.281-.63,3.457,3.457,0,0,0,.461-2.015,3.128,3.128,0,0,0-.461-1.831,1.5,1.5,0,0,0-1.3-.649,1.474,1.474,0,0,0-1.281.646A3.516,3.516,0,0,0,157.531-4.144Z" transform="translate(1071 1781)" fill="#12263f"/>
    <path id="Trazado_725382" data-name="Trazado 725382" d="M9.578-9.477H6.094V0H3.75V-9.477H.313v-1.9H9.578ZM13.148,0H10.883V-8.453h2.266Zm-2.4-10.641a1.112,1.112,0,0,1,.34-.836,1.277,1.277,0,0,1,.926-.328,1.28,1.28,0,0,1,.922.328,1.105,1.105,0,0,1,.344.836,1.108,1.108,0,0,1-.348.844,1.283,1.283,0,0,1-.918.328A1.283,1.283,0,0,1,11.1-9.8,1.108,1.108,0,0,1,10.75-10.641ZM18.9.156A4.15,4.15,0,0,1,15.871-.984,4.054,4.054,0,0,1,14.7-4.023v-.219A5.106,5.106,0,0,1,15.2-6.52,3.612,3.612,0,0,1,16.59-8.066a3.914,3.914,0,0,1,2.059-.543,3.508,3.508,0,0,1,2.73,1.094,4.444,4.444,0,0,1,1,3.1v.922H16.992a2.1,2.1,0,0,0,.66,1.328,2,2,0,0,0,1.395.5,2.437,2.437,0,0,0,2.039-.945L22.2-1.367A3.389,3.389,0,0,1,20.82-.246,4.511,4.511,0,0,1,18.9.156Zm-.258-6.945a1.411,1.411,0,0,0-1.09.455,2.357,2.357,0,0,0-.535,1.3h3.141v-.181a1.681,1.681,0,0,0-.406-1.165A1.456,1.456,0,0,0,18.641-6.789Zm7.133-1.664.07.945a2.971,2.971,0,0,1,2.43-1.1A2.255,2.255,0,0,1,30.516-7.32a2.9,2.9,0,0,1,2.539-1.289,2.521,2.521,0,0,1,2.047.8,3.681,3.681,0,0,1,.672,2.41V0H33.508V-5.391a1.61,1.61,0,0,0-.281-1.051,1.246,1.246,0,0,0-.992-.332,1.409,1.409,0,0,0-1.406.969L30.836,0H28.578V-5.383a1.59,1.59,0,0,0-.289-1.062,1.259,1.259,0,0,0-.984-.328,1.463,1.463,0,0,0-1.391.8V0H23.656V-8.453Zm19.344,4.3A5.07,5.07,0,0,1,44.23-1.02,2.843,2.843,0,0,1,41.836.156a2.633,2.633,0,0,1-2.07-.891V3.25H37.508v-11.7H39.6l.078.828a2.654,2.654,0,0,1,2.141-.984,2.862,2.862,0,0,1,2.43,1.156,5.207,5.207,0,0,1,.867,3.188Zm-2.258-.164a3.327,3.327,0,0,0-.418-1.82,1.361,1.361,0,0,0-1.215-.641,1.479,1.479,0,0,0-1.461.813V-2.5a1.5,1.5,0,0,0,1.477.836Q42.859-1.664,42.859-4.312Zm3.3.008a5.013,5.013,0,0,1,.484-2.242A3.546,3.546,0,0,1,48.043-8.07a4.069,4.069,0,0,1,2.113-.539,3.849,3.849,0,0,1,2.793,1.047,4.2,4.2,0,0,1,1.207,2.844l.016.578A4.418,4.418,0,0,1,53.086-1.02,3.775,3.775,0,0,1,50.172.156a3.793,3.793,0,0,1-2.918-1.172A4.5,4.5,0,0,1,46.164-4.2Zm2.258.16A3.16,3.16,0,0,0,48.875-2.3a1.5,1.5,0,0,0,1.3.638,1.5,1.5,0,0,0,1.281-.63,3.457,3.457,0,0,0,.461-2.015,3.128,3.128,0,0,0-.461-1.831,1.5,1.5,0,0,0-1.3-.649,1.474,1.474,0,0,0-1.281.646A3.516,3.516,0,0,0,48.422-4.144ZM59.2-4.289a5.094,5.094,0,0,1,.887-3.148,2.877,2.877,0,0,1,2.426-1.172,2.589,2.589,0,0,1,2.039.922V-12h2.266V0H64.773l-.109-.9A2.657,2.657,0,0,1,62.492.156,2.869,2.869,0,0,1,60.1-1.02,5.258,5.258,0,0,1,59.2-4.289Zm2.258.168A3.337,3.337,0,0,0,61.867-2.3a1.349,1.349,0,0,0,1.2.634,1.511,1.511,0,0,0,1.477-.884V-5.889a1.489,1.489,0,0,0-1.461-.884Q61.453-6.773,61.453-4.121Zm11,4.277A4.15,4.15,0,0,1,69.426-.984a4.054,4.054,0,0,1-1.168-3.039v-.219A5.106,5.106,0,0,1,68.75-6.52a3.612,3.612,0,0,1,1.395-1.547A3.914,3.914,0,0,1,72.2-8.609a3.508,3.508,0,0,1,2.73,1.094,4.444,4.444,0,0,1,1,3.1v.922H70.547a2.1,2.1,0,0,0,.66,1.328,2,2,0,0,0,1.395.5,2.437,2.437,0,0,0,2.039-.945L75.75-1.367A3.389,3.389,0,0,1,74.375-.246,4.511,4.511,0,0,1,72.453.156ZM72.2-6.789a1.411,1.411,0,0,0-1.09.455,2.357,2.357,0,0,0-.535,1.3h3.141v-.181A1.681,1.681,0,0,0,73.3-6.377,1.456,1.456,0,0,0,72.2-6.789ZM86.094,0a2.507,2.507,0,0,1-.227-.758,2.732,2.732,0,0,1-2.133.914,3,3,0,0,1-2.059-.719,2.312,2.312,0,0,1-.816-1.812,2.389,2.389,0,0,1,1-2.062,4.915,4.915,0,0,1,2.879-.727h1.039v-.484a1.393,1.393,0,0,0-.3-.937,1.183,1.183,0,0,0-.949-.352,1.345,1.345,0,0,0-.895.273.929.929,0,0,0-.324.75H81.047A2.268,2.268,0,0,1,81.5-7.273a3,3,0,0,1,1.281-.98,4.669,4.669,0,0,1,1.859-.355,3.689,3.689,0,0,1,2.48.785,2.747,2.747,0,0,1,.918,2.207v3.664a4.041,4.041,0,0,0,.336,1.82V0ZM84.227-1.57a1.945,1.945,0,0,0,.922-.223,1.462,1.462,0,0,0,.625-.6V-3.844H84.93q-1.7,0-1.8,1.172l-.008.133a.9.9,0,0,0,.3.7A1.153,1.153,0,0,0,84.227-1.57ZM92.156,0H89.891V-12h2.266Zm3.977-8.453.07.945a2.971,2.971,0,0,1,2.43-1.1,2.255,2.255,0,0,1,2.242,1.289,2.9,2.9,0,0,1,2.539-1.289,2.521,2.521,0,0,1,2.047.8,3.681,3.681,0,0,1,.672,2.41V0h-2.266V-5.391a1.61,1.61,0,0,0-.281-1.051,1.246,1.246,0,0,0-.992-.332,1.409,1.409,0,0,0-1.406.969L101.2,0H98.938V-5.383a1.59,1.59,0,0,0-.289-1.062,1.259,1.259,0,0,0-.984-.328,1.463,1.463,0,0,0-1.391.8V0H94.016V-8.453ZM112.766,0a2.507,2.507,0,0,1-.227-.758,2.732,2.732,0,0,1-2.133.914,3,3,0,0,1-2.059-.719,2.312,2.312,0,0,1-.816-1.812,2.389,2.389,0,0,1,1-2.062,4.915,4.915,0,0,1,2.879-.727h1.039v-.484a1.393,1.393,0,0,0-.3-.937,1.183,1.183,0,0,0-.949-.352,1.345,1.345,0,0,0-.895.273.929.929,0,0,0-.324.75h-2.258a2.268,2.268,0,0,1,.453-1.359,3,3,0,0,1,1.281-.98,4.669,4.669,0,0,1,1.859-.355,3.689,3.689,0,0,1,2.48.785,2.747,2.747,0,0,1,.918,2.207v3.664a4.041,4.041,0,0,0,.336,1.82V0ZM110.9-1.57a1.945,1.945,0,0,0,.922-.223,1.462,1.462,0,0,0,.625-.6V-3.844H111.6q-1.7,0-1.8,1.172l-.008.133a.9.9,0,0,0,.3.7A1.153,1.153,0,0,0,110.9-1.57Zm9.063-.094a1.481,1.481,0,0,0,1.016-.344,1.2,1.2,0,0,0,.406-.914H123.5a2.9,2.9,0,0,1-.469,1.574A3.093,3.093,0,0,1,121.77-.238,3.949,3.949,0,0,1,120,.156,3.67,3.67,0,0,1,117.141-1a4.56,4.56,0,0,1-1.047-3.184v-.148a4.508,4.508,0,0,1,1.039-3.117,3.627,3.627,0,0,1,2.852-1.164,3.555,3.555,0,0,1,2.543.9,3.2,3.2,0,0,1,.973,2.4h-2.117a1.551,1.551,0,0,0-.406-1.072,1.354,1.354,0,0,0-1.031-.412,1.36,1.36,0,0,0-1.191.575,3.333,3.333,0,0,0-.4,1.866v.235a3.375,3.375,0,0,0,.4,1.878A1.377,1.377,0,0,0,119.961-1.664ZM128.68.156a4.15,4.15,0,0,1-3.027-1.141,4.054,4.054,0,0,1-1.168-3.039v-.219a5.106,5.106,0,0,1,.492-2.277,3.612,3.612,0,0,1,1.395-1.547,3.914,3.914,0,0,1,2.059-.543,3.508,3.508,0,0,1,2.73,1.094,4.444,4.444,0,0,1,1,3.1v.922h-5.383a2.1,2.1,0,0,0,.66,1.328,2,2,0,0,0,1.395.5,2.437,2.437,0,0,0,2.039-.945l1.109,1.242A3.389,3.389,0,0,1,130.6-.246,4.511,4.511,0,0,1,128.68.156Zm-.258-6.945a1.411,1.411,0,0,0-1.09.455,2.357,2.357,0,0,0-.535,1.3h3.141v-.181a1.681,1.681,0,0,0-.406-1.165A1.456,1.456,0,0,0,128.422-6.789Zm7.094-1.664.07.977a2.951,2.951,0,0,1,2.43-1.133,2.453,2.453,0,0,1,2,.789,3.682,3.682,0,0,1,.672,2.359V0H138.43V-5.406a1.465,1.465,0,0,0-.312-1.043,1.4,1.4,0,0,0-1.039-.324,1.553,1.553,0,0,0-1.43.813V0h-2.258V-8.453ZM147.3,0a2.507,2.507,0,0,1-.227-.758,2.732,2.732,0,0,1-2.133.914,3,3,0,0,1-2.059-.719,2.312,2.312,0,0,1-.816-1.812,2.389,2.389,0,0,1,1-2.062,4.915,4.915,0,0,1,2.879-.727h1.039v-.484a1.393,1.393,0,0,0-.3-.937,1.183,1.183,0,0,0-.949-.352,1.345,1.345,0,0,0-.895.273.929.929,0,0,0-.324.75H142.25a2.268,2.268,0,0,1,.453-1.359,3,3,0,0,1,1.281-.98,4.669,4.669,0,0,1,1.859-.355,3.689,3.689,0,0,1,2.48.785,2.747,2.747,0,0,1,.918,2.207v3.664a4.041,4.041,0,0,0,.336,1.82V0ZM145.43-1.57a1.945,1.945,0,0,0,.922-.223,1.462,1.462,0,0,0,.625-.6V-3.844h-.844q-1.7,0-1.8,1.172l-.008.133a.9.9,0,0,0,.3.7A1.153,1.153,0,0,0,145.43-1.57Zm7.664-6.883.07.945a2.971,2.971,0,0,1,2.43-1.1,2.255,2.255,0,0,1,2.242,1.289,2.9,2.9,0,0,1,2.539-1.289,2.521,2.521,0,0,1,2.047.8,3.681,3.681,0,0,1,.672,2.41V0h-2.266V-5.391a1.61,1.61,0,0,0-.281-1.051,1.246,1.246,0,0,0-.992-.332,1.409,1.409,0,0,0-1.406.969l.008,5.8H155.9V-5.383a1.59,1.59,0,0,0-.289-1.062,1.259,1.259,0,0,0-.984-.328,1.463,1.463,0,0,0-1.391.8V0h-2.258V-8.453ZM167.211,0h-2.266V-8.453h2.266Zm-2.4-10.641a1.112,1.112,0,0,1,.34-.836,1.277,1.277,0,0,1,.926-.328,1.28,1.28,0,0,1,.922.328,1.105,1.105,0,0,1,.344.836A1.109,1.109,0,0,1,167-9.8a1.283,1.283,0,0,1-.918.328,1.283,1.283,0,0,1-.918-.328A1.109,1.109,0,0,1,164.813-10.641Zm8.148,10.8a4.15,4.15,0,0,1-3.027-1.141,4.054,4.054,0,0,1-1.168-3.039v-.219a5.106,5.106,0,0,1,.492-2.277,3.612,3.612,0,0,1,1.395-1.547,3.914,3.914,0,0,1,2.059-.543,3.508,3.508,0,0,1,2.73,1.094,4.444,4.444,0,0,1,1,3.1v.922h-5.383a2.1,2.1,0,0,0,.66,1.328,2,2,0,0,0,1.395.5,2.437,2.437,0,0,0,2.039-.945l1.109,1.242a3.389,3.389,0,0,1-1.375,1.121A4.511,4.511,0,0,1,172.961.156ZM172.7-6.789a1.411,1.411,0,0,0-1.09.455,2.357,2.357,0,0,0-.535,1.3h3.141v-.181a1.681,1.681,0,0,0-.406-1.165A1.456,1.456,0,0,0,172.7-6.789ZM179.8-8.453l.07.977a2.951,2.951,0,0,1,2.43-1.133,2.453,2.453,0,0,1,2,.789,3.682,3.682,0,0,1,.672,2.359V0h-2.258V-5.406a1.465,1.465,0,0,0-.312-1.043,1.4,1.4,0,0,0-1.039-.324,1.553,1.553,0,0,0-1.43.813V0h-2.258V-8.453Zm9.586-2.078v2.078h1.445V-6.8h-1.445v4.219a1.007,1.007,0,0,0,.18.672.9.9,0,0,0,.688.2,3.6,3.6,0,0,0,.664-.055V-.047a4.648,4.648,0,0,1-1.367.2,2.156,2.156,0,0,1-2.422-2.4V-6.8h-1.234V-8.453h1.234v-2.078ZM191.5-4.3a5.013,5.013,0,0,1,.484-2.242,3.546,3.546,0,0,1,1.395-1.523,4.069,4.069,0,0,1,2.113-.539,3.849,3.849,0,0,1,2.793,1.047,4.2,4.2,0,0,1,1.207,2.844l.016.578a4.418,4.418,0,0,1-1.086,3.121A3.775,3.775,0,0,1,195.508.156a3.793,3.793,0,0,1-2.918-1.172A4.5,4.5,0,0,1,191.5-4.2Zm2.258.16a3.16,3.16,0,0,0,.453,1.843,1.5,1.5,0,0,0,1.3.638,1.5,1.5,0,0,0,1.281-.63,3.457,3.457,0,0,0,.461-2.015,3.128,3.128,0,0,0-.461-1.831,1.5,1.5,0,0,0-1.3-.649,1.474,1.474,0,0,0-1.281.646A3.516,3.516,0,0,0,193.758-4.144Z" transform="translate(1058 1971)" fill="#12263f"/>
    <path id="Trazado_725381" data-name="Trazado 725381" d="M-74.469-11.375l2.922,8.25,2.906-8.25h3.078V0h-2.352V-3.109l.234-5.367L-70.75,0h-1.609l-3.062-8.469.234,5.359V0h-2.344V-11.375ZM-58.6-.859A2.831,2.831,0,0,1-60.914.156a2.67,2.67,0,0,1-2.074-.781,3.335,3.335,0,0,1-.73-2.289V-8.453h2.258v5.467q0,1.322,1.2,1.322a1.63,1.63,0,0,0,1.578-.8V-8.453h2.266V0h-2.125ZM-50.82.156A4.15,4.15,0,0,1-53.848-.984a4.054,4.054,0,0,1-1.168-3.039v-.219a5.106,5.106,0,0,1,.492-2.277,3.612,3.612,0,0,1,1.395-1.547,3.914,3.914,0,0,1,2.059-.543,3.508,3.508,0,0,1,2.73,1.094,4.444,4.444,0,0,1,1,3.1v.922h-5.383a2.1,2.1,0,0,0,.66,1.328,2,2,0,0,0,1.395.5,2.437,2.437,0,0,0,2.039-.945l1.109,1.242A3.389,3.389,0,0,1-48.9-.246,4.511,4.511,0,0,1-50.82.156Zm-.258-6.945a1.411,1.411,0,0,0-1.09.455,2.357,2.357,0,0,0-.535,1.3h3.141v-.181a1.681,1.681,0,0,0-.406-1.165A1.456,1.456,0,0,0-51.078-6.789Zm9.594,4.453a.727.727,0,0,0-.41-.652,4.659,4.659,0,0,0-1.316-.426q-3.016-.633-3.016-2.562a2.323,2.323,0,0,1,.934-1.879,3.766,3.766,0,0,1,2.441-.754,4.053,4.053,0,0,1,2.574.758,2.388,2.388,0,0,1,.965,1.969H-41.57a1.092,1.092,0,0,0-.312-.8A1.322,1.322,0,0,0-42.859-7a1.351,1.351,0,0,0-.883.258.814.814,0,0,0-.312.656.7.7,0,0,0,.355.605,3.657,3.657,0,0,0,1.2.4,9.8,9.8,0,0,1,1.422.379A2.336,2.336,0,0,1-39.289-2.43a2.2,2.2,0,0,1-.992,1.871,4.28,4.28,0,0,1-2.562.715A4.47,4.47,0,0,1-44.73-.223a3.166,3.166,0,0,1-1.293-1.039,2.414,2.414,0,0,1-.469-1.426h2.141a1.179,1.179,0,0,0,.445.922,1.766,1.766,0,0,0,1.109.32,1.635,1.635,0,0,0,.98-.246A.766.766,0,0,0-41.484-2.336Zm6.352-8.2v2.078h1.445V-6.8h-1.445v4.219a1.007,1.007,0,0,0,.18.672.9.9,0,0,0,.688.2,3.6,3.6,0,0,0,.664-.055V-.047a4.648,4.648,0,0,1-1.367.2,2.156,2.156,0,0,1-2.422-2.4V-6.8h-1.234V-8.453h1.234v-2.078Zm7.453,4.2a6.134,6.134,0,0,0-.812-.062,1.654,1.654,0,0,0-1.68.867V0H-32.43V-8.453H-30.3l.063,1.008a2.092,2.092,0,0,1,1.883-1.164,2.366,2.366,0,0,1,.7.1ZM-21.93,0a2.507,2.507,0,0,1-.227-.758,2.732,2.732,0,0,1-2.133.914,3,3,0,0,1-2.059-.719,2.312,2.312,0,0,1-.816-1.812,2.389,2.389,0,0,1,1-2.062,4.915,4.915,0,0,1,2.879-.727h1.039v-.484a1.393,1.393,0,0,0-.3-.937,1.183,1.183,0,0,0-.949-.352,1.345,1.345,0,0,0-.895.273.929.929,0,0,0-.324.75h-2.258a2.268,2.268,0,0,1,.453-1.359,3,3,0,0,1,1.281-.98,4.669,4.669,0,0,1,1.859-.355,3.689,3.689,0,0,1,2.48.785,2.747,2.747,0,0,1,.918,2.207v3.664a4.041,4.041,0,0,0,.336,1.82V0ZM-23.8-1.57a1.945,1.945,0,0,0,.922-.223,1.462,1.462,0,0,0,.625-.6V-3.844h-.844q-1.7,0-1.8,1.172l-.008.133a.9.9,0,0,0,.3.7A1.153,1.153,0,0,0-23.8-1.57ZM-9.875-3.961h-4.4v-1.82h4.4Zm8.5-6.57v2.078H.07V-6.8H-1.375v4.219a1.007,1.007,0,0,0,.18.672.9.9,0,0,0,.688.2,3.6,3.6,0,0,0,.664-.055V-.047a4.648,4.648,0,0,1-1.367.2,2.156,2.156,0,0,1-2.422-2.4V-6.8H-4.867V-8.453h1.234v-2.078Zm7.453,4.2A6.134,6.134,0,0,0,5.266-6.4a1.654,1.654,0,0,0-1.68.867V0H1.328V-8.453H3.461l.063,1.008A2.092,2.092,0,0,1,5.406-8.609a2.366,2.366,0,0,1,.7.1ZM11.828,0A2.507,2.507,0,0,1,11.6-.758,2.732,2.732,0,0,1,9.469.156,3,3,0,0,1,7.41-.562a2.312,2.312,0,0,1-.816-1.812,2.389,2.389,0,0,1,1-2.062,4.915,4.915,0,0,1,2.879-.727h1.039v-.484a1.393,1.393,0,0,0-.3-.937,1.183,1.183,0,0,0-.949-.352,1.345,1.345,0,0,0-.895.273.929.929,0,0,0-.324.75H6.781a2.268,2.268,0,0,1,.453-1.359,3,3,0,0,1,1.281-.98,4.669,4.669,0,0,1,1.859-.355,3.689,3.689,0,0,1,2.48.785,2.747,2.747,0,0,1,.918,2.207v3.664a4.041,4.041,0,0,0,.336,1.82V0ZM9.961-1.57a1.945,1.945,0,0,0,.922-.223,1.462,1.462,0,0,0,.625-.6V-3.844h-.844q-1.7,0-1.8,1.172l-.008.133a.9.9,0,0,0,.3.7A1.153,1.153,0,0,0,9.961-1.57Zm8.25-8.961v2.078h1.445V-6.8H18.211v4.219a1.007,1.007,0,0,0,.18.672.9.9,0,0,0,.688.2,3.6,3.6,0,0,0,.664-.055V-.047a4.648,4.648,0,0,1-1.367.2,2.156,2.156,0,0,1-2.422-2.4V-6.8H14.719V-8.453h1.234v-2.078ZM25.813,0a2.507,2.507,0,0,1-.227-.758,2.732,2.732,0,0,1-2.133.914,3,3,0,0,1-2.059-.719,2.312,2.312,0,0,1-.816-1.812,2.389,2.389,0,0,1,1-2.062,4.915,4.915,0,0,1,2.879-.727h1.039v-.484a1.393,1.393,0,0,0-.3-.937,1.183,1.183,0,0,0-.949-.352,1.345,1.345,0,0,0-.895.273.929.929,0,0,0-.324.75H20.766a2.268,2.268,0,0,1,.453-1.359,3,3,0,0,1,1.281-.98,4.669,4.669,0,0,1,1.859-.355,3.689,3.689,0,0,1,2.48.785,2.747,2.747,0,0,1,.918,2.207v3.664a4.041,4.041,0,0,0,.336,1.82V0ZM23.945-1.57a1.945,1.945,0,0,0,.922-.223,1.462,1.462,0,0,0,.625-.6V-3.844h-.844q-1.7,0-1.8,1.172l-.008.133a.9.9,0,0,0,.3.7A1.153,1.153,0,0,0,23.945-1.57Zm7.664-6.883.07.945a2.971,2.971,0,0,1,2.43-1.1A2.255,2.255,0,0,1,36.352-7.32a2.9,2.9,0,0,1,2.539-1.289,2.521,2.521,0,0,1,2.047.8,3.681,3.681,0,0,1,.672,2.41V0H39.344V-5.391a1.61,1.61,0,0,0-.281-1.051,1.246,1.246,0,0,0-.992-.332,1.409,1.409,0,0,0-1.406.969L36.672,0H34.414V-5.383a1.59,1.59,0,0,0-.289-1.062,1.259,1.259,0,0,0-.984-.328,1.463,1.463,0,0,0-1.391.8V0H29.492V-8.453ZM45.727,0H43.461V-8.453h2.266Zm-2.4-10.641a1.112,1.112,0,0,1,.34-.836,1.277,1.277,0,0,1,.926-.328,1.28,1.28,0,0,1,.922.328,1.105,1.105,0,0,1,.344.836,1.108,1.108,0,0,1-.348.844,1.283,1.283,0,0,1-.918.328,1.283,1.283,0,0,1-.918-.328A1.108,1.108,0,0,1,43.328-10.641ZM51.477.156A4.15,4.15,0,0,1,48.449-.984a4.054,4.054,0,0,1-1.168-3.039v-.219a5.106,5.106,0,0,1,.492-2.277,3.612,3.612,0,0,1,1.395-1.547,3.914,3.914,0,0,1,2.059-.543,3.508,3.508,0,0,1,2.73,1.094,4.444,4.444,0,0,1,1,3.1v.922H49.57a2.1,2.1,0,0,0,.66,1.328,2,2,0,0,0,1.395.5,2.437,2.437,0,0,0,2.039-.945l1.109,1.242A3.389,3.389,0,0,1,53.4-.246,4.511,4.511,0,0,1,51.477.156Zm-.258-6.945a1.411,1.411,0,0,0-1.09.455,2.357,2.357,0,0,0-.535,1.3h3.141v-.181a1.681,1.681,0,0,0-.406-1.165A1.456,1.456,0,0,0,51.219-6.789Zm7.094-1.664.07.977a2.951,2.951,0,0,1,2.43-1.133,2.453,2.453,0,0,1,2,.789,3.682,3.682,0,0,1,.672,2.359V0H61.227V-5.406a1.465,1.465,0,0,0-.312-1.043,1.4,1.4,0,0,0-1.039-.324,1.553,1.553,0,0,0-1.43.813V0H56.188V-8.453ZM67.9-10.531v2.078h1.445V-6.8H67.9v4.219a1.007,1.007,0,0,0,.18.672.9.9,0,0,0,.688.2,3.6,3.6,0,0,0,.664-.055V-.047a4.648,4.648,0,0,1-1.367.2,2.156,2.156,0,0,1-2.422-2.4V-6.8H64.406V-8.453h1.234v-2.078ZM70.016-4.3A5.013,5.013,0,0,1,70.5-6.547,3.546,3.546,0,0,1,71.895-8.07a4.069,4.069,0,0,1,2.113-.539A3.849,3.849,0,0,1,76.8-7.562a4.2,4.2,0,0,1,1.207,2.844l.016.578A4.418,4.418,0,0,1,76.938-1.02,3.775,3.775,0,0,1,74.023.156a3.793,3.793,0,0,1-2.918-1.172A4.5,4.5,0,0,1,70.016-4.2Zm2.258.16A3.16,3.16,0,0,0,72.727-2.3a1.5,1.5,0,0,0,1.3.638,1.5,1.5,0,0,0,1.281-.63,3.457,3.457,0,0,0,.461-2.015A3.128,3.128,0,0,0,75.3-6.14a1.5,1.5,0,0,0-1.3-.649,1.474,1.474,0,0,0-1.281.646A3.516,3.516,0,0,0,72.273-4.144ZM-63.164,19.711a5.094,5.094,0,0,1,.887-3.148,2.877,2.877,0,0,1,2.426-1.172,2.589,2.589,0,0,1,2.039.922V12h2.266V24h-2.039l-.109-.9a2.657,2.657,0,0,1-2.172,1.055,2.869,2.869,0,0,1-2.395-1.176A5.258,5.258,0,0,1-63.164,19.711Zm2.258.168a3.337,3.337,0,0,0,.414,1.823,1.349,1.349,0,0,0,1.2.634,1.511,1.511,0,0,0,1.477-.884V18.111a1.489,1.489,0,0,0-1.461-.884Q-60.906,17.227-60.906,19.879Zm11,4.277a4.15,4.15,0,0,1-3.027-1.141A4.054,4.054,0,0,1-54.1,19.977v-.219a5.106,5.106,0,0,1,.492-2.277,3.612,3.612,0,0,1,1.395-1.547,3.914,3.914,0,0,1,2.059-.543,3.508,3.508,0,0,1,2.73,1.094,4.444,4.444,0,0,1,1,3.1v.922h-5.383a2.1,2.1,0,0,0,.66,1.328,2,2,0,0,0,1.395.5,2.437,2.437,0,0,0,2.039-.945l1.109,1.242a3.389,3.389,0,0,1-1.375,1.121A4.511,4.511,0,0,1-49.906,24.156Zm-.258-6.945a1.411,1.411,0,0,0-1.09.455,2.357,2.357,0,0,0-.535,1.3h3.141v-.181a1.681,1.681,0,0,0-.406-1.165A1.456,1.456,0,0,0-50.164,17.211ZM-38.781,24h-2.266V12h2.266Zm1.508-4.3a5.013,5.013,0,0,1,.484-2.242,3.546,3.546,0,0,1,1.395-1.523,4.069,4.069,0,0,1,2.113-.539,3.849,3.849,0,0,1,2.793,1.047,4.2,4.2,0,0,1,1.207,2.844l.016.578a4.418,4.418,0,0,1-1.086,3.121,3.775,3.775,0,0,1-2.914,1.176,3.793,3.793,0,0,1-2.918-1.172,4.5,4.5,0,0,1-1.09-3.187Zm2.258.16a3.16,3.16,0,0,0,.453,1.843,1.5,1.5,0,0,0,1.3.638,1.5,1.5,0,0,0,1.281-.63,3.457,3.457,0,0,0,.461-2.015,3.128,3.128,0,0,0-.461-1.831,1.5,1.5,0,0,0-1.3-.649,1.474,1.474,0,0,0-1.281.646A3.516,3.516,0,0,0-35.016,19.856ZM-23.3,21.664a.727.727,0,0,0-.41-.652,4.659,4.659,0,0,0-1.316-.426q-3.016-.633-3.016-2.562a2.323,2.323,0,0,1,.934-1.879,3.766,3.766,0,0,1,2.441-.754,4.053,4.053,0,0,1,2.574.758,2.388,2.388,0,0,1,.965,1.969h-2.258a1.092,1.092,0,0,0-.312-.8A1.322,1.322,0,0,0-24.672,17a1.351,1.351,0,0,0-.883.258.814.814,0,0,0-.312.656.7.7,0,0,0,.355.605,3.657,3.657,0,0,0,1.2.4,9.8,9.8,0,0,1,1.422.379A2.336,2.336,0,0,1-21.1,21.57a2.2,2.2,0,0,1-.992,1.871,4.28,4.28,0,0,1-2.562.715,4.47,4.47,0,0,1-1.887-.379,3.166,3.166,0,0,1-1.293-1.039,2.414,2.414,0,0,1-.469-1.426h2.141a1.179,1.179,0,0,0,.445.922,1.766,1.766,0,0,0,1.109.32,1.635,1.635,0,0,0,.98-.246A.766.766,0,0,0-23.3,21.664Zm12.383-4a6.134,6.134,0,0,0-.812-.062,1.654,1.654,0,0,0-1.68.867V24h-2.258V15.547h2.133l.063,1.008a2.092,2.092,0,0,1,1.883-1.164,2.366,2.366,0,0,1,.7.1Zm4.977,6.492a4.15,4.15,0,0,1-3.027-1.141,4.054,4.054,0,0,1-1.168-3.039v-.219a5.106,5.106,0,0,1,.492-2.277,3.612,3.612,0,0,1,1.395-1.547,3.914,3.914,0,0,1,2.059-.543,3.508,3.508,0,0,1,2.73,1.094,4.444,4.444,0,0,1,1,3.1v.922H-7.844a2.1,2.1,0,0,0,.66,1.328,2,2,0,0,0,1.395.5,2.437,2.437,0,0,0,2.039-.945l1.109,1.242a3.389,3.389,0,0,1-1.375,1.121A4.511,4.511,0,0,1-5.937,24.156ZM-6.2,17.211a1.411,1.411,0,0,0-1.09.455,2.357,2.357,0,0,0-.535,1.3H-4.68v-.181a1.681,1.681,0,0,0-.406-1.165A1.456,1.456,0,0,0-6.2,17.211Zm8.531,5.125a1.481,1.481,0,0,0,1.016-.344,1.2,1.2,0,0,0,.406-.914H5.875a2.9,2.9,0,0,1-.469,1.574,3.093,3.093,0,0,1-1.262,1.109,3.949,3.949,0,0,1-1.77.395A3.67,3.67,0,0,1-.484,23,4.56,4.56,0,0,1-1.531,19.82v-.148A4.508,4.508,0,0,1-.492,16.555a3.627,3.627,0,0,1,2.852-1.164,3.555,3.555,0,0,1,2.543.9,3.2,3.2,0,0,1,.973,2.4H3.758a1.551,1.551,0,0,0-.406-1.072,1.354,1.354,0,0,0-1.031-.412,1.36,1.36,0,0,0-1.191.575,3.333,3.333,0,0,0-.4,1.866v.235a3.375,3.375,0,0,0,.4,1.878A1.377,1.377,0,0,0,2.336,22.336ZM9.547,24H7.281V15.547H9.547Zm-2.4-10.641a1.112,1.112,0,0,1,.34-.836,1.277,1.277,0,0,1,.926-.328,1.28,1.28,0,0,1,.922.328,1.193,1.193,0,0,1,0,1.68,1.283,1.283,0,0,1-.918.328A1.283,1.283,0,0,1,7.5,14.2,1.108,1.108,0,0,1,7.148,13.359Zm11.867,6.492a5.07,5.07,0,0,1-.887,3.129,2.843,2.843,0,0,1-2.395,1.176,2.633,2.633,0,0,1-2.07-.891V27.25H11.406v-11.7H13.5l.078.828a2.654,2.654,0,0,1,2.141-.984,2.862,2.862,0,0,1,2.43,1.156,5.207,5.207,0,0,1,.867,3.188Zm-2.258-.164a3.327,3.327,0,0,0-.418-1.82,1.361,1.361,0,0,0-1.215-.641,1.478,1.478,0,0,0-1.461.813V21.5a1.5,1.5,0,0,0,1.477.836Q16.758,22.336,16.758,19.688ZM22.8,24H20.531V15.547H22.8ZM20.4,13.359a1.112,1.112,0,0,1,.34-.836,1.465,1.465,0,0,1,1.848,0,1.193,1.193,0,0,1,0,1.68,1.448,1.448,0,0,1-1.836,0A1.108,1.108,0,0,1,20.4,13.359Zm8.148,10.8a4.15,4.15,0,0,1-3.027-1.141,4.054,4.054,0,0,1-1.168-3.039v-.219a5.106,5.106,0,0,1,.492-2.277,3.612,3.612,0,0,1,1.395-1.547,3.914,3.914,0,0,1,2.059-.543,3.508,3.508,0,0,1,2.73,1.094,4.444,4.444,0,0,1,1,3.1v.922H26.641a2.1,2.1,0,0,0,.66,1.328,2,2,0,0,0,1.395.5,2.437,2.437,0,0,0,2.039-.945l1.109,1.242a3.389,3.389,0,0,1-1.375,1.121A4.511,4.511,0,0,1,28.547,24.156Zm-.258-6.945a1.411,1.411,0,0,0-1.09.455,2.357,2.357,0,0,0-.535,1.3H29.8v-.181a1.681,1.681,0,0,0-.406-1.165A1.456,1.456,0,0,0,28.289,17.211Zm7.094-1.664.07.977a2.951,2.951,0,0,1,2.43-1.133,2.453,2.453,0,0,1,2,.789,3.682,3.682,0,0,1,.672,2.359V24H38.3V18.594a1.465,1.465,0,0,0-.312-1.043,1.4,1.4,0,0,0-1.039-.324,1.553,1.553,0,0,0-1.43.813V24H33.258V15.547Zm9.586-2.078v2.078h1.445V17.2H44.969v4.219a1.007,1.007,0,0,0,.18.672.9.9,0,0,0,.688.2,3.6,3.6,0,0,0,.664-.055v1.711a4.648,4.648,0,0,1-1.367.2,2.156,2.156,0,0,1-2.422-2.4V17.2H41.477V15.547h1.234V13.469Zm6.594,10.688a4.15,4.15,0,0,1-3.027-1.141,4.054,4.054,0,0,1-1.168-3.039v-.219a5.106,5.106,0,0,1,.492-2.277,3.612,3.612,0,0,1,1.395-1.547,3.914,3.914,0,0,1,2.059-.543,3.508,3.508,0,0,1,2.73,1.094,4.444,4.444,0,0,1,1,3.1v.922H49.656a2.1,2.1,0,0,0,.66,1.328,2,2,0,0,0,1.395.5,2.437,2.437,0,0,0,2.039-.945l1.109,1.242a3.389,3.389,0,0,1-1.375,1.121A4.511,4.511,0,0,1,51.563,24.156ZM51.3,17.211a1.411,1.411,0,0,0-1.09.455,2.357,2.357,0,0,0-.535,1.3H52.82v-.181a1.681,1.681,0,0,0-.406-1.165A1.456,1.456,0,0,0,51.3,17.211ZM60.9,21.664a.727.727,0,0,0-.41-.652,4.659,4.659,0,0,0-1.316-.426q-3.016-.633-3.016-2.562a2.323,2.323,0,0,1,.934-1.879,3.766,3.766,0,0,1,2.441-.754,4.053,4.053,0,0,1,2.574.758,2.388,2.388,0,0,1,.965,1.969H60.813a1.092,1.092,0,0,0-.312-.8A1.322,1.322,0,0,0,59.523,17a1.351,1.351,0,0,0-.883.258.814.814,0,0,0-.312.656.7.7,0,0,0,.355.605,3.657,3.657,0,0,0,1.2.4A9.8,9.8,0,0,1,61.3,19.3a2.336,2.336,0,0,1,1.789,2.273,2.2,2.2,0,0,1-.992,1.871,4.28,4.28,0,0,1-2.562.715,4.47,4.47,0,0,1-1.887-.379,3.166,3.166,0,0,1-1.293-1.039,2.414,2.414,0,0,1-.469-1.426h2.141a1.179,1.179,0,0,0,.445.922,1.766,1.766,0,0,0,1.109.32,1.635,1.635,0,0,0,.98-.246A.766.766,0,0,0,60.9,21.664Z" transform="translate(450 1957)" fill="#12263f"/>
    <path id="Trazado_725380" data-name="Trazado 725380" d="M9.578-9.477H6.094V0H3.75V-9.477H.313v-1.9H9.578ZM14.352,0a2.507,2.507,0,0,1-.227-.758,2.732,2.732,0,0,1-2.133.914A3,3,0,0,1,9.934-.562a2.312,2.312,0,0,1-.816-1.812,2.389,2.389,0,0,1,1-2.062,4.915,4.915,0,0,1,2.879-.727h1.039v-.484a1.393,1.393,0,0,0-.3-.937,1.183,1.183,0,0,0-.949-.352,1.345,1.345,0,0,0-.895.273.929.929,0,0,0-.324.75H9.3a2.268,2.268,0,0,1,.453-1.359,3,3,0,0,1,1.281-.98A4.669,4.669,0,0,1,12.9-8.609a3.689,3.689,0,0,1,2.48.785A2.747,2.747,0,0,1,16.3-5.617v3.664a4.041,4.041,0,0,0,.336,1.82V0ZM12.484-1.57a1.945,1.945,0,0,0,.922-.223,1.462,1.462,0,0,0,.625-.6V-3.844h-.844q-1.7,0-1.8,1.172l-.008.133a.9.9,0,0,0,.3.7A1.153,1.153,0,0,0,12.484-1.57Zm7.664-6.883.07.945a2.971,2.971,0,0,1,2.43-1.1A2.255,2.255,0,0,1,24.891-7.32,2.9,2.9,0,0,1,27.43-8.609a2.521,2.521,0,0,1,2.047.8,3.681,3.681,0,0,1,.672,2.41V0H27.883V-5.391A1.61,1.61,0,0,0,27.6-6.441a1.246,1.246,0,0,0-.992-.332A1.409,1.409,0,0,0,25.2-5.8L25.211,0H22.953V-5.383a1.59,1.59,0,0,0-.289-1.062,1.259,1.259,0,0,0-.984-.328,1.463,1.463,0,0,0-1.391.8V0H18.031V-8.453ZM36.781,0a2.507,2.507,0,0,1-.227-.758,2.732,2.732,0,0,1-2.133.914,3,3,0,0,1-2.059-.719,2.312,2.312,0,0,1-.816-1.812,2.389,2.389,0,0,1,1-2.062,4.915,4.915,0,0,1,2.879-.727h1.039v-.484a1.393,1.393,0,0,0-.3-.937,1.183,1.183,0,0,0-.949-.352,1.345,1.345,0,0,0-.895.273.929.929,0,0,0-.324.75H31.734a2.268,2.268,0,0,1,.453-1.359,3,3,0,0,1,1.281-.98,4.669,4.669,0,0,1,1.859-.355,3.689,3.689,0,0,1,2.48.785,2.747,2.747,0,0,1,.918,2.207v3.664a4.041,4.041,0,0,0,.336,1.82V0ZM34.914-1.57a1.945,1.945,0,0,0,.922-.223,1.462,1.462,0,0,0,.625-.6V-3.844h-.844q-1.7,0-1.8,1.172l-.008.133a.9.9,0,0,0,.3.7A1.153,1.153,0,0,0,34.914-1.57Zm7.625-6.883.07.977a2.951,2.951,0,0,1,2.43-1.133,2.453,2.453,0,0,1,2,.789,3.682,3.682,0,0,1,.672,2.359V0H45.453V-5.406a1.465,1.465,0,0,0-.312-1.043A1.4,1.4,0,0,0,44.1-6.773a1.553,1.553,0,0,0-1.43.813V0H40.414V-8.453ZM47.023-11.9a2.187,2.187,0,0,1-.516,1.48,1.6,1.6,0,0,1-1.258.6,1.908,1.908,0,0,1-.527-.066,3.539,3.539,0,0,1-.637-.285,3.435,3.435,0,0,0-.586-.27,1.432,1.432,0,0,0-.391-.051.627.627,0,0,0-.465.2.759.759,0,0,0-.191.555L41.141-9.82a2.22,2.22,0,0,1,.512-1.477,1.578,1.578,0,0,1,1.254-.609,1.614,1.614,0,0,1,.441.059,4.861,4.861,0,0,1,.676.285,4.392,4.392,0,0,0,.648.273,1.48,1.48,0,0,0,.375.047.659.659,0,0,0,.473-.191.728.728,0,0,0,.2-.551ZM49.07-4.3a5.013,5.013,0,0,1,.484-2.242A3.546,3.546,0,0,1,50.949-8.07a4.069,4.069,0,0,1,2.113-.539,3.849,3.849,0,0,1,2.793,1.047,4.2,4.2,0,0,1,1.207,2.844l.016.578A4.418,4.418,0,0,1,55.992-1.02,3.775,3.775,0,0,1,53.078.156,3.793,3.793,0,0,1,50.16-1.016,4.5,4.5,0,0,1,49.07-4.2Zm2.258.16A3.16,3.16,0,0,0,51.781-2.3a1.5,1.5,0,0,0,1.3.638,1.5,1.5,0,0,0,1.281-.63,3.457,3.457,0,0,0,.461-2.015,3.128,3.128,0,0,0-.461-1.831,1.5,1.5,0,0,0-1.3-.649,1.474,1.474,0,0,0-1.281.646A3.516,3.516,0,0,0,51.328-4.144ZM62.1-4.289a5.094,5.094,0,0,1,.887-3.148,2.877,2.877,0,0,1,2.426-1.172,2.589,2.589,0,0,1,2.039.922V-12h2.266V0H67.68L67.57-.9A2.657,2.657,0,0,1,65.4.156,2.869,2.869,0,0,1,63-1.02,5.258,5.258,0,0,1,62.1-4.289Zm2.258.168A3.337,3.337,0,0,0,64.773-2.3a1.349,1.349,0,0,0,1.2.634,1.511,1.511,0,0,0,1.477-.884V-5.889a1.489,1.489,0,0,0-1.461-.884Q64.359-6.773,64.359-4.121Zm11,4.277A4.15,4.15,0,0,1,72.332-.984a4.054,4.054,0,0,1-1.168-3.039v-.219a5.106,5.106,0,0,1,.492-2.277,3.612,3.612,0,0,1,1.395-1.547,3.914,3.914,0,0,1,2.059-.543,3.508,3.508,0,0,1,2.73,1.094,4.444,4.444,0,0,1,1,3.1v.922H73.453a2.1,2.1,0,0,0,.66,1.328,2,2,0,0,0,1.395.5,2.437,2.437,0,0,0,2.039-.945l1.109,1.242A3.389,3.389,0,0,1,77.281-.246,4.511,4.511,0,0,1,75.359.156ZM75.1-6.789a1.411,1.411,0,0,0-1.09.455,2.357,2.357,0,0,0-.535,1.3h3.141v-.181a1.681,1.681,0,0,0-.406-1.165A1.456,1.456,0,0,0,75.1-6.789ZM86.219-8.453l.07.945a2.971,2.971,0,0,1,2.43-1.1A2.255,2.255,0,0,1,90.961-7.32,2.9,2.9,0,0,1,93.5-8.609a2.521,2.521,0,0,1,2.047.8,3.681,3.681,0,0,1,.672,2.41V0H93.953V-5.391a1.61,1.61,0,0,0-.281-1.051,1.246,1.246,0,0,0-.992-.332,1.409,1.409,0,0,0-1.406.969L91.281,0H89.023V-5.383a1.59,1.59,0,0,0-.289-1.062,1.259,1.259,0,0,0-.984-.328,1.463,1.463,0,0,0-1.391.8V0H84.1V-8.453Zm16.8,7.594A2.831,2.831,0,0,1,100.7.156a2.67,2.67,0,0,1-2.074-.781,3.335,3.335,0,0,1-.73-2.289V-8.453h2.258v5.467q0,1.322,1.2,1.322a1.63,1.63,0,0,0,1.578-.8V-8.453H105.2V0h-2.125ZM110.8.156A4.15,4.15,0,0,1,107.77-.984,4.054,4.054,0,0,1,106.6-4.023v-.219a5.106,5.106,0,0,1,.492-2.277,3.612,3.612,0,0,1,1.395-1.547,3.914,3.914,0,0,1,2.059-.543,3.508,3.508,0,0,1,2.73,1.094,4.444,4.444,0,0,1,1,3.1v.922h-5.383a2.1,2.1,0,0,0,.66,1.328,2,2,0,0,0,1.395.5,2.437,2.437,0,0,0,2.039-.945l1.109,1.242a3.389,3.389,0,0,1-1.375,1.121A4.511,4.511,0,0,1,110.8.156Zm-.258-6.945a1.411,1.411,0,0,0-1.09.455,2.357,2.357,0,0,0-.535,1.3h3.141v-.181a1.681,1.681,0,0,0-.406-1.165A1.456,1.456,0,0,0,110.539-6.789Zm9.594,4.453a.727.727,0,0,0-.41-.652,4.659,4.659,0,0,0-1.316-.426q-3.016-.633-3.016-2.562a2.323,2.323,0,0,1,.934-1.879,3.766,3.766,0,0,1,2.441-.754,4.053,4.053,0,0,1,2.574.758,2.388,2.388,0,0,1,.965,1.969h-2.258a1.092,1.092,0,0,0-.312-.8A1.322,1.322,0,0,0,118.758-7a1.351,1.351,0,0,0-.883.258.814.814,0,0,0-.312.656.7.7,0,0,0,.355.605,3.657,3.657,0,0,0,1.2.4,9.8,9.8,0,0,1,1.422.379,2.336,2.336,0,0,1,1.789,2.273,2.2,2.2,0,0,1-.992,1.871,4.28,4.28,0,0,1-2.562.715,4.47,4.47,0,0,1-1.887-.379,3.166,3.166,0,0,1-1.293-1.039,2.414,2.414,0,0,1-.469-1.426h2.141a1.179,1.179,0,0,0,.445.922,1.766,1.766,0,0,0,1.109.32,1.635,1.635,0,0,0,.98-.246A.766.766,0,0,0,120.133-2.336Zm6.352-8.2v2.078h1.445V-6.8h-1.445v4.219a1.007,1.007,0,0,0,.18.672.9.9,0,0,0,.688.2,3.6,3.6,0,0,0,.664-.055V-.047a4.648,4.648,0,0,1-1.367.2,2.156,2.156,0,0,1-2.422-2.4V-6.8h-1.234V-8.453h1.234v-2.078Zm7.453,4.2a6.134,6.134,0,0,0-.812-.062,1.654,1.654,0,0,0-1.68.867V0h-2.258V-8.453h2.133l.063,1.008a2.092,2.092,0,0,1,1.883-1.164,2.366,2.366,0,0,1,.7.1ZM139.688,0a2.507,2.507,0,0,1-.227-.758,2.732,2.732,0,0,1-2.133.914,3,3,0,0,1-2.059-.719,2.312,2.312,0,0,1-.816-1.812,2.389,2.389,0,0,1,1-2.062,4.915,4.915,0,0,1,2.879-.727h1.039v-.484a1.393,1.393,0,0,0-.3-.937,1.183,1.183,0,0,0-.949-.352,1.345,1.345,0,0,0-.895.273.929.929,0,0,0-.324.75h-2.258a2.268,2.268,0,0,1,.453-1.359,3,3,0,0,1,1.281-.98,4.669,4.669,0,0,1,1.859-.355,3.689,3.689,0,0,1,2.48.785,2.747,2.747,0,0,1,.918,2.207v3.664a4.041,4.041,0,0,0,.336,1.82V0ZM137.82-1.57a1.945,1.945,0,0,0,.922-.223,1.462,1.462,0,0,0,.625-.6V-3.844h-.844q-1.7,0-1.8,1.172l-.008.133a.9.9,0,0,0,.3.7A1.153,1.153,0,0,0,137.82-1.57Z" transform="translate(1082 1615)" fill="#12263f"/>
    <path id="Trazado_725372" data-name="Trazado 725372" d="M9.945-3.789A4.025,4.025,0,0,1,8.59-.9,4.76,4.76,0,0,1,5.367.156,4.28,4.28,0,0,1,1.926-1.316,6.038,6.038,0,0,1,.672-5.359v-.7A6.819,6.819,0,0,1,1.25-8.945,4.332,4.332,0,0,1,2.9-10.863a4.629,4.629,0,0,1,2.5-.668A4.637,4.637,0,0,1,8.57-10.477,4.326,4.326,0,0,1,9.961-7.516H7.617A2.376,2.376,0,0,0,7-9.113a2.271,2.271,0,0,0-1.605-.5,1.991,1.991,0,0,0-1.754.84,4.707,4.707,0,0,0-.6,2.605V-5.3a5.038,5.038,0,0,0,.559,2.7,1.954,1.954,0,0,0,1.762.852,2.314,2.314,0,0,0,1.621-.5A2.241,2.241,0,0,0,7.6-3.789ZM16.234,0a2.507,2.507,0,0,1-.227-.758,2.732,2.732,0,0,1-2.133.914,3,3,0,0,1-2.059-.719A2.312,2.312,0,0,1,11-2.375a2.389,2.389,0,0,1,1-2.062,4.915,4.915,0,0,1,2.879-.727h1.039v-.484a1.393,1.393,0,0,0-.3-.937,1.183,1.183,0,0,0-.949-.352,1.345,1.345,0,0,0-.895.273.929.929,0,0,0-.324.75H11.188a2.268,2.268,0,0,1,.453-1.359,3,3,0,0,1,1.281-.98,4.669,4.669,0,0,1,1.859-.355,3.689,3.689,0,0,1,2.48.785,2.747,2.747,0,0,1,.918,2.207v3.664a4.041,4.041,0,0,0,.336,1.82V0ZM14.367-1.57a1.945,1.945,0,0,0,.922-.223,1.462,1.462,0,0,0,.625-.6V-3.844H15.07q-1.7,0-1.8,1.172l-.008.133a.9.9,0,0,0,.3.7A1.153,1.153,0,0,0,14.367-1.57Zm5.2-2.719a5.094,5.094,0,0,1,.887-3.148,2.877,2.877,0,0,1,2.426-1.172,2.589,2.589,0,0,1,2.039.922V-12H27.18V0H25.141l-.109-.9A2.657,2.657,0,0,1,22.859.156,2.869,2.869,0,0,1,20.465-1.02,5.258,5.258,0,0,1,19.563-4.289Zm2.258.168A3.337,3.337,0,0,0,22.234-2.3a1.349,1.349,0,0,0,1.2.634,1.511,1.511,0,0,0,1.477-.884V-5.889a1.489,1.489,0,0,0-1.461-.884Q21.82-6.773,21.82-4.121Zm11,4.277A4.15,4.15,0,0,1,29.793-.984a4.054,4.054,0,0,1-1.168-3.039v-.219a5.106,5.106,0,0,1,.492-2.277,3.612,3.612,0,0,1,1.395-1.547,3.914,3.914,0,0,1,2.059-.543A3.508,3.508,0,0,1,35.3-7.516a4.444,4.444,0,0,1,1,3.1v.922H30.914a2.1,2.1,0,0,0,.66,1.328,2,2,0,0,0,1.395.5,2.437,2.437,0,0,0,2.039-.945l1.109,1.242A3.389,3.389,0,0,1,34.742-.246,4.511,4.511,0,0,1,32.82.156Zm-.258-6.945a1.411,1.411,0,0,0-1.09.455,2.357,2.357,0,0,0-.535,1.3h3.141v-.181a1.681,1.681,0,0,0-.406-1.165A1.456,1.456,0,0,0,32.563-6.789Zm7.094-1.664.07.977a2.951,2.951,0,0,1,2.43-1.133,2.453,2.453,0,0,1,2,.789,3.682,3.682,0,0,1,.672,2.359V0H42.57V-5.406a1.465,1.465,0,0,0-.312-1.043,1.4,1.4,0,0,0-1.039-.324,1.553,1.553,0,0,0-1.43.813V0H37.531V-8.453ZM51.438,0a2.507,2.507,0,0,1-.227-.758,2.732,2.732,0,0,1-2.133.914A3,3,0,0,1,47.02-.562,2.312,2.312,0,0,1,46.2-2.375a2.389,2.389,0,0,1,1-2.062,4.915,4.915,0,0,1,2.879-.727h1.039v-.484a1.393,1.393,0,0,0-.3-.937,1.183,1.183,0,0,0-.949-.352,1.345,1.345,0,0,0-.895.273.929.929,0,0,0-.324.75H46.391a2.268,2.268,0,0,1,.453-1.359,3,3,0,0,1,1.281-.98,4.669,4.669,0,0,1,1.859-.355,3.689,3.689,0,0,1,2.48.785,2.747,2.747,0,0,1,.918,2.207v3.664a4.041,4.041,0,0,0,.336,1.82V0ZM49.57-1.57a1.945,1.945,0,0,0,.922-.223,1.462,1.462,0,0,0,.625-.6V-3.844h-.844q-1.7,0-1.8,1.172l-.008.133a.9.9,0,0,0,.3.7A1.153,1.153,0,0,0,49.57-1.57Zm9.18-2.719a5.094,5.094,0,0,1,.887-3.148,2.877,2.877,0,0,1,2.426-1.172,2.589,2.589,0,0,1,2.039.922V-12h2.266V0H64.328l-.109-.9A2.657,2.657,0,0,1,62.047.156,2.869,2.869,0,0,1,59.652-1.02,5.258,5.258,0,0,1,58.75-4.289Zm2.258.168A3.337,3.337,0,0,0,61.422-2.3a1.349,1.349,0,0,0,1.2.634A1.511,1.511,0,0,0,64.1-2.548V-5.889a1.489,1.489,0,0,0-1.461-.884Q61.008-6.773,61.008-4.121Zm11,4.277A4.15,4.15,0,0,1,68.98-.984a4.054,4.054,0,0,1-1.168-3.039v-.219A5.106,5.106,0,0,1,68.3-6.52,3.612,3.612,0,0,1,69.7-8.066a3.914,3.914,0,0,1,2.059-.543,3.508,3.508,0,0,1,2.73,1.094,4.444,4.444,0,0,1,1,3.1v.922H70.1a2.1,2.1,0,0,0,.66,1.328,2,2,0,0,0,1.395.5A2.437,2.437,0,0,0,74.2-2.609L75.3-1.367A3.389,3.389,0,0,1,73.93-.246,4.511,4.511,0,0,1,72.008.156ZM71.75-6.789a1.411,1.411,0,0,0-1.09.455,2.357,2.357,0,0,0-.535,1.3h3.141v-.181a1.681,1.681,0,0,0-.406-1.165A1.456,1.456,0,0,0,71.75-6.789ZM84.266-1.664a1.481,1.481,0,0,0,1.016-.344,1.2,1.2,0,0,0,.406-.914H87.8a2.9,2.9,0,0,1-.469,1.574A3.093,3.093,0,0,1,86.074-.238,3.949,3.949,0,0,1,84.3.156,3.67,3.67,0,0,1,81.445-1,4.56,4.56,0,0,1,80.4-4.18v-.148a4.508,4.508,0,0,1,1.039-3.117,3.627,3.627,0,0,1,2.852-1.164,3.555,3.555,0,0,1,2.543.9A3.2,3.2,0,0,1,87.8-5.3H85.688a1.551,1.551,0,0,0-.406-1.072,1.354,1.354,0,0,0-1.031-.412,1.36,1.36,0,0,0-1.191.575,3.333,3.333,0,0,0-.4,1.866v.235a3.375,3.375,0,0,0,.4,1.878A1.377,1.377,0,0,0,84.266-1.664Zm9.891.8A2.831,2.831,0,0,1,91.844.156,2.67,2.67,0,0,1,89.77-.625a3.335,3.335,0,0,1-.73-2.289V-8.453H91.3v5.467q0,1.322,1.2,1.322a1.63,1.63,0,0,0,1.578-.8V-8.453h2.266V0H94.219Zm8.469-1.477a.727.727,0,0,0-.41-.652,4.659,4.659,0,0,0-1.316-.426q-3.016-.633-3.016-2.562a2.323,2.323,0,0,1,.934-1.879,3.766,3.766,0,0,1,2.441-.754,4.053,4.053,0,0,1,2.574.758,2.388,2.388,0,0,1,.965,1.969h-2.258a1.092,1.092,0,0,0-.312-.8A1.322,1.322,0,0,0,101.25-7a1.351,1.351,0,0,0-.883.258.814.814,0,0,0-.312.656.7.7,0,0,0,.355.605,3.657,3.657,0,0,0,1.2.4,9.8,9.8,0,0,1,1.422.379A2.336,2.336,0,0,1,104.82-2.43a2.2,2.2,0,0,1-.992,1.871,4.28,4.28,0,0,1-2.562.715,4.47,4.47,0,0,1-1.887-.379,3.166,3.166,0,0,1-1.293-1.039,2.414,2.414,0,0,1-.469-1.426h2.141a1.179,1.179,0,0,0,.445.922,1.766,1.766,0,0,0,1.109.32,1.635,1.635,0,0,0,.98-.246A.766.766,0,0,0,102.625-2.336Zm6.352-8.2v2.078h1.445V-6.8h-1.445v4.219a1.007,1.007,0,0,0,.18.672.9.9,0,0,0,.688.2,3.6,3.6,0,0,0,.664-.055V-.047a4.648,4.648,0,0,1-1.367.2,2.156,2.156,0,0,1-2.422-2.4V-6.8h-1.234V-8.453h1.234v-2.078ZM111.094-4.3a5.013,5.013,0,0,1,.484-2.242,3.546,3.546,0,0,1,1.395-1.523,4.069,4.069,0,0,1,2.113-.539,3.849,3.849,0,0,1,2.793,1.047,4.2,4.2,0,0,1,1.207,2.844l.016.578a4.418,4.418,0,0,1-1.086,3.121A3.775,3.775,0,0,1,115.1.156a3.793,3.793,0,0,1-2.918-1.172,4.5,4.5,0,0,1-1.09-3.187Zm2.258.16A3.16,3.16,0,0,0,113.8-2.3a1.5,1.5,0,0,0,1.3.638,1.5,1.5,0,0,0,1.281-.63,3.457,3.457,0,0,0,.461-2.015,3.128,3.128,0,0,0-.461-1.831,1.5,1.5,0,0,0-1.3-.649,1.474,1.474,0,0,0-1.281.646A3.516,3.516,0,0,0,113.352-4.144Zm6.789-.145a5.094,5.094,0,0,1,.887-3.148,2.877,2.877,0,0,1,2.426-1.172,2.589,2.589,0,0,1,2.039.922V-12h2.266V0h-2.039l-.109-.9A2.657,2.657,0,0,1,123.438.156a2.869,2.869,0,0,1-2.395-1.176A5.258,5.258,0,0,1,120.141-4.289Zm2.258.168a3.337,3.337,0,0,0,.414,1.823,1.349,1.349,0,0,0,1.2.634,1.511,1.511,0,0,0,1.477-.884V-5.889a1.489,1.489,0,0,0-1.461-.884Q122.4-6.773,122.4-4.121ZM131.891,0h-2.266V-8.453h2.266Zm-2.4-10.641a1.112,1.112,0,0,1,.34-.836,1.277,1.277,0,0,1,.926-.328,1.28,1.28,0,0,1,.922.328,1.105,1.105,0,0,1,.344.836,1.109,1.109,0,0,1-.348.844,1.283,1.283,0,0,1-.918.328,1.283,1.283,0,0,1-.918-.328A1.109,1.109,0,0,1,129.492-10.641ZM138.648,0a2.507,2.507,0,0,1-.227-.758,2.732,2.732,0,0,1-2.133.914,3,3,0,0,1-2.059-.719,2.312,2.312,0,0,1-.816-1.812,2.389,2.389,0,0,1,1-2.062,4.915,4.915,0,0,1,2.879-.727h1.039v-.484a1.393,1.393,0,0,0-.3-.937,1.183,1.183,0,0,0-.949-.352,1.345,1.345,0,0,0-.895.273.929.929,0,0,0-.324.75H133.6a2.268,2.268,0,0,1,.453-1.359,3,3,0,0,1,1.281-.98,4.669,4.669,0,0,1,1.859-.355,3.689,3.689,0,0,1,2.48.785,2.747,2.747,0,0,1,.918,2.207v3.664a4.041,4.041,0,0,0,.336,1.82V0Zm-1.867-1.57a1.945,1.945,0,0,0,.922-.223,1.462,1.462,0,0,0,.625-.6V-3.844h-.844q-1.7,0-1.8,1.172l-.008.133a.9.9,0,0,0,.3.7A1.153,1.153,0,0,0,136.781-1.57Z" transform="translate(379 1448)" fill="#12263f"/>
  </g>
</svg>
