<svg xmlns="http://www.w3.org/2000/svg" xmlns:xlink="http://www.w3.org/1999/xlink" width="400" height="168" viewBox="0 0 400 168">
  <defs>
    <clipPath id="clip-path">
      <rect id="Rectángulo_5908" data-name="Rectángulo 5908" width="94.289" height="94.289" fill="none"/>
    </clipPath>
    <clipPath id="clip-path-3">
      <rect id="Rectángulo_5906" data-name="Rectángulo 5906" width="67.783" height="73.123" fill="none"/>
    </clipPath>
    <clipPath id="clip-path-4">
      <rect id="Rectángulo_5905" data-name="Rectángulo 5905" width="229.229" height="48.304" fill="none"/>
    </clipPath>
    <clipPath id="clip-path-5">
      <rect id="Rectángulo_5894" data-name="Rectángulo 5894" width="107.447" height="131.835" fill="none"/>
    </clipPath>
  </defs>
  <g id="Grupo_959301" data-name="Grupo 959301" transform="translate(-180 -3906)">
    <rect id="Rectángulo_340014" data-name="Rectángulo 340014" width="400" height="168" transform="translate(180 3906)" fill="#f3f9ff"/>
    <g id="Grupo_19161" data-name="Grupo 19161" transform="translate(-418.273 -523.5)">
      <g id="Grupo_19094" data-name="Grupo 19094" transform="translate(776.793 4461.909)">
        <g id="Grupo_19093" data-name="Grupo 19093" clip-path="url(#clip-path)">
          <g id="Grupo_19092" data-name="Grupo 19092" transform="translate(0 0)">
            <g id="Grupo_19091" data-name="Grupo 19091" clip-path="url(#clip-path)">
              <path id="Trazado_66087" data-name="Trazado 66087" d="M47.145,0h0A47.145,47.145,0,0,0,0,47.146H0A47.145,47.145,0,0,0,47.145,94.29h0A47.145,47.145,0,0,0,94.289,47.146h0A47.145,47.145,0,0,0,47.145,0" transform="translate(0 -0.001)" fill="#2fb6ac"/>
              <g id="Grupo_19090" data-name="Grupo 19090" transform="translate(26.504 21.164)" opacity="0.12">
                <g id="Grupo_19089" data-name="Grupo 19089">
                  <g id="Grupo_19088" data-name="Grupo 19088" clip-path="url(#clip-path-3)">
                    <path id="Trazado_66088" data-name="Trazado 66088" d="M1124.3,949.829l21.1,21.1a47.145,47.145,0,0,0,46.686-46.7L1165.665,897.8Z" transform="translate(-1124.303 -897.804)"/>
                  </g>
                </g>
              </g>
              <path id="Trazado_66089" data-name="Trazado 66089" d="M2781.579,1871.357a.884.884,0,0,0-.884.884v5.911a.884.884,0,1,0,1.769,0v-5.911a.884.884,0,0,0-.885-.884" transform="translate(-2715.144 -1827.242)" fill="#e0e4ea"/>
              <path id="Trazado_66090" data-name="Trazado 66090" d="M1153.949,916.112v-13.7a.884.884,0,0,1,.884-.884h.154a.884.884,0,0,0,.884-.884V885.886a.884.884,0,0,0-.884-.884h-30.4a3.774,3.774,0,0,0-2.668,1.105l-6.728,6.728a3.774,3.774,0,0,0-1.105,2.669v5.14a.884.884,0,0,0,.884.884h.466a.884.884,0,0,1,.884.884v2.7a.884.884,0,0,1-.884.884h-.466a.884.884,0,0,0-.884.884v29.828a.884.884,0,0,0,.884.884h40.013a.884.884,0,0,0,.884-.884V917.881a.884.884,0,0,0-.884-.884h-.154a.884.884,0,0,1-.884-.884" transform="translate(-1087.827 -864.139)" fill="#4a576b"/>
              <path id="Trazado_66091" data-name="Trazado 66091" d="M2581.778,976.96h-3.012a.884.884,0,0,0-.884.884v10.422a.884.884,0,0,0,.884.884h3.012a.884.884,0,0,0,.884-.884V977.844a.884.884,0,0,0-.884-.884" transform="translate(-2517.111 -953.93)" fill="#ffcf49"/>
              <path id="Trazado_66092" data-name="Trazado 66092" d="M2326.055,976.96h-3.012a.884.884,0,0,0-.884.884v10.422a.884.884,0,0,0,.884.884h3.012a.884.884,0,0,0,.884-.884V977.844a.884.884,0,0,0-.884-.884" transform="translate(-2267.417 -953.93)" fill="#ffcf49"/>
              <path id="Trazado_66093" data-name="Trazado 66093" d="M2070.333,976.96h-3.012a.884.884,0,0,0-.884.884v10.422a.884.884,0,0,0,.884.884h3.012a.884.884,0,0,0,.884-.884V977.844a.884.884,0,0,0-.884-.884" transform="translate(-2017.724 -953.93)" fill="#ffcf49"/>
              <path id="Trazado_66094" data-name="Trazado 66094" d="M1814.61,976.96H1811.6a.884.884,0,0,0-.884.884v10.422a.884.884,0,0,0,.884.884h3.012a.884.884,0,0,0,.885-.884V977.844a.884.884,0,0,0-.885-.884" transform="translate(-1768.028 -953.93)" fill="#ffcf49"/>
              <path id="Trazado_66095" data-name="Trazado 66095" d="M1558.888,976.96h-3.012a.884.884,0,0,0-.884.884v10.422a.884.884,0,0,0,.884.884h3.012a.884.884,0,0,0,.884-.884V977.844a.884.884,0,0,0-.884-.884" transform="translate(-1518.334 -953.93)" fill="#ffcf49"/>
              <path id="Trazado_66096" data-name="Trazado 66096" d="M1303.165,1148.911h-3.012a.884.884,0,0,0-.885.884v10.422a.884.884,0,0,0,.885.884h3.012a.884.884,0,0,0,.884-.884V1149.8a.884.884,0,0,0-.884-.884" transform="translate(-1268.639 -1121.827)" fill="#ffcf49"/>
            </g>
          </g>
        </g>
      </g>
      <g id="Grupo_19087" data-name="Grupo 19087" transform="translate(705.044 4499.54)" clip-path="url(#clip-path-4)">
        <path id="Trazado_66084" data-name="Trazado 66084" d="M68.071,52.3c-5.756,0-8.637-8.287-11.426-16.309C53.9,28.083,51.054,19.909,45.7,19.909c-5.953,0-8.751,8.316-11.457,16.359C31.452,44.562,28.819,52.4,22.786,51.513c-5.723-1.061-8.44-7.162-11.067-13.062C8.858,32.028,6.156,25.962,0,25.962v-.853c6.737,0,9.682,6.611,12.529,13,2.537,5.7,5.159,11.586,10.407,12.559,5.271.778,7.8-6.728,10.469-14.669,2.8-8.332,5.7-16.948,12.3-16.948,5.988,0,8.933,8.469,11.781,16.66,2.764,7.95,5.626,16.179,11.031,15.709,5.357-.562,8.165-7.673,10.88-14.55C82.264,29.6,85.233,22.081,91.4,22.081c5.988,0,8.865,6.163,11.649,12.123,2.726,5.838,5.545,11.874,11.209,11.923h.086c5.536,0,8.226-4.729,11.073-9.735,2.834-4.981,5.764-10.131,11.764-10.343,6.825-.24,9.784,4.108,12.652,8.313,2.633,3.86,5.118,7.506,10.443,7.539h.13c6.027,0,8.607-2.616,11.338-5.384,2.6-2.633,5.285-5.357,11.053-5.357h.023c6.183-.171,9.1,2.326,12.191,4.974,2.684,2.3,5.46,4.683,10.732,5.455,5.633,1.043,8.571-3.2,11.683-7.69,3-4.322,6.092-8.792,11.8-8.792v.853c-5.238,0-8.2,4.278-11.068,8.414-3.135,4.524-6.376,9.2-12.565,8.056-5.513-.808-8.388-3.273-11.168-5.657-2.952-2.532-5.742-4.922-11.594-4.759h-.022c-5.4,0-7.845,2.474-10.428,5.093-2.74,2.777-5.573,5.647-11.978,5.648h-.133c-5.8-.036-8.53-4.045-11.173-7.922-2.86-4.192-5.563-8.142-11.883-7.93-5.5.194-8.184,4.909-11.024,9.9-2.861,5.029-5.824,10.243-11.939,10.176-6.227-.054-9.164-6.344-12-12.426-2.791-5.976-5.427-11.62-10.845-11.62-5.562,0-8.294,6.919-11.186,14.243-2.81,7.117-5.715,14.476-11.618,15.1-.178.015-.354.023-.527.023" transform="translate(0 -7.781)" fill="#a280a5"/>
        <path id="Trazado_66085" data-name="Trazado 66085" d="M114.257,48.3c-6.8,0-9.711-11.218-12.524-22.067C99.206,16.488,96.6,6.4,91.557,7.57c-5.028,1.4-7.793,9.34-10.469,17.022-2.366,6.8-4.6,13.219-8.45,14.951a5.484,5.484,0,0,1-4.329.021c-5.413-2.039-8.368-7.407-10.976-12.142-3.074-5.584-5.729-10.4-11.457-8.881-5.237,1.1-7.991,4.069-10.655,6.943-2.975,3.21-6.051,6.529-12.34,6.568-6.191.482-9.322-3.246-12.352-6.851C7.709,21.844,5.045,18.673,0,18.673V17.394c5.674,0,8.665,3.558,11.557,7C14.5,27.9,17.289,31.212,22.8,30.775l.051,0c5.719-.028,8.346-2.861,11.386-6.143,2.8-3.026,5.7-6.155,11.325-7.33C52.275,15.511,55.3,21,58.5,26.821c2.621,4.761,5.332,9.684,10.29,11.552a4.117,4.117,0,0,0,3.29.011c3.334-1.5,5.48-7.669,7.754-14.2,2.784-8,5.662-16.264,11.386-17.852,6.34-1.456,8.988,8.763,11.8,19.592,2.689,10.372,5.471,21.1,11.241,21.1,5.164,0,7.955-10.189,10.655-20.044,3.005-10.972,5.845-21.344,12.227-21.081,6.879.274,9.746,9.866,12.52,19.142,2.5,8.349,5.077,16.981,10.326,17.127l.175,0c5.718,0,8.478-7.832,11.149-15.409,2.678-7.6,5.447-15.455,11.474-15.554,6.189-.58,8.892,7.743,11.752,16.563,2.7,8.326,5.492,16.934,11.152,17h.06c5.844,0,7.849-9.979,9.973-20.542C218.114,12.315,220.59,0,229.229,0v1.28c-7.549,0-9.919,11.79-12.211,23.191-2.231,11.095-4.339,21.577-11.267,21.578h-.081c-6.619-.077-9.557-9.136-12.4-17.9-2.7-8.323-5.249-16.177-10.384-15.671l-.06,0c-5.114.063-7.618,7.167-10.269,14.689-2.82,8-5.737,16.275-12.389,16.276l-.224,0c-6.214-.172-8.811-8.856-11.559-18.05-2.643-8.842-5.376-17.984-11.3-18.219-.054,0-.107,0-.16,0-5.219,0-8.022,10.234-10.734,20.135-2.957,10.8-5.75,21-11.933,21" transform="translate(0 0.001)" fill="#3d3a87"/>
        <path id="Trazado_66086" data-name="Trazado 66086" d="M45.71,46.129H45.7c-4.009-.03-6-2.736-7.933-5.354-1.895-2.57-3.68-4.994-7.284-4.885-3.52.137-5.29,2.348-7.163,4.688-1.963,2.452-4,4.982-8.116,4.711-3.883-.3-5.829-2.212-7.711-4.064C5.584,39.351,3.785,37.579,0,37.579v-.853c4.154,0,6.17,1.984,8.119,3.9,1.85,1.82,3.6,3.54,7.147,3.811,3.651.254,5.449-2,7.353-4.382s3.894-4.866,7.829-5.019c4.076-.118,6.087,2.6,8.034,5.242,1.884,2.555,3.663,4.969,7.219,5h.01c3.559,0,5.34-2.442,7.226-5.027,1.941-2.661,3.948-5.394,8-5.342,3.984.09,5.975,2.7,7.9,5.224,1.9,2.49,3.7,4.83,7.309,4.709,3.537-.141,5.309-2.262,7.185-4.506,1.959-2.344,3.983-4.767,8.09-4.565,3.89.2,5.862,2.261,7.77,4.254s3.72,3.878,7.415,3.673c3.529-.2,5.376-1.815,7.161-3.374,1.971-1.722,4.01-3.5,8.126-3.266,3.858.217,5.826,2.033,7.728,3.788s3.731,3.446,7.458,3.248c3.544-.176,5.317-2.228,7.193-4.4,1.96-2.269,3.979-4.613,8.087-4.45,3.89.143,5.868,1.767,7.78,3.337s3.712,3.063,7.425,2.968a19.362,19.362,0,0,0,7.407-1.449,19.5,19.5,0,0,1,7.842-1.461,15.211,15.211,0,0,1,7.933,1.92,15.487,15.487,0,0,0,7.315,1.935c3.647.133,5.38-1.621,7.213-3.485,1.872-1.9,3.807-3.872,7.783-3.872,4.08,0,6.232,2.144,8.312,4.217s4.033,4.02,7.858,4.02v.853c-4.2,0-6.38-2.175-8.491-4.278-2.043-2.036-3.972-3.959-7.679-3.959-3.6,0-5.32,1.752-7.144,3.608-1.888,1.92-3.842,3.907-7.883,3.749a16.249,16.249,0,0,1-7.686-2.028,14.235,14.235,0,0,0-7.527-1.827,18.5,18.5,0,0,0-7.529,1.4,20.126,20.126,0,0,1-7.705,1.506c-4.036.08-6.062-1.568-8.014-3.171-1.881-1.544-3.658-3-7.245-3.135-3.666-.156-5.468,1.938-7.374,4.145s-3.9,4.51-7.824,4.7c-4.111.206-6.145-1.665-8.113-3.482-1.869-1.726-3.636-3.356-7.171-3.555-3.75-.215-5.563,1.37-7.484,3.048-1.9,1.658-3.861,3.374-7.7,3.592-4.112.228-6.147-1.891-8.114-3.944-1.87-1.954-3.637-3.8-7.169-3.982-3.66-.192-5.454,1.971-7.359,4.249s-3.9,4.665-7.836,4.822c-4.1.148-6.1-2.5-8.054-5.054-1.881-2.467-3.658-4.8-7.208-4.878-3.59-.064-5.37,2.387-7.262,4.98-1.932,2.649-3.931,5.388-7.949,5.388" transform="translate(0 -14.254)" fill="#098dce"/>
      </g>
      <rect id="Rectángulo_5876" data-name="Rectángulo 5876" width="7.088" height="8.282" transform="translate(678.883 4481.807)" fill="#4c4c4c"/>
      <rect id="Rectángulo_5877" data-name="Rectángulo 5877" width="2.128" height="8.282" transform="translate(680.703 4481.807)" fill="#999"/>
      <g id="Grupo_19072" data-name="Grupo 19072" transform="translate(662.273 4447.5)" clip-path="url(#clip-path-5)">
        <path id="Trazado_65783" data-name="Trazado 65783" d="M42.668,300.007l-.008,53.449a7.323,7.323,0,0,1-7.327,7.328H7.328A7.323,7.323,0,0,1,0,353.457v-53.45a11.854,11.854,0,0,1,.842-5.239l7.6-19.4a14.869,14.869,0,0,1,2.263-4.179,6.139,6.139,0,0,1,4.921-2.371h11.4a6.139,6.139,0,0,1,4.921,2.371,14.867,14.867,0,0,1,2.263,4.178l7.6,19.4a11.859,11.859,0,0,1,.85,5.238" transform="translate(0 -228.949)"/>
        <path id="Trazado_65784" data-name="Trazado 65784" d="M52.893,312.446V365.9a5.186,5.186,0,0,1-5.17,5.17h-28a5.186,5.186,0,0,1-5.17-5.17V312.446a10.042,10.042,0,0,1,.716-4.5l7.586-19.35c1.038-2.647,2.326-5.17,5.17-5.17h11.4c2.844,0,4.132,2.523,5.17,5.17l7.587,19.352a10.037,10.037,0,0,1,.716,4.5" transform="translate(-12.391 -241.389)" fill="#333" fill-rule="evenodd"/>
        <rect id="Rectángulo_5878" data-name="Rectángulo 5878" width="31.56" height="1.155" transform="translate(5.55 62.728)" fill="#4c4c4c"/>
        <path id="Trazado_65785" data-name="Trazado 65785" d="M78.2,9.839V25.926c0,13.118-27.67,13.119-27.67,0V9.839c0-13.119,27.67-13.118,27.67,0" transform="translate(-43.037 0)" fill="#191919" fill-rule="evenodd"/>
        <path id="Trazado_65786" data-name="Trazado 65786" d="M68.245,45.753C65.171,44.4,62.964,42,62.964,38.548V24.606c0-8.768,14.257-10.772,20.785-6.019-7.09-3.031-18.319-.836-18.319,6.945v14.5a7.156,7.156,0,0,0,2.815,5.726" transform="translate(-53.625 -13.695)" fill="#333" fill-rule="evenodd"/>
        <path id="Trazado_65787" data-name="Trazado 65787" d="M22.248,371.066H19.719a5.185,5.185,0,0,1-5.17-5.17V312.446a10.042,10.042,0,0,1,.716-4.5l7.586-19.35c1.038-2.647,2.326-5.17,5.17-5.17H30.55c-2.844,0-4.132,2.523-5.17,5.17l-7.586,19.35a10.041,10.041,0,0,0-.716,4.5V365.9a5.185,5.185,0,0,0,5.17,5.17" transform="translate(-12.391 -241.389)" fill="#4c4c4c" fill-rule="evenodd"/>
        <path id="Trazado_65788" data-name="Trazado 65788" d="M173.49,371.066h2.528a5.185,5.185,0,0,0,5.17-5.17V312.446a10.042,10.042,0,0,0-.716-4.5l-7.586-19.35c-1.038-2.647-2.326-5.17-5.17-5.17h-2.528c2.844,0,4.132,2.523,5.17,5.17l7.586,19.35a10.043,10.043,0,0,1,.716,4.5V365.9a5.185,5.185,0,0,1-5.17,5.17" transform="translate(-140.687 -241.389)" fill="#191919" fill-rule="evenodd"/>
        <path id="Trazado_65789" data-name="Trazado 65789" d="M54.96,448.135H77.25a2.377,2.377,0,0,1,1.489.525,2.4,2.4,0,0,1,.893,1.856v19.163a2.386,2.386,0,0,1-2.381,2.382H54.961a2.4,2.4,0,0,1-2.382-2.381l-.006-19.162a2.4,2.4,0,0,1,2.387-2.382" transform="translate(-44.775 -381.666)"/>
        <path id="Trazado_65790" data-name="Trazado 65790" d="M63.668,458.318a.882.882,0,0,0-.871.872v19.162a.887.887,0,0,0,.872.871h22.29a.882.882,0,0,0,.871-.872V459.189a.882.882,0,0,0-.872-.871Z" transform="translate(-53.483 -390.339)" fill="#f0903c" fill-rule="evenodd"/>
        <rect id="Rectángulo_5879" data-name="Rectángulo 5879" width="2.235" height="3.574" transform="translate(12.562 82.661)" fill="#e38029"/>
        <rect id="Rectángulo_5880" data-name="Rectángulo 5880" width="2.235" height="3.574" transform="translate(15.587 82.661)" fill="#e38029"/>
        <rect id="Rectángulo_5881" data-name="Rectángulo 5881" width="2.235" height="3.574" transform="translate(18.613 82.661)" fill="#78502c"/>
        <rect id="Rectángulo_5882" data-name="Rectángulo 5882" width="2.235" height="3.574" transform="translate(21.638 82.661)" fill="#78502c"/>
        <rect id="Rectángulo_5883" data-name="Rectángulo 5883" width="2.235" height="3.574" transform="translate(24.663 82.661)" fill="#78502c"/>
        <rect id="Rectángulo_5884" data-name="Rectángulo 5884" width="2.235" height="3.574" transform="translate(27.688 82.661)" fill="#78502c"/>
        <path id="Trazado_65791" data-name="Trazado 65791" d="M88.741,477.133l.535.535-.535.535H85.263l-.535-.535.535-.535Zm.8.67.267.267v3.748a.856.856,0,0,1-.667.667l-.4-1.07v-2.809Zm-.667,4.683H84.863a.855.855,0,0,1-.67-.67l1.07-.4h3.211Zm-.4-8.564h-3.2l-1.07-.4a.855.855,0,0,1,.67-.667h4Zm-3.211.267v2.541l-.8.8-.267-.267v-3.481Zm3.478,2.541v-2.809l.4-1.07a.856.856,0,0,1,.667.667v3.748l-.267.267Zm6.957.4.535.535-.535.535H92.22l-.535-.535.535-.535Zm.8.67.267.267v3.748a.856.856,0,0,1-.667.667l-.4-1.07v-2.809Zm-.667,4.683H91.82a.855.855,0,0,1-.67-.67l1.07-.4h3.211Zm0-8.564h-3.6l-1.069-.4a.855.855,0,0,1,.67-.667h4.4Zm-3.611.267v2.541l-.8.8-.267-.267v-3.481Zm6.957,8.3h-1.07v-1.07h1.07Zm2.142-4.683.267.267v3.746a.855.855,0,0,1-.667.67l-.4-1.07V478.6Zm-.8-1.07v-2.811l.4-1.07a.855.855,0,0,1,.667.67v3.746l-.267.267Z" transform="translate(-71.705 -402.717)" fill="#78502c"/>
        <path id="Trazado_65792" data-name="Trazado 65792" d="M52.612,720.753a1.6,1.6,0,0,0,1.594,1.594h9a1.6,1.6,0,0,0,1.594-1.594V704a1.6,1.6,0,0,0-1.594-1.594h-9A1.6,1.6,0,0,0,52.612,704Z" transform="translate(-44.808 -598.224)" fill="#191919"/>
        <path id="Trazado_65793" data-name="Trazado 65793" d="M70.413,718.321a.415.415,0,0,1-.41.41H61a.418.418,0,0,1-.41-.41V710.8a.415.415,0,0,1,.41-.41h9a.412.412,0,0,1,.29.123.407.407,0,0,1,.12.288Z" transform="translate(-51.604 -605.02)" fill="#4c4c4c" fill-rule="evenodd"/>
        <path id="Trazado_65794" data-name="Trazado 65794" d="M79.933,731.438a.5.5,0,0,1-.41-.818l1.626-1.886a.495.495,0,0,1,.754.006l1.621,1.881a.5.5,0,0,1-.41.818Z" transform="translate(-67.624 -620.499)" fill="#191919"/>
        <path id="Trazado_65795" data-name="Trazado 65795" d="M61.459,718.731H61a.418.418,0,0,1-.41-.41V710.8a.415.415,0,0,1,.41-.41h9a.412.412,0,0,1,.29.123.407.407,0,0,1,.12.288v.411H61.869a.416.416,0,0,0-.41.41Z" transform="translate(-51.605 -605.02)" fill="#666" fill-rule="evenodd"/>
        <path id="Trazado_65796" data-name="Trazado 65796" d="M70.413,781.415a.415.415,0,0,1-.41.41H61a.418.418,0,0,1-.41-.41v-7.523a.415.415,0,0,1,.41-.41h9a.415.415,0,0,1,.41.41Z" transform="translate(-51.604 -658.756)" fill="#4c4c4c" fill-rule="evenodd"/>
        <path id="Trazado_65797" data-name="Trazado 65797" d="M79.933,794.979a.5.5,0,0,0-.41.818l1.626,1.886a.5.5,0,0,0,.7.051.487.487,0,0,0,.055-.056l1.621-1.881a.5.5,0,0,0-.41-.818Z" transform="translate(-67.624 -677.064)" fill="#191919"/>
        <path id="Trazado_65798" data-name="Trazado 65798" d="M61.459,781.825H61a.418.418,0,0,1-.41-.41v-7.522a.411.411,0,0,1,.123-.29.407.407,0,0,1,.288-.12h9a.415.415,0,0,1,.41.41v.411H61.869a.407.407,0,0,0-.288.12.411.411,0,0,0-.123.29Z" transform="translate(-51.605 -658.756)" fill="#666" fill-rule="evenodd"/>
        <path id="Trazado_65799" data-name="Trazado 65799" d="M64.8,630.1a1.6,1.6,0,0,0-1.594-1.594h-9a1.6,1.6,0,0,0-1.594,1.594v5.79a1.6,1.6,0,0,0,1.594,1.594h9a1.6,1.6,0,0,0,1.594-1.594Z" transform="translate(-44.808 -535.284)" fill="#191919"/>
        <path id="Trazado_65800" data-name="Trazado 65800" d="M70.413,642.685a.415.415,0,0,1-.41.41H61a.418.418,0,0,1-.41-.41V636.9a.415.415,0,0,1,.41-.41h9a.415.415,0,0,1,.41.41Z" transform="translate(-51.604 -542.079)" fill="#999" fill-rule="evenodd"/>
        <path id="Trazado_65801" data-name="Trazado 65801" d="M61.459,643.1H61a.418.418,0,0,1-.41-.41V636.9a.415.415,0,0,1,.41-.41h9a.415.415,0,0,1,.41.41v.411H61.869a.415.415,0,0,0-.41.41Z" transform="translate(-51.605 -542.08)" fill="#b2b2b2" fill-rule="evenodd"/>
        <path id="Trazado_65802" data-name="Trazado 65802" d="M160.791,630.1a1.6,1.6,0,0,0-1.594-1.594h-9A1.6,1.6,0,0,0,148.6,630.1v5.79a1.6,1.6,0,0,0,1.594,1.594h9a1.6,1.6,0,0,0,1.594-1.594Z" transform="translate(-126.56 -535.284)" fill="#191919"/>
        <path id="Trazado_65803" data-name="Trazado 65803" d="M166.4,642.685a.415.415,0,0,1-.41.41h-9a.418.418,0,0,1-.41-.41V636.9a.415.415,0,0,1,.41-.41h9a.415.415,0,0,1,.41.41Z" transform="translate(-133.355 -542.079)" fill="#4c4c4c" fill-rule="evenodd"/>
        <path id="Trazado_65804" data-name="Trazado 65804" d="M157.447,643.1h-.457a.418.418,0,0,1-.41-.41V636.9a.411.411,0,0,1,.123-.29.407.407,0,0,1,.288-.12h9a.415.415,0,0,1,.41.41v.411h-8.546a.415.415,0,0,0-.41.41Z" transform="translate(-133.355 -542.08)" fill="#666" fill-rule="evenodd"/>
        <path id="Trazado_65805" data-name="Trazado 65805" d="M160.791,704a1.6,1.6,0,0,0-1.594-1.594h-9A1.6,1.6,0,0,0,148.6,704v5.79a1.6,1.6,0,0,0,1.594,1.594h9a1.6,1.6,0,0,0,1.594-1.594Z" transform="translate(-126.56 -598.224)" fill="#191919"/>
        <path id="Trazado_65806" data-name="Trazado 65806" d="M166.4,716.588a.415.415,0,0,1-.41.41h-9a.418.418,0,0,1-.41-.41V710.8a.415.415,0,0,1,.41-.41h9a.415.415,0,0,1,.41.41Z" transform="translate(-133.355 -605.02)" fill="#4c4c4c" fill-rule="evenodd"/>
        <path id="Trazado_65807" data-name="Trazado 65807" d="M157.447,717h-.457a.418.418,0,0,1-.41-.41V710.8a.412.412,0,0,1,.123-.29.407.407,0,0,1,.288-.12h9a.415.415,0,0,1,.41.41v.411h-8.546a.406.406,0,0,0-.288.12.411.411,0,0,0-.123.29Z" transform="translate(-133.355 -605.021)" fill="#666" fill-rule="evenodd"/>
        <path id="Trazado_65808" data-name="Trazado 65808" d="M160.791,777.906a1.6,1.6,0,0,0-1.594-1.594h-9a1.6,1.6,0,0,0-1.594,1.594V783.7a1.6,1.6,0,0,0,1.594,1.594h9a1.6,1.6,0,0,0,1.594-1.594Z" transform="translate(-126.56 -661.166)" fill="#191919"/>
        <path id="Trazado_65809" data-name="Trazado 65809" d="M166.4,790.491a.415.415,0,0,1-.41.41h-9a.418.418,0,0,1-.41-.41V784.7a.415.415,0,0,1,.41-.41h9a.415.415,0,0,1,.41.41Z" transform="translate(-133.355 -667.962)" fill="#4c4c4c" fill-rule="evenodd"/>
        <path id="Trazado_65810" data-name="Trazado 65810" d="M157.447,790.9h-.457a.418.418,0,0,1-.41-.41V784.7a.411.411,0,0,1,.123-.29.407.407,0,0,1,.288-.12h9a.415.415,0,0,1,.41.41v.411h-8.546a.415.415,0,0,0-.41.41Z" transform="translate(-133.355 -667.962)" fill="#666" fill-rule="evenodd"/>
      </g>
    </g>
  </g>
</svg>
