<svg xmlns="http://www.w3.org/2000/svg" xmlns:xlink="http://www.w3.org/1999/xlink" width="488" height="231" viewBox="0 0 488 231">
  <defs>
    <filter id="Rectángulo_340157" x="0" y="0" width="488" height="231" filterUnits="userSpaceOnUse">
      <feOffset dy="3" input="SourceAlpha"/>
      <feGaussianBlur stdDeviation="3" result="blur"/>
      <feFlood flood-opacity="0.161"/>
      <feComposite operator="in" in2="blur"/>
      <feComposite in="SourceGraphic"/>
    </filter>
    <clipPath id="clip-path">
      <rect id="Rectángulo_5105" data-name="Rectángulo 5105" width="47" height="47" transform="translate(0 -0.305)" fill="#fdac29"/>
    </clipPath>
    <clipPath id="clip-path-2">
      <rect id="Rectángulo_5106" data-name="Rectángulo 5106" width="46" height="43.113" fill="#4463aa"/>
    </clipPath>
    <clipPath id="clip-path-3">
      <rect id="Rectángulo_5107" data-name="Rectángulo 5107" width="29.227" height="45.938" fill="#d35050"/>
    </clipPath>
    <clipPath id="clip-path-4">
      <rect id="Rectángulo_5108" data-name="Rectángulo 5108" width="34" height="34" transform="translate(0 0.362)" fill="#6ec3b5"/>
    </clipPath>
  </defs>
  <g id="Grupo_959108" data-name="Grupo 959108" transform="translate(-206 -4237)">
    <g transform="matrix(1, 0, 0, 1, 206, 4237)" filter="url(#Rectángulo_340157)">
      <rect id="Rectángulo_340157-2" data-name="Rectángulo 340157" width="470" height="213" transform="translate(9 6)" fill="#fff"/>
    </g>
    <g id="Grupo_958883" data-name="Grupo 958883" transform="translate(38 140)">
      <g id="Grupo_18108" data-name="Grupo 18108" transform="translate(220 4159.305)">
        <g id="Grupo_18107" data-name="Grupo 18107" clip-path="url(#clip-path)">
          <path id="Trazado_64159" data-name="Trazado 64159" d="M36.658,25.8A10.858,10.858,0,1,1,25.8,36.658,10.858,10.858,0,0,1,36.658,25.8" transform="translate(-12.891 -12.969)" fill="#fdac29"/>
          <path id="Trazado_64160" data-name="Trazado 64160" d="M46.451,8.806A1.057,1.057,0,0,0,47.5,7.756v-6.7A1.057,1.057,0,0,0,46.451,0,1.092,1.092,0,0,0,45.4,1.051v6.7a1.026,1.026,0,0,0,1.051,1.051" transform="translate(-22.684 -0.078)" fill="#fdac29"/>
          <path id="Trazado_64161" data-name="Trazado 64161" d="M18.4,19.9a1.088,1.088,0,0,0,1.5,0,1.088,1.088,0,0,0,0-1.5l-4.7-4.7a1.061,1.061,0,0,0-1.5,1.5Z" transform="translate(-6.695 -6.773)" fill="#fdac29"/>
          <path id="Trazado_64162" data-name="Trazado 64162" d="M8.806,46.451A1.057,1.057,0,0,0,7.756,45.4h-6.7a1.051,1.051,0,1,0,0,2.1h6.7a1.026,1.026,0,0,0,1.051-1.051" transform="translate(0 -22.761)" fill="#fdac29"/>
          <path id="Trazado_64163" data-name="Trazado 64163" d="M18.4,68.3,13.7,73a1.088,1.088,0,0,0,0,1.5,1.088,1.088,0,0,0,1.5,0l4.7-4.7a1.061,1.061,0,0,0-1.5-1.5" transform="translate(-6.695 -34.053)" fill="#fdac29"/>
          <path id="Trazado_64164" data-name="Trazado 64164" d="M46.451,77.4A1.057,1.057,0,0,0,45.4,78.451v6.7a1.057,1.057,0,0,0,1.051,1.051A1.092,1.092,0,0,0,47.5,85.156v-6.7A1.026,1.026,0,0,0,46.451,77.4" transform="translate(-22.684 -38.75)" fill="#fdac29"/>
          <path id="Trazado_64165" data-name="Trazado 64165" d="M69.8,68.3a1.061,1.061,0,0,0-1.5,1.5L73,74.5a1.088,1.088,0,0,0,1.5,0,1.088,1.088,0,0,0,0-1.5Z" transform="translate(-33.975 -34.053)" fill="#fdac29"/>
          <path id="Trazado_64166" data-name="Trazado 64166" d="M85.156,45.4h-6.7a1.051,1.051,0,0,0,0,2.1h6.7a1.051,1.051,0,0,0,0-2.1" transform="translate(-38.672 -22.761)" fill="#fdac29"/>
          <path id="Trazado_64167" data-name="Trazado 64167" d="M69.051,20.2a1.1,1.1,0,0,0,.751-.3l4.7-4.7A1.061,1.061,0,0,0,73,13.7l-4.7,4.7a1.088,1.088,0,0,0,0,1.5,1.1,1.1,0,0,0,.751.3" transform="translate(-33.975 -6.773)" fill="#fdac29"/>
        </g>
      </g>
      <g id="Grupo_18110" data-name="Grupo 18110" transform="translate(220 4209.853)">
        <g id="Grupo_18109" data-name="Grupo 18109" clip-path="url(#clip-path-2)">
          <path id="Trazado_64168" data-name="Trazado 64168" d="M24.443,0A21.544,21.544,0,0,0,2.935,21.314H.8a.824.824,0,0,0-.679,1.259l3.488,5.619a.818.818,0,0,0,1.405,0l3.487-5.668a.824.824,0,0,0-.678-1.259H5.7a18.713,18.713,0,1,1,3.439,11.19,1.391,1.391,0,1,0-2.276,1.6,21.8,21.8,0,0,0,17.584,9.059A21.557,21.557,0,1,0,24.443,0" transform="translate(0)" fill="#4463aa"/>
          <path id="Trazado_64169" data-name="Trazado 64169" d="M49.594,30.167A13.467,13.467,0,1,0,36.127,43.634,13.5,13.5,0,0,0,49.594,30.167m-14.823,0V23.724a1.356,1.356,0,1,1,2.713,0v5.038H41.6a1.354,1.354,0,0,1,1.356,1.356A1.386,1.386,0,0,1,41.6,31.475H36.127a1.284,1.284,0,0,1-1.356-1.308" transform="translate(-11.683 -8.61)" fill="#4463aa"/>
        </g>
      </g>
      <g id="Grupo_18112" data-name="Grupo 18112" transform="translate(371.558 4162.178)">
        <g id="Grupo_18111" data-name="Grupo 18111" clip-path="url(#clip-path-3)">
          <path id="Trazado_64170" data-name="Trazado 64170" d="M24.06,9.382a9.452,9.452,0,1,1-18.893,0H24.06Zm2.6-3.3V9.471a12.093,12.093,0,0,1-9.128,11.681v3.635a12.093,12.093,0,0,1,9.128,11.681v3.385h2.571v6.086H0V39.853H2.571V36.468A12.094,12.094,0,0,1,11.7,24.786V21.152A12.094,12.094,0,0,1,2.571,9.471V6.086H0V0H29.227V6.086Zm-1.458,0H4.029V9.471c0,5.538,3.863,9.459,9.128,10.5v6c-5.288,1.044-9.128,4.969-9.128,10.5v3.385H25.2V36.468c0-5.532-3.839-9.456-9.128-10.5V19.972c5.265-1.042,9.128-4.963,9.128-10.5ZM14.614,29.69l9.513,9.455H5.1l9.513-9.455Zm-.82-1.893a.564.564,0,1,1-.564.564.565.565,0,0,1,.564-.564m1.639-1.234a.564.564,0,1,1-.564.564.564.564,0,0,1,.564-.564m-1.639-5.007a.564.564,0,1,1-.564.564.565.565,0,0,1,.564-.564m1.639-1.234a.564.564,0,1,1-.564.564.564.564,0,0,1,.564-.564m-1.639,4.355a.564.564,0,1,1-.564.564.564.564,0,0,1,.564-.564m1.639-1.235a.564.564,0,1,1-.564.564.564.564,0,0,1,.564-.564" fill="#d35050" fill-rule="evenodd"/>
        </g>
      </g>
      <g id="Grupo_18114" data-name="Grupo 18114" transform="translate(370 4215.46)">
        <g id="Grupo_18113" data-name="Grupo 18113" clip-path="url(#clip-path-4)">
          <path id="Trazado_64171" data-name="Trazado 64171" d="M26.564,11.384H23.945l.683-3.423-3.721-.744-.833,4.167H16.356l.683-3.423L13.32,7.218l-.835,4.167H7.59v3.795h4.138l-.761,3.795H7.59v3.795h2.618l-.683,3.423,3.719.744.835-4.167H17.8l-.683,3.423,3.719.744.835-4.167h4.9V18.974H22.425l.761-3.795h3.377Zm7.59-5.692V28.461a5.692,5.692,0,0,1-5.692,5.692H5.692A5.692,5.692,0,0,1,0,28.461V5.692A5.692,5.692,0,0,1,5.692,0H28.461a5.692,5.692,0,0,1,5.692,5.692M15.6,15.179h3.719l-.759,3.795H14.836Z" transform="translate(-0.358 0.124)" fill="#6ec3b5" fill-rule="evenodd"/>
        </g>
      </g>
      <path id="Trazado_725300" data-name="Trazado 725300" d="M1.32,0V-11.375H4.531a5.169,5.169,0,0,1,2.625.656A4.438,4.438,0,0,1,8.918-8.852,6.078,6.078,0,0,1,9.547-6.07v.727a6.1,6.1,0,0,1-.621,2.82A4.369,4.369,0,0,1,7.152-.664,5.5,5.5,0,0,1,4.469,0Zm1.5-10.148v8.922H4.4A3.434,3.434,0,0,0,7.1-2.306a4.458,4.458,0,0,0,.965-3.073v-.665a4.529,4.529,0,0,0-.91-3.014A3.239,3.239,0,0,0,4.57-10.148ZM13.156,0H11.7V-8.453h1.453Zm.016-11.992h1.75L12.828-9.7l-1.164,0ZM20.758,0a3.036,3.036,0,0,1-.2-.891A3.225,3.225,0,0,1,18.148.156,2.984,2.984,0,0,1,16.1-.551a2.287,2.287,0,0,1-.8-1.793,2.39,2.39,0,0,1,1-2.051,4.733,4.733,0,0,1,2.824-.73h1.406v-.664A1.623,1.623,0,0,0,20.078-7a1.821,1.821,0,0,0-1.336-.449,2.108,2.108,0,0,0-1.3.391,1.151,1.151,0,0,0-.523.945H15.469a2,2,0,0,1,.449-1.223,3.066,3.066,0,0,1,1.219-.934,4.1,4.1,0,0,1,1.691-.344,3.342,3.342,0,0,1,2.289.73,2.635,2.635,0,0,1,.859,2.012v3.891a4.757,4.757,0,0,0,.3,1.852V0Zm-2.4-1.1a2.54,2.54,0,0,0,1.289-.352,2.127,2.127,0,0,0,.883-.914V-4.1H19.4q-2.656,0-2.656,1.555A1.316,1.316,0,0,0,17.2-1.484,1.742,1.742,0,0,0,18.359-1.1Z" transform="translate(285 4188)" fill="#12263f"/>
      <path id="Trazado_725299" data-name="Trazado 725299" d="M9.18-10.148H5.523V0H4.031V-10.148H.383v-1.227h8.8ZM12.211,0H10.766V-8.453h1.445ZM10.648-10.7a.863.863,0,0,1,.215-.594.807.807,0,0,1,.637-.242.819.819,0,0,1,.641.242.854.854,0,0,1,.219.594.826.826,0,0,1-.219.586.834.834,0,0,1-.641.234.821.821,0,0,1-.637-.234A.834.834,0,0,1,10.648-10.7ZM18.031.156a3.693,3.693,0,0,1-2.8-1.129,4.19,4.19,0,0,1-1.078-3.02v-.266a5.073,5.073,0,0,1,.48-2.246A3.748,3.748,0,0,1,15.98-8.051a3.378,3.378,0,0,1,1.871-.559,3.166,3.166,0,0,1,2.563,1.086,4.7,4.7,0,0,1,.914,3.109v.6H15.6a3,3,0,0,0,.73,2.02,2.3,2.3,0,0,0,1.777.77,2.517,2.517,0,0,0,1.3-.312,3.259,3.259,0,0,0,.93-.828l.883.688A3.55,3.55,0,0,1,18.031.156Zm-.18-7.578a1.928,1.928,0,0,0-1.469.637A3.1,3.1,0,0,0,15.648-5h4.234v-.109a2.753,2.753,0,0,0-.594-1.707A1.815,1.815,0,0,0,17.852-7.422Zm6.508-1.031.039.938a3.122,3.122,0,0,1,2.508-1.094A2.417,2.417,0,0,1,29.32-7.25a3.2,3.2,0,0,1,1.1-.984,3.242,3.242,0,0,1,1.6-.375q2.781,0,2.828,2.945V0H33.4V-5.578a1.941,1.941,0,0,0-.414-1.355,1.823,1.823,0,0,0-1.391-.449,1.916,1.916,0,0,0-1.336.48,1.949,1.949,0,0,0-.617,1.293V0H28.188V-5.539a1.613,1.613,0,0,0-1.8-1.844,1.934,1.934,0,0,0-1.945,1.211V0H22.992V-8.453Zm19.8,4.32a5.062,5.062,0,0,1-.883,3.109A2.829,2.829,0,0,1,40.891.156,3.1,3.1,0,0,1,38.469-.82V3.25H37.023v-11.7h1.32l.07.938a2.977,2.977,0,0,1,2.453-1.094,2.882,2.882,0,0,1,2.41,1.148,5.117,5.117,0,0,1,.887,3.2ZM42.719-4.3a3.735,3.735,0,0,0-.609-2.258,1.963,1.963,0,0,0-1.672-.828,2.125,2.125,0,0,0-1.969,1.164V-2.18a2.129,2.129,0,0,0,1.984,1.156,1.954,1.954,0,0,0,1.652-.824A4.077,4.077,0,0,0,42.719-4.3Zm2.9-.008a4.993,4.993,0,0,1,.488-2.234A3.643,3.643,0,0,1,47.465-8.07a3.7,3.7,0,0,1,1.988-.539,3.565,3.565,0,0,1,2.793,1.2,4.6,4.6,0,0,1,1.066,3.18v.1a5.036,5.036,0,0,1-.473,2.215A3.589,3.589,0,0,1,51.488-.391a3.743,3.743,0,0,1-2.02.547,3.556,3.556,0,0,1-2.785-1.2A4.575,4.575,0,0,1,45.617-4.2Zm1.453.172a3.616,3.616,0,0,0,.652,2.258,2.088,2.088,0,0,0,1.746.852,2.075,2.075,0,0,0,1.75-.863A3.955,3.955,0,0,0,51.867-4.3a3.61,3.61,0,0,0-.66-2.254,2.1,2.1,0,0,0-1.754-.863,2.075,2.075,0,0,0-1.727.852A3.925,3.925,0,0,0,47.07-4.133ZM58.734-4.3a4.952,4.952,0,0,1,.922-3.129A2.915,2.915,0,0,1,62.07-8.609a2.932,2.932,0,0,1,2.352,1.016V-12h1.445V0H64.539l-.07-.906A2.943,2.943,0,0,1,62.055.156a2.887,2.887,0,0,1-2.395-1.2,5.008,5.008,0,0,1-.926-3.141Zm1.445.164a3.749,3.749,0,0,0,.594,2.25,1.92,1.92,0,0,0,1.641.813A2.108,2.108,0,0,0,64.422-2.3V-6.187a2.125,2.125,0,0,0-1.992-1.2,1.929,1.929,0,0,0-1.656.82A4.128,4.128,0,0,0,60.18-4.133ZM71.617.156a3.693,3.693,0,0,1-2.8-1.129,4.19,4.19,0,0,1-1.078-3.02v-.266a5.073,5.073,0,0,1,.48-2.246,3.748,3.748,0,0,1,1.344-1.547,3.378,3.378,0,0,1,1.871-.559A3.166,3.166,0,0,1,74-7.523a4.7,4.7,0,0,1,.914,3.109v.6H69.188a3,3,0,0,0,.73,2.02,2.3,2.3,0,0,0,1.777.77,2.517,2.517,0,0,0,1.3-.312,3.259,3.259,0,0,0,.93-.828l.883.688A3.55,3.55,0,0,1,71.617.156Zm-.18-7.578a1.928,1.928,0,0,0-1.469.637A3.1,3.1,0,0,0,69.234-5h4.234v-.109a2.753,2.753,0,0,0-.594-1.707A1.815,1.815,0,0,0,71.438-7.422Zm11.273-3.953L86.43-2.094l3.719-9.281h1.945V0h-1.5V-4.43l.141-4.781L87,0H85.852L82.125-9.187l.148,4.758V0h-1.5V-11.375ZM99.734-.836a3.07,3.07,0,0,1-2.477.992A2.628,2.628,0,0,1,95.2-.629a3.4,3.4,0,0,1-.715-2.324v-5.5H95.93v5.461q0,1.922,1.563,1.922A2.163,2.163,0,0,0,99.7-2.3V-8.453h1.445V0H99.766Zm7.109.992a3.693,3.693,0,0,1-2.8-1.129,4.19,4.19,0,0,1-1.078-3.02v-.266a5.073,5.073,0,0,1,.48-2.246,3.748,3.748,0,0,1,1.344-1.547,3.378,3.378,0,0,1,1.871-.559,3.166,3.166,0,0,1,2.563,1.086,4.7,4.7,0,0,1,.914,3.109v.6h-5.727a3,3,0,0,0,.73,2.02,2.3,2.3,0,0,0,1.777.77,2.517,2.517,0,0,0,1.3-.312,3.259,3.259,0,0,0,.93-.828l.883.688A3.55,3.55,0,0,1,106.844.156Zm-.18-7.578a1.928,1.928,0,0,0-1.469.637A3.1,3.1,0,0,0,104.461-5H108.7v-.109a2.753,2.753,0,0,0-.594-1.707A1.815,1.815,0,0,0,106.664-7.422Zm10.07,5.18a1.064,1.064,0,0,0-.441-.91,4.249,4.249,0,0,0-1.539-.559,7.277,7.277,0,0,1-1.742-.562,2.479,2.479,0,0,1-.953-.781,1.869,1.869,0,0,1-.309-1.078,2.193,2.193,0,0,1,.879-1.758,3.432,3.432,0,0,1,2.246-.719,3.532,3.532,0,0,1,2.332.742,2.357,2.357,0,0,1,.895,1.9h-1.453a1.3,1.3,0,0,0-.5-1.023,1.888,1.888,0,0,0-1.27-.43,1.976,1.976,0,0,0-1.234.344,1.082,1.082,0,0,0-.445.9.877.877,0,0,0,.414.789,5.1,5.1,0,0,0,1.5.508,7.8,7.8,0,0,1,1.754.578,2.558,2.558,0,0,1,1,.809,1.988,1.988,0,0,1,.324,1.152,2.163,2.163,0,0,1-.906,1.816,3.8,3.8,0,0,1-2.352.684,4.257,4.257,0,0,1-1.8-.359,2.922,2.922,0,0,1-1.223-1,2.42,2.42,0,0,1-.441-1.395h1.445a1.5,1.5,0,0,0,.582,1.152,2.258,2.258,0,0,0,1.434.426,2.331,2.331,0,0,0,1.316-.332A1.02,1.02,0,0,0,116.734-2.242Zm5.289-8.258v2.047H123.6v1.117h-1.578v5.249a1.173,1.173,0,0,0,.211.763.888.888,0,0,0,.719.254,3.5,3.5,0,0,0,.688-.094V0a4.215,4.215,0,0,1-1.109.155A1.8,1.8,0,0,1,121.07-.43a2.517,2.517,0,0,1-.492-1.664V-7.336h-1.539V-8.453h1.539V-10.5Zm7.352,3.344a4.331,4.331,0,0,0-.711-.055A1.9,1.9,0,0,0,126.734-6V0h-1.445V-8.453H126.7l.023.977a2.251,2.251,0,0,1,2.016-1.133,1.477,1.477,0,0,1,.641.109ZM135.609,0a3.036,3.036,0,0,1-.2-.891A3.225,3.225,0,0,1,133,.156a2.984,2.984,0,0,1-2.051-.707,2.287,2.287,0,0,1-.8-1.793,2.39,2.39,0,0,1,1-2.051,4.733,4.733,0,0,1,2.824-.73h1.406v-.664A1.623,1.623,0,0,0,134.93-7a1.821,1.821,0,0,0-1.336-.449,2.107,2.107,0,0,0-1.3.391,1.151,1.151,0,0,0-.523.945H130.32a2,2,0,0,1,.449-1.223,3.066,3.066,0,0,1,1.219-.934,4.1,4.1,0,0,1,1.691-.344,3.342,3.342,0,0,1,2.289.73,2.635,2.635,0,0,1,.859,2.012v3.891a4.757,4.757,0,0,0,.3,1.852V0Zm-2.4-1.1a2.54,2.54,0,0,0,1.289-.352,2.127,2.127,0,0,0,.883-.914V-4.1H134.25q-2.656,0-2.656,1.555a1.316,1.316,0,0,0,.453,1.063A1.742,1.742,0,0,0,133.211-1.1Z" transform="translate(438 4190.822)" fill="#12263f"/>
      <path id="Trazado_725302" data-name="Trazado 725302" d="M5.977-3.2H3.914L3.289,0H2.172L2.8-3.2H.93V-4.273H3l.539-2.773H1.523V-8.125H3.75l.641-3.25H5.508l-.641,3.25H6.93l.641-3.25H8.7l-.641,3.25H9.648v1.078h-1.8L7.3-4.273H9.063V-3.2H7.1L6.477,0H5.352ZM4.117-4.273H6.18l.539-2.773H4.656ZM14.555-4.3a4.952,4.952,0,0,1,.922-3.129,2.915,2.915,0,0,1,2.414-1.184,2.932,2.932,0,0,1,2.352,1.016V-12h1.445V0H20.359l-.07-.906A2.943,2.943,0,0,1,17.875.156a2.887,2.887,0,0,1-2.395-1.2,5.008,5.008,0,0,1-.926-3.141ZM16-4.133a3.749,3.749,0,0,0,.594,2.25,1.92,1.92,0,0,0,1.641.813A2.108,2.108,0,0,0,20.242-2.3V-6.187a2.125,2.125,0,0,0-1.992-1.2,1.929,1.929,0,0,0-1.656.82A4.128,4.128,0,0,0,16-4.133ZM27.438.156a3.693,3.693,0,0,1-2.8-1.129,4.19,4.19,0,0,1-1.078-3.02v-.266a5.073,5.073,0,0,1,.48-2.246,3.748,3.748,0,0,1,1.344-1.547,3.378,3.378,0,0,1,1.871-.559A3.166,3.166,0,0,1,29.82-7.523a4.7,4.7,0,0,1,.914,3.109v.6H25.008a3,3,0,0,0,.73,2.02,2.3,2.3,0,0,0,1.777.77,2.517,2.517,0,0,0,1.3-.312,3.259,3.259,0,0,0,.93-.828l.883.688A3.55,3.55,0,0,1,27.438.156Zm-.18-7.578a1.928,1.928,0,0,0-1.469.637A3.1,3.1,0,0,0,25.055-5h4.234v-.109A2.753,2.753,0,0,0,28.7-6.816,1.815,1.815,0,0,0,27.258-7.422ZM37.727-8.453l.039.938a3.122,3.122,0,0,1,2.508-1.094A2.417,2.417,0,0,1,42.688-7.25a3.2,3.2,0,0,1,1.1-.984,3.242,3.242,0,0,1,1.6-.375q2.781,0,2.828,2.945V0H46.766V-5.578a1.941,1.941,0,0,0-.414-1.355,1.823,1.823,0,0,0-1.391-.449,1.917,1.917,0,0,0-1.336.48,1.949,1.949,0,0,0-.617,1.293V0H41.555V-5.539a1.613,1.613,0,0,0-1.8-1.844A1.934,1.934,0,0,0,37.8-6.172V0H36.359V-8.453ZM55.609-.836a3.07,3.07,0,0,1-2.477.992,2.628,2.628,0,0,1-2.059-.785,3.4,3.4,0,0,1-.715-2.324v-5.5H51.8v5.461q0,1.922,1.563,1.922A2.163,2.163,0,0,0,55.57-2.3V-8.453h1.445V0H55.641Zm7.109.992a3.693,3.693,0,0,1-2.8-1.129,4.19,4.19,0,0,1-1.078-3.02v-.266a5.073,5.073,0,0,1,.48-2.246,3.748,3.748,0,0,1,1.344-1.547,3.378,3.378,0,0,1,1.871-.559A3.166,3.166,0,0,1,65.1-7.523a4.7,4.7,0,0,1,.914,3.109v.6H60.289a3,3,0,0,0,.73,2.02,2.3,2.3,0,0,0,1.777.77,2.517,2.517,0,0,0,1.3-.312,3.259,3.259,0,0,0,.93-.828l.883.688A3.55,3.55,0,0,1,62.719.156Zm-.18-7.578a1.928,1.928,0,0,0-1.469.637A3.1,3.1,0,0,0,60.336-5H64.57v-.109a2.753,2.753,0,0,0-.594-1.707A1.815,1.815,0,0,0,62.539-7.422Zm10.07,5.18a1.064,1.064,0,0,0-.441-.91,4.249,4.249,0,0,0-1.539-.559,7.277,7.277,0,0,1-1.742-.562,2.479,2.479,0,0,1-.953-.781,1.869,1.869,0,0,1-.309-1.078A2.193,2.193,0,0,1,68.5-7.891a3.432,3.432,0,0,1,2.246-.719,3.532,3.532,0,0,1,2.332.742,2.357,2.357,0,0,1,.895,1.9H72.523a1.3,1.3,0,0,0-.5-1.023,1.888,1.888,0,0,0-1.27-.43,1.976,1.976,0,0,0-1.234.344,1.082,1.082,0,0,0-.445.9.877.877,0,0,0,.414.789,5.1,5.1,0,0,0,1.5.508,7.8,7.8,0,0,1,1.754.578,2.558,2.558,0,0,1,1,.809,1.988,1.988,0,0,1,.324,1.152,2.163,2.163,0,0,1-.906,1.816A3.8,3.8,0,0,1,70.8.156,4.257,4.257,0,0,1,69-.2a2.922,2.922,0,0,1-1.223-1A2.42,2.42,0,0,1,67.336-2.6h1.445a1.5,1.5,0,0,0,.582,1.152,2.258,2.258,0,0,0,1.434.426,2.331,2.331,0,0,0,1.316-.332A1.02,1.02,0,0,0,72.609-2.242ZM77.9-10.5v2.047h1.578v1.117H77.9v5.249a1.173,1.173,0,0,0,.211.763.888.888,0,0,0,.719.254,3.5,3.5,0,0,0,.688-.094V0a4.215,4.215,0,0,1-1.109.155A1.8,1.8,0,0,1,76.945-.43a2.517,2.517,0,0,1-.492-1.664V-7.336H74.914V-8.453h1.539V-10.5ZM85.25-7.156a4.331,4.331,0,0,0-.711-.055A1.9,1.9,0,0,0,82.609-6V0H81.164V-8.453H82.57l.023.977a2.251,2.251,0,0,1,2.016-1.133,1.477,1.477,0,0,1,.641.109ZM91.484,0a3.036,3.036,0,0,1-.2-.891A3.225,3.225,0,0,1,88.875.156a2.984,2.984,0,0,1-2.051-.707,2.288,2.288,0,0,1-.8-1.793,2.39,2.39,0,0,1,1-2.051,4.733,4.733,0,0,1,2.824-.73h1.406v-.664A1.623,1.623,0,0,0,90.8-7a1.821,1.821,0,0,0-1.336-.449,2.108,2.108,0,0,0-1.3.391,1.151,1.151,0,0,0-.523.945H86.2a2,2,0,0,1,.449-1.223,3.066,3.066,0,0,1,1.219-.934,4.1,4.1,0,0,1,1.691-.344,3.342,3.342,0,0,1,2.289.73A2.635,2.635,0,0,1,92.7-5.867v3.891A4.757,4.757,0,0,0,93-.125V0Zm-2.4-1.1a2.54,2.54,0,0,0,1.289-.352,2.127,2.127,0,0,0,.883-.914V-4.1H90.125q-2.656,0-2.656,1.555a1.316,1.316,0,0,0,.453,1.063A1.742,1.742,0,0,0,89.086-1.1Zm10.8-1.141a1.064,1.064,0,0,0-.441-.91,4.249,4.249,0,0,0-1.539-.559,7.277,7.277,0,0,1-1.742-.562,2.479,2.479,0,0,1-.953-.781,1.869,1.869,0,0,1-.309-1.078,2.193,2.193,0,0,1,.879-1.758,3.432,3.432,0,0,1,2.246-.719,3.532,3.532,0,0,1,2.332.742,2.357,2.357,0,0,1,.895,1.9H99.8a1.3,1.3,0,0,0-.5-1.023,1.888,1.888,0,0,0-1.27-.43,1.976,1.976,0,0,0-1.234.344,1.082,1.082,0,0,0-.445.9.877.877,0,0,0,.414.789,5.1,5.1,0,0,0,1.5.508,7.8,7.8,0,0,1,1.754.578,2.558,2.558,0,0,1,1,.809,1.988,1.988,0,0,1,.324,1.152,2.163,2.163,0,0,1-.906,1.816,3.8,3.8,0,0,1-2.352.684,4.257,4.257,0,0,1-1.8-.359,2.922,2.922,0,0,1-1.223-1A2.42,2.42,0,0,1,94.617-2.6h1.445a1.5,1.5,0,0,0,.582,1.152,2.258,2.258,0,0,0,1.434.426,2.331,2.331,0,0,0,1.316-.332A1.02,1.02,0,0,0,99.891-2.242Zm14.43-1.891a5.062,5.062,0,0,1-.883,3.109,2.829,2.829,0,0,1-2.391,1.18,3.1,3.1,0,0,1-2.422-.977V3.25H107.18v-11.7h1.32l.07.938a2.977,2.977,0,0,1,2.453-1.094,2.882,2.882,0,0,1,2.41,1.148,5.117,5.117,0,0,1,.887,3.2ZM112.875-4.3a3.735,3.735,0,0,0-.609-2.258,1.963,1.963,0,0,0-1.672-.828,2.125,2.125,0,0,0-1.969,1.164V-2.18a2.129,2.129,0,0,0,1.984,1.156,1.954,1.954,0,0,0,1.652-.824A4.077,4.077,0,0,0,112.875-4.3Zm2.9-.008a4.993,4.993,0,0,1,.488-2.234,3.643,3.643,0,0,1,1.359-1.531,3.7,3.7,0,0,1,1.988-.539,3.565,3.565,0,0,1,2.793,1.2,4.6,4.6,0,0,1,1.066,3.18v.1A5.036,5.036,0,0,1,123-1.918a3.589,3.589,0,0,1-1.352,1.527,3.743,3.743,0,0,1-2.02.547,3.556,3.556,0,0,1-2.785-1.2A4.575,4.575,0,0,1,115.773-4.2Zm1.453.172a3.616,3.616,0,0,0,.652,2.258,2.088,2.088,0,0,0,1.746.852,2.075,2.075,0,0,0,1.75-.863,3.955,3.955,0,0,0,.648-2.418,3.61,3.61,0,0,0-.66-2.254,2.1,2.1,0,0,0-1.754-.863,2.075,2.075,0,0,0-1.727.852A3.925,3.925,0,0,0,117.227-4.133Zm12.141-3.023a4.331,4.331,0,0,0-.711-.055A1.9,1.9,0,0,0,126.727-6V0h-1.445V-8.453h1.406l.023.977a2.251,2.251,0,0,1,2.016-1.133,1.477,1.477,0,0,1,.641.109Zm6,7.156V-7.336h-1.336V-8.453h1.336V-9.32a2.878,2.878,0,0,1,.727-2.1,2.745,2.745,0,0,1,2.055-.742,3.816,3.816,0,0,1,.992.132l-.078,1.165a4.151,4.151,0,0,0-.781-.07,1.41,1.41,0,0,0-1.086.411,1.669,1.669,0,0,0-.383,1.18v.893h1.8v1.117h-1.8V0Zm4.461-4.3a4.993,4.993,0,0,1,.488-2.234,3.642,3.642,0,0,1,1.359-1.531,3.7,3.7,0,0,1,1.988-.539,3.565,3.565,0,0,1,2.793,1.2,4.6,4.6,0,0,1,1.066,3.18v.1a5.036,5.036,0,0,1-.473,2.215A3.589,3.589,0,0,1,145.7-.391a3.743,3.743,0,0,1-2.02.547,3.556,3.556,0,0,1-2.785-1.2A4.575,4.575,0,0,1,139.828-4.2Zm1.453.172a3.616,3.616,0,0,0,.652,2.258,2.088,2.088,0,0,0,1.746.852,2.075,2.075,0,0,0,1.75-.863,3.954,3.954,0,0,0,.648-2.418,3.61,3.61,0,0,0-.66-2.254,2.1,2.1,0,0,0-1.754-.863,2.075,2.075,0,0,0-1.727.852A3.925,3.925,0,0,0,141.281-4.133Zm11.445,3.109a2.082,2.082,0,0,0,1.352-.469,1.649,1.649,0,0,0,.641-1.172h1.367a2.621,2.621,0,0,1-.5,1.383,3.293,3.293,0,0,1-1.23,1.047,3.55,3.55,0,0,1-1.629.391A3.482,3.482,0,0,1,149.98-1a4.59,4.59,0,0,1-1.02-3.152v-.242a5.089,5.089,0,0,1,.453-2.2,3.451,3.451,0,0,1,1.3-1.492,3.7,3.7,0,0,1,2-.531,3.39,3.39,0,0,1,2.363.852,3.043,3.043,0,0,1,1,2.211h-1.367a1.992,1.992,0,0,0-.621-1.348,1.932,1.932,0,0,0-1.379-.527,2.023,2.023,0,0,0-1.707.793,3.724,3.724,0,0,0-.605,2.293v.273a3.65,3.65,0,0,0,.6,2.25A2.033,2.033,0,0,0,152.727-1.023Zm4.6-3.281a4.993,4.993,0,0,1,.488-2.234,3.642,3.642,0,0,1,1.359-1.531,3.7,3.7,0,0,1,1.988-.539,3.565,3.565,0,0,1,2.793,1.2,4.6,4.6,0,0,1,1.066,3.18v.1a5.036,5.036,0,0,1-.473,2.215A3.589,3.589,0,0,1,163.2-.391a3.743,3.743,0,0,1-2.02.547,3.556,3.556,0,0,1-2.785-1.2A4.575,4.575,0,0,1,157.328-4.2Zm1.453.172a3.616,3.616,0,0,0,.652,2.258,2.088,2.088,0,0,0,1.746.852,2.075,2.075,0,0,0,1.75-.863,3.954,3.954,0,0,0,.648-2.418,3.61,3.61,0,0,0-.66-2.254,2.1,2.1,0,0,0-1.754-.863,2.075,2.075,0,0,0-1.727.852A3.925,3.925,0,0,0,158.781-4.133Z" transform="translate(438 4230.822)" fill="#12263f"/>
      <path id="Trazado_725301" data-name="Trazado 725301" d="M10.063,0H8.555V-5.258H2.82V0H1.32V-11.375h1.5v4.891H8.555v-4.891h1.508Zm2.055-4.3a4.993,4.993,0,0,1,.488-2.234A3.643,3.643,0,0,1,13.965-8.07a3.7,3.7,0,0,1,1.988-.539,3.565,3.565,0,0,1,2.793,1.2,4.6,4.6,0,0,1,1.066,3.18v.1a5.036,5.036,0,0,1-.473,2.215A3.589,3.589,0,0,1,17.988-.391a3.743,3.743,0,0,1-2.02.547,3.556,3.556,0,0,1-2.785-1.2A4.575,4.575,0,0,1,12.117-4.2Zm1.453.172a3.616,3.616,0,0,0,.652,2.258,2.088,2.088,0,0,0,1.746.852,2.075,2.075,0,0,0,1.75-.863A3.955,3.955,0,0,0,18.367-4.3a3.61,3.61,0,0,0-.66-2.254,2.1,2.1,0,0,0-1.754-.863,2.075,2.075,0,0,0-1.727.852A3.925,3.925,0,0,0,13.57-4.133ZM25.711-7.156A4.331,4.331,0,0,0,25-7.211,1.9,1.9,0,0,0,23.07-6V0H21.625V-8.453h1.406l.023.977A2.251,2.251,0,0,1,25.07-8.609a1.477,1.477,0,0,1,.641.109ZM31.945,0a3.036,3.036,0,0,1-.2-.891A3.225,3.225,0,0,1,29.336.156a2.984,2.984,0,0,1-2.051-.707,2.287,2.287,0,0,1-.8-1.793,2.39,2.39,0,0,1,1-2.051,4.733,4.733,0,0,1,2.824-.73h1.406v-.664A1.623,1.623,0,0,0,31.266-7a1.821,1.821,0,0,0-1.336-.449,2.108,2.108,0,0,0-1.3.391,1.151,1.151,0,0,0-.523.945H26.656a2,2,0,0,1,.449-1.223,3.066,3.066,0,0,1,1.219-.934,4.1,4.1,0,0,1,1.691-.344,3.342,3.342,0,0,1,2.289.73,2.635,2.635,0,0,1,.859,2.012v3.891a4.757,4.757,0,0,0,.3,1.852V0Zm-2.4-1.1a2.54,2.54,0,0,0,1.289-.352,2.127,2.127,0,0,0,.883-.914V-4.1H30.586q-2.656,0-2.656,1.555a1.316,1.316,0,0,0,.453,1.063A1.742,1.742,0,0,0,29.547-1.1Z" transform="translate(285 4232)" fill="#12263f"/>
    </g>
  </g>
</svg>
