<svg xmlns="http://www.w3.org/2000/svg" width="167" height="167" viewBox="0 0 167 167">
  <g id="Grupo_959092" data-name="Grupo 959092" transform="translate(-1027 -5364)">
    <circle id="Elipse_157" data-name="Elipse 157" cx="83.5" cy="83.5" r="83.5" transform="translate(1027 5364)" fill="#fdf8e4"/>
    <g id="Grupo_957410" data-name="Grupo 957410" transform="translate(-13 -1730)">
      <circle id="Elipse_5510" data-name="Elipse 5510" cx="57" cy="57" r="57" transform="translate(1067 7121)" fill="#d9e2f4"/>
      <g id="audifonos-inalambricos" transform="translate(1090.432 7150.94)">
        <path id="Trazado_721999" data-name="Trazado 721999" d="M70.89,92.041v-1.6a26.44,26.44,0,1,0-52.879,0v1.6a8.82,8.82,0,0,0-7.344,8.681v4.407a8.819,8.819,0,0,0,7.565,8.714,4.412,4.412,0,0,0,4.186,3.037h2.938a4.411,4.411,0,0,0,4.407-4.407v-19.1a4.411,4.411,0,0,0-4.407-4.407H22.418a4.378,4.378,0,0,0-1.437.245,23.5,23.5,0,0,1,46.94,0,4.377,4.377,0,0,0-1.437-.245H63.546a4.411,4.411,0,0,0-4.407,4.407v19.1a4.411,4.411,0,0,0,4.407,4.407h2.938a4.412,4.412,0,0,0,4.186-3.037,8.819,8.819,0,0,0,7.565-8.714v-4.407a8.82,8.82,0,0,0-7.345-8.681ZM13.6,105.128v-4.407a5.88,5.88,0,0,1,4.407-5.683V110.81A5.88,5.88,0,0,1,13.6,105.128Zm8.813-13.22h2.938a1.471,1.471,0,0,1,1.469,1.469v19.1a1.471,1.471,0,0,1-1.469,1.469H22.418a1.471,1.471,0,0,1-1.469-1.469v-19.1A1.471,1.471,0,0,1,22.418,91.908Zm44.066,22.033H63.546a1.471,1.471,0,0,1-1.469-1.469v-19.1a1.471,1.471,0,0,1,1.469-1.469h2.938a1.471,1.471,0,0,1,1.469,1.469v19.1A1.471,1.471,0,0,1,66.484,113.941Zm8.813-8.813a5.88,5.88,0,0,1-4.407,5.682V95.039a5.88,5.88,0,0,1,4.407,5.682Z" transform="translate(-10.667 -64)" fill="#0540b7"/>
      </g>
    </g>
  </g>
</svg>
