<svg xmlns="http://www.w3.org/2000/svg" xmlns:xlink="http://www.w3.org/1999/xlink" width="505" height="198.656" viewBox="0 0 505 198.656">
  <defs>
    <clipPath id="clip-path">
      <path id="Trazado_725205" data-name="Trazado 725205" d="M1108.157,909.017h-99.915l-11.316-40.9-.867-3.135-.739-2.674-1.737-6.272h98.477l1.9,6.272.813,2.674.954,3.135Z" transform="translate(-993.582 -856.039)" fill="none"/>
    </clipPath>
  </defs>
  <g id="Grupo_959165" data-name="Grupo 959165" transform="translate(-178.682 -454.64)">
    <path id="Trazado_725034" data-name="Trazado 725034" d="M722.1,652.712s52.484-54.89,8.876-114.316c-38.692-52.727-83.8-49.123-116.9-27.726-14.1,9.113-65.116,50.519-99.707-3.132-47.173-73.166-200.316-78.187-170.5,34.381,14.428,54.475-57.755,56.455-28.029,110.908Z" transform="translate(-107.019)" fill="#ebf3fa"/>
    <g id="girl_2" data-name="girl 2" transform="translate(226.016 554.97)">
      <path id="Trazado_725035" data-name="Trazado 725035" d="M502.919,1159.611s-14.728,6.417-17.4,6.3-19.147-5.017-19.147-5.017l.419,2.834s12.713,7.312,17.158,7.726c4.376.409,19.338-3.927,20.782-4.842S507.117,1160.537,502.919,1159.611Z" transform="translate(-463.018 -1135.737)" fill="#ed985f"/>
      <path id="Trazado_725036" data-name="Trazado 725036" d="M649.324,1024.373s5.433-1.032,8.139.944c4.9,3.58,5.165,15.92,7,17.759s6.266,1.054,6.66,10.566-1.763,10.308.806,14.554-1.087,8.5-1.087,8.5,1.5-2.344.856-4.036c0,0-.623,3.734-3,4.609s-2.723,1.517-3.1,2.8c0,0-20.237-10.37-20.259-17.725s-3.982-14.641-2.038-17.828a7.053,7.053,0,0,0-.972,2.88,3.792,3.792,0,0,1,.856-4.317c2.023-2.081-2.373-6.389-1.722-11.377C641.914,1028.274,644.317,1024.522,649.324,1024.373Z" transform="translate(-607.211 -1024.104)" fill="#233862"/>
      <path id="Trazado_725037" data-name="Trazado 725037" d="M663.653,1127.152a14.173,14.173,0,0,0,4.951,2.107c7.632,1.763,10.557-4.687,11.655-9.115a6.552,6.552,0,0,0-2.586-.794c-.552-.065-1.132-.108-1.612-.132-.857-.656-2.134-3.343-2.416-7.514l-.359.1-6.015,1.646s.276,1.912.411,3.719a7.152,7.152,0,0,1-.147,3.1c-.469.1-.751.168-.751.168a.014.014,0,0,1,0,.006A38.748,38.748,0,0,0,663.653,1127.152Z" transform="translate(-625.542 -1096.27)" fill="#ffb27d"/>
      <path id="Trazado_725038" data-name="Trazado 725038" d="M684.189,1113.9s.277,1.91.41,3.719c3.408-.341,4.989-3.586,5.6-5.365Z" transform="translate(-642.46 -1096.727)" fill="#ed985f"/>
      <path id="Trazado_725039" data-name="Trazado 725039" d="M662.662,1066.849s8.089-.446,7.733-5.479.449-8.48-4.73-8.408-6.046,2.063-6.336,3.772S660.549,1066.835,662.662,1066.849Z" transform="translate(-621.951 -1047.877)" fill="#ffb27d"/>
      <path id="Trazado_725040" data-name="Trazado 725040" d="M654.068,1049.069c1.14-1.6,2.108-1.339,2.669-.922a5.661,5.661,0,0,1,7.345.641,9.639,9.639,0,0,0,3.552,5.454s-1.407,1.015-4.865.386a5.784,5.784,0,0,1-2.886-1.7,18.9,18.9,0,0,0,3.528,3.729c-4.189-1.584-6.222-7.107-6.427-7.691a6.348,6.348,0,0,0-1.593,2.474c-.311,1.31-1.652,3.359-2.427,3.325A8.371,8.371,0,0,1,654.068,1049.069Z" transform="translate(-616.651 -1043.027)" fill="#233862"/>
      <path id="Trazado_725041" data-name="Trazado 725041" d="M659.48,1174.771c.73-3.734,3.112-18.653.73-23.453-.855-1.725-4.212-1.88-7.894-1.729-1.146.74-5.512,3.535-7.306,3.186l-.1-.024c-.844-.211-1.163-.8-.459-1.316a16.071,16.071,0,0,0-4.089.25,30.255,30.255,0,0,0-4.73,2.026s1.738,3.139,4.3,4.223c-.436,3.9.212,5.617,4.255,14.619a17.114,17.114,0,0,1-.461,14.46s20.112,16.171,20.224,7.937C664.036,1188.753,658.547,1179.544,659.48,1174.771Z" transform="translate(-602.459 -1127.444)" fill="#b5453c"/>
      <path id="Trazado_725042" data-name="Trazado 725042" d="M587.937,1255.166a3.74,3.74,0,0,1-2.69-1.637q-.145-.218-.311-.469c-2.289-3.466-3.18-14.079-8.33-25.386-1.254-2.753-5.757-3.248-6.984-6.36,0,0-3.022-10.086,5.784-10.384s23.582,28.064,23.815,31.039C599.448,1244.85,605.043,1257.1,587.937,1255.166Z" transform="translate(-547.666 -1178.012)" fill="#dd6d22"/>
      <path id="Trazado_725043" data-name="Trazado 725043" d="M477.275,1430.3h12.533a5.209,5.209,0,0,0-.354-3.359,2.416,2.416,0,0,1,.09-2.885,4.875,4.875,0,0,1-2.111.4,4.416,4.416,0,0,1-1.864-.656,45.114,45.114,0,0,1-3.571,3.751C481.179,1428.138,477.527,1427.928,477.275,1430.3Z" transform="translate(-472.001 -1353.378)" fill="#9e332e"/>
      <path id="Trazado_725044" data-name="Trazado 725044" d="M674.88,1181.806s1.631,14.84-8.948,17.95-13.582-13.655-5.04-14.86A82.252,82.252,0,0,0,674.88,1181.806Z" transform="translate(-619.179 -1154.021)" fill="#9e332e"/>
      <path id="Trazado_725045" data-name="Trazado 725045" d="M527.32,1211.984c-.755,5.658-3.7,23.515-8.9,32.227-1.676,2.809,4.223,4.383,4.254,4.375a10.034,10.034,0,0,0,2.717-2.016c4.221-3.8,12.788-14.574,12.788-23.209,0-4.21.074-12.251-2.988-14.295C533.306,1207.808,527.62,1209.737,527.32,1211.984Z" transform="translate(-505.65 -1176.151)" fill="#ed7d2b"/>
      <path id="Trazado_725046" data-name="Trazado 725046" d="M630.409,1251.927s-.464-.646-1.274-1.874a44.388,44.388,0,0,1-3.325-8.015c-1.359-3.866-2.972-8.622-4.987-13.571-.622-1.527-1.282-3.073-1.985-4.617-1.254-2.753-4.7-2.372-5.932-5.484,0,0-4.79-10.788,4.015-11.085s25.537,28.858,26.5,31.682C644.473,1242.052,649.608,1254.888,630.409,1251.927Z" transform="translate(-582.665 -1175.005)" fill="#f99746"/>
      <path id="Trazado_725047" data-name="Trazado 725047" d="M529.493,1430.3h12.533a5.209,5.209,0,0,0-.354-3.359,2.415,2.415,0,0,1,.09-2.885,4.874,4.874,0,0,1-2.111.4,4.415,4.415,0,0,1-1.864-.656,45.144,45.144,0,0,1-3.571,3.751C533.4,1428.138,529.745,1427.928,529.493,1430.3Z" transform="translate(-515.019 -1353.378)" fill="#b5453c"/>
      <path id="Trazado_725048" data-name="Trazado 725048" d="M668.912,1302.067c-1.359-3.866-2.972-8.622-4.987-13.571.526-3.749,1.662-7.029,3.571-8.351C667.5,1280.145,672.127,1294.493,668.912,1302.067Z" transform="translate(-625.766 -1235.035)" fill="#ed7d2b"/>
      <path id="Trazado_725049" data-name="Trazado 725049" d="M577.653,1212.632c-.755,5.658-1.818,23.916-7.016,32.628-1.676,2.809,4.223,4.383,4.255,4.375a10.029,10.029,0,0,0,2.717-2.016c4.221-3.8,12.788-14.574,12.788-23.209,0-4.21-4.941-11.914-8-13.957A3.079,3.079,0,0,0,577.653,1212.632Z" transform="translate(-548.667 -1177.199)" fill="#f99746"/>
      <g id="Grupo_959118" data-name="Grupo 959118" transform="translate(0 16.498)">
        <path id="Trazado_725050" data-name="Trazado 725050" d="M454.411,1119.111l12.835-1.363a.828.828,0,0,1,.862.529l4.592,12.066a.828.828,0,0,1-.741,1.122l-12.736.514a.829.829,0,0,1-.8-.508l-4.691-11.217A.828.828,0,0,1,454.411,1119.111Z" transform="translate(-452.555 -1117.743)" fill="#9e332e"/>
        <path id="Trazado_725051" data-name="Trazado 725051" d="M448.083,1119.773l12.835-1.363a.828.828,0,0,1,.862.529l4.592,12.067a.828.828,0,0,1-.741,1.122l-12.736.514a.829.829,0,0,1-.8-.508l-4.691-11.217A.829.829,0,0,1,448.083,1119.773Z" transform="translate(-447.341 -1118.289)" fill="#b5453c"/>
        <path id="Trazado_725052" data-name="Trazado 725052" d="M491.695,1154.5a.528.528,0,0,1,.5-.78,1.234,1.234,0,0,1,1.064.78.528.528,0,0,1-.5.78A1.233,1.233,0,0,1,491.695,1154.5Z" transform="translate(-483.839 -1147.382)" fill="#9e332e"/>
        <path id="Trazado_725053" data-name="Trazado 725053" d="M453.615,1130.85a.259.259,0,0,1,.244-.383.606.606,0,0,1,.523.383.259.259,0,0,1-.244.383A.606.606,0,0,1,453.615,1130.85Z" transform="translate(-452.489 -1128.225)" fill="#9e332e"/>
      </g>
      <path id="Trazado_725054" data-name="Trazado 725054" d="M543.883,1150.845s-17.788,6.551-20.461,6.417c-1.728-.087-16.087-5.134-16.087-5.134a5.417,5.417,0,0,0-2.223-1.981s-2.041-.936-2.625-1.111-.467,0-.292.556a2.012,2.012,0,0,0,.71.793c-.981.27-1.95.635-2.4.722-.758.146-2.917.846-2.275,1.9s3.617,1.284,4.9,1.05a5.948,5.948,0,0,1,2.917.513s13.976,8.983,17.819,8.939c7.586-.088,20.386-4.744,21.83-5.66S548.081,1151.772,543.883,1150.845Z" transform="translate(-489.166 -1126.971)" fill="#ffb27d"/>
      <path id="Trazado_725055" data-name="Trazado 725055" d="M458.826,1150.9s1.287-2.036,1.708-2.119c1.284-.253,1.284,1.437,1.012,2.528-.292,1.17-1.281,2.274-1.555,2.177A2.987,2.987,0,0,1,458.826,1150.9Z" transform="translate(-456.762 -1126.793)" fill="#ffb27d"/>
      <path id="Trazado_725056" data-name="Trazado 725056" d="M458.631,1163.246a3.408,3.408,0,0,0,1.757,3.476Z" transform="translate(-456.617 -1138.731)" fill="#ffb27d"/>
      <path id="Trazado_725057" data-name="Trazado 725057" d="M669.819,1114.508a7.474,7.474,0,0,1,2.916-.128s-.114.839-1.7.922A1.265,1.265,0,0,1,669.819,1114.508Z" transform="translate(-630.622 -1098.43)" fill="#fff"/>
      <path id="Trazado_725058" data-name="Trazado 725058" d="M705.894,1160.911a9.773,9.773,0,0,0,7.055,6.182s9.023-2.78,4.53-8.927C717.479,1158.166,713.037,1154.866,705.894,1160.911Z" transform="translate(-660.341 -1133.806)" fill="#b5453c"/>
    </g>
    <g id="Grupo_959126" data-name="Grupo 959126" transform="translate(250.309 472.268)">
      <g id="Grupo_959125" data-name="Grupo 959125" transform="translate(0)">
        <g id="Grupo_959119" data-name="Grupo 959119" transform="translate(14.361)">
          <path id="Trazado_725059" data-name="Trazado 725059" d="M669.329,599.237c0-.509.011-1.029.023-1.538a42.432,42.432,0,0,1,1.922-11.128c-.95.034-1.866.09-2.748.147a43.318,43.318,0,0,0-1.674,9.409c-.068.95-.1,1.9-.113,2.861v.249c0,.961.034,1.923.091,2.872.871.407,1.764.792,2.7,1.176-.09-.9-.158-1.821-.181-2.737C669.34,600.108,669.329,599.678,669.329,599.237ZM752.334,581.9a44.614,44.614,0,0,0-58.387-23.714c-.656.283-1.312.577-1.945.882-1.052.509-2.092,1.052-3.087,1.64a43.8,43.8,0,0,0-9.126,7.034c-.577.565-1.131,1.154-1.674,1.764-.678.746-1.323,1.527-1.945,2.318a44.871,44.871,0,0,0-2.759,3.947c-.475.758-.916,1.538-1.346,2.318-.667,1.233-1.267,2.5-1.821,3.811-.418.984-.792,1.968-1.131,2.974-.215.611-.407,1.221-.588,1.843a43.318,43.318,0,0,0-1.674,9.409c-.068.95-.1,1.9-.113,2.861v.249c0,.961.034,1.923.091,2.872.045.78.124,1.561.215,2.341a43.565,43.565,0,0,0,3.2,12.123,44.558,44.558,0,0,0,81.909.418c.056-.136.124-.283.181-.418.249-.588.486-1.176.7-1.764a44.626,44.626,0,0,0-.7-32.908Zm-2.352,33.609c-.011.023-.011.034-.023.057-.283.656-.577,1.312-.893,1.956a41.992,41.992,0,0,1-76.446-1.956,41.246,41.246,0,0,1-2.8-10c-.124-.758-.215-1.515-.283-2.284-.09-.9-.158-1.821-.181-2.737-.011-.441-.023-.871-.023-1.312,0-.509.011-1.029.023-1.538a42.432,42.432,0,0,1,1.922-11.128c.192-.611.4-1.21.622-1.809.226-.622.464-1.244.724-1.855.373-.859.758-1.708,1.176-2.533.4-.792.814-1.56,1.255-2.318a42.138,42.138,0,0,1,4.229-5.96c.656-.769,1.334-1.516,2.047-2.239l.294-.294a41.975,41.975,0,0,1,10.811-7.826c.826-.418,1.662-.8,2.522-1.165.226-.1.464-.192.69-.283a41.99,41.99,0,0,1,54.338,55.22Z" transform="translate(-666.739 -554.692)" fill="#adcbf9"/>
        </g>
        <g id="Grupo_959120" data-name="Grupo 959120" transform="translate(0 30.07)">
          <path id="Trazado_725060" data-name="Trazado 725060" d="M693.474,748.818l-3.449-.079c1.108,1.436,1.357,2.759.667,3.879-.69,1.142-2.341,2.081-4.806,2.793a27.972,27.972,0,0,1-3.053.7,68.677,68.677,0,0,1-11.184.9c-11.128.136-24.947-1.38-38.9-4.241a187.468,187.468,0,0,1-25.354-6.943c-1.108-.4-2.182-.8-3.212-1.21-.611-.238-1.21-.486-1.8-.735-.939-.385-1.832-.769-2.7-1.176-.611-.272-1.2-.554-1.776-.837-8.018-3.913-11.682-7.69-10.042-10.37,1.323-2.171,6.141-3.641,13.514-4.184.882-.057,1.8-.113,2.748-.147.192-.611.4-1.21.622-1.809-.961.023-1.889.068-2.782.113-9.3.554-14.271,2.19-16.081,5.153-2.1,3.449.769,8.078,9.963,12.579,1.267.622,2.624,1.233,4.048,1.843.893.373,1.821.746,2.771,1.12l1.323.509c1.085.407,2.194.814,3.336,1.21a197.763,197.763,0,0,0,24.4,6.559,206.927,206.927,0,0,0,35.532,4.32c1.561.045,3.076.045,4.546.034a80.881,80.881,0,0,0,10.11-.678c1.1-.147,2.126-.328,3.088-.532,4.535-.939,7.52-2.409,8.708-4.354A4.012,4.012,0,0,0,693.474,748.818Z" transform="translate(-585.229 -725.364)" fill="#adcbf9"/>
        </g>
        <g id="Grupo_959121" data-name="Grupo 959121" transform="translate(14.658 2.127)">
          <path id="Trazado_725061" data-name="Trazado 725061" d="M742.976,617.056c-.044.081-.09.16-.139.238-1.364,2.165-4.413,3.284-8.693,3.283a35.312,35.312,0,0,1-6.939-.775c-8.422-1.708-18.377-6-28.032-12.083-9.491-5.98-17.543-12.969-22.73-19.72-.091-.117-.179-.235-.267-.351q-.738-.978-1.377-1.928c-3.783-5.617-4.921-10.379-3.108-13.255,1.364-2.166,4.413-3.283,8.693-3.283a35.316,35.316,0,0,1,6.939.776q1.459.3,2.976.7,1.727.45,3.518,1.032,1.241-.626,2.529-1.17c.228-.1.455-.191.685-.282q-1.848-.67-3.645-1.217c-1.916-.585-3.782-1.064-5.583-1.429-9.089-1.844-15.539-.57-18.159,3.589-2.494,3.956-1.136,9.912,3.814,16.858q.379.533.786,1.072.455.6.94,1.209c5.366,6.707,13.365,13.57,22.7,19.451,9.9,6.235,20.139,10.642,28.841,12.408a37.611,37.611,0,0,0,7.413.824c5.19,0,8.909-1.5,10.745-4.414a7.617,7.617,0,0,0,.739-1.527Z" transform="translate(-668.425 -566.762)" fill="#adcbf9"/>
        </g>
        <g id="Grupo_959122" data-name="Grupo 959122" transform="translate(37.39 2.902)">
          <path id="Trazado_725062" data-name="Trazado 725062" d="M803.247,653.644a4.415,4.415,0,0,1-1.511-.261c-7.642-2.772-4.109-25.38,3.1-45.246,6.664-18.373,17.43-36.972,25.117-36.972a4.42,4.42,0,0,1,1.512.26c4.352,1.578,4.617,9.366,4.073,15.622-.727,8.36-3.273,18.881-7.17,29.624C821.7,635.045,810.933,653.644,803.247,653.644Zm26.7-80.118c-4.835,0-14.964,13.541-22.9,35.416-3.828,10.555-6.327,20.863-7.037,29.024-.763,8.779.8,12.574,2.527,13.2a2.033,2.033,0,0,0,.707.119c4.835,0,14.964-13.541,22.9-35.416,3.828-10.556,6.327-20.863,7.037-29.024.763-8.779-.8-12.574-2.527-13.2A2.039,2.039,0,0,0,829.949,573.526Z" transform="translate(-797.448 -571.166)" fill="#adcbf9"/>
        </g>
        <g id="Grupo_959123" data-name="Grupo 959123" transform="translate(31.83 8.998)">
          <path id="Trazado_725063" data-name="Trazado 725063" d="M822.837,633.211a103.125,103.125,0,0,1-23.235-2.421,59.173,59.173,0,0,1-21.223-9.144c-9.943-7.124-12.387-14.87-12.486-15.2l2.257-.689c.023.073,2.385,7.427,11.767,14.084,8.72,6.187,25.447,13.021,55.616,10.443l.2,2.351Q829.039,633.211,822.837,633.211Z" transform="translate(-765.893 -605.761)" fill="#adcbf9"/>
        </g>
        <g id="Grupo_959124" data-name="Grupo 959124" transform="translate(17.231 57.793)">
          <path id="Trazado_725064" data-name="Trazado 725064" d="M746.2,907.722a117.063,117.063,0,0,0-43.576-20.24,84.268,84.268,0,0,0-19.509-2.4l-.086-2.358c.328-.013,8.181-.263,20.119,2.454a119.444,119.444,0,0,1,44.462,20.647Z" transform="translate(-683.032 -882.717)" fill="#adcbf9"/>
        </g>
      </g>
    </g>
    <g id="Grupo_959127" data-name="Grupo 959127" transform="translate(473.344 633.955)">
      <path id="Trazado_725065" data-name="Trazado 725065" d="M2422.685,1481.161a9.316,9.316,0,0,1-9.315,9.315h-75.884v-18.063h76.453a8.733,8.733,0,0,1,8.746,8.748Z" transform="translate(-2251.801 -1472.413)" fill="#f99746"/>
      <path id="Trazado_725066" data-name="Trazado 725066" d="M1971.6,1481.344a9.1,9.1,0,0,1-2.646,6.43l-.028.028a9.1,9.1,0,0,1-6.456,2.674h-86.217v-18.063h86.42a8.931,8.931,0,0,1,8.928,8.931Z" transform="translate(-1871.833 -1472.413)" fill="#fcecdb"/>
      <path id="Trazado_725067" data-name="Trazado 725067" d="M1958.087,1560.95a1.351,1.351,0,0,1-1.35,1.352H1852.5a1.351,1.351,0,1,1,0-2.7h104.234A1.351,1.351,0,0,1,1958.087,1560.95Z" transform="translate(-1851.15 -1544.239)" fill="#ed7d2b"/>
      <path id="Trazado_725068" data-name="Trazado 725068" d="M1958.087,1473.763a1.351,1.351,0,0,1-1.35,1.352H1852.5a1.351,1.351,0,1,1,0-2.7h104.234A1.351,1.351,0,0,1,1958.087,1473.763Z" transform="translate(-1851.15 -1472.413)" fill="#ed7d2b"/>
      <path id="Trazado_725069" data-name="Trazado 725069" d="M1876.261,1523.675l11.56.3-11.56.183Z" transform="translate(-1871.837 -1514.643)" fill="#f4d2b8"/>
      <path id="Trazado_725070" data-name="Trazado 725070" d="M1876.261,1539.76l27.5.3-27.5.183Z" transform="translate(-1871.837 -1527.894)" fill="#f4d2b8"/>
      <path id="Trazado_725071" data-name="Trazado 725071" d="M2415.347,1472.525l-24.95,17.951h-52.911v-18.063h76.453A8.83,8.83,0,0,1,2415.347,1472.525Z" transform="translate(-2251.801 -1472.413)" fill="#ed7d2b"/>
    </g>
    <g id="Grupo_959129" data-name="Grupo 959129" transform="translate(224.43 630.779)">
      <g id="Grupo_959128" data-name="Grupo 959128" transform="translate(0)">
        <path id="Rectángulo_340313" data-name="Rectángulo 340313" d="M0,0H51.21A10.286,10.286,0,0,1,61.5,10.286v0A10.953,10.953,0,0,1,50.542,21.239H0a0,0,0,0,1,0,0V0A0,0,0,0,1,0,0Z" transform="translate(61.844)" fill="#86d1cd"/>
        <path id="Rectángulo_340314" data-name="Rectángulo 340314" d="M0,0H58.319a10.5,10.5,0,0,1,10.5,10.5v0A10.739,10.739,0,0,1,58.081,21.239H0a0,0,0,0,1,0,0V0A0,0,0,0,1,0,0Z" transform="translate(3.192)" fill="#fcecdb"/>
        <rect id="Rectángulo_340315" data-name="Rectángulo 340315" width="77.184" height="3.176" rx="1.588" transform="translate(0 18.062)" fill="#86d1cd"/>
        <path id="Rectángulo_340316" data-name="Rectángulo 340316" d="M1.588,0H75.6a1.588,1.588,0,0,1,1.588,1.588v0A1.588,1.588,0,0,1,75.6,3.176H1.588A1.588,1.588,0,0,1,0,1.588v0A1.588,1.588,0,0,1,1.588,0Z" fill="#86d1cd"/>
      </g>
      <path id="Trazado_725072" data-name="Trazado 725072" d="M456.462,1514.66l8.344.357-8.344.215Z" transform="translate(-453.269 -1504.041)" fill="#f4d2b8"/>
      <path id="Trazado_725073" data-name="Trazado 725073" d="M456.462,1533.574l19.85.357-19.85.215Z" transform="translate(-453.269 -1519.622)" fill="#f4d2b8"/>
    </g>
    <g id="Grupo_959132" data-name="Grupo 959132" transform="translate(283.746 504.168)">
      <g id="Grupo_959130" data-name="Grupo 959130">
        <path id="Trazado_725074" data-name="Trazado 725074" d="M1215.987,1016.2l-7.748,92.12s-.812,5.584,3.342,5.594c6.83.016,33.992,0,33.992,0s-5.14-1.162-5.078-3.778c.073-3.083,9.055-94.808,9.055-94.808Z" transform="translate(-1131.858 -966.075)" fill="#d86713"/>
        <path id="Trazado_725075" data-name="Trazado 725075" d="M1258.217,1104.431c-1.343,0-27.287.085-33.938,0-2.9-.036-3.407-2.577-3.431-4.222a8.234,8.234,0,0,1,.088-1.371l.2-2.394.514-6.1.453-5.392.583-6.928.491-5.848,5.505-65.458,33.564-.871s-3.783,38.386-6.459,66.329c-.3,3.113-.583,6.1-.846,8.885q-.128,1.335-.247,2.606c-.248,2.644-.475,5.071-.672,7.215-.1,1.13-.2,2.179-.287,3.141-.341,3.768-.542,6.175-.544,6.632a3.875,3.875,0,0,0,.065.746C1253.81,1104.335,1257.713,1104.431,1258.217,1104.431Z" transform="translate(-1142.298 -958.26)" fill="#ee9849"/>
        <path id="Trazado_725076" data-name="Trazado 725076" d="M789.856,735.758l18.872,75.8,2.584,10.382L820.1,857.25H983.4L951,735.758Z" transform="translate(-787.24 -735.758)" fill="#f1a34f"/>
        <path id="Trazado_725077" data-name="Trazado 725077" d="M777.625,735.757l-2.615.872,29.384,123.258,3.477-2.637Z" transform="translate(-775.01 -735.757)" fill="#ee9849"/>
        <path id="Trazado_725078" data-name="Trazado 725078" d="M941.788,1427.971h162.289l4.481-2.637H945.265Z" transform="translate(-912.404 -1303.842)" fill="#d86713"/>
        <rect id="Rectángulo_340317" data-name="Rectángulo 340317" width="35.138" height="1.67" transform="translate(121.513 147.878) rotate(180)" fill="#f1a34f"/>
        <path id="Trazado_725079" data-name="Trazado 725079" d="M974.263,834.863l-26.5-97.5H788.373v-1.606h161.4l26.408,98.889Z" transform="translate(-786.019 -735.757)" fill="#f1a34f"/>
        <path id="Trazado_725080" data-name="Trazado 725080" d="M1258.638,1440.3l-.181,1.276-33.046,6.676.453-5.391.216-2.561Z" transform="translate(-1146.057 -1316.168)" fill="#d86713"/>
        <path id="Trazado_725081" data-name="Trazado 725081" d="M1258.222,1516.733c-1.343,0-27.287.085-33.938,0-2.9-.036-3.407-2.577-3.431-4.222l32.89-6.188c-.341,3.768-.542,6.175-.544,6.632a3.883,3.883,0,0,0,.065.746C1253.815,1516.637,1257.718,1516.733,1258.222,1516.733Z" transform="translate(-1142.303 -1370.562)" fill="#e78b37"/>
        <path id="Trazado_725082" data-name="Trazado 725082" d="M992.157,1235.646l-71.732,24.595-8.79-35.307Z" transform="translate(-887.564 -1138.749)" fill="#e78b37"/>
        <path id="Trazado_725083" data-name="Trazado 725083" d="M789.854,735.757H951L977.143,833.4H813.332Z" transform="translate(-787.239 -735.757)" fill="#699dee"/>
      </g>
      <path id="Trazado_725084" data-name="Trazado 725084" d="M1408.583,1339.743a5.522,5.522,0,0,0-5.178-4.336,3.47,3.47,0,0,0-3.493,4.336,5.522,5.522,0,0,0,5.179,4.336A3.47,3.47,0,0,0,1408.583,1339.743Z" transform="translate(-1289.746 -1229.758)" fill="#d86713"/>
      <path id="Trazado_725085" data-name="Trazado 725085" d="M1000.755,853.623H849.876L832.79,785.556l-1.31-5.22-1.118-4.452-2.62-10.44h148.7l2.878,10.44,1.228,4.452,1.439,5.22Z" transform="translate(-818.451 -760.213)" fill="#e9f3fe"/>
      <path id="Trazado_725086" data-name="Trazado 725086" d="M979.323,775.883H830.362l-2.62-10.44h148.7Z" transform="translate(-818.451 -760.213)" fill="#afcdfb"/>
      <g id="Grupo_959131" data-name="Grupo 959131" transform="translate(15.402 8.643)">
        <path id="Trazado_725087" data-name="Trazado 725087" d="M862.47,786.12a.986.986,0,0,1,.98-1.305,1.783,1.783,0,0,1,1.63,1.305.986.986,0,0,1-.98,1.305A1.783,1.783,0,0,1,862.47,786.12Z" transform="translate(-862.429 -784.815)" fill="#e9f3fe"/>
        <path id="Trazado_725088" data-name="Trazado 725088" d="M887.082,786.12a.986.986,0,0,1,.98-1.305,1.783,1.783,0,0,1,1.63,1.305.986.986,0,0,1-.98,1.305A1.783,1.783,0,0,1,887.082,786.12Z" transform="translate(-882.705 -784.815)" fill="#e9f3fe"/>
        <path id="Trazado_725089" data-name="Trazado 725089" d="M913.585,786.12a.986.986,0,0,1,.98-1.305,1.783,1.783,0,0,1,1.63,1.305.986.986,0,0,1-.98,1.305A1.783,1.783,0,0,1,913.585,786.12Z" transform="translate(-904.539 -784.815)" fill="#e9f3fe"/>
      </g>
    </g>
    <g id="Grupo_959133" data-name="Grupo 959133" transform="translate(318.413 581.728)">
      <path id="Trazado_725090" data-name="Trazado 725090" d="M971.78,1181.431a5.635,5.635,0,1,1,5.632,5.453A5.545,5.545,0,0,1,971.78,1181.431Z" transform="translate(-971.78 -1175.977)" fill="#699dee"/>
      <path id="Trazado_725091" data-name="Trazado 725091" d="M996.232,1187.952l3.236,2.8a.6.6,0,0,1-.006.922l-3.181,2.683a.637.637,0,0,1-1.052-.457l-.055-5.481A.637.637,0,0,1,996.232,1187.952Z" transform="translate(-991.053 -1185.712)" fill="#e9f3fe"/>
      <path id="Trazado_725092" data-name="Trazado 725092" d="M1177.456,1205.7a1.032,1.032,0,0,1-1.028,1.028H1061.495a1.028,1.028,0,0,1,0-2.055h114.933A1.031,1.031,0,0,1,1177.456,1205.7Z" transform="translate(-1044.842 -1199.619)" fill="#afcdfb"/>
      <path id="Trazado_725093" data-name="Trazado 725093" d="M1074.289,1204.675v2.055h-12.795a1.028,1.028,0,0,1,0-2.055Z" transform="translate(-1044.842 -1199.619)" fill="#699dee"/>
    </g>
    <path id="Trazado_725094" data-name="Trazado 725094" d="M1108.157,909.017h-99.915l-11.316-40.9-.867-3.135-.739-2.674-1.737-6.272h98.477l1.9,6.272.813,2.674.954,3.135Z" transform="translate(-671.328 -330.679)" fill="#afcdfb"/>
    <g id="Grupo_959135" data-name="Grupo 959135" transform="translate(383.882 530.631)">
      <path id="Trazado_725095" data-name="Trazado 725095" d="M1381.045,903.376h-32.851l-3.721-13.446-.285-1.031-.243-.879-.571-2.062h32.378l.626,2.062.267.879.313,1.031Z" transform="translate(-1343.375 -885.958)" fill="#e9f3fe"/>
      <g id="Grupo_959134" data-name="Grupo 959134" transform="translate(3.563 1.967)">
        <path id="Trazado_725096" data-name="Trazado 725096" d="M1386.384,937.666h-11.39L1373.7,933l-.1-.357-.084-.3-.2-.715h11.226l.217.715.093.3.109.357Z" transform="translate(-1371.61 -925.547)" fill="#afcdfb" opacity="0.6"/>
        <path id="Trazado_725097" data-name="Trazado 725097" d="M1468.692,937.666H1457.3l-1.29-4.662-.1-.357-.084-.3-.2-.715h11.226l.217.715.093.3.109.357Z" transform="translate(-1439.416 -925.547)" fill="#afcdfb" opacity="0.6"/>
        <path id="Trazado_725098" data-name="Trazado 725098" d="M1384.713,897.713H1363.9a.3.3,0,0,1-.3-.3h0a.3.3,0,0,1,.3-.3h20.818a.3.3,0,0,1,.3.3h0A.3.3,0,0,1,1384.713,897.713Z" transform="translate(-1363.599 -897.12)" fill="#afcdfb"/>
        <path id="Trazado_725099" data-name="Trazado 725099" d="M1389.09,906.8h-20.818a.3.3,0,0,1-.3-.3h0a.3.3,0,0,1,.3-.3h20.818a.3.3,0,0,1,.3.3h0A.3.3,0,0,1,1389.09,906.8Z" transform="translate(-1367.205 -904.608)" fill="#afcdfb"/>
      </g>
    </g>
    <path id="Trazado_725100" data-name="Trazado 725100" d="M1397.095,919.66h-23.438a.335.335,0,0,1-.334-.334h0a.335.335,0,0,1,.334-.334h23.438a.335.335,0,0,1,.334.334h0A.335.335,0,0,1,1397.095,919.66Z" transform="translate(-984.164 -382.541)" fill="#afcdfb"/>
    <g id="Grupo_959137" data-name="Grupo 959137" transform="translate(390.021 551.657)">
      <path id="Trazado_725101" data-name="Trazado 725101" d="M1415.887,1022.716h-32.851l-3.721-13.446-.285-1.031-.243-.879-.571-2.062h32.378l.626,2.062.267.879.313,1.031Z" transform="translate(-1378.216 -1005.298)" fill="#e9f3fe"/>
      <g id="Grupo_959136" data-name="Grupo 959136" transform="translate(3.563 1.967)">
        <path id="Trazado_725102" data-name="Trazado 725102" d="M1421.226,1057.006h-11.391l-1.29-4.662-.1-.357-.084-.3-.2-.715h11.227l.217.715.093.3.109.357Z" transform="translate(-1406.451 -1044.887)" fill="#afcdfb" opacity="0.6"/>
        <path id="Trazado_725103" data-name="Trazado 725103" d="M1503.533,1057.006h-11.39l-1.29-4.662-.1-.357-.084-.3-.2-.715H1501.7l.217.715.093.3.109.357Z" transform="translate(-1474.257 -1044.887)" fill="#afcdfb" opacity="0.6"/>
        <path id="Trazado_725104" data-name="Trazado 725104" d="M1419.554,1017.054h-20.818a.3.3,0,0,1-.3-.3h0a.3.3,0,0,1,.3-.3h20.818a.3.3,0,0,1,.3.3h0A.3.3,0,0,1,1419.554,1017.054Z" transform="translate(-1398.44 -1016.461)" fill="#afcdfb"/>
        <path id="Trazado_725105" data-name="Trazado 725105" d="M1423.931,1026.143h-20.818a.3.3,0,0,1-.3-.3h0a.3.3,0,0,1,.3-.3h20.818a.3.3,0,0,1,.3.3h0A.3.3,0,0,1,1423.931,1026.143Z" transform="translate(-1402.046 -1023.949)" fill="#afcdfb"/>
        <path id="Trazado_725106" data-name="Trazado 725106" d="M1427.129,1035.232h-20.818a.3.3,0,0,1-.3-.3h0a.3.3,0,0,1,.3-.3h20.818a.3.3,0,0,1,.3.3h0A.3.3,0,0,1,1427.129,1035.232Z" transform="translate(-1404.68 -1031.436)" fill="#afcdfb"/>
      </g>
    </g>
    <g id="Grupo_959138" data-name="Grupo 959138" transform="translate(240.488 640.636)">
      <path id="Trazado_725107" data-name="Trazado 725107" d="M542.8,1510.333a5.5,5.5,0,0,0-2.416,2.3,2.342,2.342,0,0,0-.188.8c-.1,1.9,0,6.21,0,6.21l-5.359-2.154-5.345,2.154v-5.837a3.725,3.725,0,0,1,1.31-2.881,2.344,2.344,0,0,1,1.48-.6Z" transform="translate(-529.488 -1510.333)" fill="#f99746"/>
      <path id="Trazado_725108" data-name="Trazado 725108" d="M543.511,1510.333a5.5,5.5,0,0,0-2.416,2.3l-10.739.085a3.192,3.192,0,0,1,2.638-2.389Z" transform="translate(-530.203 -1510.333)" fill="#ed7d2b"/>
    </g>
    <g id="Grupo_959142" data-name="Grupo 959142" transform="translate(503.467 606.635)">
      <g id="Grupo_959140" data-name="Grupo 959140" transform="translate(0 0)">
        <g id="Grupo_959139" data-name="Grupo 959139">
          <path id="Rectángulo_340318" data-name="Rectángulo 340318" d="M0,0H61.811A14.172,14.172,0,0,1,75.983,14.172v0A13.308,13.308,0,0,1,62.675,27.48H0a0,0,0,0,1,0,0V0A0,0,0,0,1,0,0Z" transform="translate(75.983 27.48) rotate(180)" fill="#b5453c"/>
          <path id="Rectángulo_340319" data-name="Rectángulo 340319" d="M0,0H71.139A13.894,13.894,0,0,1,85.033,13.894v0A13.586,13.586,0,0,1,71.447,27.48H0a0,0,0,0,1,0,0V0A0,0,0,0,1,0,0Z" transform="translate(148.452 27.48) rotate(-180)" fill="#fcecdb"/>
          <rect id="Rectángulo_340320" data-name="Rectángulo 340320" width="95.367" height="4.11" rx="2.055" transform="translate(152.397 27.48) rotate(-180)" fill="#b5453c"/>
          <rect id="Rectángulo_340321" data-name="Rectángulo 340321" width="95.367" height="4.11" rx="2.055" transform="translate(152.397 4.11) rotate(-180)" fill="#b5453c"/>
        </g>
        <path id="Trazado_725109" data-name="Trazado 725109" d="M2816.515,1395.331l-10.309.462,10.309.278Z" transform="translate(-2668.063 -1381.591)" fill="#f4d2b8"/>
        <path id="Trazado_725110" data-name="Trazado 725110" d="M2750.038,1359.436l-24.526.462,24.526.278Z" transform="translate(-2601.586 -1352.02)" fill="#f4d2b8"/>
      </g>
      <g id="Grupo_959141" data-name="Grupo 959141" transform="translate(124.179 7.786)">
        <path id="Trazado_725111" data-name="Trazado 725111" d="M2726.945,1361.536a5.152,5.152,0,0,1,2.155,2.3,2.583,2.583,0,0,1,.168.8c.089,1.9,0,6.21,0,6.21l4.779-2.153,4.767,2.153v-5.838a3.929,3.929,0,0,0-1.168-2.88,1.975,1.975,0,0,0-1.32-.6Z" transform="translate(-2726.945 -1361.536)" fill="#b5453c"/>
        <path id="Trazado_725112" data-name="Trazado 725112" d="M2726.945,1361.536a5.152,5.152,0,0,1,2.155,2.3l9.577.085a3.056,3.056,0,0,0-2.352-2.389Z" transform="translate(-2726.945 -1361.536)" fill="#9e3732"/>
      </g>
    </g>
    <g id="Grupo_959144" data-name="Grupo 959144" transform="translate(472.511 525.359)">
      <path id="Trazado_725113" data-name="Trazado 725113" d="M1913.126,1143.028s-3.413,1.941-4.369,1.94-4.706-.725-5.752-.191a12.222,12.222,0,0,0-3.293,3.386c-.638,1.262,2.571.7,4.087-.371a.957.957,0,0,1,.758-.156,7.512,7.512,0,0,0,3.206.176,57.007,57.007,0,0,1,6.641-.828Z" transform="translate(-1890.255 -1092.464)" fill="#e49963"/>
      <path id="Trazado_725114" data-name="Trazado 725114" d="M1886.249,1531.987s-.368,5.927-1.515,6.012c-.152.011-5.816.011-5.816.011l-7.23-.042a2.346,2.346,0,0,1,2.161-2.11c2.113-.368,5.651-1.854,6.931-4.647C1882.126,1528.273,1886.249,1531.987,1886.249,1531.987Z" transform="translate(-1867.237 -1411.324)" fill="#163560"/>
      <path id="Trazado_725115" data-name="Trazado 725115" d="M1985.318,976.574s-3.538,25.148-9.4,27.4c-2.891,1.111-15.667,3.631-19.447,3.884,0,0-.926-.751-.7-3.809,0,0,13.386-4.914,15.288-7.587,2.83-3.978-1.757-16.25,1.794-19.985S1982.388,971.137,1985.318,976.574Z" transform="translate(-1936.478 -952.445)" fill="#ed7d2b"/>
      <path id="Trazado_725116" data-name="Trazado 725116" d="M1950.429,1224.668a44.1,44.1,0,0,1-3.456,4.945c-3.8,4.8-7.943,8.759-8.664,12.5a16.889,16.889,0,0,1-.668,2.395c-.3.857-.673,1.758-1.1,2.69a82.846,82.846,0,0,1-6.437,11c-4.165,6.172-8.082,11.322-8.082,11.322l-7.183-.306c.288-.72,3.421-9.242,7.612-19.657l5.258-13.062q.349-.868.7-1.728c.534-1.327,1.059-2.634,1.572-3.906,3.935-9.779,7.069-17.566,7.069-17.566s15.728-5.958,17.362-2.1C1955.75,1214.386,1954.653,1217.505,1950.429,1224.668Z" transform="translate(-1902.782 -1147.556)" fill="#599dad"/>
      <path id="Trazado_725117" data-name="Trazado 725117" d="M2031.153,1444.792s5,3.21,4.512,4.253c-.064.139-2.826,5.084-2.826,5.084l-3.561,6.292a2.346,2.346,0,0,1-.789-2.915c.709-2.025,1.136-5.838-.678-8.317C2025.9,1446.58,2031.153,1444.792,2031.153,1444.792Z" transform="translate(-1995.508 -1341.062)" fill="#163560"/>
      <path id="Trazado_725118" data-name="Trazado 725118" d="M1911.5,1260.424s3.123-2.754,3.673-4.774c0,0-12.866-15.416-15.657-18.871-.128-.158-.1-.333.074-.523,2.107-2.376,25.517-7.206,28.577-11.966a14.754,14.754,0,0,0,1.977-4.558,10.777,10.777,0,0,0,.145-4.911l-23.38-.676s-19.466,12.121-21.671,20.385S1911.5,1260.424,1911.5,1260.424Z" transform="translate(-1878.298 -1151.052)" fill="#6bb7bf"/>
      <path id="Trazado_725119" data-name="Trazado 725119" d="M1967.261,1241.237c2.107-2.376,25.517-7.205,28.577-11.966a14.755,14.755,0,0,0,1.977-4.558v-2.959l-9.937-1.563s-2.818,8.671-11.164,11.922C1968.9,1235.16,1967.417,1240.564,1967.261,1241.237Z" transform="translate(-1945.971 -1156.033)" fill="#5aa9ad"/>
      <path id="Trazado_725120" data-name="Trazado 725120" d="M2045.115,932.97c4.73,1.223,12.571-3.16,12.571-3.16a11.608,11.608,0,0,1-4.173-6.541c-.057-.227-.108-.459-.155-.7l-2.429-.515-3.613,3.237a31.053,31.053,0,0,0,.534,3.653q.117.6.272,1.3A11.146,11.146,0,0,0,2045.115,932.97Z" transform="translate(-2010.109 -910.426)" fill="#e49963"/>
      <path id="Trazado_725121" data-name="Trazado 725121" d="M2031.154,980.072c-.677,9.112.214,22.97-.555,25.369-.663,2.071-8.221.84-11.237.148-1.116-.256-2.469-.621-3.865-1.053-3.9-1.207-8.141-2.929-8.6-4.208a1.083,1.083,0,0,1-.042-.147,1.174,1.174,0,0,1,.008-.536,9.115,9.115,0,0,0,.806-2.971c.077-1.8.066-3.924.133-6.206,0-.257.007-.537.035-.793v-.093l0-.146c.065-2.545.2-5.22.353-7.874.1-1.667.211-3.317.342-4.9a65.523,65.523,0,0,1,1.4-10.006,16.067,16.067,0,0,1,5.162-7.968l1.438-1.233a8.313,8.313,0,0,0,5.217-.695c1.857-.882,2.5-1.514,2.822-1.275C2028.869,958.795,2031.954,968.933,2031.154,980.072Z" transform="translate(-1978.569 -937.923)" fill="#f99746"/>
      <path id="Trazado_725122" data-name="Trazado 725122" d="M2015.624,1069.691c-3.9-1.207-8.141-2.929-8.6-4.208a1.084,1.084,0,0,1-.042-.147c0-.178,0-.357.008-.536a9.113,9.113,0,0,0,.806-2.971c.077-1.8.066-3.924.133-6.206,0-.257.007-.537.035-.793v-.094c0-.049,0-.1,0-.146l15.75-20.066S2034.309,1056.571,2015.624,1069.691Z" transform="translate(-1978.696 -1003.077)" fill="#ed7d2b"/>
      <path id="Trazado_725123" data-name="Trazado 725123" d="M2057.61,925.295a31.053,31.053,0,0,0,.534,3.653,9.581,9.581,0,0,0,5.662-5.678c-.057-.227-.108-.459-.155-.7l-2.429-.515Z" transform="translate(-2020.402 -910.426)" fill="#d68d5d"/>
      <path id="Trazado_725124" data-name="Trazado 725124" d="M2034.978,888.02s7.693-1.284,6.82-6.062-.468-8.163-5.417-7.545-5.567,2.615-5.664,4.281S2032.954,888.231,2034.978,888.02Z" transform="translate(-1998.244 -871.115)" fill="#e49963"/>
      <g id="Grupo_959143" data-name="Grupo 959143" transform="translate(0 40.028)">
        <rect id="Rectángulo_340322" data-name="Rectángulo 340322" width="0.713" height="18.679" transform="translate(0 0.22) rotate(-18.001)" fill="#4a75cb"/>
        <rect id="Rectángulo_340323" data-name="Rectángulo 340323" width="19.601" height="1.173" transform="translate(5.747 16.813) rotate(-1.224)" fill="#4a75cb"/>
      </g>
      <path id="Trazado_725125" data-name="Trazado 725125" d="M1924.354,1171.583s-6.3,1.66-8.658,1.486-4.325-1.3-4.622-1.884-.921-1.626.686-1.434,3.8.534,3.87.225-1.311-.279-1.311-.279-.417-.606.108-.628,2.055-.437,2.624-.153,1.093,1.334,1.509,1.29,5.269-2.186,5.269-2.186Z" transform="translate(-1899.377 -1113.053)" fill="#e49963"/>
      <path id="Trazado_725126" data-name="Trazado 725126" d="M1991.626,985.156s-.744,25.385-6.319,28.27c-2.751,1.423-15.172,5.336-18.9,6,0,0-1-.644-1.116-3.708,0,0,12.763-6.36,14.358-9.226,2.374-4.265-3.538-15.957-.42-20.061S1988.115,980.074,1991.626,985.156Z" transform="translate(-1944.348 -959.994)" fill="#f99746"/>
      <path id="Trazado_725127" data-name="Trazado 725127" d="M2028.153,868.878a3.639,3.639,0,0,0-.924-2.579s.352-1.644-.3-1.915-.786,1.111-1.084.894a6.645,6.645,0,0,1-2.195-2.764c-.569-1.517-5.777.32-6.384.594s-2.558-.729-2.937-1.542a11.41,11.41,0,0,0,1.572-1.517c.488-.65,3.9-5.04,8.671-3.793s5.419,3.522,5.148,5.473S2030.106,868.224,2028.153,868.878Z" transform="translate(-1984.749 -856.034)" fill="#2b478b"/>
    </g>
    <g id="Grupo_959149" data-name="Grupo 959149" transform="translate(540.465 534.143)">
      <g id="Grupo_959148" data-name="Grupo 959148" transform="translate(0)">
        <path id="Trazado_725128" data-name="Trazado 725128" d="M2364.769,1048.513s2.442,3.614,3.834,11.21c1.22,6.653,2.289,9.109,4.051,10.474s11.576,5.393,11.576,5.393l-.734,1.719s-14.386-1.959-16-4.364-7.776-16.609-7.3-19.881S2364.769,1048.513,2364.769,1048.513Z" transform="translate(-2337.61 -1023.385)" fill="#f4a269"/>
        <g id="Grupo_959145" data-name="Grupo 959145" transform="translate(61.611 94.546)">
          <path id="Trazado_725129" data-name="Trazado 725129" d="M2582.592,1452.462c-.13,1.4,1.824,1.744,4.086,1.857s1.579.576,4.679,1.138,4.343-.287,4.567-.706c.2-.371-1.242-.953-2.778-1.61-.193-.082-.387-.167-.581-.251-1.729-.76-2.7-2.311-4.047-3.748-1.277-1.362-2.489-5.721-2.489-5.721l-4.213-.9s1.183,3.924,1.594,5.6a5.193,5.193,0,0,1-.431,2.925A5.517,5.517,0,0,0,2582.592,1452.462Z" transform="translate(-2581.817 -1442.521)" fill="#ffb27d"/>
          <path id="Trazado_725130" data-name="Trazado 725130" d="M2590.272,1494.176c2.262.113,1.579.576,4.679,1.138s4.343-.287,4.567-.706c.2-.371-1.242-.953-2.778-1.61l-.024.026a8.83,8.83,0,0,1-4.7.056c-2.051-.557-4.034-1.783-5.447-2.179a5.516,5.516,0,0,0-.387,1.417C2586.057,1493.722,2588.01,1494.064,2590.272,1494.176Z" transform="translate(-2585.412 -1482.378)" fill="#c65447"/>
        </g>
        <path id="Trazado_725131" data-name="Trazado 725131" d="M2322.4,1200.628s28-2.107,33.266,1.219,13.723,42.071,13.723,42.071a3.44,3.44,0,0,1-1.687.544,14.14,14.14,0,0,1-3.47-.52s-12.148-17.336-13-21.7-.647-8.264-2.6-8.369-26.237,2.953-29.911-3.52a14.911,14.911,0,0,1-.637-12.879Z" transform="translate(-2301.972 -1146.1)" fill="#163560"/>
        <g id="Grupo_959146" data-name="Grupo 959146" transform="translate(50.898 99.043)">
          <path id="Trazado_725132" data-name="Trazado 725132" d="M2521.79,1477.984c-.129,1.4,1.824,1.744,4.086,1.857s1.579.576,4.679,1.137,4.343-.287,4.567-.706c.2-.372-1.241-.953-2.778-1.61-.193-.082-.387-.167-.58-.251-1.729-.76-2.7-2.311-4.047-3.748-1.277-1.361-2.489-5.721-2.489-5.721l-4.213-.9s1.183,3.924,1.594,5.6a5.188,5.188,0,0,1-.431,2.925A5.514,5.514,0,0,0,2521.79,1477.984Z" transform="translate(-2521.015 -1468.042)" fill="#ffb27d"/>
          <path id="Trazado_725133" data-name="Trazado 725133" d="M2529.47,1519.7c2.262.113,1.579.576,4.679,1.137s4.343-.287,4.567-.706c.2-.372-1.241-.953-2.778-1.61l-.024.026a8.827,8.827,0,0,1-4.7.056c-2.051-.557-4.034-1.782-5.447-2.178a5.523,5.523,0,0,0-.387,1.417C2525.254,1519.244,2527.208,1519.586,2529.47,1519.7Z" transform="translate(-2524.609 -1507.9)" fill="#c65447"/>
        </g>
        <path id="Trazado_725134" data-name="Trazado 725134" d="M2279.954,1225.232s24.87,1.177,30.006,4.706,12.075,42.573,12.075,42.573a3.437,3.437,0,0,1-1.707.478,14.148,14.148,0,0,1-3.447-.654s-11.464-17.8-12.149-22.193-.325-8.283-2.268-8.463-26.332,1.929-29.752-4.681S2279.954,1225.232,2279.954,1225.232Z" transform="translate(-2265.005 -1168.969)" fill="#1c468a"/>
        <path id="Trazado_725135" data-name="Trazado 725135" d="M2255.932,907.425a6.451,6.451,0,0,0-3.439-.9,1.633,1.633,0,0,1,.758-.3,5.41,5.41,0,0,0-1.96.374c-8.08-3.749-10.2,8.376-10.213,11.225s-.213,6.115-4.523,8.384c-8.48,4.463-2.189,13.661-2.189,13.661.062.042,5.651,7.444,5.651,7.444-.056-2.307,9.043-14.533,14.8-17.789a15.991,15.991,0,0,0,2.24-5.623,15.122,15.122,0,0,1-1.476,5.124C2260.544,925.037,2258.857,909.355,2255.932,907.425Z" transform="translate(-2232.121 -905.888)" fill="#b5453c"/>
        <path id="Trazado_725136" data-name="Trazado 725136" d="M2310.862,1024.43a28,28,0,0,1,4.632,0,14.886,14.886,0,0,1,4.02,1.008c2.192.916,1.962,4.8-2.637,4.078S2310.54,1025.581,2310.862,1024.43Z" transform="translate(-2296.958 -1003.464)" fill="#ffb27d"/>
        <path id="Trazado_725137" data-name="Trazado 725137" d="M2320.5,1000.626c.027.014.656,3.338-2.355,3.206-1.977-.087-6.24-2.479-5.864-4.172a20.941,20.941,0,0,0,1.973-7.657l.36.1,6.051,1.623s-.268,1.92-.394,3.738C2320.162,998.987,2320.158,1000.44,2320.5,1000.626Z" transform="translate(-2298.136 -976.831)" fill="#ffb27d"/>
        <path id="Trazado_725138" data-name="Trazado 725138" d="M2331.681,994.172s-.268,1.92-.394,3.738c-3.425-.325-5.03-3.577-5.657-5.361Z" transform="translate(-2309.155 -977.281)" fill="#f4a269"/>
        <path id="Trazado_725139" data-name="Trazado 725139" d="M2313.422,930.651a18.065,18.065,0,0,1-1.878-5.419c-.193-1.755,1.119-8.125,7.519-6.769a8.8,8.8,0,0,1,3.549,1.619c1.339,1.041,3.228,3.221.59,8.681l-.714,1.856Z" transform="translate(-2297.537 -916.093)" fill="#b5453c"/>
        <path id="Trazado_725140" data-name="Trazado 725140" d="M2329.328,946.806s-8.127-.407-7.8-5.465-.494-8.516,4.709-8.47,6.084,2.042,6.384,3.757S2331.451,946.782,2329.328,946.806Z" transform="translate(-2305.772 -928.117)" fill="#ffb27d"/>
        <path id="Trazado_725141" data-name="Trazado 725141" d="M2318.015,928.1s-2.618,5.785-6.088,6.434-4.889-.363-4.889-.363a9.682,9.682,0,0,0,3.54-5.5S2316.526,925.161,2318.015,928.1Z" transform="translate(-2293.839 -923.219)" fill="#b5453c"/>
        <path id="Trazado_725142" data-name="Trazado 725142" d="M2366.031,932.006a7.183,7.183,0,0,1,1.89,2.75c.319,1.315.324,3.978,1.1,3.939,0,0,1.944-3.921.213-6.328C2367.4,929.815,2366.031,932.006,2366.031,932.006Z" transform="translate(-2342.438 -926.684)" fill="#b5453c"/>
        <path id="Trazado_725143" data-name="Trazado 725143" d="M2291.286,1058.875c-.658.786-2.711,1.028-4.906,1.389a14.732,14.732,0,0,0-4.832,1.4c-2.93,1.72-12.5,7.534-15.307,7.269-1.088-.1-.884-2.179-.225-4.934,1.037-4.351,3.208-10.393,3.208-13.02a76.31,76.31,0,0,1,1.114-8.706q.078-.469.157-.946c1.26-7.543,3.006-16.436,3.006-16.436s1.947,4.247,5.74,4.247,2.911-3.239,2.911-3.239,3.461.407,4.278,1.288a33.85,33.85,0,0,1,3.3,5.726s.084,1.321-3.187,1.95a42.952,42.952,0,0,1,.891,5.977c.07,1.766-1.205,7.293-1.572,10.731a6.345,6.345,0,0,0,.051,2.607,5.062,5.062,0,0,0,2,1.651C2289.768,1056.9,2292.066,1057.941,2291.286,1058.875Z" transform="translate(-2259.597 -1003.925)" fill="#1c468a"/>
        <path id="Trazado_725144" data-name="Trazado 725144" d="M2287.919,1121.946c2.1,3.58-5.694,4.656-6.984,5.413-2.929,1.72-11.889,7.957-14.694,7.692-1.088-.1-.884-2.179-.225-4.934,1.037-4.351,3.208-10.393,3.208-13.02a76.31,76.31,0,0,1,1.114-8.706l3.377-3.243s3.618,9.353,7.068,10.885a29.013,29.013,0,0,0,5.083,1.655,6.346,6.346,0,0,0,.051,2.607A5.063,5.063,0,0,0,2287.919,1121.946Z" transform="translate(-2259.597 -1070.042)" fill="#163560"/>
        <g id="Grupo_959147" data-name="Grupo 959147" transform="translate(32.562 43.865)">
          <rect id="Rectángulo_340324" data-name="Rectángulo 340324" width="7.832" height="0.925" transform="translate(0 10.693)" fill="#9e332e"/>
          <path id="Trazado_725145" data-name="Trazado 725145" d="M2451.951,1166.351c.077-.306,7.2-11.492,7.2-11.492H2475l-7.95,11.192Z" transform="translate(-2445.782 -1154.859)" fill="#9e332e"/>
          <path id="Trazado_725146" data-name="Trazado 725146" d="M2455.736,1166.478c.076-.306,7.223-11.619,7.223-11.619h15.16l-7.563,11.619Z" transform="translate(-2448.9 -1154.859)" fill="#b5453c"/>
          <path id="Trazado_725147" data-name="Trazado 725147" d="M2523.692,1184.209a1.266,1.266,0,0,1-1.1.821.565.565,0,0,1-.538-.821,1.266,1.266,0,0,1,1.1-.821A.565.565,0,0,1,2523.692,1184.209Z" transform="translate(-2503.492 -1178.362)" fill="#9e332e"/>
        </g>
        <path id="Trazado_725148" data-name="Trazado 725148" d="M2296.715,1065.435c-.445-.191-3.878.434-4.858.618-3.109-.609-13.329-2.651-13.827-3.291-.587-.755-1.868-23.759-3.336-24.143,0,0-2.887-1.753-5.679,1.573s1.984,27.1,6.121,28.325c4.595,1.357,17.868-.217,17.868-.217h0c1.091.372,3,.582,4.009.919,1.336.445,2.523.074,2.82-.445S2297.235,1065.657,2296.715,1065.435Z" transform="translate(-2261.828 -1014.854)" fill="#ffb27d"/>
        <path id="Trazado_725149" data-name="Trazado 725149" d="M2264.852,1024.887s-5.929.535-7.652,2.485-2.225,7.235-2.225,7.235,5.222,4.215,11.513,2.58Z" transform="translate(-2250.948 -1003.921)" fill="#1c468a"/>
      </g>
    </g>
    <path id="Rectángulo_340325" data-name="Rectángulo 340325" d="M.67,0H504.33a.67.67,0,0,1,.67.67v0a.67.67,0,0,1-.67.67H.67A.67.67,0,0,1,0,.67v0A.67.67,0,0,1,.67,0Z" transform="translate(178.682 651.957)" fill="#2e3552"/>
    <g id="Grupo_959163" data-name="Grupo 959163" transform="translate(322.255 525.36)">
      <g id="Grupo_959162" data-name="Grupo 959162" transform="translate(0 0)" clip-path="url(#clip-path)">
        <g id="Grupo_959155" data-name="Grupo 959155" transform="translate(27.299 3.159)">
          <path id="Trazado_725150" data-name="Trazado 725150" d="M1344.307,954.382s.554-2.193,1.478-2.309,2.314-.7,2.6.036-2.208,4.549-3.2,3.607S1344.307,954.382,1344.307,954.382Z" transform="translate(-1309.811 -938.04)" fill="#ffb27d"/>
          <path id="Trazado_725151" data-name="Trazado 725151" d="M1267.756,1378.084a7.468,7.468,0,0,1,1.423,2.54.406.406,0,0,1-.4.551h-4.53a.924.924,0,0,1-.879-.838,4.265,4.265,0,0,1,.805-2.844C1265.293,1376.279,1267.756,1378.084,1267.756,1378.084Z" transform="translate(-1243.136 -1288.434)" fill="#163560"/>
          <path id="Trazado_725152" data-name="Trazado 725152" d="M1327.119,1369.662s1.386,4.2,2.214,4.26c.11.008,4.123.008,4.123.008h5.177a2.517,2.517,0,0,0-1.993-1.525,9.732,9.732,0,0,1-5.793-3.293C1329.335,1367.03,1327.119,1369.662,1327.119,1369.662Z" transform="translate(-1295.654 -1281.216)" fill="#163560"/>
          <g id="Grupo_959150" data-name="Grupo 959150" transform="translate(13.267 40.362)">
            <path id="Trazado_725153" data-name="Trazado 725153" d="M1232.907,1125.2a20.715,20.715,0,0,1,1.318,5.048c-.022,3.906,7.7,21.545,7.7,21.545a8.112,8.112,0,0,0,5.338-.011c-.845-2.443-5.544-24.316-8.038-37.659-1.049-5.6-1.759-9.521-1.759-9.521l-13.634-1.539S1230.109,1117.095,1232.907,1125.2Z" transform="translate(-1223.83 -1103.06)" fill="#2c3a64"/>
            <path id="Trazado_725154" data-name="Trazado 725154" d="M1223.83,1103.06s6.28,14.035,9.077,22.138l6.316-11.077c-1.049-5.6-1.759-9.521-1.759-9.521Z" transform="translate(-1223.83 -1103.06)" fill="#2c3a64"/>
          </g>
          <path id="Trazado_725155" data-name="Trazado 725155" d="M1209.616,1111.695s3.75,38.97,4.62,46.516a8.686,8.686,0,0,1-5.169-.384s-5.183-18.109-5.769-23.564-6.447-22.319-5.455-23.888S1209.616,1111.695,1209.616,1111.695Z" transform="translate(-1189.061 -1068.34)" fill="#2c3a64"/>
          <path id="Trazado_725156" data-name="Trazado 725156" d="M1185.194,930.161a26.47,26.47,0,0,1,1.494,4.5c.052,1.035-3.238,1.6-4.906.742s-1.4-1.616-1.4-1.616a28.946,28.946,0,0,1-.633-3.8C1179.871,929.7,1185.194,930.161,1185.194,930.161Z" transform="translate(-1174.233 -920.037)" fill="#ffb27d"/>
          <path id="Trazado_725157" data-name="Trazado 725157" d="M1196.005,954.158s-5.891,7.324-6.135,8.267c-3.382-3.941-8.585-8.885-8.821-9.077a7.059,7.059,0,0,0-3.072-1.07,26.553,26.553,0,0,0-3.729-.31c-.055-.006-.085-.007-.083,0,.157.584-.479,1.666-1.875,1.763-1.656.107-3.991-.789-4.252-1.763-.013-.049-3.883.195-3.2,7.422a2.945,2.945,0,0,0,.035.312,41.443,41.443,0,0,0,2.581,9.779c.558,1.5,2.4,12.633,2.949,12.643a9.357,9.357,0,0,0,1.529.545c.548.156,1.267.331,2.15.5a44.055,44.055,0,0,0,8.077.662c6.5,0,8.144-1.851,8.144-1.851.349,0-3.614-8.955-5.688-16.648,2.156,1.257,4.446,2.456,4.69,2.6a5.7,5.7,0,0,0,2.383.968l0,0a.549.549,0,0,0,.072,0,1.029,1.029,0,0,0,.7-.21,4.782,4.782,0,0,0,1.835-2.071c.893-1.644,1.953-4.971,2.865-7.19.5-1.227.893-2.57,1.408-3.679A5.859,5.859,0,0,0,1196.005,954.158Z" transform="translate(-1161.897 -938.22)" fill="#bc3f3f"/>
          <path id="Trazado_725158" data-name="Trazado 725158" d="M1175.42,1007.193a10.357,10.357,0,0,1-2.951,10.471,9.357,9.357,0,0,1-1.529-.545c-.548-.01-2.391-11.143-2.949-12.643a41.442,41.442,0,0,1-2.581-9.779c.141-.166.224-.254.224-.254S1173.494,999.206,1175.42,1007.193Z" transform="translate(-1162.435 -973.217)" fill="#a02e2e"/>
          <path id="Trazado_725159" data-name="Trazado 725159" d="M1185.507,933.645s-.831,1.881-2.237,1.9-3.352-1.868-3.352-1.868Z" transform="translate(-1174.387 -923.131)" fill="#e8945b"/>
          <path id="Trazado_725160" data-name="Trazado 725160" d="M1174.829,898.045a6.442,6.442,0,0,1-1.614.958,2.269,2.269,0,0,1-1.59.034c-.851-.268-2.142-.688-2.489-.868-.822-.429-1.008-1.3-1.368-2.5a20.968,20.968,0,0,1-.931-3.37c-.074-.984.4-1.544,2.106-1.7,3.132-.278,4.683.525,5.027,1.6.092.289.179.564.258.825C1175.254,896.378,1175.308,897.567,1174.829,898.045Z" transform="translate(-1163.605 -887.625)" fill="#ffb27d"/>
          <path id="Trazado_725161" data-name="Trazado 725161" d="M1168.423,878.942a1.7,1.7,0,0,0-1.638-.471c-.905.3-.781,1.147-2.5,1.012s-2.342-.933-2.538-.534a10.892,10.892,0,0,0,.26,2.757s-5.463-7.732,1.41-7.732c0,0,6.969-.428,5.67,7.432Z" transform="translate(-1157.933 -873.97)" fill="#2c3a64"/>
          <path id="Trazado_725162" data-name="Trazado 725162" d="M1290.055,943.756l-.008.005C1290.056,943.765,1290.055,943.756,1290.055,943.756Z" transform="translate(-1265.114 -931.461)" fill="#ffb27d"/>
          <path id="Trazado_725163" data-name="Trazado 725163" d="M1294.314,880.055c.023-.129.041-.212.041-.212A.543.543,0,0,0,1294.314,880.055Z" transform="translate(-1268.629 -878.808)" fill="#d35c2b"/>
          <g id="Grupo_959151" data-name="Grupo 959151" transform="translate(35.494 6.79)">
            <path id="Trazado_725164" data-name="Trazado 725164" d="M1351.112,930.589l-1.126-.17,3.16-17.91h0Z" transform="translate(-1349.986 -912.51)" fill="#2c3a64"/>
          </g>
          <path id="Trazado_725165" data-name="Trazado 725165" d="M1347.369,956.463s1.04,1.031,1.214.467,1.492-1.214,1.589-1.478-1.517-.38-1.754-.387S1347.2,956.1,1347.369,956.463Z" transform="translate(-1312.32 -940.777)" fill="#ffb27d"/>
          <path id="Trazado_725166" data-name="Trazado 725166" d="M1196.823,959.935a10.777,10.777,0,0,1,2.958-.107s.123,1.5-.3,1.618a5.344,5.344,0,0,1-1.516,0A8.645,8.645,0,0,1,1196.823,959.935Z" transform="translate(-1188.314 -944.649)" fill="#1c468a"/>
          <path id="Trazado_725167" data-name="Trazado 725167" d="M1203.282,969.308s5.01,21.043,6.343,22.383a8.025,8.025,0,0,0,2.38,1.759s1.052-1.272,1.034-1.88-8.24-22.261-8.24-22.261Z" transform="translate(-1193.635 -952.511)" fill="#1c468a"/>
          <path id="Trazado_725168" data-name="Trazado 725168" d="M1241.97,1077.2a31.33,31.33,0,0,0,4.432,1.144c1.026.041,2.231-1.71,1.83-2.226-.116-.149-1.6.536-2.027.3a3.257,3.257,0,0,0-1.984-.023,9.441,9.441,0,0,1-2.5-1.052Z" transform="translate(-1225.304 -1039.865)" fill="#ffb27d"/>
          <path id="Trazado_725169" data-name="Trazado 725169" d="M1166.387,973.7a76.463,76.463,0,0,0-10.641-6.462c.338-2.892.187-7.491-1.076-15.267,0,0-5.372.6-5.946,2.474-.828,2.707,1.121,10.241,2.736,16.268l.062.037a2.054,2.054,0,0,0,.517.592c2.286,1.837,14.4,5.364,14.4,5.364C1167.313,975.427,1166.387,973.7,1166.387,973.7Z" transform="translate(-1148.527 -938.224)" fill="#bc3f3f"/>
          <g id="Grupo_959154" data-name="Grupo 959154" transform="translate(10.429 32.505)">
            <path id="Trazado_725170" data-name="Trazado 725170" d="M1220.112,1065.719l-9.085-2.7-.287,1.3,9.73,2.739Z" transform="translate(-1210.208 -1062.215)" fill="#fcecdb"/>
            <path id="Trazado_725171" data-name="Trazado 725171" d="M1268.528,1058.467l-4.594,3.5.358,1.337,5.288-3.607Z" transform="translate(-1254.03 -1058.467)" fill="#f4d2b8"/>
            <g id="Grupo_959152" data-name="Grupo 959152" transform="translate(0 1.796)">
              <path id="Trazado_725172" data-name="Trazado 725172" d="M1218.085,1072.09l-10.365-3.162.034-.269,10.228,3.046Z" transform="translate(-1207.72 -1068.659)" fill="#2c3a64"/>
            </g>
            <g id="Grupo_959153" data-name="Grupo 959153" transform="translate(10.262 0.907)">
              <path id="Trazado_725173" data-name="Trazado 725173" d="M1266.071,1067.935l5.869-4.077-.239-.243-5.733,3.934Z" transform="translate(-1265.968 -1063.615)" fill="#2c3a64"/>
            </g>
          </g>
          <path id="Trazado_725174" data-name="Trazado 725174" d="M1183.158,949.922s-2.376-2.467-2.569-2.3-.438.707-.324.861,3.182,1.884,3.182,1.884Z" transform="translate(-1174.649 -934.636)" fill="#1c468a"/>
          <path id="Trazado_725175" data-name="Trazado 725175" d="M1212.706,949.065a19.957,19.957,0,0,1,.555-2.363c.079.094.844.773.872.943a3.9,3.9,0,0,1-1.414,1.663C1212.261,949.415,1212.706,949.065,1212.706,949.065Z" transform="translate(-1201.239 -933.886)" fill="#1c468a"/>
        </g>
        <g id="Grupo_959161" data-name="Grupo 959161" transform="translate(512.102 3.933)">
          <path id="Trazado_725176" data-name="Trazado 725176" d="M4134.913,971.071s1.315-2.528,2.417-2.662,2.885-.808,2.992.042-3.95,5.244-4.807,4.159S4134.913,971.071,4134.913,971.071Z" transform="translate(-4093.534 -952.23)" fill="#ffb27d"/>
          <path id="Trazado_725177" data-name="Trazado 725177" d="M3994.185,968.32a74.06,74.06,0,0,0,4.343,12.378c.726,1.485,7.751,5.72,8.175,6.028,4.424,3.213,4.336-1.507,4.336-1.507.25-3.115-9.038-14.985-9.347-15.307a6.282,6.282,0,0,0-3.211-1.234A28.9,28.9,0,0,0,3994.185,968.32Z" transform="translate(-3977.629 -952.47)" fill="#bc3f3f"/>
          <path id="Trazado_725178" data-name="Trazado 725178" d="M3914.888,1459.58a6.409,6.409,0,0,1,.856,2.928.63.63,0,0,1-.632.635h-5.223a.777.777,0,0,1-.754-.966,6.436,6.436,0,0,1,1.807-3.279C3912.606,1457.5,3914.888,1459.58,3914.888,1459.58Z" transform="translate(-3907.544 -1356.219)" fill="#163560"/>
          <path id="Trazado_725179" data-name="Trazado 725179" d="M3988.8,1449.87s.3,4.843,1.237,4.912c.125.009,4.752.009,4.752.009h5.969a2.04,2.04,0,0,0-1.827-1.758c-1.727-.3-4.616-1.514-5.662-3.8C3992.171,1446.836,3988.8,1449.87,3988.8,1449.87Z" transform="translate(-3973.196 -1347.896)" fill="#163560"/>
          <g id="Grupo_959156" data-name="Grupo 959156" transform="translate(9.481 46.535)">
            <path id="Trazado_725180" data-name="Trazado 725180" d="M3957.656,1168.014a21.786,21.786,0,0,1-.04,5.82c-1.232,4.5,2.22,24.84,2.22,24.84,2.545,1.217,6.158-.013,6.158-.013-.219-2.817,1.12-28.035,2.366-43.419.522-6.459.913-10.978.913-10.978l-15.244-1.775S3956.935,1158.671,3957.656,1168.014Z" transform="translate(-3954.03 -1142.49)" fill="#e58638"/>
            <path id="Trazado_725181" data-name="Trazado 725181" d="M3954.03,1142.49s2.9,16.181,3.626,25.524l10.7-12.772c.522-6.459.913-10.978.913-10.978Z" transform="translate(-3954.03 -1142.49)" fill="#e58638"/>
          </g>
          <path id="Trazado_725182" data-name="Trazado 725182" d="M3926.543,1152.446s-7.716,44.931-9.044,53.631a9.746,9.746,0,0,1-5.841-.443s-.382-20.879.629-27.168-.538-25.733,1.09-27.541S3926.543,1152.446,3926.543,1152.446Z" transform="translate(-3909.584 -1102.459)" fill="#ee9849"/>
          <path id="Trazado_725183" data-name="Trazado 725183" d="M3960.371,943.145a26.152,26.152,0,0,1,.333,5.186c-.259,1.193-4.227,1.841-5.886.856s-1.119-1.864-1.119-1.864a32.493,32.493,0,0,1,.445-4.385C3954.376,942.612,3960.371,943.145,3960.371,943.145Z" transform="translate(-3944.207 -931.473)" fill="#ffb27d"/>
          <path id="Trazado_725184" data-name="Trazado 725184" d="M3938.847,1002.884s-2.471,2.134-9.961,2.134a47.362,47.362,0,0,1-9.108-.764,23.452,23.452,0,0,1-2.324-.573,8.22,8.22,0,0,1-1.595-.629c-.629-.011.685-12.847.505-14.577a43.414,43.414,0,0,1,.045-11.275,3.43,3.43,0,0,1,.056-.359c1.448-8.333,5.986-8.614,5.986-8.558,0,1.123,2.414,2.157,4.357,2.033,1.639-.112,2.706-1.359,2.706-2.033,0-.022.55.068,1.359.2,4.144.719,6.559,6.873,6.559,15.094C3937.432,992.474,3939.251,1002.884,3938.847,1002.884Z" transform="translate(-3912.961 -952.437)" fill="#bc3f3f"/>
          <path id="Trazado_725185" data-name="Trazado 725185" d="M3924.091,1031.961a15.662,15.662,0,0,1-6.637,12.073,8.225,8.225,0,0,1-1.595-.629c-.629-.011.685-12.847.505-14.577a43.414,43.414,0,0,1,.045-11.275c.213-.191.337-.292.337-.292S3924.337,1022.753,3924.091,1031.961Z" transform="translate(-3912.961 -992.789)" fill="#a02e2e"/>
          <path id="Trazado_725186" data-name="Trazado 725186" d="M3962.143,947.162s-1.539,2.169-3.166,2.188-3.288-2.154-3.288-2.154Z" transform="translate(-3945.916 -935.04)" fill="#e8945b"/>
          <path id="Trazado_725187" data-name="Trazado 725187" d="M3957.985,906.118a10.433,10.433,0,0,1-2.157,1.1,2.664,2.664,0,0,1-1.844.039,24.408,24.408,0,0,1-2.6-1c-.815-.494-.762-1.494-.8-2.884a21.753,21.753,0,0,1-.032-3.885c.219-1.135.938-1.78,2.952-1.956,3.7-.321,5.238.6,5.3,1.844.017.333.032.65.043.951C3958.991,904.2,3958.685,905.567,3957.985,906.118Z" transform="translate(-3941.609 -894.104)" fill="#ffb27d"/>
          <path id="Trazado_725188" data-name="Trazado 725188" d="M3954.8,884.092a1.554,1.554,0,0,0-1.743-.543c-1.138.35-1.255,1.323-3.2,1.167s-2.411-1.076-2.761-.616a12.905,12.905,0,0,0-.552,3.179s-3.91-8.915,4.015-8.915c0,0,8.167-.493,4.241,8.569Z" transform="translate(-3937.586 -878.36)" fill="#2c3a64"/>
          <path id="Trazado_725189" data-name="Trazado 725189" d="M3909.708,968.286s-6.377.687-7.62,2.852c-1.791,3.121-1.872,11.807-1.872,18.756a3,3,0,0,0,4.562-.983C3906.534,986.034,3908.4,980.629,3909.708,968.286Z" transform="translate(-3900.217 -952.443)" fill="#bc3f3f"/>
          <path id="Trazado_725190" data-name="Trazado 725190" d="M4079.592,958.82l-.011.006C4079.59,958.831,4079.592,958.82,4079.592,958.82Z" transform="translate(-4047.98 -944.644)" fill="#ffb27d"/>
          <path id="Trazado_725191" data-name="Trazado 725191" d="M4103.882,885.375c.066-.148.113-.245.113-.245A.808.808,0,0,0,4103.882,885.375Z" transform="translate(-4067.999 -883.937)" fill="#d35c2b"/>
          <g id="Grupo_959157" data-name="Grupo 959157" transform="translate(42.268 6.103)">
            <path id="Trazado_725192" data-name="Trazado 725192" d="M4141.231,933.9l-1.107-.187L4143.956,913l.382.064Z" transform="translate(-4140.124 -913.001)" fill="#2c3a64"/>
          </g>
          <path id="Trazado_725193" data-name="Trazado 725193" d="M4138.761,973.557s1.506.451,1.542-.215,1.369-2.062,1.4-2.383-1.867.473-2.142.6S4138.46,973.287,4138.761,973.557Z" transform="translate(-4096.68 -954.583)" fill="#ffb27d"/>
          <path id="Trazado_725194" data-name="Trazado 725194" d="M4085.311,984.495a4.666,4.666,0,0,0-2.466-1.839,70.419,70.419,0,0,1-6.818,6.214,10.048,10.048,0,0,0-3.792,6.13c-.719,3.608,1.08,4.654,1.08,4.654s1.433.18,3.711-2.628c1.538-1.9,3.788-5.732,5.525-8.29C4083.512,987.321,4084.375,985.773,4085.311,984.495Z" transform="translate(-4041.789 -964.281)" fill="#bc3f3f"/>
          <path id="Trazado_725195" data-name="Trazado 725195" d="M3966.862,977.474a12.963,12.963,0,0,1,3.444-.124s-.32,1.725-.851,1.865a6.13,6.13,0,0,1-1.748,0C3967.5,979.192,3966.862,977.474,3966.862,977.474Z" transform="translate(-3955.12 -959.849)" fill="#1c468a"/>
          <path id="Trazado_725196" data-name="Trazado 725196" d="M3970.583,988.28s-.725,24.262.4,25.806a6.314,6.314,0,0,0,2.2,2.028s1.605-1.466,1.773-2.168-2.624-25.666-2.624-25.666Z" transform="translate(-3957.996 -968.914)" fill="#1c468a"/>
          <path id="Trazado_725197" data-name="Trazado 725197" d="M3981.58,1112.673a29.487,29.487,0,0,0,4.756,1.319c1.17.047,3.1-1.972,2.8-2.567-.087-.172-2.013.618-2.431.35-.633-.406-1.666-.1-2.28-.026s-2.554-1.214-2.554-1.214Z" transform="translate(-3967.245 -1069.63)" fill="#ffb27d"/>
          <path id="Trazado_725198" data-name="Trazado 725198" d="M3905.82,1066.8a56.937,56.937,0,0,1,10.683,7.668,3.9,3.9,0,0,1-.874,3.466s-12.872-4.067-14.94-6.185S3903.889,1066.387,3905.82,1066.8Z" transform="translate(-3900.216 -1033.567)" fill="#bc3f3f"/>
          <g id="Grupo_959160" data-name="Grupo 959160" transform="translate(7.998 37.477)">
            <path id="Trazado_725199" data-name="Trazado 725199" d="M3959.4,1099.438l-9.64-3.116-.732,1.5,10.372,3.158Z" transform="translate(-3948.427 -1095.397)" fill="#fcecdb"/>
            <path id="Trazado_725200" data-name="Trazado 725200" d="M4014.28,1091.076l-6.379,4.04v1.542l7.211-4.159Z" transform="translate(-3996.926 -1091.076)" fill="#f4d2b8"/>
            <g id="Grupo_959158" data-name="Grupo 959158" transform="translate(0 2.071)">
              <path id="Trazado_725201" data-name="Trazado 725201" d="M3956.587,1106.784l-10.974-3.646.122-.31,10.852,3.511Z" transform="translate(-3945.613 -1102.828)" fill="#2c3a64"/>
            </g>
            <g id="Grupo_959159" data-name="Grupo 959159" transform="translate(10.974 1.046)">
              <path id="Trazado_725202" data-name="Trazado 725202" d="M4007.9,1101.992l8.025-4.7-.2-.28-7.825,4.536Z" transform="translate(-4007.9 -1097.012)" fill="#2c3a64"/>
            </g>
          </g>
          <path id="Trazado_725203" data-name="Trazado 725203" d="M3953.3,965.93s-1.977-2.844-2.25-2.657-.724.815-.639.992,3.086,2.172,3.086,2.172Z" transform="translate(-3941.561 -948.306)" fill="#1c468a"/>
          <path id="Trazado_725204" data-name="Trazado 725204" d="M3985.031,964.941a29.815,29.815,0,0,1,1.37-2.724c.062.109.735.891.714,1.088a6.657,6.657,0,0,1-2.144,1.917C3984.409,965.344,3985.031,964.941,3985.031,964.941Z" transform="translate(-3969.844 -947.44)" fill="#1c468a"/>
        </g>
      </g>
    </g>
  </g>
</svg>
