<svg xmlns="http://www.w3.org/2000/svg" xmlns:xlink="http://www.w3.org/1999/xlink" width="628" height="94" viewBox="0 0 628 94">
  <defs>
    <filter id="Rect치ngulo_5944" x="0" y="0" width="628" height="94" filterUnits="userSpaceOnUse">
      <feOffset dy="3" input="SourceAlpha"/>
      <feGaussianBlur stdDeviation="3" result="blur"/>
      <feFlood flood-opacity="0.161"/>
      <feComposite operator="in" in2="blur"/>
      <feComposite in="SourceGraphic"/>
    </filter>
  </defs>
  <g id="Grupo_959302" data-name="Grupo 959302" transform="translate(-224 -1161)">
    <g transform="matrix(1, 0, 0, 1, 224, 1161)" filter="url(#Rect치ngulo_5944)">
      <rect id="Rect치ngulo_5944-2" data-name="Rect치ngulo 5944" width="610" height="76" rx="14" transform="translate(9 6)" fill="#fff"/>
    </g>
    <path id="Trazado_725399" data-name="Trazado 725399" d="M13.652,32H2.754V10.994H5.215V29.773h8.438Zm14.956-6.9H18.018a5.61,5.61,0,0,0,1.348,3.867A4.646,4.646,0,0,0,22.91,30.33a7.37,7.37,0,0,0,4.658-1.67v2.256a8.706,8.706,0,0,1-5.229,1.436,6.34,6.34,0,0,1-5-2.043,8.364,8.364,0,0,1-1.816-5.75,8.2,8.2,0,0,1,1.985-5.706,6.364,6.364,0,0,1,4.929-2.2A5.639,5.639,0,0,1,27,18.553a7.94,7.94,0,0,1,1.611,5.288Zm-2.461-2.036a4.888,4.888,0,0,0-1-3.237A3.419,3.419,0,0,0,22.4,18.67a3.881,3.881,0,0,0-2.886,1.216,5.517,5.517,0,0,0-1.465,3.179ZM45.044,38.9h-2.4V29.422h-.059a5.375,5.375,0,0,1-5.127,2.93,5.645,5.645,0,0,1-4.534-2.014,8.215,8.215,0,0,1-1.707-5.486,8.983,8.983,0,0,1,1.875-5.969,6.241,6.241,0,0,1,5.039-2.234,4.73,4.73,0,0,1,4.453,2.432h.059V17h2.4Zm-2.4-13.652V23.064a4.364,4.364,0,0,0-1.208-3.12,4.046,4.046,0,0,0-3.069-1.274,4.125,4.125,0,0,0-3.428,1.6,7.16,7.16,0,0,0-1.26,4.519,6.2,6.2,0,0,0,1.216,4.065,3.88,3.88,0,0,0,3.135,1.472,4.227,4.227,0,0,0,3.362-1.443A5.354,5.354,0,0,0,42.642,25.247ZM55.926,37.976H49.748a3.273,3.273,0,0,0,.786,2.256,2.71,2.71,0,0,0,2.068.795,4.3,4.3,0,0,0,2.717-.974v1.316a5.078,5.078,0,0,1-3.05.837,3.7,3.7,0,0,1-2.914-1.192,4.879,4.879,0,0,1-1.06-3.354,4.784,4.784,0,0,1,1.158-3.328,3.712,3.712,0,0,1,2.875-1.286,3.289,3.289,0,0,1,2.657,1.111,4.631,4.631,0,0,1,.94,3.085Zm-1.435-1.188a2.851,2.851,0,0,0-.585-1.888,1.994,1.994,0,0,0-1.6-.675,2.264,2.264,0,0,0-1.683.709,3.218,3.218,0,0,0-.854,1.854ZM70.469,42h-1.4V36.976a3.79,3.79,0,0,0-.449-2.1,1.7,1.7,0,0,0-1.508-.649,1.868,1.868,0,0,0-1.525.82,3.138,3.138,0,0,0-.628,1.965V42h-1.4V36.8q0-2.58-1.991-2.58A1.844,1.844,0,0,0,60.044,35a3.2,3.2,0,0,0-.6,2.012V42h-1.4V33.25h1.4v1.384h.034A2.973,2.973,0,0,1,62.2,33.045a2.527,2.527,0,0,1,2.478,1.811,3.122,3.122,0,0,1,2.905-1.811q2.888,0,2.888,3.563Zm3.367-10.971a.888.888,0,0,1-.641-.256.865.865,0,0,1-.265-.649.9.9,0,0,1,.906-.914.9.9,0,0,1,.654.261.913.913,0,0,1,0,1.294A.9.9,0,0,1,73.835,31.029ZM74.519,42h-1.4V33.25h1.4Zm2.307-.316v-1.5a4.147,4.147,0,0,0,2.521.846q1.846,0,1.846-1.23a1.068,1.068,0,0,0-.158-.594,1.575,1.575,0,0,0-.427-.431,3.289,3.289,0,0,0-.632-.338q-.363-.15-.782-.312a10.068,10.068,0,0,1-1.021-.466,3.085,3.085,0,0,1-.735-.53,1.971,1.971,0,0,1-.444-.671,2.373,2.373,0,0,1-.15-.88,2.091,2.091,0,0,1,.282-1.089,2.5,2.5,0,0,1,.752-.795,3.506,3.506,0,0,1,1.072-.483,4.756,4.756,0,0,1,1.243-.162,5.02,5.02,0,0,1,2.034.393v1.418A3.963,3.963,0,0,0,80,34.225a2.6,2.6,0,0,0-.709.09,1.736,1.736,0,0,0-.543.252,1.165,1.165,0,0,0-.35.389,1.024,1.024,0,0,0-.124.5,1.2,1.2,0,0,0,.124.572,1.26,1.26,0,0,0,.363.41,2.775,2.775,0,0,0,.581.325q.342.145.778.316a10.821,10.821,0,0,1,1.042.457,3.575,3.575,0,0,1,.786.53,2.07,2.07,0,0,1,.5.679,2.191,2.191,0,0,1,.175.914,2.156,2.156,0,0,1-.286,1.128,2.453,2.453,0,0,1-.765.795,3.5,3.5,0,0,1-1.1.47,5.442,5.442,0,0,1-1.307.154A4.964,4.964,0,0,1,76.826,41.684ZM85.5,31.029a.888.888,0,0,1-.641-.256.865.865,0,0,1-.265-.649.9.9,0,0,1,.906-.914.9.9,0,0,1,.654.261.913.913,0,0,1,0,1.294A.9.9,0,0,1,85.5,31.029ZM86.182,42h-1.4V33.25h1.4Zm6.494.205a4.058,4.058,0,0,1-3.1-1.226,4.542,4.542,0,0,1-1.158-3.251,4.731,4.731,0,0,1,1.2-3.443,4.331,4.331,0,0,1,3.255-1.239,3.924,3.924,0,0,1,3.055,1.2,4.777,4.777,0,0,1,1.1,3.341,4.7,4.7,0,0,1-1.183,3.354A4.147,4.147,0,0,1,92.676,42.205Zm.1-7.981a2.665,2.665,0,0,0-2.136.919,3.772,3.772,0,0,0-.786,2.533,3.568,3.568,0,0,0,.795,2.452,2.7,2.7,0,0,0,2.128.9,2.562,2.562,0,0,0,2.089-.88,3.819,3.819,0,0,0,.731-2.5,3.885,3.885,0,0,0-.731-2.529A2.55,2.55,0,0,0,92.778,34.225Zm2.051-5.434-2.239,2.8H91.505l1.905-2.8ZM106.535,42h-1.4V37.01q0-2.785-2.034-2.785a2.206,2.206,0,0,0-1.739.79,2.93,2.93,0,0,0-.688,2V42h-1.4V33.25h1.4V34.7h.034a3.158,3.158,0,0,1,2.871-1.658,2.677,2.677,0,0,1,2.2.927,4.13,4.13,0,0,1,.76,2.679Zm18.39-20.9h-13.77V19.168h13.77Zm0,6.24h-13.77V25.408h13.77ZM138.884,32h-2.4V13.851a5.561,5.561,0,0,1-.813.637,13.252,13.252,0,0,1-1.2.71q-.667.352-1.406.659a10.22,10.22,0,0,1-1.443.483V13.909a13.966,13.966,0,0,0,1.677-.593q.886-.374,1.743-.835t1.619-.967a12.851,12.851,0,0,0,1.318-.989h.908Zm20.508-10.591a20.635,20.635,0,0,1-.476,4.673,10.888,10.888,0,0,1-1.377,3.435,6.2,6.2,0,0,1-2.212,2.124,6.055,6.055,0,0,1-2.981.725,5.655,5.655,0,0,1-2.82-.7,5.91,5.91,0,0,1-2.087-2.029,10.283,10.283,0,0,1-1.289-3.274,20.244,20.244,0,0,1-.439-4.446,22.915,22.915,0,0,1,.461-4.863,11.124,11.124,0,0,1,1.355-3.538,6.031,6.031,0,0,1,2.219-2.153,6.231,6.231,0,0,1,3.04-.725Q159.392,10.643,159.392,21.409Zm-2.461.234q0-8.965-4.263-8.965-4.5,0-4.5,9.126,0,8.511,4.409,8.511Q156.931,30.315,156.931,21.644ZM182.493,32h-10.9V10.994h2.461V29.773h8.438Zm9.17.352a6.958,6.958,0,0,1-5.31-2.1,7.786,7.786,0,0,1-1.985-5.574,8.111,8.111,0,0,1,2.065-5.9,7.425,7.425,0,0,1,5.581-2.124,6.728,6.728,0,0,1,5.237,2.065,8.189,8.189,0,0,1,1.882,5.728,8.059,8.059,0,0,1-2.029,5.75A7.109,7.109,0,0,1,191.663,32.352Zm.176-13.682a4.569,4.569,0,0,0-3.662,1.575,6.467,6.467,0,0,0-1.348,4.343,6.116,6.116,0,0,0,1.362,4.2,4.63,4.63,0,0,0,3.647,1.538,4.392,4.392,0,0,0,3.582-1.509,6.547,6.547,0,0,0,1.252-4.292,6.66,6.66,0,0,0-1.252-4.336A4.372,4.372,0,0,0,191.839,18.67ZM215.774,30.8q0,8.262-7.91,8.262A10.621,10.621,0,0,1,203,38.006V35.6a9.988,9.988,0,0,0,4.834,1.406q5.537,0,5.537-5.889V29.48h-.059a6.069,6.069,0,0,1-9.661.872,7.993,7.993,0,0,1-1.707-5.369,9.339,9.339,0,0,1,1.838-6.079,6.141,6.141,0,0,1,5.032-2.256,4.889,4.889,0,0,1,4.5,2.432h.059V17h2.4Zm-2.4-5.581V23.006a4.291,4.291,0,0,0-1.208-3.062,3.979,3.979,0,0,0-3.01-1.274,4.171,4.171,0,0,0-3.486,1.619,7.225,7.225,0,0,0-1.26,4.534,6.2,6.2,0,0,0,1.208,4.006,3.9,3.9,0,0,0,3.2,1.5,4.181,4.181,0,0,0,3.289-1.436A5.351,5.351,0,0,0,213.372,25.218Zm21.782,11.558h-2.139a18.72,18.72,0,0,1-4.541-12.788,19.429,19.429,0,0,1,4.541-12.993h2.168a19.742,19.742,0,0,0-4.6,12.964A19.4,19.4,0,0,0,235.154,36.775ZM246.082,32h-2.4V13.851a5.561,5.561,0,0,1-.813.637,13.252,13.252,0,0,1-1.2.71q-.667.352-1.406.659a10.22,10.22,0,0,1-1.443.483V13.909a13.966,13.966,0,0,0,1.677-.593q.886-.374,1.743-.835t1.619-.967a12.851,12.851,0,0,0,1.318-.989h.908ZM266.59,21.409a20.635,20.635,0,0,1-.476,4.673,10.888,10.888,0,0,1-1.377,3.435,6.2,6.2,0,0,1-2.212,2.124,6.055,6.055,0,0,1-2.981.725,5.655,5.655,0,0,1-2.82-.7,5.91,5.91,0,0,1-2.087-2.029,10.283,10.283,0,0,1-1.289-3.274,20.244,20.244,0,0,1-.439-4.446,22.915,22.915,0,0,1,.461-4.863,11.124,11.124,0,0,1,1.355-3.538,6.031,6.031,0,0,1,2.219-2.153,6.231,6.231,0,0,1,3.04-.725Q266.59,10.643,266.59,21.409Zm-2.461.234q0-8.965-4.263-8.965-4.5,0-4.5,9.126,0,8.511,4.409,8.511Q264.129,30.315,264.129,21.644Zm17,3.142h-1.247a10.919,10.919,0,0,1-2.649-7.459,11.333,11.333,0,0,1,2.649-7.579h1.265a11.515,11.515,0,0,0-2.683,7.562A11.314,11.314,0,0,0,281.13,24.785ZM289.282,22h-6.357V9.747h1.435V20.7h4.922Zm10.663,0h-1.709l-2.051-3.435a7.484,7.484,0,0,0-.547-.816,3.118,3.118,0,0,0-.543-.551,1.88,1.88,0,0,0-.6-.312,2.46,2.46,0,0,0-.722-.1H292.6V22h-1.435V9.747h3.657a5.212,5.212,0,0,1,1.482.2,3.317,3.317,0,0,1,1.179.611,2.839,2.839,0,0,1,.782,1.021,3.386,3.386,0,0,1,.282,1.431,3.447,3.447,0,0,1-.192,1.175,3.069,3.069,0,0,1-.547.953,3.315,3.315,0,0,1-.854.713,4.362,4.362,0,0,1-1.124.457v.034a2.584,2.584,0,0,1,.534.312,2.937,2.937,0,0,1,.431.414,5.49,5.49,0,0,1,.406.543q.2.3.449.7ZM292.6,11.046v4.443h1.948a2.955,2.955,0,0,0,1-.162,2.3,2.3,0,0,0,.79-.466,2.111,2.111,0,0,0,.521-.743,2.488,2.488,0,0,0,.188-.987A1.921,1.921,0,0,0,296.4,11.6a2.735,2.735,0,0,0-1.841-.551ZM311.113,22h-1.589l-1.3-3.435h-5.2L301.808,22h-1.6l4.7-12.253H306.4Zm-3.358-4.725-1.923-5.221a5,5,0,0,1-.188-.82h-.034a4.576,4.576,0,0,1-.2.82l-1.905,5.221Zm12,.7h-6.178a3.273,3.273,0,0,0,.786,2.256,2.71,2.71,0,0,0,2.068.795,4.3,4.3,0,0,0,2.717-.974v1.316a5.078,5.078,0,0,1-3.05.837,3.7,3.7,0,0,1-2.914-1.192,4.879,4.879,0,0,1-1.06-3.354,4.784,4.784,0,0,1,1.158-3.328,3.712,3.712,0,0,1,2.875-1.286,3.289,3.289,0,0,1,2.657,1.111,4.631,4.631,0,0,1,.94,3.085Zm-1.435-1.188a2.851,2.851,0,0,0-.585-1.888,1.994,1.994,0,0,0-1.6-.675,2.264,2.264,0,0,0-1.683.709,3.218,3.218,0,0,0-.854,1.854Zm11.022,9.237h-1.4V20.5h-.034a3.135,3.135,0,0,1-2.991,1.709,3.293,3.293,0,0,1-2.645-1.175,4.792,4.792,0,0,1-1-3.2,5.24,5.24,0,0,1,1.094-3.482,3.64,3.64,0,0,1,2.939-1.3,2.759,2.759,0,0,1,2.6,1.418h.034V13.25h1.4Zm-1.4-7.963V16.788a2.546,2.546,0,0,0-.7-1.82,2.36,2.36,0,0,0-1.79-.743,2.406,2.406,0,0,0-2,.936,4.177,4.177,0,0,0-.735,2.636,3.617,3.617,0,0,0,.709,2.371,2.263,2.263,0,0,0,1.829.859,2.465,2.465,0,0,0,1.961-.842A3.123,3.123,0,0,0,327.945,18.061Zm5.52,1.991-1.367,4.2h-1l1-4.2ZM340.745,22h-1.4V11.413a3.244,3.244,0,0,1-.474.372,7.73,7.73,0,0,1-.7.414q-.389.205-.82.384a5.961,5.961,0,0,1-.842.282V11.448a8.148,8.148,0,0,0,.978-.346q.517-.218,1.017-.487t.944-.564a7.5,7.5,0,0,0,.769-.577h.53Zm11.928,0h-1.4V16.959q0-2.734-2.034-2.734a2.217,2.217,0,0,0-1.726.79,2.945,2.945,0,0,0-.7,2.029V22h-1.4V9.047h1.4V14.7h.034a3.182,3.182,0,0,1,2.871-1.658q2.956,0,2.956,3.563Zm2.674,2.785H354.1a11.314,11.314,0,0,0,2.666-7.476,11.515,11.515,0,0,0-2.683-7.562h1.265a11.288,11.288,0,0,1,2.666,7.579A10.877,10.877,0,0,1,355.347,24.785ZM366.122,9.747l-5.879,14.286h-1.307L364.8,9.747ZM372.18,22h-1.4V11.413a3.244,3.244,0,0,1-.474.372,7.73,7.73,0,0,1-.7.414q-.389.205-.82.384a5.961,5.961,0,0,1-.842.282V11.448a8.148,8.148,0,0,0,.978-.346q.517-.218,1.017-.487t.944-.564a7.5,7.5,0,0,0,.769-.577h.53Zm11.962-6.178a12.035,12.035,0,0,1-.278,2.726,6.351,6.351,0,0,1-.8,2,3.615,3.615,0,0,1-1.29,1.239,3.532,3.532,0,0,1-1.739.423,3.3,3.3,0,0,1-1.645-.406,3.447,3.447,0,0,1-1.218-1.183,6,6,0,0,1-.752-1.91,11.81,11.81,0,0,1-.256-2.593,13.368,13.368,0,0,1,.269-2.837,6.489,6.489,0,0,1,.79-2.063,3.518,3.518,0,0,1,1.294-1.256,3.635,3.635,0,0,1,1.773-.423Q384.142,9.542,384.142,15.822Zm-1.435.137q0-5.229-2.486-5.229-2.623,0-2.623,5.323,0,4.964,2.572,4.964Q382.706,21.017,382.706,15.959Zm20.478,8.629h-8V22.7h8ZM423.9,32h-2.4V13.851a5.561,5.561,0,0,1-.813.637,13.252,13.252,0,0,1-1.2.71q-.667.352-1.406.659a10.22,10.22,0,0,1-1.443.483V13.909a13.966,13.966,0,0,0,1.677-.593q.886-.374,1.743-.835t1.619-.967a12.851,12.851,0,0,0,1.318-.989h.908Zm20.508-10.591a20.635,20.635,0,0,1-.476,4.673,10.888,10.888,0,0,1-1.377,3.435,6.2,6.2,0,0,1-2.212,2.124,6.055,6.055,0,0,1-2.981.725,5.655,5.655,0,0,1-2.82-.7,5.91,5.91,0,0,1-2.087-2.029,10.283,10.283,0,0,1-1.289-3.274,20.244,20.244,0,0,1-.439-4.446,22.915,22.915,0,0,1,.461-4.863,11.124,11.124,0,0,1,1.355-3.538,6.031,6.031,0,0,1,2.219-2.153,6.231,6.231,0,0,1,3.04-.725Q444.406,10.643,444.406,21.409Zm-2.461.234q0-8.965-4.263-8.965-4.5,0-4.5,9.126,0,8.511,4.409,8.511Q441.945,30.315,441.945,21.644Zm17,3.142H457.7a10.919,10.919,0,0,1-2.649-7.459A11.333,11.333,0,0,1,457.7,9.747h1.265a11.515,11.515,0,0,0-2.683,7.562A11.314,11.314,0,0,0,458.946,24.785ZM467.1,22h-6.357V9.747h1.435V20.7H467.1Zm10.663,0h-1.709L474,18.565a7.484,7.484,0,0,0-.547-.816,3.118,3.118,0,0,0-.543-.551,1.88,1.88,0,0,0-.6-.312,2.46,2.46,0,0,0-.722-.1h-1.179V22h-1.435V9.747h3.657a5.212,5.212,0,0,1,1.482.2,3.317,3.317,0,0,1,1.179.611,2.839,2.839,0,0,1,.782,1.021,3.386,3.386,0,0,1,.282,1.431,3.447,3.447,0,0,1-.192,1.175,3.069,3.069,0,0,1-.547.953,3.315,3.315,0,0,1-.854.713,4.362,4.362,0,0,1-1.124.457v.034a2.584,2.584,0,0,1,.534.312,2.937,2.937,0,0,1,.431.414,5.49,5.49,0,0,1,.406.543q.2.3.449.7Zm-7.348-10.954v4.443h1.948a2.955,2.955,0,0,0,1-.162,2.3,2.3,0,0,0,.79-.466,2.111,2.111,0,0,0,.521-.743,2.488,2.488,0,0,0,.188-.987,1.921,1.921,0,0,0-.637-1.534,2.735,2.735,0,0,0-1.841-.551ZM488.929,22h-1.589l-1.3-3.435h-5.2L479.624,22h-1.6l4.7-12.253h1.487Zm-3.358-4.725-1.923-5.221a5,5,0,0,1-.188-.82h-.034a4.576,4.576,0,0,1-.2.82l-1.905,5.221Zm12,.7H491.4a3.273,3.273,0,0,0,.786,2.256,2.71,2.71,0,0,0,2.068.795,4.3,4.3,0,0,0,2.717-.974v1.316a5.078,5.078,0,0,1-3.05.837,3.7,3.7,0,0,1-2.914-1.192,4.879,4.879,0,0,1-1.06-3.354,4.784,4.784,0,0,1,1.158-3.328,3.712,3.712,0,0,1,2.875-1.286,3.289,3.289,0,0,1,2.657,1.111,4.631,4.631,0,0,1,.94,3.085Zm-1.435-1.188a2.851,2.851,0,0,0-.585-1.888,1.994,1.994,0,0,0-1.6-.675,2.264,2.264,0,0,0-1.683.709,3.218,3.218,0,0,0-.854,1.854Zm11.022,9.237h-1.4V20.5h-.034a3.135,3.135,0,0,1-2.991,1.709,3.293,3.293,0,0,1-2.645-1.175,4.792,4.792,0,0,1-1-3.2,5.24,5.24,0,0,1,1.094-3.482,3.64,3.64,0,0,1,2.939-1.3,2.759,2.759,0,0,1,2.6,1.418h.034V13.25h1.4Zm-1.4-7.963V16.788a2.546,2.546,0,0,0-.7-1.82,2.36,2.36,0,0,0-1.79-.743,2.406,2.406,0,0,0-2,.936,4.177,4.177,0,0,0-.735,2.636,3.617,3.617,0,0,0,.709,2.371,2.263,2.263,0,0,0,1.829.859,2.465,2.465,0,0,0,1.961-.842A3.123,3.123,0,0,0,505.761,18.061Zm5.52,1.991-1.367,4.2h-1l1-4.2ZM523.354,22h-1.4V11.413a3.241,3.241,0,0,1-.474.372,7.737,7.737,0,0,1-.7.414q-.389.205-.82.384a5.96,5.96,0,0,1-.842.282V11.448a8.144,8.144,0,0,0,.978-.346q.517-.218,1.017-.487t.944-.564a7.5,7.5,0,0,0,.769-.577h.53Zm11.928,0h-1.4V16.959q0-2.734-2.034-2.734a2.217,2.217,0,0,0-1.726.79,2.945,2.945,0,0,0-.7,2.029V22h-1.4V9.047h1.4V14.7h.034a3.182,3.182,0,0,1,2.871-1.658q2.956,0,2.956,3.563Zm3.922-1.948-1.367,4.2h-1l1-4.2Z" transform="translate(266 1179)" fill="#00223d"/>
  </g>
</svg>
