<svg id="analisis" xmlns="http://www.w3.org/2000/svg" width="116" height="116" viewBox="0 0 116 116">
  <path id="Trazado_724801" data-name="Trazado 724801" d="M378.7,367.11l16.91,16.91a8.193,8.193,0,0,1,2.4,5.793h0a8.191,8.191,0,0,1-8.189,8.193h0a8.193,8.193,0,0,1-5.793-2.4L367.11,378.7Z" transform="translate(-283.936 -283.936)" fill="#235087"/>
  <rect id="Rectángulo_340273" data-name="Rectángulo 340273" width="16.384" height="13.652" transform="translate(94.758 83.175) rotate(135)" fill="#ef2648"/>
  <path id="Trazado_724802" data-name="Trazado 724802" d="M402.082,370.972a55.146,55.146,0,0,1,7.249.491l-4.353-4.353L401.091,371C401.421,370.992,401.75,370.972,402.082,370.972Z" transform="translate(-310.218 -283.936)" fill="#163768"/>
  <path id="Trazado_724803" data-name="Trazado 724803" d="M345.736,334.15l-9.655-9.655-11.586,11.586,3.862,3.862a55.16,55.16,0,0,1,13.486-1.912Z" transform="translate(-250.976 -250.976)" fill="#b20d24"/>
  <circle id="Elipse_5727" data-name="Elipse 5727" cx="38.62" cy="38.62" r="38.62" transform="translate(9.791 9.791)" fill="#b7e5ff"/>
  <g id="Grupo_959064" data-name="Grupo 959064" transform="translate(9.796 9.796)">
    <rect id="Rectángulo_340274" data-name="Rectángulo 340274" width="3.862" height="16.384" transform="translate(34.188 46.912) rotate(135)" fill="#ef2648"/>
    <rect id="Rectángulo_340275" data-name="Rectángulo 340275" width="21.847" height="3.862" transform="translate(57.361 34.189) rotate(135)" fill="#ef2648"/>
    <rect id="Rectángulo_340276" data-name="Rectángulo 340276" width="13.517" height="3.862" transform="translate(92.682)" fill="#ef2648"/>
    <rect id="Rectángulo_340277" data-name="Rectángulo 340277" width="11.586" height="3.862" transform="translate(0 30.89)" fill="#ef2648"/>
    <rect id="Rectángulo_340278" data-name="Rectángulo 340278" width="10.924" height="3.862" transform="translate(84.388 7.161) rotate(135)" fill="#ef2648"/>
  </g>
  <g id="Grupo_959065" data-name="Grupo 959065" transform="translate(19.451 4.003)">
    <path id="Trazado_724804" data-name="Trazado 724804" d="M93.577,169.484a7.724,7.724,0,1,1,7.724-7.724A7.724,7.724,0,0,1,93.577,169.484Zm0-11.586a3.862,3.862,0,1,0,3.862,3.862A3.861,3.861,0,0,0,93.577,157.9Z" transform="translate(-85.853 -123.14)" fill="#235087"/>
    <path id="Trazado_724805" data-name="Trazado 724805" d="M178.806,254.714a7.724,7.724,0,1,1,7.724-7.724A7.724,7.724,0,0,1,178.806,254.714Zm0-11.586a3.862,3.862,0,1,0,3.862,3.862A3.861,3.861,0,0,0,178.806,243.128Z" transform="translate(-151.772 -189.06)" fill="#235087"/>
    <path id="Trazado_724806" data-name="Trazado 724806" d="M400.4,33.117a7.724,7.724,0,1,1,7.724-7.724A7.724,7.724,0,0,1,400.4,33.117Zm0-11.586a3.862,3.862,0,1,0,3.862,3.862A3.861,3.861,0,0,0,400.4,21.531Z" transform="translate(-323.163 -17.669)" fill="#235087"/>
  </g>
  <path id="Trazado_724807" data-name="Trazado 724807" d="M144.968,56.286a38.62,38.62,0,0,1-39.292,65.534,38.62,38.62,0,1,0,39.292-65.534Z" transform="translate(-81.733 -43.533)" fill="#99c8e0"/>
  <rect id="Rectángulo_340279" data-name="Rectángulo 340279" width="10.924" height="3.862" transform="translate(82.599 28.536) rotate(135)" fill="#ef2648"/>
  <path id="Trazado_724808" data-name="Trazado 724808" d="M337.059,114.379l-4.406,4.406a38.353,38.353,0,0,1,1.159,4.293l5.391-5.391A39.1,39.1,0,0,0,337.059,114.379Z" transform="translate(-257.286 -88.465)" fill="#b20d24"/>
  <g id="Grupo_959066" data-name="Grupo 959066" transform="translate(2.072 2.072)">
    <path id="Trazado_724809" data-name="Trazado 724809" d="M55.49,9.146A46.344,46.344,0,1,0,101.834,55.49,46.343,46.343,0,0,0,55.49,9.146Zm0,84.964A38.62,38.62,0,1,1,94.11,55.49,38.619,38.619,0,0,1,55.49,94.11Z" transform="translate(-9.146 -9.146)" fill="#235087"/>
    <path id="Trazado_724810" data-name="Trazado 724810" d="M281.082,152.438a7.724,7.724,0,1,1,7.724-7.724A7.724,7.724,0,0,1,281.082,152.438Zm0-11.586a3.862,3.862,0,1,0,3.862,3.862A3.861,3.861,0,0,0,281.082,140.852Z" transform="translate(-213.497 -108.025)" fill="#235087"/>
  </g>
  <path id="Trazado_724811" data-name="Trazado 724811" d="M113.035,98.719,97.491,83.174l-2.73-2.73-5.828-5.828A48.343,48.343,0,1,0,74.616,88.933l5.828,5.828,2.73,2.731,15.545,15.545a10.123,10.123,0,0,0,14.317-14.317ZM4,48.416A44.413,44.413,0,1,1,48.416,92.829,44.412,44.412,0,0,1,4,48.416ZM77.814,86.669a48.541,48.541,0,0,0,8.855-8.855l5.361,5.361L83.174,92.03Zm28.063,25.47a6.224,6.224,0,0,1-4.428-1.834L85.9,94.76,94.76,85.9,110.3,101.449a6.262,6.262,0,0,1-4.428,10.69Z"/>
  <path id="Trazado_724812" data-name="Trazado 724812" d="M75.266,34.715a40.551,40.551,0,1,0,40.551,40.551A40.551,40.551,0,0,0,75.266,34.715Zm0,77.24a36.689,36.689,0,1,1,36.689-36.689A36.69,36.69,0,0,1,75.266,111.955Z" transform="translate(-26.85 -26.85)"/>
</svg>
