<svg xmlns="http://www.w3.org/2000/svg" width="105.179" height="131.475" viewBox="0 0 105.179 131.475">
  <g id="Calculator" transform="translate(-8 -2)">
    <rect id="Rectángulo_340263" data-name="Rectángulo 340263" width="100" height="126" rx="6" transform="translate(11 5)" fill="#d1e7f8"/>
    <rect id="Rectángulo_340264" data-name="Rectángulo 340264" width="22" height="18" rx="2" transform="translate(19 105)" fill="#2488ff"/>
    <rect id="Rectángulo_340265" data-name="Rectángulo 340265" width="22" height="18" rx="2" transform="translate(50 79)" fill="#006df0"/>
    <rect id="Rectángulo_340266" data-name="Rectángulo 340266" width="22" height="18" rx="2" transform="translate(19 79)" fill="#2488ff"/>
    <rect id="Rectángulo_340267" data-name="Rectángulo 340267" width="22" height="18" rx="2" transform="translate(50 52)" fill="#006df0"/>
    <rect id="Rectángulo_340268" data-name="Rectángulo 340268" width="22" height="18" rx="2" transform="translate(19 52)" fill="#2488ff"/>
    <rect id="Rectángulo_340269" data-name="Rectángulo 340269" width="23" height="18" rx="2" transform="translate(80 52)" fill="#006df0"/>
    <rect id="Rectángulo_340270" data-name="Rectángulo 340270" width="84" height="26" rx="2" transform="translate(19 13)" fill="#ffcd00"/>
    <path id="Trazado_724700" data-name="Trazado 724700" d="M17,99.119H87.119a13.147,13.147,0,0,0,13.147-13.147V29C100.267,67.758,63.016,99.119,17,99.119Z" transform="translate(10.721 32.163)" fill="#9bc9ff"/>
    <rect id="Rectángulo_340271" data-name="Rectángulo 340271" width="23" height="44" rx="2" transform="translate(80 79)" fill="#ed1c24"/>
    <rect id="Rectángulo_340272" data-name="Rectángulo 340272" width="22" height="18" rx="2" transform="translate(50 105)" fill="#006df0"/>
    <g id="Grupo_959046" data-name="Grupo 959046" transform="translate(8 2)">
      <path id="Trazado_724701" data-name="Trazado 724701" d="M97.84,133.474h-74.5A15.356,15.356,0,0,1,8,118.135V17.339A15.356,15.356,0,0,1,23.339,2h74.5a15.356,15.356,0,0,1,15.339,15.339v100.8A15.356,15.356,0,0,1,97.84,133.474ZM23.339,6.382A10.969,10.969,0,0,0,12.382,17.339v100.8a10.969,10.969,0,0,0,10.956,10.956h74.5A10.969,10.969,0,0,0,108.8,118.135V17.339A10.969,10.969,0,0,0,97.84,6.382Z" transform="translate(-8 -2)" fill="#231f20"/>
      <path id="Trazado_724702" data-name="Trazado 724702" d="M45.721,69.912H32.574A6.574,6.574,0,0,1,26,63.339V54.574A6.574,6.574,0,0,1,32.574,48H45.721a6.574,6.574,0,0,1,6.574,6.574v8.765A6.574,6.574,0,0,1,45.721,69.912ZM32.574,52.382a2.191,2.191,0,0,0-2.191,2.191v8.765a2.191,2.191,0,0,0,2.191,2.191H45.721a2.191,2.191,0,0,0,2.191-2.191V54.574a2.191,2.191,0,0,0-2.191-2.191Z" transform="translate(13.442 52.796)" fill="#231f20"/>
      <path id="Trazado_724703" data-name="Trazado 724703" d="M31.721,69.912H18.574A6.574,6.574,0,0,1,12,63.339V54.574A6.574,6.574,0,0,1,18.574,48H31.721a6.574,6.574,0,0,1,6.574,6.574v8.765A6.574,6.574,0,0,1,31.721,69.912ZM18.574,52.382a2.191,2.191,0,0,0-2.191,2.191v8.765a2.191,2.191,0,0,0,2.191,2.191H31.721a2.191,2.191,0,0,0,2.191-2.191V54.574a2.191,2.191,0,0,0-2.191-2.191Z" transform="translate(-3.235 52.796)" fill="#231f20"/>
      <path id="Trazado_724704" data-name="Trazado 724704" d="M59.721,84.207H46.574A6.574,6.574,0,0,1,40,77.633V42.574A6.574,6.574,0,0,1,46.574,36H59.721a6.574,6.574,0,0,1,6.574,6.574v35.06A6.574,6.574,0,0,1,59.721,84.207ZM46.574,40.382a2.191,2.191,0,0,0-2.191,2.191v35.06a2.191,2.191,0,0,0,2.191,2.191H59.721a2.191,2.191,0,0,0,2.191-2.191V42.574a2.191,2.191,0,0,0-2.191-2.191Z" transform="translate(30.119 38.502)" fill="#231f20"/>
      <path id="Trazado_724705" data-name="Trazado 724705" d="M45.721,57.912H32.574A6.574,6.574,0,0,1,26,51.339V42.574A6.574,6.574,0,0,1,32.574,36H45.721a6.574,6.574,0,0,1,6.574,6.574v8.765A6.574,6.574,0,0,1,45.721,57.912ZM32.574,40.382a2.191,2.191,0,0,0-2.191,2.191v8.765a2.191,2.191,0,0,0,2.191,2.191H45.721a2.191,2.191,0,0,0,2.191-2.191V42.574a2.191,2.191,0,0,0-2.191-2.191Z" transform="translate(13.442 38.502)" fill="#231f20"/>
      <path id="Trazado_724706" data-name="Trazado 724706" d="M31.721,57.912H18.574A6.574,6.574,0,0,1,12,51.339V42.574A6.574,6.574,0,0,1,18.574,36H31.721a6.574,6.574,0,0,1,6.574,6.574v8.765A6.574,6.574,0,0,1,31.721,57.912ZM18.574,40.382a2.191,2.191,0,0,0-2.191,2.191v8.765a2.191,2.191,0,0,0,2.191,2.191H31.721a2.191,2.191,0,0,0,2.191-2.191V42.574a2.191,2.191,0,0,0-2.191-2.191Z" transform="translate(-3.235 38.502)" fill="#231f20"/>
      <path id="Trazado_724707" data-name="Trazado 724707" d="M45.721,45.912H32.574A6.574,6.574,0,0,1,26,39.339V30.574A6.574,6.574,0,0,1,32.574,24H45.721a6.574,6.574,0,0,1,6.574,6.574v8.765A6.574,6.574,0,0,1,45.721,45.912ZM32.574,28.382a2.191,2.191,0,0,0-2.191,2.191v8.765a2.191,2.191,0,0,0,2.191,2.191H45.721a2.191,2.191,0,0,0,2.191-2.191V30.574a2.191,2.191,0,0,0-2.191-2.191Z" transform="translate(13.442 24.207)" fill="#231f20"/>
      <path id="Trazado_724708" data-name="Trazado 724708" d="M31.721,45.912H18.574A6.574,6.574,0,0,1,12,39.339V30.574A6.574,6.574,0,0,1,18.574,24H31.721a6.574,6.574,0,0,1,6.574,6.574v8.765A6.574,6.574,0,0,1,31.721,45.912ZM18.574,28.382a2.191,2.191,0,0,0-2.191,2.191v8.765a2.191,2.191,0,0,0,2.191,2.191H31.721a2.191,2.191,0,0,0,2.191-2.191V30.574a2.191,2.191,0,0,0-2.191-2.191Z" transform="translate(-3.235 24.207)" fill="#231f20"/>
      <path id="Trazado_724709" data-name="Trazado 724709" d="M59.721,45.912H46.574A6.574,6.574,0,0,1,40,39.339V30.574A6.574,6.574,0,0,1,46.574,24H59.721a6.574,6.574,0,0,1,6.574,6.574v8.765A6.574,6.574,0,0,1,59.721,45.912ZM46.574,28.382a2.191,2.191,0,0,0-2.191,2.191v8.765a2.191,2.191,0,0,0,2.191,2.191H59.721a2.191,2.191,0,0,0,2.191-2.191V30.574a2.191,2.191,0,0,0-2.191-2.191Z" transform="translate(30.119 24.207)" fill="#231f20"/>
      <path id="Trazado_724710" data-name="Trazado 724710" d="M93.075,36.677h-74.5A6.574,6.574,0,0,1,12,30.1V12.574A6.574,6.574,0,0,1,18.574,6h74.5a6.574,6.574,0,0,1,6.574,6.574V30.1A6.574,6.574,0,0,1,93.075,36.677Zm-74.5-26.295a2.191,2.191,0,0,0-2.191,2.191V30.1a2.191,2.191,0,0,0,2.191,2.191h74.5A2.191,2.191,0,0,0,95.267,30.1V12.574a2.191,2.191,0,0,0-2.191-2.191Z" transform="translate(-3.235 2.765)" fill="#231f20"/>
      <path id="Trazado_724711" data-name="Trazado 724711" d="M49.574,26.53A6.574,6.574,0,0,1,43,19.956V15.574a6.574,6.574,0,1,1,13.147,0v4.382A6.574,6.574,0,0,1,49.574,26.53Zm0-13.147a2.191,2.191,0,0,0-2.191,2.191v4.382a2.191,2.191,0,1,0,4.382,0V15.574A2.191,2.191,0,0,0,49.574,13.382Z" transform="translate(33.693 6.339)" fill="#231f20"/>
    </g>
  </g>
</svg>
