<svg xmlns="http://www.w3.org/2000/svg" width="111.977" height="152" viewBox="0 0 111.977 152">
  <g id="obediente_1_" data-name="obediente (1)" transform="translate(-67.407)">
    <path id="Trazado_724736" data-name="Trazado 724736" d="M219.192,62.639a8.637,8.637,0,0,1-4.74-1.41V69h9.48V61.229A8.641,8.641,0,0,1,219.192,62.639Z" transform="translate(-103.391 -43.052)" fill="#e8b800"/>
    <g id="Grupo_959047" data-name="Grupo 959047" transform="translate(69.634 29.459)">
      <path id="Trazado_724737" data-name="Trazado 724737" d="M164.145,173.086a.891.891,0,0,0-1.095,0l-7.108,5.536a.891.891,0,0,1-1.438-.7V153.256a19.294,19.294,0,0,1,12.736-35.965V100.716a1.485,1.485,0,0,0-1.484-1.484h-21.7V110.1a1.189,1.189,0,0,1-1.187,1.188H99.279a1.189,1.189,0,0,1-1.187-1.187V99.232h-21.7a1.485,1.485,0,0,0-1.484,1.484V218.062a1.485,1.485,0,0,0,1.484,1.484h89.365a1.485,1.485,0,0,0,1.484-1.484V175.5Z" transform="translate(-74.907 -99.232)" fill="#f6a96c"/>
    </g>
    <path id="Trazado_724738" data-name="Trazado 724738" d="M87.628,218.062v-6.225H83.507a.891.891,0,0,1-.891-.891V107.833a.891.891,0,0,1,.891-.891h4.121v-6.225a1.485,1.485,0,0,1,1.484-1.484H76.391a1.485,1.485,0,0,0-1.484,1.484V218.062a1.485,1.485,0,0,0,1.484,1.484H89.113A1.485,1.485,0,0,1,87.628,218.062Z" transform="translate(-5.273 -69.773)" fill="#ea9b58"/>
    <path id="Trazado_724739" data-name="Trazado 724739" d="M174.2,196.882a.891.891,0,0,1-1.438-.7V171.51a19.292,19.292,0,0,1,5.027-35.874v-9.543a.891.891,0,0,0-.891-.891H162.316v3.154a1.189,1.189,0,0,1-1.187,1.188h-43.59a1.189,1.189,0,0,1-1.187-1.187V125.2H101.767a.891.891,0,0,0-.891.891V229.206a.891.891,0,0,0,.891.891H176.9a.891.891,0,0,0,.891-.891V194.087Z" transform="translate(-23.533 -88.033)" fill="#dff6fd"/>
    <g id="Grupo_959048" data-name="Grupo 959048" transform="translate(77.343 37.169)">
      <path id="Trazado_724740" data-name="Trazado 724740" d="M109.782,229.206V126.093a.891.891,0,0,1,.891-.891h-8.906a.891.891,0,0,0-.891.891V229.206a.891.891,0,0,0,.891.891h8.906A.891.891,0,0,1,109.782,229.206Z" transform="translate(-100.876 -125.202)" fill="#c8effe"/>
    </g>
    <g id="Grupo_959049" data-name="Grupo 959049" transform="translate(92.521 25.952)">
      <path id="Trazado_724741" data-name="Trazado 724741" d="M197.076,103.273h-43.59A1.485,1.485,0,0,1,152,101.789V88.9a1.485,1.485,0,0,1,1.484-1.484h43.59a1.485,1.485,0,0,1,1.484,1.484v12.886A1.484,1.484,0,0,1,197.076,103.273Z" transform="translate(-152.002 -87.418)" fill="#fac600"/>
    </g>
    <g id="Grupo_959050" data-name="Grupo 959050" transform="translate(92.521 25.952)">
      <path id="Trazado_724742" data-name="Trazado 724742" d="M159.654,101.789V88.9a1.485,1.485,0,0,1,1.484-1.484h-7.652A1.485,1.485,0,0,0,152,88.9v12.886a1.485,1.485,0,0,0,1.484,1.484h7.652A1.484,1.484,0,0,1,159.654,101.789Z" transform="translate(-152.002 -87.418)" fill="#e8b800"/>
    </g>
    <path id="Trazado_724743" data-name="Trazado 724743" d="M352.118,283.483a19.2,19.2,0,0,1-9.093-2.276V305.87a.891.891,0,0,0,1.438.7l7.108-5.536a.891.891,0,0,1,1.095,0l7.108,5.536a.891.891,0,0,0,1.438-.7V281.207a19.207,19.207,0,0,1-9.094,2.276Z" transform="translate(-193.794 -197.724)" fill="#fb2b3a"/>
    <path id="Trazado_724744" data-name="Trazado 724744" d="M343.025,281.207V305.87a.891.891,0,0,0,1.438.7l6.13-4.774V283.417A19.172,19.172,0,0,1,343.025,281.207Z" transform="translate(-193.794 -197.724)" fill="#e41f2d"/>
    <g id="Grupo_959053" data-name="Grupo 959053" transform="translate(139.03 47.17)">
      <g id="Grupo_959051" data-name="Grupo 959051" transform="translate(0 0)">
        <circle id="Elipse_5725" data-name="Elipse 5725" cx="19.295" cy="19.295" r="19.295" fill="#4fc123"/>
      </g>
      <g id="Grupo_959052" data-name="Grupo 959052">
        <path id="Trazado_724745" data-name="Trazado 724745" d="M318.5,178.184a19.3,19.3,0,0,1,14.377-18.66,19.295,19.295,0,1,0,0,37.32,19.3,19.3,0,0,1-14.377-18.66Z" transform="translate(-308.663 -158.889)" fill="#47a920"/>
      </g>
    </g>
    <g id="Grupo_959054" data-name="Grupo 959054" transform="translate(107.121 2.227)">
      <circle id="Elipse_5726" data-name="Elipse 5726" cx="8.68" cy="8.68" r="8.68" transform="translate(0)" fill="#fac600"/>
    </g>
    <g id="Grupo_959055" data-name="Grupo 959055" transform="translate(107.121 2.227)">
      <path id="Trazado_724746" data-name="Trazado 724746" d="M208.637,16.18a8.68,8.68,0,0,1,4.951-7.84,8.68,8.68,0,1,0,0,15.679A8.68,8.68,0,0,1,208.637,16.18Z" transform="translate(-201.179 -7.5)" fill="#e8b800"/>
    </g>
    <g id="Grupo_959056" data-name="Grupo 959056" transform="translate(67.407 0)">
      <path id="Trazado_724747" data-name="Trazado 724747" d="M147.736,185.807l-5.046,5.046-2.7-2.7a2.226,2.226,0,0,0-3.149,3.149l4.271,4.271a2.226,2.226,0,0,0,3.149,0l6.62-6.62a2.227,2.227,0,1,0-3.149-3.149Z" transform="translate(-115.772 -130.187)"/>
      <path id="Trazado_724748" data-name="Trazado 724748" d="M147.736,255.251l-5.046,5.046-2.7-2.7a2.226,2.226,0,0,0-3.149,3.149l4.271,4.271a2.226,2.226,0,0,0,3.149,0l6.62-6.62a2.227,2.227,0,0,0-3.149-3.149Z" transform="translate(-115.772 -179.015)"/>
      <path id="Trazado_724749" data-name="Trazado 724749" d="M204.477,282.593h31.882a2.227,2.227,0,0,0,0-4.453H204.477a2.227,2.227,0,0,0,0,4.453Z" transform="translate(-162.218 -195.567)"/>
      <path id="Trazado_724750" data-name="Trazado 724750" d="M147.736,324.694l-5.046,5.046-2.7-2.7a2.226,2.226,0,1,0-3.149,3.149l4.271,4.271a2.226,2.226,0,0,0,3.149,0l6.62-6.62a2.227,2.227,0,0,0-3.149-3.149Z" transform="translate(-115.772 -227.842)"/>
      <path id="Trazado_724751" data-name="Trazado 724751" d="M236.358,322.8H204.477a2.227,2.227,0,1,0,0,4.453h31.882a2.227,2.227,0,0,0,0-4.453Z" transform="translate(-162.218 -226.969)"/>
      <path id="Trazado_724752" data-name="Trazado 724752" d="M236.358,347.583H204.477a2.227,2.227,0,0,0,0,4.453h31.882a2.227,2.227,0,0,0,0-4.453Z" transform="translate(-162.218 -244.394)"/>
      <path id="Trazado_724753" data-name="Trazado 724753" d="M147.736,394.136l-5.046,5.046-2.7-2.7a2.226,2.226,0,0,0-3.149,3.149l4.271,4.271a2.226,2.226,0,0,0,3.149,0l6.62-6.62a2.227,2.227,0,0,0-3.149-3.149Z" transform="translate(-115.772 -276.669)"/>
      <path id="Trazado_724754" data-name="Trazado 724754" d="M236.358,392.243H204.477a2.227,2.227,0,0,0,0,4.453h31.882a2.227,2.227,0,0,0,0-4.453Z" transform="translate(-162.218 -275.796)"/>
      <path id="Trazado_724755" data-name="Trazado 724755" d="M238.585,419.252a2.227,2.227,0,0,0-2.227-2.227H204.477a2.227,2.227,0,0,0,0,4.453h31.882A2.227,2.227,0,0,0,238.585,419.252Z" transform="translate(-162.218 -293.221)"/>
      <path id="Trazado_724756" data-name="Trazado 724756" d="M177.639,68.483a2.226,2.226,0,0,0-2.656,1.692,17.067,17.067,0,1,1-.5-9.193A2.227,2.227,0,1,0,178.7,59.55a21.512,21.512,0,0,0-14.51-13.793V30.944a3.715,3.715,0,0,0-3.711-3.711H141.3a3.712,3.712,0,0,0-3.7-3.507H122.767V19.292a10.907,10.907,0,1,0-13.933,0v4.434H94.005a3.712,3.712,0,0,0-3.7,3.507H71.118a3.715,3.715,0,0,0-3.711,3.711V148.289A3.715,3.715,0,0,0,71.118,152h89.365a3.715,3.715,0,0,0,3.711-3.711V110.281l.418.325a3.117,3.117,0,0,0,5.033-2.459V84.766a21.364,21.364,0,0,0,2.239-1.591,21.606,21.606,0,0,0,7.448-12.037,2.226,2.226,0,0,0-1.692-2.656Zm-17.9-23.489c-.469-.031-.941-.05-1.416-.05-.62,0-1.233.032-1.84.084V38.06a3.121,3.121,0,0,0-3.117-3.117H141.306V31.686h18.434ZM115.8,4.453a6.453,6.453,0,1,1-6.453,6.453A6.461,6.461,0,0,1,115.8,4.453Zm-2.513,17.065a10.838,10.838,0,0,0,5.026,0v2.208h-5.026V21.518Zm46.454,126.029H71.86V31.686H90.295v3.256H78.234a3.121,3.121,0,0,0-3.117,3.117V141.173a3.121,3.121,0,0,0,3.117,3.117h54.3a2.227,2.227,0,0,0,0-4.453H79.57V39.4H90.295v.927a3.715,3.715,0,0,0,3.711,3.711h7.949a2.227,2.227,0,0,0,0-4.453H94.748v-11.4h42.105v11.4H112.345a2.227,2.227,0,0,0,0,4.453H137.6a3.715,3.715,0,0,0,3.711-3.711V39.4h10.725v6.489A21.61,21.61,0,0,0,140.382,54.6H109.665a2.227,2.227,0,0,0,0,4.453h28.454a21.337,21.337,0,0,0-.837,2.9H109.665a2.227,2.227,0,0,0,0,4.453H136.8c0,.018,0,.037,0,.055a21.387,21.387,0,0,0,1.867,8.751h-29a2.227,2.227,0,0,0,0,4.453h31.683A21.681,21.681,0,0,0,147,84.757v23.39a3.113,3.113,0,0,0,5.026,2.463v29.227h-9.108a2.227,2.227,0,0,0,0,4.453h10.444a3.121,3.121,0,0,0,3.117-3.117v-34.03l1.84-1.433,1.416,1.1v40.734Zm5.451-42.134-4.951-3.856a3.114,3.114,0,0,0-3.831,0l-4.951,3.856V86.856a21.4,21.4,0,0,0,13.733,0Z" transform="translate(-67.407 0)"/>
      <path id="Trazado_724757" data-name="Trazado 724757" d="M358.257,202.57,350,210.828l-4.769-4.769a2.226,2.226,0,1,0-3.149,3.149l6.344,6.344a2.226,2.226,0,0,0,3.149,0l9.832-9.833a2.227,2.227,0,1,0-3.149-3.149Z" transform="translate(-260.079 -141.974)"/>
      <path id="Trazado_724758" data-name="Trazado 724758" d="M212.852,108.849a2.227,2.227,0,0,0-2.227-2.227H189.408a2.227,2.227,0,0,0,0,4.453h21.218A2.227,2.227,0,0,0,212.852,108.849Z" transform="translate(-151.623 -74.969)"/>
    </g>
  </g>
</svg>
