<svg xmlns="http://www.w3.org/2000/svg" width="358.865" height="208.084" viewBox="0 0 358.865 208.084">
  <g id="Grupo_958917" data-name="Grupo 958917" transform="translate(-360.925 -1547.172)">
    <path id="Trazado_724469" data-name="Trazado 724469" d="M719.79,1632.986c0-35.8-52.757-64.827-117.837-64.827h0c-22.578,0-43.672,3.494-61.6,9.552-17.923-6.058-39.017-9.552-61.6-9.552h0c-65.079,0-117.837,29.024-117.837,64.827h0c0,12.421,6.352,24.026,17.363,33.886-11.011,9.86-17.363,21.465-17.363,33.886h0c0,35.8,52.757,64.826,117.837,64.826h0c22.578,0,43.672-3.494,61.6-9.552,17.923,6.058,39.017,9.552,61.6,9.552h0c65.079,0,117.837-29.024,117.837-64.826h0c0-12.421-6.352-24.026-17.363-33.886,11.011-9.86,17.363-21.465,17.363-33.886Z" transform="translate(0 -19.585)" fill="#ccd3e2"/>
    <g id="Grupo_958906" data-name="Grupo 958906" transform="translate(666.758 1717.423)">
      <path id="Trazado_724470" data-name="Trazado 724470" d="M4952.282,4110.782l4.412,2.676a8.645,8.645,0,0,0,8.963,0l4.411-2.676-2.676,4.412a8.641,8.641,0,0,0,0,8.962l2.676,4.412-4.411-2.676a8.643,8.643,0,0,0-8.963,0l-4.412,2.676,2.676-4.412a8.639,8.639,0,0,0,0-8.962Z" transform="translate(-4951.121 -4109.621)" fill="#94e3ff"/>
      <path id="Trazado_724471" data-name="Trazado 724471" d="M4936.078,4113.526a1.161,1.161,0,0,1-.993-1.763l2.675-4.412a7.454,7.454,0,0,0,0-7.759l-2.675-4.412a1.161,1.161,0,0,1,1.595-1.595l4.412,2.676a7.458,7.458,0,0,0,7.759,0l4.412-2.676a1.161,1.161,0,0,1,1.595,1.595l-2.675,4.412a7.456,7.456,0,0,0,0,7.759l2.675,4.412a1.161,1.161,0,0,1-1.595,1.595l-4.412-2.676a7.458,7.458,0,0,0-7.759,0l-4.412,2.676A1.158,1.158,0,0,1,4936.078,4113.526Zm3.451-15.5.217.358a9.77,9.77,0,0,1,0,10.167l-.217.358.358-.217a9.772,9.772,0,0,1,10.167,0l.358.217-.217-.358a9.772,9.772,0,0,1,0-10.167l.218-.358-.358.217a9.773,9.773,0,0,1-10.167,0Z" transform="translate(-4934.917 -4093.417)" fill="#3b5c91"/>
    </g>
    <g id="Grupo_958907" data-name="Grupo 958907" transform="translate(673.939 1552.644)">
      <path id="Trazado_724472" data-name="Trazado 724472" d="M5059.674,1658.95l5.012-1.227a8.643,8.643,0,0,0,6.338-6.338l1.227-5.011,1.228,5.011a8.642,8.642,0,0,0,6.338,6.338l5.011,1.227-5.011,1.227a8.642,8.642,0,0,0-6.338,6.338l-1.228,5.011-1.227-5.011a8.643,8.643,0,0,0-6.338-6.338Z" transform="translate(-5058.513 -1645.212)" fill="#ffd385"/>
      <path id="Trazado_724473" data-name="Trazado 724473" d="M5056.048,1656.485h0a1.161,1.161,0,0,1-1.127-.885l-1.228-5.011a7.458,7.458,0,0,0-5.486-5.486l-5.011-1.228a1.161,1.161,0,0,1,0-2.255l5.011-1.228a7.458,7.458,0,0,0,5.486-5.486l1.228-5.011a1.161,1.161,0,0,1,2.255,0l1.227,5.011a7.458,7.458,0,0,0,5.487,5.486l5.012,1.228a1.161,1.161,0,0,1,0,2.255l-5.012,1.228a7.458,7.458,0,0,0-5.487,5.486l-1.227,5.011A1.161,1.161,0,0,1,5056.048,1656.485Zm-7.7-13.738.407.1a9.772,9.772,0,0,1,7.189,7.189l.1.407.1-.407a9.773,9.773,0,0,1,7.19-7.189l.407-.1-.407-.1a9.774,9.774,0,0,1-7.19-7.189l-.1-.407-.1.407a9.773,9.773,0,0,1-7.189,7.189Z" transform="translate(-5042.31 -1629.009)" fill="#3b5c91"/>
    </g>
    <g id="Grupo_958908" data-name="Grupo 958908" transform="translate(368.717 1562.707)">
      <path id="Trazado_724474" data-name="Trazado 724474" d="M494.958,1801.226l4.088,15.257a3.45,3.45,0,0,0,5.773,1.547l11.169-11.169a3.451,3.451,0,0,0-1.547-5.773L499.184,1797A3.45,3.45,0,0,0,494.958,1801.226Z" transform="translate(-493.675 -1795.717)" fill="#ffd385"/>
      <path id="Trazado_724475" data-name="Trazado 724475" d="M486.189,1804a4.69,4.69,0,0,1-1.214-.161,4.564,4.564,0,0,1-3.261-3.261l-4.088-15.257h0a4.611,4.611,0,0,1,5.648-5.648l15.257,4.088a4.612,4.612,0,0,1,2.067,7.715l-11.169,11.169A4.561,4.561,0,0,1,486.189,1804Zm-6.321-19.28,4.088,15.257a2.289,2.289,0,0,0,3.83,1.026l11.169-11.169a2.289,2.289,0,0,0-1.026-3.83l-15.257-4.088a2.289,2.289,0,0,0-2.8,2.8Z" transform="translate(-477.464 -1779.508)" fill="#3b5c91"/>
    </g>
    <g id="Grupo_958909" data-name="Grupo 958909" transform="translate(544.183 1730.44)">
      <path id="Trazado_724476" data-name="Trazado 724476" d="M3138.144,4325.079l2.59-15.582a3.45,3.45,0,0,0-4.616-3.8l-14.789,5.548a3.451,3.451,0,0,0-.98,5.9l12.2,10.033A3.45,3.45,0,0,0,3138.144,4325.079Z" transform="translate(-3117.927 -4304.314)" fill="#ff9494"/>
      <path id="Trazado_724477" data-name="Trazado 724477" d="M3118.5,4312.913a4.569,4.569,0,0,1-2.914-1.056l-12.2-10.033a4.611,4.611,0,0,1,1.31-7.879l14.789-5.548a4.611,4.611,0,0,1,6.169,5.074l-2.59,15.582a4.565,4.565,0,0,1-2.929,3.562A4.652,4.652,0,0,1,3118.5,4312.913Zm2.613-22.491a2.3,2.3,0,0,0-.812.149l-14.789,5.548a2.289,2.289,0,0,0-.65,3.912l12.2,10.034a2.29,2.29,0,0,0,3.713-1.393h0l2.59-15.581a2.294,2.294,0,0,0-2.251-2.668Z" transform="translate(-3101.706 -4288.096)" fill="#3b5c91"/>
    </g>
    <g id="Grupo_958910" data-name="Grupo 958910" transform="translate(368.946 1726.258)">
      <path id="Trazado_724478" data-name="Trazado 724478" d="M493.477,4234.462l4.453-4.454a2.605,2.605,0,0,0-3.684-3.684l-4.453,4.454-4.454-4.454a2.605,2.605,0,1,0-3.684,3.684l4.453,4.454-4.453,4.453a2.605,2.605,0,1,0,3.684,3.684l4.454-4.453,4.453,4.453a2.605,2.605,0,1,0,3.684-3.684Z" transform="translate(-480.892 -4225.561)" fill="#ff9494"/>
    </g>
    <g id="Grupo_958911" data-name="Grupo 958911" transform="translate(497.131 1547.172)">
      <path id="Trazado_724479" data-name="Trazado 724479" d="M2416.275,1555.145h-5.64v-5.64a2.333,2.333,0,0,0-4.666,0v5.641h-5.64a2.333,2.333,0,0,0,0,4.666h5.64v5.64a2.333,2.333,0,0,0,4.666,0v-5.641h5.64a2.333,2.333,0,1,0,0-4.666Z" transform="translate(-2397.995 -1547.172)" fill="#ff9494"/>
    </g>
    <g id="Grupo_958916" data-name="Grupo 958916" transform="translate(390.737 1578.974)">
      <path id="Trazado_724480" data-name="Trazado 724480" d="M1203.874,2387.123l-1.765-2.146q-1.464-1.781-2.983-3.525-4.825-5.541-10.185-10.689l-.462-.442-.413-.392q-.439-.416-.88-.828l-.443-.412-.444-.411-.446-.409-.448-.408-.45-.406-.006-.006q-.4-.358-.8-.714l-.553-.49-.456-.4-.457-.4-.479-.415q-.24-.207-.48-.413l-.442-.378-.444-.376-.465-.392-.467-.39q-.694-.577-1.393-1.147l-.092-.075q-.419-.34-.838-.678l-.035-.028q-.4-.323-.808-.645c-.066-.053-.132-.1-.2-.156l-.427-.337-.32-.251-.308-.241-.335-.26q-.482-.374-.969-.745a184.251,184.251,0,0,0-33.275-20.144,201.177,201.177,0,0,0-37.141-13.158,213.171,213.171,0,0,0-39.544-5.92l-.93-.049-.694-.034-.494-.023q-.428-.02-.857-.037l-.6-.024-.335-.013-.6-.021q-.471-.017-.944-.03l-.259-.007-.837-.022-.922-.021h-.015l-.938-.017-.116,0-.822-.011q-.464-.006-.927-.009h-.027l-.881,0h-1.091l-.709,0-.919.007-.512.005q-.8.009-1.609.024c-.253.005-.506.01-.76.017q-.447.009-.894.021l-.354.01-.708.021q-.458.014-.917.031-.862.03-1.721.068l-.38.017-.537.025-.152.007-.382.02-.261.013-.427.023-.205.011-.48.026-.384.022-.1.005-.6.036-.067,0-.72.046-.121.007-.449.031-.618.042-.835.061q-.561.042-1.12.087l-.711.058-.061.005q-2.1.175-4.193.392l-1.873.193-1.339-2.867a4.52,4.52,0,0,0-3.932-2.457,5.1,5.1,0,0,0-3.817,1.35,3.456,3.456,0,0,0-1,3.346l.473,1.937-.072.011q-6.038.96-11.959,2.257l-.116.025-.563.124-.046.01q-.545.121-1.088.246-.482.109-.961.221l-.594.139-.212.05-.565.135q-.6.144-1.2.292l-.518.128c-.2.05-.4.1-.6.152l-.208.052q-.344.086-.688.176-.793.2-1.585.414l-.5.135-.336.091-.517.141q-.471.128-.941.259t-.939.264l-.248.07-.526.151-.111.031-.589.171-.1.03q-.641.186-1.28.378l-.532.16-.222.067-.5.151-.239.073-.5.154-.123.038q-.624.193-1.245.392l-.668.214-.667.216q-.666.217-1.33.438l-.663.223-.528.179-.237.08-.559.193-.661.229q-.66.23-1.317.466l-.619.222-.1.036-.531.193-.27.1-.449.165q-.708.261-1.414.528l-.434.165q-1.043.4-2.081.806l-.625.247-.57.228q-1.03.413-2.055.839l-.486.2-.23.1-.4.167-.32.135-.441.188c-.282.12-.564.241-.846.363l-.683.3c-.23.1-.46.2-.69.3q-1.169.516-2.33,1.047l-.356.164-.627.29q-.4.184-.795.371a181.613,181.613,0,0,0-46.785,31.481l-2.075,1.934-2.209,2.061,2.419,1.882,2.271,1.766.254.2.064.05,1,.777.077.06,1.273.99.183.142.5.389.262.2.173.135.745.58.21.163.149.116.033.026.134.1.766.6.161.125.629.49.149.116.3.234.442.343.966.752.162.126.884.688.186.145.594.462.343.267.617.48.2.155.2.155,1.459,1.136.362.282,1.652,1.285,21.6,16.8,2.271,1.766,2.419,1.882,2.21-2.061,2.074-1.935c18.022-16.808,41.341-27.8,67.435-31.777l.378-.058,2.487,10.173c1.859,7.6,3.759,15.375,4.524,18.5a20.345,20.345,0,0,0-5.526,9.084,18.433,18.433,0,0,0,.514,11.486,21.508,21.508,0,0,0,8.589,10.425,26.651,26.651,0,0,0,6.406,3.033,28.667,28.667,0,0,0,7.2,1.328,29.379,29.379,0,0,0,7.337-.517,27.964,27.964,0,0,0,6.827-2.288,22.973,22.973,0,0,0,10.178-9.407,19.27,19.27,0,0,0,1.885-4.81,18.055,18.055,0,0,0,.493-4.872,18.378,18.378,0,0,0-.8-4.739,19.787,19.787,0,0,0-1.992-4.432,21.672,21.672,0,0,0-3.068-3.942,23.736,23.736,0,0,0-4.061-3.3,26.012,26.012,0,0,0-4.953-2.489,28.238,28.238,0,0,0-3.906-1.153l-11.04-23.634c2.6,0,5.219.074,7.8.217,36.626,2.018,69.718,17.876,90.789,43.506l1.764,2.146,1.879,2.286,2.684-1.6,2.52-1.5,38.371-22.882,2.371-1.414,2.52-1.5,2.684-1.6Z" transform="translate(-905.967 -2295.068)" fill="#c1d9e0" style="mix-blend-mode: multiply;isolation: isolate"/>
      <g id="Grupo_958915" data-name="Grupo 958915" transform="translate(0 0)">
        <g id="Grupo_958912" data-name="Grupo 958912" transform="translate(0 6.537)">
          <path id="Trazado_724481" data-name="Trazado 724481" d="M841.226,2217.3l2.947-3.679a181.351,181.351,0,0,1,43.9-39.551,179.432,179.432,0,0,1,52.478-22.717l4.475-1.139,3.582,12.947-4.684,1.175a166.6,166.6,0,0,0-83.668,50.353c4.224,3.536,8.529,7.046,12.7,10.449,4.256,3.469,8.645,7.047,12.968,10.669a133.773,133.773,0,0,1,66.975-39.925l4.452-1.1,3.463,12.518-4.707,1.161a120.7,120.7,0,0,0-65.771,42.153l-2.947,3.679Z" transform="translate(-838.923 -2148.231)" fill="#ffd385"/>
          <path id="Trazado_724482" data-name="Trazado 724482" d="M922,2166.21l-1.591.394-.029.007a135.394,135.394,0,0,0-66.729,39.258c-3.939-3.285-7.917-6.527-11.785-9.68l-3.2-2.61c-2.715-2.217-5.459-4.469-8.178-6.732a164.938,164.938,0,0,1,81.7-48.6l.348-.087-.437-1.58-.437-1.579-.271.068a168.074,168.074,0,0,0-85.614,52.112c3.539,2.981,7.143,5.941,10.7,8.847q1.665,1.359,3.312,2.7c4.662,3.8,9.46,7.711,14.161,11.672a132.161,132.161,0,0,1,67.21-40.608l.118-.029,1.59-.394Q922.44,2167.789,922,2166.21Zm-1.153,1.974-.437-1.58-.029.007a135.394,135.394,0,0,0-66.729,39.258c-3.939-3.285-7.917-6.527-11.785-9.68l-3.2-2.61q-1.1,1.213-2.182,2.447,1.665,1.359,3.312,2.7c4.662,3.8,9.46,7.711,14.161,11.672a132.161,132.161,0,0,1,67.21-40.608l.118-.029Zm8.972,9.374-.844-3.049-.947-3.425-.8-2.884-.85-3.073-2.788.69-.306.076-1.284.318-1.591.394-.029.007a135.394,135.394,0,0,0-66.729,39.258c-3.939-3.285-7.917-6.527-11.785-9.68l-3.2-2.61c-2.715-2.217-5.459-4.469-8.178-6.732a164.938,164.938,0,0,1,81.7-48.6l.348-.087,1.589-.4,1.119-.281.47-.117,2.786-.7-.313-1.134v0h0l-.58-2.1-.84-3.037-1.063-3.842-.05-.178-.754-2.726-.411-1.485-.438-1.584-.007-.024-.376.1h0l-2.27.578-.136.035-.327.083-1.261.321-1.588.4-.071.018q-5.953,1.515-11.763,3.416l-.114.038-.552.182-.046.015q-.535.177-1.067.358-.472.159-.942.322l-.582.2-.207.073-.554.194q-.587.208-1.173.419l-.507.184c-.2.072-.394.143-.591.217l-.2.075q-.337.123-.673.251-.776.29-1.55.588l-.493.191c-.11.042-.219.084-.328.128-.168.065-.337.131-.5.2q-.461.181-.919.365t-.917.37l-.242.1-.514.211-.108.044-.574.238-.1.042q-.626.26-1.248.526l-.519.222-.216.093-.483.209-.233.1-.483.212-.12.053q-.608.267-1.213.539l-.65.294-.649.3q-.648.3-1.294.6l-.645.3-.513.244-.23.11-.544.262c-.215.1-.428.208-.642.312q-.641.312-1.279.631l-.6.3-.1.049-.515.26-.262.133-.436.223q-.687.352-1.371.71l-.421.221q-1.011.532-2.015,1.078l-.605.33-.552.3q-1,.551-1.987,1.115l-.469.268-.223.128-.383.221-.309.179-.426.248q-.409.239-.816.48l-.659.392q-.333.2-.665.4-1.127.68-2.246,1.377l-.343.215q-.3.188-.6.38-.383.241-.765.486a182.979,182.979,0,0,0-44.3,39.907l-1.924,2.4-2.048,2.557,2.557,2.049,2.4,1.923.269.215.068.055,1.056.846.081.065,1.345,1.078.193.155.528.423.277.222.183.146.788.631.222.177.158.126c.011.01.023.02.036.029l.141.113.809.648.171.136.665.533.157.126.318.255.467.374,1.021.819.171.137.935.749.2.157.628.5.362.29.652.522.21.168.211.169,1.542,1.236.383.307,1.746,1.4,22.827,18.287,2.4,1.923,2.557,2.049,2.049-2.557,1.923-2.4a119.074,119.074,0,0,1,64.885-41.586l.372-.092,1.591-.393,1.108-.273.483-.119,2.789-.688Zm-4.355,1.169-1.591.393-.283.07a122.317,122.317,0,0,0-66.657,42.719l-1.923,2.4-2.4-1.923L829.784,2204.1,813.8,2191.288l-2.4-1.923,1.924-2.4a179.721,179.721,0,0,1,43.509-39.195,177.788,177.788,0,0,1,52-22.51l.136-.035,1.588-.4,1.195-.3.8,2.9,1.063,3.842.84,3.037-1.2.3-1.589.4-.271.068a168.074,168.074,0,0,0-85.614,52.112c3.539,2.981,7.143,5.941,10.7,8.847q1.665,1.359,3.312,2.7c4.662,3.8,9.46,7.711,14.161,11.672a132.161,132.161,0,0,1,67.21-40.608l.118-.029,1.59-.394,1.2-.3.8,2.885.948,3.425.843,3.049ZM922,2166.21l-1.591.394-.029.007a135.394,135.394,0,0,0-66.729,39.258c-3.939-3.285-7.917-6.527-11.785-9.68l-3.2-2.61c-2.715-2.217-5.459-4.469-8.178-6.732a164.938,164.938,0,0,1,81.7-48.6l.348-.087-.437-1.58-.437-1.579-.271.068a168.074,168.074,0,0,0-85.614,52.112c3.539,2.981,7.143,5.941,10.7,8.847q1.665,1.359,3.312,2.7c4.662,3.8,9.46,7.711,14.161,11.672a132.161,132.161,0,0,1,67.21-40.608l.118-.029,1.59-.394Q922.44,2167.789,922,2166.21Z" transform="translate(-806.79 -2120.55)" fill="#3b5c91"/>
        </g>
        <g id="Grupo_958913" data-name="Grupo 958913" transform="translate(104.546 2.38)">
          <path id="Trazado_724483" data-name="Trazado 724483" d="M2541.06,2187.791a121.382,121.382,0,0,0-95.176-45.727c-3.36,0-6.765.139-10.12.415l-3.246.266-5.917-12.462,6.72-.619c4.143-.382,8.352-.576,12.511-.576a136.4,136.4,0,0,1,28.265,2.964,133.876,133.876,0,0,1,71.377,40.938c4.329-3.617,8.729-7.18,13-10.635,4.182-3.386,8.491-6.874,12.715-10.4a168.718,168.718,0,0,0-125.4-55.564,171.714,171.714,0,0,0-30.156,2.673l-3.544.634-5.951-12.535,6.013-1.128a182.563,182.563,0,0,1,73.315,1.2,179.859,179.859,0,0,1,72.137,34.161,182.8,182.8,0,0,1,29.638,29.4l2.948,3.679-46.173,36.991Z" transform="translate(-2403.737 -2081.253)" fill="#ff9494"/>
          <path id="Trazado_724484" data-name="Trazado 724484" d="M2454.545,2077.115h0a172.741,172.741,0,0,0-71.968-2.637l-.618.109-1.054.188,1.456,3.068.174-.031q.4-.071.791-.139.354-.062.709-.122a170.116,170.116,0,0,1,28.369-2.386q7.932,0,15.761.738h0a166.881,166.881,0,0,1,107.277,53.024c-3.789,3.145-7.635,6.259-11.378,9.288l0,0c-3.88,3.141-7.869,6.371-11.819,9.653a136.991,136.991,0,0,0-18.128-16.276,135.524,135.524,0,0,0-53.058-24.009,138.024,138.024,0,0,0-28.6-3h-.007c-4.208,0-8.468.2-12.661.583l-2.535.234,1.5,3.152,1.339-.123c4.093-.378,8.252-.569,12.36-.569h.007a134.711,134.711,0,0,1,27.918,2.928,132.288,132.288,0,0,1,71.559,41.606c4.706-3.957,9.517-7.851,14.189-11.635,4.626-3.745,9.386-7.6,14.028-11.5A169.382,169.382,0,0,0,2454.545,2077.115Zm102.512,52.2-1.924-2.4q-1.6-1.992-3.244-3.938-5.235-6.18-10.974-11.866l-.494-.488-.442-.433q-.469-.459-.942-.913l-.473-.454-.475-.453-.476-.451-.478-.448-.479-.447-.007-.007q-.424-.394-.851-.786l-.589-.538-.485-.44-.487-.438c-.17-.152-.339-.3-.51-.455s-.34-.3-.511-.453l-.47-.414-.471-.412-.494-.429-.5-.427q-.736-.631-1.477-1.254l-.1-.082q-.443-.371-.888-.74l-.037-.03q-.426-.353-.855-.7l-.209-.17-.451-.367-.338-.273-.325-.262-.354-.283q-.51-.407-1.023-.81a181.507,181.507,0,0,0-72.794-34.472,183.972,183.972,0,0,0-39.91-4.384q-.466,0-.932,0l-.7,0-.495.005q-.428,0-.858.012c-.2,0-.4.007-.6.01l-.336.007-.6.014q-.472.011-.944.025l-.259.008-.836.028q-.461.016-.922.035h-.016q-.468.019-.937.041l-.116.005-.821.04q-.463.023-.925.049h-.027l-.879.052-.178.011-.618.04-.293.019-.708.049c-.305.021-.61.044-.917.068-.171.013-.34.025-.511.039q-.8.062-1.6.133c-.252.022-.5.044-.757.068-.3.026-.594.054-.891.083l-.353.035-.705.07q-.456.046-.913.1-.857.091-1.712.191l-.378.044-.534.064-.151.018-.38.048-.259.032-.424.054-.2.026-.477.062-.381.051-.095.013-.6.081-.066.009-.715.1-.12.017-.446.065-.614.09-.829.126q-.557.085-1.111.174l-.705.114-.061.01q-2.082.341-4.155.73l-1.854.348-1.665.312-.4.076-1.261.237-.2.038-.383.072h0l-2.336.439.066.14.716,1.508,1.041,2.194.959,2.02.753,1.586,1.783,3.756,1.007,2.122.53,1.115h0v0l.543,1.143,2.463-.441.466-.083,1.672-.3.174-.031q.4-.071.791-.139.354-.062.709-.122a170.116,170.116,0,0,1,28.369-2.386q7.932,0,15.761.738h0a166.881,166.881,0,0,1,107.277,53.024c-3.789,3.145-7.635,6.259-11.378,9.288l0,0c-3.88,3.141-7.869,6.371-11.819,9.653a136.991,136.991,0,0,0-18.128-16.276,135.524,135.524,0,0,0-53.058-24.009,138.024,138.024,0,0,0-28.6-3h-.007c-4.208,0-8.468.2-12.661.583l-2.535.234-1.737.16-.112.01-1.625.15-3.045.281,2.012,4.237,1.888,3.978,1.625,3.423.911,1.92.971,2.045,2.257-.185.8-.066,1.315-.108.43-.034q.875-.069,1.754-.125c2.6-.166,5.213-.25,7.8-.25a119.753,119.753,0,0,1,93.9,45.114l1.923,2.4,2.049,2.557,2.557-2.049,2.4-1.923,36.556-29.287,2.259-1.809,2.4-1.923,2.557-2.049Zm-4.957,3.972-.211.169-38.6,30.927-2.4,1.923-1.923-2.4a123.013,123.013,0,0,0-96.455-46.341c-3.09,0-6.218.117-9.311.347q-.472.034-.943.073l-.8.066-1.313.108-.912-1.92-1.625-3.424-1.888-3.978,1.308-.12,1.737-.161,1.339-.123c4.093-.378,8.252-.569,12.36-.569h.007a134.711,134.711,0,0,1,27.918,2.928,132.288,132.288,0,0,1,71.559,41.606c4.706-3.957,9.517-7.851,14.189-11.635,4.626-3.745,9.386-7.6,14.028-11.5a169.382,169.382,0,0,0-85.61-52.146h0a172.741,172.741,0,0,0-71.968-2.637l-.618.109-1.054.188-1.259.225-1.007-2.122-1.783-3.756-1.712-3.606,1.253-.235,1.665-.312,1.006-.189a180.923,180.923,0,0,1,72.656,1.192,178.21,178.21,0,0,1,70.574,33.143h0q.454.352.906.707a181.077,181.077,0,0,1,28.685,28.286q.345.425.687.852l1.923,2.4Zm-97.555-56.169h0a172.741,172.741,0,0,0-71.968-2.637l-.618.109-1.054.188,1.456,3.068.174-.031q.4-.071.791-.139.354-.062.709-.122a170.116,170.116,0,0,1,28.369-2.386q7.932,0,15.761.738h0a166.881,166.881,0,0,1,107.277,53.024c-3.789,3.145-7.635,6.259-11.378,9.288l0,0c-3.88,3.141-7.869,6.371-11.819,9.653a136.991,136.991,0,0,0-18.128-16.276,135.524,135.524,0,0,0-53.058-24.009,138.024,138.024,0,0,0-28.6-3h-.007c-4.208,0-8.468.2-12.661.583l-2.535.234,1.5,3.152,1.339-.123c4.093-.378,8.252-.569,12.36-.569h.007a134.711,134.711,0,0,1,27.918,2.928,132.288,132.288,0,0,1,71.559,41.606c4.706-3.957,9.517-7.851,14.189-11.635,4.626-3.745,9.386-7.6,14.028-11.5A169.382,169.382,0,0,0,2454.545,2077.115Z" transform="translate(-2370.36 -2058.39)" fill="#3b5c91"/>
        </g>
        <path id="Trazado_724485" data-name="Trazado 724485" d="M1251.153,2412.317l-.029.007a135.392,135.392,0,0,0-66.729,39.259c-3.94-3.285-7.917-6.527-11.785-9.681-3.742-3.05-7.586-6.184-11.379-9.343a164.94,164.94,0,0,1,81.7-48.6l.348-.088Z" transform="translate(-1137.531 -2359.727)" fill="#fff"/>
        <path id="Trazado_724486" data-name="Trazado 724486" d="M2726.289,2363.031c-3.789,3.145-7.635,6.258-11.378,9.288l0,0c-3.88,3.141-7.869,6.371-11.819,9.653a137.009,137.009,0,0,0-18.128-16.276,135.524,135.524,0,0,0-53.058-24.009,138.024,138.024,0,0,0-28.6-3h-.007c-4.208,0-8.468.2-12.661.583l-2.535.234-13.223-27.851a170.15,170.15,0,0,1,28.369-2.386A167.1,167.1,0,0,1,2726.289,2363.031Z" transform="translate(-2456.659 -2290.115)" fill="#fff"/>
        <g id="Grupo_958914" data-name="Grupo 958914" transform="translate(100.507)">
          <path id="Trazado_724487" data-name="Trazado 724487" d="M2379.283,2185.74a23.421,23.421,0,0,1-18.027-38.311l-26.671-96.4a2.9,2.9,0,0,1,.468-2.556,3.032,3.032,0,0,1,2.4-1.182,2.864,2.864,0,0,1,2.63,1.689l42.824,90.2a23.231,23.231,0,0,1,16.491,11.1,23.681,23.681,0,0,1,3.256,9.877,23.418,23.418,0,0,1-10.357,21.657A23.488,23.488,0,0,1,2379.283,2185.74Z" transform="translate(-2332.833 -2045.653)" fill="#a1e7ff"/>
          <path id="Trazado_724488" data-name="Trazado 724488" d="M2319.877,2051.548l-1.5-5.412-.47.118-1.119.281-1.589.4,1.564,5.653,6.306,22.794,1.591-.394,1.284-.318.306-.075Zm21.016,20.634-11.166-23.519-2.057-4.332q-.355.059-.709.122-.4.068-.79.139l-.175.031-1.672.3,2.191,4.616,10.9,22.964.748,1.577,1.738-.161,1.737-.16Zm0,0-11.166-23.519-2.057-4.332q-.355.059-.709.122-.4.068-.79.139l-.175.031-1.672.3,2.191,4.616,10.9,22.964.748,1.577,1.738-.161,1.737-.16Zm-21.016-20.634-1.5-5.412-.47.118-1.119.281-1.589.4,1.564,5.653,6.306,22.794,1.591-.394,1.284-.318.306-.075Zm61.534,85.589a25.031,25.031,0,0,0-1.158-5.5,25.345,25.345,0,0,0-5.684-9.484,24.815,24.815,0,0,0-13.42-7.3l-12.809-26.978-.756-1.591-.754-1.588-4.441-9.355-1.5-3.152-11.166-23.519-2.057-4.332-.729-1.538-.729-1.535-4.515-9.509-.726-1.531-.727-1.531-1.554-3.273a4.526,4.526,0,0,0-4.11-2.625,4.68,4.68,0,0,0-3.707,1.829,4.53,4.53,0,0,0-.743,3.985l.619,2.239.437,1.58.437,1.579.848,3.064,1.066,3.854.79,2.855.437,1.579.437,1.579,1.564,5.653,6.306,22.794.438,1.58.437,1.579.856,3.1c.019.07.7,2.531,1.732,6.26q.209.756.437,1.58c.14.509.287,1.037.437,1.579l3.253,11.759c2.432,8.788,4.917,17.772,5.917,21.386a24.923,24.923,0,0,0-4.825,11,25.217,25.217,0,0,0,1.383,13.425,24.813,24.813,0,0,0,9.361,11.66,25.1,25.1,0,0,0,38.791-17.407A24.764,24.764,0,0,0,2381.412,2137.137Zm-4.687,10.295a21.781,21.781,0,1,1-36.533-22.462l-9.6-34.7-.437-1.579-2.194-7.928-1.27-4.59-.437-1.579-6.376-23.045-1.5-5.412-.437-1.579-1.248-4.511-1.067-3.854-1.266-4.578-.437-1.579-.638-2.305a1.3,1.3,0,0,1,1.293-1.664,1.243,1.243,0,0,1,1.15.754l1.183,2.493.726,1.531,5.956,12.545.729,1.534,2.191,4.616,10.9,22.964.748,1.577,5.923,12.475.751,1.582,14.094,29.687A21.8,21.8,0,0,1,2376.724,2147.432Z" transform="translate(-2309.957 -2022.79)" fill="#3b5c91"/>
        </g>
        <path id="Trazado_724489" data-name="Trazado 724489" d="M890.048,2252.423c3.539,2.981,7.143,5.941,10.7,8.847q-2.72,3.1-5.313,6.34l-1.387,1.731-15.989-12.809-2.4-1.923,1.924-2.4a179.717,179.717,0,0,1,43.509-39.195,177.782,177.782,0,0,1,52-22.51l.136-.035.848,3.063,1.066,3.854.79,2.855-.271.068A168.08,168.08,0,0,0,890.048,2252.423Z" transform="translate(-871.055 -2179.258)" fill="#b3b3b3" style="mix-blend-mode: color-burn;isolation: isolate"/>
        <path id="Trazado_724490" data-name="Trazado 724490" d="M2629.777,2144.838q-5.592-3.137-11.391-5.872a182.476,182.476,0,0,0-56.362-16.127h0a172.729,172.729,0,0,0-71.968-2.637l-4.515-9.509,1.006-.189a180.923,180.923,0,0,1,72.656,1.192,178.216,178.216,0,0,1,70.574,33.143Z" transform="translate(-2373.293 -2101.733)" fill="#b3b3b3" style="mix-blend-mode: color-burn;isolation: isolate"/>
        <path id="Trazado_724491" data-name="Trazado 724491" d="M1244.847,2389.523a181.133,181.133,0,0,0-75.439,49.769c-2.715-2.217-5.459-4.469-8.178-6.732a164.94,164.94,0,0,1,81.7-48.6l.348-.088Z" transform="translate(-1137.531 -2359.727)" fill="#e6e6e6" style="mix-blend-mode: multiply;isolation: isolate"/>
        <path id="Trazado_724492" data-name="Trazado 724492" d="M2619.01,2310.008a185.336,185.336,0,0,0-29.292,3.108l-1.854.348-1.665.312-.4.076-1.843.345-2.27.578-.463.118-1.261.321-1.588.4-.071.018q-.682.174-1.361.352l-2.057-4.332a170.15,170.15,0,0,1,28.369-2.386Q2611.181,2309.27,2619.01,2310.008Z" transform="translate(-2456.659 -2290.115)" fill="#e6e6e6" style="mix-blend-mode: multiply;isolation: isolate"/>
        <path id="Trazado_724493" data-name="Trazado 724493" d="M1081.4,2077.4l-.442-.433q-.469-.458-.942-.913l-.473-.454-.475-.453-.476-.451-.478-.449-.479-.447-.007-.007-.851-.786-.589-.538-.485-.44-.487-.438c-.17-.152-.339-.3-.509-.455s-.34-.3-.511-.453l-.47-.414-.471-.412-.494-.428-.5-.427q-.736-.631-1.477-1.254l-.1-.082q-.443-.371-.888-.74l-.037-.03q-.426-.353-.855-.7l-.209-.17-.451-.367-.339-.273-.325-.262-.354-.283q-.51-.407-1.023-.81a181.51,181.51,0,0,0-72.794-34.472,183.972,183.972,0,0,0-39.91-4.383q-.466,0-.932,0l-.7,0-.495.005q-.428,0-.858.012l-.605.011-.336.007-.6.014q-.471.011-.944.025l-.259.008-.837.028q-.461.016-.922.035H946q-.468.019-.937.041l-.116.005-.821.04q-.463.023-.925.049h-.027l-.879.052-.178.011c-.206.012-.412.026-.618.039l-.293.019-.707.049c-.306.021-.61.044-.917.068l-.511.039q-.8.062-1.6.132c-.252.022-.5.044-.757.068q-.445.039-.891.083l-.353.035-.7.07q-.456.046-.913.1-.857.091-1.712.191l-.378.044-.534.064-.151.018-.38.047-.259.032-.424.054-.2.026-.477.062-.381.051-.095.013-.6.081-.066.009-.715.1-.12.017-.446.065-.614.09-.828.126q-.556.085-1.111.174l-.705.114-.061.01q-2.082.341-4.155.73l-1.854.348-1.554-3.273a4.525,4.525,0,0,0-4.11-2.625,4.679,4.679,0,0,0-3.707,1.829,4.529,4.529,0,0,0-.743,3.985l.619,2.239-.071.018q-5.953,1.514-11.763,3.416l-.114.037-.552.182-.046.015q-.535.177-1.067.358-.472.159-.942.322l-.582.2-.207.073-.554.195q-.587.208-1.173.419l-.507.184c-.2.072-.394.143-.591.217l-.2.075q-.337.123-.673.251-.776.29-1.55.588l-.493.191q-.165.062-.328.128c-.168.066-.337.131-.5.2q-.461.181-.919.364t-.917.37l-.242.1-.514.211-.108.044-.574.238-.1.042q-.626.261-1.248.526l-.519.222-.216.093-.483.209-.233.1-.483.212-.12.053q-.608.268-1.213.54l-.65.294q-.325.147-.649.3-.648.3-1.294.6l-.645.3-.513.244-.23.11-.544.262c-.215.1-.428.207-.642.312q-.641.312-1.279.631l-.6.3-.1.049-.515.26-.262.133-.436.223q-.687.352-1.371.71l-.421.221q-1.011.533-2.015,1.078l-.605.33-.552.3q-1,.55-1.987,1.115l-.469.268-.223.128-.383.222-.309.179-.426.248q-.409.238-.816.48-.33.2-.659.392t-.665.4q-1.127.68-2.246,1.377l-.343.215c-.2.125-.4.253-.6.38q-.383.242-.765.486a182.979,182.979,0,0,0-44.3,39.907l-1.924,2.4-2.048,2.557,2.557,2.049,2.4,1.923.269.215.068.055,1.056.846.081.065,1.345,1.078.193.154.528.423.277.222.183.146.788.631.222.177.158.127.036.028.141.113.809.648.171.136.665.533.157.126.318.255.467.374,1.021.819.171.137.935.749.2.157.628.5.362.29.652.522.21.169.211.168,1.542,1.236.383.307,1.746,1.4,1.513-1.888.536-.669L813.8,2100.064l-2.4-1.923,1.924-2.4a179.72,179.72,0,0,1,43.509-39.195,177.778,177.778,0,0,1,52-22.51l.136-.035.848,3.064,1.067,3.854.79,2.855-.271.068a168.078,168.078,0,0,0-85.614,52.112c3.539,2.981,7.143,5.941,10.7,8.848q1.08-1.235,2.182-2.447c-2.715-2.217-5.459-4.469-8.178-6.733a164.941,164.941,0,0,1,81.7-48.6l.348-.088,1.564,5.653q1.55-.532,3.111-1.038,3.3-1.067,6.639-2.01,1.6-.453,3.212-.875l-2.057-4.332a170.12,170.12,0,0,1,28.369-2.386q7.932,0,15.761.738h0q2.385-.062,4.768-.062a184.021,184.021,0,0,1,21.609,1.275,172.736,172.736,0,0,0-71.968-2.637l-4.515-9.509,1.006-.189a180.922,180.922,0,0,1,72.656,1.191,178.211,178.211,0,0,1,70.574,33.143h0a181.722,181.722,0,0,1,18.617,11.993Z" transform="translate(-806.79 -2022.79)" fill="#ccc" style="mix-blend-mode: color-burn;isolation: isolate"/>
      </g>
    </g>
  </g>
</svg>
