<svg xmlns="http://www.w3.org/2000/svg" width="605" height="52.414" viewBox="0 0 605 52.414">
  <g id="Grupo_959296" data-name="Grupo 959296" transform="translate(-415 -30474)">
    <path id="Trazado_725366" data-name="Trazado 725366" d="M-35.082-11.375l3.719,9.281,3.719-9.281H-25.7V0h-1.5V-4.43l.141-4.781L-30.793,0h-1.148l-3.727-9.187.148,4.758V0h-1.5V-11.375ZM-18.059-.836a3.07,3.07,0,0,1-2.477.992,2.628,2.628,0,0,1-2.059-.785,3.4,3.4,0,0,1-.715-2.324v-5.5h1.445v5.461q0,1.922,1.563,1.922A2.163,2.163,0,0,0-18.1-2.3V-8.453h1.445V0h-1.375Zm6.367-1.281,1.969-6.336h1.547l-3.4,9.758q-.789,2.109-2.508,2.109l-.273-.023-.539-.1V2.117l.391.031a1.923,1.923,0,0,0,1.145-.3A2.148,2.148,0,0,0-12.684.766l.32-.859-3.016-8.359H-13.8ZM-2.215,0V-7.336H-3.551V-8.453h1.336V-9.32a2.878,2.878,0,0,1,.727-2.1,2.745,2.745,0,0,1,2.055-.742,3.816,3.816,0,0,1,.992.132L1.48-10.867a4.151,4.151,0,0,0-.781-.07,1.41,1.41,0,0,0-1.086.411A1.669,1.669,0,0,0-.77-9.347v.893h1.8v1.117H-.77V0ZM7.848-.836A3.07,3.07,0,0,1,5.371.156,2.628,2.628,0,0,1,3.313-.629,3.4,3.4,0,0,1,2.6-2.953v-5.5H4.043v5.461q0,1.922,1.563,1.922A2.163,2.163,0,0,0,7.809-2.3V-8.453H9.254V0H7.879Zm7.109.992a3.693,3.693,0,0,1-2.8-1.129,4.19,4.19,0,0,1-1.078-3.02v-.266a5.073,5.073,0,0,1,.48-2.246,3.748,3.748,0,0,1,1.344-1.547,3.378,3.378,0,0,1,1.871-.559A3.166,3.166,0,0,1,17.34-7.523a4.7,4.7,0,0,1,.914,3.109v.6H12.527a3,3,0,0,0,.73,2.02,2.3,2.3,0,0,0,1.777.77,2.517,2.517,0,0,0,1.3-.312,3.259,3.259,0,0,0,.93-.828l.883.688A3.55,3.55,0,0,1,14.957.156Zm-.18-7.578a1.928,1.928,0,0,0-1.469.637A3.1,3.1,0,0,0,12.574-5h4.234v-.109a2.753,2.753,0,0,0-.594-1.707A1.815,1.815,0,0,0,14.777-7.422Zm9.234.266a4.331,4.331,0,0,0-.711-.055A1.9,1.9,0,0,0,21.371-6V0H19.926V-8.453h1.406l.023.977a2.251,2.251,0,0,1,2.016-1.133,1.477,1.477,0,0,1,.641.109Zm3.68-3.344v2.047H29.27v1.117H27.691v5.249a1.173,1.173,0,0,0,.211.763.888.888,0,0,0,.719.254,3.5,3.5,0,0,0,.688-.094V0A4.215,4.215,0,0,1,28.2.156,1.8,1.8,0,0,1,26.738-.43a2.517,2.517,0,0,1-.492-1.664V-7.336H24.707V-8.453h1.539V-10.5ZM34.465.156a3.693,3.693,0,0,1-2.8-1.129,4.19,4.19,0,0,1-1.078-3.02v-.266A5.073,5.073,0,0,1,31.07-6.5a3.748,3.748,0,0,1,1.344-1.547,3.378,3.378,0,0,1,1.871-.559,3.166,3.166,0,0,1,2.563,1.086,4.7,4.7,0,0,1,.914,3.109v.6H32.035a3,3,0,0,0,.73,2.02,2.3,2.3,0,0,0,1.777.77,2.517,2.517,0,0,0,1.3-.312,3.259,3.259,0,0,0,.93-.828l.883.688A3.55,3.55,0,0,1,34.465.156Zm-.18-7.578a1.928,1.928,0,0,0-1.469.637A3.1,3.1,0,0,0,32.082-5h4.234v-.109a2.753,2.753,0,0,0-.594-1.707A1.815,1.815,0,0,0,34.285-7.422Z" transform="translate(468 30523)" fill="#12263f"/>
    <path id="Trazado_725367" data-name="Trazado 725367" d="M-15.145-5.023h-4.773V0h-1.5V-11.375h7.047v1.227h-5.547v3.9h4.773ZM-7.754-.836A3.07,3.07,0,0,1-10.23.156a2.628,2.628,0,0,1-2.059-.785A3.4,3.4,0,0,1-13-2.953v-5.5h1.445v5.461q0,1.922,1.563,1.922A2.163,2.163,0,0,0-7.793-2.3V-8.453h1.445V0H-7.723ZM-.645.156a3.693,3.693,0,0,1-2.8-1.129A4.19,4.19,0,0,1-4.52-3.992v-.266A5.073,5.073,0,0,1-4.039-6.5,3.748,3.748,0,0,1-2.7-8.051,3.378,3.378,0,0,1-.824-8.609,3.166,3.166,0,0,1,1.738-7.523a4.7,4.7,0,0,1,.914,3.109v.6H-3.074a3,3,0,0,0,.73,2.02,2.3,2.3,0,0,0,1.777.77,2.517,2.517,0,0,0,1.3-.312,3.259,3.259,0,0,0,.93-.828l.883.688A3.55,3.55,0,0,1-.645.156Zm-.18-7.578a1.928,1.928,0,0,0-1.469.637A3.1,3.1,0,0,0-3.027-5H1.207v-.109A2.753,2.753,0,0,0,.613-6.816,1.815,1.815,0,0,0-.824-7.422Zm9.234.266A4.331,4.331,0,0,0,7.7-7.211,1.9,1.9,0,0,0,5.77-6V0H4.324V-8.453H5.73l.023.977A2.251,2.251,0,0,1,7.77-8.609,1.477,1.477,0,0,1,8.41-8.5ZM12.09-10.5v2.047h1.578v1.117H12.09v5.249a1.173,1.173,0,0,0,.211.763.888.888,0,0,0,.719.254,3.5,3.5,0,0,0,.688-.094V0A4.215,4.215,0,0,1,12.6.156,1.8,1.8,0,0,1,11.137-.43a2.517,2.517,0,0,1-.492-1.664V-7.336H9.105V-8.453h1.539V-10.5ZM18.863.156a3.693,3.693,0,0,1-2.8-1.129,4.19,4.19,0,0,1-1.078-3.02v-.266a5.073,5.073,0,0,1,.48-2.246,3.748,3.748,0,0,1,1.344-1.547,3.378,3.378,0,0,1,1.871-.559,3.166,3.166,0,0,1,2.563,1.086,4.7,4.7,0,0,1,.914,3.109v.6H16.434a3,3,0,0,0,.73,2.02,2.3,2.3,0,0,0,1.777.77,2.517,2.517,0,0,0,1.3-.312,3.259,3.259,0,0,0,.93-.828l.883.688A3.55,3.55,0,0,1,18.863.156Zm-.18-7.578a1.928,1.928,0,0,0-1.469.637A3.1,3.1,0,0,0,16.48-5h4.234v-.109a2.753,2.753,0,0,0-.594-1.707A1.815,1.815,0,0,0,18.684-7.422Z" transform="translate(593 30523)" fill="#12263f"/>
    <path id="Trazado_725370" data-name="Trazado 725370" d="M-33.016-11.375-29.3-2.094l3.719-9.281h1.945V0h-1.5V-4.43l.141-4.781L-28.727,0h-1.148L-33.6-9.187l.148,4.758V0h-1.5V-11.375ZM-21.594-4.3a4.993,4.993,0,0,1,.488-2.234A3.643,3.643,0,0,1-19.746-8.07a3.7,3.7,0,0,1,1.988-.539,3.565,3.565,0,0,1,2.793,1.2A4.6,4.6,0,0,1-13.9-4.234v.1a5.036,5.036,0,0,1-.473,2.215A3.589,3.589,0,0,1-15.723-.391a3.743,3.743,0,0,1-2.02.547,3.556,3.556,0,0,1-2.785-1.2A4.575,4.575,0,0,1-21.594-4.2Zm1.453.172a3.616,3.616,0,0,0,.652,2.258,2.088,2.088,0,0,0,1.746.852,2.075,2.075,0,0,0,1.75-.863A3.955,3.955,0,0,0-15.344-4.3,3.61,3.61,0,0,0-16-6.559a2.1,2.1,0,0,0-1.754-.863,2.075,2.075,0,0,0-1.727.852A3.925,3.925,0,0,0-20.141-4.133Zm7.7-.164a4.952,4.952,0,0,1,.922-3.129A2.915,2.915,0,0,1-9.1-8.609,2.932,2.932,0,0,1-6.75-7.594V-12H-5.3V0H-6.633L-6.7-.906A2.943,2.943,0,0,1-9.117.156a2.887,2.887,0,0,1-2.395-1.2,5.008,5.008,0,0,1-.926-3.141Zm1.445.164a3.749,3.749,0,0,0,.594,2.25,1.92,1.92,0,0,0,1.641.813A2.108,2.108,0,0,0-6.75-2.3V-6.187a2.125,2.125,0,0,0-1.992-1.2,1.929,1.929,0,0,0-1.656.82A4.128,4.128,0,0,0-10.992-4.133ZM.445.156a3.693,3.693,0,0,1-2.8-1.129A4.19,4.19,0,0,1-3.43-3.992v-.266A5.073,5.073,0,0,1-2.949-6.5,3.748,3.748,0,0,1-1.605-8.051,3.378,3.378,0,0,1,.266-8.609,3.166,3.166,0,0,1,2.828-7.523a4.7,4.7,0,0,1,.914,3.109v.6H-1.984a3,3,0,0,0,.73,2.02,2.3,2.3,0,0,0,1.777.77,2.517,2.517,0,0,0,1.3-.312,3.259,3.259,0,0,0,.93-.828l.883.688A3.55,3.55,0,0,1,.445.156ZM.266-7.422A1.928,1.928,0,0,0-1.2-6.785,3.1,3.1,0,0,0-1.937-5H2.3v-.109A2.753,2.753,0,0,0,1.7-6.816,1.815,1.815,0,0,0,.266-7.422ZM9.5-7.156a4.331,4.331,0,0,0-.711-.055A1.9,1.9,0,0,0,6.859-6V0H5.414V-8.453H6.82l.023.977A2.251,2.251,0,0,1,8.859-8.609,1.477,1.477,0,0,1,9.5-8.5ZM15.734,0a3.036,3.036,0,0,1-.2-.891A3.225,3.225,0,0,1,13.125.156a2.984,2.984,0,0,1-2.051-.707,2.287,2.287,0,0,1-.8-1.793,2.39,2.39,0,0,1,1-2.051,4.733,4.733,0,0,1,2.824-.73h1.406v-.664A1.623,1.623,0,0,0,15.055-7a1.821,1.821,0,0,0-1.336-.449,2.107,2.107,0,0,0-1.3.391,1.151,1.151,0,0,0-.523.945H10.445a2,2,0,0,1,.449-1.223,3.066,3.066,0,0,1,1.219-.934A4.1,4.1,0,0,1,13.8-8.609a3.342,3.342,0,0,1,2.289.73,2.635,2.635,0,0,1,.859,2.012v3.891a4.757,4.757,0,0,0,.3,1.852V0Zm-2.4-1.1a2.54,2.54,0,0,0,1.289-.352,2.127,2.127,0,0,0,.883-.914V-4.1H14.375q-2.656,0-2.656,1.555a1.316,1.316,0,0,0,.453,1.063A1.742,1.742,0,0,0,13.336-1.1Zm5.531-3.2a4.952,4.952,0,0,1,.922-3.129A2.915,2.915,0,0,1,22.2-8.609a2.932,2.932,0,0,1,2.352,1.016V-12H26V0H24.672L24.6-.906A2.943,2.943,0,0,1,22.188.156a2.887,2.887,0,0,1-2.395-1.2,5.008,5.008,0,0,1-.926-3.141Zm1.445.164a3.749,3.749,0,0,0,.594,2.25,1.92,1.92,0,0,0,1.641.813A2.108,2.108,0,0,0,24.555-2.3V-6.187a2.125,2.125,0,0,0-1.992-1.2,1.929,1.929,0,0,0-1.656.82A4.128,4.128,0,0,0,20.313-4.133ZM27.859-4.3a4.993,4.993,0,0,1,.488-2.234A3.643,3.643,0,0,1,29.707-8.07,3.7,3.7,0,0,1,31.7-8.609a3.565,3.565,0,0,1,2.793,1.2,4.6,4.6,0,0,1,1.066,3.18v.1a5.036,5.036,0,0,1-.473,2.215A3.589,3.589,0,0,1,33.73-.391a3.743,3.743,0,0,1-2.02.547,3.556,3.556,0,0,1-2.785-1.2A4.575,4.575,0,0,1,27.859-4.2Zm1.453.172a3.616,3.616,0,0,0,.652,2.258,2.088,2.088,0,0,0,1.746.852,2.075,2.075,0,0,0,1.75-.863A3.955,3.955,0,0,0,34.109-4.3a3.61,3.61,0,0,0-.66-2.254A2.1,2.1,0,0,0,31.7-7.422a2.075,2.075,0,0,0-1.727.852A3.925,3.925,0,0,0,29.313-4.133Z" transform="translate(717 30523)" fill="#12263f"/>
    <path id="Trazado_725371" data-name="Trazado 725371" d="M-16.535,0V-11.375h3.211a5.169,5.169,0,0,1,2.625.656A4.438,4.438,0,0,1-8.937-8.852,6.078,6.078,0,0,1-8.309-6.07v.727a6.1,6.1,0,0,1-.621,2.82A4.369,4.369,0,0,1-10.7-.664,5.5,5.5,0,0,1-13.387,0Zm1.5-10.148v8.922h1.578a3.434,3.434,0,0,0,2.7-1.079,4.458,4.458,0,0,0,.965-3.073v-.665a4.529,4.529,0,0,0-.91-3.014,3.239,3.239,0,0,0-2.582-1.091ZM-2.762.156a3.693,3.693,0,0,1-2.8-1.129,4.19,4.19,0,0,1-1.078-3.02v-.266A5.073,5.073,0,0,1-6.156-6.5,3.748,3.748,0,0,1-4.812-8.051a3.378,3.378,0,0,1,1.871-.559A3.166,3.166,0,0,1-.379-7.523,4.7,4.7,0,0,1,.535-4.414v.6H-5.191a3,3,0,0,0,.73,2.02,2.3,2.3,0,0,0,1.777.77,2.517,2.517,0,0,0,1.3-.312,3.259,3.259,0,0,0,.93-.828l.883.688A3.55,3.55,0,0,1-2.762.156Zm-.18-7.578a1.928,1.928,0,0,0-1.469.637A3.1,3.1,0,0,0-5.145-5H-.91v-.109A2.753,2.753,0,0,0-1.5-6.816,1.815,1.815,0,0,0-2.941-7.422Zm.7-4.578h1.75L-2.582-9.7l-1.164,0Zm11.6,7.867A5.026,5.026,0,0,1,8.473-1.02,2.846,2.846,0,0,1,6.082.156,2.947,2.947,0,0,1,3.605-.977L3.535,0H2.207V-12H3.652v4.477A2.93,2.93,0,0,1,6.066-8.609,2.863,2.863,0,0,1,8.484-7.445a5.177,5.177,0,0,1,.879,3.188ZM7.918-4.3a3.906,3.906,0,0,0-.57-2.281,1.888,1.888,0,0,0-1.641-.8A2.122,2.122,0,0,0,3.652-6.055V-2.4A2.181,2.181,0,0,0,5.723-1.07a1.878,1.878,0,0,0,1.617-.8A4.153,4.153,0,0,0,7.918-4.3ZM12.754,0H11.309V-8.453h1.445ZM11.191-10.7a.863.863,0,0,1,.215-.594.807.807,0,0,1,.637-.242.819.819,0,0,1,.641.242.854.854,0,0,1,.219.594.826.826,0,0,1-.219.586.834.834,0,0,1-.641.234.821.821,0,0,1-.637-.234A.834.834,0,0,1,11.191-10.7ZM16.637,0H15.191V-12h1.445Z" transform="translate(843 30523)" fill="#12263f"/>
    <path id="Trazado_725374" data-name="Trazado 725374" d="M-31.758-11.375l3.719,9.281,3.719-9.281h1.945V0h-1.5V-4.43l.141-4.781L-27.469,0h-1.148l-3.727-9.187L-32.2-4.43V0h-1.5V-11.375ZM-14.734-.836a3.07,3.07,0,0,1-2.477.992A2.628,2.628,0,0,1-19.27-.629a3.4,3.4,0,0,1-.715-2.324v-5.5h1.445v5.461q0,1.922,1.563,1.922a2.163,2.163,0,0,0,2.2-1.234V-8.453h1.445V0H-14.7Zm6.367-1.281L-6.4-8.453h1.547L-8.25,1.3q-.789,2.109-2.508,2.109l-.273-.023-.539-.1V2.117l.391.031a1.923,1.923,0,0,0,1.145-.3A2.148,2.148,0,0,0-9.359.766l.32-.859-3.016-8.359h1.578ZM.625,0V-11.375H3.836a5.169,5.169,0,0,1,2.625.656A4.438,4.438,0,0,1,8.223-8.852,6.078,6.078,0,0,1,8.852-6.07v.727a6.1,6.1,0,0,1-.621,2.82A4.369,4.369,0,0,1,6.457-.664,5.5,5.5,0,0,1,3.773,0Zm1.5-10.148v8.922H3.7A3.434,3.434,0,0,0,6.4-2.306a4.458,4.458,0,0,0,.965-3.073v-.665a4.529,4.529,0,0,0-.91-3.014,3.239,3.239,0,0,0-2.582-1.091ZM14.4.156A3.693,3.693,0,0,1,11.6-.973a4.19,4.19,0,0,1-1.078-3.02v-.266A5.073,5.073,0,0,1,11-6.5a3.748,3.748,0,0,1,1.344-1.547,3.378,3.378,0,0,1,1.871-.559,3.166,3.166,0,0,1,2.563,1.086A4.7,4.7,0,0,1,17.7-4.414v.6H11.969a3,3,0,0,0,.73,2.02,2.3,2.3,0,0,0,1.777.77,2.517,2.517,0,0,0,1.3-.312,3.259,3.259,0,0,0,.93-.828l.883.688A3.55,3.55,0,0,1,14.4.156Zm-.18-7.578a1.928,1.928,0,0,0-1.469.637A3.1,3.1,0,0,0,12.016-5H16.25v-.109a2.753,2.753,0,0,0-.594-1.707A1.815,1.815,0,0,0,14.219-7.422Zm.7-4.578h1.75L14.578-9.7l-1.164,0Zm11.6,7.867a5.026,5.026,0,0,1-.891,3.113A2.846,2.846,0,0,1,23.242.156,2.947,2.947,0,0,1,20.766-.977L20.7,0H19.367V-12h1.445v4.477a2.93,2.93,0,0,1,2.414-1.086,2.863,2.863,0,0,1,2.418,1.164,5.177,5.177,0,0,1,.879,3.188ZM25.078-4.3a3.906,3.906,0,0,0-.57-2.281,1.888,1.888,0,0,0-1.641-.8,2.122,2.122,0,0,0-2.055,1.328V-2.4a2.181,2.181,0,0,0,2.07,1.328,1.878,1.878,0,0,0,1.617-.8A4.153,4.153,0,0,0,25.078-4.3ZM29.914,0H28.469V-8.453h1.445ZM28.352-10.7a.863.863,0,0,1,.215-.594.807.807,0,0,1,.637-.242.819.819,0,0,1,.641.242.854.854,0,0,1,.219.594.826.826,0,0,1-.219.586.834.834,0,0,1-.641.234.821.821,0,0,1-.637-.234A.834.834,0,0,1,28.352-10.7ZM33.8,0H32.352V-12H33.8Z" transform="translate(975 30523)" fill="#12263f"/>
    <path id="Trazado_725368" data-name="Trazado 725368" d="M0,0H105V25H0Z" transform="translate(540 30475)" fill="#cd42cc"/>
    <path id="Trazado_725369" data-name="Trazado 725369" d="M0,0H105V25H0Z" transform="translate(665 30475)" fill="#a7bf75"/>
    <path id="Trazado_725372" data-name="Trazado 725372" d="M0,0H105V25H0Z" transform="translate(790 30475)" fill="#fffe9f"/>
    <path id="Trazado_725373" data-name="Trazado 725373" d="M0,0H105V25H0Z" transform="translate(915 30474)" fill="#94cddb"/>
    <g id="Grupo_959168" data-name="Grupo 959168" transform="translate(92 8)">
      <rect id="Rectángulo_340336" data-name="Rectángulo 340336" width="105" height="25" transform="translate(323 30467)" fill="#f5333e"/>
      <text id="MF" transform="translate(376 30485)" fill="#12263f" font-size="14" font-family="Roboto-Bold, Roboto" font-weight="700"><tspan x="-9.967" y="0">MF</tspan></text>
    </g>
    <path id="Trazado_725378" data-name="Trazado 725378" d="M3.042-4.067H-.9V0H-2.946V-9.953h6.48v1.661H-.9v2.57H3.042Z" transform="translate(593 30493)" fill="#12263f" stroke="rgba(0,0,0,0)" stroke-width="1"/>
    <path id="Trazado_725377" data-name="Trazado 725377" d="M-2.563-9.953-.007-2.734,2.536-9.953H5.229V0H3.172V-2.721l.205-4.7L.69,0H-.718L-3.4-7.41l.205,4.689V0H-5.243V-9.953Z" transform="translate(718 30493)" fill="#12263f" stroke="rgba(0,0,0,0)" stroke-width="1"/>
    <path id="Trazado_725376" data-name="Trazado 725376" d="M-3.661,0V-9.953H-.6a4.651,4.651,0,0,1,2.348.591A4.123,4.123,0,0,1,3.367-7.68,5.187,5.187,0,0,1,3.948-5.2v.458a5.2,5.2,0,0,1-.571,2.468A4.088,4.088,0,0,1,1.767-.6,4.686,4.686,0,0,1-.578,0ZM-1.61-8.292v6.645h.991A2.227,2.227,0,0,0,1.22-2.434,3.552,3.552,0,0,0,1.87-4.683v-.526a3.609,3.609,0,0,0-.629-2.3A2.219,2.219,0,0,0-.6-8.292Z" transform="translate(843 30493)" fill="#12263f" stroke="rgba(0,0,0,0)" stroke-width="1"/>
    <path id="Trazado_725375" data-name="Trazado 725375" d="M-7.113-9.953l2.557,7.219,2.543-7.219H.68V0H-1.377V-2.721l.205-4.7L-3.859,0H-5.267l-2.68-7.41.205,4.689V0H-9.792V-9.953ZM2.471,0V-9.953H5.534a4.651,4.651,0,0,1,2.348.591A4.123,4.123,0,0,1,9.5-7.68,5.187,5.187,0,0,1,10.08-5.2v.458a5.2,5.2,0,0,1-.571,2.468A4.088,4.088,0,0,1,7.9-.6,4.686,4.686,0,0,1,5.554,0ZM4.522-8.292v6.645h.991a2.227,2.227,0,0,0,1.839-.786A3.552,3.552,0,0,0,8-4.683v-.526a3.609,3.609,0,0,0-.629-2.3,2.219,2.219,0,0,0-1.839-.783Z" transform="translate(968 30492)" fill="#12263f" stroke="rgba(0,0,0,0)" stroke-width="1"/>
  </g>
</svg>
