<svg xmlns="http://www.w3.org/2000/svg" width="840" height="149.002" viewBox="0 0 840 149.002">
  <g id="Grupo_959296" data-name="Grupo 959296" transform="translate(-380 -30986.998)">
    <path id="Trazado_725373" data-name="Trazado 725373" d="M-24.348-4.008V0h-2.344V-11.375h4.438A5.134,5.134,0,0,1-20-10.906a3.454,3.454,0,0,1,1.5,1.332,3.714,3.714,0,0,1,.523,1.965,3.266,3.266,0,0,1-1.145,2.637,4.767,4.767,0,0,1-3.168.965Zm0-1.9h2.094a2.059,2.059,0,0,0,1.418-.437,1.591,1.591,0,0,0,.488-1.25,1.876,1.876,0,0,0-.492-1.352A1.839,1.839,0,0,0-22.2-9.477h-2.148ZM-11.457-.859A2.831,2.831,0,0,1-13.77.156a2.67,2.67,0,0,1-2.074-.781,3.335,3.335,0,0,1-.73-2.289V-8.453h2.258v5.467q0,1.322,1.2,1.322a1.63,1.63,0,0,0,1.578-.8V-8.453H-9.27V0h-2.125Zm5.969-7.594.07.977a2.951,2.951,0,0,1,2.43-1.133,2.453,2.453,0,0,1,2,.789A3.682,3.682,0,0,1-.316-5.461V0H-2.574V-5.406a1.465,1.465,0,0,0-.312-1.043,1.4,1.4,0,0,0-1.039-.324,1.553,1.553,0,0,0-1.43.813V0H-7.613V-8.453ZM4.1-10.531v2.078H5.543V-6.8H4.1v4.219a1.007,1.007,0,0,0,.18.672.9.9,0,0,0,.688.2,3.6,3.6,0,0,0,.664-.055V-.047a4.648,4.648,0,0,1-1.367.2,2.156,2.156,0,0,1-2.422-2.4V-6.8H.605V-8.453H1.84v-2.078ZM11.863-.859A2.831,2.831,0,0,1,9.551.156,2.67,2.67,0,0,1,7.477-.625a3.335,3.335,0,0,1-.73-2.289V-8.453H9v5.467q0,1.322,1.2,1.322a1.63,1.63,0,0,0,1.578-.8V-8.453h2.266V0H11.926ZM20.652,0a2.507,2.507,0,0,1-.227-.758,2.732,2.732,0,0,1-2.133.914,3,3,0,0,1-2.059-.719,2.312,2.312,0,0,1-.816-1.812,2.389,2.389,0,0,1,1-2.062,4.915,4.915,0,0,1,2.879-.727h1.039v-.484a1.393,1.393,0,0,0-.3-.937,1.183,1.183,0,0,0-.949-.352,1.345,1.345,0,0,0-.895.273.929.929,0,0,0-.324.75H15.605a2.268,2.268,0,0,1,.453-1.359,3,3,0,0,1,1.281-.98A4.669,4.669,0,0,1,19.2-8.609a3.689,3.689,0,0,1,2.48.785A2.747,2.747,0,0,1,22.6-5.617v3.664a4.041,4.041,0,0,0,.336,1.82V0ZM18.785-1.57a1.945,1.945,0,0,0,.922-.223,1.462,1.462,0,0,0,.625-.6V-3.844h-.844q-1.7,0-1.8,1.172l-.008.133a.9.9,0,0,0,.3.7A1.153,1.153,0,0,0,18.785-1.57ZM26.715,0H24.449V-12h2.266Z" transform="translate(752 31004)" fill="#12263f"/>
    <path id="Trazado_725372" data-name="Trazado 725372" d="M-25.52,0h-2.258V-8.7l-2.7.836V-9.7l4.711-1.687h.242Zm10.984-11.375,2.922,8.25,2.906-8.25h3.078V0H-7.98V-3.109l.234-5.367L-10.816,0h-1.609l-3.062-8.469.234,5.359V0H-17.6V-11.375ZM-1.348,0H-3.613V-8.453h2.266Zm-2.4-10.641a1.112,1.112,0,0,1,.34-.836A1.277,1.277,0,0,1-2.48-11.8a1.28,1.28,0,0,1,.922.328,1.105,1.105,0,0,1,.344.836,1.108,1.108,0,0,1-.348.844,1.283,1.283,0,0,1-.918.328A1.283,1.283,0,0,1-3.4-9.8,1.108,1.108,0,0,1-3.746-10.641ZM2.59-8.453l.07.977A2.951,2.951,0,0,1,5.09-8.609a2.453,2.453,0,0,1,2,.789,3.682,3.682,0,0,1,.672,2.359V0H5.5V-5.406a1.465,1.465,0,0,0-.312-1.043,1.4,1.4,0,0,0-1.039-.324,1.553,1.553,0,0,0-1.43.813V0H.465V-8.453ZM14.535-.859A2.831,2.831,0,0,1,12.223.156a2.67,2.67,0,0,1-2.074-.781,3.335,3.335,0,0,1-.73-2.289V-8.453h2.258v5.467q0,1.322,1.2,1.322a1.63,1.63,0,0,0,1.578-.8V-8.453h2.266V0H14.6Zm6.594-9.672v2.078h1.445V-6.8H21.129v4.219a1.007,1.007,0,0,0,.18.672A.9.9,0,0,0,22-1.7a3.6,3.6,0,0,0,.664-.055V-.047a4.648,4.648,0,0,1-1.367.2,2.156,2.156,0,0,1-2.422-2.4V-6.8H17.637V-8.453h1.234v-2.078ZM23.246-4.3a5.013,5.013,0,0,1,.484-2.242A3.546,3.546,0,0,1,25.125-8.07a4.069,4.069,0,0,1,2.113-.539,3.849,3.849,0,0,1,2.793,1.047,4.2,4.2,0,0,1,1.207,2.844l.016.578A4.418,4.418,0,0,1,30.168-1.02,3.775,3.775,0,0,1,27.254.156a3.793,3.793,0,0,1-2.918-1.172A4.5,4.5,0,0,1,23.246-4.2Zm2.258.16A3.16,3.16,0,0,0,25.957-2.3a1.5,1.5,0,0,0,1.3.638,1.5,1.5,0,0,0,1.281-.63A3.457,3.457,0,0,0,29-4.309a3.128,3.128,0,0,0-.461-1.831,1.5,1.5,0,0,0-1.3-.649,1.474,1.474,0,0,0-1.281.646A3.516,3.516,0,0,0,25.5-4.144Z" transform="translate(583 31029)" fill="#12263f"/>
    <path id="Trazado_725371" data-name="Trazado 725371" d="M-30.109,0h-2.258V-8.7l-2.7.836V-9.7l4.711-1.687h.242Zm11.352-4.7a5.763,5.763,0,0,1-.977,3.609A3.409,3.409,0,0,1-22.594.156,3.433,3.433,0,0,1-25.437-1.07a5.594,5.594,0,0,1-1.008-3.516V-6.68a5.687,5.687,0,0,1,.988-3.617,3.434,3.434,0,0,1,2.848-1.234,3.437,3.437,0,0,1,2.844,1.223A5.576,5.576,0,0,1-18.758-6.8Zm-2.258-2.3A4.165,4.165,0,0,0-21.4-9.066a1.307,1.307,0,0,0-1.207-.645,1.284,1.284,0,0,0-1.176.614,3.9,3.9,0,0,0-.4,1.92v2.768a4.373,4.373,0,0,0,.379,2.068,1.29,1.29,0,0,0,1.215.676,1.268,1.268,0,0,0,1.2-.649A4.268,4.268,0,0,0-21.016-4.3Zm11.07-4.37,2.922,8.25,2.906-8.25h3.078V0H-3.391V-3.109l.234-5.367L-6.227,0H-7.836L-10.9-8.469l.234,5.359V0h-2.344V-11.375ZM3.242,0H.977V-8.453H3.242ZM.844-10.641a1.112,1.112,0,0,1,.34-.836,1.277,1.277,0,0,1,.926-.328,1.28,1.28,0,0,1,.922.328,1.105,1.105,0,0,1,.344.836,1.108,1.108,0,0,1-.348.844,1.283,1.283,0,0,1-.918.328A1.283,1.283,0,0,1,1.191-9.8,1.108,1.108,0,0,1,.844-10.641ZM7.18-8.453l.07.977A2.951,2.951,0,0,1,9.68-8.609a2.453,2.453,0,0,1,2,.789,3.682,3.682,0,0,1,.672,2.359V0H10.094V-5.406a1.465,1.465,0,0,0-.312-1.043,1.4,1.4,0,0,0-1.039-.324,1.553,1.553,0,0,0-1.43.813V0H5.055V-8.453ZM19.125-.859A2.831,2.831,0,0,1,16.813.156a2.67,2.67,0,0,1-2.074-.781,3.335,3.335,0,0,1-.73-2.289V-8.453h2.258v5.467q0,1.322,1.2,1.322a1.63,1.63,0,0,0,1.578-.8V-8.453h2.266V0H19.188Zm6.594-9.672v2.078h1.445V-6.8H25.719v4.219a1.007,1.007,0,0,0,.18.672.9.9,0,0,0,.688.2,3.6,3.6,0,0,0,.664-.055V-.047a4.648,4.648,0,0,1-1.367.2,2.156,2.156,0,0,1-2.422-2.4V-6.8H22.227V-8.453h1.234v-2.078ZM27.836-4.3a5.013,5.013,0,0,1,.484-2.242A3.546,3.546,0,0,1,29.715-8.07a4.069,4.069,0,0,1,2.113-.539,3.849,3.849,0,0,1,2.793,1.047,4.2,4.2,0,0,1,1.207,2.844l.016.578A4.418,4.418,0,0,1,34.758-1.02,3.775,3.775,0,0,1,31.844.156a3.793,3.793,0,0,1-2.918-1.172A4.5,4.5,0,0,1,27.836-4.2Zm2.258.16A3.16,3.16,0,0,0,30.547-2.3a1.5,1.5,0,0,0,1.3.638,1.5,1.5,0,0,0,1.281-.63,3.457,3.457,0,0,0,.461-2.015,3.128,3.128,0,0,0-.461-1.831,1.5,1.5,0,0,0-1.3-.649,1.474,1.474,0,0,0-1.281.646A3.516,3.516,0,0,0,30.094-4.144Z" transform="translate(583 31054)" fill="#12263f"/>
    <path id="Trazado_725370" data-name="Trazado 725370" d="M-17.59,0h-2.258V-8.7l-2.7.836V-9.7l4.711-1.687h.242ZM-.41,0H-2.754V-4.875h-4.57V0H-9.668V-11.375h2.344v4.609h4.57v-4.609H-.41ZM1.137-4.3a5.013,5.013,0,0,1,.484-2.242A3.546,3.546,0,0,1,3.016-8.07a4.069,4.069,0,0,1,2.113-.539A3.849,3.849,0,0,1,7.922-7.562,4.2,4.2,0,0,1,9.129-4.719l.016.578A4.418,4.418,0,0,1,8.059-1.02,3.775,3.775,0,0,1,5.145.156,3.793,3.793,0,0,1,2.227-1.016,4.5,4.5,0,0,1,1.137-4.2Zm2.258.16A3.16,3.16,0,0,0,3.848-2.3a1.5,1.5,0,0,0,1.3.638,1.5,1.5,0,0,0,1.281-.63,3.457,3.457,0,0,0,.461-2.015A3.128,3.128,0,0,0,6.426-6.14a1.5,1.5,0,0,0-1.3-.649,1.474,1.474,0,0,0-1.281.646A3.516,3.516,0,0,0,3.395-4.144ZM15.285-6.336a6.134,6.134,0,0,0-.812-.062,1.654,1.654,0,0,0-1.68.867V0H10.535V-8.453h2.133l.063,1.008a2.092,2.092,0,0,1,1.883-1.164,2.366,2.366,0,0,1,.7.1ZM21.035,0a2.507,2.507,0,0,1-.227-.758,2.732,2.732,0,0,1-2.133.914,3,3,0,0,1-2.059-.719A2.312,2.312,0,0,1,15.8-2.375a2.389,2.389,0,0,1,1-2.062,4.915,4.915,0,0,1,2.879-.727h1.039v-.484a1.393,1.393,0,0,0-.3-.937,1.183,1.183,0,0,0-.949-.352,1.345,1.345,0,0,0-.895.273.929.929,0,0,0-.324.75H15.988a2.268,2.268,0,0,1,.453-1.359,3,3,0,0,1,1.281-.98,4.669,4.669,0,0,1,1.859-.355,3.689,3.689,0,0,1,2.48.785,2.747,2.747,0,0,1,.918,2.207v3.664a4.041,4.041,0,0,0,.336,1.82V0ZM19.168-1.57a1.945,1.945,0,0,0,.922-.223,1.462,1.462,0,0,0,.625-.6V-3.844h-.844q-1.7,0-1.8,1.172l-.008.133a.9.9,0,0,0,.3.7A1.153,1.153,0,0,0,19.168-1.57Z" transform="translate(583 31079)" fill="#12263f"/>
    <path id="Trazado_725369" data-name="Trazado 725369" d="M-16.395-4.281h1.289v1.82h-1.289V0h-2.258V-2.461h-4.664l-.1-1.422,4.742-7.492h2.281Zm-4.773,0h2.516V-8.3l-.148.258ZM-.41,0H-2.754V-4.875h-4.57V0H-9.668V-11.375h2.344v4.609h4.57v-4.609H-.41ZM1.137-4.3a5.013,5.013,0,0,1,.484-2.242A3.546,3.546,0,0,1,3.016-8.07a4.069,4.069,0,0,1,2.113-.539A3.849,3.849,0,0,1,7.922-7.562,4.2,4.2,0,0,1,9.129-4.719l.016.578A4.418,4.418,0,0,1,8.059-1.02,3.775,3.775,0,0,1,5.145.156,3.793,3.793,0,0,1,2.227-1.016,4.5,4.5,0,0,1,1.137-4.2Zm2.258.16A3.16,3.16,0,0,0,3.848-2.3a1.5,1.5,0,0,0,1.3.638,1.5,1.5,0,0,0,1.281-.63,3.457,3.457,0,0,0,.461-2.015A3.128,3.128,0,0,0,6.426-6.14a1.5,1.5,0,0,0-1.3-.649,1.474,1.474,0,0,0-1.281.646A3.516,3.516,0,0,0,3.395-4.144ZM15.285-6.336a6.134,6.134,0,0,0-.812-.062,1.654,1.654,0,0,0-1.68.867V0H10.535V-8.453h2.133l.063,1.008a2.092,2.092,0,0,1,1.883-1.164,2.366,2.366,0,0,1,.7.1ZM21.035,0a2.507,2.507,0,0,1-.227-.758,2.732,2.732,0,0,1-2.133.914,3,3,0,0,1-2.059-.719A2.312,2.312,0,0,1,15.8-2.375a2.389,2.389,0,0,1,1-2.062,4.915,4.915,0,0,1,2.879-.727h1.039v-.484a1.393,1.393,0,0,0-.3-.937,1.183,1.183,0,0,0-.949-.352,1.345,1.345,0,0,0-.895.273.929.929,0,0,0-.324.75H15.988a2.268,2.268,0,0,1,.453-1.359,3,3,0,0,1,1.281-.98,4.669,4.669,0,0,1,1.859-.355,3.689,3.689,0,0,1,2.48.785,2.747,2.747,0,0,1,.918,2.207v3.664a4.041,4.041,0,0,0,.336,1.82V0ZM19.168-1.57a1.945,1.945,0,0,0,.922-.223,1.462,1.462,0,0,0,.625-.6V-3.844h-.844q-1.7,0-1.8,1.172l-.008.133a.9.9,0,0,0,.3.7A1.153,1.153,0,0,0,19.168-1.57Z" transform="translate(583 31104)" fill="#12263f"/>
    <path id="Trazado_725367" data-name="Trazado 725367" d="M-26.293,0h-2.258V-8.7l-2.7.836V-9.7l4.711-1.687h.242ZM-14.8,0h-7.8V-1.547l3.68-3.922A9.078,9.078,0,0,0-17.8-6.914a2.322,2.322,0,0,0,.363-1.172,1.738,1.738,0,0,0-.383-1.191,1.382,1.382,0,0,0-1.094-.434,1.49,1.49,0,0,0-1.207.527A2.089,2.089,0,0,0-20.559-7.8h-2.266a3.729,3.729,0,0,1,.5-1.9,3.5,3.5,0,0,1,1.4-1.348,4.262,4.262,0,0,1,2.055-.488,4.036,4.036,0,0,1,2.73.844A2.985,2.985,0,0,1-15.168-8.3a3.825,3.825,0,0,1-.437,1.719,9.551,9.551,0,0,1-1.5,2.039L-19.691-1.82H-14.8ZM.066,0H-2.277V-4.875h-4.57V0H-9.191V-11.375h2.344v4.609h4.57v-4.609H.066ZM1.613-4.3A5.013,5.013,0,0,1,2.1-6.547,3.546,3.546,0,0,1,3.492-8.07a4.069,4.069,0,0,1,2.113-.539A3.849,3.849,0,0,1,8.4-7.562,4.2,4.2,0,0,1,9.605-4.719l.016.578A4.418,4.418,0,0,1,8.535-1.02,3.775,3.775,0,0,1,5.621.156,3.793,3.793,0,0,1,2.7-1.016,4.5,4.5,0,0,1,1.613-4.2Zm2.258.16A3.16,3.16,0,0,0,4.324-2.3a1.5,1.5,0,0,0,1.3.638A1.5,1.5,0,0,0,6.9-2.294a3.457,3.457,0,0,0,.461-2.015A3.128,3.128,0,0,0,6.9-6.14a1.5,1.5,0,0,0-1.3-.649,1.474,1.474,0,0,0-1.281.646A3.516,3.516,0,0,0,3.871-4.144ZM15.762-6.336a6.134,6.134,0,0,0-.812-.062,1.654,1.654,0,0,0-1.68.867V0H11.012V-8.453h2.133l.063,1.008A2.092,2.092,0,0,1,15.09-8.609a2.366,2.366,0,0,1,.7.1ZM21.512,0a2.507,2.507,0,0,1-.227-.758,2.732,2.732,0,0,1-2.133.914,3,3,0,0,1-2.059-.719,2.312,2.312,0,0,1-.816-1.812,2.389,2.389,0,0,1,1-2.062,4.915,4.915,0,0,1,2.879-.727h1.039v-.484a1.393,1.393,0,0,0-.3-.937,1.183,1.183,0,0,0-.949-.352,1.345,1.345,0,0,0-.895.273.929.929,0,0,0-.324.75H16.465a2.268,2.268,0,0,1,.453-1.359,3,3,0,0,1,1.281-.98,4.669,4.669,0,0,1,1.859-.355,3.689,3.689,0,0,1,2.48.785,2.747,2.747,0,0,1,.918,2.207v3.664a4.041,4.041,0,0,0,.336,1.82V0ZM19.645-1.57a1.945,1.945,0,0,0,.922-.223,1.462,1.462,0,0,0,.625-.6V-3.844h-.844q-1.7,0-1.8,1.172l-.008.133a.9.9,0,0,0,.3.7A1.153,1.153,0,0,0,19.645-1.57ZM29.77-2.336a.727.727,0,0,0-.41-.652,4.659,4.659,0,0,0-1.316-.426q-3.016-.633-3.016-2.562a2.323,2.323,0,0,1,.934-1.879A3.766,3.766,0,0,1,28.4-8.609a4.053,4.053,0,0,1,2.574.758,2.388,2.388,0,0,1,.965,1.969H29.684a1.092,1.092,0,0,0-.312-.8A1.322,1.322,0,0,0,28.395-7a1.351,1.351,0,0,0-.883.258.814.814,0,0,0-.312.656.7.7,0,0,0,.355.605,3.657,3.657,0,0,0,1.2.4,9.8,9.8,0,0,1,1.422.379A2.336,2.336,0,0,1,31.965-2.43a2.2,2.2,0,0,1-.992,1.871A4.28,4.28,0,0,1,28.41.156a4.47,4.47,0,0,1-1.887-.379A3.166,3.166,0,0,1,25.23-1.262a2.414,2.414,0,0,1-.469-1.426H26.9a1.179,1.179,0,0,0,.445.922,1.766,1.766,0,0,0,1.109.32,1.635,1.635,0,0,0,.98-.246A.766.766,0,0,0,29.77-2.336Z" transform="translate(583 31129)" fill="#12263f"/>
    <path id="Trazado_725374" data-name="Trazado 725374" d="M-25.465-9.477h-3.484V0h-2.344V-9.477H-34.73v-1.9h9.266Zm5.43,3.141a6.134,6.134,0,0,0-.812-.062,1.654,1.654,0,0,0-1.68.867V0h-2.258V-8.453h2.133l.063,1.008a2.092,2.092,0,0,1,1.883-1.164,2.366,2.366,0,0,1,.7.1ZM-16.566,0h-2.266V-8.453h2.266Zm-2.4-10.641a1.112,1.112,0,0,1,.34-.836A1.277,1.277,0,0,1-17.7-11.8a1.28,1.28,0,0,1,.922.328,1.105,1.105,0,0,1,.344.836,1.108,1.108,0,0,1-.348.844,1.283,1.283,0,0,1-.918.328,1.283,1.283,0,0,1-.918-.328A1.108,1.108,0,0,1-18.965-10.641Zm6.375,2.188.07.945a2.971,2.971,0,0,1,2.43-1.1A2.255,2.255,0,0,1-7.848-7.32,2.9,2.9,0,0,1-5.309-8.609a2.521,2.521,0,0,1,2.047.8A3.681,3.681,0,0,1-2.59-5.4V0H-4.855V-5.391a1.61,1.61,0,0,0-.281-1.051,1.246,1.246,0,0,0-.992-.332A1.409,1.409,0,0,0-7.535-5.8L-7.527,0H-9.785V-5.383a1.59,1.59,0,0,0-.289-1.062,1.259,1.259,0,0,0-.984-.328,1.463,1.463,0,0,0-1.391.8V0h-2.258V-8.453ZM3.035.156A4.15,4.15,0,0,1,.008-.984,4.054,4.054,0,0,1-1.16-4.023v-.219A5.106,5.106,0,0,1-.668-6.52,3.612,3.612,0,0,1,.727-8.066a3.914,3.914,0,0,1,2.059-.543,3.508,3.508,0,0,1,2.73,1.094,4.444,4.444,0,0,1,1,3.1v.922H1.129a2.1,2.1,0,0,0,.66,1.328,2,2,0,0,0,1.395.5,2.437,2.437,0,0,0,2.039-.945L6.332-1.367A3.389,3.389,0,0,1,4.957-.246,4.511,4.511,0,0,1,3.035.156ZM2.777-6.789a1.411,1.411,0,0,0-1.09.455,2.357,2.357,0,0,0-.535,1.3H4.293v-.181a1.681,1.681,0,0,0-.406-1.165A1.456,1.456,0,0,0,2.777-6.789Zm9.594,4.453a.727.727,0,0,0-.41-.652,4.659,4.659,0,0,0-1.316-.426Q7.629-4.047,7.629-5.977a2.323,2.323,0,0,1,.934-1.879A3.766,3.766,0,0,1,11-8.609a4.053,4.053,0,0,1,2.574.758,2.388,2.388,0,0,1,.965,1.969H12.285a1.092,1.092,0,0,0-.312-.8A1.322,1.322,0,0,0,11-7a1.351,1.351,0,0,0-.883.258.814.814,0,0,0-.312.656.7.7,0,0,0,.355.605,3.657,3.657,0,0,0,1.2.4,9.8,9.8,0,0,1,1.422.379A2.336,2.336,0,0,1,14.566-2.43a2.2,2.2,0,0,1-.992,1.871,4.28,4.28,0,0,1-2.562.715A4.47,4.47,0,0,1,9.125-.223,3.166,3.166,0,0,1,7.832-1.262a2.414,2.414,0,0,1-.469-1.426H9.5a1.179,1.179,0,0,0,.445.922,1.766,1.766,0,0,0,1.109.32,1.635,1.635,0,0,0,.98-.246A.766.766,0,0,0,12.371-2.336Zm6.352-8.2v2.078h1.445V-6.8H18.723v4.219a1.007,1.007,0,0,0,.18.672.9.9,0,0,0,.688.2,3.6,3.6,0,0,0,.664-.055V-.047a4.648,4.648,0,0,1-1.367.2,2.156,2.156,0,0,1-2.422-2.4V-6.8H15.23V-8.453h1.234v-2.078Zm7.453,4.2a6.134,6.134,0,0,0-.812-.062,1.654,1.654,0,0,0-1.68.867V0H21.426V-8.453h2.133l.063,1.008A2.092,2.092,0,0,1,25.5-8.609a2.366,2.366,0,0,1,.7.1ZM31.152.156A4.15,4.15,0,0,1,28.125-.984a4.054,4.054,0,0,1-1.168-3.039v-.219a5.106,5.106,0,0,1,.492-2.277,3.612,3.612,0,0,1,1.395-1.547A3.914,3.914,0,0,1,30.9-8.609a3.508,3.508,0,0,1,2.73,1.094,4.444,4.444,0,0,1,1,3.1v.922H29.246a2.1,2.1,0,0,0,.66,1.328,2,2,0,0,0,1.395.5,2.437,2.437,0,0,0,2.039-.945l1.109,1.242A3.389,3.389,0,0,1,33.074-.246,4.511,4.511,0,0,1,31.152.156Zm-.258-6.945a1.411,1.411,0,0,0-1.09.455,2.357,2.357,0,0,0-.535,1.3H32.41v-.181A1.681,1.681,0,0,0,32-6.377,1.456,1.456,0,0,0,30.895-6.789Z" transform="translate(850 31004)" fill="#12263f"/>
    <path id="Trazado_725375" data-name="Trazado 725375" d="M-26.734-11.375l2.922,8.25,2.906-8.25h3.078V0H-20.18V-3.109l.234-5.367L-23.016,0h-1.609l-3.062-8.469.234,5.359V0H-29.8V-11.375ZM-12.039.156A4.15,4.15,0,0,1-15.066-.984a4.054,4.054,0,0,1-1.168-3.039v-.219a5.106,5.106,0,0,1,.492-2.277,3.612,3.612,0,0,1,1.395-1.547,3.914,3.914,0,0,1,2.059-.543,3.508,3.508,0,0,1,2.73,1.094,4.444,4.444,0,0,1,1,3.1v.922h-5.383a2.1,2.1,0,0,0,.66,1.328,2,2,0,0,0,1.395.5,2.437,2.437,0,0,0,2.039-.945l1.109,1.242A3.389,3.389,0,0,1-10.117-.246,4.511,4.511,0,0,1-12.039.156ZM-12.3-6.789a1.411,1.411,0,0,0-1.09.455,2.357,2.357,0,0,0-.535,1.3h3.141v-.181a1.681,1.681,0,0,0-.406-1.165A1.456,1.456,0,0,0-12.3-6.789ZM-5.2-8.453l.07.977A2.951,2.951,0,0,1-2.7-8.609a2.453,2.453,0,0,1,2,.789A3.682,3.682,0,0,1-.031-5.461V0H-2.289V-5.406A1.465,1.465,0,0,0-2.6-6.449a1.4,1.4,0,0,0-1.039-.324,1.553,1.553,0,0,0-1.43.813V0H-7.328V-8.453ZM6.258-2.336a.727.727,0,0,0-.41-.652,4.659,4.659,0,0,0-1.316-.426Q1.516-4.047,1.516-5.977a2.323,2.323,0,0,1,.934-1.879,3.766,3.766,0,0,1,2.441-.754,4.053,4.053,0,0,1,2.574.758A2.388,2.388,0,0,1,8.43-5.883H6.172a1.092,1.092,0,0,0-.312-.8A1.322,1.322,0,0,0,4.883-7,1.351,1.351,0,0,0,4-6.742a.814.814,0,0,0-.312.656.7.7,0,0,0,.355.605,3.657,3.657,0,0,0,1.2.4A9.8,9.8,0,0,1,6.664-4.7,2.336,2.336,0,0,1,8.453-2.43,2.2,2.2,0,0,1,7.461-.559,4.28,4.28,0,0,1,4.9.156,4.47,4.47,0,0,1,3.012-.223,3.166,3.166,0,0,1,1.719-1.262,2.414,2.414,0,0,1,1.25-2.687H3.391a1.179,1.179,0,0,0,.445.922,1.766,1.766,0,0,0,1.109.32,1.635,1.635,0,0,0,.98-.246A.766.766,0,0,0,6.258-2.336ZM14.969-.859A2.831,2.831,0,0,1,12.656.156a2.67,2.67,0,0,1-2.074-.781,3.335,3.335,0,0,1-.73-2.289V-8.453h2.258v5.467q0,1.322,1.2,1.322a1.63,1.63,0,0,0,1.578-.8V-8.453h2.266V0H15.031ZM23.758,0a2.507,2.507,0,0,1-.227-.758A2.732,2.732,0,0,1,21.4.156,3,3,0,0,1,19.34-.562a2.312,2.312,0,0,1-.816-1.812,2.389,2.389,0,0,1,1-2.062A4.915,4.915,0,0,1,22.4-5.164h1.039v-.484a1.393,1.393,0,0,0-.3-.937,1.183,1.183,0,0,0-.949-.352,1.345,1.345,0,0,0-.895.273.929.929,0,0,0-.324.75H18.711a2.268,2.268,0,0,1,.453-1.359,3,3,0,0,1,1.281-.98A4.669,4.669,0,0,1,22.3-8.609a3.689,3.689,0,0,1,2.48.785A2.747,2.747,0,0,1,25.7-5.617v3.664a4.041,4.041,0,0,0,.336,1.82V0ZM21.891-1.57a1.945,1.945,0,0,0,.922-.223,1.462,1.462,0,0,0,.625-.6V-3.844h-.844q-1.7,0-1.8,1.172l-.008.133a.9.9,0,0,0,.3.7A1.153,1.153,0,0,0,21.891-1.57ZM29.82,0H27.555V-12H29.82Z" transform="translate(959 31004)" fill="#12263f"/>
    <path id="Trazado_725376" data-name="Trazado 725376" d="M-24.434-2.984A1.2,1.2,0,0,0-24.9-4a6.148,6.148,0,0,0-1.687-.75,11.963,11.963,0,0,1-1.93-.777,3.153,3.153,0,0,1-1.937-2.82A2.747,2.747,0,0,1-29.937-10a3.389,3.389,0,0,1,1.492-1.129,5.616,5.616,0,0,1,2.184-.406,5.112,5.112,0,0,1,2.172.441,3.458,3.458,0,0,1,1.48,1.246,3.261,3.261,0,0,1,.527,1.828h-2.344a1.534,1.534,0,0,0-.492-1.215A2.023,2.023,0,0,0-26.3-9.664a2.162,2.162,0,0,0-1.336.363,1.146,1.146,0,0,0-.477.957,1.1,1.1,0,0,0,.559.93,6.311,6.311,0,0,0,1.645.7A7.106,7.106,0,0,1-23-5.219,2.972,2.972,0,0,1-22.082-3,2.737,2.737,0,0,1-23.2-.684a4.891,4.891,0,0,1-3.008.84A5.808,5.808,0,0,1-28.6-.324a3.783,3.783,0,0,1-1.645-1.316,3.371,3.371,0,0,1-.566-1.937h2.352q0,1.883,2.25,1.883a2.189,2.189,0,0,0,1.3-.34A1.106,1.106,0,0,0-24.434-2.984Zm7.68,3.141A4.15,4.15,0,0,1-19.781-.984a4.054,4.054,0,0,1-1.168-3.039v-.219a5.106,5.106,0,0,1,.492-2.277,3.612,3.612,0,0,1,1.395-1.547A3.914,3.914,0,0,1-17-8.609a3.508,3.508,0,0,1,2.73,1.094,4.444,4.444,0,0,1,1,3.1v.922H-18.66A2.1,2.1,0,0,0-18-2.164a2,2,0,0,0,1.395.5,2.437,2.437,0,0,0,2.039-.945l1.109,1.242A3.389,3.389,0,0,1-14.832-.246,4.511,4.511,0,0,1-16.754.156Zm-.258-6.945a1.411,1.411,0,0,0-1.09.455,2.357,2.357,0,0,0-.535,1.3H-15.5v-.181A1.681,1.681,0,0,0-15.9-6.377,1.456,1.456,0,0,0-17.012-6.789Zm7.133-1.664.07.945a2.971,2.971,0,0,1,2.43-1.1A2.255,2.255,0,0,1-5.137-7.32,2.9,2.9,0,0,1-2.6-8.609a2.521,2.521,0,0,1,2.047.8A3.681,3.681,0,0,1,.121-5.4V0H-2.145V-5.391a1.61,1.61,0,0,0-.281-1.051,1.246,1.246,0,0,0-.992-.332A1.409,1.409,0,0,0-4.824-5.8L-4.816,0H-7.074V-5.383a1.59,1.59,0,0,0-.289-1.062,1.259,1.259,0,0,0-.984-.328,1.463,1.463,0,0,0-1.391.8V0H-12V-8.453ZM6.754,0a2.507,2.507,0,0,1-.227-.758A2.732,2.732,0,0,1,4.395.156,3,3,0,0,1,2.336-.562,2.312,2.312,0,0,1,1.52-2.375a2.389,2.389,0,0,1,1-2.062,4.915,4.915,0,0,1,2.879-.727H6.434v-.484a1.393,1.393,0,0,0-.3-.937,1.183,1.183,0,0,0-.949-.352,1.345,1.345,0,0,0-.895.273.929.929,0,0,0-.324.75H1.707A2.268,2.268,0,0,1,2.16-7.273a3,3,0,0,1,1.281-.98A4.669,4.669,0,0,1,5.3-8.609a3.689,3.689,0,0,1,2.48.785A2.747,2.747,0,0,1,8.7-5.617v3.664a4.041,4.041,0,0,0,.336,1.82V0ZM4.887-1.57a1.945,1.945,0,0,0,.922-.223,1.462,1.462,0,0,0,.625-.6V-3.844H5.59q-1.7,0-1.8,1.172l-.008.133a.9.9,0,0,0,.3.7A1.153,1.153,0,0,0,4.887-1.57Zm7.625-6.883.07.977a2.951,2.951,0,0,1,2.43-1.133,2.453,2.453,0,0,1,2,.789,3.682,3.682,0,0,1,.672,2.359V0H15.426V-5.406a1.465,1.465,0,0,0-.312-1.043,1.4,1.4,0,0,0-1.039-.324,1.553,1.553,0,0,0-1.43.813V0H10.387V-8.453ZM24.293,0a2.507,2.507,0,0,1-.227-.758,2.732,2.732,0,0,1-2.133.914,3,3,0,0,1-2.059-.719,2.312,2.312,0,0,1-.816-1.812,2.389,2.389,0,0,1,1-2.062,4.915,4.915,0,0,1,2.879-.727h1.039v-.484a1.393,1.393,0,0,0-.3-.937,1.183,1.183,0,0,0-.949-.352,1.345,1.345,0,0,0-.895.273.929.929,0,0,0-.324.75H19.246A2.268,2.268,0,0,1,19.7-7.273a3,3,0,0,1,1.281-.98,4.669,4.669,0,0,1,1.859-.355,3.689,3.689,0,0,1,2.48.785,2.747,2.747,0,0,1,.918,2.207v3.664a4.041,4.041,0,0,0,.336,1.82V0ZM22.426-1.57a1.945,1.945,0,0,0,.922-.223,1.462,1.462,0,0,0,.625-.6V-3.844h-.844q-1.7,0-1.8,1.172l-.008.133a.9.9,0,0,0,.3.7A1.153,1.153,0,0,0,22.426-1.57ZM30.355,0H28.09V-12h2.266Z" transform="translate(1064 31004)" fill="#12263f"/>
    <path id="Trazado_725378" data-name="Trazado 725378" d="M-20.156,0V-11.375h3.5a5.315,5.315,0,0,1,2.684.676,4.712,4.712,0,0,1,1.848,1.922,5.928,5.928,0,0,1,.664,2.832v.523a5.945,5.945,0,0,1-.652,2.82,4.672,4.672,0,0,1-1.84,1.914A5.355,5.355,0,0,1-16.633,0Zm2.344-9.477v7.594h1.133a2.545,2.545,0,0,0,2.1-.9,4.06,4.06,0,0,0,.742-2.57v-.6a4.124,4.124,0,0,0-.719-2.629,2.537,2.537,0,0,0-2.1-.895ZM-7.523,0H-9.789V-8.453h2.266Zm-2.4-10.641a1.112,1.112,0,0,1,.34-.836,1.277,1.277,0,0,1,.926-.328,1.28,1.28,0,0,1,.922.328,1.105,1.105,0,0,1,.344.836,1.108,1.108,0,0,1-.348.844,1.283,1.283,0,0,1-.918.328A1.283,1.283,0,0,1-9.574-9.8,1.108,1.108,0,0,1-9.922-10.641ZM-.766,0A2.507,2.507,0,0,1-.992-.758,2.732,2.732,0,0,1-3.125.156,3,3,0,0,1-5.184-.562,2.312,2.312,0,0,1-6-2.375,2.389,2.389,0,0,1-5-4.437a4.915,4.915,0,0,1,2.879-.727h1.039v-.484a1.393,1.393,0,0,0-.3-.937,1.183,1.183,0,0,0-.949-.352,1.345,1.345,0,0,0-.895.273.929.929,0,0,0-.324.75H-5.812a2.268,2.268,0,0,1,.453-1.359,3,3,0,0,1,1.281-.98,4.669,4.669,0,0,1,1.859-.355,3.689,3.689,0,0,1,2.48.785A2.747,2.747,0,0,1,1.18-5.617v3.664a4.041,4.041,0,0,0,.336,1.82V0ZM-2.633-1.57a1.945,1.945,0,0,0,.922-.223,1.462,1.462,0,0,0,.625-.6V-3.844H-1.93q-1.7,0-1.8,1.172l-.008.133a.9.9,0,0,0,.3.7A1.153,1.153,0,0,0-2.633-1.57Zm10.3-4.766A6.134,6.134,0,0,0,6.852-6.4a1.654,1.654,0,0,0-1.68.867V0H2.914V-8.453H5.047l.063,1.008A2.092,2.092,0,0,1,6.992-8.609a2.366,2.366,0,0,1,.7.1ZM11.133,0H8.867V-8.453h2.266Zm-2.4-10.641a1.112,1.112,0,0,1,.34-.836A1.277,1.277,0,0,1,10-11.8a1.28,1.28,0,0,1,.922.328,1.105,1.105,0,0,1,.344.836,1.108,1.108,0,0,1-.348.844A1.283,1.283,0,0,1,10-9.469,1.283,1.283,0,0,1,9.082-9.8,1.108,1.108,0,0,1,8.734-10.641ZM12.641-4.3a5.013,5.013,0,0,1,.484-2.242A3.546,3.546,0,0,1,14.52-8.07a4.069,4.069,0,0,1,2.113-.539,3.849,3.849,0,0,1,2.793,1.047,4.2,4.2,0,0,1,1.207,2.844l.016.578A4.418,4.418,0,0,1,19.563-1.02,3.775,3.775,0,0,1,16.648.156,3.793,3.793,0,0,1,13.73-1.016,4.5,4.5,0,0,1,12.641-4.2Zm2.258.16A3.16,3.16,0,0,0,15.352-2.3a1.5,1.5,0,0,0,1.3.638,1.5,1.5,0,0,0,1.281-.63,3.457,3.457,0,0,0,.461-2.015A3.128,3.128,0,0,0,17.93-6.14a1.5,1.5,0,0,0-1.3-.649,1.474,1.474,0,0,0-1.281.646A3.516,3.516,0,0,0,14.9-4.144Z" transform="translate(1159 31004)" fill="#12263f"/>
    <g id="Grupo_959238" data-name="Grupo 959238" transform="translate(95 22)">
      <rect id="Rectángulo_340381" data-name="Rectángulo 340381" width="105" height="25" transform="translate(810 31089)" fill="#b0c387"/>
      <text id="M" transform="translate(863 31107)" fill="#12263f" font-size="14" font-family="Roboto-Regular, Roboto"><tspan x="-6.111" y="0">M</tspan></text>
    </g>
    <g id="Grupo_959239" data-name="Grupo 959239" transform="translate(95 22)">
      <rect id="Rectángulo_340378" data-name="Rectángulo 340378" width="105" height="25" transform="translate(915 31063)" fill="#b0c387"/>
      <text id="M-2" data-name="M" transform="translate(968 31082)" fill="#12263f" font-size="14" font-family="Roboto-Regular, Roboto"><tspan x="-6.111" y="0">M</tspan></text>
    </g>
    <g id="Grupo_959240" data-name="Grupo 959240" transform="translate(95 22)">
      <rect id="Rectángulo_340376" data-name="Rectángulo 340376" width="105" height="25" transform="translate(1020 31038)" fill="#b0c387"/>
      <text id="M-3" data-name="M" transform="translate(1073 31057)" fill="#12263f" font-size="14" font-family="Roboto-Regular, Roboto"><tspan x="-6.111" y="0">M</tspan></text>
    </g>
    <g id="Grupo_959236" data-name="Grupo 959236" transform="translate(95 22)">
      <rect id="Rectángulo_340379" data-name="Rectángulo 340379" width="105" height="25" transform="translate(915 31089)" fill="#fffe9f"/>
      <text id="D" transform="translate(968 31107)" fill="#12263f" font-size="14" font-family="Roboto-Regular, Roboto"><tspan x="-4.59" y="0">D</tspan></text>
    </g>
    <g id="Grupo_959237" data-name="Grupo 959237" transform="translate(95 22)">
      <rect id="Rectángulo_340377" data-name="Rectángulo 340377" width="105" height="25" transform="translate(1020 31063)" fill="#fffe9f"/>
      <text id="D-2" data-name="D" transform="translate(1073 31081)" fill="#12263f" font-size="14" font-family="Roboto-Regular, Roboto"><tspan x="-4.59" y="0">D</tspan></text>
    </g>
    <g id="Grupo_959225" data-name="Grupo 959225" transform="translate(477 644)">
      <rect id="Rectángulo_340336" data-name="Rectángulo 340336" width="105" height="25" transform="translate(323 30467)" fill="#ce5ece"/>
      <text id="F" transform="translate(376 30485)" fill="#12263f" font-size="14" font-family="Roboto-Regular, Roboto"><tspan x="-3.869" y="0">F</tspan></text>
    </g>
    <g id="Grupo_959241" data-name="Grupo 959241" transform="translate(95 23)">
      <rect id="Rectángulo_340383" data-name="Rectángulo 340383" width="105" height="25" transform="translate(810 31063)" fill="#ce5ece"/>
      <text id="F-2" data-name="F" transform="translate(863 31081)" fill="#12263f" font-size="14" font-family="Roboto-Regular, Roboto"><tspan x="-3.869" y="0">F</tspan></text>
    </g>
    <g id="Grupo_959222" data-name="Grupo 959222" transform="translate(95 225)">
      <rect id="Rectángulo_340354" data-name="Rectángulo 340354" width="105" height="25" transform="translate(915 30836)" fill="#ce5ece"/>
      <text id="F-3" data-name="F" transform="translate(968 30854)" fill="#12263f" font-size="14" font-family="Roboto-Regular, Roboto"><tspan x="-3.869" y="0">F</tspan></text>
    </g>
    <g id="Grupo_959221" data-name="Grupo 959221" transform="translate(200 200)">
      <rect id="Rectángulo_340354-2" data-name="Rectángulo 340354" width="105" height="25" transform="translate(915 30836)" fill="#ce5ece"/>
      <text id="F-4" data-name="F" transform="translate(968 30854)" fill="#12263f" font-size="14" font-family="Roboto-Regular, Roboto"><tspan x="-3.869" y="0">F</tspan></text>
    </g>
    <g id="Grupo_959232" data-name="Grupo 959232" transform="translate(477 619)">
      <rect id="Rectángulo_340336-2" data-name="Rectángulo 340336" width="105" height="25" transform="translate(323 30467)" fill="#f5333e"/>
      <text id="MF" transform="translate(376 30485)" fill="#12263f" font-size="14" font-family="Roboto-Regular, Roboto"><tspan x="-9.98" y="0">MF</tspan></text>
    </g>
    <g id="Grupo_959242" data-name="Grupo 959242" transform="translate(372 644)">
      <rect id="Rectángulo_340336-3" data-name="Rectángulo 340336" width="105" height="25" transform="translate(323 30467)" fill="#f5333e"/>
      <text id="MF-2" data-name="MF" transform="translate(376 30485)" fill="#12263f" font-size="14" font-family="Roboto-Regular, Roboto"><tspan x="-9.98" y="0">MF</tspan></text>
    </g>
    <g id="Grupo_959226" data-name="Grupo 959226" transform="translate(582 594)">
      <rect id="Rectángulo_340336-4" data-name="Rectángulo 340336" width="105" height="25" transform="translate(323 30467)" fill="#f5333e"/>
      <text id="MF-3" data-name="MF" transform="translate(376 30485)" fill="#12263f" font-size="14" font-family="Roboto-Regular, Roboto"><tspan x="-9.98" y="0">MF</tspan></text>
    </g>
    <g id="Grupo_959227" data-name="Grupo 959227" transform="translate(200 225)">
      <rect id="Rectángulo_340355" data-name="Rectángulo 340355" width="105" height="25" transform="translate(810 30811)" fill="#f5333e"/>
      <text id="MF-4" data-name="MF" transform="translate(863 30829)" fill="#12263f" font-size="14" font-family="Roboto-Regular, Roboto"><tspan x="-9.98" y="0">MF</tspan></text>
    </g>
    <g id="Grupo_959223" data-name="Grupo 959223" transform="translate(305 200)">
      <rect id="Rectángulo_340355-2" data-name="Rectángulo 340355" width="105" height="25" transform="translate(810 30811)" fill="#f5333e"/>
      <text id="MF-5" data-name="MF" transform="translate(863 30829)" fill="#12263f" font-size="14" font-family="Roboto-Regular, Roboto"><tspan x="-9.98" y="0">MF</tspan></text>
    </g>
    <g id="Grupo_959233" data-name="Grupo 959233" transform="translate(372 569)">
      <rect id="Rectángulo_340336-5" data-name="Rectángulo 340336" width="105" height="25" transform="translate(323 30467)" fill="#fff"/>
      <text id="N_A" data-name="N/A" transform="translate(376 30485)" fill="#12263f" font-size="14" font-family="Roboto-Regular, Roboto"><tspan x="-12.441" y="0">N/A</tspan></text>
    </g>
    <g id="Grupo_959234" data-name="Grupo 959234" transform="translate(372 594)">
      <rect id="Rectángulo_340336-6" data-name="Rectángulo 340336" width="105" height="25" transform="translate(323 30467)" fill="#fff"/>
      <text id="N_A-2" data-name="N/A" transform="translate(376 30485)" fill="#12263f" font-size="14" font-family="Roboto-Regular, Roboto"><tspan x="-12.441" y="0">N/A</tspan></text>
    </g>
    <g id="Grupo_959243" data-name="Grupo 959243" transform="translate(372 619)">
      <rect id="Rectángulo_340336-7" data-name="Rectángulo 340336" width="105" height="25" transform="translate(323 30467)" fill="#fff"/>
      <text id="N_A-3" data-name="N/A" transform="translate(376 30485)" fill="#12263f" font-size="14" font-family="Roboto-Regular, Roboto"><tspan x="-12.441" y="0">N/A</tspan></text>
    </g>
    <g id="Grupo_959228" data-name="Grupo 959228" transform="translate(477 544)">
      <rect id="Rectángulo_340336-8" data-name="Rectángulo 340336" width="105" height="25" transform="translate(323 30467)" fill="#fff"/>
      <text id="N_A-4" data-name="N/A" transform="translate(376 30485)" fill="#12263f" font-size="14" font-family="Roboto-Regular, Roboto"><tspan x="-12.441" y="0">N/A</tspan></text>
    </g>
    <g id="Grupo_959229" data-name="Grupo 959229" transform="translate(582 544)">
      <rect id="Rectángulo_340336-9" data-name="Rectángulo 340336" width="105" height="25" transform="translate(323 30467)" fill="#fff"/>
      <text id="N_A-5" data-name="N/A" transform="translate(376 30485)" fill="#12263f" font-size="14" font-family="Roboto-Regular, Roboto"><tspan x="-12.441" y="0">N/A</tspan></text>
    </g>
    <g id="Grupo_959246" data-name="Grupo 959246" transform="translate(687 544)">
      <rect id="Rectángulo_340336-10" data-name="Rectángulo 340336" width="105" height="25" transform="translate(323 30467)" fill="#fff"/>
      <text id="N_A-6" data-name="N/A" transform="translate(376 30485)" fill="#12263f" font-size="14" font-family="Roboto-Regular, Roboto"><tspan x="-12.441" y="0">N/A</tspan></text>
    </g>
    <g id="Grupo_959245" data-name="Grupo 959245" transform="translate(582 569)">
      <rect id="Rectángulo_340336-11" data-name="Rectángulo 340336" width="105" height="25" transform="translate(323 30467)" fill="#fff"/>
      <text id="N_A-7" data-name="N/A" transform="translate(376 30485)" fill="#12263f" font-size="14" font-family="Roboto-Regular, Roboto"><tspan x="-12.441" y="0">N/A</tspan></text>
    </g>
    <g id="Grupo_959230" data-name="Grupo 959230" transform="translate(477 569)">
      <rect id="Rectángulo_340336-12" data-name="Rectángulo 340336" width="105" height="25" transform="translate(323 30467)" fill="#fff"/>
      <text id="N_A-8" data-name="N/A" transform="translate(376 30485)" fill="#12263f" font-size="14" font-family="Roboto-Regular, Roboto"><tspan x="-12.441" y="0">N/A</tspan></text>
    </g>
    <g id="Grupo_959244" data-name="Grupo 959244" transform="translate(477 594)">
      <rect id="Rectángulo_340336-13" data-name="Rectángulo 340336" width="105" height="25" transform="translate(323 30467)" fill="#fff"/>
      <text id="N_A-9" data-name="N/A" transform="translate(376 30485)" fill="#12263f" font-size="14" font-family="Roboto-Regular, Roboto"><tspan x="-12.441" y="0">N/A</tspan></text>
    </g>
    <g id="Grupo_959235" data-name="Grupo 959235" transform="translate(372 544)">
      <rect id="Rectángulo_340336-14" data-name="Rectángulo 340336" width="105" height="25" transform="translate(323 30467)" fill="#fff"/>
      <text id="N_A-10" data-name="N/A" transform="translate(376 30485)" fill="#12263f" font-size="14" font-family="Roboto-Regular, Roboto"><tspan x="-12.441" y="0">N/A</tspan></text>
    </g>
    <path id="Trazado_725377" data-name="Trazado 725377" d="M0,0H105V25H0Z" transform="translate(1115 31111)" fill="#94cddb"/>
    <path id="Trazado_725379" data-name="Trazado 725379" d="M-7.851-9.953-4.6-1.832l3.254-8.121h1.7V0H-.954V-3.876L-.831-8.06-4.1,0h-1L-8.364-8.039l.13,4.163V0H-9.546V-9.953ZM2.676,0V-9.953h2.81a4.523,4.523,0,0,1,2.3.574A3.884,3.884,0,0,1,9.324-7.745a5.318,5.318,0,0,1,.55,2.434v.636a5.336,5.336,0,0,1-.543,2.468A3.823,3.823,0,0,1,7.779-.581,4.811,4.811,0,0,1,5.431,0ZM3.989-8.88v7.807H5.37a3,3,0,0,0,2.362-.944,3.9,3.9,0,0,0,.844-2.689v-.582a3.963,3.963,0,0,0-.8-2.637A2.834,2.834,0,0,0,5.52-8.88Z" transform="translate(1168 31129)" fill="#12263f" stroke="rgba(0,0,0,0)" stroke-width="1"/>
    <g id="Trazado_725366" data-name="Trazado 725366" transform="translate(380 30987)" fill="none">
      <path d="M0,0H840V149H0Z" stroke="none"/>
      <path d="M 1 1 L 1 148 L 839 148 L 839 1 L 1 1 M 0 0 L 840 0 L 840 149 L 0 149 L 0 0 Z" stroke="none" fill="#707070"/>
    </g>
    <path id="Trazado_725305" data-name="Trazado 725305" d="M8874,19012H8139" transform="translate(-7654 12099)" fill="none" stroke="#707070" stroke-width="1"/>
    <path id="Trazado_725304" data-name="Trazado 725304" d="M8874,19012H8139" transform="translate(-7654 12074)" fill="none" stroke="#707070" stroke-width="1"/>
    <g id="Componente_2_4" data-name="Componente 2 – 4" transform="translate(485 31061)">
      <path id="Trazado_725272" data-name="Trazado 725272" d="M8874,19012H8139" transform="translate(-8139 -19012)" fill="none" stroke="#707070" stroke-width="1"/>
    </g>
    <path id="Trazado_725301" data-name="Trazado 725301" d="M8979,19012H8139" transform="translate(-7759 11999)" fill="none" stroke="#707070" stroke-width="1"/>
    <path id="Trazado_725308" data-name="Trazado 725308" d="M8454,19037v-149" transform="translate(-7759 12099)" fill="none" stroke="#707070" stroke-width="1"/>
    <path id="Trazado_725309" data-name="Trazado 725309" d="M8454,19037v-149" transform="translate(-7654 12099)" fill="none" stroke="#707070" stroke-width="1"/>
    <path id="Trazado_725306" data-name="Trazado 725306" d="M8454,19037v-149" transform="translate(-7549 12099)" fill="none" stroke="#707070" stroke-width="1"/>
    <path id="Trazado_725307" data-name="Trazado 725307" d="M8454,19037v-149" transform="translate(-7444 12099)" fill="none" stroke="#707070" stroke-width="1"/>
    <path id="Trazado_725302" data-name="Trazado 725302" d="M8454,19037v-149" transform="translate(-7339 12099)" fill="none" stroke="#707070" stroke-width="1"/>
    <path id="Trazado_725368" data-name="Trazado 725368" d="M-27.166,0V-9.953H-24.1a4.651,4.651,0,0,1,2.348.591A4.123,4.123,0,0,1-20.139-7.68,5.187,5.187,0,0,1-19.558-5.2v.458a5.2,5.2,0,0,1-.571,2.468A4.088,4.088,0,0,1-21.738-.6a4.686,4.686,0,0,1-2.345.6Zm2.051-8.292v6.645h.991a2.227,2.227,0,0,0,1.839-.786,3.552,3.552,0,0,0,.649-2.249v-.526a3.609,3.609,0,0,0-.629-2.3A2.219,2.219,0,0,0-24.1-8.292Zm11.348,7.54a2.477,2.477,0,0,1-2.023.889,2.337,2.337,0,0,1-1.815-.684,2.918,2.918,0,0,1-.639-2V-7.4h1.976v4.784q0,1.157,1.053,1.157a1.426,1.426,0,0,0,1.381-.7V-7.4h1.982V0h-1.859Zm7.561-4.792A5.367,5.367,0,0,0-6.918-5.6a1.447,1.447,0,0,0-1.47.759V0h-1.976V-7.4H-8.5l.055.882A1.831,1.831,0,0,1-6.795-7.533a2.07,2.07,0,0,1,.615.089ZM-1.176,0a2.194,2.194,0,0,1-.2-.663,2.39,2.39,0,0,1-1.866.8,2.626,2.626,0,0,1-1.8-.629,2.023,2.023,0,0,1-.714-1.586,2.09,2.09,0,0,1,.872-1.8,4.3,4.3,0,0,1,2.519-.636h.909v-.424a1.219,1.219,0,0,0-.263-.82A1.035,1.035,0,0,0-2.55-6.07a1.177,1.177,0,0,0-.783.239.813.813,0,0,0-.284.656H-5.592a1.984,1.984,0,0,1,.4-1.189,2.621,2.621,0,0,1,1.121-.858,4.086,4.086,0,0,1,1.627-.311,3.228,3.228,0,0,1,2.17.687,2.4,2.4,0,0,1,.8,1.931v3.206A3.536,3.536,0,0,0,.82-.116V0ZM-2.81-1.374A1.7,1.7,0,0,0-2-1.569a1.28,1.28,0,0,0,.547-.523V-3.363h-.738q-1.483,0-1.579,1.025l-.007.116a.791.791,0,0,0,.26.608A1.009,1.009,0,0,0-2.81-1.374Zm7.93-.082a1.3,1.3,0,0,0,.889-.3,1.054,1.054,0,0,0,.355-.8H8.217a2.534,2.534,0,0,1-.41,1.377,2.706,2.706,0,0,1-1.1.971A3.455,3.455,0,0,1,5.154.137a3.211,3.211,0,0,1-2.5-1.008,3.99,3.99,0,0,1-.916-2.786v-.13a3.944,3.944,0,0,1,.909-2.728,3.174,3.174,0,0,1,2.5-1.019,3.111,3.111,0,0,1,2.225.79,2.8,2.8,0,0,1,.851,2.1H6.364a1.358,1.358,0,0,0-.355-.938,1.185,1.185,0,0,0-.9-.361,1.19,1.19,0,0,0-1.042.5A2.916,2.916,0,0,0,3.712-3.8V-3.6a2.953,2.953,0,0,0,.349,1.643A1.2,1.2,0,0,0,5.12-1.456ZM11.43,0H9.447V-7.4H11.43Zm-2.1-9.311a.973.973,0,0,1,.3-.731,1.117,1.117,0,0,1,.81-.287,1.12,1.12,0,0,1,.807.287.967.967,0,0,1,.3.731.97.97,0,0,1-.3.738,1.122,1.122,0,0,1-.8.287,1.122,1.122,0,0,1-.8-.287A.97.97,0,0,1,9.331-9.311Zm3.418,5.544a4.387,4.387,0,0,1,.424-1.962,3.1,3.1,0,0,1,1.22-1.333,3.56,3.56,0,0,1,1.849-.472,3.368,3.368,0,0,1,2.444.916,3.676,3.676,0,0,1,1.056,2.488l.014.506a3.866,3.866,0,0,1-.95,2.731A3.3,3.3,0,0,1,16.256.137,3.319,3.319,0,0,1,13.7-.889a3.934,3.934,0,0,1-.954-2.789Zm1.976.14a2.765,2.765,0,0,0,.4,1.612,1.308,1.308,0,0,0,1.135.558,1.311,1.311,0,0,0,1.121-.551,3.025,3.025,0,0,0,.4-1.763,2.737,2.737,0,0,0-.4-1.6,1.311,1.311,0,0,0-1.135-.568,1.29,1.29,0,0,0-1.121.565A3.076,3.076,0,0,0,14.725-3.626ZM16.632-10.5h2.153L16.892-8.381H15.285Zm6.159,3.1.062.854a2.582,2.582,0,0,1,2.126-.991,2.146,2.146,0,0,1,1.75.69,3.221,3.221,0,0,1,.588,2.064V0H25.341V-4.73a1.282,1.282,0,0,0-.273-.913,1.224,1.224,0,0,0-.909-.284,1.359,1.359,0,0,0-1.251.711V0H20.932V-7.4Z" transform="translate(425 31082)" fill="#12263f"/>
    <path id="Trazado_725310" data-name="Trazado 725310" d="M8244,18890v148" transform="translate(-7759 12097)" fill="none" stroke="#707070" stroke-width="1"/>
    <path id="Trazado_725303" data-name="Trazado 725303" d="M8979,19012H8139" transform="translate(-7759 12024)" fill="none" stroke="#707070" stroke-width="1"/>
  </g>
</svg>
