<svg xmlns="http://www.w3.org/2000/svg" xmlns:xlink="http://www.w3.org/1999/xlink" width="400" height="279.461" viewBox="0 0 400 279.461">
  <defs>
    <clipPath id="clip-path">
      <rect id="Rect치ngulo_5844" data-name="Rect치ngulo 5844" width="319.487" height="260.517" fill="none"/>
    </clipPath>
  </defs>
  <g id="Grupo_19058" data-name="Grupo 19058" transform="translate(-678 -29763.537)">
    <g id="Grupo_19057" data-name="Grupo 19057" transform="translate(683.848 29763.537)">
      <g id="Grupo_19056" data-name="Grupo 19056" transform="translate(0 0)" clip-path="url(#clip-path)">
        <path id="Trazado_65613" data-name="Trazado 65613" d="M935.56,638.258a.876.876,0,0,0,1.008.147" transform="translate(-779.315 -531.665)" fill="none" stroke="#964340" stroke-linecap="round" stroke-linejoin="round" stroke-width="1"/>
        <path id="Trazado_65614" data-name="Trazado 65614" d="M964.725,638.451a.876.876,0,0,0,1.011-.129" transform="translate(-803.61 -531.718)" fill="none" stroke="#964340" stroke-linecap="round" stroke-linejoin="round" stroke-width="1"/>
        <path id="Trazado_65615" data-name="Trazado 65615" d="M768.546,100.968a18.552,18.552,0,0,0,5.625,2.837,43.152,43.152,0,0,0,6,1.867,6.986,6.986,0,0,0,1.943.428c.937-.159.34-.971.065-1.578-.635-1.4-1.482-2.7-2.1-4.1a21.059,21.059,0,0,1-1.06-5.062,66.314,66.314,0,0,1-.356-13.33c.321-6.273.9-12.534,1.05-18.814a108.494,108.494,0,0,0-2.992-29.9,46.864,46.864,0,0,0-1.913-5.6A51.76,51.76,0,0,0,761.8,9.3c-3.4-3.2-7.405-6.11-11.986-6.537a29.85,29.85,0,0,0-12.09,1.05,5.292,5.292,0,0,1-2,.435,5.942,5.942,0,0,1-1.238-.3c-3.007-.878-6.474-.07-9.353,1.015a21.291,21.291,0,0,0-8,5.343,40.658,40.658,0,0,0-3.743,4.876,44.868,44.868,0,0,0-5.285,9.352c-.728,1.929-1.068,3.927-1.629,5.92q-1.006,3.574-1.665,7.234a103.047,103.047,0,0,0-1.055,25.623c.391,5.36,1.146,10.692,1.421,16.06a57.59,57.59,0,0,1-1.9,17.671A37.6,37.6,0,0,1,701,104a21.166,21.166,0,0,0-1.319,2.916c.107-.351,2.222-.8,2.586-.92a11.823,11.823,0,0,1,1.949-.342,7.556,7.556,0,0,0,2.013-.926,13.674,13.674,0,0,1,2.244-.746c1.252-.364,2.374-.963,3.581-1.429,1.018-.393,2.081-.57,3.11-1.018a3.353,3.353,0,0,0,1.358-.879,3.405,3.405,0,0,0,.468-.923,85.374,85.374,0,0,0,2.693-8.795c.4-1.511.781-3.026,1.188-4.534.315-1.169.388-2.405.761-3.555.428-1.321,1.08-2.491.855-3.937a7.638,7.638,0,0,0-.667-1.926L717.1,66.5a7.056,7.056,0,0,0-1.392-2.272,12.511,12.511,0,0,0-2.982-1.674c-2.552-1.362-4.189-3.992-5.236-6.688a10.046,10.046,0,0,1-.84-4.138,4.624,4.624,0,0,1,1.893-3.638,3.044,3.044,0,0,1,3.874.386,4.747,4.747,0,0,0,.895,1.042,1.605,1.605,0,0,0,1.645-.055,3.831,3.831,0,0,0,1.182-1.246c1.251-1.884,1.567-3.924,2.326-5.966.874-2.35,1.794-4.7,2.733-7.028a28.016,28.016,0,0,1,3.327-6.24,12.71,12.71,0,0,1,2.394-2.581,11.158,11.158,0,0,1,2.576-1.691c.446-.158.93-.155,1.387-.273.315-.081.613-.219.923-.319,2.393-.767,4.473,1.42,6.734.419a19.111,19.111,0,0,0,2.569-1.66,8.879,8.879,0,0,1,4.769-1.5,9.626,9.626,0,0,1,6.953,3.393,20.786,20.786,0,0,1,4.714,7.194,43.31,43.31,0,0,1,1.629,6.941,52.389,52.389,0,0,1,1.056,8.859c.01,1.945-.436,3.9-.312,5.813a51.435,51.435,0,0,0,.9,6.671,101.184,101.184,0,0,0,3.636,12.848,2.361,2.361,0,0,1-.375,2.669l-3.62,5.513a3.525,3.525,0,0,0-.574,1.169,3.42,3.42,0,0,0,0,1.082,26.1,26.1,0,0,0,1.8,7.991,29.762,29.762,0,0,0,4.472,7.1,17.434,17.434,0,0,0,2.076,2.109q.153.128.31.251" transform="translate(-582.832 -2.152)" fill="#f3a9a8"/>
        <path id="Trazado_65616" data-name="Trazado 65616" d="M580.659,119.139a9.67,9.67,0,0,0,1.577.114c1.626-.164,2.924-1.363,4.364-2.136a9.012,9.012,0,0,1,9.569.813,13.906,13.906,0,0,1,2.761,3.085c4.191,6.009,5.187,13.321,5.37,20.512.13,5.136-.012,10.316.954,15.362A35.48,35.48,0,0,0,607.411,164c.48,1.137,1.194,2.221,1.612,3.373a3.652,3.652,0,0,1-.672,3.189c-1.32,2.2-3.012,3.877-3.518,6.428a11.59,11.59,0,0,0-.285,3.392,13.361,13.361,0,0,0,.6,2.538,28.358,28.358,0,0,0,3.38,8.022,32.28,32.28,0,0,1,2.619,3.735c-2.572,2.012-5.971,2.529-9.205,2.979-2.129.3-4.26.592-6.4.752a45.863,45.863,0,0,1-5.465.182c-1.517-.07-2.669.9-3.8,1.879-1.8,1.561-3.32,3.428-5.219,4.862-1.49,1.125-3.213,1.986-4.438,3.395a12.569,12.569,0,0,0-2.092,3.9c-3.245,8.606-3.644,17.713-4.607,26.767q-.933,8.781-1.909,17.557c-.946,8.6-1.589,17.259-2.658,25.864-.152,1.228-.311,2.457-.57,3.667-.2.913-.446,1.813-.7,2.712-1.175,4.208-1.656,8.461-3.359,12.538a50.289,50.289,0,0,1-6.7,11.3,35.248,35.248,0,0,1-6.1,6.358,24.306,24.306,0,0,1-3.681,2.367,13.277,13.277,0,0,1-2.755,1.12c-5.881,1.542-10.61-3.219-12.617-8.3-.284-.719-.518-1.457-.734-2.2a3.346,3.346,0,0,0-.369-.924,4.018,4.018,0,0,0-.556-.612,16.551,16.551,0,0,1-3.314-5.853,68.572,68.572,0,0,1-2.806-7.359q-1.152-4.269-2.5-8.482c-.6-1.872-1.227-3.736-1.736-5.634-.533-1.988-.934-4.008-1.335-6.026l-2.727-13.734a1.254,1.254,0,0,1,.027-.833,1.217,1.217,0,0,1,.722-.485,38.135,38.135,0,0,1,8.03-1.576l6.846-.84,3.335-.409c.975-.12,1.978-.021,2.645-.876a5.415,5.415,0,0,0,.766-1.666q.322-.969.668-1.929c1.384-3.843,3.052-7.575,4.77-11.278,1.687-3.637,3.073-7.49,4.62-11.208l.848-2.039c.614-.613.946-2.274,1.284-3.086l1.352-3.249,2.771-6.66c1.758-4.225,3.3-8.584,5.258-12.712.734-1.544,1.542-3.055,2.162-4.648.34-.874.623-1.77.9-2.665,1.325-4.2,2.517-8.385,4.012-12.52a75.736,75.736,0,0,0,2.9-9.22,4.376,4.376,0,0,0,.133-1.754,4.643,4.643,0,0,0-.347-.986,30.08,30.08,0,0,0-1.433-3.237c-.618-1.041-1.376-1.969-1.934-3.057-1.389-2.712-1.657-5.676-2.809-8.444a1,1,0,0,0-.429-.567,1.364,1.364,0,0,0-.821.034,3.408,3.408,0,0,1-2.728-.984,16.842,16.842,0,0,1-5.151-8.1,7.865,7.865,0,0,1-.277-3.62,3.943,3.943,0,0,1,2.079-2.851,2.663,2.663,0,0,1,3.264.807c.125.193.22.4.36.587a2.005,2.005,0,0,0,2.529.308,5.248,5.248,0,0,0,1.789-2.085,33.506,33.506,0,0,0,2.417-5.253c.588-1.636.809-3.426,1.351-5.1a27.193,27.193,0,0,1,5.091-9.458,10.426,10.426,0,0,1,7.473-3.827,3.006,3.006,0,0,1,.983.04,3.475,3.475,0,0,1,.7.29,5.917,5.917,0,0,0,1.714.546" transform="translate(-427.101 -96.719)" fill="#f8dfd8"/>
        <path id="Trazado_65617" data-name="Trazado 65617" d="M545.707,591.165A25.551,25.551,0,0,1,544,596.4q-2.541,6.184-5.25,12.3c-2.346,5.3-4.572,10.646-6.766,16.008q-1.647,4.024-3.28,8.054c-1.039,2.554-2.265,5.1-3.058,7.736a94.971,94.971,0,0,1-5.425,13.11,4.986,4.986,0,0,1-1.081,1.665,5.229,5.229,0,0,1-3.386.88,118.454,118.454,0,0,0-12.5,1.476l-6.607.925c-.271.038-1.083-7.546-1.134-8.242-.1-1.305-.153-2.623-.231-3.923a29.421,29.421,0,0,1,.3-3.965c.316-4.051.37-8.118.713-12.168a33.818,33.818,0,0,1,.477-5.094q.723-3,1.561-5.961a28.149,28.149,0,0,1,1.692-4.769c1.921-3.92,5.385-6.823,8.755-9.6a30.718,30.718,0,0,1,2.591-1.982c2.754-1.813,6.062-2.846,9.156-3.911a39.02,39.02,0,0,1,5.718-1.649c.972-.176,1.958-.278,2.926-.479a28.946,28.946,0,0,0,3.258-.949c4.474-1.495,9.01-2.666,13.276-4.7" transform="translate(-412.555 -492.437)" fill="#e5e5f1"/>
        <path id="Trazado_65618" data-name="Trazado 65618" d="M678.786,600.886a6.843,6.843,0,0,1,1.147-1.35,14.782,14.782,0,0,1,2.08-1.275,17.779,17.779,0,0,0,1.75-1.253c.916-.718,1.836-1.431,2.78-2.105a13.367,13.367,0,0,0,2.369-2.615,2.2,2.2,0,0,1,2.153-1.081c2.617-.053,5.236-.112,7.84-.374a50.267,50.267,0,0,0,12.984-3.093,3.294,3.294,0,0,1,1.4-.32c1.125.084,2.355,1.325,3.3,1.906a25.365,25.365,0,0,0,3.887,2,36.37,36.37,0,0,0,6.819,1.727l13.526,2.509c4.5.834,9.049,1.685,13.2,3.612a22.227,22.227,0,0,1,5.3,3.407,27.189,27.189,0,0,1,7.947,12.022,24.755,24.755,0,0,1,.862,3.349c.177.98.287,1.97.4,2.959l.271,2.435c.139,1.255.279,2.51.4,3.767q.188,1.919.326,3.842a8.362,8.362,0,0,1-.534,3.49q-1.185,3.759-2.683,7.409c-1.617,3.941-3.5,7.766-5.382,11.588l-2.1,4.276c-3.324.6-6.725-.09-10.1-.32a36.982,36.982,0,0,0-7.451.245c-.255,3.2-.386,6.565-.64,9.764l-.4,5.031c-.089,1.121-.179,2.243-.211,3.368-.041,1.424.008,2.849.057,4.273.1,2.778.3,5.573.176,8.35q-.2,4.367-.169,8.74a225.523,225.523,0,0,0,6.372,52.661H634.619c.023-10.56.34-21.1.826-31.649.031-.678.062-1.357.136-2.031.044-.4-.037-1.337.48-1.443a1.222,1.222,0,0,1,.69.132,9.912,9.912,0,0,0,3.76,1.08,6.4,6.4,0,0,0,1.668-.281,26.684,26.684,0,0,0,5.323-2.4,11.049,11.049,0,0,0,1.267-.761,31.613,31.613,0,0,0,3.281-2.995q1.735-1.693,3.365-3.492a14.368,14.368,0,0,0,1.339-1.648c.875-1.313,1.464-2.782,2.353-4.093a26.477,26.477,0,0,0,2.524-4.343c.354-.823.632-1.677.909-2.529l.854-2.625a33.866,33.866,0,0,0,1.23-4.858c.275-1.618.971-3.122,1.368-4.707a24.582,24.582,0,0,0,.486-2.825q.512-3.949.874-7.915c.111-1.217-.013-2.406.112-3.625.135-1.313.434-2.6.687-3.895q.338-1.721.571-3.46a24.833,24.833,0,0,0,.235-2.589c.029-1.011-.039-2.024.036-3.032.066-.886.242-1.758.366-2.636.113-.8.08-1.612.211-2.422.275-1.694.775-3.349.929-5.062.081-.9.065-1.8.111-2.7.091-1.8.314-3.628.546-5.411.1-.746.082-1.5.194-2.253.132-.886.34-1.763.387-2.66.03-.559,0-1.12.04-1.679.056-.718.239-1.42.342-2.133.089-.618.119-1.242.158-1.865q.128-2.026.395-4.041a11.21,11.21,0,0,0,.229-1.82,12.168,12.168,0,0,1,.044-1.75,64.246,64.246,0,0,1,3.425-12.467,23.915,23.915,0,0,1,2.414-4.06" transform="translate(-528.634 -489.312)" fill="#e5e5f1"/>
        <path id="Trazado_65619" data-name="Trazado 65619" d="M1289.123,622.78c-.433.995-.982,3.224-1.894,3.887-.851.619-2.793.121-3.786.108L1273,626.628c-.926-.013-2.8-.382-3.611.159-.849.563-.465,1.578-.421,2.413a10.758,10.758,0,0,1-.483,3.107,17.8,17.8,0,0,0-.06,5.508c.259,4.669.557,9.487.918,14.207q.276,3.614.611,7.223c.214,2.291.149,4.453.219,6.742.045,1.493.206,2.979.367,4.463.264,2.433.333,4.95.636,7.35.328,2.6,1.626,5.391,2.462,7.867a23.941,23.941,0,0,0,2.221,5.129,8.767,8.767,0,0,0,4.129,3.642,8.472,8.472,0,0,0,6.383-.391,18.187,18.187,0,0,0,5.258-3.866,51.984,51.984,0,0,0,11.063-16.752c3.734-8.8,4.967-18.245,6.328-27.648l.442-3.053,1.088-7.511c.228-1.579.457-3.16.554-4.752.139-2.288.152-4.573.123-6.847-.033-2.6.818-5.434,1.258-7.993q1.407-8.188,2.986-16.345a68.494,68.494,0,0,1,2.9-11.325,12.339,12.339,0,0,1,2.361-4.478,12.832,12.832,0,0,1,4.49-3.1c3.613-1.479,7.669-1.225,11.527-1.826a31.641,31.641,0,0,0,3.791-.849,55.2,55.2,0,0,0,9.748-3.941,23.079,23.079,0,0,1,3.013-1.369,29.637,29.637,0,0,1,3.594-.813,35.785,35.785,0,0,0,6.215-2.119c2.376-.942,5.275-1.219,7.769-1.793a7.328,7.328,0,0,0,3.548-1.52,1.8,1.8,0,0,0,.651-1.428,1.587,1.587,0,0,0-1.063-1.215,4.451,4.451,0,0,0-1.677-.192,62.737,62.737,0,0,0-6.724.481c-.531.067-1.273-.015-1.321-.548a.845.845,0,0,1,.253-.6c.8-.93,2.121-1.176,3.157-1.831a8.955,8.955,0,0,0,1.784-1.644,4.5,4.5,0,0,0,1.152-1.773,1.543,1.543,0,0,0-.719-1.819,2.257,2.257,0,0,0-1.322.008c-9.957,2.079-19.914,4.465-29.013,9.214a7.686,7.686,0,0,1,2.289-3.295,76.171,76.171,0,0,0,7.2-8.506c.354-.487.715-1.127.42-1.652-.3-.542-1.079-.547-1.684-.408-2.243.517-4.118,2-5.946,3.4q-4.38,3.35-9.012,6.354c-2.721,1.764-5.493,4.18-8.893,4.218a.739.739,0,0,1-.549-.15c-.255-.26-.034-.691.2-.974,1.432-1.755,3.1-3.313,4.412-5.163a9.1,9.1,0,0,0,1.934-6.344,1.461,1.461,0,0,0-.372-.9c-.545-.5-1.416-.081-2,.372-2.432,1.879-4.512,4.152-6.755,6.242-1.038.967-2.168,1.628-3.243,2.494-1.15.927-1.994,2.18-3.226,3.017-.791.537-1.7.884-2.472,1.449a10.615,10.615,0,0,0-2.186,2.44c-1.8,2.486-3.6,4.972-5.364,7.487a16.963,16.963,0,0,0-2.442,4.373,19.549,19.549,0,0,0-.666,4.831,82.553,82.553,0,0,1-.961,8.366,50.568,50.568,0,0,1-2.14,7.287c-1.743,5.327-3.844,10.527-5.943,15.721-.187.464-1.681,4.165-3.055,7.321" transform="translate(-1056.429 -458.862)" fill="#f8dfd8"/>
        <path id="Trazado_65620" data-name="Trazado 65620" d="M829.723,121.14c-2.489,1.482-4.929,3.27-6.322,5.81a19.558,19.558,0,0,0-1.262,3.088l-1.882,5.479a3.488,3.488,0,0,0-.278,1.5,3.257,3.257,0,0,0,.811,1.586c1.822,2.294,4.236,4.32,7.127,4.794,1.085.178,2.2.131,3.279.345,2.112.419,4.046,1.826,6.193,1.665a19.027,19.027,0,0,0,2.359-.5c2.972-.609,6.064.483,9.071.083a15.313,15.313,0,0,0,5.212-1.934c2.444-1.33,4.974-3.2,5.435-5.943a10.349,10.349,0,0,0-.747-4.826c-.772-2.384-1.545-4.771-2.538-7.071a12.811,12.811,0,0,0-2.014-3.446c-1.959-2.227-5.062-3.125-8.026-3.228a7.515,7.515,0,0,0-2.362.218c-2.182.636-4.1,2.943-6.513,2.618-1.3-.175-2.318-1.142-3.585-1.376a5.9,5.9,0,0,0-3.959,1.142" transform="translate(-683.028 -98.734)" fill="#e8caca"/>
        <path id="Trazado_65621" data-name="Trazado 65621" d="M1677.656,345.478a.626.626,0,0,1-.4-1.106l16.8-14.062a.626.626,0,0,1,.8.96l-16.8,14.062a.623.623,0,0,1-.4.146" transform="translate(-1396.955 -275.024)" fill="#964340"/>
        <path id="Trazado_65622" data-name="Trazado 65622" d="M1771.892,405.529a.626.626,0,0,1-.218-1.212l11.7-4.339a.626.626,0,0,1,.435,1.173l-11.7,4.338a.63.63,0,0,1-.218.039" transform="translate(-1475.453 -333.147)" fill="#964340"/>
        <path id="Trazado_65623" data-name="Trazado 65623" d="M596.551,250.1a5.777,5.777,0,0,0,3.13-1.939,6.448,6.448,0,0,0,.672-3.266,1.249,1.249,0,0,1,.2-.744.927.927,0,0,1,.334-.243,1.765,1.765,0,0,1,2.246.79,9.055,9.055,0,0,1,.38,1.559,2.756,2.756,0,0,0,1.114,1.524,12.053,12.053,0,0,0,1.36.66,2.092,2.092,0,0,1,1.078,1.013,2.06,2.06,0,0,1-1.041,2.282c-.755.5-1.662.752-2.376,1.308a3.446,3.446,0,0,0-1.263,2.1c-.094.537-.086,1.153-.48,1.53a1.175,1.175,0,0,1-.614.291,1.578,1.578,0,0,1-1.317-.386,4.212,4.212,0,0,1-.863-1.75,3.371,3.371,0,0,0-1.632-1.977,6.839,6.839,0,0,1-.77-.33,1.517,1.517,0,0,1-.654-1.554,1.8,1.8,0,0,1,1.131-1.293" transform="translate(-496.489 -203.052)" fill="#f4c1c1"/>
        <path id="Trazado_65624" data-name="Trazado 65624" d="M747.732,284.2c-2.682,0-4.8-2.768-5.787-4.049a12.774,12.774,0,0,1-2.851-8.379,5.649,5.649,0,0,1,2.2-4.49,3.491,3.491,0,0,1,3.088-.266,2.61,2.61,0,0,1,1.632,1.774.626.626,0,1,1-1.215.3,1.388,1.388,0,0,0-.878-.911,2.23,2.23,0,0,0-1.947.153c-1.336.864-1.582,2.743-1.626,3.511a11.531,11.531,0,0,0,2.6,7.545c1.606,2.1,3.538,4.142,5.686,3.407a.626.626,0,0,1,.4,1.185,4,4,0,0,1-1.3.219" transform="translate(-615.647 -222.222)" fill="#964340"/>
        <path id="Trazado_65625" data-name="Trazado 65625" d="M872.187,292.192c0,1.145-.685,2.074-1.531,2.074s-1.531-.929-1.531-2.074.685-2.074,1.531-2.074,1.531.929,1.531,2.074" transform="translate(-723.976 -241.667)" fill="#964340"/>
        <path id="Trazado_65626" data-name="Trazado 65626" d="M1017.554,289.9c0,1.145-.685,2.074-1.531,2.074s-1.531-.929-1.531-2.074.686-2.074,1.531-2.074,1.531.929,1.531,2.074" transform="translate(-845.065 -239.754)" fill="#964340"/>
        <path id="Trazado_65627" data-name="Trazado 65627" d="M860.26,266.318a5.3,5.3,0,0,1-2.83-1.194,4.268,4.268,0,0,0-.688-.41,4.085,4.085,0,0,0-.6-.183,27.361,27.361,0,0,0-4.072-.608c-.678-.067-1.356-.135-2.031-.225a.626.626,0,0,1,.166-1.24c.661.088,1.325.154,1.988.22a28.761,28.761,0,0,1,4.256.64,5.207,5.207,0,0,1,.781.244,5.139,5.139,0,0,1,.877.511c1.272.861,2.09,1.346,3.09.666a.626.626,0,1,1,.7,1.034,2.87,2.87,0,0,1-1.645.545" transform="translate(-707.627 -218.621)" fill="#964340"/>
        <path id="Trazado_65628" data-name="Trazado 65628" d="M946.227,307.808a.626.626,0,0,1-.572-.879,2.679,2.679,0,0,0-.029-2.512,4.6,4.6,0,0,0-.752-.812,5.206,5.206,0,0,1-1.013-1.153,4.682,4.682,0,0,1-.529-2.38,17.89,17.89,0,0,1,.579-4.888.626.626,0,1,1,1.211.316,16.638,16.638,0,0,0-.539,4.551,3.591,3.591,0,0,0,.354,1.762,4.205,4.205,0,0,0,.787.873,5.619,5.619,0,0,1,.952,1.051,3.915,3.915,0,0,1,.122,3.7.626.626,0,0,1-.573.373" transform="translate(-785.787 -245.497)" fill="#964340"/>
        <path id="Trazado_65629" data-name="Trazado 65629" d="M1268.177,1014.84a.626.626,0,0,1-.611-.494c-3.332-15.417-4.908-32.578-4.818-52.461q.011-2.367.013-4.786c.025-14.745.053-31.458,3.906-45.858a.626.626,0,1,1,1.209.324c-3.811,14.241-3.839,30.867-3.864,45.536q0,2.418-.013,4.789c-.091,19.791,1.476,36.864,4.79,52.191a.627.627,0,0,1-.48.744.662.662,0,0,1-.133.014" transform="translate(-1051.857 -758.672)" fill="#964340"/>
        <path id="Trazado_65630" data-name="Trazado 65630" d="M1121.5,532.691a.626.626,0,0,1-.625-.608,27.788,27.788,0,0,0-1-6.6,28.93,28.93,0,0,0-6.742-12.054c-2.923-3.116-8.234-4.757-11.749-5.844a112.617,112.617,0,0,0-12.665-2.86c-5.636-1.046-11.463-2.128-16.917-4.362-5.048-2.067-8.337-4.81-10.352-8.63-2.079-3.942-2.634-8.385-2.9-12.21a.625.625,0,0,1,.58-.668.617.617,0,0,1,.668.58c.26,3.7.79,7.978,2.761,11.714,1.871,3.547,4.96,6.107,9.72,8.057,5.334,2.185,11.1,3.255,16.671,4.29a113.588,113.588,0,0,1,12.807,2.895c3.641,1.125,9.142,2.825,12.291,6.184a30.167,30.167,0,0,1,7.035,12.577,29,29,0,0,1,1.042,6.892.626.626,0,0,1-.608.644Z" transform="translate(-881.766 -398.884)" fill="#964340"/>
        <path id="Trazado_65631" data-name="Trazado 65631" d="M494.171,661.9a.626.626,0,0,1-.621-.556,131.021,131.021,0,0,1,.7-34.322,30.783,30.783,0,0,1,18.621-24.115,61.442,61.442,0,0,1,10.277-3.047c.944-.22,1.887-.441,2.826-.673a104.657,104.657,0,0,0,14.691-4.987.626.626,0,1,1,.476,1.158,105.765,105.765,0,0,1-14.867,5.043c-.943.234-1.892.456-2.841.678a60.453,60.453,0,0,0-10.069,2.978,29.555,29.555,0,0,0-17.877,23.154,129.811,129.811,0,0,0-.775,33.211c4.156-1.137,19.445-2.778,19.609-2.785a.611.611,0,0,1,.651.6.625.625,0,0,1-.6.651c-2.573.109-18.129,2.18-19.749,2.823a.622.622,0,0,1-.38.187c-.024,0-.047,0-.07,0m.625-.671h0Zm0,0v0Zm0,0v0m0,0v0Zm0,0h0m0,0v0Zm0,0v0m0,0h0Zm0,0h0m0,0v0Zm0,0h0m0,0v0Z" transform="translate(-410.451 -494.926)" fill="#964340"/>
        <path id="Trazado_65632" data-name="Trazado 65632" d="M630.8,1378.27l-.052,0a.625.625,0,0,1-.572-.675c.915-11.11,1.37-22.4,1.351-33.554a.626.626,0,0,1,.625-.627h0a.626.626,0,0,1,.626.625c.019,11.189-.438,22.513-1.355,33.658a.626.626,0,0,1-.623.574" transform="translate(-524.932 -1119.054)" fill="#964340"/>
        <path id="Trazado_65633" data-name="Trazado 65633" d="M1463.807,657.915h-.006a.626.626,0,0,1-.619-.632l.007-1.005a27.8,27.8,0,0,1,.66-7.1c1.6-6,5.909-10.639,10.191-14.872a.626.626,0,0,1,.88.89c-4.159,4.112-8.347,8.6-9.861,14.3a26.512,26.512,0,0,0-.617,6.785l-.007,1.011a.626.626,0,0,1-.626.619" transform="translate(-1218.821 -528.223)" fill="#964340"/>
        <path id="Trazado_65634" data-name="Trazado 65634" d="M1576.136,565.451a.626.626,0,0,1-.447-1.063l12.121-12.375c.8-.8,2.926-2.909,2.511-3.9a.645.645,0,0,0-.439-.424c-.763-.219-2.284.509-3.377,1.277-3.978,2.8-7.971,5.694-11.871,8.614a22.29,22.29,0,0,1-6.144,3.656c-3.273,1.09-6.792.611-9.9.187a.626.626,0,0,1-.535-.7.619.619,0,0,1,.7-.536c2.97.4,6.339.863,9.334-.134a21.1,21.1,0,0,0,5.725-3.421c3.975-2.977,7.978-5.882,11.966-8.685.831-.583,2.924-1.9,4.444-1.455a1.9,1.9,0,0,1,1.248,1.143c.738,1.769-1.467,3.961-2.784,5.271l-.3.3-11.805,12.058a.624.624,0,0,1-.447.188" transform="translate(-1297.845 -455.146)" fill="#964340"/>
        <path id="Trazado_65635" data-name="Trazado 65635" d="M1683.41,599.907a.626.626,0,0,1-.253-1.2,238.933,238.933,0,0,0,23.854-12.162,3.814,3.814,0,0,0,1.257-.984.89.89,0,0,0,.073-.99c-.223-.256-.719-.286-1.558-.095a109.012,109.012,0,0,0-25.232,8.644.626.626,0,0,1-.565-1.116,110.221,110.221,0,0,1,25.521-8.749c.537-.121,1.96-.445,2.779.494a2.1,2.1,0,0,1,.016,2.517,4.838,4.838,0,0,1-1.66,1.359,240.257,240.257,0,0,1-23.979,12.227.63.63,0,0,1-.252.053" transform="translate(-1399.965 -485.721)" fill="#964340"/>
        <path id="Trazado_65636" data-name="Trazado 65636" d="M1813.557,584.077a.626.626,0,0,1-.229-1.209c1.651-.648,3.295-1.379,4.887-2.171,1.566-.778,5.232-2.6,5.174-5.045a.6.6,0,0,0-.308-.557,1.279,1.279,0,0,0-.433.02,17.457,17.457,0,0,0-3.476.832.626.626,0,1,1-.445-1.169,18.543,18.543,0,0,1,3.731-.9,2.195,2.195,0,0,1,.952.009,1.8,1.8,0,0,1,1.231,1.736c.076,3.24-3.938,5.235-5.868,6.194-1.625.807-3.3,1.553-4.987,2.215a.619.619,0,0,1-.229.044" transform="translate(-1510.16 -477.998)" fill="#964340"/>
        <path id="Trazado_65637" data-name="Trazado 65637" d="M1293.779,754.275a8.579,8.579,0,0,1-4.47-1.18c-2.421-1.482-3.791-4.152-4.613-6.033a38.06,38.06,0,0,1-3.189-15.982c.2-10.156,4.5-19.875,8.3-28.45,1.835-4.147,3.778-8.329,5.657-12.372,5.554-11.951,11.3-24.307,14.913-37.2a.625.625,0,1,1,1.2.337c-3.645,12.994-9.408,25.4-14.982,37.393-1.876,4.038-3.817,8.215-5.648,12.351-3.752,8.467-8,18.064-8.2,27.968a36.8,36.8,0,0,0,3.084,15.456c.754,1.727,2,4.17,4.118,5.466a8.611,8.611,0,0,0,8.017.026,19.606,19.606,0,0,0,6.531-5.611c11.038-13.515,14.265-32.107,15.966-48.512l.45-4.364c.375-3.649.75-7.3,1.163-10.944.482-4.256.954-7.969,1.446-11.348.592-4.068,1.224-7.77,1.933-11.317.383-1.918.8-3.821,1.227-5.655.173-.737.307-1.5.435-2.244a29.978,29.978,0,0,1,.668-3.154c1.1-3.892,3.072-6.869,5.705-8.609,3.073-2.017,6.724-2.651,10.212-3.037.646-.072,1.294-.136,1.943-.2a36.709,36.709,0,0,0,8.228-1.447,36.277,36.277,0,0,0,4.441-1.978c.5-.252,1.007-.5,1.513-.747a86.311,86.311,0,0,1,19.073-6.229l.489-.112a26.822,26.822,0,0,0,5.505-1.671,1.643,1.643,0,0,0,.75-.538.942.942,0,0,0-.385-1.062,3.481,3.481,0,0,0-1.7-.5,21.737,21.737,0,0,0-7.216.471.626.626,0,0,1-.289-1.218,23.034,23.034,0,0,1,7.633-.5,4.521,4.521,0,0,1,2.315.739,2.164,2.164,0,0,1,.745,2.655,2.656,2.656,0,0,1-1.322,1.082,27.794,27.794,0,0,1-5.761,1.759l-.49.112a85.19,85.19,0,0,0-18.807,6.135c-.5.242-1,.49-1.5.739a37.072,37.072,0,0,1-4.6,2.044,37.672,37.672,0,0,1-8.508,1.508c-.645.064-1.288.127-1.929.2-3.334.369-6.812.968-9.662,2.839-3,1.985-4.481,5.4-5.189,7.907a28.843,28.843,0,0,0-.638,3.025c-.132.759-.268,1.543-.45,2.317-.428,1.82-.838,3.709-1.219,5.613-.7,3.525-1.333,7.205-1.921,11.252-.49,3.366-.962,7.065-1.442,11.307-.412,3.642-.786,7.287-1.161,10.932l-.45,4.366c-1.72,16.588-4.995,35.4-16.24,49.173a20.752,20.752,0,0,1-6.969,5.953,11.146,11.146,0,0,1-4.731,1.089" transform="translate(-1067.481 -517.633)" fill="#964340"/>
        <path id="Trazado_65638" data-name="Trazado 65638" d="M1552.421,563.523a.626.626,0,0,1-.4-1.11c2.566-2.1,6.985-6.389,7.761-11.49a1.7,1.7,0,0,0-.029-.91c-.138-.287-.284-.308-.354-.319-.481-.07-1.744.324-4.9,3.758l-.213.231a72.672,72.672,0,0,1-8.77,8.269.626.626,0,1,1-.758-1,71.627,71.627,0,0,0,8.614-8.128l.205-.222c1.9-2.065,4.288-4.406,6-4.15a1.684,1.684,0,0,1,1.3,1.015,2.74,2.74,0,0,1,.138,1.639c-.838,5.516-5.5,10.056-8.2,12.271a.623.623,0,0,1-.4.142" transform="translate(-1286.572 -456.845)" fill="#964340"/>
        <path id="Trazado_65639" data-name="Trazado 65639" d="M792.247,150.177a.626.626,0,0,1-.452-1.058c1.529-1.6,2.3-3.878,2.977-5.887l1.705-5.049a38.1,38.1,0,0,1,3.2-7.6,13.347,13.347,0,0,1,6.195-5.642c1.765-.7,4.391-1.251,5.985-.473a.626.626,0,1,1-.55,1.124c-1.14-.557-3.376-.125-4.971.511a12.109,12.109,0,0,0-5.586,5.125,37.155,37.155,0,0,0-3.084,7.351l-1.706,5.049c-.72,2.133-1.536,4.551-3.258,6.351a.622.622,0,0,1-.452.194" transform="translate(-659.415 -103.368)" fill="#964340"/>
        <path id="Trazado_65640" data-name="Trazado 65640" d="M916.188,53.189a.626.626,0,0,1-.626-.626v-8.7a.626.626,0,1,1,1.252,0v8.7a.626.626,0,0,1-.626.626" transform="translate(-762.657 -36.02)" fill="#964340"/>
        <path id="Trazado_65641" data-name="Trazado 65641" d="M702.064,107.656a.626.626,0,0,1-.546-.93c3.228-5.8,3.807-12.693,4.1-18.7A154.964,154.964,0,0,0,705,69.349l-.174-2.39c-.379-5.31-.609-9.78-.5-14.338a80.359,80.359,0,0,1,6.066-28.461c2.522-6.011,7.457-13.974,16.644-17.775a18.648,18.648,0,0,1,6.288-1.532,11.8,11.8,0,0,1,2.175.1.626.626,0,1,1-.173,1.239,10.808,10.808,0,0,0-1.944-.092,17.43,17.43,0,0,0-5.867,1.439c-8.795,3.639-13.539,11.309-15.97,17.1a79.085,79.085,0,0,0-5.968,28.008c-.109,4.507.12,8.944.5,14.218l.174,2.387a155.863,155.863,0,0,1,.618,18.824c-.3,6.152-.892,13.221-4.252,19.252a.625.625,0,0,1-.547.321" transform="translate(-584.293 -4.033)" fill="#964340"/>
        <path id="Trazado_65642" data-name="Trazado 65642" d="M962.157,588.657q-.933,0-1.859-.025a.625.625,0,0,1-.609-.642.609.609,0,0,1,.642-.609,70.781,70.781,0,0,0,10.966-.571c2.159-.287,4.338-.68,6.475-1.166a15.823,15.823,0,0,0,5.465-2.155.626.626,0,1,1,.693,1.042,17.362,17.362,0,0,1-5.879,2.333c-2.176.5-4.393.894-6.592,1.187a72.575,72.575,0,0,1-9.3.606" transform="translate(-799.415 -485.955)" fill="#964340"/>
        <path id="Trazado_65643" data-name="Trazado 65643" d="M1297.019,1002.857c-2.441,0-4.839-.127-7.164-.251-2.588-.138-5.261-.281-7.934-.24a.65.65,0,0,1-.635-.616.627.627,0,0,1,.616-.636c2.717-.042,5.412.1,8.02.241,2.5.133,5.086.269,7.69.247h.006a.626.626,0,0,1,.006,1.252l-.6,0" transform="translate(-1067.302 -833.916)" fill="#964340"/>
        <path id="Trazado_65644" data-name="Trazado 65644" d="M526.912,1043.478a.577.577,0,0,1-.5-.283l-.387-.644a51.576,51.576,0,0,1-3.086-5.625c-.907-2.062-1.685-3.923-2.38-5.69-1.368-3.47-2.7-7.252-4.085-11.561a166.6,166.6,0,0,1-4.363-16.422c-1-4.739-1.79-9.331-2.344-13.65a.626.626,0,0,1,1.242-.16c.55,4.287,1.333,8.845,2.327,13.551a165.241,165.241,0,0,0,4.33,16.3c1.372,4.283,2.7,8.04,4.058,11.485.688,1.752,1.46,3.6,2.36,5.643a50.973,50.973,0,0,0,3.012,5.484l.226.374a.555.555,0,0,1,.087.117c.03.052.055.1.078.152a.655.655,0,0,1-.256.848.671.671,0,0,1-.317.081" transform="translate(-424.626 -823.747)" fill="#964340"/>
        <path id="Trazado_65645" data-name="Trazado 65645" d="M246.051,950.558a12.525,12.525,0,0,1-11.211-8,16.063,16.063,0,0,1,1.684-14.073,44.391,44.391,0,0,1,3.268-4.343c2.719-3.323,5.288-6.462,4.559-10.043a12.9,12.9,0,0,0-1.839-3.939,21.154,21.154,0,0,1-1.705-3.227c-1.754-4.474-.409-9.05.892-13.474a32.439,32.439,0,0,0,1.684-8.273,31.87,31.87,0,0,0-.594-5.613c-.564-3.418-1.147-6.952.231-10.327a1.252,1.252,0,1,1,2.317.947c-1.11,2.719-.609,5.756-.079,8.972a33.746,33.746,0,0,1,.627,6.066,34.277,34.277,0,0,1-1.786,8.933c-1.237,4.206-2.4,8.179-.963,11.856a19.078,19.078,0,0,0,1.516,2.843,14.956,14.956,0,0,1,2.15,4.735c.967,4.746-2.1,8.5-5.074,12.129a42.631,42.631,0,0,0-3.087,4.09,13.524,13.524,0,0,0-1.471,11.831,9.886,9.886,0,0,0,9.213,6.4c3.956-.177,7.462-3.718,7.357-7.43a11.918,11.918,0,0,0-1.122-4.205,10.945,10.945,0,0,0-3.084-4.48,4.1,4.1,0,0,0-4.358-.56,3.205,3.205,0,0,0-1.491,2.1c-.51,2.081.348,4.834,1.374,6.551l1.989-.371a1.252,1.252,0,1,1,.459,2.461l-2.046.38a2.11,2.11,0,0,1-2.493-1.089c-1.353-2.211-2.407-5.705-1.716-8.527a5.739,5.739,0,0,1,2.632-3.649,6.506,6.506,0,0,1,7.156.706,13.215,13.215,0,0,1,3.875,5.488,14.212,14.212,0,0,1,1.326,5.125c.144,5.089-4.411,9.762-9.748,10q-.223.011-.445.01" transform="translate(-194.845 -723.424)" fill="#bfb84d"/>
        <path id="Trazado_65646" data-name="Trazado 65646" d="M8.732,568.5a8.4,8.4,0,0,1-2.394-.347c-3.755-1.107-6.477-5.164-6.333-9.435a13.6,13.6,0,0,1,5.41-9.922c.213-.171.434-.342.656-.513,1.189-.92,2.313-1.789,2.516-2.913.19-1.055-.451-2.127-1.193-3.369a12.236,12.236,0,0,1-1.452-3.041c-.715-2.634.308-5.043,1.3-7.371a21.737,21.737,0,0,0,1.148-3.123c.63-2.509.171-5.335-.234-7.828l-2.2-13.571a1.251,1.251,0,1,1,2.47-.4l2.2,13.571c.444,2.732.946,5.829.191,8.838a23.929,23.929,0,0,1-1.273,3.491c-.86,2.026-1.673,3.94-1.185,5.739a10.234,10.234,0,0,0,1.184,2.411c.874,1.462,1.865,3.12,1.508,5.1-.373,2.071-2.007,3.333-3.448,4.448-.21.162-.419.323-.62.485A11.266,11.266,0,0,0,2.507,558.8c-.107,3.167,1.844,6.155,4.539,6.95,3.887,1.146,7.895-2.051,11.034-5.14a5.533,5.533,0,0,0-3.223-4.748,3.855,3.855,0,0,0-4.214,1.354,1.614,1.614,0,0,0-.03,1.563,1.394,1.394,0,0,0,1.139.831,1.252,1.252,0,0,1-.205,2.5,3.892,3.892,0,0,1-3.186-2.235,4.1,4.1,0,0,1,.2-4.039,6.373,6.373,0,0,1,7.165-2.317,8.184,8.184,0,0,1,4.89,7.561,1.252,1.252,0,0,1-.365.909c-3.124,3.132-7.13,6.513-11.517,6.513" transform="translate(0 -421.175)" fill="#bfb84d"/>
        <path id="Trazado_65647" data-name="Trazado 65647" d="M284.717,795.764a1.249,1.249,0,0,1-1.014-.516,4.544,4.544,0,0,1-.637-4,1.252,1.252,0,0,1,2.382.771,2.027,2.027,0,0,0,.28,1.762,1.252,1.252,0,0,1-1.011,1.987" transform="translate(-235.618 -658.38)" fill="#bfb84d"/>
        <path id="Trazado_65648" data-name="Trazado 65648" d="M285.355,684.816a1.251,1.251,0,0,1-1.231-1.034l-.7-3.945a1.251,1.251,0,1,1,2.465-.435l.7,3.944a1.25,1.25,0,0,1-1.234,1.469" transform="translate(-236.078 -565.077)" fill="#bfb84d"/>
        <path id="Trazado_65649" data-name="Trazado 65649" d="M44.451,437.239a1.251,1.251,0,0,1-1.041-1.945,2.7,2.7,0,0,0,.3-2.313,1.251,1.251,0,1,1,2.372-.8,5.186,5.186,0,0,1-.592,4.5,1.251,1.251,0,0,1-1.043.558" transform="translate(-35.986 -359.295)" fill="#bfb84d"/>
        <path id="Trazado_65650" data-name="Trazado 65650" d="M1756.156,1030.951a4.167,4.167,0,0,1-1.9-.428c-1.649-.828-2.3-2.669-2.694-3.769-1.249-3.513-2.347-7.229-.891-10.635,1.158-2.708,3.576-4.4,5.916-6.04,2.388-1.673,4.644-3.253,5.1-5.677.345-1.818-.455-3.82-1.234-5.555a87.209,87.209,0,0,0-4.157-8.111l-.258-.443a13.144,13.144,0,0,1-2.016-12.435l.18-.779a50.618,50.618,0,0,0,.97-16.531,1.251,1.251,0,1,1,2.488-.264,53.081,53.081,0,0,1-1.018,17.348l-.184.8a10.806,10.806,0,0,0,1.74,10.6l.261.449a89.5,89.5,0,0,1,4.278,8.344c.933,2.081,1.889,4.513,1.408,7.044-.65,3.425-3.435,5.374-6.128,7.261-2.145,1.5-4.173,2.923-5.05,4.974-1.1,2.577-.18,5.64.948,8.814a4.167,4.167,0,0,0,1.458,2.369,3.915,3.915,0,0,0,2.625-.2,60.27,60.27,0,0,0,8.2-3.183c.585-.279,1.146-.585,1.288-.941a2.827,2.827,0,0,0-.185-1.469l-1.867-6.405a24.393,24.393,0,0,0-2.691.148l-.232.021a17.141,17.141,0,0,0-3.2.683l-.238.067a2.569,2.569,0,0,0-.693.256,2.679,2.679,0,0,0-.555,1.293,3.4,3.4,0,0,0-.158.992,3.069,3.069,0,0,0,2.478,2.91c.073-.072.149-.143.226-.217a6.753,6.753,0,0,0,.935-1.013,1.252,1.252,0,0,1,1.28-2.1,2.159,2.159,0,0,1,1.186,2.7,5.785,5.785,0,0,1-1.678,2.228c-.159.151-.311.294-.437.427a1.765,1.765,0,0,1-.772.507,1.743,1.743,0,0,1-.933.006c-3.638-.859-4.607-3.315-4.78-5.224a5.346,5.346,0,0,1,.224-1.827,4.51,4.51,0,0,1,1.5-2.7,4.454,4.454,0,0,1,1.5-.647l.233-.065a19.289,19.289,0,0,1,3.673-.768l.2-.018c3.2-.3,4.762-.306,5.139.989l2.058,7.059a3.842,3.842,0,0,1-2.433,5.371,62.741,62.741,0,0,1-8.543,3.317,8.98,8.98,0,0,1-2.58.472" transform="translate(-1457.72 -798.976)" fill="#bfb84d"/>
        <path id="Trazado_65651" data-name="Trazado 65651" d="M1779.908,888.868a1.19,1.19,0,0,1-.22-.02,1.251,1.251,0,0,1-1.014-1.45l.6-3.393a1.252,1.252,0,0,1,2.465.435l-.6,3.4a1.25,1.25,0,0,1-1.23,1.033" transform="translate(-1481.608 -735.509)" fill="#bfb84d"/>
        <path id="Trazado_65652" data-name="Trazado 65652" d="M947.725,251.179a.625.625,0,0,1-.48-.224,15.06,15.06,0,0,1-2.134-3.518.626.626,0,0,1,1.138-.519,13.858,13.858,0,0,0,1.955,3.233.626.626,0,0,1-.479,1.028" transform="translate(-787.224 -205.376)" fill="#964340"/>
        <path id="Trazado_65653" data-name="Trazado 65653" d="M604.037,511.437a11.271,11.271,0,0,1-8.7-4.769,23.509,23.509,0,0,1-3.81-9.64c-3.949-19.771,2.761-40.334,9.846-57.842l.457-1.133c5.816-14.4,11.831-29.293,18.13-43.779.429-.989.879-1.964,1.328-2.936a52.527,52.527,0,0,0,3.021-7.536c.652-2.269,1.363-4.575,2.051-6.805.559-1.813,1.119-3.628,1.654-5.443l1.689-5.73c.138-.469.267-.95.4-1.434a23.817,23.817,0,0,1,1.213-3.715,6.625,6.625,0,0,1,2.287-2.41l.176-.131a28.671,28.671,0,0,0,9.895-13.791l.059-.179a6.744,6.744,0,0,1,.788-1.78,2.6,2.6,0,0,1,2.16-1.219c1.252.042,2.247,1.14,2.664,2.938a14.472,14.472,0,0,1-.087,6.8.626.626,0,1,1-1.212-.31,13.225,13.225,0,0,0,.08-6.21c-.207-.892-.719-1.943-1.483-1.969a1.483,1.483,0,0,0-1.091.68,5.735,5.735,0,0,0-.629,1.459l-.06.181a29.933,29.933,0,0,1-10.332,14.4l-.18.134a5.534,5.534,0,0,0-1.9,1.924,22.848,22.848,0,0,0-1.143,3.519c-.132.495-.264.986-.405,1.466l-1.689,5.729c-.537,1.82-1.1,3.639-1.659,5.458-.686,2.225-1.4,4.525-2.044,6.782a54.16,54.16,0,0,1-3.088,7.716c-.445.963-.891,1.928-1.316,2.909-6.293,14.471-12.3,29.355-18.117,43.748l-.458,1.134c-7.015,17.336-13.663,37.681-9.779,57.129a22.374,22.374,0,0,0,3.583,9.133,9.88,9.88,0,0,0,8.115,4.257c2.768-.159,5.24-1.849,7.083-3.3a42.083,42.083,0,0,0,11.318-13.874c3.539-7.014,5.933-16.584,7.116-28.445,1-10.009,2.208-21.879,3.628-34.029.272-2.323.49-4.729.7-7.056.875-9.638,1.78-19.6,6.682-28.078a.626.626,0,1,1,1.083.627c-4.764,8.234-5.656,18.061-6.519,27.564-.212,2.335-.431,4.749-.7,7.088-1.419,12.141-2.629,24-3.626,34.008-1.2,12.016-3.635,21.734-7.244,28.885a43.337,43.337,0,0,1-11.658,14.291c-1.989,1.57-4.671,3.394-7.787,3.573-.162.01-.326.014-.489.014" transform="translate(-491.761 -284.188)" fill="#964340"/>
        <path id="Trazado_65654" data-name="Trazado 65654" d="M874.587,368.7a.626.626,0,0,1-.394-1.112c3.208-2.6,6.374-5.343,9.407-8.148a22.548,22.548,0,0,0,4.84-5.763l.067-.123c.544-1.006,1.16-2.146,2.7-2.371a1.968,1.968,0,0,1,1.187.137,2.048,2.048,0,0,1,.767.726,5.936,5.936,0,0,1,.882,3.637,16.481,16.481,0,0,1-.674,3.468.626.626,0,1,1-1.208-.327,15.511,15.511,0,0,0,.633-3.2,4.792,4.792,0,0,0-.672-2.876.968.968,0,0,0-.281-.3.82.82,0,0,0-.452-.021c-.875.128-1.228.71-1.778,1.727l-.068.125a23.658,23.658,0,0,1-5.09,6.086c-3.054,2.823-6.24,5.582-9.47,8.2a.621.621,0,0,1-.394.14" transform="translate(-728.004 -292.503)" fill="#964340"/>
        <path id="Trazado_65655" data-name="Trazado 65655" d="M931.487,413.969a.626.626,0,0,1-.489-1.016c.972-1.217,1.992-2.416,2.978-3.576,1.729-2.034,3.516-4.136,5.075-6.369a5.069,5.069,0,0,0,.813-1.5,3.222,3.222,0,0,0-.49-2.369,2.7,2.7,0,0,0-1.605-1.321,2.579,2.579,0,0,0-1.964.513,19.832,19.832,0,0,0-3.219,3.165l-.267.3c-.382.435-.759.874-1.135,1.313-.839.979-1.706,1.991-2.631,2.936-.8.816-1.656,1.568-2.485,2.3a.626.626,0,0,1-.825-.94c.812-.712,1.651-1.449,2.416-2.231.9-.916,1.749-1.912,2.575-2.876.38-.443.76-.887,1.146-1.325l.265-.3a20.721,20.721,0,0,1,3.444-3.367,3.824,3.824,0,0,1,2.945-.709,3.939,3.939,0,0,1,2.409,1.894,4.435,4.435,0,0,1,.63,3.346,6.168,6.168,0,0,1-.995,1.89c-1.593,2.282-3.4,4.408-5.148,6.463-.98,1.153-1.994,2.345-2.954,3.547a.625.625,0,0,1-.489.235" transform="translate(-770.543 -330.304)" fill="#964340"/>
        <path id="Trazado_65656" data-name="Trazado 65656" d="M978.8,444.869a.626.626,0,0,1-.475-1.033l5.491-6.4a16.474,16.474,0,0,0,2.2-2.981,5.105,5.105,0,0,0,.611-3.3,2.853,2.853,0,0,0-1.969-2.228.626.626,0,1,1,.285-1.219,4.083,4.083,0,0,1,2.91,3.2,6.334,6.334,0,0,1-.728,4.133,17.4,17.4,0,0,1-2.354,3.216l-5.491,6.4a.626.626,0,0,1-.476.218" transform="translate(-814.812 -356.264)" fill="#964340"/>
        <path id="Trazado_65657" data-name="Trazado 65657" d="M908.36,509.745h-.021a.626.626,0,0,1,0-1.252h.017c1.26,0,2.394-.967,3.358-1.874,3.452-3.247,6.657-6.867,9.758-10.368a22.558,22.558,0,0,0,5.6-15.324.626.626,0,0,1,.617-.634.618.618,0,0,1,.634.617,23.8,23.8,0,0,1-5.913,16.168c-3.121,3.525-6.347,7.167-9.84,10.452-1.223,1.15-2.58,2.215-4.215,2.215" transform="translate(-756.122 -400.081)" fill="#964340"/>
        <path id="Trazado_65658" data-name="Trazado 65658" d="M971.886,265.409a2.894,2.894,0,0,1-2.385-1.176.626.626,0,0,1,.99-.765c.864,1.117,2.482.869,4.809-.739l.252-.176a6.579,6.579,0,0,1,2.244-1.17,3.669,3.669,0,0,1,3.014.631.626.626,0,0,1-.752,1,2.434,2.434,0,0,0-1.975-.414,5.561,5.561,0,0,0-1.812.977l-.259.181a7.588,7.588,0,0,1-4.126,1.652" transform="translate(-807.479 -217.651)" fill="#964340"/>
        <path id="Trazado_65659" data-name="Trazado 65659" d="M971.284,175.51a.61.61,0,0,1-.174-.025,21.552,21.552,0,0,1-10.245-6.6c-5.589-6.523-6.7-15.642-7.064-24.526l-.072-1.8c-.306-7.9-.623-16.069-4.466-22.842a13.186,13.186,0,0,0-2.391-3.186,9.516,9.516,0,0,0-12.952.449.626.626,0,0,1-.918-.851,10.764,10.764,0,0,1,14.727-.51,14.38,14.38,0,0,1,2.622,3.481c3.993,7.037,4.316,15.361,4.628,23.411l.071,1.8c.357,8.658,1.424,17.529,6.764,23.763a20.291,20.291,0,0,0,9.644,6.214.626.626,0,0,1-.174,1.227" transform="translate(-777.046 -94.089)" fill="#964340"/>
        <path id="Trazado_65660" data-name="Trazado 65660" d="M976.541,103.725a.625.625,0,0,1-.531-.294,26.412,26.412,0,0,1-3.832-11.055,45.467,45.467,0,0,1-.149-6.172c.114-4.143.355-8.35.588-12.42.863-15.077,1.756-30.668-3.781-45.433a50.078,50.078,0,0,0-9.525-15.718c-5-5.629-9.669-8.96-14.689-10.483a20.771,20.771,0,0,0-11.127-.241A.626.626,0,1,1,933.179.7a21.73,21.73,0,0,1,11.807.254c5.25,1.593,10.1,5.041,15.261,10.85a51.324,51.324,0,0,1,9.761,16.11c5.629,15.012,4.729,30.736,3.858,45.944-.232,4.06-.473,8.258-.586,12.383a44.348,44.348,0,0,0,.141,6,25.172,25.172,0,0,0,3.65,10.528.626.626,0,0,1-.53.957" transform="translate(-776.942 -0.002)" fill="#964340"/>
        <path id="Trazado_65661" data-name="Trazado 65661" d="M979.557,523.384h-.008a.626.626,0,1,1,.008,0" transform="translate(-815.437 -434.933)" fill="#964340"/>
        <path id="Trazado_65662" data-name="Trazado 65662" d="M1023.063,439.934a.626.626,0,0,1-.319-1.164,24.693,24.693,0,0,0,8.519-8.418c.718-1.128,1.549-2.465,2.27-3.812a.626.626,0,0,1,1.1.591c-.741,1.384-1.587,2.746-2.318,3.895a25.889,25.889,0,0,1-8.936,8.822.625.625,0,0,1-.319.087" transform="translate(-851.683 -355.029)" fill="#964340"/>
        <path id="Trazado_65663" data-name="Trazado 65663" d="M798.844,359.806a.626.626,0,0,1-.529-.291c-.957-1.512-1.855-3.089-2.666-4.687a47.233,47.233,0,0,1-4.379-14.809.626.626,0,0,1,1.239-.174,46,46,0,0,0,4.255,14.416c.794,1.564,1.672,3.106,2.609,4.585a.626.626,0,0,1-.528.961" transform="translate(-659.117 -282.64)" fill="#964340"/>
        <path id="Trazado_65664" data-name="Trazado 65664" d="M773.8,308.384a.625.625,0,0,1-.554-.334,5.735,5.735,0,0,0-1.533-1.847.626.626,0,1,1,.778-.98,6.951,6.951,0,0,1,1.861,2.244.626.626,0,0,1-.553.918" transform="translate(-642.631 -254.136)" fill="#964340"/>
        <path id="Trazado_65665" data-name="Trazado 65665" d="M580.663,241.787a16.484,16.484,0,0,1-1.828-.117.626.626,0,1,1,.139-1.243c1.714.191,3.625.243,4.786-.829a4.707,4.707,0,0,0,1.193-3.338,10.283,10.283,0,0,0-.2-2.274.626.626,0,1,1,1.226-.249,11.552,11.552,0,0,1,.227,2.552,5.768,5.768,0,0,1-1.6,4.229,5.608,5.608,0,0,1-3.946,1.27" transform="translate(-481.703 -194.284)" fill="#964340"/>
        <path id="Trazado_65666" data-name="Trazado 65666" d="M639.91,240.6a4.633,4.633,0,0,1-2.977-1.069,3.673,3.673,0,0,1-1.337-2.8,15.13,15.13,0,0,1,.268-2.943.626.626,0,1,1,1.23.235,13.875,13.875,0,0,0-.246,2.7,2.417,2.417,0,0,0,.895,1.858,3.437,3.437,0,0,0,2.7.731.626.626,0,0,1,.2,1.236,4.621,4.621,0,0,1-.725.057" transform="translate(-529.447 -194.319)" fill="#964340"/>
        <path id="Trazado_65667" data-name="Trazado 65667" d="M595.325,299.857c-.02,0-.041,0-.062,0a.626.626,0,0,1-.562-.684,7.143,7.143,0,0,0-.005-1.355,3.81,3.81,0,0,0-.925-2.392,1.64,1.64,0,0,0-1.965-.335.626.626,0,0,1-.73-1.017,2.868,2.868,0,0,1,3.58.468,5,5,0,0,1,1.285,3.158,8.4,8.4,0,0,1,.005,1.594.626.626,0,0,1-.622.565" transform="translate(-492.146 -244.594)" fill="#964340"/>
        <path id="Trazado_65668" data-name="Trazado 65668" d="M630.667,297.224a.625.625,0,0,1-.606-.473,4.418,4.418,0,0,1,6-5.155.626.626,0,0,1-.486,1.153,3.167,3.167,0,0,0-4.3,3.7.626.626,0,0,1-.454.76.633.633,0,0,1-.154.019" transform="translate(-524.73 -242.62)" fill="#964340"/>
      </g>
    </g>
    <rect id="Rect치ngulo_5845" data-name="Rect치ngulo 5845" width="400" height="18.945" transform="translate(678 30024.055)" fill="#cbcac2"/>
  </g>
</svg>
