<svg xmlns="http://www.w3.org/2000/svg" width="304.102" height="150.464" viewBox="0 0 304.102 150.464">
  <g id="Grupo_958050" data-name="Grupo 958050" transform="translate(-319 -2651.596)">
    <path id="Trazado_32398" data-name="Trazado 32398" d="M2268-18541.012h284.121" transform="translate(-1949 21281)" fill="none" stroke="#792de2" stroke-width="2"/>
    <path id="Trazado_725273" data-name="Trazado 725273" d="M2.02,0V-15.4H6.273q8.143,0,8.143,7.509a7.567,7.567,0,0,1-2.261,5.731A8.388,8.388,0,0,1,6.1,0Zm1.8-13.771V-1.633h2.3a6.524,6.524,0,0,0,4.716-1.622,6.081,6.081,0,0,0,1.687-4.6q0-5.919-6.295-5.919ZM17.445,0V-15.4h4.383A4.79,4.79,0,0,1,25-14.427a3.159,3.159,0,0,1,1.171,2.546A3.746,3.746,0,0,1,25.459-9.6,3.823,3.823,0,0,1,23.5-8.229v.043A3.919,3.919,0,0,1,26-7.009a3.618,3.618,0,0,1,.935,2.583,4.027,4.027,0,0,1-1.418,3.2A5.278,5.278,0,0,1,21.936,0Zm1.8-13.771V-8.8H21.1a3.509,3.509,0,0,0,2.331-.714,2.488,2.488,0,0,0,.849-2.014q0-2.245-2.954-2.245Zm0,6.6v5.543H21.7a3.67,3.67,0,0,0,2.465-.752,2.576,2.576,0,0,0,.875-2.062q0-2.729-3.717-2.729Z" transform="translate(356 2667)" fill="#00223d"/>
    <path id="Trazado_725274" data-name="Trazado 725274" d="M11.129-13.771H6.682V0h-1.8V-13.771H.44V-15.4H11.129Zm3.083-.021a1.116,1.116,0,0,1-.806-.322,1.088,1.088,0,0,1-.333-.816,1.105,1.105,0,0,1,.333-.822,1.107,1.107,0,0,1,.806-.328,1.138,1.138,0,0,1,.822.328,1.1,1.1,0,0,1,.338.822,1.089,1.089,0,0,1-.338.806A1.128,1.128,0,0,1,14.212-13.793ZM15.071,0H13.31V-11h1.762ZM27.479-5.06H19.712A4.114,4.114,0,0,0,20.7-2.224a3.407,3.407,0,0,0,2.6,1,5.4,5.4,0,0,0,3.416-1.225V-.795A6.384,6.384,0,0,1,22.881.258a4.649,4.649,0,0,1-3.663-1.5,6.134,6.134,0,0,1-1.332-4.216,6.015,6.015,0,0,1,1.456-4.184,4.667,4.667,0,0,1,3.615-1.617,4.136,4.136,0,0,1,3.341,1.4,5.822,5.822,0,0,1,1.182,3.878Zm-1.8-1.493a3.584,3.584,0,0,0-.736-2.374,2.507,2.507,0,0,0-2.014-.849,2.846,2.846,0,0,0-2.116.892,4.046,4.046,0,0,0-1.074,2.331ZM45.762,0H44V-6.316a4.765,4.765,0,0,0-.564-2.643,2.139,2.139,0,0,0-1.9-.816,2.348,2.348,0,0,0-1.917,1.031,3.945,3.945,0,0,0-.79,2.471V0H37.071V-6.531q0-3.244-2.5-3.244a2.319,2.319,0,0,0-1.912.972,4.019,4.019,0,0,0-.752,2.53V0H30.143V-11H31.9v1.74h.043a3.737,3.737,0,0,1,3.416-2,3.185,3.185,0,0,1,1.966.628A3.161,3.161,0,0,1,38.479-8.98a3.925,3.925,0,0,1,3.652-2.277q3.631,0,3.631,4.479ZM50.9-1.59h-.043V5.06H49.092V-11h1.762v1.934H50.9a4.166,4.166,0,0,1,3.8-2.191,4.028,4.028,0,0,1,3.319,1.477,6.118,6.118,0,0,1,1.192,3.958A6.818,6.818,0,0,1,57.868-1.4,4.471,4.471,0,0,1,54.194.258,3.68,3.68,0,0,1,50.9-1.59Zm-.043-4.437V-4.49a3.271,3.271,0,0,0,.886,2.315,2.943,2.943,0,0,0,2.25.951A2.949,2.949,0,0,0,56.5-2.449a5.618,5.618,0,0,0,.908-3.405,4.435,4.435,0,0,0-.849-2.879,2.808,2.808,0,0,0-2.3-1.042,3.121,3.121,0,0,0-2.471,1.069A3.925,3.925,0,0,0,50.854-6.026ZM66.623.258a5.1,5.1,0,0,1-3.894-1.542,5.71,5.71,0,0,1-1.456-4.087A5.948,5.948,0,0,1,62.788-9.7a5.445,5.445,0,0,1,4.093-1.558,4.934,4.934,0,0,1,3.84,1.515,6.006,6.006,0,0,1,1.38,4.2,5.91,5.91,0,0,1-1.488,4.216A5.213,5.213,0,0,1,66.623.258Zm.129-10.033a3.351,3.351,0,0,0-2.686,1.155,4.743,4.743,0,0,0-.988,3.185,4.485,4.485,0,0,0,1,3.083,3.4,3.4,0,0,0,2.675,1.128,3.221,3.221,0,0,0,2.626-1.106A4.8,4.8,0,0,0,70.3-5.479a4.884,4.884,0,0,0-.918-3.18A3.206,3.206,0,0,0,66.752-9.775Z" transform="translate(551 2797)" fill="#00223d"/>
    <path id="Trazado_32400" data-name="Trazado 32400" d="M2813.176-18411H2660v-107.109" transform="translate(-2299 21201)" fill="none" stroke="#505050" stroke-width="1"/>
  </g>
</svg>
