<svg xmlns="http://www.w3.org/2000/svg" xmlns:xlink="http://www.w3.org/1999/xlink" width="183" height="184" viewBox="0 0 183 184">
  <defs>
    <clipPath id="clip-path">
      <ellipse id="Elipse_156" data-name="Elipse 156" cx="91.5" cy="92" rx="91.5" ry="92" transform="translate(-0.299 0.3)" fill="#fff" stroke="#707070" stroke-width="1"/>
    </clipPath>
  </defs>
  <g id="Grupo_959091" data-name="Grupo 959091" transform="translate(-399 -5361)">
    <circle id="Elipse_5509" data-name="Elipse 5509" cx="83.5" cy="83.5" r="83.5" transform="translate(407 5364)" fill="#fdf8e4"/>
    <circle id="Elipse_5510" data-name="Elipse 5510" cx="57" cy="57" r="57" transform="translate(434 5391)" fill="#d9e2f4"/>
    <g id="_x30_8_Ear_Plug" transform="translate(390.438 5388.939)">
      <g id="Grupo_957409" data-name="Grupo 957409" transform="translate(70.562 20.061)">
        <g id="Grupo_957408" data-name="Grupo 957408" transform="translate(0 0)">
          <path id="Trazado_722077" data-name="Trazado 722077" d="M71.816,51.73a.808.808,0,0,0,.716-.891C70.7,33.917,75.792,24.428,88.108,21.83c15.295-1.1,24.234,3.508,27.327,14.082A23.787,23.787,0,0,1,112.473,55.3c-.778,1.227-1.5,2.433-2.175,3.6h-6.1a5.683,5.683,0,1,0,0,11.366h.839a38.9,38.9,0,0,0-1.557,6.28c-1.5,9.629-12.341,15.112-21.529,5.493A16.073,16.073,0,0,1,77.83,66.514c.667-2.194,2.407-2.525,3.52-1.761,2.5,1.729,3.752,4.832,5.584,7.67a3.811,3.811,0,0,0,6.524-.16c1.467-2.819.269-6.706-1.668-9.556,3.677-3.145,7.228-6.965,5.447-11.476-1.982-5.089-8.9-5.926-12.342-1.722-.016.02-.046.056-.06.077a1.014,1.014,0,0,1-1.709-.191c-2.4-5.6-1.088-10.9,2.63-14.313a11.391,11.391,0,0,1,10.276-2.843c5.238,1.17,11.848,7.822,8.082,18.425a.809.809,0,1,0,1.524.541c3.755-10.574-2.087-18.944-9.254-20.545a12.992,12.992,0,0,0-11.722,3.23c-4.228,3.881-5.7,9.918-3.021,16.144a2.631,2.631,0,0,0,4.452.568c.015-.019.04-.049.053-.069a5.642,5.642,0,0,1,9.621,1.387c1.425,3.822-2.393,7.419-5.583,10.022a.809.809,0,0,0-.133,1.116c1.822,2.4,3.216,6.068,1.972,8.46a2.2,2.2,0,0,1-3.729.031c-1.814-2.81-3.178-6.156-6.027-8.127-1.917-1.314-4.969-.734-5.986,2.627a17.693,17.693,0,0,0,4.5,17.1c10.147,10.624,22.593,4.6,24.3-6.361a37.537,37.537,0,0,1,1.666-6.528h8.163V71.51a.808.808,0,1,0,1.617,0V57.652a.809.809,0,0,0-1.617,0V58.9h-2.734c.529-.9,1.078-1.809,1.667-2.737a25.405,25.405,0,0,0,3.149-20.7c-3.3-11.271-13.069-16.4-29.051-15.238a.9.9,0,0,0-.107.015c-13.134,2.745-18.822,13.1-16.9,30.777a.81.81,0,0,0,.891.717Zm43.09,16.917H104.2a4.066,4.066,0,0,1,0-8.132h10.708Z" transform="translate(-70.562 -20.061)" fill="#0540b7"/>
          <path id="Trazado_722078" data-name="Trazado 722078" d="M332.369,374.832a5.682,5.682,0,0,0-8.036,8.036l7.571,7.572-.882.882a.808.808,0,0,0,1.143,1.143l9.8-9.8a.808.808,0,1,0-1.143-1.143l-.882.882Zm-6.893,6.893a4.065,4.065,0,0,1,5.749-5.749l7.571,7.572-5.75,5.749Z" transform="translate(-281.203 -315.089)" fill="#0540b7"/>
        </g>
      </g>
    </g>
  </g>
</svg>
