<svg xmlns="http://www.w3.org/2000/svg" xmlns:xlink="http://www.w3.org/1999/xlink" width="295" height="256" viewBox="0 0 295 256">
  <defs>
    <clipPath id="clip-path">
      <rect id="Rectángulo_5908" data-name="Rectángulo 5908" width="179" height="179" fill="none"/>
    </clipPath>
    <clipPath id="clip-path-3">
      <rect id="Rectángulo_5906" data-name="Rectángulo 5906" width="128.681" height="138.817" fill="none"/>
    </clipPath>
  </defs>
  <g id="Grupo_959298" data-name="Grupo 959298" transform="translate(-285 -2198)">
    <rect id="Rectángulo_340011" data-name="Rectángulo 340011" width="295" height="256" transform="translate(285 2198)" fill="#ecf7f4"/>
    <g id="Grupo_959093" data-name="Grupo 959093" transform="translate(0 9.459)">
      <g id="Grupo_19098" data-name="Grupo 19098" transform="translate(343 2211.541)">
        <g id="Grupo_19093" data-name="Grupo 19093" clip-path="url(#clip-path)">
          <g id="Grupo_19092" data-name="Grupo 19092" transform="translate(0 0)">
            <g id="Grupo_19091" data-name="Grupo 19091" clip-path="url(#clip-path)">
              <path id="Trazado_66087" data-name="Trazado 66087" d="M89.5,0h0A89.5,89.5,0,0,0,0,89.5H0A89.5,89.5,0,0,0,89.5,179h0A89.5,89.5,0,0,0,179,89.5h0A89.5,89.5,0,0,0,89.5,0" transform="translate(0 -0.001)" fill="#2fb6ac"/>
              <g id="Grupo_19090" data-name="Grupo 19090" transform="translate(50.315 40.179)" opacity="0.12">
                <g id="Grupo_19089" data-name="Grupo 19089">
                  <g id="Grupo_19088" data-name="Grupo 19088" clip-path="url(#clip-path-3)">
                    <path id="Trazado_66088" data-name="Trazado 66088" d="M1124.3,996.569l40.052,40.052a89.5,89.5,0,0,0,88.628-88.658L1202.825,897.8Z" transform="translate(-1124.303 -897.804)"/>
                  </g>
                </g>
              </g>
              <path id="Trazado_66089" data-name="Trazado 66089" d="M2782.374,1871.357a1.679,1.679,0,0,0-1.679,1.679v11.222a1.679,1.679,0,1,0,3.358,0v-11.222a1.679,1.679,0,0,0-1.679-1.679" transform="translate(-2656.253 -1787.61)" fill="#e0e4ea"/>
              <path id="Trazado_66090" data-name="Trazado 66090" d="M1189.76,944.062V918.054a1.679,1.679,0,0,1,1.679-1.679h.292a1.679,1.679,0,0,0,1.679-1.679V886.681a1.679,1.679,0,0,0-1.679-1.679h-57.7a7.164,7.164,0,0,0-5.066,2.1l-12.772,12.772a7.164,7.164,0,0,0-2.1,5.066V914.7a1.679,1.679,0,0,0,1.679,1.679h.884a1.679,1.679,0,0,1,1.679,1.679v5.127a1.679,1.679,0,0,1-1.679,1.679h-.884a1.679,1.679,0,0,0-1.679,1.679v56.625a1.679,1.679,0,0,0,1.679,1.679h75.962a1.679,1.679,0,0,0,1.679-1.679V947.419a1.679,1.679,0,0,0-1.679-1.679h-.292a1.679,1.679,0,0,1-1.679-1.679" transform="translate(-1064.232 -845.396)" fill="#4a576b"/>
              <path id="Trazado_66091" data-name="Trazado 66091" d="M2585.279,976.96h-5.719a1.679,1.679,0,0,0-1.679,1.679v19.784a1.679,1.679,0,0,0,1.679,1.679h5.719a1.679,1.679,0,0,0,1.679-1.679V978.639a1.679,1.679,0,0,0-1.679-1.679" transform="translate(-2462.515 -933.239)" fill="#ffcf49"/>
              <path id="Trazado_66092" data-name="Trazado 66092" d="M2329.556,976.96h-5.719a1.679,1.679,0,0,0-1.679,1.679v19.784a1.679,1.679,0,0,0,1.679,1.679h5.719a1.679,1.679,0,0,0,1.679-1.679V978.639a1.679,1.679,0,0,0-1.679-1.679" transform="translate(-2218.236 -933.239)" fill="#ffcf49"/>
              <path id="Trazado_66093" data-name="Trazado 66093" d="M2073.834,976.96h-5.719a1.679,1.679,0,0,0-1.679,1.679v19.784a1.679,1.679,0,0,0,1.679,1.679h5.719a1.679,1.679,0,0,0,1.679-1.679V978.639a1.679,1.679,0,0,0-1.679-1.679" transform="translate(-1973.959 -933.239)" fill="#ffcf49"/>
              <path id="Trazado_66094" data-name="Trazado 66094" d="M1818.111,976.96h-5.719a1.679,1.679,0,0,0-1.679,1.679v19.784a1.679,1.679,0,0,0,1.679,1.679h5.719a1.679,1.679,0,0,0,1.679-1.679V978.639a1.679,1.679,0,0,0-1.679-1.679" transform="translate(-1729.68 -933.239)" fill="#ffcf49"/>
              <path id="Trazado_66095" data-name="Trazado 66095" d="M1562.389,976.96h-5.718a1.679,1.679,0,0,0-1.679,1.679v19.784a1.679,1.679,0,0,0,1.679,1.679h5.718a1.679,1.679,0,0,0,1.679-1.679V978.639a1.679,1.679,0,0,0-1.679-1.679" transform="translate(-1485.402 -933.239)" fill="#ffcf49"/>
              <path id="Trazado_66096" data-name="Trazado 66096" d="M1306.666,1148.911h-5.719a1.679,1.679,0,0,0-1.679,1.679v19.784a1.679,1.679,0,0,0,1.679,1.679h5.719a1.679,1.679,0,0,0,1.679-1.679V1150.59a1.679,1.679,0,0,0-1.679-1.679" transform="translate(-1241.123 -1097.495)" fill="#ffcf49"/>
            </g>
          </g>
        </g>
      </g>
      <path id="Trazado_66144" data-name="Trazado 66144" d="M19.089,0H16.543l-1.01-12.1L11.14,0H9.528L5.156-12.074,4.136,0H1.579L2.8-15.318H6.381L10.323-4.49,14.3-15.318h3.577Zm10.27-10.807h2.471V0H29.477l-.064-1.354A3.866,3.866,0,0,1,26.082.2a4,4,0,0,1-2.857-.972,3.618,3.618,0,0,1-1.031-2.766v-7.272h2.492v6.735a2.217,2.217,0,0,0,.6,1.7,2.176,2.176,0,0,0,1.542.553A2.506,2.506,0,0,0,28.644-2.5a2.838,2.838,0,0,0,.714-2.1Zm15.78,5.221-.032.623H36.889A3.26,3.26,0,0,0,37.834-2.6a3.087,3.087,0,0,0,2.181.816,2.963,2.963,0,0,0,1.606-.44A2.776,2.776,0,0,0,42.689-3.48l2.256.387A4.749,4.749,0,0,1,43.076-.666a5.368,5.368,0,0,1-3.04.87,5.54,5.54,0,0,1-4.05-1.493A5.493,5.493,0,0,1,34.461-5.4a5.515,5.515,0,0,1,1.525-4.114,5.418,5.418,0,0,1,3.975-1.5,5.145,5.145,0,0,1,3.749,1.38A5.442,5.442,0,0,1,45.139-5.586Zm-5.167-3.6a3.153,3.153,0,0,0-1.95.585A2.851,2.851,0,0,0,37-6.811h5.661A2.6,2.6,0,0,0,41.8-8.583,2.751,2.751,0,0,0,39.972-9.185ZM51.38.2a5.563,5.563,0,0,1-3.029-.768,3.206,3.206,0,0,1-1.482-2.229l2.095-.591a2.239,2.239,0,0,0,.849,1.359,2.613,2.613,0,0,0,1.568.457,2.5,2.5,0,0,0,1.311-.322,1.1,1.1,0,0,0,.526-1.042,1.007,1.007,0,0,0-.14-.532,1.461,1.461,0,0,0-.333-.387,2.324,2.324,0,0,0-.553-.306,6.242,6.242,0,0,0-.655-.236l-.8-.236q-.5-.15-.838-.258a7.637,7.637,0,0,1-1.031-.4,4.893,4.893,0,0,1-.849-.537,2.1,2.1,0,0,1-.65-.843,2.975,2.975,0,0,1-.22-1.187A2.841,2.841,0,0,1,47.7-9.625a3.116,3.116,0,0,1,1.439-1.047A5.9,5.9,0,0,1,51.176-11a5.044,5.044,0,0,1,2.734.7,3.051,3.051,0,0,1,1.38,2.138L53.335-7.7a1.948,1.948,0,0,0-.779-1.2,2.4,2.4,0,0,0-1.37-.387,2.392,2.392,0,0,0-1.251.306,1.012,1.012,0,0,0-.51.929,1.261,1.261,0,0,0,.038.317.618.618,0,0,0,.145.263q.107.118.193.209a1.009,1.009,0,0,0,.279.188q.193.1.312.15a3.382,3.382,0,0,0,.387.134l.4.118q.129.038.446.118l.446.113q.6.161,1.026.3a5.919,5.919,0,0,1,.935.414,3.257,3.257,0,0,1,.827.607,2.713,2.713,0,0,1,.532.865A3.143,3.143,0,0,1,55.6-3.072a3.205,3.205,0,0,1-.344,1.52,2.614,2.614,0,0,1-.94,1.021,4.605,4.605,0,0,1-1.332.553A6.66,6.66,0,0,1,51.38.2ZM61.918,0a3.055,3.055,0,0,1-2.277-.827,3.176,3.176,0,0,1-.816-2.331V-8.873H56.665v-1.934h.741a1.69,1.69,0,0,0,1.273-.414,2.089,2.089,0,0,0,.392-1.445v-1.676h2.256v3.534H63.68v1.934H61.327v5.457A1.549,1.549,0,0,0,61.7-2.293a1.336,1.336,0,0,0,1,.381h.978V0ZM68.61-8.991a3.263,3.263,0,0,1,1.37-1.375,4.272,4.272,0,0,1,2.111-.559v2.256a3.807,3.807,0,0,0-2.551.725,3.083,3.083,0,0,0-.833,2.433V0H66.226V-10.807H68.61ZM76.527.2a4.485,4.485,0,0,1-1.649-.285,2.621,2.621,0,0,1-1.2-.967A2.876,2.876,0,0,1,73.2-2.739a3.134,3.134,0,0,1,.22-1.208A2.646,2.646,0,0,1,74-4.834a3.409,3.409,0,0,1,.913-.623,6.548,6.548,0,0,1,1.117-.424q.564-.156,1.305-.3l1.633-.3q1-.193,1-.978a1.535,1.535,0,0,0-.6-1.348,2.565,2.565,0,0,0-1.515-.424,2.535,2.535,0,0,0-1.558.457,2,2,0,0,0-.73,1.445l-2.224-.408Q73.885-11,78-11a7.615,7.615,0,0,1,1.284.1,4.585,4.585,0,0,1,1.171.371,3.368,3.368,0,0,1,.983.682,2.976,2.976,0,0,1,.655,1.1,4.575,4.575,0,0,1,.247,1.563V-3a1.711,1.711,0,0,0,.226,1.031.972.972,0,0,0,.795.279h.172V0H82.36q-1.837,0-2.191-1.429h-.118A3.513,3.513,0,0,1,78.52-.193,5.064,5.064,0,0,1,76.527.2Zm.58-1.944a2.873,2.873,0,0,0,2.159-.892,3.233,3.233,0,0,0,.859-2.342l-2.761.612a3.31,3.31,0,0,0-1.332.5,1.079,1.079,0,0,0-.44.918,1.038,1.038,0,0,0,.419.9A1.837,1.837,0,0,0,77.107-1.74ZM99.451-16.5h2.471V0H99.559l-.064-1.719A3.478,3.478,0,0,1,98.049-.279,4.41,4.41,0,0,1,95.9.247a4.986,4.986,0,0,1-1.982-.4,5,5,0,0,1-1.627-1.112A5.129,5.129,0,0,1,91.18-3.045a6.528,6.528,0,0,1-.408-2.347,6.453,6.453,0,0,1,.408-2.331A5.138,5.138,0,0,1,92.286-9.5a4.989,4.989,0,0,1,1.633-1.112,5,5,0,0,1,1.977-.4,4.468,4.468,0,0,1,2.111.5,3.471,3.471,0,0,1,1.445,1.37Zm-5.3,13.675a3.022,3.022,0,0,0,2.288.978,2.958,2.958,0,0,0,2.277-1,3.628,3.628,0,0,0,.913-2.546,3.6,3.6,0,0,0-.918-2.535,2.963,2.963,0,0,0-2.272-1,3.013,3.013,0,0,0-2.283.972,3.578,3.578,0,0,0-.918,2.562A3.61,3.61,0,0,0,94.155-2.825Zm21.076-2.761-.032.623h-8.218a3.26,3.26,0,0,0,.945,2.363,3.087,3.087,0,0,0,2.181.816,2.963,2.963,0,0,0,1.606-.44,2.776,2.776,0,0,0,1.069-1.257l2.256.387a4.749,4.749,0,0,1-1.869,2.428,5.368,5.368,0,0,1-3.04.87,5.54,5.54,0,0,1-4.05-1.493A5.493,5.493,0,0,1,104.554-5.4a5.515,5.515,0,0,1,1.525-4.114,5.418,5.418,0,0,1,3.975-1.5,5.145,5.145,0,0,1,3.749,1.38A5.442,5.442,0,0,1,115.231-5.586Zm-5.167-3.6a3.153,3.153,0,0,0-1.95.585,2.851,2.851,0,0,0-1.026,1.789h5.661a2.6,2.6,0,0,0-.859-1.772A2.751,2.751,0,0,0,110.064-9.185Zm15.9.193a3.263,3.263,0,0,1,1.37-1.375,4.272,4.272,0,0,1,2.111-.559v2.256a3.807,3.807,0,0,0-2.551.725,3.083,3.083,0,0,0-.833,2.433V0h-2.481V-10.807h2.385Zm12.418-1.815h2.471V0H138.5l-.064-1.354A3.866,3.866,0,0,1,135.1.2a4,4,0,0,1-2.857-.972,3.618,3.618,0,0,1-1.031-2.766v-7.272h2.492v6.735a2.217,2.217,0,0,0,.6,1.7,2.176,2.176,0,0,0,1.542.553,2.506,2.506,0,0,0,1.821-.682,2.838,2.838,0,0,0,.714-2.1Zm7.24-2.062a1.476,1.476,0,0,1-1.074-.446,1.449,1.449,0,0,1-.451-1.069,1.458,1.458,0,0,1,.446-1.069,1.47,1.47,0,0,1,1.08-.446,1.463,1.463,0,0,1,1.063.446,1.449,1.449,0,0,1,.451,1.069,1.449,1.449,0,0,1-.451,1.069A1.463,1.463,0,0,1,145.621-12.869ZM144.354,0V-10.807h2.481V0Zm13.793-16.5h2.471V0h-2.363l-.064-1.719a3.478,3.478,0,0,1-1.445,1.439,4.41,4.41,0,0,1-2.154.526,4.986,4.986,0,0,1-1.982-.4,5,5,0,0,1-1.627-1.112,5.129,5.129,0,0,1-1.106-1.783,6.528,6.528,0,0,1-.408-2.347,6.453,6.453,0,0,1,.408-2.331A5.138,5.138,0,0,1,150.981-9.5a4.989,4.989,0,0,1,1.633-1.112,5,5,0,0,1,1.977-.4,4.468,4.468,0,0,1,2.111.5,3.471,3.471,0,0,1,1.445,1.37Zm-5.3,13.675a3.022,3.022,0,0,0,2.288.978,2.958,2.958,0,0,0,2.277-1,3.628,3.628,0,0,0,.913-2.546,3.6,3.6,0,0,0-.918-2.535,2.963,2.963,0,0,0-2.272-1,3.013,3.013,0,0,0-2.283.972,3.578,3.578,0,0,0-.918,2.562A3.61,3.61,0,0,0,152.851-2.825ZM168.91.2a5.679,5.679,0,0,1-4.093-1.52,5.4,5.4,0,0,1-1.59-4.1,5.376,5.376,0,0,1,1.59-4.077,5.679,5.679,0,0,1,4.093-1.52,5.705,5.705,0,0,1,4.1,1.515,5.372,5.372,0,0,1,1.59,4.082,5.4,5.4,0,0,1-1.59,4.1A5.694,5.694,0,0,1,168.91.2Zm-.021-2a3.03,3.03,0,0,0,2.342-1,3.734,3.734,0,0,0,.913-2.621,3.714,3.714,0,0,0-.913-2.616,3.038,3.038,0,0,0-2.342-.994,2.968,2.968,0,0,0-2.3.994,3.741,3.741,0,0,0-.9,2.616,3.775,3.775,0,0,0,.9,2.621A2.956,2.956,0,0,0,168.889-1.794Z" transform="translate(344.422 2422.213)" fill="#00223d"/>
    </g>
  </g>
</svg>
