<svg xmlns="http://www.w3.org/2000/svg" width="134.5" height="106.285" viewBox="0 0 134.5 106.285">
  <g id="plan_1_" data-name="plan (1)" transform="translate(0 -53.703)">
    <g id="Grupo_959045" data-name="Grupo 959045" transform="translate(1.973 55.678)">
      <path id="Trazado_724685" data-name="Trazado 724685" d="M7.511,156.773H133.738a5.364,5.364,0,0,1,4.334,4.334v68.575a5.372,5.372,0,0,1-4.334,4.334H20.059A12.55,12.55,0,0,1,7.511,221.461V156.773Z" transform="translate(-7.511 -131.671)" fill="#ecf4ff" fill-rule="evenodd"/>
      <path id="Trazado_724686" data-name="Trazado 724686" d="M20.059,61.218A12.544,12.544,0,0,0,7.511,73.765v77.242A12.544,12.544,0,0,1,20.059,138.46a11.723,11.723,0,0,1,6.225,1.646.872.872,0,0,0,1.34-.819V65.351A3.052,3.052,0,0,0,26.1,62.759a12.415,12.415,0,0,0-6.039-1.541Z" transform="translate(-7.511 -61.218)" fill="#cbe2ff" fill-rule="evenodd"/>
      <path id="Trazado_724687" data-name="Trazado 724687" d="M125.923,195.041h18.75a1.923,1.923,0,0,1,1.914,1.914V215.7a1.918,1.918,0,0,1-1.914,1.914h-18.75a1.912,1.912,0,0,1-1.906-1.914V196.955A1.916,1.916,0,0,1,125.923,195.041Z" transform="translate(-93.411 -159.886)" fill="#cbe2ff" fill-rule="evenodd"/>
      <path id="Trazado_724688" data-name="Trazado 724688" d="M417.208,108.508l-8.795-2.673-8.042,2.673v62.759l8.467,2.2,8.37-2.2Z" transform="translate(-297.168 -94.114)" fill="#ff6978" fill-rule="evenodd"/>
      <path id="Trazado_724689" data-name="Trazado 724689" d="M409.85,369.4l3.15-6.2,4.208-8.288H400.371l4.207,8.288,3.15,6.2A1.155,1.155,0,0,0,409.85,369.4Z" transform="translate(-297.168 -277.762)" fill="#ffcbbe" fill-rule="evenodd"/>
      <path id="Trazado_724690" data-name="Trazado 724690" d="M417.208,75.612V66.363a5.161,5.161,0,0,0-5.146-5.145h-6.538a5.162,5.162,0,0,0-5.153,5.145v9.248Z" transform="translate(-297.168 -61.218)" fill="#ff8793" fill-rule="evenodd"/>
      <path id="Trazado_724691" data-name="Trazado 724691" d="M118.936,383.237h12.838l2.107-6.97-2.107-5.421H118.936a3.993,3.993,0,0,0-3.224,3.232v5.935a3.993,3.993,0,0,0,3.224,3.224Z" transform="translate(-87.288 -289.508)" fill="#f2ce7e" fill-rule="evenodd"/>
      <path id="Trazado_724692" data-name="Trazado 724692" d="M176.856,346.2h16.07l2.2-7.923-2.2-12.19v-2.241a3.993,3.993,0,0,0-3.232-3.232h-9.606a3.992,3.992,0,0,0-3.232,3.232V346.2Z" transform="translate(-132.37 -252.473)" fill="#b3e59f" fill-rule="evenodd"/>
      <path id="Trazado_724693" data-name="Trazado 724693" d="M238.028,361.564H254.09l1.623-5.339-1.623-7.052v-4.5a3.993,3.993,0,0,0-3.232-3.224H238.028Z" transform="translate(-177.472 -267.835)" fill="#f2ce7e" fill-rule="evenodd"/>
      <path id="Trazado_724694" data-name="Trazado 724694" d="M299.172,383.237H312.01a3.993,3.993,0,0,0,3.224-3.224v-5.935a3.993,3.993,0,0,0-3.224-3.232H299.172Z" transform="translate(-222.554 -289.508)" fill="#b3e59f" fill-rule="evenodd"/>
      <path id="Trazado_724695" data-name="Trazado 724695" d="M130.4,227.641H16.715a12.491,12.491,0,0,1-5.093-1.08,12.542,12.542,0,0,0,11.468,7.454H136.769a5.372,5.372,0,0,0,4.334-4.334V161.107a5.364,5.364,0,0,0-4.334-4.334h-2.04v66.534A5.372,5.372,0,0,1,130.4,227.641Z" transform="translate(-10.542 -131.671)" fill="#cbe2ff" fill-rule="evenodd"/>
      <path id="Trazado_724696" data-name="Trazado 724696" d="M47.543,86.32V138.5a11.356,11.356,0,0,1,5.034,1.6.872.872,0,0,0,1.34-.819V65.35a3.052,3.052,0,0,0-1.527-2.591,12.418,12.418,0,0,0-6.039-1.541,12.784,12.784,0,0,0-3.18.4,12.772,12.772,0,0,1,2.845,1.139,3.053,3.053,0,0,1,1.527,2.591V86.32Z" transform="translate(-33.804 -61.218)" fill="#bed8fb" fill-rule="evenodd"/>
      <path id="Trazado_724697" data-name="Trazado 724697" d="M440.2,116.011V178.77h6.374V116.011Z" transform="translate(-326.533 -101.617)" fill="#eb616f" fill-rule="evenodd"/>
      <path id="Trazado_724698" data-name="Trazado 724698" d="M425.734,66.363v9.248h6.374V66.363a5.161,5.161,0,0,0-5.146-5.145h-6.382A5.163,5.163,0,0,1,425.734,66.363Z" transform="translate(-312.069 -61.218)" fill="#f77b87" fill-rule="evenodd"/>
    </g>
    <path id="Trazado_724699" data-name="Trazado 724699" d="M120.046,68.106V60.823a3.2,3.2,0,0,0-3.18-3.179h-6.538a3.191,3.191,0,0,0-3.18,3.179v7.283h12.9ZM37.687,103.514a1.969,1.969,0,0,1,2.785-2.785l1.795,1.795,4.982-4.989a1.972,1.972,0,1,1,2.785,2.792L43.66,106.7a1.973,1.973,0,0,1-2.785,0ZM111.624,80.78a1.97,1.97,0,1,1,3.939,0v41.35a1.97,1.97,0,1,1-3.939,0Zm-31.06,66.661H92.688v-8.452H80.565Zm14.089,3.939H30.4a1.977,1.977,0,0,1-1.973-1.974V137.016A1.97,1.97,0,0,1,30.4,135.05h14.1V123.82a1.964,1.964,0,0,1,1.966-1.965h16.07a1.964,1.964,0,0,1,1.966,1.965v3.5h14.1a1.977,1.977,0,0,1,1.973,1.973v5.756H94.653a1.97,1.97,0,0,1,1.973,1.966v12.391a1.977,1.977,0,0,1-1.973,1.974Zm-30.159-3.939H76.618V131.267H64.495Zm-16.062,0H60.556V125.794H48.433Zm-16.07,0H44.494v-8.452H32.363Zm-8.31-68.634H103.2V60.823a7.144,7.144,0,0,1,7.126-7.119h6.538a7.144,7.144,0,0,1,7.119,7.119V78.807h8.549A1.97,1.97,0,0,1,134.5,80.78v77.242a1.964,1.964,0,0,1-1.966,1.966H77.988a1.97,1.97,0,0,1,0-3.939h52.573v-73.3h-6.575V96.991a1.97,1.97,0,1,1-3.939,0V72.045h-12.9v58.82h12.9V105.919a1.97,1.97,0,1,1,3.939,0v26.912a2.091,2.091,0,0,1-.335,1.117l-8.3,16.338a2,2,0,0,1-.879.879,1.961,1.961,0,0,1-2.636-.871l-8.325-16.382a2.1,2.1,0,0,1-.313-1.08V82.746H24.052V97.654a1.97,1.97,0,1,1-3.939,0V59.237a10.45,10.45,0,0,0-5.592-1.593A10.577,10.577,0,0,0,3.939,68.225v67.3c.1-.112.209-.224.313-.328a14.481,14.481,0,0,1,10.269-4.252,14.7,14.7,0,0,1,4.617.752c.328.112.655.238.975.372V106.582a1.97,1.97,0,1,1,3.939,0v28.87a1.97,1.97,0,0,1-3.157,1.564,10.317,10.317,0,0,0-3.008-1.586,10.585,10.585,0,1,0-3.366,20.619H69.067a1.97,1.97,0,0,1,0,3.939H14.521A14.517,14.517,0,0,1,0,145.468V68.225A14.521,14.521,0,0,1,23.173,56.564a1.984,1.984,0,0,1,.879,1.646v20.6Zm94.758,56H108.378l5.22,10.269ZM92.479,90.743a1.97,1.97,0,0,1,0,3.939H65.813a1.97,1.97,0,0,1,0-3.939Zm-11.088,18.81a1.97,1.97,0,1,1,0,3.939H65.813a1.97,1.97,0,0,1,0-3.939Zm11.088-9.405a1.97,1.97,0,0,1,0,3.939H65.813a1.97,1.97,0,0,1,0-3.939Zm-59.9-11.289H55.149a1.97,1.97,0,0,1,1.966,1.973V113.4a1.97,1.97,0,0,1-1.966,1.973H32.579a1.972,1.972,0,0,1-1.973-1.973V90.833a1.972,1.972,0,0,1,1.973-1.973Zm20.6,3.947H34.545v18.631H53.176Z" transform="translate(0)"/>
  </g>
</svg>
