<svg id="hedor" xmlns="http://www.w3.org/2000/svg" width="62.28" height="62" viewBox="0 0 62.28 62">
  <g id="Grupo_959115" data-name="Grupo 959115">
    <g id="Grupo_959100" data-name="Grupo 959100">
      <path id="Trazado_724981" data-name="Trazado 724981" d="M55,34v3H51V34a1,1,0,0,1,1-1h2A1,1,0,0,1,55,34Z" fill="#b4dd7f"/>
    </g>
    <g id="Grupo_959101" data-name="Grupo 959101">
      <path id="Trazado_724982" data-name="Trazado 724982" d="M55,37H51a2.006,2.006,0,0,0-2,2v5.5l.41.61a1.981,1.981,0,0,0,1.66.89h.86a1.981,1.981,0,0,1,1.66.89l.82,1.22a1.981,1.981,0,0,0,1.66.89H57V39A2.006,2.006,0,0,0,55,37Z" fill="#e6e9ed"/>
    </g>
    <g id="Grupo_959102" data-name="Grupo 959102">
      <path id="Trazado_724983" data-name="Trazado 724983" d="M61,61H37V50l.28-.07a4.917,4.917,0,0,0,3.2-6.97L39.5,41h2.67a2.006,2.006,0,0,1,1.42.59l.82.82a2.006,2.006,0,0,0,1.42.59h1.1a1.981,1.981,0,0,1,1.66.89l.41.61.41.61a1.981,1.981,0,0,0,1.66.89h.86a1.981,1.981,0,0,1,1.66.89l.82,1.22a1.981,1.981,0,0,0,1.66.89h1.58a2,2,0,0,1,1.85,1.26l1.26,3.15A3.234,3.234,0,0,1,61,54.63a3.307,3.307,0,0,1-.97,2.34l-.41.41a2,2,0,0,1,.76,1.13Z" fill="#dfb28b"/>
    </g>
    <g id="Grupo_959103" data-name="Grupo 959103">
      <path id="Trazado_724984" data-name="Trazado 724984" d="M53.6,3.43a2,2,0,0,0-.22.19L49.62,7.38a2,2,0,0,0-.19.22,3.366,3.366,0,1,1,2.96-5.92A3.265,3.265,0,0,1,53.6,3.43Z" fill="#cf9e76"/>
    </g>
    <g id="Grupo_959104" data-name="Grupo 959104">
      <path id="Trazado_724985" data-name="Trazado 724985" d="M58.32,7.61a3.365,3.365,0,1,1-5.92,2.96,2,2,0,0,0,.22-.19l3.76-3.76a2,2,0,0,0,.19-.22,3.265,3.265,0,0,1,1.75,1.21Z" fill="#cf9e76"/>
    </g>
    <g id="Grupo_959105" data-name="Grupo 959105">
      <path id="Trazado_724986" data-name="Trazado 724986" d="M57,16.37a3.354,3.354,0,0,1-2.43,3.23,2,2,0,0,0-.19-.22l-3.76-3.76a2,2,0,0,0-.22-.19,3.265,3.265,0,0,1,1.21-1.75A3.369,3.369,0,0,1,57,16.37Z" fill="#cf9e76"/>
    </g>
    <g id="Grupo_959106" data-name="Grupo 959106">
      <path id="Trazado_724987" data-name="Trazado 724987" d="M51.38,22.38a2,2,0,0,0,.22.19,3.368,3.368,0,0,1-6.6-.94,1.21,1.21,0,0,1,.01-.19,3.368,3.368,0,0,1,2.42-3.04,2,2,0,0,0,.19.22Z" fill="#cf9e76"/>
    </g>
    <g id="Grupo_959107" data-name="Grupo 959107">
      <path id="Trazado_724988" data-name="Trazado 724988" d="M56.57,6.4a2,2,0,0,1-.19.22l-3.76,3.76a2,2,0,0,1-.22.19A2.12,2.12,0,0,1,49.43,7.6a2,2,0,0,1,.19-.22l3.76-3.76a2,2,0,0,1,.22-.19A2.12,2.12,0,0,1,56.57,6.4Z" fill="#ecc19c"/>
    </g>
    <g id="Grupo_959108" data-name="Grupo 959108">
      <path id="Trazado_724989" data-name="Trazado 724989" d="M55,20.88a1.952,1.952,0,0,1-.07.54A2.115,2.115,0,0,1,52.88,23a2.122,2.122,0,0,1-1.28-.43,2,2,0,0,1-.22-.19l-3.76-3.76a2,2,0,0,1-.19-.22,2.12,2.12,0,0,1,2.97-2.97,2,2,0,0,1,.22.19l3.76,3.76a2,2,0,0,1,.19.22A2.122,2.122,0,0,1,55,20.88Z" fill="#ecc19c"/>
    </g>
    <g id="Grupo_959109" data-name="Grupo 959109">
      <path id="Trazado_724990" data-name="Trazado 724990" d="M13.54,12.38l-2.14.86A7,7,0,0,0,7,19.74V30a8.995,8.995,0,0,0,5.65,8.35L10.5,40.5A5.116,5.116,0,0,0,9,44.12a4.883,4.883,0,0,0,2.65,4.34c.14.45.29.89.46,1.33L13,52l-.39.39a16.89,16.89,0,0,0-3.2,4.46l-.38-.09A4.009,4.009,0,0,1,6,52.88v-.53A2,2,0,0,0,4.74,50.5l-.3-.12a5.48,5.48,0,0,1-2.86-7.54l.93-1.85A4.751,4.751,0,0,0,3,38.9a4.628,4.628,0,0,0-.33-1.73l-.6-1.49A14.954,14.954,0,0,1,1,30.11V17A16,16,0,0,1,17,1h8A16,16,0,0,1,41,17v5.7c-1.26.65-2,1.44-2,2.3s.74,1.65,2,2.3v2.81a14.954,14.954,0,0,1-1.07,5.57l-.6,1.49A4.628,4.628,0,0,0,39,38.9a4.751,4.751,0,0,0,.49,2.09l.01.01.98,1.96a4.917,4.917,0,0,1-3.2,6.97L37,50V49A10,10,0,0,0,27,39l-.01-.06A8.994,8.994,0,0,0,35,30V22a7,7,0,0,0-7-7H19A6.971,6.971,0,0,1,13.54,12.38Z" fill="#fcd770"/>
    </g>
    <g id="Grupo_959110" data-name="Grupo 959110">
      <path id="Trazado_724991" data-name="Trazado 724991" d="M16,35l6.14,1.76A22.136,22.136,0,0,1,21.47,39a24.525,24.525,0,0,1-.98,2.45L18.85,45l-.54,1.17A4.894,4.894,0,0,1,13.88,49,4.882,4.882,0,0,1,9,44.12a5.116,5.116,0,0,1,1.5-3.62l2.15-2.15Z" fill="#75b1f2"/>
    </g>
    <g id="Grupo_959111" data-name="Grupo 959111">
      <path id="Trazado_724992" data-name="Trazado 724992" d="M34,61H8a16.666,16.666,0,0,1,1.41-4.15,16.89,16.89,0,0,1,3.2-4.46L13,52l-.89-2.21c-.17-.44-.32-.88-.46-1.33a4.8,4.8,0,0,0,2.23.54,4.894,4.894,0,0,0,4.43-2.83L18.85,45H25a2.006,2.006,0,0,0,2-2V39A10,10,0,0,1,37,49V61Z" fill="#75b1f2"/>
    </g>
    <g id="Grupo_959112" data-name="Grupo 959112">
      <path id="Trazado_724993" data-name="Trazado 724993" d="M27,39v4a2.006,2.006,0,0,1-2,2H18.85l1.64-3.55A24.524,24.524,0,0,0,21.47,39H26a8.22,8.22,0,0,0,.99-.06Z" fill="#f0d0b4"/>
    </g>
    <g id="Grupo_959113" data-name="Grupo 959113">
      <path id="Trazado_724994" data-name="Trazado 724994" d="M15.17,33.34,16,35l-3.35,3.35A8.995,8.995,0,0,1,7,30V19.74a7,7,0,0,1,4.4-6.5l2.14-.86A6.971,6.971,0,0,0,19,15h9a7,7,0,0,1,7,7v8a8.994,8.994,0,0,1-8.01,8.94A8.22,8.22,0,0,1,26,39H21.47a22.135,22.135,0,0,0,.67-2.24c.08-.3.15-.6.22-.9A27.4,27.4,0,0,0,23,30a3,3,0,0,0-6,0v1h-.38a1.618,1.618,0,0,0-1.45,2.34Z" fill="#f0d0b4"/>
    </g>
    <g id="Grupo_959114" data-name="Grupo 959114">
      <path id="Trazado_724995" data-name="Trazado 724995" d="M23,30a27.4,27.4,0,0,1-.64,5.86c-.07.3-.14.6-.22.9L16,35l-.83-1.66A1.618,1.618,0,0,1,16.62,31H17V30a3,3,0,0,1,6,0Z" fill="#f0d0b4"/>
    </g>
  </g>
  <g id="Grupo_959116" data-name="Grupo 959116">
    <path id="Trazado_724996" data-name="Trazado 724996" d="M25.707,24.707,27.5,22.914l1.793,1.793,1.414-1.414L28.914,21.5l1.793-1.793-1.414-1.414L27.5,20.086l-1.793-1.793-1.414,1.414L26.086,21.5l-1.793,1.793Z"/>
    <path id="Trazado_724997" data-name="Trazado 724997" d="M13.086,21.5l-1.793,1.793,1.414,1.414L14.5,22.914l1.793,1.793,1.414-1.414L15.914,21.5l1.793-1.793-1.414-1.414L14.5,20.086l-1.793-1.793-1.414,1.414Z"/>
    <path id="Trazado_724998" data-name="Trazado 724998" d="M6.78,62h55.5l-.932-3.729a3,3,0,0,0-.379-.876,4.241,4.241,0,0,0,.723-4.355L60.43,49.885A2.978,2.978,0,0,0,58,48.027V39a3,3,0,0,0-2-2.816V34a2,2,0,0,0-2-2H52a2,2,0,0,0-2,2v2.184A3,3,0,0,0,48,39v3.22A2.971,2.971,0,0,0,46.93,42h-1.1a1,1,0,0,1-.708-.293l-.828-.828A2.983,2.983,0,0,0,42.171,40H40.192a3.473,3.473,0,0,1,.07-2.463l.594-1.484A15.94,15.94,0,0,0,42,30.111V28.8a17.009,17.009,0,0,0,1.769.525l.462-1.945C41.127,26.645,40,25.554,40,25s1.156-1.63,4.132-2.35a4.347,4.347,0,0,0,7.96,1.238,3.048,3.048,0,0,0,3.4-1.32c3.084.687,4.5,1.8,4.5,2.432,0,1.194-3.988,3-10,3v2c5.963,0,12-1.718,12-5,0-1.956-2.184-3.533-6.026-4.385a3.049,3.049,0,0,0-.088-.521A4.387,4.387,0,0,0,58,16.369a4.322,4.322,0,0,0-.91-2.638,4.34,4.34,0,0,0,.795-7.824A3.073,3.073,0,0,0,58,5.121a3.083,3.083,0,0,0-3.907-3.009A4.358,4.358,0,0,0,46,4.369a4.386,4.386,0,0,0,2.115,3.725A3.059,3.059,0,0,0,48,8.879a3.083,3.083,0,0,0,3.907,3.009,4.2,4.2,0,0,0,.254.376,4.406,4.406,0,0,0-2.254,1.848A3.083,3.083,0,0,0,46,17.121a3.059,3.059,0,0,0,.115.785,4.39,4.39,0,0,0-1.973,2.684A17.877,17.877,0,0,0,42,21.184V17A17.019,17.019,0,0,0,25,0H17A17.019,17.019,0,0,0,0,17V30.111a15.931,15.931,0,0,0,1.144,5.941l.594,1.484A3.658,3.658,0,0,1,2,38.9a3.692,3.692,0,0,1-.387,1.64L.684,42.4a6.476,6.476,0,0,0,3.387,8.91l.3.12A.994.994,0,0,1,5,52.354v.522a4.989,4.989,0,0,0,3.041,4.6A17.911,17.911,0,0,0,7.02,60.8ZM55.631,12a2.379,2.379,0,0,1-2.039-1.178l3.229-3.229A2.362,2.362,0,0,1,55.631,12ZM50.369,2a2.379,2.379,0,0,1,2.039,1.178L49.179,6.407A2.362,2.362,0,0,1,50.369,2ZM50,8.879a1.133,1.133,0,0,1,.328-.793l3.758-3.758A1.121,1.121,0,0,1,56,5.121a1.133,1.133,0,0,1-.328.793L51.914,9.672A1.121,1.121,0,0,1,50,8.879ZM53.631,14a2.363,2.363,0,0,1,1.191,4.407l-3.229-3.229A2.377,2.377,0,0,1,53.631,14Zm-4.51,2a1.112,1.112,0,0,1,.793.328l3.758,3.758A1.121,1.121,0,0,1,52.879,22a1.112,1.112,0,0,1-.793-.328l-3.758-3.758A1.121,1.121,0,0,1,49.121,16Zm-1.943,3.593,3.229,3.229a2.363,2.363,0,1,1-3.229-3.229ZM13.313,53.1l.861-.86-.909-2.274a5.88,5.88,0,0,0,5.951-3.383l.27-.585H25a3,3,0,0,0,3-3V40.059A9.01,9.01,0,0,1,36,49V60H34.789a17.766,17.766,0,0,0-4.616-8.24l.641-1.6A16.491,16.491,0,0,0,32,44H30a14.508,14.508,0,0,1-1.043,5.414l-1.13,2.827.861.86A15.776,15.776,0,0,1,32.73,60H9.268a15.775,15.775,0,0,1,4.045-6.9ZM19,16h9a6.006,6.006,0,0,1,6,6v8a8.009,8.009,0,0,1-8,8H22.834A28.506,28.506,0,0,0,24,30a4,4,0,0,0-8,0v.073a2.62,2.62,0,0,0-1.724,3.716l.507,1.014-2.341,2.341A7.95,7.95,0,0,1,8,30V19.739a5.968,5.968,0,0,1,3.772-5.57l1.5-.6A7.975,7.975,0,0,0,19,16ZM16.7,34.159l-.632-1.264A.6.6,0,0,1,16,32.618.618.618,0,0,1,16.618,32H18V30a2,2,0,0,1,4,0,26.335,26.335,0,0,1-.59,5.506ZM22.164,40H26v3a1,1,0,0,1-1,1H20.409l.985-2.134c.282-.61.533-1.235.77-1.866Zm-5.873-3.876,4.623,1.321a26.3,26.3,0,0,1-1.335,3.584L17.4,45.747A3.879,3.879,0,0,1,10,44.121a4.093,4.093,0,0,1,1.207-2.914ZM50,42h6v5.991a.993.993,0,0,1-.762-.437l-.813-1.219A2.992,2.992,0,0,0,51.93,45h-.86a1,1,0,0,1-.832-.445L50,44.2Zm4-8v2H52V34Zm-3,4h4a1,1,0,0,1,1,1v1H50V39A1,1,0,0,1,51,38Zm-8.121,4.293.828.828A2.978,2.978,0,0,0,45.829,44h1.1a1,1,0,0,1,.832.445l.813,1.219A2.99,2.99,0,0,0,51.07,47h.859a1,1,0,0,1,.832.445l.813,1.219A2.993,2.993,0,0,0,56.07,50h1.576a1,1,0,0,1,.928.628l1.262,3.155a2.281,2.281,0,0,1,.164.852,2.31,2.31,0,0,1-.593,1.527A2.976,2.976,0,0,0,58.438,56h-.2a.994.994,0,0,1-.894-.553l-.9-1.789A2.981,2.981,0,0,0,53.764,52H52.605a1.006,1.006,0,0,1-.555-.168l-2.5-1.664-1.109,1.664,2.5,1.664a2.989,2.989,0,0,0,1.664.5h1.159a.994.994,0,0,1,.894.553l.9,1.789A2.981,2.981,0,0,0,58.236,58h.2a1,1,0,0,1,.97.757L59.719,60H38V50.736a5.892,5.892,0,0,0,3.375-8.221L41.118,42h1.053a1,1,0,0,1,.708.293ZM7,52.877v-.522a2.987,2.987,0,0,0-1.886-2.786l-.3-.12A4.454,4.454,0,0,1,2,45.293a4.5,4.5,0,0,1,.473-2L3.4,41.433A5.708,5.708,0,0,0,4,38.9a5.637,5.637,0,0,0-.4-2.1L3,35.31a13.944,13.944,0,0,1-1-5.2V17A15.017,15.017,0,0,1,17,2h8A15.017,15.017,0,0,1,40,17v5.114A3.517,3.517,0,0,0,38,25a3.506,3.506,0,0,0,2,2.875v2.236a13.945,13.945,0,0,1-1,5.2L38.4,36.794a5.668,5.668,0,0,0,.193,4.638l.988,1.977a3.9,3.9,0,0,1-1.608,5.165,11,11,0,0,0-7.1-9.854A10,10,0,0,0,36,30V17.385a8.91,8.91,0,0,0-5.628-8.313l-.743,1.857a6.9,6.9,0,0,1,4.318,5.738A7.978,7.978,0,0,0,28,14H19a6.006,6.006,0,0,1-6-6H11a7.932,7.932,0,0,0,1.029,3.911l-1,.4A7.961,7.961,0,0,0,6,19.739V30a9.95,9.95,0,0,0,4.951,8.635L9.793,39.793A6.077,6.077,0,0,0,8,44.121a5.874,5.874,0,0,0,2.831,5.017c.112.343.222.687.355,1.018l.641,1.6a17.794,17.794,0,0,0-2.916,3.9A2.993,2.993,0,0,1,7,52.877Z"/>
    <path id="Trazado_724999" data-name="Trazado 724999" d="M42,52H40v.438a3,3,0,0,0,2.272,2.91l1.734.434a1,1,0,0,1,.59.416l1.571,2.356,1.664-1.109L46.26,55.089a3,3,0,0,0-1.768-1.246l-1.735-.434A1,1,0,0,1,42,52.438Z"/>
    <path id="Trazado_725000" data-name="Trazado 725000" d="M47.934,29.932l.133-2c-.659-.044-1.307-.11-1.926-.2l-.281,1.98c.667.095,1.365.167,2.074.214Z"/>
  </g>
</svg>
