<svg xmlns="http://www.w3.org/2000/svg" xmlns:xlink="http://www.w3.org/1999/xlink" width="401" height="142" viewBox="0 0 401 142">
  <defs>
    <filter id="Rectángulo_4686" x="0" y="6" width="401" height="136" filterUnits="userSpaceOnUse">
      <feOffset dy="3" input="SourceAlpha"/>
      <feGaussianBlur stdDeviation="3" result="blur"/>
      <feFlood flood-opacity="0.161"/>
      <feComposite operator="in" in2="blur"/>
      <feComposite in="SourceGraphic"/>
    </filter>
    <filter id="Rectángulo_339830" x="0" y="0" width="147" height="52" filterUnits="userSpaceOnUse">
      <feOffset dy="3" input="SourceAlpha"/>
      <feGaussianBlur stdDeviation="3" result="blur-2"/>
      <feFlood flood-opacity="0.161"/>
      <feComposite operator="in" in2="blur-2"/>
      <feComposite in="SourceGraphic"/>
    </filter>
  </defs>
  <g id="Grupo_959096" data-name="Grupo 959096" transform="translate(-994 -4567)">
    <g id="Grupo_958095" data-name="Grupo 958095" transform="translate(786 79)">
      <g transform="matrix(1, 0, 0, 1, 208, 4488)" filter="url(#Rectángulo_4686)">
        <rect id="Rectángulo_4686-2" data-name="Rectángulo 4686" width="383" height="118" rx="14" transform="translate(9 12)" fill="#fff"/>
      </g>
      <g transform="matrix(1, 0, 0, 1, 208, 4488)" filter="url(#Rectángulo_339830)">
        <rect id="Rectángulo_339830-2" data-name="Rectángulo 339830" width="129" height="34" rx="10" transform="translate(9 6)" fill="#adc46c"/>
      </g>
      <path id="Trazado_725299" data-name="Trazado 725299" d="M15.8,19H13V11.459q0-1.222.105-2.7h-.07a13.277,13.277,0,0,1-.4,1.67L9.686,19H7.365L4.359,10.519a16.5,16.5,0,0,1-.4-1.758H3.885Q4,10.624,4,12.03V19H1.441V6.4H5.6l2.575,7.471a10.519,10.519,0,0,1,.448,1.8h.053a18.142,18.142,0,0,1,.5-1.819L11.751,6.4H15.8Zm6.882.22a4.838,4.838,0,0,1-3.538-1.261,4.573,4.573,0,0,1-1.288-3.423A4.573,4.573,0,0,1,19.2,11.042,5.048,5.048,0,0,1,22.808,9.78a4.78,4.78,0,0,1,3.516,1.261A4.483,4.483,0,0,1,27.6,14.377a4.759,4.759,0,0,1-1.314,3.542A4.892,4.892,0,0,1,22.685,19.22Zm.07-7.312a1.852,1.852,0,0,0-1.529.677,2.984,2.984,0,0,0-.545,1.916q0,2.593,2.092,2.593,2,0,2-2.663Q24.768,11.907,22.755,11.907ZM38.206,19H35.429V17.761h-.035a3.114,3.114,0,0,1-2.786,1.459,3.412,3.412,0,0,1-2.716-1.191A4.93,4.93,0,0,1,28.863,14.7,5.366,5.366,0,0,1,30,11.125,3.7,3.7,0,0,1,32.968,9.78a2.527,2.527,0,0,1,2.426,1.248h.035V5.676h2.777Zm-2.725-4.377v-.677a2.13,2.13,0,0,0-.51-1.459,1.8,1.8,0,0,0-2.769.145,3.367,3.367,0,0,0-.519,1.991,2.914,2.914,0,0,0,.5,1.828,1.779,1.779,0,0,0,2.764-.035A2.821,2.821,0,0,0,35.481,14.623ZM48.032,19H45.4V17.708h-.035a2.933,2.933,0,0,1-2.681,1.512,2.8,2.8,0,0,1-2.061-.743,2.661,2.661,0,0,1-.751-1.982q0-2.619,3.1-3.023l2.443-.325q0-1.477-1.6-1.477a5.46,5.46,0,0,0-3.059.958V10.536a6.881,6.881,0,0,1,1.586-.527,8.339,8.339,0,0,1,1.833-.229q3.85,0,3.85,3.841Zm-2.61-3.656v-.606l-1.635.211q-1.354.176-1.354,1.222a1.01,1.01,0,0,0,.33.778,1.266,1.266,0,0,0,.892.3,1.644,1.644,0,0,0,1.274-.541A1.952,1.952,0,0,0,45.422,15.344Z" transform="translate(253 4500)" fill="#00223d"/>
    </g>
    <g id="Grupo_958097" data-name="Grupo 958097" transform="translate(100 -238)">
      <path id="Trazado_725297" data-name="Trazado 725297" d="M11.294,19H9.853V8.11a3.336,3.336,0,0,1-.488.382,7.951,7.951,0,0,1-.721.426q-.4.211-.844.4a6.132,6.132,0,0,1-.866.29V8.146A8.379,8.379,0,0,0,7.941,7.79q.532-.224,1.046-.5t.971-.58a7.71,7.71,0,0,0,.791-.593h.545Zm6.117-2L16,21.32H14.977L16,17ZM24.9,19H23.458V8.11a3.336,3.336,0,0,1-.488.382,7.951,7.951,0,0,1-.721.426q-.4.211-.844.4a6.132,6.132,0,0,1-.866.29V8.146a8.379,8.379,0,0,0,1.006-.356q.532-.224,1.046-.5t.971-.58a7.71,7.71,0,0,0,.791-.593H24.9Zm6.117-2L29.61,21.32H28.582L29.61,17Zm9.5-1.564a3.674,3.674,0,0,1-.321,1.551,3.425,3.425,0,0,1-.905,1.2,4.178,4.178,0,0,1-1.4.769,5.67,5.67,0,0,1-1.8.272,5.236,5.236,0,0,1-2.865-.686V16.987a4.592,4.592,0,0,0,2.918,1,3.965,3.965,0,0,0,1.191-.167,2.67,2.67,0,0,0,.914-.483,2.147,2.147,0,0,0,.589-.765,2.388,2.388,0,0,0,.207-1.011q0-2.47-3.516-2.47H34.479V11.872h.993q3.111,0,3.111-2.32,0-2.145-2.373-2.145a4.041,4.041,0,0,0-2.5.9v-1.4a5.476,5.476,0,0,1,2.865-.721A4.4,4.4,0,0,1,38,6.405a3.283,3.283,0,0,1,1.1.615,2.726,2.726,0,0,1,.708.949,2.93,2.93,0,0,1,.25,1.222,3.076,3.076,0,0,1-2.514,3.2v.035a3.976,3.976,0,0,1,1.187.312,3.166,3.166,0,0,1,.94.628,2.8,2.8,0,0,1,.62.91A2.9,2.9,0,0,1,40.518,15.432ZM44.622,17,43.216,21.32H42.188L43.216,17Zm9.5-1.564a3.674,3.674,0,0,1-.321,1.551,3.425,3.425,0,0,1-.905,1.2,4.178,4.178,0,0,1-1.4.769,5.67,5.67,0,0,1-1.8.272,5.236,5.236,0,0,1-2.865-.686V16.987a4.592,4.592,0,0,0,2.918,1,3.965,3.965,0,0,0,1.191-.167,2.67,2.67,0,0,0,.914-.483,2.147,2.147,0,0,0,.589-.765,2.388,2.388,0,0,0,.207-1.011q0-2.47-3.516-2.47H48.085V11.872h.993q3.111,0,3.111-2.32,0-2.145-2.373-2.145a4.041,4.041,0,0,0-2.5.9v-1.4a5.476,5.476,0,0,1,2.865-.721,4.4,4.4,0,0,1,1.433.22,3.283,3.283,0,0,1,1.1.615,2.726,2.726,0,0,1,.708.949,2.93,2.93,0,0,1,.25,1.222,3.076,3.076,0,0,1-2.514,3.2v.035a3.976,3.976,0,0,1,1.187.312,3.166,3.166,0,0,1,.94.628,2.8,2.8,0,0,1,.62.91A2.9,2.9,0,0,1,54.123,15.432ZM58.228,17,56.821,21.32H55.793L56.821,17Zm8.6-10.6V14.72H68.44v1.318H66.823V19H65.4V16.038H59.476V14.79q.826-.932,1.67-1.991t1.613-2.149q.769-1.09,1.424-2.175a19.88,19.88,0,0,0,1.1-2.079ZM61.1,14.72h4.3V8.55Q64.74,9.7,64.151,10.606T63.031,12.25q-.532.738-1.015,1.336T61.1,14.72ZM71.833,17,70.427,21.32H69.4L70.427,17Zm8.6-10.6V14.72h1.617v1.318H80.429V19H79V16.038H73.081V14.79q.826-.932,1.67-1.991t1.613-2.149q.769-1.09,1.424-2.175a19.88,19.88,0,0,0,1.1-2.079ZM74.707,14.72H79V8.55q-.659,1.151-1.248,2.057T76.636,12.25q-.532.738-1.015,1.336T74.707,14.72ZM85.438,17,84.032,21.32H83L84.032,17Z" transform="translate(979 4873)" fill="#00223d"/>
      <path id="Trazado_725298" data-name="Trazado 725298" d="M14.5,19H13.034V10.545q0-1,.123-2.452h-.035a7.84,7.84,0,0,1-.378,1.222L8.438,19H7.717l-4.3-9.615a7.533,7.533,0,0,1-.378-1.292H3.006q.07.756.07,2.47V19H1.652V6.4H3.6l3.867,8.789a11.254,11.254,0,0,1,.58,1.512H8.1q.378-1.037.606-1.547L12.656,6.4H14.5Zm6.882.211A4.175,4.175,0,0,1,18.2,17.95a4.672,4.672,0,0,1-1.191-3.344,4.867,4.867,0,0,1,1.239-3.542,4.455,4.455,0,0,1,3.349-1.274,4.037,4.037,0,0,1,3.142,1.239,4.914,4.914,0,0,1,1.129,3.437,4.835,4.835,0,0,1-1.217,3.45A4.265,4.265,0,0,1,21.384,19.211ZM21.489,11a2.742,2.742,0,0,0-2.2.945,3.88,3.88,0,0,0-.809,2.606,3.67,3.67,0,0,0,.817,2.522A2.778,2.778,0,0,0,21.489,18a2.635,2.635,0,0,0,2.149-.905,3.928,3.928,0,0,0,.751-2.575,4,4,0,0,0-.751-2.6A2.623,2.623,0,0,0,21.489,11Zm14.361,8H34.409V17.471h-.035a3.327,3.327,0,0,1-3.094,1.74A3.362,3.362,0,0,1,28.569,18a4.958,4.958,0,0,1-1.015-3.292,5.394,5.394,0,0,1,1.125-3.577,3.71,3.71,0,0,1,3-1.345,2.885,2.885,0,0,1,2.7,1.459h.035V5.676h1.441Zm-1.441-4.069V13.6a2.575,2.575,0,0,0-.721-1.846A2.417,2.417,0,0,0,31.86,11a2.489,2.489,0,0,0-2.074.967,4.237,4.237,0,0,0-.756,2.672,3.81,3.81,0,0,0,.725,2.457A2.37,2.37,0,0,0,31.7,18a2.462,2.462,0,0,0,1.956-.87A3.242,3.242,0,0,0,34.409,14.931ZM45.211,19H43.77V17.594h-.035a3.018,3.018,0,0,1-2.769,1.617,2.959,2.959,0,0,1-2.1-.712,2.466,2.466,0,0,1-.76-1.89q0-2.522,2.971-2.936l2.7-.378Q43.77,11,41.915,11a4.431,4.431,0,0,0-2.936,1.107V10.633a5.577,5.577,0,0,1,3.059-.844q3.173,0,3.173,3.357ZM43.77,14.447l-2.171.3a3.525,3.525,0,0,0-1.512.5,1.432,1.432,0,0,0-.51,1.261,1.374,1.374,0,0,0,.47,1.077A1.817,1.817,0,0,0,41.3,18a2.314,2.314,0,0,0,1.771-.751,2.685,2.685,0,0,0,.7-1.9ZM61.7,12.461H53.438V11.3H61.7Zm0,3.744H53.438v-1.16H61.7Zm15.46-1.055a4.242,4.242,0,0,1-.316,1.67,3.651,3.651,0,0,1-.9,1.283,4.034,4.034,0,0,1-1.411.826,5.517,5.517,0,0,1-1.837.29,5.074,5.074,0,0,1-2.61-.527V17.163a4.8,4.8,0,0,0,2.628.826,3.556,3.556,0,0,0,1.235-.2,2.744,2.744,0,0,0,.936-.562,2.408,2.408,0,0,0,.593-.87,2.945,2.945,0,0,0,.207-1.116,2.391,2.391,0,0,0-.826-1.929,3.623,3.623,0,0,0-2.4-.7q-.255,0-.536.009t-.562.022q-.281.013-.549.031t-.488.044L70.752,6.4h5.827V7.7H72l-.255,3.7q.281-.018.6-.031t.563-.013a5.657,5.657,0,0,1,1.793.264,3.8,3.8,0,0,1,1.34.751,3.151,3.151,0,0,1,.835,1.2A4.2,4.2,0,0,1,77.159,15.15Z" transform="translate(1112 4873)" fill="#00223d"/>
    </g>
  </g>
</svg>
