<svg xmlns="http://www.w3.org/2000/svg" width="84.333" height="86.127" viewBox="0 0 84.333 86.127">
  <g id="_03-warm_hot" data-name="03-warm hot" transform="translate(0.002)">
    <path id="Trazado_723646" data-name="Trazado 723646" d="M33.3,48.574V13.56a12.56,12.56,0,1,0-25.119,0V48.574a19.737,19.737,0,1,0,25.119,0Z" transform="translate(0.796 0.794)" fill="#e9edf5"/>
    <path id="Trazado_723647" data-name="Trazado 723647" d="M25.531,49V11.177a7.177,7.177,0,0,0-14.354,0V49a14.354,14.354,0,1,0,14.354,0Z" transform="translate(3.178 3.177)" fill="#cdd2e1"/>
    <path id="Trazado_723648" data-name="Trazado 723648" d="M18.343,46.134A14.354,14.354,0,0,1,4.26,34.536a14.355,14.355,0,1,0,28.166,0A14.354,14.354,0,0,1,18.343,46.134Z" transform="translate(3.19 27.43)" fill="#9da3b5"/>
    <path id="Trazado_723649" data-name="Trazado 723649" d="M31.737,63.8A19.692,19.692,0,0,0,24.56,48.574V13.56A12.56,12.56,0,0,0,12,1V6.383a7.177,7.177,0,0,1,7.177,7.177V51.38a14.336,14.336,0,0,1,7.075,10.911,12.29,12.29,0,0,1,.1,1.507A14.354,14.354,0,0,1,12,78.152v5.383A19.737,19.737,0,0,0,31.737,63.8Z" transform="translate(9.533 0.794)" fill="#f7faff"/>
    <path id="Trazado_723650" data-name="Trazado 723650" d="M26.083,58.789c.068.37.122.743.169,1.12A14.336,14.336,0,0,0,19.177,49V11.177A7.177,7.177,0,0,0,12,4V70.387A14.354,14.354,0,0,0,26.083,58.789Z" transform="translate(9.533 3.177)" fill="#dce1eb"/>
    <path id="Trazado_723651" data-name="Trazado 723651" d="M12,46.134v5.383A14.153,14.153,0,0,0,26.252,35.656c-.047-.377-.1-.75-.169-1.12A14.354,14.354,0,0,1,12,46.134Z" transform="translate(9.533 27.43)" fill="#afb4c8"/>
    <path id="Trazado_723652" data-name="Trazado 723652" d="M12,46.134v5.383A14.153,14.153,0,0,0,26.252,35.656c-.047-.377-.1-.75-.169-1.12A14.354,14.354,0,0,1,12,46.134Z" transform="translate(9.533 27.43)" fill="#f03049"/>
    <path id="Trazado_723653" data-name="Trazado 723653" d="M19.177,41.85V13H12V63.239A14.354,14.354,0,0,0,26.072,51.686,14.323,14.323,0,0,0,19.177,41.85Z" transform="translate(9.533 10.325)" fill="#ff636e"/>
    <path id="Trazado_723654" data-name="Trazado 723654" d="M18.355,46.134v5.383A14.153,14.153,0,0,1,4.1,35.656c.047-.377.1-.75.169-1.12a14.354,14.354,0,0,0,14.083,11.6Z" transform="translate(3.178 27.43)" fill="#a30034"/>
    <path id="Trazado_723655" data-name="Trazado 723655" d="M11.052,41.85V13h7.177V63.239A14.354,14.354,0,0,1,4.157,51.686a14.323,14.323,0,0,1,6.9-9.836Z" transform="translate(3.304 10.325)" fill="#d1093a"/>
    <ellipse id="Elipse_5651" data-name="Elipse 5651" cx="2.946" cy="4.102" rx="2.946" ry="4.102" transform="translate(23.142 63.248) rotate(-45)" fill="#f6fafd"/>
    <ellipse id="Elipse_5652" data-name="Elipse 5652" cx="1.48" cy="2.06" rx="1.48" ry="2.06" transform="translate(27.414 58.295) rotate(-45)" fill="#f6fafd"/>
    <circle id="Elipse_5653" data-name="Elipse 5653" cx="10.765" cy="10.765" r="10.765" transform="translate(52.035 17.942)" fill="#ffd747"/>
    <path id="Trazado_723656" data-name="Trazado 723656" d="M32.594,12.385c0-.294.022-.583.045-.87a10.765,10.765,0,1,0,17.853,8.917,10.751,10.751,0,0,1-17.9-8.047Z" transform="translate(23.029 9.146)" fill="#ffb13b"/>
    <path id="Trazado_723657" data-name="Trazado 723657" d="M31.588,21.565a8.971,8.971,0,0,1,17.431-2.995l3.384-1.2A12.56,12.56,0,0,0,28,21.565Z" transform="translate(22.241 7.142)"/>
    <path id="Trazado_723658" data-name="Trazado 723658" d="M49.215,16a8.971,8.971,0,0,1-17.433,2.987L28.4,20.182A12.56,12.56,0,0,0,52.8,16Z" transform="translate(22.557 12.708)"/>
    <path id="Trazado_723659" data-name="Trazado 723659" d="M34,4h3.588v7.177H34Z" transform="translate(27.006 3.177)"/>
    <path id="Trazado_723660" data-name="Trazado 723660" d="M34,24h3.588v7.177H34Z" transform="translate(27.006 19.062)"/>
    <path id="Trazado_723661" data-name="Trazado 723661" d="M43,15h7.177v3.588H43Z" transform="translate(34.154 11.914)"/>
    <path id="Trazado_723662" data-name="Trazado 723662" d="M23,15h7.177v3.588H23Z" transform="translate(18.269 11.914)"/>
    <path id="Trazado_723663" data-name="Trazado 723663" d="M0,0H7.177V3.588H0Z" transform="translate(71.673 17.296) rotate(-45)"/>
    <path id="Trazado_723664" data-name="Trazado 723664" d="M0,0H7.177V3.588H0Z" transform="translate(46.299 42.664) rotate(-45)"/>
    <path id="Trazado_723665" data-name="Trazado 723665" d="M0,0H3.588V7.177H0Z" transform="translate(71.67 40.13) rotate(-45)"/>
    <path id="Trazado_723666" data-name="Trazado 723666" d="M0,0H3.588V7.177H0Z" transform="translate(46.3 14.756) rotate(-45)"/>
    <path id="Trazado_723667" data-name="Trazado 723667" d="M4,22H7.588v3.588H4Z" transform="translate(3.179 17.473)"/>
    <path id="Trazado_723668" data-name="Trazado 723668" d="M35.887,48.545V14.354a14.354,14.354,0,0,0-28.708,0V35.885h3.588V14.354a10.765,10.765,0,0,1,21.531,0H23.327v3.588H32.3v3.588H16.15V14.354a5.383,5.383,0,0,1,10.6-1.347l3.474-.9a8.971,8.971,0,0,0-17.659,2.245V51.181a16.148,16.148,0,1,0,17.942,0V48.444H26.915v3.73a1.794,1.794,0,0,0,.9,1.552,12.56,12.56,0,1,1-12.56,0,1.794,1.794,0,0,0,.9-1.552V25.119H32.3v3.588H23.327V32.3H32.3v3.588H23.327v3.588H32.3v3.588H23.327V46.65H32.3v2.718a1.794,1.794,0,0,0,.651,1.384,17.945,17.945,0,1,1-22.834,0,1.794,1.794,0,0,0,.651-1.383V46.65H7.179v1.895a21.531,21.531,0,1,0,28.708,0Z" transform="translate(0 0)"/>
  </g>
</svg>
