<svg xmlns="http://www.w3.org/2000/svg" width="183.201" height="141.732" viewBox="0 0 183.201 141.732">
  <g id="Grupo_958073" data-name="Grupo 958073" transform="translate(-323 -3420.416)">
    <path id="Trazado_32504" data-name="Trazado 32504" d="M249.88,158.212l-3.222-18.52c-.287-1.588-.914-3.106-6.6-5.892-1.9-.933-3.069-1.954-3.069-4.891a2.54,2.54,0,0,1,.019-.291c2,1.457,5.892-.545,5.892-.545-2.2-2.907-2.8-8.36-3.632-10.048-.755-1.53-1.82-2.428-4.285-2.576-.108-.01-.209-.028-.321-.029-.145,0-.283,0-.417,0h-.021c-.137,0-.275,0-.421,0-.117,0-.215.019-.324.029-2.461.149-3.525,1.046-4.279,2.576-.831,1.688-1.429,7.141-3.631,10.048,0,0,3.884,2,5.89.545a2.267,2.267,0,0,1,.019.291c0,2.937-1.172,3.958-3.068,4.891-5.684,2.785-6.315,4.3-6.6,5.892l-3.222,18.52a2.423,2.423,0,1,0,4.79.676l3.17-16.854a2.82,2.82,0,0,1,1.656-2.389h.024l-4.2,25.34h4.232v15.34a2.422,2.422,0,1,0,4.838,0v-15.34h2.274v15.34a2.423,2.423,0,1,0,4.839,0v-15.34h4.227l-4.195-25.34h.021a2.826,2.826,0,0,1,1.657,2.389l3.167,16.854a2.423,2.423,0,1,0,4.792-.676" transform="translate(180.365 3305)" fill="#80cab6"/>
    <path id="Trazado_32505" data-name="Trazado 32505" d="M220.232,158.212l-3.219-18.52c-.288-1.588-.918-3.106-6.6-5.892-1.9-.933-3.068-1.954-3.068-4.891a2.074,2.074,0,0,1,.018-.291c2,1.457,5.892-.545,5.892-.545-2.2-2.907-2.8-8.36-3.63-10.048-.755-1.53-1.82-2.428-4.286-2.576-.108-.01-.207-.028-.319-.029-.146,0-.286,0-.42,0h-.019c-.137,0-.275,0-.423,0-.115,0-.214.019-.327.029-2.459.149-3.52,1.046-4.278,2.576-.828,1.688-1.428,7.141-3.63,10.048,0,0,3.885,2,5.889.545a2.533,2.533,0,0,1,.019.291c0,2.937-1.17,3.958-3.069,4.891-5.68,2.785-6.31,4.3-6.6,5.892l-3.222,18.52a2.423,2.423,0,1,0,4.79.676l3.169-16.854a2.828,2.828,0,0,1,1.657-2.389h.023l-4.2,25.34h4.232v15.34a2.422,2.422,0,1,0,4.836,0v-15.34h2.275v15.34a2.422,2.422,0,1,0,4.836,0v-15.34h4.229l-4.2-25.34h.023a2.832,2.832,0,0,1,1.658,2.389l3.164,16.854a2.424,2.424,0,1,0,4.793-.676" transform="translate(172.049 3305)" fill="#80cab6"/>
    <path id="Trazado_32506" data-name="Trazado 32506" d="M190.583,158.212l-3.218-18.52c-.291-1.588-.919-3.106-6.6-5.892-1.9-.933-3.068-1.954-3.068-4.891a2.312,2.312,0,0,1,.014-.291c2.008,1.457,5.894-.545,5.894-.545-2.2-2.907-2.8-8.36-3.631-10.048-.755-1.53-1.82-2.428-4.285-2.576-.106-.01-.209-.028-.323-.029-.142,0-.28,0-.417,0h-.019c-.134,0-.274,0-.423,0-.113,0-.213.019-.323.029-2.461.149-3.524,1.046-4.279,2.576-.835,1.688-1.43,7.141-3.63,10.048,0,0,3.881,2,5.89.545a2.908,2.908,0,0,1,.015.291c0,2.937-1.17,3.958-3.069,4.891-5.68,2.785-6.31,4.3-6.6,5.892l-3.22,18.52a2.423,2.423,0,1,0,4.79.676l3.168-16.854a2.825,2.825,0,0,1,1.656-2.389h.024l-4.2,25.34h4.231v15.34a2.423,2.423,0,1,0,4.839,0v-15.34h2.27v15.34a2.423,2.423,0,1,0,4.839,0v-15.34h4.232l-4.2-25.34h.023a2.828,2.828,0,0,1,1.657,2.389l3.168,16.854a2.422,2.422,0,1,0,4.789-.676" transform="translate(163.733 3305)" fill="#80cab6"/>
    <path id="Trazado_32507" data-name="Trazado 32507" d="M309.178,158.212l-3.222-18.52c-.289-1.588-.916-3.106-6.6-5.892-1.9-.933-3.069-1.954-3.069-4.891a2.543,2.543,0,0,1,.017-.291c2.006,1.457,5.894-.545,5.894-.545-2.2-2.907-2.8-8.36-3.633-10.048-.757-1.53-1.818-2.428-4.286-2.576-.105-.01-.206-.028-.32-.029-.146,0-.282,0-.419,0h-.019c-.137,0-.274,0-.423,0-.111,0-.213.019-.324.029-2.46.149-3.523,1.046-4.279,2.576-.831,1.688-1.428,7.141-3.628,10.048,0,0,3.882,2,5.889.545a2.548,2.548,0,0,1,.019.291c0,2.937-1.17,3.958-3.072,4.891-5.682,2.785-6.312,4.3-6.6,5.892l-3.222,18.52a2.424,2.424,0,1,0,4.793.676l3.167-16.854a2.824,2.824,0,0,1,1.657-2.389h.026l-4.2,25.34h4.228v15.34a2.422,2.422,0,1,0,4.838,0v-15.34h2.274v15.34a2.422,2.422,0,1,0,4.838,0v-15.34h4.231l-4.2-25.34h.023a2.821,2.821,0,0,1,1.657,2.389l3.169,16.854a2.423,2.423,0,1,0,4.792-.676" transform="translate(196.997 3305)" fill="#80cab6"/>
    <path id="Trazado_32508" data-name="Trazado 32508" d="M279.528,158.212l-3.219-18.52c-.291-1.588-.916-3.106-6.6-5.892-1.9-.933-3.072-1.954-3.072-4.891a2.877,2.877,0,0,1,.018-.291c2.005,1.457,5.894-.545,5.894-.545-2.2-2.907-2.8-8.36-3.631-10.048-.755-1.53-1.821-2.428-4.283-2.576-.109-.01-.207-.028-.324-.029-.143,0-.283,0-.419,0h-.018c-.134,0-.274,0-.421,0-.114,0-.214.019-.324.029-2.462.149-3.525,1.046-4.282,2.576-.827,1.688-1.428,7.141-3.629,10.048,0,0,3.884,2,5.89.545a2.572,2.572,0,0,1,.017.291c0,2.937-1.168,3.958-3.069,4.891-5.682,2.785-6.31,4.3-6.6,5.892l-3.223,18.52a2.423,2.423,0,1,0,4.792.676l3.172-16.854a2.814,2.814,0,0,1,1.654-2.389h.022l-4.2,25.34h4.229v15.34a2.422,2.422,0,1,0,4.838,0v-15.34h2.274v15.34a2.422,2.422,0,1,0,4.836,0v-15.34h4.233l-4.2-25.34h.027a2.841,2.841,0,0,1,1.656,2.389l3.164,16.854a2.423,2.423,0,1,0,4.79-.676" transform="translate(188.681 3305)" fill="#80cab6"/>
    <path id="Trazado_32513" data-name="Trazado 32513" d="M24.252,139.717c-.028-.75-.626-4.77-5.478-6.716-2-.679-3.844-1.873-3.844-3.672s1.283-1.554,1.914-4.6a12.927,12.927,0,0,0,.25-3.264.582.582,0,0,0,.33-.487,5.46,5.46,0,0,0-2.811-4.574c.282-.493-1.246-.987-2.291-.987-4.784,0-5.569,5.1-5.578,5.5-.009.588.2.766.406.817a13.048,13.048,0,0,0,.259,2.99c.629,3.045,1.914,2.8,1.914,4.6S7.479,132.322,5.478,133C.63,134.947.028,138.966,0,139.717v19.163a2.492,2.492,0,0,0,2.42,2.555,2.49,2.49,0,0,0,2.418-2.555V141.157a2.558,2.558,0,0,1,1.307-1.9h.015v41.063a2.49,2.49,0,0,0,2.421,2.555A2.487,2.487,0,0,0,11,180.326V159.89h2.252v20.437a2.424,2.424,0,1,0,4.842,0V139.264h.013a2.552,2.552,0,0,1,1.306,1.9v17.722a2.424,2.424,0,1,0,4.84,0V139.786c0-.02,0-.037,0-.056Z" transform="translate(326.5 3379.268)" fill="#0540b7"/>
    <path id="Trazado_32514" data-name="Trazado 32514" d="M53.9,139.717c-.026-.75-.626-4.77-5.477-6.716-2-.679-3.847-1.873-3.847-3.672s1.286-1.554,1.916-4.6a12.866,12.866,0,0,0,.251-3.264.575.575,0,0,0,.329-.487,5.451,5.451,0,0,0-2.813-4.574c.284-.493-1.243-.987-2.287-.987-4.785,0-5.569,5.1-5.579,5.5-.01.588.195.766.407.817a13.2,13.2,0,0,0,.256,2.99c.631,3.045,1.916,2.8,1.916,4.6s-1.845,2.994-3.845,3.672c-4.852,1.946-5.451,5.966-5.477,6.716v.009a.713.713,0,0,0,0,.091v19.063a2.422,2.422,0,1,0,4.838,0V141.157a2.561,2.561,0,0,1,1.307-1.9h.015v41.063a2.422,2.422,0,1,0,4.838,0V159.89H42.9v20.437a2.422,2.422,0,1,0,4.838,0V139.264h.014a2.562,2.562,0,0,1,1.31,1.9v17.722a2.422,2.422,0,1,0,4.836,0V139.786c0-.02,0-.037,0-.056Z" transform="translate(334.815 3379.268)" fill="#0540b7"/>
    <path id="Trazado_32515" data-name="Trazado 32515" d="M83.547,139.717c-.026-.75-.625-4.77-5.475-6.716-2-.679-3.848-1.873-3.848-3.672s1.286-1.554,1.916-4.6a12.753,12.753,0,0,0,.25-3.264.572.572,0,0,0,.33-.487,5.452,5.452,0,0,0-2.812-4.574c.284-.493-1.245-.987-2.288-.987-4.783,0-5.57,5.1-5.577,5.5-.013.588.193.766.4.817a13.048,13.048,0,0,0,.259,2.99c.629,3.045,1.912,2.8,1.912,4.6s-1.843,2.994-3.844,3.672c-4.85,1.946-5.45,5.966-5.474,6.716v.009a.358.358,0,0,0,0,.091v19.063a2.422,2.422,0,1,0,4.836,0V141.157a2.559,2.559,0,0,1,1.306-1.9h.015v41.063a2.422,2.422,0,1,0,4.838,0V159.89h2.254v20.437a2.422,2.422,0,1,0,4.838,0V139.264H77.4a2.563,2.563,0,0,1,1.306,1.9v17.722a2.422,2.422,0,1,0,4.838,0V139.717Z" transform="translate(343.132 3379.268)" fill="#0540b7"/>
    <path id="Trazado_32516" data-name="Trazado 32516" d="M113.2,139.717c-.027-.75-.627-4.77-5.477-6.716-2-.679-3.847-1.873-3.847-3.672s1.284-1.554,1.916-4.6a12.925,12.925,0,0,0,.251-3.264.577.577,0,0,0,.328-.487,5.449,5.449,0,0,0-2.812-4.574c.286-.493-1.243-.987-2.288-.987-4.784,0-5.571,5.1-5.577,5.5-.012.588.195.766.4.817a13.117,13.117,0,0,0,.26,2.99c.627,3.045,1.914,2.8,1.914,4.6s-1.844,2.994-3.845,3.672c-4.852,1.946-5.45,5.966-5.477,6.716v.009a.539.539,0,0,0,0,.091v19.063a2.422,2.422,0,1,0,4.838,0V141.157a2.553,2.553,0,0,1,1.309-1.9h.013v41.063a2.422,2.422,0,1,0,4.838,0V159.89H102.2v20.437a2.423,2.423,0,1,0,4.839,0V139.264h.015a2.558,2.558,0,0,1,1.307,1.9v17.722a2.422,2.422,0,1,0,4.838,0V139.717Z" transform="translate(351.448 3379.268)" fill="#0540b7"/>
    <path id="Trazado_32517" data-name="Trazado 32517" d="M142.845,139.717c-.027-.75-.629-4.77-5.477-6.716-2-.679-3.847-1.873-3.847-3.672s1.283-1.554,1.914-4.6a12.867,12.867,0,0,0,.251-3.264.575.575,0,0,0,.329-.487A5.449,5.449,0,0,0,133.2,116.4c.283-.493-1.245-.987-2.288-.987-4.784,0-5.569,5.1-5.578,5.5-.01.588.195.766.407.817a13.057,13.057,0,0,0,.256,2.99c.629,3.045,1.914,2.8,1.914,4.6s-1.843,2.994-3.847,3.672c-4.849,1.946-5.448,5.966-5.475,6.716v.009c0,.033,0,.067,0,.091v19.063a2.423,2.423,0,1,0,4.839,0V141.157a2.561,2.561,0,0,1,1.3-1.9h.018v41.063a2.421,2.421,0,1,0,4.835,0V159.89h2.255v20.437a2.423,2.423,0,1,0,4.839,0V139.264h.014a2.561,2.561,0,0,1,1.307,1.9v17.722a2.423,2.423,0,1,0,4.839,0V139.717Z" transform="translate(359.764 3379.268)" fill="#0540b7"/>
  </g>
</svg>
