<svg xmlns="http://www.w3.org/2000/svg" width="766.334" height="236" viewBox="0 0 766.334 236">
  <g id="Grupo_959305" data-name="Grupo 959305" transform="translate(-416.832 -11739)">
    <g id="Trazado_725459" data-name="Trazado 725459" transform="translate(416.832 11739)" fill="#fff">
      <path d="M 765.5 235.5 L 0.5 235.5 L 0.5 0.5 L 765.5 0.5 L 765.5 235.5 Z" stroke="none"/>
      <path d="M 1 1 L 1 235 L 765 235 L 765 1 L 1 1 M 0 0 L 766 0 L 766 236 L 0 236 L 0 0 Z" stroke="none" fill="#707070"/>
    </g>
    <path id="Trazado_725015" data-name="Trazado 725015" d="M23463-1324h765.713" transform="translate(-23046.082 13130.25)" fill="none" stroke="#707070" stroke-width="1"/>
    <path id="Trazado_725023" data-name="Trazado 725023" d="M23885.334-1356v236" transform="translate(-23197.5 13095)" fill="none" stroke="#707070" stroke-width="1"/>
    <path id="Trazado_725032" data-name="Trazado 725032" d="M23885.334-1356v199" transform="translate(-22957.5 13132)" fill="none" stroke="#707070" stroke-width="1"/>
    <path id="Trazado_725460" data-name="Trazado 725460" d="M29.352,14.016A1.2,1.2,0,0,0,28.883,13a6.148,6.148,0,0,0-1.687-.75,11.963,11.963,0,0,1-1.93-.777,3.153,3.153,0,0,1-1.937-2.82A2.747,2.747,0,0,1,23.848,7,3.389,3.389,0,0,1,25.34,5.875a5.616,5.616,0,0,1,2.184-.406A5.112,5.112,0,0,1,29.7,5.91a3.458,3.458,0,0,1,1.48,1.246A3.261,3.261,0,0,1,31.7,8.984H29.359a1.534,1.534,0,0,0-.492-1.215,2.023,2.023,0,0,0-1.383-.434,2.162,2.162,0,0,0-1.336.363,1.146,1.146,0,0,0-.477.957,1.1,1.1,0,0,0,.559.93,6.311,6.311,0,0,0,1.645.7,7.106,7.106,0,0,1,2.914,1.492A2.972,2.972,0,0,1,31.7,14a2.737,2.737,0,0,1-1.117,2.316,4.891,4.891,0,0,1-3.008.84,5.808,5.808,0,0,1-2.391-.48,3.783,3.783,0,0,1-1.645-1.316,3.371,3.371,0,0,1-.566-1.937h2.352q0,1.883,2.25,1.883a2.189,2.189,0,0,0,1.3-.34A1.106,1.106,0,0,0,29.352,14.016ZM38.2,16.141a2.831,2.831,0,0,1-2.312,1.016,2.67,2.67,0,0,1-2.074-.781,3.335,3.335,0,0,1-.73-2.289V8.547h2.258v5.467q0,1.322,1.2,1.322a1.63,1.63,0,0,0,1.578-.8V8.547h2.266V17H38.266Zm8.469-1.477a.727.727,0,0,0-.41-.652,4.659,4.659,0,0,0-1.316-.426q-3.016-.633-3.016-2.562a2.323,2.323,0,0,1,.934-1.879A3.766,3.766,0,0,1,45.3,8.391a4.053,4.053,0,0,1,2.574.758,2.388,2.388,0,0,1,.965,1.969H46.586a1.092,1.092,0,0,0-.312-.8A1.322,1.322,0,0,0,45.3,10a1.351,1.351,0,0,0-.883.258.814.814,0,0,0-.312.656.7.7,0,0,0,.355.605,3.657,3.657,0,0,0,1.2.4,9.8,9.8,0,0,1,1.422.379,2.336,2.336,0,0,1,1.789,2.273,2.2,2.2,0,0,1-.992,1.871,4.28,4.28,0,0,1-2.562.715,4.47,4.47,0,0,1-1.887-.379,3.166,3.166,0,0,1-1.293-1.039,2.414,2.414,0,0,1-.469-1.426H43.8a1.179,1.179,0,0,0,.445.922,1.766,1.766,0,0,0,1.109.32,1.635,1.635,0,0,0,.98-.246A.766.766,0,0,0,46.672,14.664Zm6.352-8.2V8.547h1.445V10.2H53.023v4.219a1.007,1.007,0,0,0,.18.672.9.9,0,0,0,.688.2,3.6,3.6,0,0,0,.664-.055v1.711a4.648,4.648,0,0,1-1.367.2,2.156,2.156,0,0,1-2.422-2.4V10.2H49.531V8.547h1.234V6.469ZM60.625,17a2.507,2.507,0,0,1-.227-.758,2.732,2.732,0,0,1-2.133.914,3,3,0,0,1-2.059-.719,2.312,2.312,0,0,1-.816-1.812,2.389,2.389,0,0,1,1-2.062,4.915,4.915,0,0,1,2.879-.727H60.3v-.484a1.393,1.393,0,0,0-.3-.937,1.183,1.183,0,0,0-.949-.352,1.345,1.345,0,0,0-.895.273.929.929,0,0,0-.324.75H55.578a2.268,2.268,0,0,1,.453-1.359,3,3,0,0,1,1.281-.98,4.669,4.669,0,0,1,1.859-.355,3.689,3.689,0,0,1,2.48.785,2.747,2.747,0,0,1,.918,2.207v3.664a4.041,4.041,0,0,0,.336,1.82V17Zm-1.867-1.57a1.945,1.945,0,0,0,.922-.223,1.462,1.462,0,0,0,.625-.6V13.156h-.844q-1.7,0-1.8,1.172l-.008.133a.9.9,0,0,0,.3.7A1.153,1.153,0,0,0,58.758,15.43Zm7.625-6.883.07.977a2.951,2.951,0,0,1,2.43-1.133,2.453,2.453,0,0,1,2,.789,3.682,3.682,0,0,1,.672,2.359V17H69.3V11.594a1.465,1.465,0,0,0-.312-1.043,1.4,1.4,0,0,0-1.039-.324,1.553,1.553,0,0,0-1.43.813V17H64.258V8.547Zm10.4,6.789a1.481,1.481,0,0,0,1.016-.344,1.2,1.2,0,0,0,.406-.914H80.32a2.9,2.9,0,0,1-.469,1.574,3.093,3.093,0,0,1-1.262,1.109,3.949,3.949,0,0,1-1.77.395A3.67,3.67,0,0,1,73.961,16a4.56,4.56,0,0,1-1.047-3.184v-.148a4.508,4.508,0,0,1,1.039-3.117A3.627,3.627,0,0,1,76.8,8.391a3.555,3.555,0,0,1,2.543.9,3.2,3.2,0,0,1,.973,2.4H78.2a1.551,1.551,0,0,0-.406-1.072,1.51,1.51,0,0,0-2.223.163,3.333,3.333,0,0,0-.4,1.866v.235a3.375,3.375,0,0,0,.4,1.878A1.377,1.377,0,0,0,76.781,15.336ZM83.992,17H81.727V8.547h2.266Zm-2.4-10.641a1.112,1.112,0,0,1,.34-.836,1.465,1.465,0,0,1,1.848,0,1.105,1.105,0,0,1,.344.836,1.108,1.108,0,0,1-.348.844,1.448,1.448,0,0,1-1.836,0A1.108,1.108,0,0,1,81.594,6.359ZM90.75,17a2.507,2.507,0,0,1-.227-.758,2.732,2.732,0,0,1-2.133.914,3,3,0,0,1-2.059-.719,2.312,2.312,0,0,1-.816-1.812,2.389,2.389,0,0,1,1-2.062,4.915,4.915,0,0,1,2.879-.727H90.43v-.484a1.393,1.393,0,0,0-.3-.937,1.183,1.183,0,0,0-.949-.352,1.345,1.345,0,0,0-.895.273.929.929,0,0,0-.324.75H85.7a2.268,2.268,0,0,1,.453-1.359,3,3,0,0,1,1.281-.98A4.669,4.669,0,0,1,89.3,8.391a3.689,3.689,0,0,1,2.48.785,2.747,2.747,0,0,1,.918,2.207v3.664a4.041,4.041,0,0,0,.336,1.82V17Zm-1.867-1.57a1.945,1.945,0,0,0,.922-.223,1.462,1.462,0,0,0,.625-.6V13.156h-.844q-1.7,0-1.8,1.172l-.008.133a.9.9,0,0,0,.3.7A1.153,1.153,0,0,0,88.883,15.43Z" transform="translate(486.832 11776)" fill="#12263f"/>
    <path id="Trazado_725461" data-name="Trazado 725461" d="M45.691,17H43.348L38.785,9.516V17H36.441V5.625h2.344l4.57,7.5v-7.5h2.336Zm4.281,0H47.707V8.547h2.266Zm-2.4-10.641a1.112,1.112,0,0,1,.34-.836,1.465,1.465,0,0,1,1.848,0,1.105,1.105,0,0,1,.344.836,1.108,1.108,0,0,1-.348.844,1.448,1.448,0,0,1-1.836,0A1.108,1.108,0,0,1,47.574,6.359ZM55,14.242l1.57-5.7h2.359L56.074,17H53.918L51.066,8.547h2.359Zm8.813,2.914a4.15,4.15,0,0,1-3.027-1.141,4.054,4.054,0,0,1-1.168-3.039v-.219a5.106,5.106,0,0,1,.492-2.277A3.612,3.612,0,0,1,61.5,8.934a3.914,3.914,0,0,1,2.059-.543,3.508,3.508,0,0,1,2.73,1.094,4.444,4.444,0,0,1,1,3.1v.922H61.9a2.1,2.1,0,0,0,.66,1.328,2,2,0,0,0,1.395.5A2.437,2.437,0,0,0,66,14.391l1.109,1.242a3.389,3.389,0,0,1-1.375,1.121A4.511,4.511,0,0,1,63.809,17.156Zm-.258-6.945a1.411,1.411,0,0,0-1.09.455,2.357,2.357,0,0,0-.535,1.3h3.141v-.181a1.681,1.681,0,0,0-.406-1.165A1.456,1.456,0,0,0,63.551,10.211ZM70.949,17H68.684V5h2.266ZM78.91,8.547l.07.945a2.971,2.971,0,0,1,2.43-1.1A2.255,2.255,0,0,1,83.652,9.68a2.9,2.9,0,0,1,2.539-1.289,2.521,2.521,0,0,1,2.047.8,3.681,3.681,0,0,1,.672,2.41V17H86.645V11.609a1.61,1.61,0,0,0-.281-1.051,1.246,1.246,0,0,0-.992-.332,1.409,1.409,0,0,0-1.406.969l.008,5.8H81.715V11.617a1.59,1.59,0,0,0-.289-1.062,1.259,1.259,0,0,0-.984-.328,1.463,1.463,0,0,0-1.391.8V17H76.793V8.547ZM95.543,17a2.507,2.507,0,0,1-.227-.758,2.732,2.732,0,0,1-2.133.914,3,3,0,0,1-2.059-.719,2.312,2.312,0,0,1-.816-1.812,2.389,2.389,0,0,1,1-2.062,4.915,4.915,0,0,1,2.879-.727h1.039v-.484a1.393,1.393,0,0,0-.3-.937,1.183,1.183,0,0,0-.949-.352,1.345,1.345,0,0,0-.895.273.929.929,0,0,0-.324.75H90.5a2.268,2.268,0,0,1,.453-1.359,3,3,0,0,1,1.281-.98,4.669,4.669,0,0,1,1.859-.355,3.689,3.689,0,0,1,2.48.785,2.747,2.747,0,0,1,.918,2.207v3.664a4.041,4.041,0,0,0,.336,1.82V17Zm-1.867-1.57a1.945,1.945,0,0,0,.922-.223,1.462,1.462,0,0,0,.625-.6V13.156h-.844q-1.7,0-1.8,1.172l-.008.133a.9.9,0,0,0,.3.7A1.153,1.153,0,0,0,93.676,15.43ZM94.535,5H97L94.832,7.422H93Zm7.906,6.07,1.422-2.523h2.414l-2.406,4.141L106.379,17h-2.422l-1.508-2.656L100.949,17H98.52l2.508-4.312-2.4-4.141h2.422Zm7.3,5.93H107.48V8.547h2.266Zm-2.4-10.641a1.112,1.112,0,0,1,.34-.836,1.465,1.465,0,0,1,1.848,0,1.105,1.105,0,0,1,.344.836,1.108,1.108,0,0,1-.348.844,1.448,1.448,0,0,1-1.836,0A1.108,1.108,0,0,1,107.348,6.359Zm6.375,2.188.07.945a2.971,2.971,0,0,1,2.43-1.1,2.255,2.255,0,0,1,2.242,1.289A2.9,2.9,0,0,1,121,8.391a2.521,2.521,0,0,1,2.047.8,3.681,3.681,0,0,1,.672,2.41V17h-2.266V11.609a1.61,1.61,0,0,0-.281-1.051,1.246,1.246,0,0,0-.992-.332,1.409,1.409,0,0,0-1.406.969l.008,5.8h-2.258V11.617a1.59,1.59,0,0,0-.289-1.062,1.259,1.259,0,0,0-.984-.328,1.463,1.463,0,0,0-1.391.8V17h-2.258V8.547ZM125.105,12.7a5.013,5.013,0,0,1,.484-2.242,3.546,3.546,0,0,1,1.395-1.523,4.069,4.069,0,0,1,2.113-.539,3.849,3.849,0,0,1,2.793,1.047,4.2,4.2,0,0,1,1.207,2.844l.016.578a4.418,4.418,0,0,1-1.086,3.121,4.209,4.209,0,0,1-5.832,0,4.5,4.5,0,0,1-1.09-3.187Zm2.258.16a3.16,3.16,0,0,0,.453,1.843,1.628,1.628,0,0,0,2.578.008,3.457,3.457,0,0,0,.461-2.015,3.128,3.128,0,0,0-.461-1.831,1.5,1.5,0,0,0-1.3-.649,1.474,1.474,0,0,0-1.281.646A3.516,3.516,0,0,0,127.363,12.856Zm18.734,0a5.07,5.07,0,0,1-.887,3.129,2.843,2.843,0,0,1-2.395,1.176,2.633,2.633,0,0,1-2.07-.891V20.25h-2.258V8.547h2.094l.078.828a2.654,2.654,0,0,1,2.141-.984,2.862,2.862,0,0,1,2.43,1.156,5.207,5.207,0,0,1,.867,3.188Zm-2.258-.164a3.327,3.327,0,0,0-.418-1.82,1.361,1.361,0,0,0-1.215-.641,1.479,1.479,0,0,0-1.461.813V14.5a1.5,1.5,0,0,0,1.477.836Q143.84,15.336,143.84,12.688Zm7.547,4.469a4.15,4.15,0,0,1-3.027-1.141,4.054,4.054,0,0,1-1.168-3.039v-.219a5.106,5.106,0,0,1,.492-2.277,3.612,3.612,0,0,1,1.395-1.547,3.914,3.914,0,0,1,2.059-.543,3.508,3.508,0,0,1,2.73,1.094,4.444,4.444,0,0,1,1,3.1v.922H149.48a2.1,2.1,0,0,0,.66,1.328,2,2,0,0,0,1.395.5,2.437,2.437,0,0,0,2.039-.945l1.109,1.242a3.389,3.389,0,0,1-1.375,1.121A4.511,4.511,0,0,1,151.387,17.156Zm-.258-6.945a1.411,1.411,0,0,0-1.09.455,2.357,2.357,0,0,0-.535,1.3h3.141v-.181a1.681,1.681,0,0,0-.406-1.165A1.456,1.456,0,0,0,151.129,10.211Zm9.766.453a6.134,6.134,0,0,0-.812-.062,1.654,1.654,0,0,0-1.68.867V17h-2.258V8.547h2.133l.063,1.008a2.092,2.092,0,0,1,1.883-1.164,2.366,2.366,0,0,1,.7.1Zm3.2-2.117.07.945a2.971,2.971,0,0,1,2.43-1.1A2.255,2.255,0,0,1,168.84,9.68a2.9,2.9,0,0,1,2.539-1.289,2.521,2.521,0,0,1,2.047.8,3.681,3.681,0,0,1,.672,2.41V17h-2.266V11.609a1.61,1.61,0,0,0-.281-1.051,1.246,1.246,0,0,0-.992-.332,1.409,1.409,0,0,0-1.406.969l.008,5.8H166.9V11.617a1.59,1.59,0,0,0-.289-1.062,1.259,1.259,0,0,0-.984-.328,1.463,1.463,0,0,0-1.391.8V17H161.98V8.547ZM178.215,17h-2.266V8.547h2.266Zm-2.4-10.641a1.112,1.112,0,0,1,.34-.836,1.465,1.465,0,0,1,1.848,0,1.105,1.105,0,0,1,.344.836A1.109,1.109,0,0,1,178,7.2a1.448,1.448,0,0,1-1.836,0A1.109,1.109,0,0,1,175.816,6.359Zm8.836,8.3a.727.727,0,0,0-.41-.652,4.659,4.659,0,0,0-1.316-.426q-3.016-.633-3.016-2.562a2.323,2.323,0,0,1,.934-1.879,3.766,3.766,0,0,1,2.441-.754,4.053,4.053,0,0,1,2.574.758,2.388,2.388,0,0,1,.965,1.969h-2.258a1.092,1.092,0,0,0-.312-.8,1.322,1.322,0,0,0-.977-.316,1.351,1.351,0,0,0-.883.258.814.814,0,0,0-.312.656.7.7,0,0,0,.355.605,3.657,3.657,0,0,0,1.2.4,9.8,9.8,0,0,1,1.422.379,2.336,2.336,0,0,1,1.789,2.273,2.205,2.205,0,0,1-.992,1.871,4.28,4.28,0,0,1-2.562.715,4.47,4.47,0,0,1-1.887-.379,3.166,3.166,0,0,1-1.293-1.039,2.414,2.414,0,0,1-.469-1.426h2.141a1.179,1.179,0,0,0,.445.922,1.766,1.766,0,0,0,1.109.32,1.635,1.635,0,0,0,.98-.246A.766.766,0,0,0,184.652,14.664ZM190.684,17h-2.266V8.547h2.266Zm-2.4-10.641a1.112,1.112,0,0,1,.34-.836,1.465,1.465,0,0,1,1.848,0,1.105,1.105,0,0,1,.344.836,1.109,1.109,0,0,1-.348.844,1.448,1.448,0,0,1-1.836,0A1.109,1.109,0,0,1,188.285,6.359Zm11.875,6.492a5.119,5.119,0,0,1-.867,3.168,2.872,2.872,0,0,1-2.422,1.137,2.639,2.639,0,0,1-2.2-1.055l-.1.9h-2.031V5H194.8V9.3a2.571,2.571,0,0,1,2.055-.914,2.9,2.9,0,0,1,2.426,1.137,5.126,5.126,0,0,1,.879,3.2Zm-2.258-.164a3.363,3.363,0,0,0-.406-1.871,1.374,1.374,0,0,0-1.211-.59,1.489,1.489,0,0,0-1.484.883v3.336a1.509,1.509,0,0,0,1.5.891,1.394,1.394,0,0,0,1.438-1.078A5.562,5.562,0,0,0,197.9,12.688ZM203.934,17h-2.266V5h2.266Zm5.75.156a4.15,4.15,0,0,1-3.027-1.141,4.054,4.054,0,0,1-1.168-3.039v-.219a5.106,5.106,0,0,1,.492-2.277,3.612,3.612,0,0,1,1.395-1.547,3.914,3.914,0,0,1,2.059-.543,3.508,3.508,0,0,1,2.73,1.094,4.444,4.444,0,0,1,1,3.1v.922h-5.383a2.1,2.1,0,0,0,.66,1.328,2,2,0,0,0,1.395.5,2.437,2.437,0,0,0,2.039-.945l1.109,1.242a3.389,3.389,0,0,1-1.375,1.121A4.511,4.511,0,0,1,209.684,17.156Zm-.258-6.945a1.411,1.411,0,0,0-1.09.455,2.357,2.357,0,0,0-.535,1.3h3.141v-.181a1.681,1.681,0,0,0-.406-1.165A1.456,1.456,0,0,0,209.426,10.211Z" transform="translate(810 11748.519)" fill="#12263f"/>
    <path id="Trazado_725462" data-name="Trazado 725462" d="M4.088,10.563A6.172,6.172,0,0,1,1.63,9.371,2.279,2.279,0,0,1,.861,7.624,2.408,2.408,0,0,1,1.8,5.679,3.736,3.736,0,0,1,4.245,4.91a4.078,4.078,0,0,1,1.829.4A3.007,3.007,0,0,1,7.318,6.4a2.8,2.8,0,0,1,.441,1.524H6.439A1.82,1.82,0,0,0,5.865,6.5a2.335,2.335,0,0,0-1.62-.518,2.391,2.391,0,0,0-1.514.428A1.428,1.428,0,0,0,2.188,7.6,1.285,1.285,0,0,0,2.7,8.63,5.062,5.062,0,0,0,4.46,9.4a8.152,8.152,0,0,1,1.941.77,2.946,2.946,0,0,1,1.039.981,2.5,2.5,0,0,1,.338,1.319,2.326,2.326,0,0,1-.943,1.938,4.022,4.022,0,0,1-2.522.728A4.678,4.678,0,0,1,2.4,14.744a3.221,3.221,0,0,1-1.371-1.077,2.627,2.627,0,0,1-.482-1.552H1.866a1.714,1.714,0,0,0,.667,1.425,2.806,2.806,0,0,0,1.781.523,2.58,2.58,0,0,0,1.593-.424,1.377,1.377,0,0,0,.554-1.155,1.351,1.351,0,0,0-.513-1.131A5.911,5.911,0,0,0,4.088,10.563Zm9.741,3.705a2.686,2.686,0,0,1-2.167.868,2.3,2.3,0,0,1-1.8-.687,2.974,2.974,0,0,1-.625-2.034V7.6H10.5v4.778q0,1.682,1.367,1.682a1.893,1.893,0,0,0,1.928-1.08V7.6H15.06V15h-1.2ZM18.354,15H17.09V4.5h1.265ZM21,15V8.581H19.831V7.6H21V6.845a2.519,2.519,0,0,1,.636-1.839,2.4,2.4,0,0,1,1.8-.649,3.339,3.339,0,0,1,.868.115l-.068,1.019a3.632,3.632,0,0,0-.684-.062,1.234,1.234,0,0,0-.95.36,1.46,1.46,0,0,0-.335,1.032V7.6h1.579v.978H22.265V15Zm8.8-.731a2.686,2.686,0,0,1-2.167.868,2.3,2.3,0,0,1-1.8-.687,2.974,2.974,0,0,1-.625-2.034V7.6h1.265v4.778q0,1.682,1.367,1.682a1.893,1.893,0,0,0,1.928-1.08V7.6h1.265V15h-1.2Zm6.727-5.53a3.79,3.79,0,0,0-.622-.048,1.667,1.667,0,0,0-1.688,1.06V15H32.956V7.6h1.23l.021.854a1.969,1.969,0,0,1,1.764-.991,1.292,1.292,0,0,1,.561.1Zm.69,2.5a4.369,4.369,0,0,1,.427-1.955,3.187,3.187,0,0,1,1.189-1.34,3.238,3.238,0,0,1,1.74-.472,3.119,3.119,0,0,1,2.444,1.046,4.024,4.024,0,0,1,.933,2.782v.089a4.407,4.407,0,0,1-.414,1.938,3.14,3.14,0,0,1-1.183,1.336,3.275,3.275,0,0,1-1.767.479,3.111,3.111,0,0,1-2.437-1.046,4,4,0,0,1-.933-2.769Zm1.271.15a3.164,3.164,0,0,0,.571,1.976,1.934,1.934,0,0,0,3.059-.01,3.46,3.46,0,0,0,.567-2.116,3.159,3.159,0,0,0-.578-1.972,1.836,1.836,0,0,0-1.535-.755,1.816,1.816,0,0,0-1.511.745A3.435,3.435,0,0,0,38.493,11.384ZM48.7,11.24A4.333,4.333,0,0,1,49.506,8.5a2.745,2.745,0,0,1,4.17-.147V4.5H54.94V15H53.778l-.062-.793a2.575,2.575,0,0,1-2.112.93,2.526,2.526,0,0,1-2.1-1.053,4.382,4.382,0,0,1-.81-2.748Zm1.265.144a3.281,3.281,0,0,0,.52,1.969,1.68,1.68,0,0,0,1.436.711,1.845,1.845,0,0,0,1.757-1.08v-3.4A1.859,1.859,0,0,0,51.933,8.54a1.687,1.687,0,0,0-1.449.718A3.612,3.612,0,0,0,49.964,11.384Zm10.008,3.753a3.232,3.232,0,0,1-2.447-.988,3.666,3.666,0,0,1-.943-2.642v-.232A4.438,4.438,0,0,1,57,9.309a3.28,3.28,0,0,1,1.176-1.354,2.956,2.956,0,0,1,1.637-.489,2.77,2.77,0,0,1,2.242.95,4.114,4.114,0,0,1,.8,2.721v.526H57.846a2.629,2.629,0,0,0,.639,1.767,2.009,2.009,0,0,0,1.555.673,2.2,2.2,0,0,0,1.135-.273,2.851,2.851,0,0,0,.813-.725l.772.6A3.106,3.106,0,0,1,59.972,15.137Zm-.157-6.631a1.687,1.687,0,0,0-1.285.557,2.708,2.708,0,0,0-.643,1.562h3.705v-.1a2.409,2.409,0,0,0-.52-1.494A1.588,1.588,0,0,0,59.814,8.506ZM69.05,8.5a2.689,2.689,0,0,1,2.188-1.032q2.345,0,2.365,2.646V15H72.338V10.105a1.7,1.7,0,0,0-.366-1.183,1.466,1.466,0,0,0-1.118-.383,1.825,1.825,0,0,0-1.08.328,2.228,2.228,0,0,0-.725.861V15H67.785V4.5H69.05ZM76.87,15H75.605V7.6H76.87ZM75.5,5.642a.755.755,0,0,1,.188-.52.706.706,0,0,1,.557-.212.717.717,0,0,1,.561.212.747.747,0,0,1,.191.52.722.722,0,0,1-.191.513.73.73,0,0,1-.561.205.718.718,0,0,1-.557-.205A.73.73,0,0,1,75.5,5.642Zm3.083,5.6A4.333,4.333,0,0,1,79.393,8.5a2.745,2.745,0,0,1,4.17-.147V4.5h1.265V15H83.665l-.062-.793a2.575,2.575,0,0,1-2.112.93,2.526,2.526,0,0,1-2.1-1.053,4.382,4.382,0,0,1-.81-2.748Zm1.265.144a3.281,3.281,0,0,0,.52,1.969,1.68,1.68,0,0,0,1.436.711,1.845,1.845,0,0,0,1.757-1.08v-3.4A1.859,1.859,0,0,0,81.819,8.54a1.687,1.687,0,0,0-1.449.718A3.612,3.612,0,0,0,79.851,11.384ZM90.364,8.738a3.79,3.79,0,0,0-.622-.048,1.667,1.667,0,0,0-1.688,1.06V15H86.789V7.6h1.23l.021.854A1.969,1.969,0,0,1,89.8,7.467a1.292,1.292,0,0,1,.561.1Zm.827,2.5a4.369,4.369,0,0,1,.427-1.955,3.187,3.187,0,0,1,1.189-1.34,3.238,3.238,0,0,1,1.74-.472,3.119,3.119,0,0,1,2.444,1.046,4.024,4.024,0,0,1,.933,2.782v.089a4.407,4.407,0,0,1-.414,1.938,3.14,3.14,0,0,1-1.183,1.336,3.275,3.275,0,0,1-1.767.479,3.111,3.111,0,0,1-2.437-1.046,4,4,0,0,1-.933-2.769Zm1.271.15a3.164,3.164,0,0,0,.571,1.976,1.934,1.934,0,0,0,3.059-.01,3.46,3.46,0,0,0,.567-2.116,3.159,3.159,0,0,0-.578-1.972,1.836,1.836,0,0,0-1.535-.755,1.816,1.816,0,0,0-1.511.745A3.435,3.435,0,0,0,92.463,11.384ZM95.122,4.5h1.531L94.821,6.51l-1.019,0Zm4.088,6.74a4.347,4.347,0,0,1,.8-2.751,2.757,2.757,0,0,1,4.231-.065l.062-.82h1.155v7.219a3.009,3.009,0,0,1-.851,2.263,3.141,3.141,0,0,1-2.287.827,3.8,3.8,0,0,1-1.565-.342,2.7,2.7,0,0,1-1.169-.937l.656-.759a2.473,2.473,0,0,0,1.989,1,1.938,1.938,0,0,0,1.439-.52,1.986,1.986,0,0,0,.516-1.463v-.636a2.6,2.6,0,0,1-2.071.875,2.527,2.527,0,0,1-2.1-1.046A4.571,4.571,0,0,1,99.21,11.24Zm1.271.144a3.316,3.316,0,0,0,.513,1.965,1.666,1.666,0,0,0,1.436.714,1.852,1.852,0,0,0,1.757-1.087V9.6a1.874,1.874,0,0,0-1.743-1.06A1.681,1.681,0,0,0,101,9.258,3.612,3.612,0,0,0,100.481,11.384Zm9.953,3.753a3.232,3.232,0,0,1-2.447-.988,3.666,3.666,0,0,1-.943-2.642v-.232a4.438,4.438,0,0,1,.42-1.965,3.28,3.28,0,0,1,1.176-1.354,2.956,2.956,0,0,1,1.637-.489,2.77,2.77,0,0,1,2.242.95,4.114,4.114,0,0,1,.8,2.721v.526h-5.011a2.629,2.629,0,0,0,.639,1.767,2.009,2.009,0,0,0,1.555.673,2.2,2.2,0,0,0,1.135-.273,2.851,2.851,0,0,0,.813-.725l.772.6A3.106,3.106,0,0,1,110.435,15.137Zm-.157-6.631a1.687,1.687,0,0,0-1.285.557,2.708,2.708,0,0,0-.643,1.562h3.705v-.1a2.409,2.409,0,0,0-.52-1.494A1.588,1.588,0,0,0,110.277,8.506Zm5.7-.9.041.93a2.7,2.7,0,0,1,2.215-1.066q2.345,0,2.365,2.646V15h-1.265V10.105a1.7,1.7,0,0,0-.366-1.183,1.466,1.466,0,0,0-1.118-.383,1.825,1.825,0,0,0-1.08.328,2.228,2.228,0,0,0-.725.861V15h-1.265V7.6Zm6.193,3.63a4.369,4.369,0,0,1,.427-1.955,3.187,3.187,0,0,1,1.189-1.34,3.238,3.238,0,0,1,1.74-.472,3.119,3.119,0,0,1,2.444,1.046,4.024,4.024,0,0,1,.933,2.782v.089a4.407,4.407,0,0,1-.414,1.938,3.14,3.14,0,0,1-1.183,1.336,3.275,3.275,0,0,1-1.767.479,3.111,3.111,0,0,1-2.437-1.046,4,4,0,0,1-.933-2.769Zm1.271.15a3.164,3.164,0,0,0,.571,1.976,1.934,1.934,0,0,0,3.059-.01,3.46,3.46,0,0,0,.567-2.116,3.159,3.159,0,0,0-.578-1.972,1.836,1.836,0,0,0-1.535-.755,1.816,1.816,0,0,0-1.511.745A3.435,3.435,0,0,0,123.443,11.384Zm10.466-.424a10.569,10.569,0,0,1,.414-2.967,8.618,8.618,0,0,1,1.234-2.584,5.249,5.249,0,0,1,1.7-1.641l.26.834a5.444,5.444,0,0,0-1.637,2.338,10.135,10.135,0,0,0-.7,3.521l-.007.581a10.188,10.188,0,0,0,.964,4.58,5.47,5.47,0,0,0,1.381,1.818l-.26.772a5.418,5.418,0,0,1-1.736-1.7A9.5,9.5,0,0,1,133.909,10.96ZM146.59,15h-1.319V10.4h-5.018V15H138.94V5.047h1.313V9.326h5.018V5.047h1.319Zm5.462,5h-3.8v-.53l2.01-2.233a4.774,4.774,0,0,0,.616-.823,1.374,1.374,0,0,0,.169-.656,1.042,1.042,0,0,0-.275-.746.962.962,0,0,0-.734-.291,1.139,1.139,0,0,0-.855.313,1.2,1.2,0,0,0-.305.871h-.738a1.712,1.712,0,0,1,.516-1.3,1.914,1.914,0,0,1,1.382-.494,1.839,1.839,0,0,1,1.28.425,1.449,1.449,0,0,1,.471,1.13,3.321,3.321,0,0,1-1.093,2.042L149.137,19.4h2.915Zm7.853-9.437a6.172,6.172,0,0,1-2.458-1.193,2.279,2.279,0,0,1-.769-1.747,2.408,2.408,0,0,1,.94-1.945,3.736,3.736,0,0,1,2.444-.769,4.078,4.078,0,0,1,1.829.4A3.007,3.007,0,0,1,163.135,6.4a2.8,2.8,0,0,1,.441,1.524h-1.319a1.82,1.82,0,0,0-.574-1.423,2.335,2.335,0,0,0-1.62-.518,2.391,2.391,0,0,0-1.514.428A1.428,1.428,0,0,0,158,7.6a1.285,1.285,0,0,0,.516,1.031,5.062,5.062,0,0,0,1.757.77,8.151,8.151,0,0,1,1.941.77,2.946,2.946,0,0,1,1.039.981,2.5,2.5,0,0,1,.338,1.319,2.326,2.326,0,0,1-.943,1.938,4.022,4.022,0,0,1-2.522.728,4.678,4.678,0,0,1-1.914-.393,3.221,3.221,0,0,1-1.371-1.077,2.627,2.627,0,0,1-.482-1.552h1.319a1.714,1.714,0,0,0,.667,1.425,2.806,2.806,0,0,0,1.781.523,2.58,2.58,0,0,0,1.593-.424,1.377,1.377,0,0,0,.554-1.155,1.351,1.351,0,0,0-.513-1.131A5.911,5.911,0,0,0,159.9,10.563Zm8.094.465a10.574,10.574,0,0,1-.4,2.922,8.641,8.641,0,0,1-1.224,2.581,5.361,5.361,0,0,1-1.726,1.682l-.267-.772a5.5,5.5,0,0,0,1.692-2.505,10.839,10.839,0,0,0,.653-3.77v-.219a11.254,11.254,0,0,0-.3-2.669,9.009,9.009,0,0,0-.837-2.211,5.108,5.108,0,0,0-1.207-1.524l.267-.772a5.34,5.34,0,0,1,1.719,1.668,8.66,8.66,0,0,1,1.224,2.577A10.818,10.818,0,0,1,168,11.028Z" transform="translate(440.832 11818)" fill="#12263f"/>
    <path id="Trazado_725463" data-name="Trazado 725463" d="M7.6,14.023H2.836L1.766,17H.219L4.563,5.625H5.875L10.227,17H8.688ZM3.289,12.8H7.156L5.219,7.477Zm9.7,3.023H17.93V17H11.219V15.938l4.664-6.2H11.289v-1.2H17.7V9.57Zm11.789.344a3.07,3.07,0,0,1-2.477.992,2.628,2.628,0,0,1-2.059-.785,3.4,3.4,0,0,1-.715-2.324v-5.5h1.445v5.461q0,1.922,1.563,1.922a2.163,2.163,0,0,0,2.2-1.234V8.547H26.18V17H24.8ZM29.086,17V9.664H27.75V8.547h1.336V7.68a2.878,2.878,0,0,1,.727-2.1,2.745,2.745,0,0,1,2.055-.742,3.816,3.816,0,0,1,.992.132l-.078,1.165A4.151,4.151,0,0,0,32,6.063a1.41,1.41,0,0,0-1.086.411,1.669,1.669,0,0,0-.383,1.18v.893h1.8V9.664h-1.8V17Zm8.93-7.156a4.331,4.331,0,0,0-.711-.055A1.9,1.9,0,0,0,35.375,11v6H33.93V8.547h1.406l.023.977a2.251,2.251,0,0,1,2.016-1.133,1.477,1.477,0,0,1,.641.109Zm4.836,7.313a3.693,3.693,0,0,1-2.8-1.129,4.19,4.19,0,0,1-1.078-3.02v-.266a5.073,5.073,0,0,1,.48-2.246A3.748,3.748,0,0,1,40.8,8.949a3.378,3.378,0,0,1,1.871-.559,3.166,3.166,0,0,1,2.563,1.086,4.7,4.7,0,0,1,.914,3.109v.6H40.422a3,3,0,0,0,.73,2.02,2.3,2.3,0,0,0,1.777.77,2.517,2.517,0,0,0,1.3-.312,3.259,3.259,0,0,0,.93-.828l.883.688A3.55,3.55,0,0,1,42.852,17.156Zm-.18-7.578a1.928,1.928,0,0,0-1.469.637A3.1,3.1,0,0,0,40.469,12H44.7v-.109a2.753,2.753,0,0,0-.594-1.707A1.815,1.815,0,0,0,42.672,9.578ZM59.555,6.852H55.9V17H54.406V6.852H50.758V5.625h8.8Zm.3,5.844a4.993,4.993,0,0,1,.488-2.234A3.643,3.643,0,0,1,61.707,8.93,3.7,3.7,0,0,1,63.7,8.391a3.565,3.565,0,0,1,2.793,1.2,4.6,4.6,0,0,1,1.066,3.18v.1a5.036,5.036,0,0,1-.473,2.215,3.589,3.589,0,0,1-1.352,1.527,3.743,3.743,0,0,1-2.02.547,3.556,3.556,0,0,1-2.785-1.2A4.575,4.575,0,0,1,59.859,12.8Zm1.453.172a3.616,3.616,0,0,0,.652,2.258,2.211,2.211,0,0,0,3.5-.012,3.955,3.955,0,0,0,.648-2.418,3.61,3.61,0,0,0-.66-2.254A2.1,2.1,0,0,0,63.7,9.578a2.075,2.075,0,0,0-1.727.852A3.925,3.925,0,0,0,61.313,12.867ZM71.328,6.5V8.547h1.578V9.664H71.328v5.249a1.173,1.173,0,0,0,.211.763.888.888,0,0,0,.719.254,3.5,3.5,0,0,0,.688-.094V17a4.215,4.215,0,0,1-1.109.155,1.8,1.8,0,0,1-1.461-.586,2.517,2.517,0,0,1-.492-1.664V9.664H68.344V8.547h1.539V6.5ZM79.813,17a3.036,3.036,0,0,1-.2-.891A3.225,3.225,0,0,1,77.2,17.156a2.984,2.984,0,0,1-2.051-.707,2.288,2.288,0,0,1-.8-1.793,2.39,2.39,0,0,1,1-2.051,4.733,4.733,0,0,1,2.824-.73h1.406v-.664A1.623,1.623,0,0,0,79.133,10,1.821,1.821,0,0,0,77.8,9.555a2.108,2.108,0,0,0-1.3.391,1.151,1.151,0,0,0-.523.945H74.523a2,2,0,0,1,.449-1.223,3.066,3.066,0,0,1,1.219-.934,4.1,4.1,0,0,1,1.691-.344,3.342,3.342,0,0,1,2.289.73,2.635,2.635,0,0,1,.859,2.012v3.891a4.757,4.757,0,0,0,.3,1.852V17Zm-2.4-1.1a2.54,2.54,0,0,0,1.289-.352,2.127,2.127,0,0,0,.883-.914V12.9H78.453q-2.656,0-2.656,1.555a1.316,1.316,0,0,0,.453,1.063A1.742,1.742,0,0,0,77.414,15.9ZM84.867,17H83.422V5h1.445Zm10.672-4.6H92.867V17H91.359V5.625h3.766a4.457,4.457,0,0,1,2.957.875,3.148,3.148,0,0,1,1.035,2.547,3.062,3.062,0,0,1-.574,1.852,3.428,3.428,0,0,1-1.6,1.18l2.672,4.828V17H98.008Zm-2.672-1.227h2.3a2.6,2.6,0,0,0,1.777-.579,1.959,1.959,0,0,0,.66-1.55,2.062,2.062,0,0,0-.629-1.62,2.663,2.663,0,0,0-1.816-.571h-2.3ZM104.5,17.156a3.693,3.693,0,0,1-2.8-1.129,4.19,4.19,0,0,1-1.078-3.02v-.266a5.073,5.073,0,0,1,.48-2.246,3.748,3.748,0,0,1,1.344-1.547,3.378,3.378,0,0,1,1.871-.559,3.166,3.166,0,0,1,2.563,1.086,4.7,4.7,0,0,1,.914,3.109v.6H102.07a3,3,0,0,0,.73,2.02,2.3,2.3,0,0,0,1.777.77,2.517,2.517,0,0,0,1.3-.312,3.259,3.259,0,0,0,.93-.828l.883.688A3.55,3.55,0,0,1,104.5,17.156Zm-.18-7.578a1.928,1.928,0,0,0-1.469.637A3.1,3.1,0,0,0,102.117,12h4.234v-.109a2.753,2.753,0,0,0-.594-1.707A1.815,1.815,0,0,0,104.32,9.578Zm4.8,3.125a4.952,4.952,0,0,1,.922-3.129,3.137,3.137,0,0,1,4.766-.168V5h1.445V17h-1.328l-.07-.906a2.943,2.943,0,0,1-2.414,1.063,2.887,2.887,0,0,1-2.395-1.2,5.008,5.008,0,0,1-.926-3.141Zm1.445.164a3.749,3.749,0,0,0,.594,2.25,1.92,1.92,0,0,0,1.641.813A2.108,2.108,0,0,0,114.8,14.7V10.813a2.125,2.125,0,0,0-1.992-1.2,1.929,1.929,0,0,0-1.656.82A4.128,4.128,0,0,0,110.563,12.867Zm13.148,3.3a3.07,3.07,0,0,1-2.477.992,2.628,2.628,0,0,1-2.059-.785,3.4,3.4,0,0,1-.715-2.324v-5.5h1.445v5.461q0,1.922,1.563,1.922a2.163,2.163,0,0,0,2.2-1.234V8.547h1.445V17h-1.375Zm6.992-.187a2.082,2.082,0,0,0,1.352-.469,1.649,1.649,0,0,0,.641-1.172h1.367a2.621,2.621,0,0,1-.5,1.383,3.293,3.293,0,0,1-1.23,1.047,3.55,3.55,0,0,1-1.629.391A3.482,3.482,0,0,1,127.957,16a4.59,4.59,0,0,1-1.02-3.152v-.242a5.089,5.089,0,0,1,.453-2.2,3.451,3.451,0,0,1,1.3-1.492,3.7,3.7,0,0,1,2-.531,3.39,3.39,0,0,1,2.363.852,3.043,3.043,0,0,1,1,2.211H132.7a1.992,1.992,0,0,0-.621-1.348,1.932,1.932,0,0,0-1.379-.527,2.023,2.023,0,0,0-1.707.793,3.724,3.724,0,0,0-.605,2.293v.273a3.65,3.65,0,0,0,.6,2.25A2.033,2.033,0,0,0,130.7,15.977ZM137.258,17h-1.445V8.547h1.445ZM135.7,6.3a.863.863,0,0,1,.215-.594.807.807,0,0,1,.637-.242.819.819,0,0,1,.641.242.854.854,0,0,1,.219.594.826.826,0,0,1-.219.586.834.834,0,0,1-.641.234.821.821,0,0,1-.637-.234A.834.834,0,0,1,135.7,6.3Zm3.523,6.4a4.952,4.952,0,0,1,.922-3.129,3.137,3.137,0,0,1,4.766-.168V5h1.445V17h-1.328l-.07-.906a2.943,2.943,0,0,1-2.414,1.063,2.887,2.887,0,0,1-2.395-1.2,5.008,5.008,0,0,1-.926-3.141Zm1.445.164a3.749,3.749,0,0,0,.594,2.25,1.919,1.919,0,0,0,1.641.813,2.108,2.108,0,0,0,2.008-1.234V10.813a2.125,2.125,0,0,0-1.992-1.2,1.929,1.929,0,0,0-1.656.82A4.128,4.128,0,0,0,140.664,12.867Zm7.547-.172a4.993,4.993,0,0,1,.488-2.234,3.642,3.642,0,0,1,1.359-1.531,3.7,3.7,0,0,1,1.988-.539,3.565,3.565,0,0,1,2.793,1.2,4.6,4.6,0,0,1,1.066,3.18v.1a5.036,5.036,0,0,1-.473,2.215,3.589,3.589,0,0,1-1.352,1.527,3.743,3.743,0,0,1-2.02.547,3.556,3.556,0,0,1-2.785-1.2,4.575,4.575,0,0,1-1.066-3.164Zm1.453.172a3.616,3.616,0,0,0,.652,2.258,2.211,2.211,0,0,0,3.5-.012,3.954,3.954,0,0,0,.648-2.418,3.61,3.61,0,0,0-.66-2.254,2.1,2.1,0,0,0-1.754-.863,2.075,2.075,0,0,0-1.727.852A3.925,3.925,0,0,0,149.664,12.867Zm12.977,1.891a1.064,1.064,0,0,0-.441-.91,4.249,4.249,0,0,0-1.539-.559,7.277,7.277,0,0,1-1.742-.562,2.479,2.479,0,0,1-.953-.781,1.869,1.869,0,0,1-.309-1.078,2.193,2.193,0,0,1,.879-1.758,3.432,3.432,0,0,1,2.246-.719,3.532,3.532,0,0,1,2.332.742,2.357,2.357,0,0,1,.895,1.9h-1.453a1.3,1.3,0,0,0-.5-1.023,1.888,1.888,0,0,0-1.27-.43,1.976,1.976,0,0,0-1.234.344,1.082,1.082,0,0,0-.445.9.877.877,0,0,0,.414.789,5.1,5.1,0,0,0,1.5.508,7.8,7.8,0,0,1,1.754.578,2.558,2.558,0,0,1,1,.809,1.988,1.988,0,0,1,.324,1.152,2.163,2.163,0,0,1-.906,1.816,3.8,3.8,0,0,1-2.352.684,4.257,4.257,0,0,1-1.8-.359,2.922,2.922,0,0,1-1.223-1,2.42,2.42,0,0,1-.441-1.395h1.445a1.5,1.5,0,0,0,.582,1.152,2.258,2.258,0,0,0,1.434.426,2.331,2.331,0,0,0,1.316-.332A1.02,1.02,0,0,0,162.641,14.758Zm7.234-2.375a12.079,12.079,0,0,1,.473-3.391,9.85,9.85,0,0,1,1.41-2.953A6,6,0,0,1,173.7,4.164l.3.953a6.222,6.222,0,0,0-1.871,2.672,11.583,11.583,0,0,0-.8,4.023l-.008.664a11.643,11.643,0,0,0,1.1,5.234A6.252,6.252,0,0,0,174,19.789l-.3.883a6.192,6.192,0,0,1-1.984-1.937A10.859,10.859,0,0,1,169.875,12.383Zm13.609-5.531h-3.656V17h-1.492V6.852h-3.648V5.625h8.8Zm5.859,5.547h-2.672V17h-1.508V5.625h3.766a4.457,4.457,0,0,1,2.957.875,3.148,3.148,0,0,1,1.035,2.547,3.062,3.062,0,0,1-.574,1.852,3.428,3.428,0,0,1-1.6,1.18l2.672,4.828V17h-1.609Zm-2.672-1.227h2.3a2.6,2.6,0,0,0,1.777-.579,1.959,1.959,0,0,0,.66-1.55,2.062,2.062,0,0,0-.629-1.62,2.663,2.663,0,0,0-1.816-.571h-2.3Zm11.7.758a7.053,7.053,0,0,1-2.809-1.363,2.6,2.6,0,0,1-.879-2,2.752,2.752,0,0,1,1.074-2.223,4.269,4.269,0,0,1,2.793-.879,4.66,4.66,0,0,1,2.09.453,3.436,3.436,0,0,1,1.422,1.25,3.2,3.2,0,0,1,.5,1.742h-1.508a2.08,2.08,0,0,0-.656-1.627,2.669,2.669,0,0,0-1.852-.592,2.732,2.732,0,0,0-1.73.489,1.632,1.632,0,0,0-.621,1.358,1.468,1.468,0,0,0,.59,1.178,5.786,5.786,0,0,0,2.008.88,9.316,9.316,0,0,1,2.219.88,3.367,3.367,0,0,1,1.188,1.121,2.861,2.861,0,0,1,.387,1.508,2.658,2.658,0,0,1-1.078,2.215,4.6,4.6,0,0,1-2.883.832,5.347,5.347,0,0,1-2.187-.449,3.681,3.681,0,0,1-1.566-1.23,3,3,0,0,1-.551-1.773h1.508a1.959,1.959,0,0,0,.762,1.629,3.207,3.207,0,0,0,2.035.6,2.948,2.948,0,0,0,1.82-.484,1.573,1.573,0,0,0,.633-1.32,1.545,1.545,0,0,0-.586-1.293A6.755,6.755,0,0,0,198.375,11.93Zm9.25.531a12.084,12.084,0,0,1-.457,3.34,9.876,9.876,0,0,1-1.4,2.949,6.127,6.127,0,0,1-1.973,1.922l-.3-.883a6.281,6.281,0,0,0,1.934-2.863,12.387,12.387,0,0,0,.746-4.309v-.25a12.861,12.861,0,0,0-.344-3.051,10.3,10.3,0,0,0-.957-2.527,5.838,5.838,0,0,0-1.379-1.742l.3-.883a6.1,6.1,0,0,1,1.965,1.906,9.9,9.9,0,0,1,1.4,2.945A12.364,12.364,0,0,1,207.625,12.461Z" transform="translate(438.832 11881)" fill="#12263f"/>
    <path id="Trazado_725464" data-name="Trazado 725464" d="M7.6,14.023H2.836L1.766,17H.219L4.563,5.625H5.875L10.227,17H8.688ZM3.289,12.8H7.156L5.219,7.477Zm9.6-4.25.039.938a3.122,3.122,0,0,1,2.508-1.094A2.417,2.417,0,0,1,17.852,9.75a3.2,3.2,0,0,1,1.1-.984,3.242,3.242,0,0,1,1.6-.375q2.781,0,2.828,2.945V17H21.93V11.422a1.941,1.941,0,0,0-.414-1.355,1.823,1.823,0,0,0-1.391-.449,1.916,1.916,0,0,0-1.336.48,1.949,1.949,0,0,0-.617,1.293V17H16.719V11.461a1.613,1.613,0,0,0-1.8-1.844,1.934,1.934,0,0,0-1.945,1.211V17H11.523V8.547ZM25.172,12.7a4.993,4.993,0,0,1,.488-2.234A3.643,3.643,0,0,1,27.02,8.93a3.7,3.7,0,0,1,1.988-.539,3.565,3.565,0,0,1,2.793,1.2,4.6,4.6,0,0,1,1.066,3.18v.1a5.036,5.036,0,0,1-.473,2.215,3.589,3.589,0,0,1-1.352,1.527,3.743,3.743,0,0,1-2.02.547,3.556,3.556,0,0,1-2.785-1.2A4.575,4.575,0,0,1,25.172,12.8Zm1.453.172a3.616,3.616,0,0,0,.652,2.258,2.211,2.211,0,0,0,3.5-.012,3.955,3.955,0,0,0,.648-2.418,3.61,3.61,0,0,0-.66-2.254,2.1,2.1,0,0,0-1.754-.863,2.075,2.075,0,0,0-1.727.852A3.925,3.925,0,0,0,26.625,12.867Zm9.422-4.32.047,1.063a3.08,3.08,0,0,1,2.531-1.219q2.68,0,2.7,3.023V17H39.883V11.406a1.946,1.946,0,0,0-.418-1.352,1.675,1.675,0,0,0-1.277-.437,2.086,2.086,0,0,0-1.234.375,2.546,2.546,0,0,0-.828.984V17H34.68V8.547ZM45.078,17H43.633V8.547h1.445ZM43.516,6.3a.863.863,0,0,1,.215-.594.807.807,0,0,1,.637-.242.819.819,0,0,1,.641.242.854.854,0,0,1,.219.594.826.826,0,0,1-.219.586.834.834,0,0,1-.641.234.821.821,0,0,1-.637-.234A.834.834,0,0,1,43.516,6.3ZM52.609,17a3.036,3.036,0,0,1-.2-.891A3.225,3.225,0,0,1,50,17.156a2.984,2.984,0,0,1-2.051-.707,2.287,2.287,0,0,1-.8-1.793,2.39,2.39,0,0,1,1-2.051,4.733,4.733,0,0,1,2.824-.73h1.406v-.664A1.623,1.623,0,0,0,51.93,10a1.821,1.821,0,0,0-1.336-.449,2.107,2.107,0,0,0-1.3.391,1.151,1.151,0,0,0-.523.945H47.32a2,2,0,0,1,.449-1.223,3.066,3.066,0,0,1,1.219-.934,4.1,4.1,0,0,1,1.691-.344,3.342,3.342,0,0,1,2.289.73,2.635,2.635,0,0,1,.859,2.012v3.891a4.757,4.757,0,0,0,.3,1.852V17Zm-2.4-1.1a2.54,2.54,0,0,0,1.289-.352,2.127,2.127,0,0,0,.883-.914V12.9H51.25q-2.656,0-2.656,1.555a1.316,1.316,0,0,0,.453,1.063A1.742,1.742,0,0,0,50.211,15.9Zm9.273.078a2.082,2.082,0,0,0,1.352-.469,1.649,1.649,0,0,0,.641-1.172h1.367a2.621,2.621,0,0,1-.5,1.383,3.293,3.293,0,0,1-1.23,1.047,3.55,3.55,0,0,1-1.629.391A3.482,3.482,0,0,1,56.738,16a4.59,4.59,0,0,1-1.02-3.152v-.242a5.089,5.089,0,0,1,.453-2.2,3.451,3.451,0,0,1,1.3-1.492,3.7,3.7,0,0,1,2-.531,3.39,3.39,0,0,1,2.363.852,3.043,3.043,0,0,1,1,2.211H61.477a1.992,1.992,0,0,0-.621-1.348,1.932,1.932,0,0,0-1.379-.527,2.023,2.023,0,0,0-1.707.793,3.724,3.724,0,0,0-.605,2.293v.273a3.65,3.65,0,0,0,.6,2.25A2.033,2.033,0,0,0,59.484,15.977Zm4.6-3.281a4.993,4.993,0,0,1,.488-2.234A3.643,3.643,0,0,1,65.934,8.93a3.7,3.7,0,0,1,1.988-.539,3.565,3.565,0,0,1,2.793,1.2,4.6,4.6,0,0,1,1.066,3.18v.1a5.036,5.036,0,0,1-.473,2.215,3.589,3.589,0,0,1-1.352,1.527,3.743,3.743,0,0,1-2.02.547,3.556,3.556,0,0,1-2.785-1.2A4.575,4.575,0,0,1,64.086,12.8Zm1.453.172a3.616,3.616,0,0,0,.652,2.258,2.211,2.211,0,0,0,3.5-.012,3.955,3.955,0,0,0,.648-2.418,3.61,3.61,0,0,0-.66-2.254,2.1,2.1,0,0,0-1.754-.863,2.075,2.075,0,0,0-1.727.852A3.925,3.925,0,0,0,65.539,12.867ZM77.5,12.383a12.079,12.079,0,0,1,.473-3.391,9.849,9.849,0,0,1,1.41-2.953,6,6,0,0,1,1.945-1.875l.3.953a6.222,6.222,0,0,0-1.871,2.672,11.583,11.583,0,0,0-.8,4.023l-.008.664a11.643,11.643,0,0,0,1.1,5.234,6.252,6.252,0,0,0,1.578,2.078l-.3.883a6.192,6.192,0,0,1-1.984-1.937A10.859,10.859,0,0,1,77.5,12.383ZM91.992,17H90.484L84.758,8.234V17H83.25V5.625h1.508l5.742,8.8v-8.8h1.492ZM103.4,17h-1.508V11.742H96.156V17h-1.5V5.625h1.5v4.891h5.734V5.625H103.4Zm3.121,1.272h.633a1.392,1.392,0,0,0,.939-.314,1.051,1.051,0,0,0,.342-.825,1.029,1.029,0,0,0-1.162-1.167,1.209,1.209,0,0,0-.873.312,1.093,1.093,0,0,0-.326.827h-.843a1.693,1.693,0,0,1,.576-1.31,2.1,2.1,0,0,1,1.465-.522,2.075,2.075,0,0,1,1.472.5,1.794,1.794,0,0,1,.533,1.381,1.456,1.456,0,0,1-.28.838,1.692,1.692,0,0,1-.763.606,1.631,1.631,0,0,1,.845.574,1.6,1.6,0,0,1,.3.98,1.81,1.81,0,0,1-.583,1.417,2.184,2.184,0,0,1-1.517.524,2.242,2.242,0,0,1-1.52-.506,1.678,1.678,0,0,1-.586-1.335h.848a1.084,1.084,0,0,0,.342.838,1.3,1.3,0,0,0,.916.314,1.276,1.276,0,0,0,.934-.319,1.229,1.229,0,0,0,.324-.916,1.116,1.116,0,0,0-.355-.889,1.549,1.549,0,0,0-1.025-.319h-.633Zm7.893-5.811a12.084,12.084,0,0,1-.457,3.34,9.876,9.876,0,0,1-1.4,2.949,6.127,6.127,0,0,1-1.973,1.922l-.3-.883a6.281,6.281,0,0,0,1.934-2.863,12.387,12.387,0,0,0,.746-4.309v-.25a12.861,12.861,0,0,0-.344-3.051,10.3,10.3,0,0,0-.957-2.527,5.838,5.838,0,0,0-1.379-1.742l.3-.883a6.1,6.1,0,0,1,1.965,1.906,9.9,9.9,0,0,1,1.4,2.945A12.363,12.363,0,0,1,114.412,12.461Z" transform="translate(436.832 11934)" fill="#12263f"/>
    <path id="Trazado_725016" data-name="Trazado 725016" d="M23463-1272h765.463" transform="translate(-23046.164 13133.214)" fill="none" stroke="#707070" stroke-width="1"/>
    <path id="Trazado_725017" data-name="Trazado 725017" d="M23463-1272h765.463" transform="translate(-23045.828 13189.143)" fill="none" stroke="#707070" stroke-width="1"/>
    <path id="Trazado_725465" data-name="Trazado 725465" d="M3.8-10.562-.914,0H-2.43l4.7-10.187H-3.891v-1.187H3.8ZM-5.937,23.609h1.086a2.387,2.387,0,0,0,1.609-.539,1.8,1.8,0,0,0,.586-1.414,1.764,1.764,0,0,0-1.992-2,2.072,2.072,0,0,0-1.5.535A1.873,1.873,0,0,0-6.7,21.609H-8.148a2.9,2.9,0,0,1,.988-2.246,3.6,3.6,0,0,1,2.512-.895,3.558,3.558,0,0,1,2.523.852,3.076,3.076,0,0,1,.914,2.367,2.5,2.5,0,0,1-.48,1.438A2.9,2.9,0,0,1-3,24.164a2.8,2.8,0,0,1,1.449.984,2.734,2.734,0,0,1,.512,1.68,3.1,3.1,0,0,1-1,2.43,3.745,3.745,0,0,1-2.6.9,3.844,3.844,0,0,1-2.605-.867A2.877,2.877,0,0,1-8.25,27H-6.8a1.859,1.859,0,0,0,.586,1.438,2.229,2.229,0,0,0,1.57.539,2.187,2.187,0,0,0,1.6-.547,2.108,2.108,0,0,0,.555-1.57,1.912,1.912,0,0,0-.609-1.523,2.655,2.655,0,0,0-1.758-.547H-5.937ZM8.078,25.148a6.61,6.61,0,0,1-.867,3.773A3.084,3.084,0,0,1,4.5,30.156a3.107,3.107,0,0,1-2.7-1.207A6.274,6.274,0,0,1,.9,25.344v-1.93a6.463,6.463,0,0,1,.867-3.727,3.108,3.108,0,0,1,2.719-1.219,3.136,3.136,0,0,1,2.7,1.176,6.237,6.237,0,0,1,.891,3.629ZM6.633,23.172A5.3,5.3,0,0,0,6.117,20.5a1.775,1.775,0,0,0-1.633-.84,1.751,1.751,0,0,0-1.617.836,5.171,5.171,0,0,0-.523,2.57v2.313A5.381,5.381,0,0,0,2.879,28.1a1.771,1.771,0,0,0,1.621.879,1.747,1.747,0,0,0,1.59-.828,5.186,5.186,0,0,0,.543-2.609Z" transform="translate(759.832 11825)" fill="#12263f"/>
    <path id="Trazado_725466" data-name="Trazado 725466" d="M-22.562,0h-7.453V-1.039l3.938-4.375a9.354,9.354,0,0,0,1.207-1.613,2.693,2.693,0,0,0,.332-1.285,2.041,2.041,0,0,0-.539-1.461,1.885,1.885,0,0,0-1.437-.57,2.232,2.232,0,0,0-1.676.613,2.343,2.343,0,0,0-.6,1.707h-1.445a3.355,3.355,0,0,1,1.012-2.539,3.751,3.751,0,0,1,2.707-.969,3.6,3.6,0,0,1,2.508.832,2.838,2.838,0,0,1,.922,2.215q0,1.68-2.141,4l-3.047,3.3h5.711Zm7.633-3.82h1.578v1.18H-14.93V0h-1.453V-2.641h-5.18v-.852l5.094-7.883h1.539Zm-4.992,0h3.539V-9.4l-.172.313ZM-6.492-7.43a3.073,3.073,0,0,1,2.5-1.18q2.68,0,2.7,3.023V0H-2.734V-5.594a1.946,1.946,0,0,0-.418-1.352A1.675,1.675,0,0,0-4.43-7.383a2.086,2.086,0,0,0-1.234.375,2.546,2.546,0,0,0-.828.984V0H-7.937V-12h1.445ZM.492-4.3A4.993,4.993,0,0,1,.98-6.539,3.643,3.643,0,0,1,2.34-8.07a3.7,3.7,0,0,1,1.988-.539,3.565,3.565,0,0,1,2.793,1.2,4.6,4.6,0,0,1,1.066,3.18v.1a5.036,5.036,0,0,1-.473,2.215A3.589,3.589,0,0,1,6.363-.391a3.743,3.743,0,0,1-2.02.547,3.556,3.556,0,0,1-2.785-1.2A4.575,4.575,0,0,1,.492-4.2Zm1.453.172A3.616,3.616,0,0,0,2.6-1.875a2.088,2.088,0,0,0,1.746.852,2.075,2.075,0,0,0,1.75-.863A3.955,3.955,0,0,0,6.742-4.3a3.61,3.61,0,0,0-.66-2.254,2.1,2.1,0,0,0-1.754-.863A2.075,2.075,0,0,0,2.6-6.57,3.925,3.925,0,0,0,1.945-4.133ZM14.086-7.156a4.331,4.331,0,0,0-.711-.055A1.9,1.9,0,0,0,11.445-6V0H10V-8.453h1.406l.023.977a2.251,2.251,0,0,1,2.016-1.133,1.477,1.477,0,0,1,.641.109ZM20.32,0a3.036,3.036,0,0,1-.2-.891A3.225,3.225,0,0,1,17.711.156,2.984,2.984,0,0,1,15.66-.551a2.287,2.287,0,0,1-.8-1.793,2.39,2.39,0,0,1,1-2.051,4.733,4.733,0,0,1,2.824-.73h1.406v-.664A1.623,1.623,0,0,0,19.641-7,1.821,1.821,0,0,0,18.3-7.445a2.108,2.108,0,0,0-1.3.391,1.151,1.151,0,0,0-.523.945H15.031a2,2,0,0,1,.449-1.223A3.066,3.066,0,0,1,16.7-8.266a4.1,4.1,0,0,1,1.691-.344,3.342,3.342,0,0,1,2.289.73,2.635,2.635,0,0,1,.859,2.012v3.891a4.757,4.757,0,0,0,.3,1.852V0Zm-2.4-1.1a2.54,2.54,0,0,0,1.289-.352,2.127,2.127,0,0,0,.883-.914V-4.1H18.961Q16.3-4.1,16.3-2.547a1.316,1.316,0,0,0,.453,1.063A1.742,1.742,0,0,0,17.922-1.1Zm10.8-1.141a1.064,1.064,0,0,0-.441-.91,4.249,4.249,0,0,0-1.539-.559A7.277,7.277,0,0,1,25-4.273a2.479,2.479,0,0,1-.953-.781,1.869,1.869,0,0,1-.309-1.078,2.193,2.193,0,0,1,.879-1.758,3.432,3.432,0,0,1,2.246-.719,3.532,3.532,0,0,1,2.332.742,2.357,2.357,0,0,1,.895,1.9H28.641a1.3,1.3,0,0,0-.5-1.023,1.888,1.888,0,0,0-1.27-.43,1.976,1.976,0,0,0-1.234.344,1.082,1.082,0,0,0-.445.9.877.877,0,0,0,.414.789,5.1,5.1,0,0,0,1.5.508,7.8,7.8,0,0,1,1.754.578,2.558,2.558,0,0,1,1,.809,1.988,1.988,0,0,1,.324,1.152,2.163,2.163,0,0,1-.906,1.816,3.8,3.8,0,0,1-2.352.684,4.257,4.257,0,0,1-1.8-.359,2.922,2.922,0,0,1-1.223-1A2.42,2.42,0,0,1,23.453-2.6H24.9a1.5,1.5,0,0,0,.582,1.152,2.258,2.258,0,0,0,1.434.426,2.331,2.331,0,0,0,1.316-.332A1.02,1.02,0,0,0,28.727-2.242ZM-16.648,30H-18.1V20.367l-2.914,1.07V20.125l4.141-1.555h.227Zm9.789-7.43a3.073,3.073,0,0,1,2.5-1.18q2.68,0,2.7,3.023V30H-3.1V24.406a1.946,1.946,0,0,0-.418-1.352A1.675,1.675,0,0,0-4.8,22.617a2.086,2.086,0,0,0-1.234.375,2.546,2.546,0,0,0-.828.984V30H-8.3V18h1.445ZM.125,25.7a4.993,4.993,0,0,1,.488-2.234A3.643,3.643,0,0,1,1.973,21.93a3.7,3.7,0,0,1,1.988-.539,3.565,3.565,0,0,1,2.793,1.2,4.6,4.6,0,0,1,1.066,3.18v.1a5.036,5.036,0,0,1-.473,2.215A3.589,3.589,0,0,1,6,29.609a3.743,3.743,0,0,1-2.02.547,3.556,3.556,0,0,1-2.785-1.2A4.575,4.575,0,0,1,.125,25.8Zm1.453.172a3.616,3.616,0,0,0,.652,2.258,2.088,2.088,0,0,0,1.746.852,2.075,2.075,0,0,0,1.75-.863A3.955,3.955,0,0,0,6.375,25.7a3.61,3.61,0,0,0-.66-2.254,2.1,2.1,0,0,0-1.754-.863,2.075,2.075,0,0,0-1.727.852A3.925,3.925,0,0,0,1.578,25.867Zm12.141-3.023a4.331,4.331,0,0,0-.711-.055A1.9,1.9,0,0,0,11.078,24v6H9.633V21.547h1.406l.023.977a2.251,2.251,0,0,1,2.016-1.133,1.477,1.477,0,0,1,.641.109ZM19.953,30a3.036,3.036,0,0,1-.2-.891,3.225,3.225,0,0,1-2.406,1.047,2.984,2.984,0,0,1-2.051-.707,2.287,2.287,0,0,1-.8-1.793,2.39,2.39,0,0,1,1-2.051,4.733,4.733,0,0,1,2.824-.73h1.406v-.664A1.623,1.623,0,0,0,19.273,23a1.821,1.821,0,0,0-1.336-.449,2.108,2.108,0,0,0-1.3.391,1.151,1.151,0,0,0-.523.945H14.664a2,2,0,0,1,.449-1.223,3.066,3.066,0,0,1,1.219-.934,4.1,4.1,0,0,1,1.691-.344,3.342,3.342,0,0,1,2.289.73,2.635,2.635,0,0,1,.859,2.012v3.891a4.757,4.757,0,0,0,.3,1.852V30Zm-2.4-1.1a2.54,2.54,0,0,0,1.289-.352,2.127,2.127,0,0,0,.883-.914V25.9H18.594q-2.656,0-2.656,1.555a1.316,1.316,0,0,0,.453,1.063A1.742,1.742,0,0,0,17.555,28.9Z" transform="translate(1021.832 11825)" fill="#12263f"/>
    <path id="Trazado_725467" data-name="Trazado 725467" d="M3.8-10.562-.914,0H-2.43l4.7-10.187H-3.891v-1.187H3.8ZM-1.937,26.18H-.359v1.18H-1.937V30H-3.391V27.359H-8.57v-.852l5.094-7.883h1.539Zm-4.992,0h3.539V20.6l-.172.313ZM8.078,25.148a6.61,6.61,0,0,1-.867,3.773A3.084,3.084,0,0,1,4.5,30.156a3.107,3.107,0,0,1-2.7-1.207A6.274,6.274,0,0,1,.9,25.344v-1.93a6.463,6.463,0,0,1,.867-3.727,3.108,3.108,0,0,1,2.719-1.219,3.136,3.136,0,0,1,2.7,1.176,6.237,6.237,0,0,1,.891,3.629ZM6.633,23.172A5.3,5.3,0,0,0,6.117,20.5a1.775,1.775,0,0,0-1.633-.84,1.751,1.751,0,0,0-1.617.836,5.171,5.171,0,0,0-.523,2.57v2.313A5.381,5.381,0,0,0,2.879,28.1a1.771,1.771,0,0,0,1.621.879,1.747,1.747,0,0,0,1.59-.828,5.186,5.186,0,0,0,.543-2.609Z" transform="translate(759.832 11880)" fill="#12263f"/>
    <path id="Trazado_725468" data-name="Trazado 725468" d="M-22.562,0h-7.453V-1.039l3.938-4.375a9.354,9.354,0,0,0,1.207-1.613,2.693,2.693,0,0,0,.332-1.285,2.041,2.041,0,0,0-.539-1.461,1.885,1.885,0,0,0-1.437-.57,2.232,2.232,0,0,0-1.676.613,2.343,2.343,0,0,0-.6,1.707h-1.445a3.355,3.355,0,0,1,1.012-2.539,3.751,3.751,0,0,1,2.707-.969,3.6,3.6,0,0,1,2.508.832,2.838,2.838,0,0,1,.922,2.215q0,1.68-2.141,4l-3.047,3.3h5.711Zm7.633-3.82h1.578v1.18H-14.93V0h-1.453V-2.641h-5.18v-.852l5.094-7.883h1.539Zm-4.992,0h3.539V-9.4l-.172.313ZM-6.492-7.43a3.073,3.073,0,0,1,2.5-1.18q2.68,0,2.7,3.023V0H-2.734V-5.594a1.946,1.946,0,0,0-.418-1.352A1.675,1.675,0,0,0-4.43-7.383a2.086,2.086,0,0,0-1.234.375,2.546,2.546,0,0,0-.828.984V0H-7.937V-12h1.445ZM.492-4.3A4.993,4.993,0,0,1,.98-6.539,3.643,3.643,0,0,1,2.34-8.07a3.7,3.7,0,0,1,1.988-.539,3.565,3.565,0,0,1,2.793,1.2,4.6,4.6,0,0,1,1.066,3.18v.1a5.036,5.036,0,0,1-.473,2.215A3.589,3.589,0,0,1,6.363-.391a3.743,3.743,0,0,1-2.02.547,3.556,3.556,0,0,1-2.785-1.2A4.575,4.575,0,0,1,.492-4.2Zm1.453.172A3.616,3.616,0,0,0,2.6-1.875a2.088,2.088,0,0,0,1.746.852,2.075,2.075,0,0,0,1.75-.863A3.955,3.955,0,0,0,6.742-4.3a3.61,3.61,0,0,0-.66-2.254,2.1,2.1,0,0,0-1.754-.863A2.075,2.075,0,0,0,2.6-6.57,3.925,3.925,0,0,0,1.945-4.133ZM14.086-7.156a4.331,4.331,0,0,0-.711-.055A1.9,1.9,0,0,0,11.445-6V0H10V-8.453h1.406l.023.977a2.251,2.251,0,0,1,2.016-1.133,1.477,1.477,0,0,1,.641.109ZM20.32,0a3.036,3.036,0,0,1-.2-.891A3.225,3.225,0,0,1,17.711.156,2.984,2.984,0,0,1,15.66-.551a2.287,2.287,0,0,1-.8-1.793,2.39,2.39,0,0,1,1-2.051,4.733,4.733,0,0,1,2.824-.73h1.406v-.664A1.623,1.623,0,0,0,19.641-7,1.821,1.821,0,0,0,18.3-7.445a2.108,2.108,0,0,0-1.3.391,1.151,1.151,0,0,0-.523.945H15.031a2,2,0,0,1,.449-1.223A3.066,3.066,0,0,1,16.7-8.266a4.1,4.1,0,0,1,1.691-.344,3.342,3.342,0,0,1,2.289.73,2.635,2.635,0,0,1,.859,2.012v3.891a4.757,4.757,0,0,0,.3,1.852V0Zm-2.4-1.1a2.54,2.54,0,0,0,1.289-.352,2.127,2.127,0,0,0,.883-.914V-4.1H18.961Q16.3-4.1,16.3-2.547a1.316,1.316,0,0,0,.453,1.063A1.742,1.742,0,0,0,17.922-1.1Zm10.8-1.141a1.064,1.064,0,0,0-.441-.91,4.249,4.249,0,0,0-1.539-.559A7.277,7.277,0,0,1,25-4.273a2.479,2.479,0,0,1-.953-.781,1.869,1.869,0,0,1-.309-1.078,2.193,2.193,0,0,1,.879-1.758,3.432,3.432,0,0,1,2.246-.719,3.532,3.532,0,0,1,2.332.742,2.357,2.357,0,0,1,.895,1.9H28.641a1.3,1.3,0,0,0-.5-1.023,1.888,1.888,0,0,0-1.27-.43,1.976,1.976,0,0,0-1.234.344,1.082,1.082,0,0,0-.445.9.877.877,0,0,0,.414.789,5.1,5.1,0,0,0,1.5.508,7.8,7.8,0,0,1,1.754.578,2.558,2.558,0,0,1,1,.809,1.988,1.988,0,0,1,.324,1.152,2.163,2.163,0,0,1-.906,1.816,3.8,3.8,0,0,1-2.352.684,4.257,4.257,0,0,1-1.8-.359,2.922,2.922,0,0,1-1.223-1A2.42,2.42,0,0,1,23.453-2.6H24.9a1.5,1.5,0,0,0,.582,1.152,2.258,2.258,0,0,0,1.434.426,2.331,2.331,0,0,0,1.316-.332A1.02,1.02,0,0,0,28.727-2.242ZM-16.648,30H-18.1V20.367l-2.914,1.07V20.125l4.141-1.555h.227Zm9.789-7.43a3.073,3.073,0,0,1,2.5-1.18q2.68,0,2.7,3.023V30H-3.1V24.406a1.946,1.946,0,0,0-.418-1.352A1.675,1.675,0,0,0-4.8,22.617a2.086,2.086,0,0,0-1.234.375,2.546,2.546,0,0,0-.828.984V30H-8.3V18h1.445ZM.125,25.7a4.993,4.993,0,0,1,.488-2.234A3.643,3.643,0,0,1,1.973,21.93a3.7,3.7,0,0,1,1.988-.539,3.565,3.565,0,0,1,2.793,1.2,4.6,4.6,0,0,1,1.066,3.18v.1a5.036,5.036,0,0,1-.473,2.215A3.589,3.589,0,0,1,6,29.609a3.743,3.743,0,0,1-2.02.547,3.556,3.556,0,0,1-2.785-1.2A4.575,4.575,0,0,1,.125,25.8Zm1.453.172a3.616,3.616,0,0,0,.652,2.258,2.088,2.088,0,0,0,1.746.852,2.075,2.075,0,0,0,1.75-.863A3.955,3.955,0,0,0,6.375,25.7a3.61,3.61,0,0,0-.66-2.254,2.1,2.1,0,0,0-1.754-.863,2.075,2.075,0,0,0-1.727.852A3.925,3.925,0,0,0,1.578,25.867Zm12.141-3.023a4.331,4.331,0,0,0-.711-.055A1.9,1.9,0,0,0,11.078,24v6H9.633V21.547h1.406l.023.977a2.251,2.251,0,0,1,2.016-1.133,1.477,1.477,0,0,1,.641.109ZM19.953,30a3.036,3.036,0,0,1-.2-.891,3.225,3.225,0,0,1-2.406,1.047,2.984,2.984,0,0,1-2.051-.707,2.287,2.287,0,0,1-.8-1.793,2.39,2.39,0,0,1,1-2.051,4.733,4.733,0,0,1,2.824-.73h1.406v-.664A1.623,1.623,0,0,0,19.273,23a1.821,1.821,0,0,0-1.336-.449,2.108,2.108,0,0,0-1.3.391,1.151,1.151,0,0,0-.523.945H14.664a2,2,0,0,1,.449-1.223,3.066,3.066,0,0,1,1.219-.934,4.1,4.1,0,0,1,1.691-.344,3.342,3.342,0,0,1,2.289.73,2.635,2.635,0,0,1,.859,2.012v3.891a4.757,4.757,0,0,0,.3,1.852V30Zm-2.4-1.1a2.54,2.54,0,0,0,1.289-.352,2.127,2.127,0,0,0,.883-.914V25.9H18.594q-2.656,0-2.656,1.555a1.316,1.316,0,0,0,.453,1.063A1.742,1.742,0,0,0,17.555,28.9Z" transform="translate(1021.832 11880)" fill="#12263f"/>
    <path id="Trazado_725469" data-name="Trazado 725469" d="M-2.5-5a3.536,3.536,0,0,1-1.082.867A2.936,2.936,0,0,1-4.961-3.8a3.031,3.031,0,0,1-1.715-.484A3.149,3.149,0,0,1-7.8-5.652a4.648,4.648,0,0,1-.4-1.941A4.735,4.735,0,0,1-7.77-9.648a3.185,3.185,0,0,1,1.23-1.4,3.509,3.509,0,0,1,1.859-.484A3.177,3.177,0,0,1-2.02-10.27a5.5,5.5,0,0,1,.973,3.441v.422q0,3.32-1.312,4.848A5.043,5.043,0,0,1-6.32.008H-6.6V-1.219h.3a3.979,3.979,0,0,0,2.75-.932A4,4,0,0,0-2.5-5ZM-4.727-5a2.232,2.232,0,0,0,1.34-.445,2.625,2.625,0,0,0,.895-1.1v-.578a3.977,3.977,0,0,0-.617-2.312,1.842,1.842,0,0,0-1.562-.891A1.856,1.856,0,0,0-6.2-9.6a3.013,3.013,0,0,0-.578,1.926,3.136,3.136,0,0,0,.559,1.918A1.769,1.769,0,0,0-4.727-5ZM5.7,0H4.242V-9.633L1.328-8.562V-9.875L5.469-11.43H5.7ZM-12.273,30h-1.453V20.367l-2.914,1.07V20.125L-12.5,18.57h.227Zm10.336-3.82H-.359v1.18H-1.937V30H-3.391V27.359H-8.57v-.852l5.094-7.883h1.539Zm-4.992,0h3.539V20.6l-.172.313ZM8.078,25.148a6.61,6.61,0,0,1-.867,3.773A3.084,3.084,0,0,1,4.5,30.156a3.107,3.107,0,0,1-2.7-1.207A6.274,6.274,0,0,1,.9,25.344v-1.93a6.463,6.463,0,0,1,.867-3.727,3.108,3.108,0,0,1,2.719-1.219,3.136,3.136,0,0,1,2.7,1.176,6.237,6.237,0,0,1,.891,3.629ZM6.633,23.172A5.3,5.3,0,0,0,6.117,20.5a1.775,1.775,0,0,0-1.633-.84,1.751,1.751,0,0,0-1.617.836,5.171,5.171,0,0,0-.523,2.57v2.313A5.381,5.381,0,0,0,2.879,28.1a1.771,1.771,0,0,0,1.621.879,1.747,1.747,0,0,0,1.59-.828,5.186,5.186,0,0,0,.543-2.609Zm10.43,1.977a6.61,6.61,0,0,1-.867,3.773,3.084,3.084,0,0,1-2.711,1.234,3.107,3.107,0,0,1-2.7-1.207,6.274,6.274,0,0,1-.906-3.605v-1.93a6.463,6.463,0,0,1,.867-3.727,3.108,3.108,0,0,1,2.719-1.219,3.136,3.136,0,0,1,2.7,1.176,6.237,6.237,0,0,1,.891,3.629Zm-1.445-1.977A5.3,5.3,0,0,0,15.1,20.5a1.775,1.775,0,0,0-1.633-.84,1.751,1.751,0,0,0-1.617.836,5.171,5.171,0,0,0-.523,2.57v2.313a5.381,5.381,0,0,0,.535,2.723,1.771,1.771,0,0,0,1.621.879,1.747,1.747,0,0,0,1.59-.828,5.186,5.186,0,0,0,.543-2.609Z" transform="translate(759.832 11939)" fill="#12263f"/>
    <path id="Trazado_725470" data-name="Trazado 725470" d="M-22.562,0h-7.453V-1.039l3.938-4.375a9.354,9.354,0,0,0,1.207-1.613,2.693,2.693,0,0,0,.332-1.285,2.041,2.041,0,0,0-.539-1.461,1.885,1.885,0,0,0-1.437-.57,2.232,2.232,0,0,0-1.676.613,2.343,2.343,0,0,0-.6,1.707h-1.445a3.355,3.355,0,0,1,1.012-2.539,3.751,3.751,0,0,1,2.707-.969,3.6,3.6,0,0,1,2.508.832,2.838,2.838,0,0,1,.922,2.215q0,1.68-2.141,4l-3.047,3.3h5.711Zm7.633-3.82h1.578v1.18H-14.93V0h-1.453V-2.641h-5.18v-.852l5.094-7.883h1.539Zm-4.992,0h3.539V-9.4l-.172.313ZM-6.492-7.43a3.073,3.073,0,0,1,2.5-1.18q2.68,0,2.7,3.023V0H-2.734V-5.594a1.946,1.946,0,0,0-.418-1.352A1.675,1.675,0,0,0-4.43-7.383a2.086,2.086,0,0,0-1.234.375,2.546,2.546,0,0,0-.828.984V0H-7.937V-12h1.445ZM.492-4.3A4.993,4.993,0,0,1,.98-6.539,3.643,3.643,0,0,1,2.34-8.07a3.7,3.7,0,0,1,1.988-.539,3.565,3.565,0,0,1,2.793,1.2,4.6,4.6,0,0,1,1.066,3.18v.1a5.036,5.036,0,0,1-.473,2.215A3.589,3.589,0,0,1,6.363-.391a3.743,3.743,0,0,1-2.02.547,3.556,3.556,0,0,1-2.785-1.2A4.575,4.575,0,0,1,.492-4.2Zm1.453.172A3.616,3.616,0,0,0,2.6-1.875a2.088,2.088,0,0,0,1.746.852,2.075,2.075,0,0,0,1.75-.863A3.955,3.955,0,0,0,6.742-4.3a3.61,3.61,0,0,0-.66-2.254,2.1,2.1,0,0,0-1.754-.863A2.075,2.075,0,0,0,2.6-6.57,3.925,3.925,0,0,0,1.945-4.133ZM14.086-7.156a4.331,4.331,0,0,0-.711-.055A1.9,1.9,0,0,0,11.445-6V0H10V-8.453h1.406l.023.977a2.251,2.251,0,0,1,2.016-1.133,1.477,1.477,0,0,1,.641.109ZM20.32,0a3.036,3.036,0,0,1-.2-.891A3.225,3.225,0,0,1,17.711.156,2.984,2.984,0,0,1,15.66-.551a2.287,2.287,0,0,1-.8-1.793,2.39,2.39,0,0,1,1-2.051,4.733,4.733,0,0,1,2.824-.73h1.406v-.664A1.623,1.623,0,0,0,19.641-7,1.821,1.821,0,0,0,18.3-7.445a2.108,2.108,0,0,0-1.3.391,1.151,1.151,0,0,0-.523.945H15.031a2,2,0,0,1,.449-1.223A3.066,3.066,0,0,1,16.7-8.266a4.1,4.1,0,0,1,1.691-.344,3.342,3.342,0,0,1,2.289.73,2.635,2.635,0,0,1,.859,2.012v3.891a4.757,4.757,0,0,0,.3,1.852V0Zm-2.4-1.1a2.54,2.54,0,0,0,1.289-.352,2.127,2.127,0,0,0,.883-.914V-4.1H18.961Q16.3-4.1,16.3-2.547a1.316,1.316,0,0,0,.453,1.063A1.742,1.742,0,0,0,17.922-1.1Zm10.8-1.141a1.064,1.064,0,0,0-.441-.91,4.249,4.249,0,0,0-1.539-.559A7.277,7.277,0,0,1,25-4.273a2.479,2.479,0,0,1-.953-.781,1.869,1.869,0,0,1-.309-1.078,2.193,2.193,0,0,1,.879-1.758,3.432,3.432,0,0,1,2.246-.719,3.532,3.532,0,0,1,2.332.742,2.357,2.357,0,0,1,.895,1.9H28.641a1.3,1.3,0,0,0-.5-1.023,1.888,1.888,0,0,0-1.27-.43,1.976,1.976,0,0,0-1.234.344,1.082,1.082,0,0,0-.445.9.877.877,0,0,0,.414.789,5.1,5.1,0,0,0,1.5.508,7.8,7.8,0,0,1,1.754.578,2.558,2.558,0,0,1,1,.809,1.988,1.988,0,0,1,.324,1.152,2.163,2.163,0,0,1-.906,1.816,3.8,3.8,0,0,1-2.352.684,4.257,4.257,0,0,1-1.8-.359,2.922,2.922,0,0,1-1.223-1A2.42,2.42,0,0,1,23.453-2.6H24.9a1.5,1.5,0,0,0,.582,1.152,2.258,2.258,0,0,0,1.434.426,2.331,2.331,0,0,0,1.316-.332A1.02,1.02,0,0,0,28.727-2.242ZM-16.648,30H-18.1V20.367l-2.914,1.07V20.125l4.141-1.555h.227Zm9.789-7.43a3.073,3.073,0,0,1,2.5-1.18q2.68,0,2.7,3.023V30H-3.1V24.406a1.946,1.946,0,0,0-.418-1.352A1.675,1.675,0,0,0-4.8,22.617a2.086,2.086,0,0,0-1.234.375,2.546,2.546,0,0,0-.828.984V30H-8.3V18h1.445ZM.125,25.7a4.993,4.993,0,0,1,.488-2.234A3.643,3.643,0,0,1,1.973,21.93a3.7,3.7,0,0,1,1.988-.539,3.565,3.565,0,0,1,2.793,1.2,4.6,4.6,0,0,1,1.066,3.18v.1a5.036,5.036,0,0,1-.473,2.215A3.589,3.589,0,0,1,6,29.609a3.743,3.743,0,0,1-2.02.547,3.556,3.556,0,0,1-2.785-1.2A4.575,4.575,0,0,1,.125,25.8Zm1.453.172a3.616,3.616,0,0,0,.652,2.258,2.088,2.088,0,0,0,1.746.852,2.075,2.075,0,0,0,1.75-.863A3.955,3.955,0,0,0,6.375,25.7a3.61,3.61,0,0,0-.66-2.254,2.1,2.1,0,0,0-1.754-.863,2.075,2.075,0,0,0-1.727.852A3.925,3.925,0,0,0,1.578,25.867Zm12.141-3.023a4.331,4.331,0,0,0-.711-.055A1.9,1.9,0,0,0,11.078,24v6H9.633V21.547h1.406l.023.977a2.251,2.251,0,0,1,2.016-1.133,1.477,1.477,0,0,1,.641.109ZM19.953,30a3.036,3.036,0,0,1-.2-.891,3.225,3.225,0,0,1-2.406,1.047,2.984,2.984,0,0,1-2.051-.707,2.287,2.287,0,0,1-.8-1.793,2.39,2.39,0,0,1,1-2.051,4.733,4.733,0,0,1,2.824-.73h1.406v-.664A1.623,1.623,0,0,0,19.273,23a1.821,1.821,0,0,0-1.336-.449,2.108,2.108,0,0,0-1.3.391,1.151,1.151,0,0,0-.523.945H14.664a2,2,0,0,1,.449-1.223,3.066,3.066,0,0,1,1.219-.934,4.1,4.1,0,0,1,1.691-.344,3.342,3.342,0,0,1,2.289.73,2.635,2.635,0,0,1,.859,2.012v3.891a4.757,4.757,0,0,0,.3,1.852V30Zm-2.4-1.1a2.54,2.54,0,0,0,1.289-.352,2.127,2.127,0,0,0,.883-.914V25.9H18.594q-2.656,0-2.656,1.555a1.316,1.316,0,0,0,.453,1.063A1.742,1.742,0,0,0,17.555,28.9Z" transform="translate(1021.832 11939)" fill="#12263f"/>
    <path id="Trazado_725029" data-name="Trazado 725029" d="M23947,29.5h494.334" transform="translate(-23258.168 11804.232)" fill="none" stroke="#707070" stroke-width="1"/>
    <path id="Trazado_725033" data-name="Trazado 725033" d="M23947,29.5h494.334" transform="translate(-23259 11745.75)" fill="none" stroke="#707070" stroke-width="1"/>
    <path id="Trazado_725030" data-name="Trazado 725030" d="M23947,29.5h494.334" transform="translate(-23258.168 11859.679)" fill="none" stroke="#707070" stroke-width="1"/>
    <path id="Trazado_725031" data-name="Trazado 725031" d="M23947,29.5h494.334" transform="translate(-23258.168 11916)" fill="none" stroke="#707070" stroke-width="1"/>
    <path id="Trazado_725471" data-name="Trazado 725471" d="M-15.7-.859A2.831,2.831,0,0,1-18.017.156a2.67,2.67,0,0,1-2.074-.781,3.335,3.335,0,0,1-.73-2.289V-8.453h2.258v5.467q0,1.322,1.2,1.322a1.63,1.63,0,0,0,1.578-.8V-8.453h2.266V0h-2.125Zm3.563-3.43a4.954,4.954,0,0,1,.926-3.133,3,3,0,0,1,2.5-1.187,2.631,2.631,0,0,1,2.164.953l.094-.8h2.047V-.281a3.613,3.613,0,0,1-.5,1.93A3.236,3.236,0,0,1-6.337,2.9a4.985,4.985,0,0,1-2.141.43,4.635,4.635,0,0,1-1.812-.371A3.217,3.217,0,0,1-11.626,2l1-1.375A2.645,2.645,0,0,0-8.58,1.57a1.936,1.936,0,0,0,1.4-.48,1.8,1.8,0,0,0,.5-1.363V-.727A2.612,2.612,0,0,1-8.736.156,2.992,2.992,0,0,1-11.2-1.035a4.953,4.953,0,0,1-.941-3.16Zm2.258.168a3.085,3.085,0,0,0,.461,1.8,1.466,1.466,0,0,0,1.266.653,1.568,1.568,0,0,0,1.477-.775V-6a1.564,1.564,0,0,0-1.461-.775,1.476,1.476,0,0,0-1.277.665A3.477,3.477,0,0,0-9.884-4.121ZM-1.97.977H-3.65L.538-11.375h1.68Zm7.383-9.43.07.945a2.971,2.971,0,0,1,2.43-1.1A2.255,2.255,0,0,1,10.155-7.32a2.9,2.9,0,0,1,2.539-1.289,2.521,2.521,0,0,1,2.047.8,3.681,3.681,0,0,1,.672,2.41V0H13.147V-5.391a1.61,1.61,0,0,0-.281-1.051,1.246,1.246,0,0,0-.992-.332,1.409,1.409,0,0,0-1.406.969L10.475,0H8.217V-5.383a1.59,1.59,0,0,0-.289-1.062,1.259,1.259,0,0,0-.984-.328,1.463,1.463,0,0,0-1.391.8V0H3.3V-8.453ZM18.071-8.9h.7a.989.989,0,0,0,.743-.251.918.918,0,0,0,.242-.665.812.812,0,0,0-.239-.624.927.927,0,0,0-.658-.223.972.972,0,0,0-.633.207.663.663,0,0,0-.255.54H16.653a1.62,1.62,0,0,1,.28-.932,1.868,1.868,0,0,1,.784-.645,2.616,2.616,0,0,1,1.11-.232,2.481,2.481,0,0,1,1.65.5,1.718,1.718,0,0,1,.6,1.388A1.4,1.4,0,0,1,20.8-9a1.806,1.806,0,0,1-.729.588,1.649,1.649,0,0,1,.836.6,1.632,1.632,0,0,1,.276.948,1.747,1.747,0,0,1-.645,1.417,2.593,2.593,0,0,1-1.707.533A2.458,2.458,0,0,1,17.2-5.433a1.711,1.711,0,0,1-.631-1.385h1.317a.763.763,0,0,0,.28.611,1.033,1.033,0,0,0,.69.237,1.038,1.038,0,0,0,.736-.248.857.857,0,0,0,.267-.658q0-.993-1.094-.993h-.7Z" transform="translate(797 11799)" fill="#12263f"/>
    <path id="Trazado_725472" data-name="Trazado 725472" d="M-69.539-9.477h-3.484V0h-2.344V-9.477H-78.8v-1.9h9.266ZM-65.969,0h-2.266V-8.453h2.266Zm-2.4-10.641a1.112,1.112,0,0,1,.34-.836A1.277,1.277,0,0,1-67.1-11.8a1.28,1.28,0,0,1,.922.328,1.105,1.105,0,0,1,.344.836,1.108,1.108,0,0,1-.348.844,1.283,1.283,0,0,1-.918.328A1.283,1.283,0,0,1-68.02-9.8,1.108,1.108,0,0,1-68.367-10.641Zm8.148,10.8A4.15,4.15,0,0,1-63.246-.984a4.054,4.054,0,0,1-1.168-3.039v-.219a5.106,5.106,0,0,1,.492-2.277,3.612,3.612,0,0,1,1.395-1.547,3.914,3.914,0,0,1,2.059-.543,3.508,3.508,0,0,1,2.73,1.094,4.444,4.444,0,0,1,1,3.1v.922h-5.383a2.1,2.1,0,0,0,.66,1.328,2,2,0,0,0,1.395.5,2.437,2.437,0,0,0,2.039-.945l1.109,1.242A3.389,3.389,0,0,1-58.3-.246,4.511,4.511,0,0,1-60.219.156Zm-.258-6.945a1.411,1.411,0,0,0-1.09.455,2.357,2.357,0,0,0-.535,1.3h3.141v-.181a1.681,1.681,0,0,0-.406-1.165A1.456,1.456,0,0,0-60.477-6.789Zm7.133-1.664.07.945a2.971,2.971,0,0,1,2.43-1.1A2.255,2.255,0,0,1-48.6-7.32a2.9,2.9,0,0,1,2.539-1.289,2.521,2.521,0,0,1,2.047.8,3.681,3.681,0,0,1,.672,2.41V0h-2.266V-5.391a1.61,1.61,0,0,0-.281-1.051,1.246,1.246,0,0,0-.992-.332,1.409,1.409,0,0,0-1.406.969l.008,5.8h-2.258V-5.383a1.59,1.59,0,0,0-.289-1.062,1.259,1.259,0,0,0-.984-.328,1.463,1.463,0,0,0-1.391.8V0h-2.258V-8.453ZM-34-4.148a5.07,5.07,0,0,1-.887,3.129A2.843,2.843,0,0,1-37.281.156a2.633,2.633,0,0,1-2.07-.891V3.25h-2.258v-11.7h2.094l.078.828A2.654,2.654,0,0,1-37.3-8.609a2.862,2.862,0,0,1,2.43,1.156A5.207,5.207,0,0,1-34-4.266Zm-2.258-.164a3.327,3.327,0,0,0-.418-1.82,1.361,1.361,0,0,0-1.215-.641,1.479,1.479,0,0,0-1.461.813V-2.5a1.5,1.5,0,0,0,1.477.836Q-36.258-1.664-36.258-4.312Zm3.3.008a5.013,5.013,0,0,1,.484-2.242A3.546,3.546,0,0,1-31.074-8.07a4.069,4.069,0,0,1,2.113-.539,3.849,3.849,0,0,1,2.793,1.047,4.2,4.2,0,0,1,1.207,2.844l.016.578A4.418,4.418,0,0,1-26.031-1.02,3.775,3.775,0,0,1-28.945.156a3.793,3.793,0,0,1-2.918-1.172A4.5,4.5,0,0,1-32.953-4.2Zm2.258.16A3.16,3.16,0,0,0-30.242-2.3a1.5,1.5,0,0,0,1.3.638,1.5,1.5,0,0,0,1.281-.63A3.457,3.457,0,0,0-27.2-4.309a3.128,3.128,0,0,0-.461-1.831,1.5,1.5,0,0,0-1.3-.649,1.474,1.474,0,0,0-1.281.646A3.516,3.516,0,0,0-30.7-4.144Zm10.773-.145a5.094,5.094,0,0,1,.887-3.148,2.877,2.877,0,0,1,2.426-1.172,2.589,2.589,0,0,1,2.039.922V-12H-12.3V0h-2.039l-.109-.9A2.657,2.657,0,0,1-16.625.156,2.869,2.869,0,0,1-19.02-1.02,5.258,5.258,0,0,1-19.922-4.289Zm2.258.168A3.337,3.337,0,0,0-17.25-2.3a1.349,1.349,0,0,0,1.2.634,1.511,1.511,0,0,0,1.477-.884V-5.889a1.489,1.489,0,0,0-1.461-.884Q-17.664-6.773-17.664-4.121Zm11,4.277A4.15,4.15,0,0,1-9.691-.984a4.054,4.054,0,0,1-1.168-3.039v-.219a5.106,5.106,0,0,1,.492-2.277A3.612,3.612,0,0,1-8.973-8.066a3.914,3.914,0,0,1,2.059-.543,3.508,3.508,0,0,1,2.73,1.094,4.444,4.444,0,0,1,1,3.1v.922H-8.57a2.1,2.1,0,0,0,.66,1.328,2,2,0,0,0,1.395.5,2.437,2.437,0,0,0,2.039-.945l1.109,1.242A3.389,3.389,0,0,1-4.742-.246,4.511,4.511,0,0,1-6.664.156Zm-.258-6.945a1.411,1.411,0,0,0-1.09.455,2.357,2.357,0,0,0-.535,1.3h3.141v-.181a1.681,1.681,0,0,0-.406-1.165A1.456,1.456,0,0,0-6.922-6.789ZM5.969.156A4.15,4.15,0,0,1,2.941-.984,4.054,4.054,0,0,1,1.773-4.023v-.219A5.106,5.106,0,0,1,2.266-6.52,3.612,3.612,0,0,1,3.66-8.066a3.914,3.914,0,0,1,2.059-.543,3.508,3.508,0,0,1,2.73,1.094,4.444,4.444,0,0,1,1,3.1v.922H4.063a2.1,2.1,0,0,0,.66,1.328,2,2,0,0,0,1.395.5,2.437,2.437,0,0,0,2.039-.945L9.266-1.367A3.389,3.389,0,0,1,7.891-.246,4.511,4.511,0,0,1,5.969.156ZM5.711-6.789a1.411,1.411,0,0,0-1.09.455,2.357,2.357,0,0,0-.535,1.3H7.227v-.181A1.681,1.681,0,0,0,6.82-6.377,1.456,1.456,0,0,0,5.711-6.789Zm8.234.859,1.422-2.523h2.414L15.375-4.312,17.883,0H15.461L13.953-2.656,12.453,0h-2.43l2.508-4.312-2.4-4.141h2.422ZM26.477-4.148A5.07,5.07,0,0,1,25.59-1.02,2.843,2.843,0,0,1,23.2.156a2.633,2.633,0,0,1-2.07-.891V3.25H18.867v-11.7h2.094l.078.828a2.654,2.654,0,0,1,2.141-.984,2.862,2.862,0,0,1,2.43,1.156,5.207,5.207,0,0,1,.867,3.188Zm-2.258-.164a3.327,3.327,0,0,0-.418-1.82,1.361,1.361,0,0,0-1.215-.641,1.478,1.478,0,0,0-1.461.813V-2.5a1.5,1.5,0,0,0,1.477.836Q24.219-1.664,24.219-4.312Zm3.3.008a5.013,5.013,0,0,1,.484-2.242A3.546,3.546,0,0,1,29.4-8.07a4.069,4.069,0,0,1,2.113-.539,3.849,3.849,0,0,1,2.793,1.047,4.2,4.2,0,0,1,1.207,2.844l.016.578A4.418,4.418,0,0,1,34.445-1.02,3.775,3.775,0,0,1,31.531.156a3.793,3.793,0,0,1-2.918-1.172A4.5,4.5,0,0,1,27.523-4.2Zm2.258.16A3.16,3.16,0,0,0,30.234-2.3a1.5,1.5,0,0,0,1.3.638,1.5,1.5,0,0,0,1.281-.63,3.457,3.457,0,0,0,.461-2.015,3.128,3.128,0,0,0-.461-1.831,1.5,1.5,0,0,0-1.3-.649,1.474,1.474,0,0,0-1.281.646A3.516,3.516,0,0,0,29.781-4.144ZM41.5-2.336a.727.727,0,0,0-.41-.652,4.659,4.659,0,0,0-1.316-.426q-3.016-.633-3.016-2.562a2.323,2.323,0,0,1,.934-1.879,3.766,3.766,0,0,1,2.441-.754,4.053,4.053,0,0,1,2.574.758,2.388,2.388,0,0,1,.965,1.969H41.414a1.092,1.092,0,0,0-.312-.8A1.322,1.322,0,0,0,40.125-7a1.351,1.351,0,0,0-.883.258.814.814,0,0,0-.312.656.7.7,0,0,0,.355.605,3.657,3.657,0,0,0,1.2.4,9.8,9.8,0,0,1,1.422.379A2.336,2.336,0,0,1,43.7-2.43,2.2,2.2,0,0,1,42.7-.559a4.28,4.28,0,0,1-2.562.715,4.47,4.47,0,0,1-1.887-.379,3.166,3.166,0,0,1-1.293-1.039,2.414,2.414,0,0,1-.469-1.426h2.141a1.179,1.179,0,0,0,.445.922,1.766,1.766,0,0,0,1.109.32,1.635,1.635,0,0,0,.98-.246A.766.766,0,0,0,41.5-2.336ZM47.531,0H45.266V-8.453h2.266Zm-2.4-10.641a1.112,1.112,0,0,1,.34-.836A1.277,1.277,0,0,1,46.4-11.8a1.28,1.28,0,0,1,.922.328,1.105,1.105,0,0,1,.344.836,1.108,1.108,0,0,1-.348.844,1.283,1.283,0,0,1-.918.328A1.283,1.283,0,0,1,45.48-9.8,1.108,1.108,0,0,1,45.133-10.641Zm7.773,8.977a1.481,1.481,0,0,0,1.016-.344,1.2,1.2,0,0,0,.406-.914h2.117a2.9,2.9,0,0,1-.469,1.574A3.093,3.093,0,0,1,54.715-.238a3.949,3.949,0,0,1-1.77.395A3.67,3.67,0,0,1,50.086-1,4.56,4.56,0,0,1,49.039-4.18v-.148a4.508,4.508,0,0,1,1.039-3.117A3.627,3.627,0,0,1,52.93-8.609a3.555,3.555,0,0,1,2.543.9,3.2,3.2,0,0,1,.973,2.4H54.328a1.551,1.551,0,0,0-.406-1.072,1.354,1.354,0,0,0-1.031-.412,1.36,1.36,0,0,0-1.191.575,3.333,3.333,0,0,0-.4,1.866v.235a3.375,3.375,0,0,0,.4,1.878A1.377,1.377,0,0,0,52.906-1.664ZM60.117,0H57.852V-8.453h2.266Zm-2.4-10.641a1.112,1.112,0,0,1,.34-.836,1.277,1.277,0,0,1,.926-.328,1.28,1.28,0,0,1,.922.328,1.105,1.105,0,0,1,.344.836A1.108,1.108,0,0,1,59.9-9.8a1.283,1.283,0,0,1-.918.328,1.283,1.283,0,0,1-.918-.328A1.108,1.108,0,0,1,57.719-10.641ZM61.625-4.3a5.013,5.013,0,0,1,.484-2.242A3.546,3.546,0,0,1,63.5-8.07a4.069,4.069,0,0,1,2.113-.539A3.849,3.849,0,0,1,68.41-7.562a4.2,4.2,0,0,1,1.207,2.844l.016.578A4.418,4.418,0,0,1,68.547-1.02,3.775,3.775,0,0,1,65.633.156a3.793,3.793,0,0,1-2.918-1.172A4.5,4.5,0,0,1,61.625-4.2Zm2.258.16A3.16,3.16,0,0,0,64.336-2.3a1.5,1.5,0,0,0,1.3.638,1.5,1.5,0,0,0,1.281-.63,3.457,3.457,0,0,0,.461-2.015,3.128,3.128,0,0,0-.461-1.831,1.5,1.5,0,0,0-1.3-.649,1.474,1.474,0,0,0-1.281.646A3.516,3.516,0,0,0,63.883-4.144ZM66.063-12h2.461L66.359-9.578H64.523ZM73.1-8.453l.07.977A2.951,2.951,0,0,1,75.6-8.609a2.453,2.453,0,0,1,2,.789,3.682,3.682,0,0,1,.672,2.359V0H76.016V-5.406A1.465,1.465,0,0,0,75.7-6.449a1.4,1.4,0,0,0-1.039-.324,1.553,1.553,0,0,0-1.43.813V0H70.977V-8.453Z" transform="translate(1037 11799)" fill="#12263f"/>
  </g>
</svg>
