<svg xmlns="http://www.w3.org/2000/svg" width="130.189" height="159.126" viewBox="0 0 130.189 159.126">
  <g id="Grupo_958076" data-name="Grupo 958076" transform="translate(-344.396 -4223.483)">
    <path id="Trazado_32537" data-name="Trazado 32537" d="M77.224,17.964A5.984,5.984,0,0,0,73.176,13c-1.48-.5-2.845-1.385-2.845-2.715s.95-1.15,1.416-3.4a9.466,9.466,0,0,0,.185-2.419.418.418,0,0,0,.244-.357A4.031,4.031,0,0,0,70.1.73c.21-.364-.92-.73-1.692-.73-3.536,0-4.118,3.768-4.122,4.068-.009.437.143.569.3.606a9.7,9.7,0,0,0,.191,2.214c.465,2.246,1.413,2.063,1.413,3.4S64.825,12.5,63.346,13A5.98,5.98,0,0,0,59.3,17.964v.007a.273.273,0,0,0,0,.068V32.13a1.79,1.79,0,1,0,3.575,0v-13.1a1.89,1.89,0,0,1,.966-1.4h.011V47.985a1.791,1.791,0,1,0,3.576,0V32.876h1.666V47.985a1.791,1.791,0,1,0,3.576,0V17.629h.012a1.893,1.893,0,0,1,.966,1.4v13.1a1.791,1.791,0,1,0,3.576,0V17.964Z" transform="translate(341.23 4223.483)" fill="#fdae48"/>
    <path id="Trazado_32538" data-name="Trazado 32538" d="M47.576,75.673a5.981,5.981,0,0,0-4.049-4.964c-1.479-.5-2.844-1.386-2.844-2.72s.95-1.145,1.416-3.394a9.546,9.546,0,0,0,.186-2.418.422.422,0,0,0,.243-.359,4.028,4.028,0,0,0-2.08-3.38c.21-.364-.919-.73-1.691-.73-3.537,0-4.117,3.767-4.124,4.068-.008.436.144.569.3.606a9.8,9.8,0,0,0,.189,2.213c.467,2.248,1.416,2.064,1.416,3.394s-1.364,2.218-2.843,2.72a5.979,5.979,0,0,0-4.049,4.964v0a.559.559,0,0,0,0,.069V89.838a1.791,1.791,0,1,0,3.576,0v-13.1a1.9,1.9,0,0,1,.966-1.4H34.2v30.356a1.791,1.791,0,1,0,3.576,0V90.583h1.666v15.109a1.791,1.791,0,1,0,3.576,0V75.337h.01a1.9,1.9,0,0,1,.968,1.4v13.1a1.79,1.79,0,1,0,3.575,0V75.724c0-.015,0-.027,0-.043Z" transform="translate(342.813 4220.402)" fill="#f37e5f"/>
    <path id="Trazado_32539" data-name="Trazado 32539" d="M77.224,75.673a5.98,5.98,0,0,0-4.048-4.964c-1.48-.5-2.845-1.386-2.845-2.72s.95-1.145,1.416-3.394a9.462,9.462,0,0,0,.185-2.418.419.419,0,0,0,.244-.359,4.028,4.028,0,0,0-2.079-3.38c.21-.364-.92-.73-1.692-.73-3.536,0-4.118,3.767-4.122,4.068-.009.436.143.569.3.606a9.687,9.687,0,0,0,.191,2.213c.465,2.248,1.413,2.064,1.413,3.394s-1.362,2.218-2.842,2.72A5.976,5.976,0,0,0,59.3,75.673v0a.28.28,0,0,0,0,.069V89.838a1.79,1.79,0,1,0,3.575,0v-13.1a1.9,1.9,0,0,1,.966-1.4h.011v30.356a1.791,1.791,0,1,0,3.576,0V90.583h1.666v15.109a1.791,1.791,0,1,0,3.576,0V75.337h.012a1.9,1.9,0,0,1,.966,1.4v13.1a1.791,1.791,0,1,0,3.576,0V75.673Z" transform="translate(341.23 4220.402)" fill="#f37e5f"/>
    <path id="Trazado_32540" data-name="Trazado 32540" d="M106.873,75.673a5.985,5.985,0,0,0-4.049-4.964c-1.48-.5-2.844-1.386-2.844-2.72s.949-1.145,1.416-3.394a9.589,9.589,0,0,0,.186-2.418.422.422,0,0,0,.242-.359,4.026,4.026,0,0,0-2.079-3.38c.211-.364-.919-.73-1.692-.73-3.536,0-4.119,3.767-4.122,4.068-.009.436.144.569.3.606a9.738,9.738,0,0,0,.192,2.213c.464,2.248,1.415,2.064,1.415,3.394s-1.363,2.218-2.843,2.72a5.981,5.981,0,0,0-4.049,4.964v0a.417.417,0,0,0,0,.069V89.838a1.791,1.791,0,1,0,3.576,0v-13.1a1.891,1.891,0,0,1,.967-1.4H93.5v30.356a1.791,1.791,0,1,0,3.576,0V90.583h1.666v15.109a1.791,1.791,0,1,0,3.577,0V75.337h.011a1.894,1.894,0,0,1,.966,1.4v13.1a1.791,1.791,0,1,0,3.576,0V75.673Z" transform="translate(339.647 4220.402)" fill="#f37e5f"/>
    <path id="Trazado_32541" data-name="Trazado 32541" d="M17.929,133.381a5.988,5.988,0,0,0-4.05-4.965c-1.48-.5-2.842-1.385-2.842-2.715s.948-1.149,1.415-3.4a9.557,9.557,0,0,0,.185-2.413.43.43,0,0,0,.244-.36,4.036,4.036,0,0,0-2.078-3.381c.208-.364-.921-.73-1.693-.73-3.536,0-4.117,3.768-4.123,4.069-.007.434.145.566.3.6a9.646,9.646,0,0,0,.191,2.21c.465,2.251,1.415,2.067,1.415,3.4s-1.364,2.213-2.844,2.715A5.99,5.99,0,0,0,0,133.381v14.166a1.842,1.842,0,0,0,1.789,1.888,1.841,1.841,0,0,0,1.787-1.888v-13.1a1.891,1.891,0,0,1,.966-1.4h.011V163.4a1.841,1.841,0,0,0,1.79,1.888A1.839,1.839,0,0,0,8.131,163.4V148.293H9.8V163.4a1.792,1.792,0,1,0,3.579,0V133.046h.009a1.887,1.887,0,0,1,.966,1.4v13.1a1.792,1.792,0,1,0,3.578,0V133.432c0-.015,0-.027,0-.042Z" transform="translate(344.396 4217.32)" fill="#48a5d9"/>
    <path id="Trazado_32542" data-name="Trazado 32542" d="M47.576,133.381a5.984,5.984,0,0,0-4.049-4.965c-1.479-.5-2.844-1.385-2.844-2.715s.95-1.149,1.416-3.4a9.511,9.511,0,0,0,.186-2.413.425.425,0,0,0,.243-.36,4.03,4.03,0,0,0-2.08-3.381c.21-.364-.919-.73-1.691-.73-3.537,0-4.117,3.768-4.124,4.069-.008.434.144.566.3.6a9.758,9.758,0,0,0,.189,2.21c.467,2.251,1.416,2.067,1.416,3.4s-1.364,2.213-2.843,2.715a5.982,5.982,0,0,0-4.049,4.965v.007a.529.529,0,0,0,0,.067v14.092a1.791,1.791,0,1,0,3.576,0v-13.1a1.893,1.893,0,0,1,.966-1.4H34.2V163.4a1.791,1.791,0,1,0,3.576,0V148.293h1.666V163.4a1.791,1.791,0,1,0,3.576,0V133.046h.01a1.894,1.894,0,0,1,.968,1.4v13.1a1.79,1.79,0,1,0,3.575,0V133.432c0-.015,0-.027,0-.042Z" transform="translate(342.813 4217.32)" fill="#48a5d9"/>
    <path id="Trazado_32543" data-name="Trazado 32543" d="M77.224,133.381a5.983,5.983,0,0,0-4.048-4.965c-1.48-.5-2.845-1.385-2.845-2.715s.95-1.149,1.416-3.4a9.428,9.428,0,0,0,.185-2.413.423.423,0,0,0,.244-.36,4.031,4.031,0,0,0-2.079-3.381c.21-.364-.92-.73-1.692-.73-3.536,0-4.118,3.768-4.122,4.069-.009.434.143.566.3.6a9.646,9.646,0,0,0,.191,2.21c.465,2.251,1.413,2.067,1.413,3.4s-1.362,2.213-2.842,2.715a5.979,5.979,0,0,0-4.047,4.965v.007a.265.265,0,0,0,0,.067v14.092a1.79,1.79,0,1,0,3.575,0v-13.1a1.892,1.892,0,0,1,.966-1.4h.011V163.4a1.791,1.791,0,1,0,3.576,0V148.293h1.666V163.4a1.791,1.791,0,1,0,3.576,0V133.046h.012a1.894,1.894,0,0,1,.966,1.4v13.1a1.791,1.791,0,1,0,3.576,0V133.381Z" transform="translate(341.23 4217.32)" fill="#48a5d9"/>
    <path id="Trazado_32544" data-name="Trazado 32544" d="M106.873,133.381a5.988,5.988,0,0,0-4.049-4.965c-1.48-.5-2.844-1.385-2.844-2.715s.949-1.149,1.416-3.4a9.555,9.555,0,0,0,.186-2.413.426.426,0,0,0,.242-.36,4.028,4.028,0,0,0-2.079-3.381c.211-.364-.919-.73-1.692-.73-3.536,0-4.119,3.768-4.122,4.069-.009.434.144.566.3.6a9.7,9.7,0,0,0,.192,2.21c.464,2.251,1.415,2.067,1.415,3.4s-1.363,2.213-2.843,2.715a5.984,5.984,0,0,0-4.049,4.965v.007a.4.4,0,0,0,0,.067v14.092a1.791,1.791,0,1,0,3.576,0v-13.1a1.887,1.887,0,0,1,.967-1.4H93.5V163.4a1.791,1.791,0,1,0,3.576,0V148.293h1.666V163.4a1.791,1.791,0,1,0,3.577,0V133.046h.011a1.891,1.891,0,0,1,.966,1.4v13.1a1.791,1.791,0,1,0,3.576,0V133.381Z" transform="translate(339.647 4217.32)" fill="#48a5d9"/>
    <path id="Trazado_32545" data-name="Trazado 32545" d="M136.522,133.381a5.99,5.99,0,0,0-4.049-4.965c-1.48-.5-2.844-1.385-2.844-2.715s.948-1.149,1.415-3.4a9.511,9.511,0,0,0,.186-2.413.425.425,0,0,0,.243-.36,4.028,4.028,0,0,0-2.079-3.381c.209-.364-.92-.73-1.692-.73-3.536,0-4.117,3.768-4.123,4.069-.008.434.144.566.3.6a9.652,9.652,0,0,0,.189,2.21c.465,2.251,1.415,2.067,1.415,3.4s-1.362,2.213-2.844,2.715a5.986,5.986,0,0,0-4.048,4.965v.007c0,.025,0,.049,0,.067v14.092a1.791,1.791,0,1,0,3.577,0v-13.1a1.893,1.893,0,0,1,.965-1.4h.013V163.4a1.79,1.79,0,1,0,3.574,0V148.293h1.667V163.4a1.791,1.791,0,1,0,3.577,0V133.046h.01a1.894,1.894,0,0,1,.966,1.4v13.1a1.791,1.791,0,1,0,3.577,0V133.381Z" transform="translate(338.063 4217.32)" fill="#48a5d9"/>
    <rect id="Rectángulo_4520" data-name="Rectángulo 4520" width="130.189" height="159.126" transform="translate(344.396 4223.483)" fill="none"/>
  </g>
</svg>
