<svg xmlns="http://www.w3.org/2000/svg" xmlns:xlink="http://www.w3.org/1999/xlink" width="215.793" height="151.793" viewBox="0 0 215.793 151.793">
  <defs>
    <clipPath id="clip-path">
      <rect id="Rectángulo_4519" data-name="Rectángulo 4519" width="34.793" height="34.793" fill="#0540b7"/>
    </clipPath>
    <clipPath id="clip-path-9">
      <rect id="Rectángulo_4519-5" data-name="Rectángulo 4519" width="34.793" height="34.793" fill="#80cab6"/>
    </clipPath>
  </defs>
  <g id="Grupo_958075" data-name="Grupo 958075" transform="translate(-319 -3973.477)">
    <path id="Trazado_32532" data-name="Trazado 32532" d="M183.794,93.628l-7.046-40.52c-.631-3.476-2.008-6.8-14.441-12.894-4.149-2.038-6.714-4.271-6.714-10.7a5.361,5.361,0,0,1,.041-.638c4.386,3.2,12.889-1.192,12.889-1.192-4.817-6.353-6.12-18.294-7.941-21.976C158.927,2.352,156.6.393,151.207.067c-.235-.018-.456-.057-.7-.062-.317,0-.622-.006-.92,0h-.038c-.3,0-.6,0-.924,0-.248.005-.47.045-.709.062-5.385.326-7.709,2.287-9.366,5.642-1.817,3.681-3.124,15.623-7.938,21.976,0,0,8.5,4.391,12.884,1.192a5.916,5.916,0,0,1,.039.638c0,6.428-2.559,8.661-6.715,10.7-12.431,6.1-13.81,9.418-14.436,12.894l-7.048,40.52A5.3,5.3,0,1,0,125.817,95.1l6.931-36.869a6.175,6.175,0,0,1,3.625-5.226c.017,0,.034,0,.053,0l-9.188,55.434h9.256V142a5.3,5.3,0,1,0,10.584,0V108.443h4.974V142a5.3,5.3,0,1,0,10.585,0V108.443h9.256l-9.187-55.434c.015,0,.032,0,.052,0a6.181,6.181,0,0,1,3.624,5.226L173.31,95.1a5.3,5.3,0,1,0,10.484-1.472" transform="translate(310.146 3973.707)" fill="#80cab6"/>
    <rect id="Rectángulo_4515" data-name="Rectángulo 4515" width="136.442" height="147.591" transform="translate(346.555 3973.707)" fill="none"/>
    <path id="Trazado_32533" data-name="Trazado 32533" d="M0,53.158c.057-1.642,1.368-10.429,11.981-14.689,4.378-1.489,8.413-4.1,8.413-8.041s-2.809-3.4-4.19-10.055a28.335,28.335,0,0,1-.547-7.151,1.233,1.233,0,0,1-.718-1.057A11.911,11.911,0,0,1,21.09,2.157C20.47,1.076,23.813,0,26.1,0,36.563,0,38.28,11.15,38.3,12.036c.024,1.294-.427,1.68-.888,1.793a28.522,28.522,0,0,1-.563,6.544c-1.375,6.657-4.189,6.109-4.189,10.055s4.036,6.552,8.414,8.041C51.683,42.728,53,51.516,53.053,53.158v.021c0,.074,0,.139,0,.2v41.7a5.3,5.3,0,1,1-10.584,0V56.307c0-1.329-1.006-2.875-2.858-4.146a.134.134,0,0,0-.033,0V142a5.3,5.3,0,1,1-10.584,0V97.29H24.063V142a5.444,5.444,0,0,1-5.293,5.588A5.445,5.445,0,0,1,13.477,142V52.166a.133.133,0,0,0-.032,0c-1.855,1.27-2.861,2.817-2.861,4.146V95.078a5.445,5.445,0,0,1-5.29,5.588A5.447,5.447,0,0,1,0,95.078V53.308c0-.04,0-.078,0-.122Z" transform="translate(361.555 3973.707)" fill="#0540b7"/>
    <rect id="Rectángulo_4516" data-name="Rectángulo 4516" width="136.442" height="147.591" transform="translate(346.555 3973.707)" fill="none"/>
    <g id="Grupo_17180" data-name="Grupo 17180" transform="translate(319 3973.477)">
      <g id="Grupo_17179" data-name="Grupo 17179" clip-path="url(#clip-path)">
        <g id="Grupo_17178" data-name="Grupo 17178" transform="translate(0 0)">
          <g id="Grupo_17177" data-name="Grupo 17177" clip-path="url(#clip-path)">
            <path id="Trazado_32534" data-name="Trazado 32534" d="M17.4,0A17.4,17.4,0,1,1,0,17.4,17.4,17.4,0,0,1,17.4,0" transform="translate(0 0)" fill="#0540b7"/>
          </g>
        </g>
      </g>
    </g>
    <path id="Trazado_32536" data-name="Trazado 32536" d="M20.051,6.43A13.621,13.621,0,1,0,33.673,20.051,13.621,13.621,0,0,0,20.051,6.43" transform="translate(316.345 3970.821)" fill="#f8f8f8"/>
    <g id="Grupo_17180-2" data-name="Grupo 17180" transform="translate(319 4012.477)">
      <g id="Grupo_17179-2" data-name="Grupo 17179" clip-path="url(#clip-path)">
        <g id="Grupo_17178-2" data-name="Grupo 17178" transform="translate(0 0)">
          <g id="Grupo_17177-2" data-name="Grupo 17177" clip-path="url(#clip-path)">
            <path id="Trazado_32534-2" data-name="Trazado 32534" d="M17.4,0A17.4,17.4,0,1,1,0,17.4,17.4,17.4,0,0,1,17.4,0" transform="translate(0 0)" fill="#0540b7"/>
          </g>
        </g>
      </g>
    </g>
    <path id="Trazado_32536-2" data-name="Trazado 32536" d="M20.051,6.43A13.621,13.621,0,1,0,33.673,20.051,13.621,13.621,0,0,0,20.051,6.43" transform="translate(316.345 4009.821)" fill="#f8f8f8"/>
    <g id="Grupo_17180-3" data-name="Grupo 17180" transform="translate(319 4051.477)">
      <g id="Grupo_17179-3" data-name="Grupo 17179" clip-path="url(#clip-path)">
        <g id="Grupo_17178-3" data-name="Grupo 17178" transform="translate(0 0)">
          <g id="Grupo_17177-3" data-name="Grupo 17177" clip-path="url(#clip-path)">
            <path id="Trazado_32534-3" data-name="Trazado 32534" d="M17.4,0A17.4,17.4,0,1,1,0,17.4,17.4,17.4,0,0,1,17.4,0" transform="translate(0 0)" fill="#0540b7"/>
          </g>
        </g>
      </g>
    </g>
    <path id="Trazado_32536-3" data-name="Trazado 32536" d="M20.051,6.43A13.621,13.621,0,1,0,33.673,20.051,13.621,13.621,0,0,0,20.051,6.43" transform="translate(316.345 4048.821)" fill="#f8f8f8"/>
    <g id="Grupo_17180-4" data-name="Grupo 17180" transform="translate(319 4090.477)">
      <g id="Grupo_17179-4" data-name="Grupo 17179" clip-path="url(#clip-path)">
        <g id="Grupo_17178-4" data-name="Grupo 17178" transform="translate(0 0)">
          <g id="Grupo_17177-4" data-name="Grupo 17177" clip-path="url(#clip-path)">
            <path id="Trazado_32534-4" data-name="Trazado 32534" d="M17.4,0A17.4,17.4,0,1,1,0,17.4,17.4,17.4,0,0,1,17.4,0" transform="translate(0 0)" fill="#0540b7"/>
          </g>
        </g>
      </g>
    </g>
    <path id="Trazado_32536-4" data-name="Trazado 32536" d="M20.051,6.43A13.621,13.621,0,1,0,33.673,20.051,13.621,13.621,0,0,0,20.051,6.43" transform="translate(316.345 4087.821)" fill="#f8f8f8"/>
    <g id="Grupo_17180-5" data-name="Grupo 17180" transform="translate(500 3973.477)">
      <g id="Grupo_17179-5" data-name="Grupo 17179" clip-path="url(#clip-path-9)">
        <g id="Grupo_17178-5" data-name="Grupo 17178" transform="translate(0 0)">
          <g id="Grupo_17177-5" data-name="Grupo 17177" clip-path="url(#clip-path-9)">
            <path id="Trazado_32534-5" data-name="Trazado 32534" d="M17.4,0A17.4,17.4,0,1,1,0,17.4,17.4,17.4,0,0,1,17.4,0" transform="translate(0 0)" fill="#80cab6"/>
          </g>
        </g>
      </g>
    </g>
    <path id="Trazado_32536-5" data-name="Trazado 32536" d="M20.051,6.43A13.621,13.621,0,1,0,33.673,20.051,13.621,13.621,0,0,0,20.051,6.43" transform="translate(497.345 3970.821)" fill="#f8f8f8"/>
    <g id="Grupo_17180-6" data-name="Grupo 17180" transform="translate(500 4012.477)">
      <g id="Grupo_17179-6" data-name="Grupo 17179" clip-path="url(#clip-path-9)">
        <g id="Grupo_17178-6" data-name="Grupo 17178" transform="translate(0 0)">
          <g id="Grupo_17177-6" data-name="Grupo 17177" clip-path="url(#clip-path-9)">
            <path id="Trazado_32534-6" data-name="Trazado 32534" d="M17.4,0A17.4,17.4,0,1,1,0,17.4,17.4,17.4,0,0,1,17.4,0" transform="translate(0 0)" fill="#80cab6"/>
          </g>
        </g>
      </g>
    </g>
    <path id="Trazado_32536-6" data-name="Trazado 32536" d="M20.051,6.43A13.621,13.621,0,1,0,33.673,20.051,13.621,13.621,0,0,0,20.051,6.43" transform="translate(497.345 4009.821)" fill="#f8f8f8"/>
    <g id="Grupo_17180-7" data-name="Grupo 17180" transform="translate(500 4051.477)">
      <g id="Grupo_17179-7" data-name="Grupo 17179" clip-path="url(#clip-path-9)">
        <g id="Grupo_17178-7" data-name="Grupo 17178" transform="translate(0 0)">
          <g id="Grupo_17177-7" data-name="Grupo 17177" clip-path="url(#clip-path-9)">
            <path id="Trazado_32534-7" data-name="Trazado 32534" d="M17.4,0A17.4,17.4,0,1,1,0,17.4,17.4,17.4,0,0,1,17.4,0" transform="translate(0 0)" fill="#80cab6"/>
          </g>
        </g>
      </g>
    </g>
    <path id="Trazado_32536-7" data-name="Trazado 32536" d="M20.051,6.43A13.621,13.621,0,1,0,33.673,20.051,13.621,13.621,0,0,0,20.051,6.43" transform="translate(497.345 4048.821)" fill="#f8f8f8"/>
    <g id="Grupo_17180-8" data-name="Grupo 17180" transform="translate(500 4090.477)">
      <g id="Grupo_17179-8" data-name="Grupo 17179" clip-path="url(#clip-path-9)">
        <g id="Grupo_17178-8" data-name="Grupo 17178" transform="translate(0 0)">
          <g id="Grupo_17177-8" data-name="Grupo 17177" clip-path="url(#clip-path-9)">
            <path id="Trazado_32534-8" data-name="Trazado 32534" d="M17.4,0A17.4,17.4,0,1,1,0,17.4,17.4,17.4,0,0,1,17.4,0" transform="translate(0 0)" fill="#80cab6"/>
          </g>
        </g>
      </g>
    </g>
    <path id="Trazado_32536-8" data-name="Trazado 32536" d="M20.051,6.43A13.621,13.621,0,1,0,33.673,20.051,13.621,13.621,0,0,0,20.051,6.43" transform="translate(497.345 4087.821)" fill="#f8f8f8"/>
  </g>
</svg>
