<svg xmlns="http://www.w3.org/2000/svg" xmlns:xlink="http://www.w3.org/1999/xlink" width="167.587" height="113.604" viewBox="0 0 167.587 113.604">
  <defs>
    <clipPath id="clip-path">
      <rect id="Rectángulo_4434" data-name="Rectángulo 4434" width="167.587" height="113.604" fill="none"/>
    </clipPath>
  </defs>
  <g id="Grupo_17105" data-name="Grupo 17105" transform="translate(0 0.003)">
    <g id="Grupo_17104" data-name="Grupo 17104" transform="translate(0 -0.003)" clip-path="url(#clip-path)">
      <path id="Trazado_32302" data-name="Trazado 32302" d="M549.034,411.207c-.592-2.028-2.96-4.658-5.63-7.36-3.607-3.653-7.814-7.436-9.394-10.039-3.312-5.456-4.7-9.223-8.63-14.273-3.228-4.15-9.446-5.239-9.446-5.239a4.847,4.847,0,0,0-3.138-2.111,106.951,106.951,0,0,0-29.186-.391c-3.663.523-10.74,2.316-10.74,2.316s-1.67.647-2.353.9a13.888,13.888,0,0,0-7.993,6.561c-1.895,3.276-3.268,7.565-5.424,10.806a28.843,28.843,0,0,1-3.41,4.023,46.792,46.792,0,0,0-7.23,9.664,28.182,28.182,0,0,0-3.186,7.274c-.618,3.127,1.386,7.947,2.989,10.57,2.418,3.957,9.474.764,12.267-1.331a49.008,49.008,0,0,0,3.851-3.333c.5-.5,2.185-2.407,2.185-2.407s.313,2.4.481,3.074c.656,2.624.519,6.178.519,8.925,0,6.428-1.333,9.551-1.333,15.923,0,1.986,1.005,7.988.916,11.216H520.4c-.321-3.381-1.47-8.088-1.47-10.368,0-2.713.936-5.509.932-7.832-.006-3.5-.053-5.706-.287-9.036-.19-2.706.823-5.269.889-8.584.059-2.955.329-13.791.329-13.791s2.472,2.961,2.887,3.617c.489.772,3.332,4.907,3.617,5.228,3.124,3.528,2.075,3.239,5.41,6.261,2.444,2.214,7.7,3.5,10.868,3.364a3.04,3.04,0,0,0,2.688-1.449c2.619-3.376,3.617-9.289,2.774-12.176" transform="translate(-408.993 -342.369)" fill="#fff" fill-rule="evenodd"/>
      <path id="Trazado_32303" data-name="Trazado 32303" d="M923.917,244.011c-1.364,1.2-2.755,3.3-4.016,4.562-2.066,2.067-4.828,3.358-5.547,5.919-.964,3.429.625,8.211,1.844,11.343,1.394,3.581,4.213,7.969,7.591,9.9a10.92,10.92,0,0,0,11.569.338c1.629-.872,6.553-5.519,7.589-8.315,1.87-5.05,3.843-11.793,1.189-17.1-2.72-5.442-7.686-7.687-13.55-7.687-1.686,0-5.265-.189-6.668,1.041" transform="translate(-843.591 -224.23)" fill="#ffedde" fill-rule="evenodd"/>
      <path id="Trazado_32304" data-name="Trazado 32304" d="M756.071,258.994s2.551-3.256,3.91-5.135a24.663,24.663,0,0,0,2.861-5c2.084-5.68.312-10.905-.777-16.892-.4-2.2-2.218-7.986-4.968-8.536-1.372-.274-1.3,2.925-1.782,4.6-.784,2.743-1.346,5.378-1.1,6.95.108.692.843,3.728.843,4.026,0,2.6,1.33,5.511-.16,7.663-1.906,2.752-6.354,8.207-6.354,8.207a9.747,9.747,0,0,0,3.051,2.772,14.627,14.627,0,0,0,4.477,1.342" transform="translate(-690.838 -206.193)" fill="#ffedde" fill-rule="evenodd"/>
      <path id="Trazado_32305" data-name="Trazado 32305" d="M1291.177,252.314s-4.863-6.076-6-7.9c-4.342-6.947-.106-14.3,1.138-21.761a21.032,21.032,0,0,1,1.694-6.384c.081-.163,1.037-2.994,1.273-2.946,1.274.255,1.242,2.241,1.393,2.9a35.386,35.386,0,0,1,.6,11c-.3,2.623-1.281,6.881-.628,9.273a11.6,11.6,0,0,0,3.965,6.093c.6.45,3.505,2.977,3.505,2.977a9.517,9.517,0,0,1-2.329,3.841,17.732,17.732,0,0,1-4.61,2.9" transform="translate(-1184.335 -196.878)" fill="#ffedde" fill-rule="evenodd"/>
      <path id="Trazado_32306" data-name="Trazado 32306" d="M871.925,38.935c2.852.3,4.414-2.867,5.983-5,.479-.65,1.77-5,3.514-5.358,1.168-.242-2.264,5.451.917,8.225s5.362,1.6,5.362,1.6,2.64,1.116,3.018.729c.726-.743-1.617-2.725-1.89-4.735-.494-3.645.549-7.611.769-6.173.342,2.231.811,4.25,2.128,5.567,2.286,2.286,3.479,3.565,7.127,4.343a33.752,33.752,0,0,0,3.817.531,30.551,30.551,0,0,0,2.1-4.685c.38-1.456-.054-4.326,0-5.011a16.8,16.8,0,0,1,.758-3.626,7.607,7.607,0,0,0,.633-2.415,10.918,10.918,0,0,0-1.187-5.951,11.518,11.518,0,0,0-4.98-4.935,15.8,15.8,0,0,0-3.46-1.258c-2.285-.381-3.336.51-5.572-.049-1.727-.432-3.712-1.941-5.665-2.331-7.078-1.416-16.444,7.193-17.363,13.626a41.7,41.7,0,0,0-.01,5.342,10.469,10.469,0,0,1,.327,1.458,30.806,30.806,0,0,0,1.9,6.169c.773,1.924,1.772,3.941,1.772,3.941" transform="translate(-800.932 -7.61)" fill="#e2bb92" fill-rule="evenodd"/>
      <path id="Trazado_32307" data-name="Trazado 32307" d="M1295.561,270.9a.267.267,0,0,1-.223-.12c-.63-.957-1.562-2.1-2.549-3.305a31.551,31.551,0,0,1-3.941-5.523c-1.371-2.908-.79-6.255-.277-9.208.075-.432.15-.86.217-1.28a25.132,25.132,0,0,1,2.435-7.428,10.606,10.606,0,0,0,1.2-6.5l-.011-.244c-.1-2.289.139-3.634.722-4a.772.772,0,0,1,.824.02c.917.5,1.154,2.2,1.384,3.849.051.369.1.727.157,1.051a26.209,26.209,0,0,1,.476,6.626c-.125,1.22-.322,2.314-.513,3.371-.521,2.892-.972,5.389.57,8.616.885,1.854,4.653,5.687,6.538,6.886a.267.267,0,1,1-.286.45c-1.981-1.261-5.8-5.149-6.733-7.107-1.616-3.382-1.152-5.958-.613-8.941.189-1.048.385-2.132.507-3.331a25.777,25.777,0,0,0-.47-6.481c-.057-.33-.108-.693-.161-1.069-.191-1.373-.429-3.081-1.111-3.455-.183-.1-.257-.052-.285-.035-.3.185-.576,1.207-.472,3.52l.011.244a11.038,11.038,0,0,1-1.261,6.785,24.525,24.525,0,0,0-2.375,7.256c-.068.423-.143.853-.218,1.287-.524,3.015-1.066,6.134.233,8.889a31.256,31.256,0,0,0,3.872,5.413c1,1.219,1.935,2.37,2.581,3.349a.267.267,0,0,1-.223.414" transform="translate(-1188.707 -215.206)" fill="#384154"/>
      <path id="Trazado_32308" data-name="Trazado 32308" d="M842.449,298.916a.264.264,0,0,1-.147-.044.267.267,0,0,1-.075-.37c.834-1.26,1.849-2.533,2.831-3.763,1.829-2.293,3.557-4.458,4-6.339.552-2.318.176-4.256-.3-6.71l-.082-.424a23.589,23.589,0,0,0-1.979-6.7,20.08,20.08,0,0,1-1.7-5.308c-.074-.347-.145-.682-.219-1l-.023-.1c-.051-.237-.207-.96-.446-1.1a.1.1,0,0,0-.091-.005c-.361.121-.482,1.118-.533,1.544l-.027.213a12.409,12.409,0,0,0,.284,4.2,21.7,21.7,0,0,1,.376,2.651.267.267,0,0,1-.533.033,21.254,21.254,0,0,0-.368-2.587,12.832,12.832,0,0,1-.287-4.373l.026-.2c.079-.658.212-1.759.894-1.986a.631.631,0,0,1,.525.048,2.178,2.178,0,0,1,.7,1.447l.021.1c.075.323.147.661.221,1.01a19.647,19.647,0,0,0,1.647,5.174,23.986,23.986,0,0,1,2.03,6.842l.082.424c.488,2.517.874,4.5.295,6.935-.476,2-2.24,4.208-4.107,6.548-.975,1.221-1.983,2.485-2.8,3.725a.267.267,0,0,1-.223.119" transform="translate(-777.259 -245.967)" fill="#384154"/>
      <path id="Trazado_32309" data-name="Trazado 32309" d="M828.626,233.021a.267.267,0,0,1-.266-.25,21.776,21.776,0,0,0-.359-2.558,10.774,10.774,0,0,1-.084-5.093c.209-.759.355-1.6.495-2.4.325-1.869.581-3.346,1.52-3.382a.791.791,0,0,1,.662.324c.689.847.578,3.231.552,3.336a.267.267,0,0,1-.521-.115c.033-.257.042-2.348-.465-2.908a.26.26,0,0,0-.208-.1c-.507.02-.776,1.571-1.014,2.94-.142.821-.29,1.67-.506,2.454a10.357,10.357,0,0,0,.1,4.856,22.2,22.2,0,0,1,.366,2.62.267.267,0,0,1-.25.283h-.017" transform="translate(-763.837 -202.425)" fill="#384154"/>
      <path id="Trazado_32310" data-name="Trazado 32310" d="M744.185,331.1a.267.267,0,0,1-.21-.431c.61-.783,1.332-1.624,2.1-2.513,2.268-2.643,4.839-5.638,5.023-7.841a19.633,19.633,0,0,0-.7-5.716c-.648-2.921-1.319-5.941.073-8.725a.267.267,0,1,1,.477.239c-1.308,2.615-.687,5.411-.03,8.371a20.023,20.023,0,0,1,.714,5.876c-.2,2.375-2.829,5.44-5.149,8.144-.76.885-1.477,1.721-2.08,2.494a.267.267,0,0,1-.211.1" transform="translate(-686.57 -282.154)" fill="#384154"/>
      <path id="Trazado_32311" data-name="Trazado 32311" d="M1361.347,219.056a.262.262,0,0,1-.265-.242c-.419-5.835-.629-8.759-1.646-8.894a.267.267,0,1,1,.071-.529c1.447.193,1.627,2.693,2.107,9.374a.271.271,0,0,1-.247.291h-.02" transform="translate(-1254.423 -193.246)" fill="#384154"/>
      <path id="Trazado_32312" data-name="Trazado 32312" d="M746.114,608.339a8.561,8.561,0,0,1-2.482-.471c-3.671-1.158-5.658-3.067-6.295-4.467a2.111,2.111,0,0,1-.136-1.721.267.267,0,0,1,.489.214,1.632,1.632,0,0,0,.133,1.287c.589,1.3,2.466,3.073,5.969,4.179,1.8.566,3.015.59,3.525.067s.259-1.523.068-2.077a.267.267,0,1,1,.5-.173,2.589,2.589,0,0,1-.191,2.623,2.117,2.117,0,0,1-1.586.539" transform="translate(-680.253 -555.148)" fill="#384154"/>
      <path id="Trazado_32313" data-name="Trazado 32313" d="M1349.635,611.113a2.321,2.321,0,0,1-1.705-.712,3.258,3.258,0,0,1-.531-2.842.267.267,0,1,1,.526.091,2.774,2.774,0,0,0,.4,2.392,1.785,1.785,0,0,0,1.438.533c1.88-.142,5.83-3.231,7.024-5.926a2.386,2.386,0,0,0-.037-2.542.267.267,0,1,1,.421-.328,2.908,2.908,0,0,1,.1,3.086c-1.29,2.914-5.435,6.088-7.471,6.243-.054,0-.11.006-.168.006" transform="translate(-1243.445 -555.293)" fill="#384154"/>
      <path id="Trazado_32314" data-name="Trazado 32314" d="M713.662,1016.35a30.35,30.35,0,0,1,.373,5.929h.535a30.818,30.818,0,0,0-.379-6l-.163-1.2a26.91,26.91,0,0,1-.018-8.976c.06-.472.121-.938.182-1.4a71.839,71.839,0,0,0,.221-19.879.267.267,0,1,0-.531.055,71.4,71.4,0,0,1-.219,19.755c-.061.465-.122.933-.182,1.406a27.316,27.316,0,0,0,.018,9.114Z" transform="translate(-658.136 -908.674)" fill="#384154"/>
      <path id="Trazado_32315" data-name="Trazado 32315" d="M1422.273,909.914c.3,1.69.6,3.415.769,5.328h.533c-.171-1.991-.485-3.773-.776-5.42-.28-1.585-.546-3.082-.662-4.6a18.89,18.89,0,0,1,.413-4.688,27.8,27.8,0,0,0,.436-3.293,48.692,48.692,0,0,0-.112-5.365,49.58,49.58,0,0,1-.119-5.2,31.325,31.325,0,0,1,.435-3.51c.165-1.013.335-2.061.413-3.112.286-3.918.309-9.56.309-11.2a.267.267,0,0,0-.534,0c0,1.631-.022,7.257-.307,11.157-.075,1.027-.243,2.063-.406,3.065a31.563,31.563,0,0,0-.441,3.571,49.962,49.962,0,0,0,.118,5.251,48.3,48.3,0,0,1,.113,5.306,27.393,27.393,0,0,1-.429,3.23,19.3,19.3,0,0,0-.418,4.82c.118,1.541.386,3.051.668,4.649" transform="translate(-1311.984 -801.637)" fill="#384154"/>
      <path id="Trazado_32316" data-name="Trazado 32316" d="M1079.417,758.388c-.239,4.432-.482,8.975-.456,13.771h.534c-.026-4.783.217-9.318.455-13.742.109-2.034.213-3.956.289-5.867a87.447,87.447,0,0,0-.4-11.291,57.633,57.633,0,0,1-.308-6.278c.045-1.544.234-3.381.452-5.51a82.126,82.126,0,0,0,.525-15.664.267.267,0,1,0-.531.047,81.757,81.757,0,0,1-.524,15.563c-.22,2.139-.41,3.986-.456,5.549a58.039,58.039,0,0,0,.311,6.338,86.923,86.923,0,0,1,.393,11.226c-.075,1.908-.178,3.827-.288,5.859" transform="translate(-995.782 -658.555)" fill="#384154"/>
      <path id="Trazado_32317" data-name="Trazado 32317" d="M448.284,634.625q-.265,0-.524-.02a5.416,5.416,0,0,1-3.866-1.994,15.246,15.246,0,0,1-2.752-6.251,11.613,11.613,0,0,1-.226-5.468c1.137-5.116,5.718-8.312,10.148-11.4a42.266,42.266,0,0,0,5.646-4.407,49.249,49.249,0,0,0,3.24-3.764,49.352,49.352,0,0,1,3.28-3.808,2.556,2.556,0,0,1,2.022-.6.267.267,0,0,1-.079.528,2.042,2.042,0,0,0-1.566.448,49.185,49.185,0,0,0-3.242,3.765,49.451,49.451,0,0,1-3.278,3.806,42.588,42.588,0,0,1-5.719,4.467c-4.346,3.033-8.84,6.168-9.932,11.081a11.1,11.1,0,0,0,.223,5.223,14.79,14.79,0,0,0,2.645,6.039,4.9,4.9,0,0,0,3.5,1.8c3.323.266,7.492-2.251,10.043-4.483a20.134,20.134,0,0,0,2.083-2.037,54.52,54.52,0,0,0,5.429-7.893l.523-.866c2.074-3.426,4.634-8.576,5.819-11.078.29-.612.591-1.194.878-1.75,1.043-2.016,1.867-3.609,1.39-5.042a.267.267,0,1,1,.506-.169c.549,1.647-.364,3.412-1.422,5.456-.285.55-.583,1.127-.87,1.733-1.478,3.12-3.895,7.906-5.845,11.126l-.523.866a54.938,54.938,0,0,1-5.479,7.963,20.54,20.54,0,0,1-2.138,2.094c-2.5,2.187-6.519,4.634-9.913,4.634" transform="translate(-406.714 -550.876)" fill="#384154"/>
      <path id="Trazado_32318" data-name="Trazado 32318" d="M1376.579,464.771c-.18,0-.363-.009-.55-.028a18.658,18.658,0,0,1-10.181-3.6c-1.9-1.465-3.76-4.163-5.257-6.33-.288-.417-.562-.813-.82-1.178a96.424,96.424,0,0,0-6.525-8.44c-.524-.582-1.129-1.218-1.752-1.874-1.2-1.257-2.432-2.557-3.333-3.717-1.476-1.9-2.219-3-1.657-5.335a.267.267,0,0,1,.519.125c-.508,2.106.112,3.019,1.559,4.882.885,1.139,2.112,2.428,3.3,3.676.627.659,1.235,1.3,1.763,1.884a97.165,97.165,0,0,1,6.564,8.489c.259.366.534.764.823,1.183,1.476,2.136,3.313,4.8,5.144,6.211a18.182,18.182,0,0,0,9.908,3.491c2.769.277,4.7-1.811,5.9-6.381,1.326-5.04.6-7.972-2.895-11.621-1.253-1.31-2.551-2.6-3.807-3.845a97.168,97.168,0,0,1-7.875-8.466,38.038,38.038,0,0,1-3.886-6.7c-.86-1.735-1.75-3.528-2.792-5.226-2.016-3.289-5.2-5.655-10.031-7.446a.267.267,0,1,1,.185-.5c4.946,1.835,8.219,4.271,10.3,7.668,1.053,1.719,1.948,3.523,2.814,5.268a37.676,37.676,0,0,0,3.825,6.609,96.956,96.956,0,0,0,7.833,8.419c1.258,1.249,2.56,2.539,3.817,3.854,3.645,3.81,4.408,6.87,3.025,12.125-1.2,4.571-3.143,6.8-5.92,6.8" transform="translate(-1242.528 -382.09)" fill="#384154"/>
      <path id="Trazado_32319" data-name="Trazado 32319" d="M471.476,451.726a.267.267,0,0,1-.242-.378,53.369,53.369,0,0,1,5.718-8.724l.256-.335c.788-1.034,1.67-1.992,2.524-2.918a27.558,27.558,0,0,0,3.515-4.384,40.9,40.9,0,0,0,2.252-4.709,38.093,38.093,0,0,1,2.163-4.522l.082-.136c1.562-2.578,2.69-4.441,8.705-7.448a.267.267,0,1,1,.239.477c-5.877,2.939-6.972,4.746-8.487,7.247l-.082.136a37.728,37.728,0,0,0-2.129,4.455,41.235,41.235,0,0,1-2.285,4.773,27.992,27.992,0,0,1-3.58,4.471c-.845.917-1.719,1.866-2.491,2.879l-.257.336a52.96,52.96,0,0,0-5.657,8.623.266.266,0,0,1-.243.155" transform="translate(-434.884 -385.909)" fill="#384154"/>
      <path id="Trazado_32320" data-name="Trazado 32320" d="M1485.931,623.19a.267.267,0,0,1-.237-.144c-2.9-5.6-6.826-7.532-9.979-9.082a21.372,21.372,0,0,1-3.3-1.856,53.542,53.542,0,0,1-7.481-6.492c-.339-.363-.709-.786-1.1-1.233-1.592-1.825-3.771-4.324-5.148-3.783a.267.267,0,1,1-.2-.5c1.721-.683,3.86,1.767,5.746,3.928.385.441.751.86,1.086,1.219a53,53,0,0,0,7.41,6.429,20.969,20.969,0,0,0,3.214,1.806c3.224,1.584,7.236,3.555,10.218,9.316a.267.267,0,0,1-.115.36.264.264,0,0,1-.123.03" transform="translate(-1345.902 -553.733)" fill="#384154"/>
      <path id="Trazado_32321" data-name="Trazado 32321" d="M1117.882,466.5a.267.267,0,0,1-.189-.455c.089-.088.177-.17.263-.249.427-.393.685-.631.557-1.3a3.333,3.333,0,0,0-.327-.789,3.489,3.489,0,0,1-.169-3.547.267.267,0,0,1,.475.242,2.964,2.964,0,0,0,.17,3.064,3.73,3.73,0,0,1,.375.93,1.709,1.709,0,0,1-.719,1.79c-.08.074-.164.151-.247.234a.266.266,0,0,1-.189.078" transform="translate(-1031.446 -424.554)" fill="#384154"/>
      <path id="Trazado_32322" data-name="Trazado 32322" d="M1085.058,611.436a.258.258,0,0,1-.086-.014,10.057,10.057,0,0,0-6.128-.048.267.267,0,1,1-.183-.5,10.479,10.479,0,0,1,6.483.044.267.267,0,0,1-.086.519" transform="translate(-995.345 -563.326)" fill="#384154"/>
      <path id="Trazado_32323" data-name="Trazado 32323" d="M1003.452,460.662a.268.268,0,0,1-.127-.032,4.277,4.277,0,0,0-3.439-.111.267.267,0,1,1-.178-.5,4.807,4.807,0,0,1,3.871.144.267.267,0,0,1-.127.5" transform="translate(-922.476 -424.245)" fill="#384154"/>
      <path id="Trazado_32324" data-name="Trazado 32324" d="M996,418.973a7.439,7.439,0,0,1-2.522-.454.267.267,0,0,1,.191-.5c1.192.459,3.422.71,4.422-.207a.267.267,0,0,1,.361.393,3.606,3.606,0,0,1-2.452.766" transform="translate(-916.732 -385.539)" fill="#384154"/>
      <path id="Trazado_32325" data-name="Trazado 32325" d="M1200.9,444.354a1.059,1.059,0,1,1,.978,1.3,1.16,1.16,0,0,1-.978-1.3" transform="translate(-1108.32 -408.995)" fill="#384154" fill-rule="evenodd"/>
      <path id="Trazado_32326" data-name="Trazado 32326" d="M1177.174,413.34a3.652,3.652,0,0,1-2.695-.983.267.267,0,1,1,.362-.392c1.065.983,2.153.954,4.384.653a.267.267,0,0,1,.072.529,16.437,16.437,0,0,1-2.122.193" transform="translate(-1083.859 -380.141)" fill="#384154"/>
      <path id="Trazado_32327" data-name="Trazado 32327" d="M948.828,539.585a11.7,11.7,0,0,1-5.5-1.415,18.873,18.873,0,0,1-8.693-11.157.267.267,0,0,1,.515-.14,18.308,18.308,0,0,0,8.427,10.824,10.984,10.984,0,0,0,9.066.68c3.617-1.267,7.116-4.773,9.131-9.149a.267.267,0,1,1,.485.223c-2.074,4.5-5.69,8.117-9.44,9.43a12.023,12.023,0,0,1-3.99.7" transform="translate(-862.574 -486.074)" fill="#384154"/>
      <path id="Trazado_32328" data-name="Trazado 32328" d="M1170.246,3.406a.26.26,0,0,1-.05,0,.267.267,0,0,1-.213-.311c.328-1.749,1.767-3.371,3.611-3.052a.267.267,0,1,1-.091.526c-1.519-.261-2.716,1.13-3,2.625a.267.267,0,0,1-.262.218" transform="translate(-1079.785 0.002)" fill="#384154"/>
      <path id="Trazado_32329" data-name="Trazado 32329" d="M1090.145,206.223a.258.258,0,0,1-.061-.007,6.059,6.059,0,0,1-3.98-3.968,15.387,15.387,0,0,1,1.392-13.3.267.267,0,0,1,.448.29,15.041,15.041,0,0,0-1.346,12.814,5.55,5.55,0,0,0,3.608,3.648.267.267,0,0,1-.062.526" transform="translate(-1001.527 -174.267)" fill="#384154"/>
      <path id="Trazado_32330" data-name="Trazado 32330" d="M1160.9,276.691c-4.432,0-10.854-3.864-11.215-10.2a.267.267,0,0,1,.251-.281.261.261,0,0,1,.281.251c.35,6.147,6.7,9.839,10.931,9.694a.25.25,0,0,1,.277.257.267.267,0,0,1-.257.276c-.089,0-.178,0-.268,0" transform="translate(-1061.051 -245.686)" fill="#384154"/>
      <path id="Trazado_32331" data-name="Trazado 32331" d="M919.079,306.027a.267.267,0,0,1-.017-.533c3.218-.21,6.453-5.369,6.845-7.871a.267.267,0,1,1,.527.083c-.426,2.712-3.817,8.091-7.338,8.321h-.018" transform="translate(-847.981 -274.471)" fill="#384154"/>
      <path id="Trazado_32332" data-name="Trazado 32332" d="M1039.851,256.708a.269.269,0,0,1-.119-.028,5.555,5.555,0,0,1-2.956-3.844,9.836,9.836,0,0,1,1.953-7.867.267.267,0,1,1,.426.321,9.293,9.293,0,0,0-1.86,7.424,5.037,5.037,0,0,0,2.675,3.489.267.267,0,0,1-.119.505" transform="translate(-956.671 -225.986)" fill="#384154"/>
      <path id="Trazado_32333" data-name="Trazado 32333" d="M863.553,27.308a.267.267,0,0,1-.252-.18,7.686,7.686,0,0,1-.286-1.879c-.019-.279-.038-.547-.069-.786-1.195-9.192,8.087-16.634,14.75-17.522,3.646-.486,5.476-.027,7.255,1.821a.267.267,0,0,1-.385.37c-1.421-1.476-2.923-2.178-6.8-1.662-6.528.87-15.4,8.361-14.292,16.925.032.249.052.528.072.818a7.207,7.207,0,0,0,.259,1.743.267.267,0,0,1-.252.354" transform="translate(-796.324 -6.239)" fill="#384154"/>
      <path id="Trazado_32334" data-name="Trazado 32334" d="M1211.355,51.741a.263.263,0,0,1-.1-.021.266.266,0,0,1-.141-.35c1.528-3.592.707-7.693-2.2-10.972-2.692-3.04-6.405-4.534-9.237-3.716a.267.267,0,1,1-.148-.513c3.026-.874,6.958.684,9.784,3.875,3.043,3.436,3.9,7.748,2.288,11.534a.267.267,0,0,1-.245.162" transform="translate(-1106.878 -33.159)" fill="#384154"/>
      <path id="Trazado_32335" data-name="Trazado 32335" d="M1147.919,78.69a.267.267,0,0,1-.259-.2A9.96,9.96,0,0,1,1148.7,72.1a.267.267,0,1,1,.458.272,9.34,9.34,0,0,0-.98,5.984.267.267,0,0,1-.194.324.262.262,0,0,1-.065.008" transform="translate(-1059.034 -66.423)" fill="#384154"/>
      <path id="Trazado_32336" data-name="Trazado 32336" d="M687.175,677.934h-.021c-3.875-.3-7.655-4.159-8.089-8.264a.267.267,0,1,1,.53-.056c.409,3.87,3.96,7.509,7.6,7.789a.267.267,0,0,1-.02.533" transform="translate(-626.715 -617.771)" fill="#384154"/>
      <path id="Trazado_32337" data-name="Trazado 32337" d="M1417.359,704.093a.267.267,0,0,1-.022-.533c4.669-.39,7.417-2.895,7.947-7.244a.267.267,0,0,1,.53.065c-.564,4.632-3.48,7.3-8.432,7.711h-.023" transform="translate(-1307.848 -642.42)" fill="#384154"/>
      <path id="Trazado_32338" data-name="Trazado 32338" d="M912.981,587.13a.915.915,0,0,1-.842-.414c-.28-.456-.127-1.39.086-2.681a13.769,13.769,0,0,0,.28-3.808.267.267,0,1,1,.528-.073,14.12,14.12,0,0,1-.282,3.968,5.886,5.886,0,0,0-.157,2.316c.112.183.534.371,2.108-.424l.13-.064a8.478,8.478,0,0,0,1.269-.774,3.236,3.236,0,0,1,3.244-.746.267.267,0,1,1-.169.506,2.742,2.742,0,0,0-2.77.677,8.956,8.956,0,0,1-1.349.82l-.115.057a5.021,5.021,0,0,1-1.962.64" transform="translate(-841.682 -535.216)" fill="#384154"/>
      <path id="Trazado_32339" data-name="Trazado 32339" d="M1215.624,611.345a2.76,2.76,0,0,1-1.362-.741c-.937-.714-2.217-1.69-3.75-1.251a.267.267,0,0,1-.147-.513c1.788-.515,3.253.6,4.221,1.34.406.31.914.7,1.078.624.029-.012.177-.1.265-.76a27.625,27.625,0,0,0-.389-4.52l-.033-.253a.267.267,0,0,1,.53-.069l.033.253a26.766,26.766,0,0,1,.388,4.66c-.092.687-.274,1.052-.59,1.182a.629.629,0,0,1-.244.048" transform="translate(-1116.879 -558.333)" fill="#384154"/>
      <path id="Trazado_32340" data-name="Trazado 32340" d="M1065.444,416.776a.267.267,0,0,1-.189-.455c.251-.25.7-.813.7-.819a.267.267,0,1,1,.418.331c-.019.024-.47.592-.743.864a.266.266,0,0,1-.189.078" transform="translate(-983.062 -383.377)" fill="#384154"/>
      <path id="Trazado_32341" data-name="Trazado 32341" d="M953.032,469.351a1.009,1.009,0,0,1-.254-.035c-1.081-.28-.816-1.821-.559-3.312.071-.414.138-.8.177-1.162a.267.267,0,0,1,.531.057c-.041.375-.112.792-.182,1.2-.205,1.194-.438,2.548.167,2.7.169.044.217,0,.236-.023.156-.149.266-.674-.093-2.321a.267.267,0,0,1,.522-.114c.246,1.13.431,2.349-.059,2.82a.679.679,0,0,1-.485.189" transform="translate(-878.601 -428.788)" fill="#384154"/>
      <path id="Trazado_32342" data-name="Trazado 32342" d="M.267,319.036a.267.267,0,0,1,0-.534l61.376-.074a.272.272,0,0,1,.273.267.262.262,0,0,1-.261.267l-2.171,0-59.217.071Z" transform="translate(0 -293.88)" fill="#384154"/>
      <path id="Trazado_32343" data-name="Trazado 32343" d="M1412.3,315.168a.267.267,0,0,1,0-.534l58.2-.07h0a.267.267,0,0,1,0,.534l-58.2.07Z" transform="translate(-1303.18 -290.314)" fill="#384154"/>
      <path id="Trazado_32344" data-name="Trazado 32344" d="M1428.586,190.1a.37.37,0,0,1-.1-.015c-.536-.158-.724-1.508-1.135-6.412-.227-2.7-.506-6.042-.913-6.741a22.5,22.5,0,0,0-.617,4.04c-.325,3.149-.5,4.354-1,4.514a.43.43,0,0,1-.473-.167c-.521-.6-.753-2.957-1.071-6.761-.2-2.354-.492-5.868-.905-6.384-.33.452-.61,3-.816,4.888-.346,3.156-.613,5.269-1.142,5.861a.515.515,0,0,1-.549.2c-.491-.147-.67-1.035-.99-3.177-.157-1.055-.42-2.82-.71-2.977-.3.107-.607,2.125-.772,3.208a9.723,9.723,0,0,1-.839,3.375.267.267,0,0,1-.422-.327,10.461,10.461,0,0,0,.733-3.128c.343-2.245.568-3.521,1.23-3.648a.493.493,0,0,1,.382.087c.448.318.649,1.471.927,3.332a10.793,10.793,0,0,0,.595,2.717l.018-.019c.455-.509.762-3.312,1.009-5.564.385-3.507.609-5.073,1.142-5.349a.428.428,0,0,1,.418.009c.616.341.846,2.349,1.222,6.85.212,2.53.474,5.653.886,6.373a22.966,22.966,0,0,0,.6-3.969c.328-3.186.5-4.406,1.016-4.575a.431.431,0,0,1,.471.152c.521.571.766,3.076,1.105,7.134a39.91,39.91,0,0,0,.712,5.809c.435-1.014.677-5.226.892-8.968.311-5.4.538-8.733,1.078-9.417a.422.422,0,0,1,.468-.183c.537.161.725,1.494,1.138,6.332.251,2.943.536,6.279,1.008,7.07a.984.984,0,0,0,.077.113,11.963,11.963,0,0,0,.563-2.589c.324-2.086.563-3.372,1.127-3.638a.591.591,0,0,1,.523-.009c.439.21.627.905.9,2.023.194.8.459,1.9.827,2.014.276.087.539-.639.75-1.223.247-.687.48-1.335.931-1.514a.688.688,0,0,1,.583.041c.571.289.837,1.512,1.178,3.344a11.225,11.225,0,0,0,.486,2.034,1.93,1.93,0,0,0,.151-.3c.479-1.147.72-4.689.932-7.814.371-5.453.558-6.95,1.172-7.091a.393.393,0,0,1,.327.071c.484.356.669,2.147,1,6.456.234,3.011.5,6.423.993,7.464a1.376,1.376,0,0,0,.112.2,11.239,11.239,0,0,0,.554-2.282c.315-1.72.532-2.784,1.017-2.981a.472.472,0,0,1,.464.065c.567.4.788,1.916,1.085,4.359.16,1.313.4,3.3.7,3.484.31-.182.614-2.5.815-4.034.35-2.672.6-4.327,1.182-4.774a.536.536,0,0,1,.536-.1c.5.19.7,1.129,1,2.772.2,1.062.5,2.669.879,2.827a.109.109,0,0,0,.1.005c.255-.123.5-.974.675-1.595.3-1.057.586-2.055,1.266-2.151.745-.105,1.044.876,1.326,1.826.154.516.364,1.222.581,1.324.013.007.036.017.091-.007.38-.16.661-1.4.865-2.313.305-1.354.569-2.524,1.293-2.571.747-.059,1,1.066,1.29,2.356.208.93.468,2.087.879,2.262.361.151.656-.42,1.036-1.246.306-.668.6-1.3,1.063-1.5a.841.841,0,0,1,.743.014c.593.309.811,1.295.834,1.406a.267.267,0,0,1-.523.108,1.764,1.764,0,0,0-.558-1.041.3.3,0,0,0-.285,0c-.279.12-.55.711-.789,1.233-.385.838-.863,1.886-1.729,1.514-.663-.281-.919-1.425-1.191-2.636-.165-.734-.427-1.963-.735-1.94-.326.021-.627,1.357-.807,2.156-.28,1.245-.546,2.422-1.179,2.688a.634.634,0,0,1-.526,0c-.433-.2-.633-.877-.864-1.655-.177-.594-.447-1.493-.741-1.449-.335.047-.619,1.042-.827,1.769-.261.913-.486,1.7-.957,1.929a.639.639,0,0,1-.538.006c-.6-.252-.855-1.385-1.2-3.222a6.875,6.875,0,0,0-.669-2.372c-.464.371-.76,2.632-1,4.448-.393,3-.631,4.33-1.262,4.479a.471.471,0,0,1-.388-.077c-.478-.334-.665-1.683-.929-3.857-.186-1.532-.439-3.62-.844-3.972a9.568,9.568,0,0,0-.667,2.56c-.333,1.821-.515,2.7-1.02,2.766-.359.052-.575-.386-.653-.55-.537-1.13-.795-4.445-1.044-7.652a34.015,34.015,0,0,0-.728-5.977c-.307.6-.529,3.876-.71,6.535-.226,3.321-.459,6.755-.973,7.984-.142.34-.353.723-.693.69-.48-.051-.642-.813-.961-2.532-.205-1.1-.516-2.774-.894-2.966-.088-.043-.128-.028-.145-.021-.227.09-.448.705-.626,1.2-.3.839-.647,1.789-1.41,1.552-.658-.2-.915-1.27-1.188-2.4-.159-.656-.376-1.556-.608-1.666-.009,0-.022-.011-.065.01-.349.165-.649,2.089-.828,3.238-.336,2.154-.509,2.977-1,3.072-.23.042-.437-.092-.624-.405-.535-.9-.8-4.006-1.081-7.3a37.308,37.308,0,0,0-.719-5.743c-.441,1-.695,5.41-.9,8.995-.309,5.383-.536,8.7-1.07,9.4a.447.447,0,0,1-.359.2" transform="translate(-1306.904 -156.571)" fill="#384154"/>
      <path id="Trazado_32345" data-name="Trazado 32345" d="M121.575,225.731a.427.427,0,0,1-.153-.029c-.547-.212-.739-1.638-1.077-5.087-.225-2.294-.48-4.893-.943-5.59-.106-.16-.164-.183-.165-.184a6.953,6.953,0,0,0-.549,1.778c-.305,1.3-.569,2.414-1.195,2.572-.767.193-1.052-.852-1.3-1.773-.13-.478-.327-1.2-.516-1.279-.019-.008-.056.011-.076.022-.385.218-.659,1.5-.879,2.535-.318,1.491-.593,2.779-1.346,2.808h-.026c-.748,0-1.016-1.242-1.325-2.678-.218-1.012-.489-2.271-.889-2.506a.145.145,0,0,0-.111-.03c-.184.071-.386.707-.52,1.127-.272.856-.58,1.826-1.367,1.636-.683-.165-1-1.108-1.345-2.107-.251-.738-.564-1.656-.929-1.656h0c-.328,0-.537.875-.7,1.577-.244,1.022-.5,2.078-1.281,2.205-.872.143-1.45-.865-1.958-1.754-.321-.562-.653-1.143-.962-1.269-.142-.058-.2-.02-.225,0-.23.154-.341.834-.343,1.246a.267.267,0,0,1-.267.265h0a.267.267,0,0,1-.266-.268c0-.218.033-1.321.58-1.687a.74.74,0,0,1,.723-.048c.479.2.841.829,1.223,1.5.422.738.9,1.574,1.41,1.492.434-.07.663-1.031.848-1.8.244-1.02.474-1.984,1.222-1.986h0c.746,0,1.08.98,1.434,2.017.253.742.567,1.664.965,1.761.312.077.542-.677.734-1.279.222-.7.413-1.3.837-1.464a.638.638,0,0,1,.571.068c.6.353.864,1.568,1.141,2.854.182.845.486,2.257.806,2.257h0c.338-.013.655-1.5.844-2.386.28-1.312.545-2.551,1.138-2.888a.6.6,0,0,1,.544-.05c.43.179.614.852.826,1.632.149.547.4,1.465.658,1.4.311-.079.621-1.392.806-2.177.314-1.333.516-2.092,1-2.179.36-.063.6.294.676.412.538.808.777,3.249,1.03,5.834a21.517,21.517,0,0,0,.7,4.59c.473-.628.8-4.163,1.066-7.022.315-3.394.612-6.6,1.187-7.4.2-.283.41-.3.546-.263.53.14.7,1.284,1.024,4.277.187,1.731.442,4.1.816,4.418a8.495,8.495,0,0,0,.572-2.336c.277-1.652.479-2.676.937-2.958a.507.507,0,0,1,.429-.054c.645.2.9,1.454,1.265,3.479.218,1.21.546,3.039.942,3.152a.058.058,0,0,0,.056-.008c.315-.19.575-1.414.783-2.4.3-1.4.554-2.613,1.137-2.949a.606.606,0,0,1,.554-.055c.431.18.608.856.812,1.638.142.543.377,1.445.635,1.4.32-.06.625-1.134.826-1.845.273-.961.508-1.791.99-1.976a.6.6,0,0,1,.553.071c.569.358.788,1.541,1.082,3.447.164,1.065.439,2.847.8,2.916.274.057.664-1.631.843-2.442.319-1.45.621-2.819,1.272-3.12a.594.594,0,0,1,.517,0c.47.227.676,1.067.914,2.04.13.53.371,1.516.57,1.579a.206.206,0,0,0,.056-.03c.4-.281.687-2.112.9-3.448.318-2.02.508-3.081,1.028-3.239a.515.515,0,0,1,.548.192c.537.58.772,2.59,1.1,5.831.189,1.9.471,4.728.844,5.148.328-.414.606-2.912.792-4.587.39-3.505.625-5.066,1.232-5.3a.432.432,0,0,1,.387.036c.484.293.69,1.675,1.016,4.541a20.13,20.13,0,0,0,.611,3.725c.45-.769.743-4.1.979-6.794.406-4.63.6-6,1.109-6.191a.353.353,0,0,1,.315.037c.472.306.738,2.35,1.187,9.109l.054.8a.267.267,0,0,1-.533.036l-.053-.8a69.125,69.125,0,0,0-.868-8.514,43.743,43.743,0,0,0-.678,5.569c-.345,3.929-.611,6.551-1.152,7.169a.44.44,0,0,1-.482.169c-.505-.158-.681-1.292-1.018-4.256a17.57,17.57,0,0,0-.723-4.1c-.36.4-.655,3.05-.852,4.825-.359,3.224-.568,4.672-1.064,5.009a.444.444,0,0,1-.37.065c-.657-.179-.879-1.773-1.265-5.642-.224-2.242-.5-5.032-.955-5.522l-.02-.021a10.831,10.831,0,0,0-.637,2.788c-.322,2.048-.574,3.419-1.118,3.8a.574.574,0,0,1-.55.093c-.444-.167-.632-.85-.9-1.952-.153-.625-.384-1.569-.627-1.686-.009,0-.021-.011-.062.008-.41.189-.736,1.669-.974,2.75-.37,1.68-.666,3-1.465,2.852-.693-.134-.917-1.363-1.225-3.359-.194-1.258-.435-2.822-.839-3.076-.036-.023-.062-.031-.078-.025-.232.089-.494,1.012-.667,1.624-.307,1.081-.6,2.1-1.241,2.224-.742.143-1-.842-1.25-1.792-.125-.479-.314-1.2-.5-1.28-.021-.008-.064.014-.082.024-.376.217-.656,1.537-.881,2.6-.277,1.306-.516,2.434-1.03,2.743a.594.594,0,0,1-.478.064c-.681-.194-.945-1.484-1.321-3.571-.211-1.174-.53-2.949-.9-3.064-.266.118-.536,1.727-.681,2.591-.276,1.645-.455,2.584-.928,2.766a.489.489,0,0,1-.5-.095c-.516-.408-.731-2.08-1.022-4.785a18.69,18.69,0,0,0-.607-3.758c-.49.68-.808,4.109-1.088,7.135-.394,4.252-.677,6.873-1.274,7.411a.483.483,0,0,1-.328.139" transform="translate(-93.076 -192.528)" fill="#384154"/>
    </g>
  </g>
</svg>
