<svg xmlns="http://www.w3.org/2000/svg" xmlns:xlink="http://www.w3.org/1999/xlink" width="838" height="222" viewBox="0 0 838 222">
  <defs>
    <filter id="Rect치ngulo_339837" x="0" y="0" width="838" height="222" filterUnits="userSpaceOnUse">
      <feOffset dy="3" input="SourceAlpha"/>
      <feGaussianBlur stdDeviation="3" result="blur"/>
      <feFlood flood-opacity="0.161"/>
      <feComposite operator="in" in2="blur"/>
      <feComposite in="SourceGraphic"/>
    </filter>
  </defs>
  <g id="Grupo_959087" data-name="Grupo 959087" transform="translate(-381 -6889)">
    <g transform="matrix(1, 0, 0, 1, 381, 6889)" filter="url(#Rect치ngulo_339837)">
      <rect id="Rect치ngulo_339837-2" data-name="Rect치ngulo 339837" width="820" height="204" rx="20" transform="translate(9 6)" fill="#fff"/>
    </g>
    <g id="Grupo_958138" data-name="Grupo 958138" transform="translate(44 91)">
      <path id="Trazado_725274" data-name="Trazado 725274" d="M-67.445,0V-11.375h3.5a5.315,5.315,0,0,1,2.684.676,4.712,4.712,0,0,1,1.848,1.922,5.928,5.928,0,0,1,.664,2.832v.523A5.945,5.945,0,0,1-59.4-2.6a4.672,4.672,0,0,1-1.84,1.914A5.355,5.355,0,0,1-63.922,0ZM-65.1-9.477v7.594h1.133a2.545,2.545,0,0,0,2.1-.9,4.06,4.06,0,0,0,.742-2.57v-.6a4.124,4.124,0,0,0-.719-2.629,2.537,2.537,0,0,0-2.1-.895ZM-53.3.156A4.15,4.15,0,0,1-56.332-.984,4.054,4.054,0,0,1-57.5-4.023v-.219a5.106,5.106,0,0,1,.492-2.277,3.612,3.612,0,0,1,1.395-1.547,3.914,3.914,0,0,1,2.059-.543,3.508,3.508,0,0,1,2.73,1.094,4.444,4.444,0,0,1,1,3.1v.922h-5.383a2.1,2.1,0,0,0,.66,1.328,2,2,0,0,0,1.395.5,2.437,2.437,0,0,0,2.039-.945l1.109,1.242A3.389,3.389,0,0,1-51.383-.246,4.511,4.511,0,0,1-53.3.156Zm-.258-6.945a1.411,1.411,0,0,0-1.09.455,2.357,2.357,0,0,0-.535,1.3h3.141v-.181a1.681,1.681,0,0,0-.406-1.165A1.456,1.456,0,0,0-53.562-6.789Zm12.711,2.227L-42.07-3.25V0h-2.344V-11.375h2.344v5.156l1.031-1.414,2.9-3.742h2.883L-39.3-6.32-35.141,0H-37.93ZM-30.516.156A4.15,4.15,0,0,1-33.543-.984a4.054,4.054,0,0,1-1.168-3.039v-.219a5.106,5.106,0,0,1,.492-2.277,3.612,3.612,0,0,1,1.395-1.547,3.914,3.914,0,0,1,2.059-.543,3.508,3.508,0,0,1,2.73,1.094,4.444,4.444,0,0,1,1,3.1v.922h-5.383a2.1,2.1,0,0,0,.66,1.328,2,2,0,0,0,1.395.5,2.437,2.437,0,0,0,2.039-.945l1.109,1.242A3.389,3.389,0,0,1-28.594-.246,4.511,4.511,0,0,1-30.516.156Zm-.258-6.945a1.411,1.411,0,0,0-1.09.455,2.357,2.357,0,0,0-.535,1.3h3.141v-.181a1.681,1.681,0,0,0-.406-1.165A1.456,1.456,0,0,0-30.773-6.789ZM-23.375,0h-2.266V-12h2.266Zm5.023-2.758,1.57-5.7h2.359L-17.273,0H-19.43l-2.852-8.453h2.359ZM-11.047,0h-2.266V-8.453h2.266Zm-2.4-10.641a1.112,1.112,0,0,1,.34-.836,1.277,1.277,0,0,1,.926-.328,1.28,1.28,0,0,1,.922.328,1.105,1.105,0,0,1,.344.836,1.108,1.108,0,0,1-.348.844,1.283,1.283,0,0,1-.918.328A1.283,1.283,0,0,1-13.1-9.8,1.108,1.108,0,0,1-13.445-10.641Zm6.336,2.188.07.977a2.951,2.951,0,0,1,2.43-1.133,2.453,2.453,0,0,1,2,.789,3.682,3.682,0,0,1,.672,2.359V0H-4.2V-5.406a1.465,1.465,0,0,0-.312-1.043,1.4,1.4,0,0,0-1.039-.324,1.553,1.553,0,0,0-1.43.813V0H-9.234V-8.453ZM8.656,0A2.507,2.507,0,0,1,8.43-.758,2.732,2.732,0,0,1,6.3.156,3,3,0,0,1,4.238-.562a2.312,2.312,0,0,1-.816-1.812,2.389,2.389,0,0,1,1-2.062A4.915,4.915,0,0,1,7.3-5.164H8.336v-.484a1.393,1.393,0,0,0-.3-.937,1.183,1.183,0,0,0-.949-.352,1.345,1.345,0,0,0-.895.273.929.929,0,0,0-.324.75H3.609a2.268,2.268,0,0,1,.453-1.359,3,3,0,0,1,1.281-.98A4.669,4.669,0,0,1,7.2-8.609a3.689,3.689,0,0,1,2.48.785A2.747,2.747,0,0,1,10.6-5.617v3.664a4.041,4.041,0,0,0,.336,1.82V0ZM6.789-1.57a1.945,1.945,0,0,0,.922-.223,1.462,1.462,0,0,0,.625-.6V-3.844H7.492q-1.7,0-1.8,1.172l-.008.133a.9.9,0,0,0,.3.7A1.153,1.153,0,0,0,6.789-1.57ZM25.4-3.789A4.025,4.025,0,0,1,24.043-.9,4.76,4.76,0,0,1,20.82.156a4.28,4.28,0,0,1-3.441-1.473,6.038,6.038,0,0,1-1.254-4.043v-.7A6.819,6.819,0,0,1,16.7-8.945a4.332,4.332,0,0,1,1.652-1.918,4.629,4.629,0,0,1,2.5-.668,4.637,4.637,0,0,1,3.172,1.055,4.326,4.326,0,0,1,1.391,2.961H23.07a2.376,2.376,0,0,0-.613-1.6,2.271,2.271,0,0,0-1.605-.5,1.991,1.991,0,0,0-1.754.84,4.707,4.707,0,0,0-.6,2.605V-5.3a5.038,5.038,0,0,0,.559,2.7,1.954,1.954,0,0,0,1.762.852,2.314,2.314,0,0,0,1.621-.5,2.241,2.241,0,0,0,.613-1.535ZM30.68.156A4.15,4.15,0,0,1,27.652-.984a4.054,4.054,0,0,1-1.168-3.039v-.219a5.106,5.106,0,0,1,.492-2.277,3.612,3.612,0,0,1,1.395-1.547,3.914,3.914,0,0,1,2.059-.543,3.508,3.508,0,0,1,2.73,1.094,4.444,4.444,0,0,1,1,3.1v.922H28.773a2.1,2.1,0,0,0,.66,1.328,2,2,0,0,0,1.395.5,2.437,2.437,0,0,0,2.039-.945l1.109,1.242A3.389,3.389,0,0,1,32.6-.246,4.511,4.511,0,0,1,30.68.156Zm-.258-6.945a1.411,1.411,0,0,0-1.09.455,2.357,2.357,0,0,0-.535,1.3h3.141v-.181a1.681,1.681,0,0,0-.406-1.165A1.456,1.456,0,0,0,30.422-6.789ZM37.82,0H35.555V-12H37.82Zm6.438-2.336a.727.727,0,0,0-.41-.652,4.659,4.659,0,0,0-1.316-.426q-3.016-.633-3.016-2.562a2.323,2.323,0,0,1,.934-1.879,3.766,3.766,0,0,1,2.441-.754,4.053,4.053,0,0,1,2.574.758,2.388,2.388,0,0,1,.965,1.969H44.172a1.092,1.092,0,0,0-.312-.8A1.322,1.322,0,0,0,42.883-7,1.351,1.351,0,0,0,42-6.742a.814.814,0,0,0-.312.656.7.7,0,0,0,.355.605,3.657,3.657,0,0,0,1.2.4,9.8,9.8,0,0,1,1.422.379A2.336,2.336,0,0,1,46.453-2.43a2.2,2.2,0,0,1-.992,1.871A4.28,4.28,0,0,1,42.9.156a4.47,4.47,0,0,1-1.887-.379,3.166,3.166,0,0,1-1.293-1.039,2.414,2.414,0,0,1-.469-1.426h2.141a1.179,1.179,0,0,0,.445.922,1.766,1.766,0,0,0,1.109.32,1.635,1.635,0,0,0,.98-.246A.766.766,0,0,0,44.258-2.336ZM50.289,0H48.023V-8.453h2.266Zm-2.4-10.641a1.112,1.112,0,0,1,.34-.836,1.277,1.277,0,0,1,.926-.328,1.28,1.28,0,0,1,.922.328,1.105,1.105,0,0,1,.344.836,1.108,1.108,0,0,1-.348.844,1.283,1.283,0,0,1-.918.328,1.283,1.283,0,0,1-.918-.328A1.108,1.108,0,0,1,47.891-10.641Zm9.32,9.781A2.831,2.831,0,0,1,54.9.156a2.67,2.67,0,0,1-2.074-.781,3.335,3.335,0,0,1-.73-2.289V-8.453h2.258v5.467q0,1.322,1.2,1.322a1.63,1.63,0,0,0,1.578-.8V-8.453H59.4V0H57.273ZM65.68-2.336a.727.727,0,0,0-.41-.652,4.659,4.659,0,0,0-1.316-.426q-3.016-.633-3.016-2.562a2.323,2.323,0,0,1,.934-1.879,3.766,3.766,0,0,1,2.441-.754,4.053,4.053,0,0,1,2.574.758,2.388,2.388,0,0,1,.965,1.969H65.594a1.092,1.092,0,0,0-.312-.8A1.322,1.322,0,0,0,64.3-7a1.351,1.351,0,0,0-.883.258.814.814,0,0,0-.312.656.7.7,0,0,0,.355.605,3.657,3.657,0,0,0,1.2.4,9.8,9.8,0,0,1,1.422.379A2.336,2.336,0,0,1,67.875-2.43a2.2,2.2,0,0,1-.992,1.871A4.28,4.28,0,0,1,64.32.156a4.47,4.47,0,0,1-1.887-.379,3.166,3.166,0,0,1-1.293-1.039,2.414,2.414,0,0,1-.469-1.426h2.141a1.179,1.179,0,0,0,.445.922,1.766,1.766,0,0,0,1.109.32,1.635,1.635,0,0,0,.98-.246A.766.766,0,0,0,65.68-2.336Z" transform="translate(468 6843)" fill="#12263f"/>
      <path id="Trazado_725273" data-name="Trazado 725273" d="M-39.621-3.609A4.185,4.185,0,0,1-40.953-.824a4.365,4.365,0,0,1-2.98.98,4.008,4.008,0,0,1-3.23-1.445,5.815,5.815,0,0,1-1.215-3.867V-6.25a6.481,6.481,0,0,1,.566-2.789,4.231,4.231,0,0,1,1.605-1.848,4.47,4.47,0,0,1,2.406-.645,4.11,4.11,0,0,1,2.906,1.012,4.235,4.235,0,0,1,1.273,2.8h-1.508a3.268,3.268,0,0,0-.848-1.975A2.565,2.565,0,0,0-43.8-10.3a2.684,2.684,0,0,0-2.254,1.063,4.882,4.882,0,0,0-.816,3.026v1.1A5.018,5.018,0,0,0-46.1-2.165,2.5,2.5,0,0,0-43.934-1.07a2.887,2.887,0,0,0,1.918-.566,3.143,3.143,0,0,0,.887-1.973Zm12.391-2.75h-6.516V-7.617h6.516Zm0,3.242h-6.516v-1.25h6.516Zm9.25-2.172-1.391,1.445V0h-1.5V-11.375h1.5V-5.75l5.055-5.625H-12.5L-16.98-6.352-12.152,0h-1.8ZM-4.1-4.242H-7.91v-1.18H-4.1ZM8.574,0H1.121V-1.039L5.059-5.414A9.354,9.354,0,0,0,6.266-7.027,2.693,2.693,0,0,0,6.6-8.312a2.041,2.041,0,0,0-.539-1.461,1.885,1.885,0,0,0-1.437-.57,2.232,2.232,0,0,0-1.676.613,2.343,2.343,0,0,0-.6,1.707H.9a3.355,3.355,0,0,1,1.012-2.539,3.751,3.751,0,0,1,2.707-.969,3.6,3.6,0,0,1,2.508.832,2.838,2.838,0,0,1,.922,2.215q0,1.68-2.141,4L2.863-1.18H8.574Zm8.875-10.562L12.738,0H11.223l4.7-10.187H9.762v-1.187h7.688Zm3.742,4.172h1.086a2.387,2.387,0,0,0,1.609-.539,1.8,1.8,0,0,0,.586-1.414,1.764,1.764,0,0,0-1.992-2,2.072,2.072,0,0,0-1.5.535,1.873,1.873,0,0,0-.559,1.418H18.98a2.9,2.9,0,0,1,.988-2.246,3.6,3.6,0,0,1,2.512-.895A3.558,3.558,0,0,1,25-10.68a3.076,3.076,0,0,1,.914,2.367,2.5,2.5,0,0,1-.48,1.438,2.9,2.9,0,0,1-1.309,1.039,2.8,2.8,0,0,1,1.449.984,2.734,2.734,0,0,1,.512,1.68,3.1,3.1,0,0,1-1,2.43,3.745,3.745,0,0,1-2.6.9,3.844,3.844,0,0,1-2.605-.867,2.877,2.877,0,0,1-1-2.289h1.453a1.859,1.859,0,0,0,.586,1.438,2.229,2.229,0,0,0,1.57.539,2.187,2.187,0,0,0,1.6-.547,2.108,2.108,0,0,0,.555-1.57,1.912,1.912,0,0,0-.609-1.523,2.655,2.655,0,0,0-1.758-.547H21.191ZM28.254-.758a.905.905,0,0,1,.223-.625.848.848,0,0,1,.668-.25.874.874,0,0,1,.676.25.887.887,0,0,1,.23.625.839.839,0,0,1-.23.6.89.89,0,0,1-.676.242.863.863,0,0,1-.668-.242A.855.855,0,0,1,28.254-.758ZM37.035,0H35.582V-9.633l-2.914,1.07V-9.875l4.141-1.555h.227Zm4.9-5.7.578-5.672H48.34v1.336h-4.6l-.344,3.1a3.671,3.671,0,0,1,1.9-.492A3.138,3.138,0,0,1,47.762-6.4a4.026,4.026,0,0,1,.914,2.777,3.886,3.886,0,0,1-.949,2.77A3.46,3.46,0,0,1,45.074.156,3.6,3.6,0,0,1,42.613-.68a3.337,3.337,0,0,1-1.086-2.312h1.367a2.3,2.3,0,0,0,.7,1.473,2.162,2.162,0,0,0,1.484.5,1.95,1.95,0,0,0,1.582-.687,2.874,2.874,0,0,0,.574-1.9,2.638,2.638,0,0,0-.621-1.832,2.113,2.113,0,0,0-1.652-.691,2.383,2.383,0,0,0-1.484.414l-.383.313Z" transform="translate(468 6871)" fill="#12263f"/>
    </g>
    <g id="Grupo_958137" data-name="Grupo 958137" transform="translate(590 -174)">
      <path id="Trazado_725278" data-name="Trazado 725278" d="M-69.437,0V-11.375h3.5a5.315,5.315,0,0,1,2.684.676,4.712,4.712,0,0,1,1.848,1.922,5.928,5.928,0,0,1,.664,2.832v.523a5.945,5.945,0,0,1-.652,2.82,4.672,4.672,0,0,1-1.84,1.914A5.355,5.355,0,0,1-65.914,0Zm2.344-9.477v7.594h1.133a2.545,2.545,0,0,0,2.1-.9,4.06,4.06,0,0,0,.742-2.57v-.6a4.124,4.124,0,0,0-.719-2.629,2.537,2.537,0,0,0-2.1-.895ZM-55.3.156A4.15,4.15,0,0,1-58.324-.984a4.054,4.054,0,0,1-1.168-3.039v-.219A5.106,5.106,0,0,1-59-6.52a3.612,3.612,0,0,1,1.395-1.547,3.914,3.914,0,0,1,2.059-.543,3.508,3.508,0,0,1,2.73,1.094,4.444,4.444,0,0,1,1,3.1v.922H-57.2a2.1,2.1,0,0,0,.66,1.328,2,2,0,0,0,1.395.5,2.437,2.437,0,0,0,2.039-.945L-52-1.367A3.389,3.389,0,0,1-53.375-.246,4.511,4.511,0,0,1-55.3.156Zm-.258-6.945a1.411,1.411,0,0,0-1.09.455,2.357,2.357,0,0,0-.535,1.3h3.141v-.181a1.681,1.681,0,0,0-.406-1.165A1.456,1.456,0,0,0-55.555-6.789Zm18.078,3A4.025,4.025,0,0,1-38.832-.9,4.76,4.76,0,0,1-42.055.156,4.28,4.28,0,0,1-45.5-1.316,6.038,6.038,0,0,1-46.75-5.359v-.7a6.819,6.819,0,0,1,.578-2.891,4.332,4.332,0,0,1,1.652-1.918,4.629,4.629,0,0,1,2.5-.668,4.637,4.637,0,0,1,3.172,1.055,4.326,4.326,0,0,1,1.391,2.961H-39.8a2.376,2.376,0,0,0-.613-1.6,2.271,2.271,0,0,0-1.605-.5,1.991,1.991,0,0,0-1.754.84,4.707,4.707,0,0,0-.6,2.605V-5.3a5.038,5.038,0,0,0,.559,2.7,1.954,1.954,0,0,0,1.762.852,2.314,2.314,0,0,0,1.621-.5,2.241,2.241,0,0,0,.613-1.535ZM-32.2.156A4.15,4.15,0,0,1-35.223-.984a4.054,4.054,0,0,1-1.168-3.039v-.219A5.106,5.106,0,0,1-35.9-6.52,3.612,3.612,0,0,1-34.5-8.066a3.914,3.914,0,0,1,2.059-.543,3.508,3.508,0,0,1,2.73,1.094,4.444,4.444,0,0,1,1,3.1v.922H-34.1a2.1,2.1,0,0,0,.66,1.328,2,2,0,0,0,1.395.5,2.437,2.437,0,0,0,2.039-.945L-28.9-1.367A3.389,3.389,0,0,1-30.273-.246,4.511,4.511,0,0,1-32.2.156Zm-.258-6.945a1.411,1.411,0,0,0-1.09.455,2.357,2.357,0,0,0-.535,1.3h3.141v-.181a1.681,1.681,0,0,0-.406-1.165A1.456,1.456,0,0,0-32.453-6.789ZM-25.055,0H-27.32V-12h2.266Zm6.438-2.336a.727.727,0,0,0-.41-.652,4.659,4.659,0,0,0-1.316-.426q-3.016-.633-3.016-2.562a2.323,2.323,0,0,1,.934-1.879,3.766,3.766,0,0,1,2.441-.754,4.053,4.053,0,0,1,2.574.758,2.388,2.388,0,0,1,.965,1.969H-18.7a1.092,1.092,0,0,0-.312-.8A1.322,1.322,0,0,0-19.992-7a1.351,1.351,0,0,0-.883.258.814.814,0,0,0-.312.656.7.7,0,0,0,.355.605,3.657,3.657,0,0,0,1.2.4,9.8,9.8,0,0,1,1.422.379A2.336,2.336,0,0,1-16.422-2.43a2.2,2.2,0,0,1-.992,1.871,4.28,4.28,0,0,1-2.562.715,4.47,4.47,0,0,1-1.887-.379,3.166,3.166,0,0,1-1.293-1.039,2.414,2.414,0,0,1-.469-1.426h2.141a1.179,1.179,0,0,0,.445.922,1.766,1.766,0,0,0,1.109.32,1.635,1.635,0,0,0,.98-.246A.766.766,0,0,0-18.617-2.336ZM-12.586,0h-2.266V-8.453h2.266Zm-2.4-10.641a1.112,1.112,0,0,1,.34-.836,1.277,1.277,0,0,1,.926-.328,1.28,1.28,0,0,1,.922.328,1.105,1.105,0,0,1,.344.836A1.108,1.108,0,0,1-12.8-9.8a1.283,1.283,0,0,1-.918.328,1.283,1.283,0,0,1-.918-.328A1.108,1.108,0,0,1-14.984-10.641Zm9.32,9.781A2.831,2.831,0,0,1-7.977.156a2.67,2.67,0,0,1-2.074-.781,3.335,3.335,0,0,1-.73-2.289V-8.453h2.258v5.467q0,1.322,1.2,1.322a1.63,1.63,0,0,0,1.578-.8V-8.453h2.266V0H-5.6ZM2.8-2.336a.727.727,0,0,0-.41-.652,4.659,4.659,0,0,0-1.316-.426q-3.016-.633-3.016-2.562A2.323,2.323,0,0,1-1-7.855a3.766,3.766,0,0,1,2.441-.754,4.053,4.053,0,0,1,2.574.758,2.388,2.388,0,0,1,.965,1.969H2.719a1.092,1.092,0,0,0-.312-.8A1.322,1.322,0,0,0,1.43-7a1.351,1.351,0,0,0-.883.258.814.814,0,0,0-.312.656A.7.7,0,0,0,.59-5.48a3.657,3.657,0,0,0,1.2.4A9.8,9.8,0,0,1,3.211-4.7,2.336,2.336,0,0,1,5-2.43,2.2,2.2,0,0,1,4.008-.559,4.28,4.28,0,0,1,1.445.156,4.47,4.47,0,0,1-.441-.223,3.166,3.166,0,0,1-1.734-1.262,2.414,2.414,0,0,1-2.2-2.687H-.062a1.179,1.179,0,0,0,.445.922,1.766,1.766,0,0,0,1.109.32,1.635,1.635,0,0,0,.98-.246A.766.766,0,0,0,2.8-2.336ZM15.336,0a2.507,2.507,0,0,1-.227-.758,2.732,2.732,0,0,1-2.133.914,3,3,0,0,1-2.059-.719A2.312,2.312,0,0,1,10.1-2.375a2.389,2.389,0,0,1,1-2.062,4.915,4.915,0,0,1,2.879-.727h1.039v-.484a1.393,1.393,0,0,0-.3-.937,1.183,1.183,0,0,0-.949-.352,1.345,1.345,0,0,0-.895.273.929.929,0,0,0-.324.75H10.289a2.268,2.268,0,0,1,.453-1.359,3,3,0,0,1,1.281-.98,4.669,4.669,0,0,1,1.859-.355,3.689,3.689,0,0,1,2.48.785,2.747,2.747,0,0,1,.918,2.207v3.664a4.041,4.041,0,0,0,.336,1.82V0ZM13.469-1.57a1.945,1.945,0,0,0,.922-.223,1.462,1.462,0,0,0,.625-.6V-3.844h-.844q-1.7,0-1.8,1.172l-.008.133a.9.9,0,0,0,.3.7A1.153,1.153,0,0,0,13.469-1.57ZM26.711-4.562,25.492-3.25V0H23.148V-11.375h2.344v5.156l1.031-1.414,2.9-3.742H32.3L28.266-6.32,32.422,0H29.633ZM37.047.156A4.15,4.15,0,0,1,34.02-.984a4.054,4.054,0,0,1-1.168-3.039v-.219a5.106,5.106,0,0,1,.492-2.277,3.612,3.612,0,0,1,1.395-1.547A3.914,3.914,0,0,1,36.8-8.609a3.508,3.508,0,0,1,2.73,1.094,4.444,4.444,0,0,1,1,3.1v.922H35.141a2.1,2.1,0,0,0,.66,1.328,2,2,0,0,0,1.395.5,2.437,2.437,0,0,0,2.039-.945l1.109,1.242A3.389,3.389,0,0,1,38.969-.246,4.511,4.511,0,0,1,37.047.156Zm-.258-6.945a1.411,1.411,0,0,0-1.09.455,2.357,2.357,0,0,0-.535,1.3H38.3v-.181A1.681,1.681,0,0,0,37.9-6.377,1.456,1.456,0,0,0,36.789-6.789ZM44.188,0H41.922V-12h2.266Zm5.023-2.758,1.57-5.7h2.359L50.289,0H48.133L45.281-8.453h2.359ZM56.516,0H54.25V-8.453h2.266Zm-2.4-10.641a1.112,1.112,0,0,1,.34-.836,1.277,1.277,0,0,1,.926-.328,1.28,1.28,0,0,1,.922.328,1.105,1.105,0,0,1,.344.836A1.108,1.108,0,0,1,56.3-9.8a1.283,1.283,0,0,1-.918.328,1.283,1.283,0,0,1-.918-.328A1.108,1.108,0,0,1,54.117-10.641Zm6.336,2.188.07.977a2.951,2.951,0,0,1,2.43-1.133,2.453,2.453,0,0,1,2,.789,3.682,3.682,0,0,1,.672,2.359V0H63.367V-5.406a1.465,1.465,0,0,0-.312-1.043,1.4,1.4,0,0,0-1.039-.324,1.553,1.553,0,0,0-1.43.813V0H58.328V-8.453Z" transform="translate(468 7108)" fill="#12263f"/>
      <text id="K_C_273.15" data-name="K = C + 273.15" transform="translate(468 7136)" fill="#12263f" font-size="16" font-family="Roboto-Regular, Roboto"><tspan x="-51.637" y="0">K = C + 273.15</tspan></text>
    </g>
    <g id="Grupo_958134" data-name="Grupo 958134" transform="translate(-198 171)">
      <path id="Trazado_725275" data-name="Trazado 725275" d="M-79.3,0V-11.375h3.5a5.315,5.315,0,0,1,2.684.676,4.712,4.712,0,0,1,1.848,1.922,5.928,5.928,0,0,1,.664,2.832v.523a5.945,5.945,0,0,1-.652,2.82A4.672,4.672,0,0,1-73.1-.687,5.355,5.355,0,0,1-75.781,0Zm2.344-9.477v7.594h1.133a2.545,2.545,0,0,0,2.1-.9,4.06,4.06,0,0,0,.742-2.57v-.6A4.124,4.124,0,0,0-73.7-8.582a2.537,2.537,0,0,0-2.1-.895Zm11.8,9.633A4.15,4.15,0,0,1-68.191-.984a4.054,4.054,0,0,1-1.168-3.039v-.219a5.106,5.106,0,0,1,.492-2.277,3.612,3.612,0,0,1,1.395-1.547,3.914,3.914,0,0,1,2.059-.543,3.508,3.508,0,0,1,2.73,1.094,4.444,4.444,0,0,1,1,3.1v.922H-67.07a2.1,2.1,0,0,0,.66,1.328,2,2,0,0,0,1.395.5,2.437,2.437,0,0,0,2.039-.945l1.109,1.242A3.389,3.389,0,0,1-63.242-.246,4.511,4.511,0,0,1-65.164.156Zm-.258-6.945a1.411,1.411,0,0,0-1.09.455,2.357,2.357,0,0,0-.535,1.3h3.141v-.181a1.681,1.681,0,0,0-.406-1.165A1.456,1.456,0,0,0-65.422-6.789Zm12.711,2.227L-53.93-3.25V0h-2.344V-11.375h2.344v5.156L-52.9-7.633l2.9-3.742h2.883L-51.156-6.32-47,0h-2.789ZM-42.375.156A4.15,4.15,0,0,1-45.4-.984,4.054,4.054,0,0,1-46.57-4.023v-.219a5.106,5.106,0,0,1,.492-2.277,3.612,3.612,0,0,1,1.395-1.547,3.914,3.914,0,0,1,2.059-.543,3.508,3.508,0,0,1,2.73,1.094,4.444,4.444,0,0,1,1,3.1v.922h-5.383a2.1,2.1,0,0,0,.66,1.328,2,2,0,0,0,1.395.5,2.437,2.437,0,0,0,2.039-.945l1.109,1.242A3.389,3.389,0,0,1-40.453-.246,4.511,4.511,0,0,1-42.375.156Zm-.258-6.945a1.411,1.411,0,0,0-1.09.455,2.357,2.357,0,0,0-.535,1.3h3.141v-.181a1.681,1.681,0,0,0-.406-1.165A1.456,1.456,0,0,0-42.633-6.789ZM-35.234,0H-37.5V-12h2.266Zm5.023-2.758,1.57-5.7h2.359L-29.133,0h-2.156l-2.852-8.453h2.359ZM-22.906,0h-2.266V-8.453h2.266Zm-2.4-10.641a1.112,1.112,0,0,1,.34-.836,1.277,1.277,0,0,1,.926-.328,1.28,1.28,0,0,1,.922.328,1.105,1.105,0,0,1,.344.836,1.108,1.108,0,0,1-.348.844,1.283,1.283,0,0,1-.918.328,1.283,1.283,0,0,1-.918-.328A1.108,1.108,0,0,1-25.3-10.641Zm6.336,2.188.07.977a2.951,2.951,0,0,1,2.43-1.133,2.453,2.453,0,0,1,2,.789A3.682,3.682,0,0,1-13.8-5.461V0h-2.258V-5.406a1.465,1.465,0,0,0-.312-1.043,1.4,1.4,0,0,0-1.039-.324,1.553,1.553,0,0,0-1.43.813V0h-2.258V-8.453ZM-3.2,0A2.507,2.507,0,0,1-3.43-.758,2.732,2.732,0,0,1-5.562.156,3,3,0,0,1-7.621-.562a2.312,2.312,0,0,1-.816-1.812,2.389,2.389,0,0,1,1-2.062,4.915,4.915,0,0,1,2.879-.727h1.039v-.484a1.393,1.393,0,0,0-.3-.937,1.183,1.183,0,0,0-.949-.352,1.345,1.345,0,0,0-.895.273.929.929,0,0,0-.324.75H-8.25A2.268,2.268,0,0,1-7.8-7.273a3,3,0,0,1,1.281-.98,4.669,4.669,0,0,1,1.859-.355,3.689,3.689,0,0,1,2.48.785,2.747,2.747,0,0,1,.918,2.207v3.664A4.041,4.041,0,0,0-.922-.133V0ZM-5.07-1.57a1.945,1.945,0,0,0,.922-.223,1.462,1.462,0,0,0,.625-.6V-3.844h-.844q-1.7,0-1.8,1.172l-.008.133a.9.9,0,0,0,.3.7A1.153,1.153,0,0,0-5.07-1.57ZM11.453-4.648h-4.5V0H4.609V-11.375h7.406v1.9H6.953v2.938h4.5ZM17.859,0a2.507,2.507,0,0,1-.227-.758A2.732,2.732,0,0,1,15.5.156a3,3,0,0,1-2.059-.719,2.312,2.312,0,0,1-.816-1.812,2.389,2.389,0,0,1,1-2.062A4.915,4.915,0,0,1,16.5-5.164h1.039v-.484a1.393,1.393,0,0,0-.3-.937,1.183,1.183,0,0,0-.949-.352,1.345,1.345,0,0,0-.895.273.929.929,0,0,0-.324.75H12.813a2.268,2.268,0,0,1,.453-1.359,3,3,0,0,1,1.281-.98,4.669,4.669,0,0,1,1.859-.355,3.689,3.689,0,0,1,2.48.785A2.747,2.747,0,0,1,19.8-5.617v3.664a4.041,4.041,0,0,0,.336,1.82V0ZM15.992-1.57a1.945,1.945,0,0,0,.922-.223,1.462,1.462,0,0,0,.625-.6V-3.844H16.7q-1.7,0-1.8,1.172l-.008.133a.9.9,0,0,0,.3.7A1.153,1.153,0,0,0,15.992-1.57Zm7.75-5.961A2.818,2.818,0,0,1,26-8.609q2.75,0,2.789,3.2V0H26.531V-5.352a1.57,1.57,0,0,0-.312-1.074,1.34,1.34,0,0,0-1.039-.348,1.537,1.537,0,0,0-1.437.766V0H21.484V-12h2.258Zm11.5,1.2A6.134,6.134,0,0,0,34.43-6.4a1.654,1.654,0,0,0-1.68.867V0H30.492V-8.453h2.133l.063,1.008A2.092,2.092,0,0,1,34.57-8.609a2.366,2.366,0,0,1,.7.1ZM40.219.156A4.15,4.15,0,0,1,37.191-.984a4.054,4.054,0,0,1-1.168-3.039v-.219a5.106,5.106,0,0,1,.492-2.277A3.612,3.612,0,0,1,37.91-8.066a3.914,3.914,0,0,1,2.059-.543A3.508,3.508,0,0,1,42.7-7.516a4.444,4.444,0,0,1,1,3.1v.922H38.313a2.1,2.1,0,0,0,.66,1.328,2,2,0,0,0,1.395.5,2.437,2.437,0,0,0,2.039-.945l1.109,1.242A3.389,3.389,0,0,1,42.141-.246,4.511,4.511,0,0,1,40.219.156Zm-.258-6.945a1.411,1.411,0,0,0-1.09.455,2.357,2.357,0,0,0-.535,1.3h3.141v-.181a1.681,1.681,0,0,0-.406-1.165A1.456,1.456,0,0,0,39.961-6.789Zm7.094-1.664.07.977a2.951,2.951,0,0,1,2.43-1.133,2.453,2.453,0,0,1,2,.789,3.682,3.682,0,0,1,.672,2.359V0H49.969V-5.406a1.465,1.465,0,0,0-.312-1.043,1.4,1.4,0,0,0-1.039-.324,1.553,1.553,0,0,0-1.43.813V0H44.93V-8.453Zm9.086.922A2.818,2.818,0,0,1,58.4-8.609q2.75,0,2.789,3.2V0H58.93V-5.352a1.57,1.57,0,0,0-.312-1.074,1.34,1.34,0,0,0-1.039-.348,1.537,1.537,0,0,0-1.437.766V0H53.883V-12h2.258ZM66.781.156A4.15,4.15,0,0,1,63.754-.984a4.054,4.054,0,0,1-1.168-3.039v-.219a5.106,5.106,0,0,1,.492-2.277,3.612,3.612,0,0,1,1.395-1.547,3.914,3.914,0,0,1,2.059-.543,3.508,3.508,0,0,1,2.73,1.094,4.444,4.444,0,0,1,1,3.1v.922H64.875a2.1,2.1,0,0,0,.66,1.328,2,2,0,0,0,1.395.5,2.437,2.437,0,0,0,2.039-.945l1.109,1.242A3.389,3.389,0,0,1,68.7-.246,4.511,4.511,0,0,1,66.781.156Zm-.258-6.945a1.411,1.411,0,0,0-1.09.455,2.357,2.357,0,0,0-.535,1.3h3.141v-.181a1.681,1.681,0,0,0-.406-1.165A1.456,1.456,0,0,0,66.523-6.789ZM73.922,0H71.656V-8.453h2.266Zm-2.4-10.641a1.112,1.112,0,0,1,.34-.836,1.277,1.277,0,0,1,.926-.328,1.28,1.28,0,0,1,.922.328,1.105,1.105,0,0,1,.344.836,1.108,1.108,0,0,1-.348.844,1.283,1.283,0,0,1-.918.328,1.283,1.283,0,0,1-.918-.328A1.108,1.108,0,0,1,71.523-10.641Zm6.961.109v2.078H79.93V-6.8H78.484v4.219a1.007,1.007,0,0,0,.18.672.9.9,0,0,0,.688.2,3.6,3.6,0,0,0,.664-.055V-.047a4.648,4.648,0,0,1-1.367.2,2.156,2.156,0,0,1-2.422-2.4V-6.8H74.992V-8.453h1.234v-2.078Z" transform="translate(710 6843)" fill="#12263f"/>
      <g id="Grupo_958131" data-name="Grupo 958131" transform="translate(-12 -1)">
        <text id="F_" data-name="F = " transform="translate(646 6880)" fill="#12263f" font-size="16" font-family="Roboto-Regular, Roboto"><tspan x="-12.773" y="0">F = </tspan></text>
        <text id="_32" data-name="+32" transform="translate(796 6880)" fill="#12263f" font-size="16" font-family="Roboto-Regular, Roboto"><tspan x="-13.52" y="0">+32</tspan></text>
        <g id="Grupo_958130" data-name="Grupo 958130" transform="translate(-14 10)">
          <path id="Trazado_722554" data-name="Trazado 722554" d="M762-4831.5H878" transform="translate(-88 11696)" fill="none" stroke="#707070" stroke-width="1"/>
          <text id="_9_K_-_273.15_" data-name="9 (K - 273.15)" transform="translate(733 6861)" fill="#12263f" font-size="16" font-family="Roboto-Regular, Roboto"><tspan x="-47.738" y="0">9 (K - 273.15)</tspan></text>
          <text id="_5" data-name="5" transform="translate(733 6882)" fill="#12263f" font-size="16" font-family="Roboto-Regular, Roboto"><tspan x="-4.492" y="0">5</tspan></text>
        </g>
      </g>
    </g>
    <g id="Grupo_958136" data-name="Grupo 958136" transform="translate(88 91)">
      <path id="Trazado_725277" data-name="Trazado 725277" d="M-79.3,0V-11.375h3.5a5.315,5.315,0,0,1,2.684.676,4.712,4.712,0,0,1,1.848,1.922,5.928,5.928,0,0,1,.664,2.832v.523a5.945,5.945,0,0,1-.652,2.82A4.672,4.672,0,0,1-73.1-.687,5.355,5.355,0,0,1-75.781,0Zm2.344-9.477v7.594h1.133a2.545,2.545,0,0,0,2.1-.9,4.06,4.06,0,0,0,.742-2.57v-.6A4.124,4.124,0,0,0-73.7-8.582a2.537,2.537,0,0,0-2.1-.895Zm11.8,9.633A4.15,4.15,0,0,1-68.191-.984a4.054,4.054,0,0,1-1.168-3.039v-.219a5.106,5.106,0,0,1,.492-2.277,3.612,3.612,0,0,1,1.395-1.547,3.914,3.914,0,0,1,2.059-.543,3.508,3.508,0,0,1,2.73,1.094,4.444,4.444,0,0,1,1,3.1v.922H-67.07a2.1,2.1,0,0,0,.66,1.328,2,2,0,0,0,1.395.5,2.437,2.437,0,0,0,2.039-.945l1.109,1.242A3.389,3.389,0,0,1-63.242-.246,4.511,4.511,0,0,1-65.164.156Zm-.258-6.945a1.411,1.411,0,0,0-1.09.455,2.357,2.357,0,0,0-.535,1.3h3.141v-.181a1.681,1.681,0,0,0-.406-1.165A1.456,1.456,0,0,0-65.422-6.789Zm12.711,2.227L-53.93-3.25V0h-2.344V-11.375h2.344v5.156L-52.9-7.633l2.9-3.742h2.883L-51.156-6.32-47,0h-2.789ZM-42.375.156A4.15,4.15,0,0,1-45.4-.984,4.054,4.054,0,0,1-46.57-4.023v-.219a5.106,5.106,0,0,1,.492-2.277,3.612,3.612,0,0,1,1.395-1.547,3.914,3.914,0,0,1,2.059-.543,3.508,3.508,0,0,1,2.73,1.094,4.444,4.444,0,0,1,1,3.1v.922h-5.383a2.1,2.1,0,0,0,.66,1.328,2,2,0,0,0,1.395.5,2.437,2.437,0,0,0,2.039-.945l1.109,1.242A3.389,3.389,0,0,1-40.453-.246,4.511,4.511,0,0,1-42.375.156Zm-.258-6.945a1.411,1.411,0,0,0-1.09.455,2.357,2.357,0,0,0-.535,1.3h3.141v-.181a1.681,1.681,0,0,0-.406-1.165A1.456,1.456,0,0,0-42.633-6.789ZM-35.234,0H-37.5V-12h2.266Zm5.023-2.758,1.57-5.7h2.359L-29.133,0h-2.156l-2.852-8.453h2.359ZM-22.906,0h-2.266V-8.453h2.266Zm-2.4-10.641a1.112,1.112,0,0,1,.34-.836,1.277,1.277,0,0,1,.926-.328,1.28,1.28,0,0,1,.922.328,1.105,1.105,0,0,1,.344.836,1.108,1.108,0,0,1-.348.844,1.283,1.283,0,0,1-.918.328,1.283,1.283,0,0,1-.918-.328A1.108,1.108,0,0,1-25.3-10.641Zm6.336,2.188.07.977a2.951,2.951,0,0,1,2.43-1.133,2.453,2.453,0,0,1,2,.789A3.682,3.682,0,0,1-13.8-5.461V0h-2.258V-5.406a1.465,1.465,0,0,0-.312-1.043,1.4,1.4,0,0,0-1.039-.324,1.553,1.553,0,0,0-1.43.813V0h-2.258V-8.453ZM-3.2,0A2.507,2.507,0,0,1-3.43-.758,2.732,2.732,0,0,1-5.562.156,3,3,0,0,1-7.621-.562a2.312,2.312,0,0,1-.816-1.812,2.389,2.389,0,0,1,1-2.062,4.915,4.915,0,0,1,2.879-.727h1.039v-.484a1.393,1.393,0,0,0-.3-.937,1.183,1.183,0,0,0-.949-.352,1.345,1.345,0,0,0-.895.273.929.929,0,0,0-.324.75H-8.25A2.268,2.268,0,0,1-7.8-7.273a3,3,0,0,1,1.281-.98,4.669,4.669,0,0,1,1.859-.355,3.689,3.689,0,0,1,2.48.785,2.747,2.747,0,0,1,.918,2.207v3.664A4.041,4.041,0,0,0-.922-.133V0ZM-5.07-1.57a1.945,1.945,0,0,0,.922-.223,1.462,1.462,0,0,0,.625-.6V-3.844h-.844q-1.7,0-1.8,1.172l-.008.133a.9.9,0,0,0,.3.7A1.153,1.153,0,0,0-5.07-1.57ZM11.453-4.648h-4.5V0H4.609V-11.375h7.406v1.9H6.953v2.938h4.5ZM17.859,0a2.507,2.507,0,0,1-.227-.758A2.732,2.732,0,0,1,15.5.156a3,3,0,0,1-2.059-.719,2.312,2.312,0,0,1-.816-1.812,2.389,2.389,0,0,1,1-2.062A4.915,4.915,0,0,1,16.5-5.164h1.039v-.484a1.393,1.393,0,0,0-.3-.937,1.183,1.183,0,0,0-.949-.352,1.345,1.345,0,0,0-.895.273.929.929,0,0,0-.324.75H12.813a2.268,2.268,0,0,1,.453-1.359,3,3,0,0,1,1.281-.98,4.669,4.669,0,0,1,1.859-.355,3.689,3.689,0,0,1,2.48.785A2.747,2.747,0,0,1,19.8-5.617v3.664a4.041,4.041,0,0,0,.336,1.82V0ZM15.992-1.57a1.945,1.945,0,0,0,.922-.223,1.462,1.462,0,0,0,.625-.6V-3.844H16.7q-1.7,0-1.8,1.172l-.008.133a.9.9,0,0,0,.3.7A1.153,1.153,0,0,0,15.992-1.57Zm7.75-5.961A2.818,2.818,0,0,1,26-8.609q2.75,0,2.789,3.2V0H26.531V-5.352a1.57,1.57,0,0,0-.312-1.074,1.34,1.34,0,0,0-1.039-.348,1.537,1.537,0,0,0-1.437.766V0H21.484V-12h2.258Zm11.5,1.2A6.134,6.134,0,0,0,34.43-6.4a1.654,1.654,0,0,0-1.68.867V0H30.492V-8.453h2.133l.063,1.008A2.092,2.092,0,0,1,34.57-8.609a2.366,2.366,0,0,1,.7.1ZM40.219.156A4.15,4.15,0,0,1,37.191-.984a4.054,4.054,0,0,1-1.168-3.039v-.219a5.106,5.106,0,0,1,.492-2.277A3.612,3.612,0,0,1,37.91-8.066a3.914,3.914,0,0,1,2.059-.543A3.508,3.508,0,0,1,42.7-7.516a4.444,4.444,0,0,1,1,3.1v.922H38.313a2.1,2.1,0,0,0,.66,1.328,2,2,0,0,0,1.395.5,2.437,2.437,0,0,0,2.039-.945l1.109,1.242A3.389,3.389,0,0,1,42.141-.246,4.511,4.511,0,0,1,40.219.156Zm-.258-6.945a1.411,1.411,0,0,0-1.09.455,2.357,2.357,0,0,0-.535,1.3h3.141v-.181a1.681,1.681,0,0,0-.406-1.165A1.456,1.456,0,0,0,39.961-6.789Zm7.094-1.664.07.977a2.951,2.951,0,0,1,2.43-1.133,2.453,2.453,0,0,1,2,.789,3.682,3.682,0,0,1,.672,2.359V0H49.969V-5.406a1.465,1.465,0,0,0-.312-1.043,1.4,1.4,0,0,0-1.039-.324,1.553,1.553,0,0,0-1.43.813V0H44.93V-8.453Zm9.086.922A2.818,2.818,0,0,1,58.4-8.609q2.75,0,2.789,3.2V0H58.93V-5.352a1.57,1.57,0,0,0-.312-1.074,1.34,1.34,0,0,0-1.039-.348,1.537,1.537,0,0,0-1.437.766V0H53.883V-12h2.258ZM66.781.156A4.15,4.15,0,0,1,63.754-.984a4.054,4.054,0,0,1-1.168-3.039v-.219a5.106,5.106,0,0,1,.492-2.277,3.612,3.612,0,0,1,1.395-1.547,3.914,3.914,0,0,1,2.059-.543,3.508,3.508,0,0,1,2.73,1.094,4.444,4.444,0,0,1,1,3.1v.922H64.875a2.1,2.1,0,0,0,.66,1.328,2,2,0,0,0,1.395.5,2.437,2.437,0,0,0,2.039-.945l1.109,1.242A3.389,3.389,0,0,1,68.7-.246,4.511,4.511,0,0,1,66.781.156Zm-.258-6.945a1.411,1.411,0,0,0-1.09.455,2.357,2.357,0,0,0-.535,1.3h3.141v-.181a1.681,1.681,0,0,0-.406-1.165A1.456,1.456,0,0,0,66.523-6.789ZM73.922,0H71.656V-8.453h2.266Zm-2.4-10.641a1.112,1.112,0,0,1,.34-.836,1.277,1.277,0,0,1,.926-.328,1.28,1.28,0,0,1,.922.328,1.105,1.105,0,0,1,.344.836,1.108,1.108,0,0,1-.348.844,1.283,1.283,0,0,1-.918.328,1.283,1.283,0,0,1-.918-.328A1.108,1.108,0,0,1,71.523-10.641Zm6.961.109v2.078H79.93V-6.8H78.484v4.219a1.007,1.007,0,0,0,.18.672.9.9,0,0,0,.688.2,3.6,3.6,0,0,0,.664-.055V-.047a4.648,4.648,0,0,1-1.367.2,2.156,2.156,0,0,1-2.422-2.4V-6.8H74.992V-8.453h1.234v-2.078Z" transform="translate(706 6843)" fill="#12263f"/>
      <g id="Grupo_958131-2" data-name="Grupo 958131" transform="translate(20 -1)">
        <text id="F_2" data-name="F = " transform="translate(646 6880)" fill="#12263f" font-size="16" font-family="Roboto-Regular, Roboto"><tspan x="-12.773" y="0">F = </tspan></text>
        <g id="Grupo_958130-2" data-name="Grupo 958130" transform="translate(-14 10)">
          <path id="Trazado_722554-2" data-name="Trazado 722554" d="M762-4831.5h78" transform="translate(-88 11696)" fill="none" stroke="#707070" stroke-width="1"/>
          <text id="_5_F_-_32_" data-name="5 (F - 32)" transform="translate(713 6861)" fill="#12263f" font-size="16" font-family="Roboto-Regular, Roboto"><tspan x="-31.563" y="0">5 (F - 32)</tspan></text>
          <text id="_9" data-name="9" transform="translate(714 6882)" fill="#12263f" font-size="16" font-family="Roboto-Regular, Roboto"><tspan x="-4.492" y="0">9</tspan></text>
        </g>
      </g>
    </g>
    <g id="Grupo_958135" data-name="Grupo 958135" transform="translate(348 171)">
      <path id="Trazado_725279" data-name="Trazado 725279" d="M-83.641,0V-11.375h3.5a5.315,5.315,0,0,1,2.684.676,4.712,4.712,0,0,1,1.848,1.922,5.928,5.928,0,0,1,.664,2.832v.523A5.945,5.945,0,0,1-75.6-2.6a4.672,4.672,0,0,1-1.84,1.914A5.355,5.355,0,0,1-80.117,0ZM-81.3-9.477v7.594h1.133a2.545,2.545,0,0,0,2.1-.9,4.06,4.06,0,0,0,.742-2.57v-.6a4.124,4.124,0,0,0-.719-2.629,2.537,2.537,0,0,0-2.1-.895ZM-69.5.156A4.15,4.15,0,0,1-72.527-.984,4.054,4.054,0,0,1-73.7-4.023v-.219A5.106,5.106,0,0,1-73.2-6.52a3.612,3.612,0,0,1,1.395-1.547,3.914,3.914,0,0,1,2.059-.543,3.508,3.508,0,0,1,2.73,1.094,4.444,4.444,0,0,1,1,3.1v.922h-5.383a2.1,2.1,0,0,0,.66,1.328,2,2,0,0,0,1.395.5,2.437,2.437,0,0,0,2.039-.945L-66.2-1.367A3.389,3.389,0,0,1-67.578-.246,4.511,4.511,0,0,1-69.5.156Zm-.258-6.945a1.411,1.411,0,0,0-1.09.455,2.357,2.357,0,0,0-.535,1.3h3.141v-.181a1.681,1.681,0,0,0-.406-1.165A1.456,1.456,0,0,0-69.758-6.789Zm18.078,3A4.025,4.025,0,0,1-53.035-.9,4.76,4.76,0,0,1-56.258.156,4.28,4.28,0,0,1-59.7-1.316a6.038,6.038,0,0,1-1.254-4.043v-.7a6.819,6.819,0,0,1,.578-2.891,4.332,4.332,0,0,1,1.652-1.918,4.629,4.629,0,0,1,2.5-.668,4.637,4.637,0,0,1,3.172,1.055,4.326,4.326,0,0,1,1.391,2.961h-2.344a2.376,2.376,0,0,0-.613-1.6,2.271,2.271,0,0,0-1.605-.5,1.991,1.991,0,0,0-1.754.84,4.707,4.707,0,0,0-.6,2.605V-5.3a5.038,5.038,0,0,0,.559,2.7,1.954,1.954,0,0,0,1.762.852,2.314,2.314,0,0,0,1.621-.5,2.241,2.241,0,0,0,.613-1.535ZM-46.4.156A4.15,4.15,0,0,1-49.426-.984a4.054,4.054,0,0,1-1.168-3.039v-.219A5.106,5.106,0,0,1-50.1-6.52a3.612,3.612,0,0,1,1.395-1.547,3.914,3.914,0,0,1,2.059-.543,3.508,3.508,0,0,1,2.73,1.094,4.444,4.444,0,0,1,1,3.1v.922H-48.3a2.1,2.1,0,0,0,.66,1.328,2,2,0,0,0,1.395.5,2.437,2.437,0,0,0,2.039-.945L-43.1-1.367A3.389,3.389,0,0,1-44.477-.246,4.511,4.511,0,0,1-46.4.156Zm-.258-6.945a1.411,1.411,0,0,0-1.09.455,2.357,2.357,0,0,0-.535,1.3h3.141v-.181a1.681,1.681,0,0,0-.406-1.165A1.456,1.456,0,0,0-46.656-6.789ZM-39.258,0h-2.266V-12h2.266Zm6.438-2.336a.727.727,0,0,0-.41-.652,4.659,4.659,0,0,0-1.316-.426q-3.016-.633-3.016-2.562a2.323,2.323,0,0,1,.934-1.879,3.766,3.766,0,0,1,2.441-.754,4.053,4.053,0,0,1,2.574.758,2.388,2.388,0,0,1,.965,1.969h-2.258a1.092,1.092,0,0,0-.312-.8A1.322,1.322,0,0,0-34.2-7a1.351,1.351,0,0,0-.883.258.814.814,0,0,0-.312.656.7.7,0,0,0,.355.605,3.657,3.657,0,0,0,1.2.4,9.8,9.8,0,0,1,1.422.379A2.336,2.336,0,0,1-30.625-2.43a2.2,2.2,0,0,1-.992,1.871A4.28,4.28,0,0,1-34.18.156a4.47,4.47,0,0,1-1.887-.379,3.166,3.166,0,0,1-1.293-1.039,2.414,2.414,0,0,1-.469-1.426h2.141a1.179,1.179,0,0,0,.445.922,1.766,1.766,0,0,0,1.109.32,1.635,1.635,0,0,0,.98-.246A.766.766,0,0,0-32.82-2.336ZM-26.789,0h-2.266V-8.453h2.266Zm-2.4-10.641a1.112,1.112,0,0,1,.34-.836,1.277,1.277,0,0,1,.926-.328,1.28,1.28,0,0,1,.922.328,1.105,1.105,0,0,1,.344.836A1.108,1.108,0,0,1-27-9.8a1.283,1.283,0,0,1-.918.328A1.283,1.283,0,0,1-28.84-9.8,1.108,1.108,0,0,1-29.187-10.641Zm9.32,9.781A2.831,2.831,0,0,1-22.18.156a2.67,2.67,0,0,1-2.074-.781,3.335,3.335,0,0,1-.73-2.289V-8.453h2.258v5.467q0,1.322,1.2,1.322a1.63,1.63,0,0,0,1.578-.8V-8.453h2.266V0H-19.8ZM-11.4-2.336a.727.727,0,0,0-.41-.652,4.659,4.659,0,0,0-1.316-.426q-3.016-.633-3.016-2.562a2.323,2.323,0,0,1,.934-1.879,3.766,3.766,0,0,1,2.441-.754,4.053,4.053,0,0,1,2.574.758,2.388,2.388,0,0,1,.965,1.969h-2.258a1.092,1.092,0,0,0-.312-.8A1.322,1.322,0,0,0-12.773-7a1.351,1.351,0,0,0-.883.258.814.814,0,0,0-.312.656.7.7,0,0,0,.355.605,3.657,3.657,0,0,0,1.2.4,9.8,9.8,0,0,1,1.422.379A2.336,2.336,0,0,1-9.2-2.43,2.2,2.2,0,0,1-10.2-.559a4.28,4.28,0,0,1-2.562.715,4.47,4.47,0,0,1-1.887-.379,3.166,3.166,0,0,1-1.293-1.039,2.414,2.414,0,0,1-.469-1.426h2.141a1.179,1.179,0,0,0,.445.922,1.766,1.766,0,0,0,1.109.32,1.635,1.635,0,0,0,.98-.246A.766.766,0,0,0-11.4-2.336ZM1.133,0A2.507,2.507,0,0,1,.906-.758,2.732,2.732,0,0,1-1.227.156,3,3,0,0,1-3.285-.562,2.312,2.312,0,0,1-4.1-2.375a2.389,2.389,0,0,1,1-2.062A4.915,4.915,0,0,1-.227-5.164H.813v-.484a1.393,1.393,0,0,0-.3-.937,1.183,1.183,0,0,0-.949-.352,1.345,1.345,0,0,0-.895.273.929.929,0,0,0-.324.75H-3.914a2.268,2.268,0,0,1,.453-1.359,3,3,0,0,1,1.281-.98A4.669,4.669,0,0,1-.32-8.609a3.689,3.689,0,0,1,2.48.785,2.747,2.747,0,0,1,.918,2.207v3.664a4.041,4.041,0,0,0,.336,1.82V0ZM-.734-1.57a1.945,1.945,0,0,0,.922-.223,1.462,1.462,0,0,0,.625-.6V-3.844H-.031q-1.7,0-1.8,1.172l-.008.133a.9.9,0,0,0,.3.7A1.153,1.153,0,0,0-.734-1.57ZM15.789-4.648h-4.5V0H8.945V-11.375h7.406v1.9H11.289v2.938h4.5ZM22.2,0a2.507,2.507,0,0,1-.227-.758,2.732,2.732,0,0,1-2.133.914,3,3,0,0,1-2.059-.719,2.312,2.312,0,0,1-.816-1.812,2.389,2.389,0,0,1,1-2.062,4.915,4.915,0,0,1,2.879-.727h1.039v-.484a1.393,1.393,0,0,0-.3-.937,1.183,1.183,0,0,0-.949-.352,1.345,1.345,0,0,0-.895.273.929.929,0,0,0-.324.75H17.148A2.268,2.268,0,0,1,17.6-7.273a3,3,0,0,1,1.281-.98,4.669,4.669,0,0,1,1.859-.355,3.689,3.689,0,0,1,2.48.785,2.747,2.747,0,0,1,.918,2.207v3.664a4.041,4.041,0,0,0,.336,1.82V0ZM20.328-1.57a1.945,1.945,0,0,0,.922-.223,1.462,1.462,0,0,0,.625-.6V-3.844h-.844q-1.7,0-1.8,1.172l-.008.133a.9.9,0,0,0,.3.7A1.153,1.153,0,0,0,20.328-1.57Zm7.75-5.961a2.818,2.818,0,0,1,2.258-1.078q2.75,0,2.789,3.2V0H30.867V-5.352a1.57,1.57,0,0,0-.312-1.074,1.34,1.34,0,0,0-1.039-.348,1.537,1.537,0,0,0-1.437.766V0H25.82V-12h2.258Zm11.5,1.2a6.134,6.134,0,0,0-.812-.062,1.654,1.654,0,0,0-1.68.867V0H34.828V-8.453h2.133l.063,1.008a2.092,2.092,0,0,1,1.883-1.164,2.366,2.366,0,0,1,.7.1ZM44.555.156A4.15,4.15,0,0,1,41.527-.984a4.054,4.054,0,0,1-1.168-3.039v-.219a5.106,5.106,0,0,1,.492-2.277,3.612,3.612,0,0,1,1.395-1.547A3.914,3.914,0,0,1,44.3-8.609a3.508,3.508,0,0,1,2.73,1.094,4.444,4.444,0,0,1,1,3.1v.922H42.648a2.1,2.1,0,0,0,.66,1.328,2,2,0,0,0,1.395.5,2.437,2.437,0,0,0,2.039-.945l1.109,1.242A3.389,3.389,0,0,1,46.477-.246,4.511,4.511,0,0,1,44.555.156ZM44.3-6.789a1.411,1.411,0,0,0-1.09.455,2.357,2.357,0,0,0-.535,1.3h3.141v-.181a1.681,1.681,0,0,0-.406-1.165A1.456,1.456,0,0,0,44.3-6.789Zm7.094-1.664.07.977a2.951,2.951,0,0,1,2.43-1.133,2.453,2.453,0,0,1,2,.789,3.682,3.682,0,0,1,.672,2.359V0H54.3V-5.406a1.465,1.465,0,0,0-.312-1.043,1.4,1.4,0,0,0-1.039-.324,1.553,1.553,0,0,0-1.43.813V0H49.266V-8.453Zm9.086.922a2.818,2.818,0,0,1,2.258-1.078q2.75,0,2.789,3.2V0H63.266V-5.352a1.57,1.57,0,0,0-.312-1.074,1.34,1.34,0,0,0-1.039-.348,1.537,1.537,0,0,0-1.437.766V0H58.219V-12h2.258ZM71.117.156A4.15,4.15,0,0,1,68.09-.984a4.054,4.054,0,0,1-1.168-3.039v-.219a5.106,5.106,0,0,1,.492-2.277,3.612,3.612,0,0,1,1.395-1.547,3.914,3.914,0,0,1,2.059-.543A3.508,3.508,0,0,1,73.6-7.516a4.444,4.444,0,0,1,1,3.1v.922H69.211a2.1,2.1,0,0,0,.66,1.328,2,2,0,0,0,1.395.5A2.437,2.437,0,0,0,73.3-2.609l1.109,1.242A3.389,3.389,0,0,1,73.039-.246,4.511,4.511,0,0,1,71.117.156Zm-.258-6.945a1.411,1.411,0,0,0-1.09.455,2.357,2.357,0,0,0-.535,1.3h3.141v-.181a1.681,1.681,0,0,0-.406-1.165A1.456,1.456,0,0,0,70.859-6.789ZM78.258,0H75.992V-8.453h2.266Zm-2.4-10.641a1.112,1.112,0,0,1,.34-.836,1.277,1.277,0,0,1,.926-.328,1.28,1.28,0,0,1,.922.328,1.105,1.105,0,0,1,.344.836,1.108,1.108,0,0,1-.348.844,1.283,1.283,0,0,1-.918.328,1.283,1.283,0,0,1-.918-.328A1.108,1.108,0,0,1,75.859-10.641Zm6.961.109v2.078h1.445V-6.8H82.82v4.219a1.007,1.007,0,0,0,.18.672.9.9,0,0,0,.688.2,3.6,3.6,0,0,0,.664-.055V-.047a4.648,4.648,0,0,1-1.367.2,2.156,2.156,0,0,1-2.422-2.4V-6.8H79.328V-8.453h1.234v-2.078Z" transform="translate(710 6843)" fill="#12263f"/>
      <g id="Grupo_958131-3" data-name="Grupo 958131" transform="translate(21)">
        <text id="F_3" data-name="F = " transform="translate(646 6880)" fill="#12263f" font-size="16" font-family="Roboto-Regular, Roboto"><tspan x="-12.773" y="0">F = </tspan></text>
        <text id="_32-2" data-name="+32" transform="translate(732 6880)" fill="#12263f" font-size="16" font-family="Roboto-Regular, Roboto"><tspan x="-13.52" y="0">+32</tspan></text>
        <g id="Grupo_958130-3" data-name="Grupo 958130" transform="translate(-14 10)">
          <path id="Trazado_722554-3" data-name="Trazado 722554" d="M762-4831.5h53" transform="translate(-88 11696)" fill="none" stroke="#707070" stroke-width="1"/>
          <text id="_9_C_" data-name="9 (C)" transform="translate(701 6861)" fill="#12263f" font-size="16" font-family="Roboto-Regular, Roboto"><tspan x="-17.094" y="0">9 (C)</tspan></text>
          <text id="_5-2" data-name="5" transform="translate(701 6882)" fill="#12263f" font-size="16" font-family="Roboto-Regular, Roboto"><tspan x="-4.492" y="0">5</tspan></text>
        </g>
      </g>
    </g>
    <g id="Grupo_958133" data-name="Grupo 958133" transform="translate(-163 171)">
      <path id="Trazado_725276" data-name="Trazado 725276" d="M-79.3,0V-11.375h3.5a5.315,5.315,0,0,1,2.684.676,4.712,4.712,0,0,1,1.848,1.922,5.928,5.928,0,0,1,.664,2.832v.523a5.945,5.945,0,0,1-.652,2.82A4.672,4.672,0,0,1-73.1-.687,5.355,5.355,0,0,1-75.781,0Zm2.344-9.477v7.594h1.133a2.545,2.545,0,0,0,2.1-.9,4.06,4.06,0,0,0,.742-2.57v-.6A4.124,4.124,0,0,0-73.7-8.582a2.537,2.537,0,0,0-2.1-.895Zm11.8,9.633A4.15,4.15,0,0,1-68.191-.984a4.054,4.054,0,0,1-1.168-3.039v-.219a5.106,5.106,0,0,1,.492-2.277,3.612,3.612,0,0,1,1.395-1.547,3.914,3.914,0,0,1,2.059-.543,3.508,3.508,0,0,1,2.73,1.094,4.444,4.444,0,0,1,1,3.1v.922H-67.07a2.1,2.1,0,0,0,.66,1.328,2,2,0,0,0,1.395.5,2.437,2.437,0,0,0,2.039-.945l1.109,1.242A3.389,3.389,0,0,1-63.242-.246,4.511,4.511,0,0,1-65.164.156Zm-.258-6.945a1.411,1.411,0,0,0-1.09.455,2.357,2.357,0,0,0-.535,1.3h3.141v-.181a1.681,1.681,0,0,0-.406-1.165A1.456,1.456,0,0,0-65.422-6.789ZM-49.43-4.648h-4.5V0h-2.344V-11.375h7.406v1.9H-53.93v2.938h4.5ZM-43.023,0a2.507,2.507,0,0,1-.227-.758,2.732,2.732,0,0,1-2.133.914,3,3,0,0,1-2.059-.719,2.312,2.312,0,0,1-.816-1.812,2.389,2.389,0,0,1,1-2.062,4.915,4.915,0,0,1,2.879-.727h1.039v-.484a1.393,1.393,0,0,0-.3-.937,1.183,1.183,0,0,0-.949-.352,1.345,1.345,0,0,0-.895.273.929.929,0,0,0-.324.75H-48.07a2.268,2.268,0,0,1,.453-1.359,3,3,0,0,1,1.281-.98,4.669,4.669,0,0,1,1.859-.355A3.689,3.689,0,0,1-42-7.824a2.747,2.747,0,0,1,.918,2.207v3.664a4.041,4.041,0,0,0,.336,1.82V0Zm-1.867-1.57a1.945,1.945,0,0,0,.922-.223,1.462,1.462,0,0,0,.625-.6V-3.844h-.844q-1.7,0-1.8,1.172L-46-2.539a.9.9,0,0,0,.3.7A1.153,1.153,0,0,0-44.891-1.57Zm7.75-5.961a2.818,2.818,0,0,1,2.258-1.078q2.75,0,2.789,3.2V0h-2.258V-5.352a1.57,1.57,0,0,0-.312-1.074A1.34,1.34,0,0,0-35.7-6.773a1.537,1.537,0,0,0-1.437.766V0H-39.4V-12h2.258Zm11.5,1.2a6.134,6.134,0,0,0-.812-.062,1.654,1.654,0,0,0-1.68.867V0h-2.258V-8.453h2.133l.063,1.008a2.092,2.092,0,0,1,1.883-1.164,2.366,2.366,0,0,1,.7.1ZM-20.664.156A4.15,4.15,0,0,1-23.691-.984a4.054,4.054,0,0,1-1.168-3.039v-.219a5.106,5.106,0,0,1,.492-2.277,3.612,3.612,0,0,1,1.395-1.547,3.914,3.914,0,0,1,2.059-.543,3.508,3.508,0,0,1,2.73,1.094,4.444,4.444,0,0,1,1,3.1v.922H-22.57a2.1,2.1,0,0,0,.66,1.328,2,2,0,0,0,1.395.5,2.437,2.437,0,0,0,2.039-.945l1.109,1.242A3.389,3.389,0,0,1-18.742-.246,4.511,4.511,0,0,1-20.664.156Zm-.258-6.945a1.411,1.411,0,0,0-1.09.455,2.357,2.357,0,0,0-.535,1.3h3.141v-.181a1.681,1.681,0,0,0-.406-1.165A1.456,1.456,0,0,0-20.922-6.789Zm7.094-1.664.07.977a2.951,2.951,0,0,1,2.43-1.133,2.453,2.453,0,0,1,2,.789,3.682,3.682,0,0,1,.672,2.359V0h-2.258V-5.406a1.465,1.465,0,0,0-.312-1.043,1.4,1.4,0,0,0-1.039-.324,1.553,1.553,0,0,0-1.43.813V0h-2.258V-8.453Zm9.086.922A2.818,2.818,0,0,1-2.484-8.609q2.75,0,2.789,3.2V0H-1.953V-5.352a1.57,1.57,0,0,0-.312-1.074A1.34,1.34,0,0,0-3.3-6.773a1.537,1.537,0,0,0-1.437.766V0H-7V-12h2.258ZM5.9.156A4.15,4.15,0,0,1,2.871-.984,4.054,4.054,0,0,1,1.7-4.023v-.219A5.106,5.106,0,0,1,2.2-6.52,3.612,3.612,0,0,1,3.59-8.066a3.914,3.914,0,0,1,2.059-.543,3.508,3.508,0,0,1,2.73,1.094,4.444,4.444,0,0,1,1,3.1v.922H3.992a2.1,2.1,0,0,0,.66,1.328,2,2,0,0,0,1.395.5,2.437,2.437,0,0,0,2.039-.945L9.2-1.367A3.389,3.389,0,0,1,7.82-.246,4.511,4.511,0,0,1,5.9.156ZM5.641-6.789a1.411,1.411,0,0,0-1.09.455,2.357,2.357,0,0,0-.535,1.3H7.156v-.181A1.681,1.681,0,0,0,6.75-6.377,1.456,1.456,0,0,0,5.641-6.789ZM13.039,0H10.773V-8.453h2.266Zm-2.4-10.641a1.112,1.112,0,0,1,.34-.836,1.277,1.277,0,0,1,.926-.328,1.28,1.28,0,0,1,.922.328,1.105,1.105,0,0,1,.344.836,1.108,1.108,0,0,1-.348.844,1.283,1.283,0,0,1-.918.328,1.283,1.283,0,0,1-.918-.328A1.108,1.108,0,0,1,10.641-10.641Zm6.961.109v2.078h1.445V-6.8H17.6v4.219a1.007,1.007,0,0,0,.18.672.9.9,0,0,0,.688.2,3.6,3.6,0,0,0,.664-.055V-.047a4.648,4.648,0,0,1-1.367.2,2.156,2.156,0,0,1-2.422-2.4V-6.8H14.109V-8.453h1.234v-2.078ZM29.188,0a2.507,2.507,0,0,1-.227-.758,2.732,2.732,0,0,1-2.133.914A3,3,0,0,1,24.77-.562a2.312,2.312,0,0,1-.816-1.812,2.389,2.389,0,0,1,1-2.062,4.915,4.915,0,0,1,2.879-.727h1.039v-.484a1.393,1.393,0,0,0-.3-.937,1.183,1.183,0,0,0-.949-.352,1.345,1.345,0,0,0-.895.273.929.929,0,0,0-.324.75H24.141a2.268,2.268,0,0,1,.453-1.359,3,3,0,0,1,1.281-.98,4.669,4.669,0,0,1,1.859-.355,3.689,3.689,0,0,1,2.48.785,2.747,2.747,0,0,1,.918,2.207v3.664a4.041,4.041,0,0,0,.336,1.82V0ZM27.32-1.57a1.945,1.945,0,0,0,.922-.223,1.462,1.462,0,0,0,.625-.6V-3.844h-.844q-1.7,0-1.8,1.172l-.008.133a.9.9,0,0,0,.3.7A1.153,1.153,0,0,0,27.32-1.57ZM40.563-4.562,39.344-3.25V0H37V-11.375h2.344v5.156l1.031-1.414,2.9-3.742h2.883L42.117-6.32,46.273,0H43.484ZM50.9.156A4.15,4.15,0,0,1,47.871-.984,4.054,4.054,0,0,1,46.7-4.023v-.219A5.106,5.106,0,0,1,47.2-6.52,3.612,3.612,0,0,1,48.59-8.066a3.914,3.914,0,0,1,2.059-.543,3.508,3.508,0,0,1,2.73,1.094,4.444,4.444,0,0,1,1,3.1v.922H48.992a2.1,2.1,0,0,0,.66,1.328,2,2,0,0,0,1.395.5,2.437,2.437,0,0,0,2.039-.945L54.2-1.367A3.389,3.389,0,0,1,52.82-.246,4.511,4.511,0,0,1,50.9.156Zm-.258-6.945a1.411,1.411,0,0,0-1.09.455,2.357,2.357,0,0,0-.535,1.3h3.141v-.181a1.681,1.681,0,0,0-.406-1.165A1.456,1.456,0,0,0,50.641-6.789ZM58.039,0H55.773V-12h2.266Zm5.023-2.758,1.57-5.7h2.359L64.141,0H61.984L59.133-8.453h2.359ZM70.367,0H68.1V-8.453h2.266Zm-2.4-10.641a1.112,1.112,0,0,1,.34-.836,1.277,1.277,0,0,1,.926-.328,1.28,1.28,0,0,1,.922.328,1.105,1.105,0,0,1,.344.836,1.108,1.108,0,0,1-.348.844,1.283,1.283,0,0,1-.918.328,1.283,1.283,0,0,1-.918-.328A1.108,1.108,0,0,1,67.969-10.641ZM74.3-8.453l.07.977A2.951,2.951,0,0,1,76.8-8.609a2.453,2.453,0,0,1,2,.789,3.682,3.682,0,0,1,.672,2.359V0H77.219V-5.406a1.465,1.465,0,0,0-.312-1.043,1.4,1.4,0,0,0-1.039-.324,1.553,1.553,0,0,0-1.43.813V0H72.18V-8.453Z" transform="translate(956 6843)" fill="#12263f"/>
      <g id="Grupo_958132" data-name="Grupo 958132" transform="translate(237 -1)">
        <text id="K_" data-name="K = " transform="translate(646 6880)" fill="#12263f" font-size="16" font-family="Roboto-Regular, Roboto"><tspan x="-13.367" y="0">K = </tspan></text>
        <text id="_273.15" data-name="+273.15" transform="translate(776 6879)" fill="#12263f" font-size="16" font-family="Roboto-Regular, Roboto"><tspan x="-29.102" y="0">+273.15</tspan></text>
        <g id="Grupo_958130-4" data-name="Grupo 958130" transform="translate(-14 10)">
          <path id="Trazado_722554-4" data-name="Trazado 722554" d="M762-4831.5h78" transform="translate(-88 11696)" fill="none" stroke="#707070" stroke-width="1"/>
          <text id="_5_F_-_32_2" data-name="5 (F - 32)" transform="translate(713 6861)" fill="#12263f" font-size="16" font-family="Roboto-Regular, Roboto"><tspan x="-31.563" y="0">5 (F - 32)</tspan></text>
          <text id="_9-2" data-name="9" transform="translate(714 6882)" fill="#12263f" font-size="16" font-family="Roboto-Regular, Roboto"><tspan x="-4.492" y="0">9</tspan></text>
        </g>
      </g>
    </g>
    <path id="Trazado_722555" data-name="Trazado 722555" d="M734-4858v162" transform="translate(-88 11775)" fill="none" stroke="#b0c0d2" stroke-width="1"/>
    <path id="Trazado_722556" data-name="Trazado 722556" d="M734-4858v162" transform="translate(206 11775)" fill="none" stroke="#b0c0d2" stroke-width="1"/>
    <path id="Trazado_722557" data-name="Trazado 722557" d="M499-4789h774" transform="translate(-88 11779)" fill="none" stroke="#b0c0d2" stroke-width="1"/>
  </g>
</svg>
