<svg xmlns="http://www.w3.org/2000/svg" xmlns:xlink="http://www.w3.org/1999/xlink" width="361.241" height="168.699" viewBox="0 0 361.241 168.699">
  <defs>
    <clipPath id="clip-path">
      <rect id="Rectángulo_5082" data-name="Rectángulo 5082" width="59.996" height="60" fill="none"/>
    </clipPath>
    <clipPath id="clip-path-2">
      <rect id="Rectángulo_5093" data-name="Rectángulo 5093" width="155.241" height="138.261" fill="none"/>
    </clipPath>
    <clipPath id="clip-path-3">
      <rect id="Rectángulo_5094" data-name="Rectángulo 5094" width="186.867" height="109.105" fill="none"/>
    </clipPath>
  </defs>
  <g id="Grupo_19296" data-name="Grupo 19296" transform="translate(-987 -4431)">
    <g id="Grupo_18082" data-name="Grupo 18082" transform="translate(987 4431)">
      <g id="Grupo_18081" data-name="Grupo 18081" clip-path="url(#clip-path)">
        <path id="Trazado_63900" data-name="Trazado 63900" d="M49.228,30A19.23,19.23,0,1,1,30,10.773,19.23,19.23,0,0,1,49.228,30" fill="#ffc800"/>
        <path id="Trazado_63901" data-name="Trazado 63901" d="M46.257,43.669a21.085,21.085,0,0,0,3.688-6.377,31.262,31.262,0,0,1,6.014,7.737,31.315,31.315,0,0,1-9.7-1.36" fill="#ffc800"/>
        <path id="Trazado_63902" data-name="Trazado 63902" d="M37.236,49.971A20.324,20.324,0,0,0,40.6,48.418a22.424,22.424,0,0,0,3.041-2.124,32.773,32.773,0,0,1,1.335,9.715,32.392,32.392,0,0,1-7.74-6.038" fill="#ffc800"/>
        <path id="Trazado_63903" data-name="Trazado 63903" d="M26.284,50.936a21.953,21.953,0,0,0,6.238.174c.686-.093,1.14-.19,1.14-.19a31.456,31.456,0,0,1-3.7,9.08,31.78,31.78,0,0,1-3.677-9.064" fill="#ffc800"/>
        <path id="Trazado_63904" data-name="Trazado 63904" d="M16.331,46.261a21.106,21.106,0,0,0,6.377,3.688,31.054,31.054,0,0,1-7.737,6.014,31.371,31.371,0,0,1,1.36-9.7" fill="#ffc800"/>
        <path id="Trazado_63905" data-name="Trazado 63905" d="M10.029,37.24A20.327,20.327,0,0,0,11.582,40.6a22.585,22.585,0,0,0,2.124,3.041A32.788,32.788,0,0,1,3.991,44.98a32.392,32.392,0,0,1,6.038-7.74" fill="#ffc800"/>
        <path id="Trazado_63906" data-name="Trazado 63906" d="M9.064,26.288a19.949,19.949,0,0,0-.3,3.7,25.328,25.328,0,0,0,.13,2.541c.093.687.19,1.141.191,1.141A31.356,31.356,0,0,1,0,29.965a31.919,31.919,0,0,1,9.064-3.677" fill="#ffc800"/>
        <path id="Trazado_63907" data-name="Trazado 63907" d="M13.739,16.335a5.764,5.764,0,0,0-.721.906,20.145,20.145,0,0,0-2.967,5.472,31.031,31.031,0,0,1-6.014-7.737,31.133,31.133,0,0,1,9.7,1.359" fill="#ffc800"/>
        <path id="Trazado_63908" data-name="Trazado 63908" d="M22.76,10.034a21.645,21.645,0,0,0-6.405,3.677A32.773,32.773,0,0,1,15.02,4a32.569,32.569,0,0,1,7.74,6.038" fill="#ffc800"/>
        <path id="Trazado_63909" data-name="Trazado 63909" d="M33.712,9.069A21.907,21.907,0,0,0,27.474,8.9c-.687.092-1.141.19-1.141.19A31.117,31.117,0,0,1,30.035,0a32.077,32.077,0,0,1,3.677,9.065" fill="#ffc800"/>
        <path id="Trazado_63910" data-name="Trazado 63910" d="M43.665,13.743a21.087,21.087,0,0,0-6.377-3.688,31.237,31.237,0,0,1,7.736-6.014,31.343,31.343,0,0,1-1.359,9.7" fill="#ffc800"/>
        <path id="Trazado_63911" data-name="Trazado 63911" d="M49.966,22.764A20.344,20.344,0,0,0,48.414,19.4a22.718,22.718,0,0,0-2.125-3.041A32.791,32.791,0,0,1,56,15.024a32.511,32.511,0,0,1-6.038,7.74" fill="#ffc800"/>
        <path id="Trazado_63912" data-name="Trazado 63912" d="M50.931,33.716a19.943,19.943,0,0,0,.3-3.7,25.066,25.066,0,0,0-.13-2.541c-.092-.687-.19-1.141-.191-1.141A31.47,31.47,0,0,1,60,30.039a32.048,32.048,0,0,1-9.065,3.677" fill="#ffc800"/>
        <path id="Trazado_63913" data-name="Trazado 63913" d="M49.225,30A19.22,19.22,0,0,1,30,49.229H29.97a19.23,19.23,0,0,1,0-38.46H30A19.228,19.228,0,0,1,49.225,30" fill="#ffc800"/>
        <path id="Trazado_63914" data-name="Trazado 63914" d="M55.955,45.023a30.859,30.859,0,0,1-9.692-1.359,21,21,0,0,0,3.679-6.371,31.116,31.116,0,0,1,6.013,7.73" fill="#ffc800"/>
        <path id="Trazado_63915" data-name="Trazado 63915" d="M44.981,56.01a32.385,32.385,0,0,1-7.743-6.038A20.085,20.085,0,0,0,40.6,48.421a21.561,21.561,0,0,0,3.051-2.128,33.13,33.13,0,0,1,1.333,9.717" fill="#ffc800"/>
        <path id="Trazado_63916" data-name="Trazado 63916" d="M33.661,50.92a30.851,30.851,0,0,1-3.692,9.051c0,.013-.013.013-.013.026a31.7,31.7,0,0,1-3.667-9.064c1.757.205,2.885.3,3.68.307,1.32.039,1.731-.114,2.551-.128.692-.089,1.141-.192,1.141-.192" fill="#ffc800"/>
        <path id="Trazado_63917" data-name="Trazado 63917" d="M16.331,46.261a21.106,21.106,0,0,0,6.377,3.688,31.054,31.054,0,0,1-7.737,6.014,31.371,31.371,0,0,1,1.36-9.7" fill="#ffc800"/>
        <path id="Trazado_63918" data-name="Trazado 63918" d="M10.029,37.24A20.327,20.327,0,0,0,11.582,40.6a22.585,22.585,0,0,0,2.124,3.041A32.788,32.788,0,0,1,3.991,44.98a32.392,32.392,0,0,1,6.038-7.74" fill="#ffc800"/>
        <path id="Trazado_63919" data-name="Trazado 63919" d="M9.064,26.288a19.949,19.949,0,0,0-.3,3.7,25.328,25.328,0,0,0,.13,2.541c.093.687.19,1.141.191,1.141A31.356,31.356,0,0,1,0,29.965a31.919,31.919,0,0,1,9.064-3.677" fill="#ffc800"/>
        <path id="Trazado_63920" data-name="Trazado 63920" d="M13.739,16.335a5.764,5.764,0,0,0-.721.906,20.145,20.145,0,0,0-2.967,5.472,31.031,31.031,0,0,1-6.014-7.737,31.133,31.133,0,0,1,9.7,1.359" fill="#ffc800"/>
        <path id="Trazado_63921" data-name="Trazado 63921" d="M22.76,10.034a21.645,21.645,0,0,0-6.405,3.677A32.773,32.773,0,0,1,15.02,4a32.569,32.569,0,0,1,7.74,6.038" fill="#ffc800"/>
        <path id="Trazado_63922" data-name="Trazado 63922" d="M33.712,9.063a37.092,37.092,0,0,0-3.743-.307c-1.282-.025-1.692.128-2.5.14-.679.09-1.14.193-1.14.193A31.326,31.326,0,0,1,29.969.1c.026-.04.038-.064.064-.1a31.96,31.96,0,0,1,3.679,9.063" fill="#ffc800"/>
        <path id="Trazado_63923" data-name="Trazado 63923" d="M43.661,13.743a21.224,21.224,0,0,0-6.372-3.692A31.742,31.742,0,0,1,45.02,4.038a30.9,30.9,0,0,1-1.359,9.7" fill="#ffc800"/>
        <path id="Trazado_63924" data-name="Trazado 63924" d="M56.007,15.024a32.808,32.808,0,0,1-6.039,7.744A20.041,20.041,0,0,0,48.417,19.4a23.739,23.739,0,0,0-2.128-3.039,32.669,32.669,0,0,1,9.718-1.333" fill="#ffc800"/>
        <path id="Trazado_63925" data-name="Trazado 63925" d="M51.237,30.024c.052-.936-.115-1.846-.128-2.551-.1-.679-.192-1.141-.192-1.141a31.6,31.6,0,0,1,9.076,3.7,31.612,31.612,0,0,1-9.063,3.679,19.99,19.99,0,0,0,.307-3.692" fill="#ffc800"/>
        <path id="Trazado_63926" data-name="Trazado 63926" d="M33.712,9.063a37.092,37.092,0,0,0-3.743-.307V.1c.026-.04.038-.064.064-.1a31.96,31.96,0,0,1,3.679,9.063" fill="#ffdc00"/>
        <path id="Trazado_63927" data-name="Trazado 63927" d="M32.52,51.112c.692-.089,1.141-.192,1.141-.192a30.851,30.851,0,0,1-3.692,9.051V51.24c1.321.039,1.731-.114,2.551-.128" fill="#ffdc00"/>
        <path id="Trazado_63928" data-name="Trazado 63928" d="M30,49.229h-.026V10.769H30a19.23,19.23,0,0,1,0,38.46" fill="#ffdc00"/>
        <path id="Trazado_63929" data-name="Trazado 63929" d="M43.648,46.292a33.13,33.13,0,0,1,1.333,9.717,32.4,32.4,0,0,1-7.743-6.037A20.187,20.187,0,0,0,40.6,48.42a21.561,21.561,0,0,0,3.051-2.128" fill="#ffdc00"/>
        <path id="Trazado_63930" data-name="Trazado 63930" d="M43.661,13.743a21.224,21.224,0,0,0-6.372-3.692A31.742,31.742,0,0,1,45.02,4.038a30.9,30.9,0,0,1-1.359,9.7" fill="#ffdc00"/>
        <path id="Trazado_63931" data-name="Trazado 63931" d="M55.955,45.023a30.859,30.859,0,0,1-9.692-1.359,21,21,0,0,0,3.679-6.371,31.116,31.116,0,0,1,6.013,7.73" fill="#ffdc00"/>
        <path id="Trazado_63932" data-name="Trazado 63932" d="M48.417,19.4a23.823,23.823,0,0,0-2.128-3.038,32.667,32.667,0,0,1,9.718-1.333,32.808,32.808,0,0,1-6.039,7.744A20.161,20.161,0,0,0,48.417,19.4" fill="#ffdc00"/>
        <path id="Trazado_63933" data-name="Trazado 63933" d="M51.237,30.024c.052-.936-.115-1.846-.128-2.551-.1-.679-.192-1.141-.192-1.141a31.6,31.6,0,0,1,9.076,3.7,31.612,31.612,0,0,1-9.063,3.679,19.99,19.99,0,0,0,.307-3.692" fill="#ffdc00"/>
        <path id="Trazado_63934" data-name="Trazado 63934" d="M47.02,30h-2A15.042,15.042,0,0,0,30,14.974l-.022-2H30A17.044,17.044,0,0,1,47.02,30" fill="#fff"/>
        <path id="Trazado_63935" data-name="Trazado 63935" d="M41.11,30A11.112,11.112,0,0,1,30,41.114h-.026a11.115,11.115,0,0,1,0-22.23H30A11.12,11.12,0,0,1,41.11,30" fill="#ffc800"/>
        <path id="Trazado_63936" data-name="Trazado 63936" d="M29.969,18.884V41.113a11.115,11.115,0,0,1,0-22.229" fill="#ffdc00"/>
      </g>
    </g>
    <g id="Grupo_18088" data-name="Grupo 18088" transform="translate(1193 4461)">
      <g id="Grupo_18087" data-name="Grupo 18087" clip-path="url(#clip-path-2)">
        <path id="Trazado_64015" data-name="Trazado 64015" d="M191.314,180.016H120.97V158.187a24.256,24.256,0,0,1,24.255-24.259h46.089Z" transform="translate(-53.052 -58.735)" fill="#c8f5f0" fill-rule="evenodd"/>
        <path id="Trazado_64016" data-name="Trazado 64016" d="M123.707,45.121,100.8,38.074a41.226,41.226,0,0,0-17.574-1.459l-16.545,2.2a41.2,41.2,0,0,1-21.065-2.707L0,25.458v4.536L8.336,52.4H123.707Z" transform="translate(0 -11.165)" fill="#8cbe69" fill-rule="evenodd"/>
        <path id="Trazado_64017" data-name="Trazado 64017" d="M100.8,33.674a41.235,41.235,0,0,0-17.574-1.46l-16.545,2.2a41.2,41.2,0,0,1-21.065-2.707L0,15.427v5.632L42.869,38.446a48.427,48.427,0,0,0,24.775,3.186l16.533-2.206a34.05,34.05,0,0,1,14.485,1.2l8.064,2.483a8.586,8.586,0,0,0,10.046-4.446l.033-.065Z" transform="translate(0 -6.766)" fill="#aad264" fill-rule="evenodd"/>
        <path id="Trazado_64018" data-name="Trazado 64018" d="M85.28,148.336l6.362-7.279-15.673-5.222a12.115,12.115,0,0,1-7.864-8.316L59.437,95.737a12.127,12.127,0,0,1,11.7-15.318H123.59l-.414-14.554H54.9a62.958,62.958,0,0,1-13.684-1.5l-36.9-8.2,57.4,92.177Z" transform="translate(-1.895 -24.629)" fill="#d1c3aa" fill-rule="evenodd"/>
        <path id="Trazado_64019" data-name="Trazado 64019" d="M128.669,154.321,113,149.1a12.116,12.116,0,0,1-7.864-8.316L96.463,109a12.126,12.126,0,0,1,11.7-15.318h52.453l-.145-5.17a7.265,7.265,0,0,0-5.122-2.109H108.164a19.407,19.407,0,0,0-18.719,24.511L98.109,142.7A19.358,19.358,0,0,0,110.7,156l15.671,5.226a7.276,7.276,0,0,0,9.207-4.605c.031-.1.04-.2.068-.308Z" transform="translate(-38.922 -37.893)" fill="#e6d7b9" fill-rule="evenodd"/>
        <path id="Trazado_64020" data-name="Trazado 64020" d="M49.295,155.825l-7.287-36.062A29.112,29.112,0,0,0,32.1,107.371l-4.385-3.133A29.088,29.088,0,0,1,18.6,93.57L0,73.236V133.22l46.844,22.6Z" transform="translate(0 -32.118)" fill="#beaa96" fill-rule="evenodd"/>
        <path id="Trazado_64021" data-name="Trazado 64021" d="M42.009,110.829A29.134,29.134,0,0,0,32.1,98.437L27.715,95.3A29.081,29.081,0,0,1,18.6,84.635L0,52.865V64.3L12.087,87.89a36.556,36.556,0,0,0,11.4,13.336l4.389,3.132a21.807,21.807,0,0,1,7.43,9.291l13.992,33.242h5.267Z" transform="translate(0 -23.184)" fill="#d1c3aa" fill-rule="evenodd"/>
        <path id="Trazado_64022" data-name="Trazado 64022" d="M220.142,34.515A26.634,26.634,0,0,0,208.7,50.088l-14.286,53.056,15.919,11.826L240.5,69.6V30.548Z" transform="translate(-85.263 -13.397)" fill="#beaa96" fill-rule="evenodd"/>
        <path id="Trazado_64023" data-name="Trazado 64023" d="M240.5,19.85l-20.363,9.973A26.632,26.632,0,0,0,208.7,45.4L194.415,98.452l5.138,5.14a7.249,7.249,0,0,0,1.889-3.246l14.286-53.06a19.358,19.358,0,0,1,8.316-11.327l16.46-10.1Z" transform="translate(-85.262 -8.705)" fill="#d1c3aa" fill-rule="evenodd"/>
        <path id="Trazado_64024" data-name="Trazado 64024" d="M191.287,147.032a13.124,13.124,0,0,0-16.172,5.807l-6.6,26.58H198.2l30.949-12.128V127.035l-23.072,16.14a13.263,13.263,0,0,1-14.786,3.857" transform="translate(-73.904 -55.712)" fill="#3c8c82" fill-rule="evenodd"/>
        <path id="Trazado_64025" data-name="Trazado 64025" d="M224.729,113.541l-23.072,23.716a13.264,13.264,0,0,1-14.787,3.857l-.007,0a13.273,13.273,0,0,0-16.225,5.918L158.446,173.5H164.1L176.983,150.6a5.958,5.958,0,0,1,7.324-2.674c.02.007.044.02.068.028a20.592,20.592,0,0,0,22.837-5.991l17.516-20.841Z" transform="translate(-69.488 -49.794)" fill="#69b47d" fill-rule="evenodd"/>
        <path id="Trazado_64026" data-name="Trazado 64026" d="M37.615,197.441a16.988,16.988,0,0,0-9.227-5.678L0,185.771v14.554a4.849,4.849,0,0,0,4.849,4.853H43.662Z" transform="translate(0 -81.472)" fill="#3c8c82" fill-rule="evenodd"/>
        <path id="Trazado_64027" data-name="Trazado 64027" d="M37.615,196.524a16.988,16.988,0,0,0-9.227-5.678L0,183.68v8.081l26.755,6.176a9.777,9.777,0,0,1,5.27,3.243l2.565,3.081h9.473Z" transform="translate(0 -80.555)" fill="#69b47d" fill-rule="evenodd"/>
        <path id="Trazado_64028" data-name="Trazado 64028" d="M212.452,195.781l-9.392,9.4h36.381a4.853,4.853,0,0,0,4.854-4.853V185.771l-25.38,6.259a14.638,14.638,0,0,0-6.462,3.751" transform="translate(-89.054 -81.472)" fill="#3c576c" fill-rule="evenodd"/>
        <path id="Trazado_64029" data-name="Trazado 64029" d="M212.452,195.781l-9.392,9.4h10.286l4.251-4.251a7.29,7.29,0,0,1,3.232-1.874l23.467-6v-7.279l-25.38,6.259a14.638,14.638,0,0,0-6.462,3.751" transform="translate(-89.054 -81.472)" fill="#3c8c82" fill-rule="evenodd"/>
        <path id="Trazado_64030" data-name="Trazado 64030" d="M124.419,31.64l-12.782-3.933-1.776-6.516a2.426,2.426,0,0,0-4.681,0L104.04,25.37l-2.528-.777a43.684,43.684,0,0,0-15.27-1.861L83.179,11.489a2.427,2.427,0,0,0-4.682,0l-3.434,12.6-6.516.869L66.2,16.342a2.427,2.427,0,0,0-4.683,0l-2.5,9.178A38.679,38.679,0,0,1,46.548,22.7l-7.213-2.986-2.244-8.227a2.426,2.426,0,0,0-4.681,0L31.1,16.3l-4.244-1.756L23.378,1.789a2.427,2.427,0,0,0-4.683,0l-2.3,8.418L4.85,5.418A3.505,3.505,0,0,0,0,8.661L44.7,27.19A43.763,43.763,0,0,0,67,30.059L83.54,27.853a38.846,38.846,0,0,1,16.551,1.378L123,36.278a2.4,2.4,0,0,0,.711.111,2.428,2.428,0,0,0,.711-4.748" transform="translate(0 0)" fill="#6ea573" fill-rule="evenodd"/>
        <path id="Trazado_64031" data-name="Trazado 64031" d="M132.458,160.537a2.3,2.3,0,0,1-.769-.126l-15.671-5.221a14.52,14.52,0,0,1-9.437-9.978l-8.67-31.782a14.553,14.553,0,0,1,14.042-18.383h47.185a2.426,2.426,0,1,1,0,4.852H111.954a9.7,9.7,0,0,0-9.359,12.255l8.668,31.782a9.669,9.669,0,0,0,6.292,6.653l15.671,5.224a2.425,2.425,0,0,1-.767,4.726" transform="translate(-42.712 -41.684)" fill="#beaa96" fill-rule="evenodd"/>
        <path id="Trazado_64032" data-name="Trazado 64032" d="M44.243,101.409A31.534,31.534,0,0,0,33.51,87.987l-4.386-3.134a26.755,26.755,0,0,1-8.36-9.779L0,33.538v10.85L16.428,77.244A31.663,31.663,0,0,0,26.3,88.8l4.388,3.134a26.668,26.668,0,0,1,9.08,11.356l14.789,35.123h5.264Z" transform="translate(0 -14.708)" fill="#917d6e" fill-rule="evenodd"/>
        <path id="Trazado_64033" data-name="Trazado 64033" d="M238.609,17.375a3.165,3.165,0,0,0-4.854-2.676L216.943,25.3a29.042,29.042,0,0,0-12.482,16.989L190.179,95.345a2.427,2.427,0,1,0,4.687,1.261l14.281-53.056A24.21,24.21,0,0,1,219.535,29.4Z" transform="translate(-83.368 -6.23)" fill="#917d6e" fill-rule="evenodd"/>
        <path id="Trazado_64034" data-name="Trazado 64034" d="M220.376,100.1l-24.922,29.7a10.866,10.866,0,0,1-12.091,3.146,15.611,15.611,0,0,0-19.187,7L148.52,167.606h5.573L168.4,142.323a10.789,10.789,0,0,1,13.265-4.838,15.731,15.731,0,0,0,17.5-4.563l21.216-25.276Z" transform="translate(-65.135 -43.899)" fill="#3c576c" fill-rule="evenodd"/>
        <path id="Trazado_64035" data-name="Trazado 64035" d="M230.039,99.368l9.7,38.809h-19.4Z" transform="translate(-96.631 -43.579)" fill="#3c8c82" fill-rule="evenodd"/>
        <path id="Trazado_64036" data-name="Trazado 64036" d="M230.039,99.368l3.638,14.554-6.063,24.255h-7.275Z" transform="translate(-96.631 -43.579)" fill="#69b47d" fill-rule="evenodd"/>
        <path id="Trazado_64037" data-name="Trazado 64037" d="M197.374,146.893l-7.279,26.681h14.554Z" transform="translate(-83.368 -64.421)" fill="#3c8c82" fill-rule="evenodd"/>
        <path id="Trazado_64038" data-name="Trazado 64038" d="M33.2,125.291l-7.275,26.681H40.477Z" transform="translate(-11.369 -54.948)" fill="#3c8c82" fill-rule="evenodd"/>
        <path id="Trazado_64039" data-name="Trazado 64039" d="M17.811,132.035a2.427,2.427,0,1,1-2.427-2.423,2.428,2.428,0,0,1,2.427,2.423" transform="translate(-5.682 -56.843)" fill="#d1c3aa" fill-rule="evenodd"/>
        <path id="Trazado_64040" data-name="Trazado 64040" d="M246.792,75.873a2.426,2.426,0,1,1-2.426-2.428,2.427,2.427,0,0,1,2.426,2.428" transform="translate(-106.105 -32.21)" fill="#d1c3aa" fill-rule="evenodd"/>
        <path id="Trazado_64041" data-name="Trazado 64041" d="M190.625,205.482a2.426,2.426,0,1,1-2.425-2.422,2.425,2.425,0,0,1,2.425,2.422" transform="translate(-81.472 -89.054)" fill="#69b47d" fill-rule="evenodd"/>
        <path id="Trazado_64042" data-name="Trazado 64042" d="M259.749,93.152a2.426,2.426,0,1,1-2.425-2.426,2.428,2.428,0,0,1,2.425,2.426" transform="translate(-111.787 -39.789)" fill="#917d6e" fill-rule="evenodd"/>
        <path id="Trazado_64043" data-name="Trazado 64043" d="M30.237,233.3a7.281,7.281,0,0,0,7.279,7.279H144.243a7.28,7.28,0,0,0,7.279-7.279Z" transform="translate(-13.261 -102.314)" fill="#a0e6e1" fill-rule="evenodd"/>
        <path id="Trazado_64044" data-name="Trazado 64044" d="M152.283,233.829H6.744a2.425,2.425,0,0,1,0-4.849H152.283a2.425,2.425,0,1,1,0,4.849" transform="translate(-1.895 -100.421)" fill="#69c3be" fill-rule="evenodd"/>
        <path id="Trazado_64045" data-name="Trazado 64045" d="M39.48,167.469a19.5,19.5,0,0,0-10.535-6.482l-4.69-1.11V152.5h4.854a2.426,2.426,0,0,0,2.337-3.065l-7.275-26.681a2.427,2.427,0,0,0-4.683,0l-7.275,26.681a2.425,2.425,0,0,0,2.341,3.065H19.4v6.225L0,154.155v4.982l27.844,6.571a14.7,14.7,0,0,1,7.933,4.894l5.3,6.158h6.4ZM21.829,132.614l4.1,15.037h-8.2Z" transform="translate(0 -53.052)" fill="#3c576c" fill-rule="evenodd"/>
        <path id="Trazado_64046" data-name="Trazado 64046" d="M217.307,148.1v-9.392h7.275a2.425,2.425,0,0,0,2.353-3.015l-9.7-38.809a2.426,2.426,0,0,0-4.707,0l-9.7,38.809a2.425,2.425,0,0,0,2.353,3.015h7.275v10.717l-1.76.48a17.032,17.032,0,0,0-7.54,4.374l-5.255,5.255v-6.272h4.853a2.423,2.423,0,0,0,2.34-3.064l-7.277-26.681a2.423,2.423,0,0,0-4.678,0l-7.28,26.681a2.429,2.429,0,0,0,2.342,3.064h4.851V165.39H198.9l7.682-7.682a12.16,12.16,0,0,1,5.385-3.124l24.743-6.747V142.81Zm-25.934.31,4.1-15.038,4.1,15.038Zm16.911-14.554,6.6-26.385,6.6,26.385Z" transform="translate(-81.472 -41.684)" fill="#2d2d4b" fill-rule="evenodd"/>
      </g>
    </g>
    <g id="Grupo_18090" data-name="Grupo 18090" transform="translate(987 4490.594)">
      <g id="Grupo_18089" data-name="Grupo 18089" clip-path="url(#clip-path-3)">
        <path id="Trazado_64047" data-name="Trazado 64047" d="M181.03,33.189l-63.3-31.647a14.586,14.586,0,0,0-13.449.205l-25.445,13.7a14.19,14.19,0,0,1-12,.68h-.005a14.6,14.6,0,0,0-15.191,2.7l-47.771,43A11.683,11.683,0,0,0,0,70.507v8.061l145.871,4.575Z" transform="translate(0 0)" fill="#ffe68c" fill-rule="evenodd"/>
        <path id="Trazado_64048" data-name="Trazado 64048" d="M152.876,42.855l-13.335-3.333a23.368,23.368,0,0,0-18.621,3.224L94.478,60.374H66.925a23.355,23.355,0,0,0-17.362,7.733L30.244,89.576h113.87Z" transform="translate(-9.805 -12.586)" fill="#d2e673" fill-rule="evenodd"/>
        <path id="Trazado_64049" data-name="Trazado 64049" d="M81.954,59.53,66.734,71.983a26.351,26.351,0,0,1-12.318,5.582L35.66,80.689a46.6,46.6,0,0,0-17.4,6.669L0,102.69v5.84l128.474,2.92-2.922-55.476-17.519-3.186A32.086,32.086,0,0,0,81.954,59.53" transform="translate(0 -16.945)" fill="#d2e673" fill-rule="evenodd"/>
        <path id="Trazado_64050" data-name="Trazado 64050" d="M240.816,55.084,207.324,42.551a32.117,32.117,0,0,0-23.61,6.839l-17.3,13.84,74.4,9.24Z" transform="translate(-53.949 -13.73)" fill="#8cbe69" fill-rule="evenodd"/>
        <path id="Trazado_64051" data-name="Trazado 64051" d="M240.816,49.21l-33.492-6.659a32.118,32.118,0,0,0-23.61,6.84l-17.3,13.839,12.136,1.507,10.631-8.5a23.234,23.234,0,0,1,17.172-4.98l34.461,3.83Z" transform="translate(-53.949 -13.731)" fill="#d2e673" fill-rule="evenodd"/>
        <path id="Trazado_64052" data-name="Trazado 64052" d="M86.492,85.873A32.114,32.114,0,0,0,63.706,91.7L29.049,116.737a29.224,29.224,0,0,1-17.1,5.528H97.31V87.228Z" transform="translate(-3.874 -27.758)" fill="#8cbe69" fill-rule="evenodd"/>
        <path id="Trazado_64053" data-name="Trazado 64053" d="M63.707,91.7,29.05,116.737a29.227,29.227,0,0,1-17.1,5.528h24.4L68.832,98.8a23.327,23.327,0,0,1,16.576-4.237l10.817,1.35a8.714,8.714,0,0,0,1.086.025V87.228L86.493,85.873A32.114,32.114,0,0,0,63.707,91.7" transform="translate(-3.875 -27.758)" fill="#d2e673" fill-rule="evenodd"/>
        <path id="Trazado_64054" data-name="Trazado 64054" d="M139.026,74.962l-8.306-1.605A23.377,23.377,0,0,0,112.55,77.4L68.042,109.771a43.8,43.8,0,0,1-25.758,8.379h96Z" transform="translate(-9.805 -23.644)" fill="#6ea573" fill-rule="evenodd"/>
        <path id="Trazado_64055" data-name="Trazado 64055" d="M118.325,77.4,73.817,109.771a43.8,43.8,0,0,1-25.759,8.379H77.036c.645-.431,1.3-.835,1.931-1.3l44.51-32.367a14.6,14.6,0,0,1,11.354-2.528l8.306,1.605a8.479,8.479,0,0,0,1.512.13l.152-8.732-8.306-1.605a23.372,23.372,0,0,0-18.17,4.042" transform="translate(-15.58 -23.644)" fill="#8cbe69" fill-rule="evenodd"/>
        <path id="Trazado_64056" data-name="Trazado 64056" d="M218.468,81.982,185.842,66.161a29.189,29.189,0,0,0-25.019,6.4l-40.546,34.756a35.051,35.051,0,0,1-22.8,8.433l120.99-2.921Z" transform="translate(-31.601 -21.245)" fill="#6ea573" fill-rule="evenodd"/>
        <path id="Trazado_64057" data-name="Trazado 64057" d="M218.468,73.03l-32.626-6.868a29.188,29.188,0,0,0-25.019,6.4l-40.546,34.755a35.051,35.051,0,0,1-22.8,8.433H123.7c.768-.583,1.547-1.155,2.28-1.785l40.542-34.756a20.537,20.537,0,0,1,17.508-4.479l34.436,7.25Z" transform="translate(-31.601 -21.245)" fill="#8cbe69" fill-rule="evenodd"/>
        <path id="Trazado_64058" data-name="Trazado 64058" d="M126.077,51.7l-17.519-3.186A34.956,34.956,0,0,0,80.1,55.864L64.885,68.32a23.462,23.462,0,0,1-10.949,4.96L35.18,76.408A49.355,49.355,0,0,0,16.693,83.49L0,94.111v6.922L19.823,88.418A43.642,43.642,0,0,1,36.137,82.17l18.757-3.128a29.3,29.3,0,0,0,13.69-6.2L83.8,60.389a29.169,29.169,0,0,1,23.712-6.13l17.519,3.186a2.919,2.919,0,0,0,1.048-5.744" transform="translate(0 -15.543)" fill="#aad264" fill-rule="evenodd"/>
        <path id="Trazado_64059" data-name="Trazado 64059" d="M239.415,47.806a6.568,6.568,0,0,0-5.842-6.527l-27.327-3.038a34.861,34.861,0,0,0-25.756,7.466l-17.3,13.834a2.922,2.922,0,0,0,3.65,4.565l17.3-13.837A28.959,28.959,0,0,1,205.6,44.048Z" transform="translate(-52.549 -12.327)" fill="#6ea573" fill-rule="evenodd"/>
        <path id="Trazado_64060" data-name="Trazado 64060" d="M9.483,123.78H7.241a2.919,2.919,0,1,1,0-5.837H9.483a26.112,26.112,0,0,0,15.381-4.975L59.519,87.939a34.948,34.948,0,0,1,24.863-6.365L95.2,82.925a2.924,2.924,0,0,1,2.534,3.262,2.957,2.957,0,0,1-3.258,2.535L83.658,87.368a29.206,29.206,0,0,0-20.719,5.3L28.282,117.7a31.912,31.912,0,0,1-18.8,6.082" transform="translate(-1.4 -26.357)" fill="#6ea573" fill-rule="evenodd"/>
        <path id="Trazado_64061" data-name="Trazado 64061" d="M30.244,148.477a8.762,8.762,0,0,0,8.762,8.762H167.475a8.759,8.759,0,0,0,8.757-8.762Z" transform="translate(-9.805 -48.134)" fill="#a7d9ff" fill-rule="evenodd"/>
        <path id="Trazado_64062" data-name="Trazado 64062" d="M181.03,148.981H5.84A5.839,5.839,0,0,1,0,143.14l4.506-2.117H179.934l6.933,2.117a5.836,5.836,0,0,1-5.837,5.84" transform="translate(0 -45.717)" fill="#6bb2ff" fill-rule="evenodd"/>
        <path id="Trazado_64063" data-name="Trazado 64063" d="M131.042,73.447c.034-.024.067-.053.1-.083a26.419,26.419,0,0,1,22.491-5.743l33.233,7v-5.97l-32.03-6.741a32.308,32.308,0,0,0-26.4,6.136L121.473,66.7a26.369,26.369,0,0,0-20.445,4.546L56.52,103.617a40.646,40.646,0,0,1-24.046,7.818H0v5.837H186.867v-5.837H86.087a37.844,37.844,0,0,0,4.491-3.3ZM65.878,111.435H55.1a48.358,48.358,0,0,0,4.856-3.1l44.51-32.372a20.524,20.524,0,0,1,15.9-3.542l2.368.459L86.778,103.7a32.159,32.159,0,0,1-20.9,7.733" transform="translate(0 -19.849)" fill="#3c7864" fill-rule="evenodd"/>
        <path id="Trazado_64064" data-name="Trazado 64064" d="M54.886,47.828h-5.84a5.838,5.838,0,0,1,0-11.677h5.84a5.838,5.838,0,1,1,0,11.677" transform="translate(-14.008 -11.72)" fill="#ffc878" fill-rule="evenodd"/>
        <path id="Trazado_64065" data-name="Trazado 64065" d="M206.1,21.9h-5.84a5.838,5.838,0,0,1,0-11.677h5.84a5.838,5.838,0,1,1,0,11.677" transform="translate(-63.029 -3.316)" fill="#ffc878" fill-rule="evenodd"/>
        <path id="Trazado_64066" data-name="Trazado 64066" d="M105.449,47.828H87.93a5.838,5.838,0,1,1,0-11.677h17.519a5.838,5.838,0,0,1,0,11.677" transform="translate(-26.612 -11.72)" fill="#ffc878" fill-rule="evenodd"/>
        <path id="Trazado_64067" data-name="Trazado 64067" d="M221.859,90.912A2.919,2.919,0,1,1,218.944,88a2.916,2.916,0,0,1,2.915,2.915" transform="translate(-70.031 -28.527)" fill="#8cbe69" fill-rule="evenodd"/>
        <path id="Trazado_64068" data-name="Trazado 64068" d="M247.782,108.2a2.919,2.919,0,1,1-2.92-2.92,2.922,2.922,0,0,1,2.92,2.92" transform="translate(-78.434 -34.128)" fill="#3c7864" fill-rule="evenodd"/>
        <path id="Trazado_64069" data-name="Trazado 64069" d="M200.26,103.875a2.919,2.919,0,1,1-2.922-2.92,2.921,2.921,0,0,1,2.922,2.92" transform="translate(-63.029 -32.728)" fill="#d2e673" fill-rule="evenodd"/>
        <path id="Trazado_64070" data-name="Trazado 64070" d="M118.175,121.153a2.921,2.921,0,1,1-2.922-2.92,2.923,2.923,0,0,1,2.922,2.92" transform="translate(-36.416 -38.329)" fill="#d2e673" fill-rule="evenodd"/>
      </g>
    </g>
  </g>
</svg>
