<svg xmlns="http://www.w3.org/2000/svg" xmlns:xlink="http://www.w3.org/1999/xlink" width="357.342" height="151.717" viewBox="0 0 357.342 151.717">
  <defs>
    <clipPath id="clip-path">
      <rect id="Rectángulo_5085" data-name="Rectángulo 5085" width="161.825" height="151.717" fill="none"/>
    </clipPath>
    <clipPath id="clip-path-2">
      <rect id="Rectángulo_5092" data-name="Rectángulo 5092" width="184.974" height="141.618" fill="none"/>
    </clipPath>
  </defs>
  <g id="Grupo_959106" data-name="Grupo 959106" transform="translate(-347 -2981.299)">
    <g id="Grupo_18084" data-name="Grupo 18084" transform="translate(542.517 2981.3)">
      <g id="Grupo_18083" data-name="Grupo 18083" transform="translate(0 -0.001)" clip-path="url(#clip-path)">
        <path id="Trazado_63937" data-name="Trazado 63937" d="M91.025,50.28,71.731,35.808a27.806,27.806,0,0,0-24.326-4.49l-13.8,3.94a11.481,11.481,0,0,0-8.325,11.036v.013a11.486,11.486,0,0,1-5.575,9.845l-1.5.9a11.473,11.473,0,0,0-5.572,9.842v3.157a11.483,11.483,0,0,1-4.308,8.96L4.3,82.233A11.488,11.488,0,0,0,0,91.2v22.489l12.057,11.777L161.826,78.289v-8.95a10.117,10.117,0,0,0-8.656-10.013Z" transform="translate(0 -12.544)" fill="#e6aa55" fill-rule="evenodd"/>
        <path id="Trazado_63938" data-name="Trazado 63938" d="M207.374,95.054h15.994a12.642,12.642,0,0,1,10.518,5.626l6.36,9.546H207.374Z" transform="translate(-86.004 -39.422)" fill="#ff6e64" fill-rule="evenodd"/>
        <path id="Trazado_63939" data-name="Trazado 63939" d="M17.279,142.038v-5.88a10.945,10.945,0,0,1,6.046-9.787l3.08-1.537a10.938,10.938,0,0,0,6.046-9.782A10.939,10.939,0,0,1,43.39,104.112h7.288a10.935,10.935,0,0,0,7.732-3.2l6.914-6.916,17.7-7.584v63.216H19.808Z" transform="translate(-7.166 -35.837)" fill="#ff6e64" fill-rule="evenodd"/>
        <path id="Trazado_63940" data-name="Trazado 63940" d="M104.521,60.907a17.7,17.7,0,1,1-17.7-17.7,17.7,17.7,0,0,1,17.7,17.7" transform="translate(-28.668 -17.92)" fill="#e6c35a" fill-rule="evenodd"/>
        <path id="Trazado_63941" data-name="Trazado 63941" d="M102.312,66.281A10.115,10.115,0,1,1,92.2,56.167a10.116,10.116,0,0,1,10.113,10.114" transform="translate(-34.042 -23.294)" fill="#e6aa55" fill-rule="evenodd"/>
        <path id="Trazado_63942" data-name="Trazado 63942" d="M105.26,59.115A20.228,20.228,0,1,0,82.5,79.183V102.1a2.527,2.527,0,1,0,5.055,0V79.183a20.257,20.257,0,0,0,17.7-20.068m-17.7,14.959v-9.9a2.527,2.527,0,1,0-5.055,0v9.9a15.173,15.173,0,1,1,5.055,0" transform="translate(-26.876 -16.128)" fill="#a0555a" fill-rule="evenodd"/>
        <path id="Trazado_63943" data-name="Trazado 63943" d="M239.931,27.082a22.758,22.758,0,1,1-22.76-22.759,22.758,22.758,0,0,1,22.76,22.759" transform="translate(-80.63 -1.792)" fill="#e6c35a" fill-rule="evenodd"/>
        <path id="Trazado_63944" data-name="Trazado 63944" d="M237.718,32.456a15.173,15.173,0,1,0-25.934,10.678,10.462,10.462,0,0,1,3.178,7.346v3.411a22.443,22.443,0,0,0,15.172,0V50.466a10.009,10.009,0,0,1,3.007-7.168,15.094,15.094,0,0,0,4.577-10.842" transform="translate(-86.005 -7.167)" fill="#e6aa55" fill-rule="evenodd"/>
        <path id="Trazado_63945" data-name="Trazado 63945" d="M240.664,25.288A25.285,25.285,0,1,0,212.85,50.445V75.858a2.529,2.529,0,0,0,5.058,0V50.445a25.317,25.317,0,0,0,22.756-25.158M217.908,45.353V38.977l6.847-6.847a2.528,2.528,0,1,0-3.577-3.575l-3.271,3.27V25.288a2.529,2.529,0,0,0-5.058,0V45.353a20.23,20.23,0,1,1,5.058,0" transform="translate(-78.838 0.001)" fill="#a0555a" fill-rule="evenodd"/>
        <path id="Trazado_63946" data-name="Trazado 63946" d="M175.12,39.306l-22.756-17.7-22.76,17.7V79.766H175.12Z" transform="translate(-53.751 -8.962)" fill="#ff6e64" fill-rule="evenodd"/>
        <path id="Trazado_63947" data-name="Trazado 63947" d="M150.575,21.609l-25.284,17.7V77.237a2.53,2.53,0,0,0,2.524,2.529h45.516a2.531,2.531,0,0,0,2.529-2.529V39.306Zm20.227,53.1H130.345V45.7l20.23-14.708L170.8,45.7Z" transform="translate(-51.962 -8.961)" fill="#a0555a" fill-rule="evenodd"/>
        <path id="Trazado_63948" data-name="Trazado 63948" d="M213.787,161.041l-88.5,27.889v-55l88.5,2.529Z" transform="translate(-51.962 -55.547)" fill="#917d6e" fill-rule="evenodd"/>
        <path id="Trazado_63949" data-name="Trazado 63949" d="M30.606,187.253a15.171,15.171,0,0,1-9.477-3.325l-4.335-3.466a15.154,15.154,0,0,0-9.477-3.325L0,184.725v20.224a5.056,5.056,0,0,0,5.055,5.06H49.387l6.872-4.423,6.953-18.333Z" transform="translate(0 -73.464)" fill="#beaa96" fill-rule="evenodd"/>
        <path id="Trazado_63950" data-name="Trazado 63950" d="M21.128,183.928l-4.335-3.466a15.15,15.15,0,0,0-9.477-3.325L0,179.666v5.059H7.316a7.623,7.623,0,0,1,4.741,1.66l4.33,3.466A22.854,22.854,0,0,0,30.6,194.838H48.04a7.589,7.589,0,0,0,7.589-7.584H30.6a15.173,15.173,0,0,1-9.477-3.326" transform="translate(0 -73.464)" fill="#d1c3aa" fill-rule="evenodd"/>
        <path id="Trazado_63951" data-name="Trazado 63951" d="M37.928,187.988H30.606a17.774,17.774,0,0,1-11.057-3.877l-4.33-3.466a12.683,12.683,0,0,0-7.9-2.771H0v-5.058H7.316a17.767,17.767,0,0,1,11.059,3.88l4.335,3.467a12.7,12.7,0,0,0,7.9,2.771h7.322Z" transform="translate(0 -71.672)" fill="#917d6e" fill-rule="evenodd"/>
        <rect id="Rectángulo_5083" data-name="Rectángulo 5083" width="5.06" height="27.813" transform="translate(32.868 108.732)" fill="#a7d9ff"/>
        <path id="Trazado_63952" data-name="Trazado 63952" d="M116.108,161.748a27.815,27.815,0,1,1-8.147-19.666,27.812,27.812,0,0,1,8.147,19.666" transform="translate(-25.083 -55.547)" fill="#beaa96" fill-rule="evenodd"/>
        <path id="Trazado_63953" data-name="Trazado 63953" d="M253.1,170.071a2.53,2.53,0,0,1-2.528-2.526v-35.4a2.53,2.53,0,0,1,5.059,0v35.4a2.528,2.528,0,0,1-2.531,2.526" transform="translate(-103.921 -53.755)" fill="#2d2d4b" fill-rule="evenodd"/>
        <path id="Trazado_63954" data-name="Trazado 63954" d="M227.185,170.071a2.526,2.526,0,0,1-2.525-2.526v-35.4a2.527,2.527,0,1,1,5.054,0v35.4a2.528,2.528,0,0,1-2.529,2.526" transform="translate(-93.173 -53.755)" fill="#2d2d4b" fill-rule="evenodd"/>
        <path id="Trazado_63955" data-name="Trazado 63955" d="M201.262,170.071a2.526,2.526,0,0,1-2.525-2.526v-35.4a2.527,2.527,0,1,1,5.054,0v35.4a2.528,2.528,0,0,1-2.529,2.526" transform="translate(-82.422 -53.755)" fill="#2d2d4b" fill-rule="evenodd"/>
        <path id="Trazado_63956" data-name="Trazado 63956" d="M175.339,170.071a2.527,2.527,0,0,1-2.526-2.526v-35.4a2.527,2.527,0,1,1,5.054,0v35.4a2.527,2.527,0,0,1-2.528,2.526" transform="translate(-71.671 -53.755)" fill="#2d2d4b" fill-rule="evenodd"/>
        <path id="Trazado_63957" data-name="Trazado 63957" d="M149.417,149.844a2.529,2.529,0,0,1-2.524-2.529V132.143a2.526,2.526,0,1,1,5.053,0v15.172a2.53,2.53,0,0,1-2.528,2.529" transform="translate(-60.921 -53.755)" fill="#2d2d4b" fill-rule="evenodd"/>
        <path id="Trazado_63958" data-name="Trazado 63958" d="M206.618,119.185l-91.025-2.529L108,126.769l98.614-2.529Z" transform="translate(-44.793 -48.381)" fill="#beaa96" fill-rule="evenodd"/>
        <path id="Trazado_63959" data-name="Trazado 63959" d="M106.213,157.427a2.53,2.53,0,0,1-2.529-2.528V132.143a2.529,2.529,0,0,1,5.058,0V154.9a2.528,2.528,0,0,1-2.529,2.528" transform="translate(-43.001 -53.755)" fill="#917d6e" fill-rule="evenodd"/>
        <path id="Trazado_63960" data-name="Trazado 63960" d="M106.213,185.781a2.529,2.529,0,0,0-2.529,2.529v22.756h5.058V188.31a2.527,2.527,0,0,0-2.529-2.529" transform="translate(-43.001 -77.049)" fill="#917d6e" fill-rule="evenodd"/>
        <path id="Trazado_63961" data-name="Trazado 63961" d="M137.61,182.2H114.855a2.53,2.53,0,0,1,0-5.06H137.61a2.53,2.53,0,1,1,0,5.06" transform="translate(-46.585 -73.464)" fill="#917d6e" fill-rule="evenodd"/>
        <path id="Trazado_63962" data-name="Trazado 63962" d="M81.448,182.2H58.688a2.53,2.53,0,0,1,0-5.06h22.76a2.53,2.53,0,0,1,0,5.06" transform="translate(-23.291 -73.464)" fill="#917d6e" fill-rule="evenodd"/>
        <path id="Trazado_63963" data-name="Trazado 63963" d="M112.322,164.684a2.529,2.529,0,0,1-1.787-4.317l16.091-16.091a2.529,2.529,0,0,1,3.58,3.575L114.11,163.942a2.5,2.5,0,0,1-1.788.742" transform="translate(-45.535 -59.528)" fill="#917d6e" fill-rule="evenodd"/>
        <path id="Trazado_63964" data-name="Trazado 63964" d="M72.609,204.4a2.529,2.529,0,0,1-1.787-4.316l16.091-16.091a2.528,2.528,0,0,1,3.577,3.575L74.4,203.655a2.523,2.523,0,0,1-1.789.742" transform="translate(-29.065 -75.999)" fill="#917d6e" fill-rule="evenodd"/>
        <path id="Trazado_63965" data-name="Trazado 63965" d="M128.414,204.4a2.518,2.518,0,0,1-1.787-.742l-16.091-16.091a2.528,2.528,0,0,1,3.575-3.575l16.1,16.091a2.529,2.529,0,0,1-1.792,4.316" transform="translate(-45.535 -75.999)" fill="#917d6e" fill-rule="evenodd"/>
        <path id="Trazado_63966" data-name="Trazado 63966" d="M88.7,164.684a2.521,2.521,0,0,1-1.787-.742L70.822,147.851a2.528,2.528,0,0,1,3.577-3.575L90.49,160.367a2.529,2.529,0,0,1-1.789,4.317" transform="translate(-29.065 -59.528)" fill="#917d6e" fill-rule="evenodd"/>
        <path id="Trazado_63967" data-name="Trazado 63967" d="M108.593,126.493l-4.041-3.034,6.066-8.092a7.628,7.628,0,0,1,6.071-3.034h88.5v5.059h-88.5a2.546,2.546,0,0,0-2.024,1.007Z" transform="translate(-43.361 -46.588)" fill="#917d6e" fill-rule="evenodd"/>
        <path id="Trazado_63968" data-name="Trazado 63968" d="M102.631,183.671a7.586,7.586,0,1,1,7.588-7.588,7.6,7.6,0,0,1-7.588,7.588m0-10.117a2.53,2.53,0,1,0,2.529,2.529,2.533,2.533,0,0,0-2.529-2.529" transform="translate(-39.419 -69.882)" fill="#2d2d4b" fill-rule="evenodd"/>
        <path id="Trazado_63969" data-name="Trazado 63969" d="M61.219,159.956a25.285,25.285,0,1,1,44.239,16.71,32.2,32.2,0,0,0,5.634,1.051,30.336,30.336,0,1,0-33.881,11.126,39.331,39.331,0,0,1,2.708-4.473,25.329,25.329,0,0,1-18.7-24.413" transform="translate(-23.291 -53.755)" fill="#2d2d4b" fill-rule="evenodd"/>
        <path id="Trazado_63970" data-name="Trazado 63970" d="M174.2,195.238a15.1,15.1,0,0,1-7.358,0l-9.075-2.266a15.172,15.172,0,0,0-13.393,3.062l-5.033,4.2a15.179,15.179,0,0,1-9.71,3.516H111.891a15.174,15.174,0,0,0-11.655,5.456l3.886,7.186h94.22a5.055,5.055,0,0,0,5.055-5.06v-15.17Z" transform="translate(-41.571 -79.844)" fill="#917d6e" fill-rule="evenodd"/>
        <path id="Trazado_63971" data-name="Trazado 63971" d="M172.293,193.843a15.1,15.1,0,0,1-7.358,0l-9.075-2.266a15.172,15.172,0,0,0-13.393,3.062l-5.033,4.2a15.179,15.179,0,0,1-9.71,3.516H109.977a15.173,15.173,0,0,0-11.653,5.456l-2.7,7.186h6.584l1.936-2.326a7.58,7.58,0,0,1,5.832-2.734h17.747a22.781,22.781,0,0,0,14.565-5.274l5.039-4.194a7.58,7.58,0,0,1,6.693-1.529l9.075,2.266a22.835,22.835,0,0,0,11.041,0l27.349-6.438v-5.609Z" transform="translate(-39.659 -78.448)" fill="#beaa96" fill-rule="evenodd"/>
        <path id="Trazado_63972" data-name="Trazado 63972" d="M149.417,68.074a2.525,2.525,0,0,1-2.524-2.526V63.019a2.526,2.526,0,1,1,5.053,0v2.529a2.527,2.527,0,0,1-2.528,2.526" transform="translate(-60.921 -25.087)" fill="#fff" fill-rule="evenodd"/>
        <path id="Trazado_63973" data-name="Trazado 63973" d="M183.979,68.074a2.53,2.53,0,0,1-2.529-2.526V63.019a2.53,2.53,0,0,1,5.059,0v2.529a2.527,2.527,0,0,1-2.53,2.526" transform="translate(-75.253 -25.087)" fill="#fff" fill-rule="evenodd"/>
        <path id="Trazado_63974" data-name="Trazado 63974" d="M149.417,93.994a2.524,2.524,0,0,1-2.524-2.524V88.941a2.526,2.526,0,1,1,5.053,0V91.47a2.526,2.526,0,0,1-2.528,2.524" transform="translate(-60.921 -35.837)" fill="#fff" fill-rule="evenodd"/>
        <path id="Trazado_63975" data-name="Trazado 63975" d="M183.979,93.994a2.529,2.529,0,0,1-2.529-2.524V88.941a2.53,2.53,0,1,1,5.059,0V91.47a2.526,2.526,0,0,1-2.53,2.524" transform="translate(-75.253 -35.837)" fill="#fff" fill-rule="evenodd"/>
        <path id="Trazado_63976" data-name="Trazado 63976" d="M174.8,42.573a2.509,2.509,0,0,1-1.482-.484L146.99,22.94,120.664,42.089A2.529,2.529,0,0,1,117.685,38L145.5,17.772a2.53,2.53,0,0,1,2.974,0L176.292,38a2.532,2.532,0,0,1-1.491,4.576" transform="translate(-48.377 -7.169)" fill="#2d2d4b" fill-rule="evenodd"/>
        <rect id="Rectángulo_5084" data-name="Rectángulo 5084" width="98.614" height="5.058" transform="translate(63.212 75.859)" fill="#2d2d4b"/>
        <path id="Trazado_63977" data-name="Trazado 63977" d="M195.152,218.554a2.529,2.529,0,1,1-2.529-2.529,2.527,2.527,0,0,1,2.529,2.529" transform="translate(-78.838 -89.592)" fill="#beaa96" fill-rule="evenodd"/>
        <path id="Trazado_63978" data-name="Trazado 63978" d="M251.314,214.232a2.527,2.527,0,1,1-2.528-2.53,2.53,2.53,0,0,1,2.528,2.53" transform="translate(-102.132 -87.799)" fill="#2d2d4b" fill-rule="evenodd"/>
        <path id="Trazado_63979" data-name="Trazado 63979" d="M25.923,246.261a7.584,7.584,0,0,0,7.584,7.588H144.763a7.588,7.588,0,0,0,7.587-7.588Z" transform="translate(-10.751 -102.132)" fill="#a7d9ff" fill-rule="evenodd"/>
        <path id="Trazado_63980" data-name="Trazado 63980" d="M154.241,247H2.524a2.527,2.527,0,0,1,0-5.053H154.241a2.527,2.527,0,1,1,0,5.053" transform="translate(0 -100.343)" fill="#6bb2ff" fill-rule="evenodd"/>
        <path id="Trazado_63981" data-name="Trazado 63981" d="M196.821,180.249,167.015,187.7a12.7,12.7,0,0,1-6.129,0l-9.075-2.27a17.746,17.746,0,0,0-15.625,3.579l-5.034,4.191a12.669,12.669,0,0,1-8.092,2.931H105.313a17.659,17.659,0,0,0-13.6,6.369l-7.334,8.8h6.581l4.639-5.568a12.607,12.607,0,0,1,9.711-4.545H123.06a17.718,17.718,0,0,0,11.33-4.106l5.037-4.193a12.676,12.676,0,0,1,11.155-2.552l9.075,2.272a17.863,17.863,0,0,0,8.587,0l28.577-7.147Z" transform="translate(-34.996 -74.755)" fill="#2d2d4b" fill-rule="evenodd"/>
      </g>
    </g>
    <g id="Grupo_18086" data-name="Grupo 18086" transform="translate(347 2991.003)">
      <g id="Grupo_18085" data-name="Grupo 18085" transform="translate(0 -0.001)" clip-path="url(#clip-path-2)">
        <path id="Trazado_63982" data-name="Trazado 63982" d="M180.59,52.024H12.958v-28.9A23.126,23.126,0,0,1,36.082,0h121.39A23.124,23.124,0,0,1,180.59,23.123Z" transform="translate(-4.289 0)" fill="#c8f5f0" fill-rule="evenodd"/>
        <path id="Trazado_63983" data-name="Trazado 63983" d="M126.752,25.923h17.34a5.78,5.78,0,0,1,0,11.56h-17.34a5.78,5.78,0,1,1,0-11.56" transform="translate(-40.044 -8.581)" fill="#9be7ee" fill-rule="evenodd"/>
        <path id="Trazado_63984" data-name="Trazado 63984" d="M182.914,25.923H188.7a5.78,5.78,0,1,1,0,11.56h-5.781a5.78,5.78,0,0,1,0-11.56" transform="translate(-58.637 -8.581)" fill="#9be7ee" fill-rule="evenodd"/>
        <path id="Trazado_63985" data-name="Trazado 63985" d="M167.632,56.166H11.56A11.562,11.562,0,0,0,0,67.726v75.142H184.974V73.508a17.34,17.34,0,0,0-17.342-17.342" transform="translate(0 -18.593)" fill="#9be7ee" fill-rule="evenodd"/>
        <path id="Trazado_63986" data-name="Trazado 63986" d="M12.958,75.772,24.682,47.637a26.027,26.027,0,0,1,8.4-10.805L53.308,21.665a11.554,11.554,0,0,1,15.814,1.85l3.956,4.74a11.542,11.542,0,0,0,8.882,4.16H94.173a14.433,14.433,0,0,1,9.6,3.653L125.68,55.54v43.35H18.741Z" transform="translate(-4.289 -6.406)" fill="#c8c8aa" fill-rule="evenodd"/>
        <path id="Trazado_63987" data-name="Trazado 63987" d="M94.173,32.416H81.96a11.541,11.541,0,0,1-8.882-4.16l-3.956-4.74a11.558,11.558,0,0,0-15.814-1.85L33.084,36.832a26.027,26.027,0,0,0-8.4,10.805L12.958,75.773l2.1,8.392a8.621,8.621,0,0,0,5.9-5.06l11.725-28.13a17.346,17.346,0,0,1,5.6-7.206L58.513,28.6a2.882,2.882,0,0,1,3.952.462l3.952,4.741A20.169,20.169,0,0,0,81.96,41.09H94.173a5.789,5.789,0,0,1,3.841,1.458l21.9,19.472a8.618,8.618,0,0,0,5.763,2.161V55.541L103.771,36.069a14.436,14.436,0,0,0-9.6-3.653" transform="translate(-4.289 -6.407)" fill="#ead1aa" fill-rule="evenodd"/>
        <path id="Trazado_63988" data-name="Trazado 63988" d="M178.433,77.255a11.564,11.564,0,0,0-12.609-6.166L151.746,73.9a20.263,20.263,0,0,1-11.942-1.24l-4.43-1.9a11.563,11.563,0,0,0-14.9,5.459l-12.464,24.929,20.228,31.791h78.039Z" transform="translate(-35.755 -23.114)" fill="#c8c8aa" fill-rule="evenodd"/>
        <path id="Trazado_63989" data-name="Trazado 63989" d="M178.433,77.255a11.564,11.564,0,0,0-12.609-6.166L151.746,73.9a20.263,20.263,0,0,1-11.942-1.24l-4.43-1.9a11.563,11.563,0,0,0-14.9,5.459l-12.464,24.929,4.635,7.288a8.567,8.567,0,0,0,3.118-3.41L128.23,80.092a2.883,2.883,0,0,1,3.723-1.361l4.442,1.9a28.8,28.8,0,0,0,17.051,1.773l14.077-2.814a2.879,2.879,0,0,1,3.152,1.539l25.909,51.805h9.695Z" transform="translate(-35.755 -23.114)" fill="#ead1aa" fill-rule="evenodd"/>
        <path id="Trazado_63990" data-name="Trazado 63990" d="M11.527,77.233a2.893,2.893,0,0,1-2.669-4L20.583,45.093a28.95,28.95,0,0,1,9.342-12L50.143,17.925a14.446,14.446,0,0,1,19.773,2.309l3.952,4.741A8.637,8.637,0,0,0,80.529,28.1H92.742a17.342,17.342,0,0,1,11.522,4.376l21.9,19.472a2.89,2.89,0,1,1-3.84,4.32L100.424,36.8a11.581,11.581,0,0,0-7.682-2.92H80.529a14.42,14.42,0,0,1-11.1-5.2l-3.951-4.746A8.669,8.669,0,0,0,53.609,22.55L33.392,37.713a23.172,23.172,0,0,0-7.472,9.608L14.195,75.451a2.881,2.881,0,0,1-2.668,1.782" transform="translate(-2.858 -4.976)" fill="#a0af82" fill-rule="evenodd"/>
        <path id="Trazado_63991" data-name="Trazado 63991" d="M204.848,134.4a2.885,2.885,0,0,1-2.586-1.6L174.417,77.119a8.69,8.69,0,0,0-9.455-4.627L150.88,75.306a22.97,22.97,0,0,1-13.646-1.418l-4.43-1.9a8.676,8.676,0,0,0-11.173,4.086l-12.469,24.936a2.889,2.889,0,1,1-5.168-2.586L116.46,73.5a14.47,14.47,0,0,1,18.62-6.823l4.431,1.9a17.259,17.259,0,0,0,10.237,1.066l14.077-2.819a14.489,14.489,0,0,1,15.763,7.71l27.839,55.684a2.889,2.889,0,0,1-2.58,4.186" transform="translate(-34.324 -21.685)" fill="#a0af82" fill-rule="evenodd"/>
        <path id="Trazado_63992" data-name="Trazado 63992" d="M116.671,114.868l-5.783-34.683a2.888,2.888,0,0,0-5.7,0l-5.783,34.683a2.886,2.886,0,0,0,2.853,3.36h11.558a2.892,2.892,0,0,0,2.853-3.36" transform="translate(-32.893 -25.744)" fill="#3c8c82" fill-rule="evenodd"/>
        <path id="Trazado_63993" data-name="Trazado 63993" d="M138.272,127.825,132.49,93.142a2.889,2.889,0,0,0-5.7,0l-5.782,34.683a2.888,2.888,0,0,0,2.852,3.366h11.56a2.894,2.894,0,0,0,2.851-3.366" transform="translate(-40.044 -30.033)" fill="#3c8c82" fill-rule="evenodd"/>
        <path id="Trazado_63994" data-name="Trazado 63994" d="M172.834,132.147l-5.778-34.683a2.891,2.891,0,0,0-5.7,0l-5.778,34.683a2.889,2.889,0,0,0,2.848,3.366h11.564a2.889,2.889,0,0,0,2.848-3.366" transform="translate(-51.487 -31.464)" fill="#3c8c82" fill-rule="evenodd"/>
        <path id="Trazado_63995" data-name="Trazado 63995" d="M203.077,145.108,197.3,110.43a2.891,2.891,0,0,0-5.7,0l-5.778,34.678a2.89,2.89,0,0,0,2.848,3.366H200.23a2.89,2.89,0,0,0,2.848-3.366" transform="translate(-61.498 -35.756)" fill="#3c8c82" fill-rule="evenodd"/>
        <path id="Trazado_63996" data-name="Trazado 63996" d="M184.974,157.113l-22-10.794a23.121,23.121,0,0,1-12.248-5.216l-7.22-6.015a23.059,23.059,0,0,0-10.92-5.031L0,116.649v46.242l2.528,2.89H177.565l7.409-2.89Z" transform="translate(0 -38.615)" fill="#3c8c82" fill-rule="evenodd"/>
        <path id="Trazado_63997" data-name="Trazado 63997" d="M150.732,138.069l-7.22-6.015a23.069,23.069,0,0,0-10.92-5.031L0,107.483v6.132l131.134,21.956a14.459,14.459,0,0,1,6.826,3.143l7.222,6.013A31.692,31.692,0,0,0,162.02,151.9s22.634,2.175,22.954,2.175v-8.674l-22-2.12a23.117,23.117,0,0,1-12.248-5.216" transform="translate(0 -35.58)" fill="#69b47d" fill-rule="evenodd"/>
        <path id="Trazado_63998" data-name="Trazado 63998" d="M184.974,139.776,163.3,137.514a20.183,20.183,0,0,1-10.717-4.566l-7.215-6.015a26.1,26.1,0,0,0-12.292-5.661L0,98.724v5.86l132.1,22.388a20.3,20.3,0,0,1,9.559,4.4l7.221,6.016a25.953,25.953,0,0,0,13.795,5.875l22.3,2.323Z" transform="translate(0 -32.681)" fill="#3c576c" fill-rule="evenodd"/>
        <path id="Trazado_63999" data-name="Trazado 63999" d="M57.682,82.089H40.341L34.56,93.65H63.466Z" transform="translate(-11.44 -27.174)" fill="#5f5f6e" fill-rule="evenodd"/>
        <rect id="Rectángulo_5086" data-name="Rectángulo 5086" width="23.124" height="23.123" transform="translate(26.01 66.475)" fill="#ff6e64"/>
        <rect id="Rectángulo_5087" data-name="Rectángulo 5087" width="23.123" height="37.568" transform="translate(14.451 89.598)" fill="#beaa96"/>
        <path id="Trazado_64000" data-name="Trazado 64000" d="M171.473,125.29h-28.9v17.342h34.681Z" transform="translate(-47.196 -41.475)" fill="#5f5f6e" fill-rule="evenodd"/>
        <rect id="Rectángulo_5088" data-name="Rectángulo 5088" width="34.681" height="26.009" transform="translate(95.377 101.157)" fill="#ff6e64"/>
        <rect id="Rectángulo_5089" data-name="Rectángulo 5089" width="34.683" height="49.132" transform="translate(60.694 78.034)" fill="#beaa96"/>
        <rect id="Rectángulo_5090" data-name="Rectángulo 5090" width="34.683" height="11.564" transform="translate(60.694 78.034)" fill="#5f5f6e"/>
        <path id="Trazado_64001" data-name="Trazado 64001" d="M57.623,133.935l-5.778,11.558h40.46l-5.777-11.558Z" transform="translate(-17.162 -44.337)" fill="#5f5f6e" fill-rule="evenodd"/>
        <rect id="Rectángulo_5091" data-name="Rectángulo 5091" width="34.683" height="26.009" transform="translate(37.574 101.157)" fill="#ff6e64"/>
        <path id="Trazado_64002" data-name="Trazado 64002" d="M166.08,207.406H38.912a8.667,8.667,0,0,1-8.668-8.668H174.753a8.67,8.67,0,0,1-8.673,8.668" transform="translate(-10.012 -65.789)" fill="#aad264" fill-rule="evenodd"/>
        <path id="Trazado_64003" data-name="Trazado 64003" d="M179.193,198.767H5.777A5.778,5.778,0,0,1,0,192.984l3.07-2.89H181.719l3.255,2.89a5.781,5.781,0,0,1-5.781,5.783" transform="translate(0 -62.927)" fill="#69b47d" fill-rule="evenodd"/>
        <path id="Trazado_64004" data-name="Trazado 64004" d="M72.016,172.845a2.893,2.893,0,0,1-2.892-2.891v-2.891a2.891,2.891,0,1,1,5.783,0v2.891a2.9,2.9,0,0,1-2.891,2.891" transform="translate(-22.882 -54.346)" fill="#fff" fill-rule="evenodd"/>
        <path id="Trazado_64005" data-name="Trazado 64005" d="M89.3,172.845a2.9,2.9,0,0,1-2.891-2.891v-2.891a2.89,2.89,0,1,1,5.781,0v2.891a2.892,2.892,0,0,1-2.89,2.891" transform="translate(-28.603 -54.346)" fill="#fff" fill-rule="evenodd"/>
        <path id="Trazado_64006" data-name="Trazado 64006" d="M175.707,172.845a2.893,2.893,0,0,1-2.891-2.891v-2.891a2.891,2.891,0,1,1,5.781,0v2.891a2.9,2.9,0,0,1-2.891,2.891" transform="translate(-57.207 -54.346)" fill="#fff" fill-rule="evenodd"/>
        <path id="Trazado_64007" data-name="Trazado 64007" d="M158.423,172.845a2.891,2.891,0,0,1-2.887-2.891v-2.891a2.889,2.889,0,1,1,5.777,0v2.891a2.893,2.893,0,0,1-2.891,2.891" transform="translate(-51.487 -54.346)" fill="#fff" fill-rule="evenodd"/>
        <path id="Trazado_64008" data-name="Trazado 64008" d="M123.861,172.845a2.893,2.893,0,0,1-2.891-2.891v-2.891a2.891,2.891,0,1,1,5.783,0v2.891a2.9,2.9,0,0,1-2.892,2.891" transform="translate(-40.045 -54.346)" fill="#fff" fill-rule="evenodd"/>
        <path id="Trazado_64009" data-name="Trazado 64009" d="M123.861,152.675a2.892,2.892,0,1,1,2.892-2.892,2.893,2.893,0,0,1-2.892,2.892" transform="translate(-40.045 -48.626)" fill="#fff" fill-rule="evenodd"/>
        <path id="Trazado_64010" data-name="Trazado 64010" d="M210.268,174.276a2.891,2.891,0,1,1,2.891-2.891,2.891,2.891,0,0,1-2.891,2.891" transform="translate(-68.649 -55.777)" fill="#69b47d" fill-rule="evenodd"/>
        <path id="Trazado_64011" data-name="Trazado 64011" d="M37.451,172.845a2.9,2.9,0,0,1-2.891-2.891v-2.891a2.89,2.89,0,1,1,5.781,0v2.891a2.891,2.891,0,0,1-2.89,2.891" transform="translate(-11.44 -54.346)" fill="#fff" fill-rule="evenodd"/>
        <path id="Trazado_64012" data-name="Trazado 64012" d="M37.451,152.675a2.892,2.892,0,1,1,2.89-2.892,2.9,2.9,0,0,1-2.89,2.892" transform="translate(-11.44 -48.626)" fill="#fff" fill-rule="evenodd"/>
        <path id="Trazado_64013" data-name="Trazado 64013" d="M54.737,118.109a2.891,2.891,0,1,1,2.887-2.891,2.889,2.889,0,0,1-2.887,2.891" transform="translate(-17.163 -37.184)" fill="#fff" fill-rule="evenodd"/>
        <path id="Trazado_64014" data-name="Trazado 64014" d="M132.951,150.02V126.887c0-.074,0-.144-.01-.219-.005-.023-.005-.053-.011-.082-.005-.053-.013-.106-.023-.159a1.358,1.358,0,0,0-.024-.136c-.005-.034-.016-.068-.024-.1a1.241,1.241,0,0,0-.053-.184.029.029,0,0,0-.005-.019l-5.783-17.342a2.884,2.884,0,0,0-2.74-1.976H98.267V98a2.891,2.891,0,0,0-5.783,0v2.887h-28.9V98A2.891,2.891,0,0,0,57.8,98v14.451H52.025V95.11a2.893,2.893,0,0,0,2.586-4.184l-5.783-11.56a2.892,2.892,0,0,0-2.586-1.6H28.9a2.893,2.893,0,0,0-2.584,1.6l-5.778,11.56A2.893,2.893,0,0,0,23.12,95.11v17.342H14.451a2.892,2.892,0,0,0-2.891,2.891V150.02H0V155.8H184.974V150.02ZM67.58,118.227l2.89,5.783H63.584v-5.783Zm1.787,31.793H40.461V129.793H69.367Zm5.776-20.227a2.895,2.895,0,0,0,2.587-4.186l-3.691-7.38H92.485V150.02H75.143Zm23.124,0h28.9V150.02h-28.9Zm23.927-17.342,3.855,11.559H98.267V112.452Zm-58.611-5.783h28.9v5.783h-28.9ZM57.8,124.011H39.356l2.892-5.783H57.8ZM30.688,83.546H44.455l2.893,5.781H27.8ZM28.9,95.11H46.242v17.342H28.9ZM17.342,118.227H35.787l-3.689,7.38a2.894,2.894,0,0,0,2.586,4.186V150.02H17.342Z" transform="translate(0 -25.744)" fill="#2d2d4b" fill-rule="evenodd"/>
      </g>
    </g>
  </g>
</svg>
