<svg xmlns="http://www.w3.org/2000/svg" width="92.514" height="124.001" viewBox="0 0 92.514 124.001">
  <g id="ingeniero_1_" data-name="ingeniero (1)" transform="translate(-65.007 0)">
    <path id="Trazado_724884" data-name="Trazado 724884" d="M224.429,288.849l10.14-9.872v-4.929a22.165,22.165,0,0,1-20.121.345v4.78Z" transform="translate(-113.248 -207.677)" fill="#dd9a5e"/>
    <path id="Trazado_724885" data-name="Trazado 724885" d="M220.5,277.413a21.712,21.712,0,0,1-6.056-1.939v4.78l6.056,5.871Z" transform="translate(-113.248 -208.758)" fill="#d18c54"/>
    <g id="Grupo_959085" data-name="Grupo 959085" transform="translate(82.483 32.568)">
      <rect id="Rect치ngulo_340285" data-name="Rect치ngulo 340285" width="57.561" height="8.58" fill="#4c4846"/>
      <rect id="Rect치ngulo_340286" data-name="Rect치ngulo 340286" width="6.535" height="8.58" fill="#4c4846"/>
    </g>
    <path id="Trazado_724886" data-name="Trazado 724886" d="M159.9,324.49a10.356,10.356,0,0,0-4.917-4.421,12.527,12.527,0,0,0-2.036-.679l-13.6-4.79-7.153,10.3a2.5,2.5,0,0,1-3.933.045l-4.825-5.366-4.867,5.366a2.5,2.5,0,0,1-3.933-.045l-7.11-10.238-3.058,1.052h-.007v0c-13.17,4.667-12.267,4.145-13.741,5.057a10.042,10.042,0,0,0-4.58,6.282c-.1.406-4.956,24.822-4.961,24.846.736-.214.191-.075,16.073-.117v8.807h52.533v-8.807c15.993.043,15.311-.1,16.073.117C160.7,325.993,160.948,326.386,159.9,324.49Z" transform="translate(-12.255 -238.407)" fill="#ededed"/>
    <path id="Trazado_724887" data-name="Trazado 724887" d="M93.193,334.408a9.922,9.922,0,0,1,3.286-3.524l-2.389.847-1.364.4a10.3,10.3,0,0,0-6.373,6.518c-.337,1.042-5.168,25.553-5.176,25.591.705-.205.722-.078,6.077-.117C92.307,336.244,92.068,336.445,93.193,334.408Z" transform="translate(-12.255 -250.748)" fill="#dadada"/>
    <g id="Grupo_959086" data-name="Grupo 959086" transform="translate(81.172 38.072)">
      <path id="Trazado_724888" data-name="Trazado 724888" d="M139.6,157.569c-3.6-1.284-7.847.913-7.847,4.643s4.235,5.929,7.847,4.643Z" transform="translate(-131.753 -157.2)" fill="#dd9a5e"/>
      <path id="Trazado_724889" data-name="Trazado 724889" d="M345.025,157.569c3.6-1.284,7.847.913,7.847,4.643s-4.235,5.929-7.847,4.643Z" transform="translate(-293.373 -157.2)" fill="#dd9a5e"/>
    </g>
    <g id="Grupo_959087" data-name="Grupo 959087" transform="translate(81.168 40.79)">
      <path id="Trazado_724890" data-name="Trazado 724890" d="M132.36,168.426c-1.9,3.295.754,7.289,4.939,7.289a7.588,7.588,0,0,0,2.288-.354v-4.584A6.061,6.061,0,0,1,132.36,168.426Z" transform="translate(-131.736 -168.426)" fill="#d18c54"/>
      <path id="Trazado_724891" data-name="Trazado 724891" d="M345.025,170.775v4.584a7.589,7.589,0,0,0,2.288.354c4.184,0,6.836-3.992,4.939-7.289A6.061,6.061,0,0,1,345.025,170.775Z" transform="translate(-293.369 -168.424)" fill="#d18c54"/>
    </g>
    <path id="Trazado_724892" data-name="Trazado 724892" d="M163.077,136.474c-.015,3.15-.1,14.989.185,17.127,3.445,26.565,44.1,25.34,44.1-2.875V136.474Z" transform="translate(-74.3 -103.422)" fill="#edae6b"/>
    <path id="Trazado_724893" data-name="Trazado 724893" d="M169.342,153.6c-.287-2.139-.2-13.977-.185-17.127h-6.08c-.015,3.15-.1,14.989.185,17.127,1.823,14.058,14.068,20.333,25.194,18.944C179.32,171.407,170.835,165.115,169.342,153.6Z" transform="translate(-74.3 -103.421)" fill="#dd9a5e"/>
    <g id="Grupo_959088" data-name="Grupo 959088" transform="translate(66.823 113.376)">
      <path id="Trazado_724894" data-name="Trazado 724894" d="M379.725,468.135H364.458v8.807h15.267a2.915,2.915,0,0,0,2.907-2.907v-2.993A2.916,2.916,0,0,0,379.725,468.135Z" transform="translate(-293.751 -468.135)" fill="#dadada"/>
      <path id="Trazado_724895" data-name="Trazado 724895" d="M75.413,468.135H90.68v8.807H75.413a2.915,2.915,0,0,1-2.907-2.907v-2.993A2.916,2.916,0,0,1,75.413,468.135Z" transform="translate(-72.506 -468.135)" fill="#dadada"/>
    </g>
    <path id="Trazado_724896" data-name="Trazado 724896" d="M78.562,474.035v-2.993a2.915,2.915,0,0,1,2.907-2.907H75.413a2.915,2.915,0,0,0-2.907,2.907v2.993a2.915,2.915,0,0,0,2.907,2.907h6.056A2.915,2.915,0,0,1,78.562,474.035Z" transform="translate(-5.683 -354.759)" fill="#c6c6c6"/>
    <g id="Grupo_959089" data-name="Grupo 959089" transform="translate(95.271 71.3)">
      <path id="Trazado_724897" data-name="Trazado 724897" d="M265.8,294.4l5.771,4.892-7.153,10.3a2.5,2.5,0,0,1-3.933.045l-4.825-5.366Z" transform="translate(-239.748 -294.401)" fill="#dadada"/>
      <path id="Trazado_724898" data-name="Trazado 724898" d="M195.9,295.209l-5.929,4.759,7.11,10.238a2.5,2.5,0,0,0,3.933.045l4.867-5.366Z" transform="translate(-189.966 -295.013)" fill="#dadada"/>
    </g>
    <path id="Trazado_724899" data-name="Trazado 724899" d="M236.85,393.629l-6.079-20.041h-5.452l-6.079,20.041a2.522,2.522,0,0,0,.535,2.414l8.254,9.214v.036l.016-.018.016.018v-.036l8.254-9.214A2.522,2.522,0,0,0,236.85,393.629Z" transform="translate(-116.798 -283.11)" fill="#3aa8d8"/>
    <path id="Trazado_724900" data-name="Trazado 724900" d="M239.318,335.157l-5.222,5.75,2.563,3.556h5.452l2.454-3.526Z" transform="translate(-128.138 -253.986)" fill="#70bbef"/>
    <path id="Trazado_724901" data-name="Trazado 724901" d="M225.225,395.317a2.522,2.522,0,0,1-.535-2.414l6.079-19.314h-5.451l-6.079,20.041a2.522,2.522,0,0,0,.535,2.414l8.254,9.214v.036l.016-.018.016.018v-.036l3.035-3.388Z" transform="translate(-116.797 -283.11)" fill="#1990ba"/>
    <path id="Trazado_724902" data-name="Trazado 724902" d="M240.452,339.934h0l1.58-1.757-2.714-3.017-5.222,5.75,2.563,3.556h5.451l-2.253-3.126C239.412,340.723,240.251,340.233,240.452,339.934Z" transform="translate(-128.138 -253.988)" fill="#3aa8d8"/>
    <path id="Trazado_724903" data-name="Trazado 724903" d="M138.82,33.959h56.024a28.271,28.271,0,0,0-56.024,0Z" transform="translate(-55.936 -7.206)" fill="#fcd249"/>
    <g id="Grupo_959090" data-name="Grupo 959090" transform="translate(82.884 1.817)">
      <path id="Trazado_724904" data-name="Trazado 724904" d="M170.069,9.684A28.327,28.327,0,0,0,138.82,33.951h6.475A28.371,28.371,0,0,1,170.069,9.684Z" transform="translate(-138.82 -9.014)" fill="#f9b938"/>
      <path id="Trazado_724905" data-name="Trazado 724905" d="M212.423,32.44V10.773a3.27,3.27,0,0,0-6.541,0V32.44Z" transform="translate(-189.64 -7.503)" fill="#f9b938"/>
    </g>
    <path id="Trazado_724906" data-name="Trazado 724906" d="M210.787,7.942a3.271,3.271,0,0,0-4.906,2.829V32.438h3.27V10.771A3.266,3.266,0,0,1,210.787,7.942Z" transform="translate(-106.757 -5.684)" fill="#eaa224"/>
    <path id="Trazado_724907" data-name="Trazado 724907" d="M283.941,32.44V10.773a3.27,3.27,0,0,0-6.541,0V32.44Z" transform="translate(-160.954 -5.686)" fill="#f9b938"/>
    <g id="Grupo_959091" data-name="Grupo 959091" transform="translate(77.127 1.816)">
      <path id="Trazado_724908" data-name="Trazado 724908" d="M282.3,7.942a3.271,3.271,0,0,0-4.906,2.829V32.438h3.27V10.771A3.266,3.266,0,0,1,282.3,7.942Z" transform="translate(-238.081 -7.5)" fill="#eaa224"/>
      <path id="Trazado_724909" data-name="Trazado 724909" d="M179.638,116.009H118.322a3.27,3.27,0,1,1,0-6.541h61.316a3.27,3.27,0,1,1,0,6.541Z" transform="translate(-115.052 -84.773)" fill="#eaa224"/>
    </g>
    <path id="Trazado_724910" data-name="Trazado 724910" d="M126.7,112.738a3.27,3.27,0,0,1,3.27-3.27H118.322a3.27,3.27,0,1,0,0,6.541h11.649A3.27,3.27,0,0,1,126.7,112.738Z" transform="translate(-37.925 -82.957)" fill="#ea8b1b"/>
    <path id="Trazado_724911" data-name="Trazado 724911" d="M155.2,112.226l-2.459-12.347a1.817,1.817,0,0,0-3.564.708l2.185,10.973H139.347V100.5a1.817,1.817,0,1,0-3.634,0v19.864H115.3l5.572-6.221a4.362,4.362,0,0,0,.92-4.154l-5.823-19.2,1.108-1.592a4.315,4.315,0,0,0,4.356-1.674l6.37-9.173c14.245,5.032,11.741,4.18,13.675,4.753a9.663,9.663,0,0,1,2.462,1.38h0c2.82,2.324,2.9,4.453,3.587,7.781a1.817,1.817,0,0,0,3.564-.709,28.574,28.574,0,0,0-1.135-4.8,11.977,11.977,0,0,0-5.044-6.007,12.862,12.862,0,0,0-3.659-1.5L128,74.582l-4.867-4.124V67.916a24.182,24.182,0,0,0,11.606-18.029c5.475.254,9.325-4.932,7.117-9.548V34.861a5.084,5.084,0,0,0-.147-10.167h-1.386c-.017-.039-2.176-14.2-15.7-20.9a5.077,5.077,0,0,0-7.974-2.765A30.3,30.3,0,0,0,105.4.992,5.079,5.079,0,0,0,97.52,3.645c-.032.016-.115.055-.2.1l.114.224c0,.01-.006.02-.008.03l-.13-.242A29.765,29.765,0,0,0,85.423,14.7a31.414,31.414,0,0,0-3.908,10H80.4a5.087,5.087,0,1,0,0,10.174h.269v4.342c-3.45,4.6.3,10.96,6.432,10.675A23.966,23.966,0,0,0,99.383,68.308v2.317l-5,4.015c-18.413,6.484-14.787,5.127-15.3,5.356h0a12.2,12.2,0,0,0-5.724,5.1C72,87.462,72.308,87.2,67.324,112.226a4.722,4.722,0,0,0-2.317,4.057v2.993A4.729,4.729,0,0,0,69.731,124h21.3a1.817,1.817,0,0,0,0-3.634H86.814V100.5a1.817,1.817,0,1,0-3.634,0V111.56H71.161C75.877,87.9,75.52,88.708,76.515,86.885A7.961,7.961,0,0,1,78.24,84.78l-.014.012.317-.264h0a9.506,9.506,0,0,1,3.8-1.8c.925-.264,11.97-4.22,12.222-4.309,6.612,9.52,6.32,9.1,6.375,9.177a4.317,4.317,0,0,0,4.409,1.583l1.176,1.632L100.7,109.993a4.364,4.364,0,0,0,.921,4.154l5.573,6.22H99.51a1.817,1.817,0,0,0,0,3.634H152.8a4.729,4.729,0,0,0,4.724-4.724v-2.993A4.724,4.724,0,0,0,155.2,112.226ZM83.18,115.193v5.173H69.73a1.1,1.1,0,0,1-1.09-1.09v-2.993a1.11,1.11,0,0,1,1.09-1.09Zm27.913-43.931h.116a23.237,23.237,0,0,0,6.859-1.084h0l.027-.009h0c.189-.063.672-.208,1.407-.49v.855l-8.326,8.106-8.161-7.912v-.8A23.47,23.47,0,0,0,111.093,71.262Zm13.565,5.248-6.181,8.9a.67.67,0,0,1-.515.244c-.363,0-.18.214-4.263-4.4l7.706-7.5ZM108.3,87.056l2.879-3.174,2.918,3.245-1.068,1.534h-3.573Zm29.932-52.188V36.9a7.991,7.991,0,0,0-3.344-.632v-1.4Zm-3.344,11.387V39.913c1.955-.1,3.971,1.222,3.971,3.17C138.853,44.973,136.958,46.366,134.883,46.256Zm1.741-21.561H124.8V8.07A26.233,26.233,0,0,1,136.624,24.694ZM114.683,4.383c-.1.718-.034.632-.054,5.784a1.817,1.817,0,0,0,3.634,0V5.087a1.453,1.453,0,0,1,2.9-.046c0,.205,0,15.6,0,19.654h-2.907V18.645a1.817,1.817,0,0,0-3.634,0v6.049h-7.146c-.045-18.907.07-19.506-.055-20.349A38.881,38.881,0,0,1,114.683,4.383Zm-10.856.463c.034.2.018,13.981.022,19.849h-2.907c0-5.57.006-19.727.007-19.736A1.463,1.463,0,0,1,103.827,4.846ZM97.308,7.908V24.695H85.219A26.31,26.31,0,0,1,97.308,7.908ZM78.944,29.782A1.455,1.455,0,0,1,80.4,28.328h61.316a1.454,1.454,0,1,1,0,2.907H80.4A1.455,1.455,0,0,1,78.944,29.782Zm8.016,5.087v1.4a7.98,7.98,0,0,0-2.659.377V34.869Zm-1.9,5.374a4.236,4.236,0,0,1,1.9-.33v6.343C82.958,46.467,81.395,41.813,85.058,40.243ZM92.7,56.334c-2.759-5.677-2.111-8.978-2.111-21.465h40.656c-.053,14.319.087,14.036-.433,16.609C127.55,68.856,102.509,74.69,92.7,56.334Zm8.382,17.582,7.567,7.336c-4.2,4.63-3.8,4.193-3.828,4.221a.68.68,0,0,1-.985-.062l-6.112-8.8Zm8.783,18.379h2.757l5.688,18.752h0c.213.7-.1.427-7.066,8.4l-6.917-7.72C103.825,111.157,104.138,111.637,109.869,92.295Zm44.018,26.981a1.1,1.1,0,0,1-1.09,1.09h-13.45v-5.173c14.359.009,13.424-.019,13.634.019a1.107,1.107,0,0,1,.905,1.071Z" transform="translate(0 0)"/>
    <path id="Trazado_724912" data-name="Trazado 724912" d="M302.331,407.474a1.817,1.817,0,0,0,0,3.634h6.783a1.817,1.817,0,0,0,0-3.634Z" transform="translate(-178.47 -308.789)"/>
  </g>
</svg>
