<svg xmlns="http://www.w3.org/2000/svg" width="126" height="126" viewBox="0 0 126 126">
  <g id="Grupo_959294" data-name="Grupo 959294" transform="translate(-285 -23752)">
    <circle id="Elipse_5625" data-name="Elipse 5625" cx="63" cy="63" r="63" transform="translate(285 23752)" fill="#80cab6"/>
    <g id="chimeneas" transform="translate(313 23780)">
      <path id="Trazado_724827" data-name="Trazado 724827" d="M32,84.758H93.25v51.3H32Z" transform="translate(-27.625 -73.17)" fill="#7d4605"/>
      <path id="Trazado_724828" data-name="Trazado 724828" d="M113.969,156.776V108.758H67.6a11.6,11.6,0,0,0-11.6,11.6v36.422Z" transform="translate(-48.344 -93.889)" fill="#915a19"/>
      <path id="Trazado_724829" data-name="Trazado 724829" d="M15.424,52.721H81.207v4.823H15.424Z" transform="translate(-13.315 -45.513)" fill="#a56e2d"/>
      <path id="Trazado_724830" data-name="Trazado 724830" d="M49.438,55.357H109.3V52.721H47.962V53.88a1.477,1.477,0,0,0,1.476,1.477Z" transform="translate(-41.405 -45.513)" fill="#b98241"/>
      <path id="Trazado_724831" data-name="Trazado 724831" d="M88,172.553V150a22.969,22.969,0,0,1,45.938,0v22.55Z" transform="translate(-75.969 -109.666)" fill="#a56e2d"/>
      <path id="Trazado_724832" data-name="Trazado 724832" d="M138.594,159.035A18.594,18.594,0,0,0,120,177.629v22.55h37.188V177.629a18.594,18.594,0,0,0-18.594-18.594Z" transform="translate(-103.594 -137.292)" fill="#484a50"/>
      <path id="Trazado_724833" data-name="Trazado 724833" d="M136.2,166.587a18.563,18.563,0,0,0-6.144,1.041A18.592,18.592,0,0,0,120,184.148V206.7h34.793V185.181A18.594,18.594,0,0,0,136.2,166.587Z" transform="translate(-103.594 -143.811)" fill="#52545a"/>
      <path id="Trazado_724834" data-name="Trazado 724834" d="M183.131,251.982a17.02,17.02,0,0,1-.176,8.664,9.007,9.007,0,0,1-3.966,4.551,11.054,11.054,0,0,0-.173-4.775,6.32,6.32,0,0,0-3.2-3.562s.768,4.862-2.251,8.147c-2,2.177-4.427,3.592-5.2,6.916-.836,3.6,1.855,7.949,1.855,7.949h17.09s4.127-3.038,4.771-7.38C193.571,261.074,183.131,251.982,183.131,251.982Z" transform="translate(-145.031 -217.531)" fill="#fab43c"/>
      <path id="Trazado_724835" data-name="Trazado 724835" d="M215.181,344c-1.182,2.9-5.022,6.4-8.621,6.538a1.99,1.99,0,0,1-2.284-1.651s-2.807,1.694-3.03,3.7a7.182,7.182,0,0,0,.78,3.728,19.887,19.887,0,0,0,1.862,3l4.813,0c2.713-1.263,6.176-3.883,7.317-7.656A10.9,10.9,0,0,0,215.181,344Z" transform="translate(-173.7 -296.969)" fill="#fadc64"/>
      <path id="Trazado_724836" data-name="Trazado 724836" d="M8,456H75.813v6.563H8Z" transform="translate(-6.906 -393.656)" fill="#a56e2d"/>
      <path id="Trazado_724837" data-name="Trazado 724837" d="M34.94,459.825H96.531V456H32v.884a2.94,2.94,0,0,0,2.94,2.94Z" transform="translate(-27.625 -393.656)" fill="#b98241"/>
      <path id="Trazado_724838" data-name="Trazado 724838" d="M8,8H75.813v6.563H8Z" transform="translate(-6.906 -6.906)" fill="#7d4605"/>
      <path id="Trazado_724839" data-name="Trazado 724839" d="M43.309,12.375H103.9V8H40.538V9.6a2.771,2.771,0,0,0,2.771,2.771Z" transform="translate(-34.996 -6.906)" fill="#915a19"/>
      <g id="Grupo_959071" data-name="Grupo 959071">
        <path id="Trazado_724840" data-name="Trazado 724840" d="M67.891,13.125a1.094,1.094,0,0,0,1.094-1.094V8.746A1.094,1.094,0,0,0,70,7.656V1.094A1.094,1.094,0,0,0,68.906,0H1.094A1.094,1.094,0,0,0,0,1.094V7.656a1.094,1.094,0,0,0,1.015,1.09v3.285a1.094,1.094,0,0,0,1.094,1.094H3.281V61.25H1.094A1.094,1.094,0,0,0,0,62.344v6.563A1.094,1.094,0,0,0,1.094,70H68.906A1.094,1.094,0,0,0,70,68.906V62.344a1.094,1.094,0,0,0-1.094-1.094H66.719V13.125ZM3.2,8.75H9.844a1.094,1.094,0,0,0,0-2.187H2.187V2.188H67.813V6.563H14.219a1.094,1.094,0,0,0,0,2.188H66.8v2.188H3.2Zm64.61,59.063H2.187V63.438H67.812ZM33.3,48.542a1.094,1.094,0,0,0,1.165.091,10.083,10.083,0,0,0,4.494-5.175,16.031,16.031,0,0,0,.7-5.816,31.481,31.481,0,0,1,2.566,3.426c3.01,4.664,4.2,9.284,3.541,13.732-.479,3.222-3.2,5.722-4.072,6.447H38.843A12.811,12.811,0,0,0,43.364,55c.779-2.577.5-5.25-.882-8.411a1.094,1.094,0,0,0-2.016.026c-1.086,2.669-4.588,5.741-7.65,5.857-.849.032-1.1-.351-1.156-.684a1.049,1.049,0,0,0-.578-.868,1.091,1.091,0,0,0-1.074.058c-.335.2-3.277,2.044-3.552,4.515a7.014,7.014,0,0,0,.637,3.7c.075.182.145.354.2.5q.013.037.027.072a11.61,11.61,0,0,0,.8,1.473H25.625c-.625-1.182-2-4.162-1.43-6.608.5-2.168,1.812-3.4,3.328-4.829.531-.5,1.081-1.018,1.61-1.594a10.713,10.713,0,0,0,2.606-6.679,4.525,4.525,0,0,1,1,1.686,10,10,0,0,1,.143,4.228,1.094,1.094,0,0,0,.418,1.091Zm-3.958,10.4c-.068-.192-.144-.379-.225-.576a4.916,4.916,0,0,1-.488-2.633,4.03,4.03,0,0,1,1.534-2.167,3.285,3.285,0,0,0,2.734,1.09c3.173-.12,6.43-2.425,8.347-5.037a8.425,8.425,0,0,1,.024,4.746C40.3,57.58,37.311,60,34.757,61.248H30.746a16.162,16.162,0,0,1-1.4-2.3Zm35.187,2.3H59.062V46.1a1.094,1.094,0,0,0-2.187,0V61.25H44.824a12.181,12.181,0,0,0,3.1-6.128c.732-4.936-.617-10.224-3.9-15.293a31.9,31.9,0,0,0-5.208-6.2,1.094,1.094,0,0,0-1.775,1.107,16.029,16.029,0,0,1-.158,8.037,6.6,6.6,0,0,1-1.649,2.55,9.69,9.69,0,0,0-.41-2.763,7.421,7.421,0,0,0-3.809-4.232A1.095,1.095,0,0,0,29.5,39.5c.007.044.637,4.4-1.976,7.239-.476.518-1,1.008-1.5,1.482-1.626,1.531-3.307,3.115-3.959,5.927-.6,2.566.345,5.373,1.126,7.105H13.125V40.337a21.875,21.875,0,0,1,43.75,0v1.392a1.094,1.094,0,0,0,2.188,0V40.337a24.063,24.063,0,0,0-48.125,0V61.25H5.469V13.125H64.531Z"/>
        <path id="Trazado_724841" data-name="Trazado 724841" d="M131.688,151.035A19.71,19.71,0,0,0,112,170.723v17.795a1.094,1.094,0,1,0,2.188,0V170.722a17.5,17.5,0,0,1,35,0v17.795a1.094,1.094,0,1,0,2.188,0V170.722A19.71,19.71,0,0,0,131.688,151.035Z" transform="translate(-96.688 -130.386)"/>
        <path id="Trazado_724842" data-name="Trazado 724842" d="M169.5,222.354a1.1,1.1,0,0,0-1.13,1.057l-.037,1.119a1.094,1.094,0,0,0,1.057,1.13h.037a1.094,1.094,0,0,0,1.092-1.057l.037-1.119A1.094,1.094,0,0,0,169.5,222.354Z" transform="translate(-145.314 -191.953)"/>
        <path id="Trazado_724843" data-name="Trazado 724843" d="M243.52,180.8l-.755.826a1.094,1.094,0,0,0,1.615,1.475l.755-.826a1.094,1.094,0,1,0-1.615-1.475Z" transform="translate(-209.328 -155.777)"/>
        <path id="Trazado_724844" data-name="Trazado 724844" d="M342.42,257.7a1.094,1.094,0,0,0-1.368.722l-.331,1.069a1.094,1.094,0,0,0,2.09.646l.331-1.069A1.094,1.094,0,0,0,342.42,257.7Z" transform="translate(-294.096 -222.425)"/>
        <path id="Trazado_724845" data-name="Trazado 724845" d="M232.672,231.07a1.094,1.094,0,1,0-1.881,1.116l.571.963a1.094,1.094,0,1,0,1.881-1.116Z" transform="translate(-199.105 -199.015)"/>
        <path id="Trazado_724846" data-name="Trazado 724846" d="M299.1,206.483a1.094,1.094,0,0,0-2.181.168l.086,1.116a1.094,1.094,0,0,0,1.089,1.01c.028,0,.057,0,.085,0a1.094,1.094,0,0,0,1.007-1.174Z" transform="translate(-256.319 -177.381)"/>
        <path id="Trazado_724847" data-name="Trazado 724847" d="M159.939,294.822a1.094,1.094,0,0,0-1.535.191l-.687.884a1.094,1.094,0,0,0,1.727,1.343l.687-.884A1.094,1.094,0,0,0,159.939,294.822Z" transform="translate(-135.956 -254.315)"/>
      </g>
    </g>
  </g>
</svg>
