<svg xmlns="http://www.w3.org/2000/svg" xmlns:xlink="http://www.w3.org/1999/xlink" width="186" height="186" viewBox="0 0 186 186">
  <defs>
    <filter id="Elipse_5603" x="0" y="0" width="186" height="186" filterUnits="userSpaceOnUse">
      <feOffset dy="3" input="SourceAlpha"/>
      <feGaussianBlur stdDeviation="3" result="blur"/>
      <feFlood flood-opacity="0.161"/>
      <feComposite operator="in" in2="blur"/>
      <feComposite in="SourceGraphic"/>
    </filter>
    <clipPath id="clip-path">
      <rect id="Rectángulo_4461" data-name="Rectángulo 4461" width="121" height="73.702" fill="none"/>
    </clipPath>
    <clipPath id="clip-path-3">
      <rect id="Rectángulo_4449" data-name="Rectángulo 4449" width="38.941" height="14.884" fill="none"/>
    </clipPath>
    <clipPath id="clip-path-4">
      <rect id="Rectángulo_4452" data-name="Rectángulo 4452" width="9.49" height="52.186" fill="none"/>
    </clipPath>
    <clipPath id="clip-path-5">
      <rect id="Rectángulo_4456" data-name="Rectángulo 4456" width="2.966" height="48.78" fill="none"/>
    </clipPath>
    <clipPath id="clip-path-6">
      <rect id="Rectángulo_4457" data-name="Rectángulo 4457" width="2.471" height="39.543" fill="none"/>
    </clipPath>
  </defs>
  <g id="Grupo_959087" data-name="Grupo 959087" transform="translate(-287 -1050)">
    <g transform="matrix(1, 0, 0, 1, 287, 1050)" filter="url(#Elipse_5603)">
      <circle id="Elipse_5603-2" data-name="Elipse 5603" cx="84" cy="84" r="84" transform="translate(9 6)" fill="#80cab6"/>
    </g>
    <g id="Grupo_17124" data-name="Grupo 17124" transform="translate(320 1103)" clip-path="url(#clip-path)">
      <rect id="Rectángulo_4440" data-name="Rectángulo 4440" width="54.042" height="52.185" transform="translate(35.72 17.277)" fill="#75a2a3"/>
      <rect id="Rectángulo_4441" data-name="Rectángulo 4441" width="54.042" height="3.955" transform="translate(35.72 41.393)" fill="#2d6873"/>
      <rect id="Rectángulo_4442" data-name="Rectángulo 4442" width="54.042" height="3.955" transform="translate(35.72 34.802)" fill="#2d6873"/>
      <rect id="Rectángulo_4443" data-name="Rectángulo 4443" width="54.042" height="3.955" transform="translate(35.72 28.212)" fill="#2d6873"/>
      <rect id="Rectángulo_4444" data-name="Rectángulo 4444" width="54.042" height="3.955" transform="translate(35.72 21.622)" fill="#2d6873"/>
      <rect id="Rectángulo_4445" data-name="Rectángulo 4445" width="54.042" height="3.955" transform="translate(35.72 47.984)" fill="#2d6873"/>
      <rect id="Rectángulo_4446" data-name="Rectángulo 4446" width="54.042" height="3.955" transform="translate(35.72 54.574)" fill="#2d6873"/>
      <rect id="Rectángulo_4447" data-name="Rectángulo 4447" width="54.042" height="3.955" transform="translate(35.72 61.164)" fill="#2d6873"/>
      <g id="Grupo_17123" data-name="Grupo 17123" transform="translate(0 0)">
        <g id="Grupo_17122" data-name="Grupo 17122" clip-path="url(#clip-path)">
          <g id="Grupo_17112" data-name="Grupo 17112" transform="translate(38.394 17.277)" opacity="0.5" style="mix-blend-mode: multiply;isolation: isolate">
            <g id="Grupo_17111" data-name="Grupo 17111">
              <g id="Grupo_17110" data-name="Grupo 17110" clip-path="url(#clip-path-3)">
                <rect id="Rectángulo_4448" data-name="Rectángulo 4448" width="38.941" height="14.883" transform="translate(0 0)" fill="#75a2a3"/>
              </g>
            </g>
          </g>
          <path id="Trazado_32352" data-name="Trazado 32352" d="M102.154,13.734H81.328V70.159h20.826a10.413,10.413,0,0,0,10.412-10.413v-35.6a10.413,10.413,0,0,0-10.412-10.413" transform="translate(8.434 1.424)" fill="#2d6873"/>
          <rect id="Rectángulo_4450" data-name="Rectángulo 4450" width="32.688" height="22.297" transform="translate(41.519 5.272)" fill="#2d6873"/>
          <path id="Trazado_32353" data-name="Trazado 32353" d="M62.4,0H45.527L37.618,5.272H70.307Z" transform="translate(3.901 0)" fill="#2d6873"/>
          <path id="Trazado_32354" data-name="Trazado 32354" d="M63.046,12.595a5.668,5.668,0,1,0-5.669,5.668,5.668,5.668,0,0,0,5.669-5.668" transform="translate(5.362 0.718)" fill="#134157"/>
          <path id="Trazado_32355" data-name="Trazado 32355" d="M1.587,37.858h22a1.587,1.587,0,0,1,0,3.173h-22a1.587,1.587,0,1,1,0-3.173" transform="translate(0 3.926)" fill="#75a2a3"/>
          <g id="Grupo_17115" data-name="Grupo 17115" transform="translate(80.272 17.277)" opacity="0.5" style="mix-blend-mode: multiply;isolation: isolate">
            <g id="Grupo_17114" data-name="Grupo 17114">
              <g id="Grupo_17113" data-name="Grupo 17113" clip-path="url(#clip-path-4)">
                <rect id="Rectángulo_4451" data-name="Rectángulo 4451" width="9.491" height="52.185" transform="translate(0 0)" fill="#75a2a3"/>
              </g>
            </g>
          </g>
          <rect id="Rectángulo_4453" data-name="Rectángulo 4453" width="7.71" height="56.425" transform="translate(28.01 15.158)" fill="#2d6873"/>
          <rect id="Rectángulo_4454" data-name="Rectángulo 4454" width="7.71" height="48.779" transform="translate(20.299 18.98)" fill="#2d6873"/>
          <path id="Trazado_32356" data-name="Trazado 32356" d="M11.405,53.016l7.71,7.909V21.381l-7.71,7.909Z" transform="translate(1.183 2.217)" fill="#2d6873"/>
          <g id="Grupo_17118" data-name="Grupo 17118" transform="translate(25.044 18.98)" opacity="0.5" style="mix-blend-mode: multiply;isolation: isolate">
            <g id="Grupo_17117" data-name="Grupo 17117">
              <g id="Grupo_17116" data-name="Grupo 17116" clip-path="url(#clip-path-5)">
                <rect id="Rectángulo_4455" data-name="Rectángulo 4455" width="2.967" height="48.779" transform="translate(-0.001 0)" fill="#75a2a3"/>
              </g>
            </g>
          </g>
          <g id="Grupo_17121" data-name="Grupo 17121" transform="translate(17.827 23.599)" opacity="0.5" style="mix-blend-mode: multiply;isolation: isolate">
            <g id="Grupo_17120" data-name="Grupo 17120">
              <g id="Grupo_17119" data-name="Grupo 17119" clip-path="url(#clip-path-6)">
                <path id="Trazado_32357" data-name="Trazado 32357" d="M18.624,21.382l-2.471,2.535V58.39l2.471,2.534Z" transform="translate(-16.152 -21.382)" fill="#75a2a3"/>
              </g>
            </g>
          </g>
          <rect id="Rectángulo_4458" data-name="Rectángulo 4458" width="22.144" height="10.94" transform="translate(44.421 58.523)" fill="#b7d3db"/>
          <rect id="Rectángulo_4459" data-name="Rectángulo 4459" width="37.433" height="4.239" transform="translate(36.774 69.463)" fill="#b7d3db"/>
          <path id="Trazado_32358" data-name="Trazado 32358" d="M48.358,58.184a2.175,2.175,0,1,0-2.175,2.175,2.175,2.175,0,0,0,2.175-2.175" transform="translate(4.564 5.808)" fill="#75a2a3"/>
          <path id="Trazado_32359" data-name="Trazado 32359" d="M52.606,58.184a2.174,2.174,0,1,1,2.175,2.175,2.175,2.175,0,0,1-2.175-2.175" transform="translate(5.455 5.808)" fill="#75a2a3"/>
        </g>
      </g>
    </g>
  </g>
</svg>
