<svg xmlns="http://www.w3.org/2000/svg" width="80.22" height="77" viewBox="0 0 80.22 77">
  <g id="muestra" transform="translate(0 -10.277)">
    <path id="Trazado_724854" data-name="Trazado 724854" d="M34.992,165.112a7.145,7.145,0,0,1-7.145-7.145v-54h14.29v54A7.145,7.145,0,0,1,34.992,165.112Z" transform="translate(-23.484 -79.01)" fill="#fdfcfc"/>
    <path id="Trazado_724855" data-name="Trazado 724855" d="M63.246,103.967v54a7.147,7.147,0,0,1-4.795,6.748,7.145,7.145,0,0,0,9.5-6.748v-54Z" transform="translate(-49.293 -79.01)" fill="#eee"/>
    <path id="Trazado_724856" data-name="Trazado 724856" d="M217.541,165.112a7.145,7.145,0,0,1-7.145-7.145v-54h14.29v54A7.145,7.145,0,0,1,217.541,165.112Z" transform="translate(-177.431 -79.01)" fill="#fdfcfc"/>
    <path id="Trazado_724857" data-name="Trazado 724857" d="M245.8,103.967v54A7.147,7.147,0,0,1,241,164.715a7.145,7.145,0,0,0,9.5-6.748v-54Z" transform="translate(-203.241 -79.01)" fill="#eee"/>
    <path id="Trazado_724858" data-name="Trazado 724858" d="M400.091,165.112a7.145,7.145,0,0,1-7.145-7.145v-54h14.29v54A7.145,7.145,0,0,1,400.091,165.112Z" transform="translate(-331.379 -79.01)" fill="#fdfcfc"/>
    <path id="Trazado_724859" data-name="Trazado 724859" d="M428.346,103.967v54a7.147,7.147,0,0,1-4.795,6.748,7.145,7.145,0,0,0,9.5-6.748v-54Z" transform="translate(-357.189 -79.01)" fill="#eee"/>
    <path id="Trazado_724860" data-name="Trazado 724860" d="M26.4,31.282H9.265A1.765,1.765,0,0,1,7.5,29.517V19.543a1.765,1.765,0,0,1,1.765-1.765H26.4a1.765,1.765,0,0,1,1.765,1.765v9.975A1.765,1.765,0,0,1,26.4,31.282Z" transform="translate(-6.325 -6.325)" fill="#f8e883"/>
    <path id="Trazado_724861" data-name="Trazado 724861" d="M27.847,212.127h14.29V241.9H27.847Z" transform="translate(-23.484 -170.223)" fill="#d4cfd5"/>
    <path id="Trazado_724862" data-name="Trazado 724862" d="M208.951,31.282H191.815a1.765,1.765,0,0,1-1.765-1.765V19.543a1.765,1.765,0,0,1,1.765-1.765h17.137a1.765,1.765,0,0,1,1.765,1.765v9.975A1.765,1.765,0,0,1,208.951,31.282Z" transform="translate(-160.273 -6.325)" fill="#bed9fd"/>
    <path id="Trazado_724863" data-name="Trazado 724863" d="M210.4,212.127h14.29V241.9H210.4Z" transform="translate(-177.432 -170.223)" fill="#d4cfd5"/>
    <path id="Trazado_724864" data-name="Trazado 724864" d="M391.5,31.282H374.364a1.765,1.765,0,0,1-1.765-1.765V19.543a1.765,1.765,0,0,1,1.765-1.765H391.5a1.765,1.765,0,0,1,1.765,1.765v9.975A1.765,1.765,0,0,1,391.5,31.282Z" transform="translate(-314.22 -6.325)" fill="#e27f86"/>
    <path id="Trazado_724865" data-name="Trazado 724865" d="M392.947,212.127h14.29V241.9h-14.29Z" transform="translate(-331.38 -170.223)" fill="#d4cfd5"/>
    <path id="Trazado_724866" data-name="Trazado 724866" d="M102.837,17.778h-4.7A1.765,1.765,0,0,1,99.9,19.543v9.975a1.765,1.765,0,0,1-1.765,1.765h4.7a1.765,1.765,0,0,0,1.765-1.765V19.543A1.765,1.765,0,0,0,102.837,17.778Z" transform="translate(-82.761 -6.325)" fill="#f7e365"/>
    <path id="Trazado_724867" data-name="Trazado 724867" d="M89.054,212.127h4.7V241.9h-4.7Z" transform="translate(-75.101 -170.223)" fill="#c5bec6"/>
    <path id="Trazado_724868" data-name="Trazado 724868" d="M285.387,17.778h-4.7a1.765,1.765,0,0,1,1.765,1.765v9.975a1.765,1.765,0,0,1-1.765,1.765h4.7a1.765,1.765,0,0,0,1.765-1.765V19.543A1.765,1.765,0,0,0,285.387,17.778Z" transform="translate(-236.709 -6.325)" fill="#80b6fc"/>
    <path id="Trazado_724869" data-name="Trazado 724869" d="M271.6,212.127h4.7V241.9h-4.7Z" transform="translate(-229.049 -170.223)" fill="#c5bec6"/>
    <path id="Trazado_724870" data-name="Trazado 724870" d="M467.937,17.778h-4.7A1.765,1.765,0,0,1,465,19.543v9.975a1.765,1.765,0,0,1-1.765,1.765h4.7a1.765,1.765,0,0,0,1.765-1.765V19.543A1.765,1.765,0,0,0,467.937,17.778Z" transform="translate(-390.657 -6.325)" fill="#df646e"/>
    <path id="Trazado_724871" data-name="Trazado 724871" d="M454.154,212.127h4.7V241.9h-4.7Z" transform="translate(-382.997 -170.223)" fill="#c5bec6"/>
    <path id="Trazado_724872" data-name="Trazado 724872" d="M20.077,10.278H2.94A2.943,2.943,0,0,0,0,13.218v9.975a2.943,2.943,0,0,0,2.94,2.94h.248v2.03a1.175,1.175,0,1,0,2.35,0v-2.03h11.94v14.6H5.538V32.863a1.175,1.175,0,1,0-2.35,0V78.957a8.32,8.32,0,0,0,16.641,0V26.132h.248a2.943,2.943,0,0,0,2.94-2.94V13.218a2.944,2.944,0,0,0-2.94-2.94Zm-2.6,32.8V70.5H5.538V43.079Zm-5.97,41.848a5.977,5.977,0,0,1-5.97-5.97V72.848h11.94v6.109A5.977,5.977,0,0,1,11.508,84.927ZM13,12.628h2.717V23.782H13Zm-2.35,11.154H7.939V12.628h2.707Zm-8.3-.59V13.218a.59.59,0,0,1,.59-.59H5.589V23.782H2.94a.59.59,0,0,1-.59-.59Zm18.316,0a.59.59,0,0,1-.59.59H18.063V12.628h2.013a.59.59,0,0,1,.59.59Z" transform="translate(0 0)"/>
    <path id="Trazado_724873" data-name="Trazado 724873" d="M60.048,251.741H63.4a1.175,1.175,0,0,0,0-2.35H60.048a1.175,1.175,0,0,0,0,2.35Z" transform="translate(-49.649 -201.649)"/>
    <path id="Trazado_724874" data-name="Trazado 724874" d="M60.048,297.2H63.4a1.175,1.175,0,1,0,0-2.35H60.048a1.175,1.175,0,1,0,0,2.35Z" transform="translate(-49.649 -239.985)"/>
    <path id="Trazado_724875" data-name="Trazado 724875" d="M63.4,340.308H60.048a1.175,1.175,0,1,0,0,2.35H63.4a1.175,1.175,0,1,0,0-2.35Z" transform="translate(-49.649 -278.321)"/>
    <path id="Trazado_724876" data-name="Trazado 724876" d="M202.626,10.278H185.49a2.943,2.943,0,0,0-2.94,2.94v9.975a2.943,2.943,0,0,0,2.94,2.94h.248V78.957a8.32,8.32,0,0,0,16.641,0V56.683a1.175,1.175,0,1,0-2.35,0V70.5h-11.94V43.079h11.94v8.9a1.175,1.175,0,1,0,2.35,0V26.132h.248a2.943,2.943,0,0,0,2.94-2.94V13.218a2.943,2.943,0,0,0-2.94-2.94Zm-7.3,13.5V12.628h2.717V23.782Zm-5.058,0V12.628h2.707V23.782Zm-5.369-.59V13.218a.59.59,0,0,1,.59-.59h2.43V23.782h-2.43A.59.59,0,0,1,184.9,23.193Zm15.128,49.655v6.109a5.97,5.97,0,0,1-11.94,0V72.848Zm0-32.119h-11.94v-14.6h11.94Zm3.188-17.536a.59.59,0,0,1-.59.59h-2.232V12.628h2.232a.59.59,0,0,1,.59.59Z" transform="translate(-153.948)"/>
    <path id="Trazado_724877" data-name="Trazado 724877" d="M245.953,249.391H242.6a1.175,1.175,0,0,0,0,2.35h3.355a1.175,1.175,0,1,0,0-2.35Z" transform="translate(-203.597 -201.649)"/>
    <path id="Trazado_724878" data-name="Trazado 724878" d="M245.953,294.85H242.6a1.175,1.175,0,0,0,0,2.35h3.355a1.175,1.175,0,1,0,0-2.35Z" transform="translate(-203.597 -239.985)"/>
    <path id="Trazado_724879" data-name="Trazado 724879" d="M245.953,340.308H242.6a1.175,1.175,0,0,0,0,2.35h3.355a1.175,1.175,0,1,0,0-2.35Z" transform="translate(-203.597 -278.321)"/>
    <path id="Trazado_724880" data-name="Trazado 724880" d="M385.175,10.278H368.039a2.943,2.943,0,0,0-2.94,2.94v9.975a2.943,2.943,0,0,0,2.94,2.94h.248V78.957a8.32,8.32,0,0,0,16.641,0V26.132h.248a2.943,2.943,0,0,0,2.94-2.94V13.218a2.943,2.943,0,0,0-2.94-2.94Zm-7.241,13.5V12.628h2.717V23.782Zm-5.058,0V12.628h2.707V23.782Zm-5.428-.59V13.218a.59.59,0,0,1,.59-.59h2.488V23.782h-2.488A.59.59,0,0,1,367.449,23.193ZM382.577,70.5h-11.94V43.079h11.94Zm-5.97,14.43a5.977,5.977,0,0,1-5.97-5.97V72.848h11.94v6.109A5.977,5.977,0,0,1,376.607,84.927Zm5.97-44.2h-11.94v-14.6h11.94Zm3.188-17.536a.59.59,0,0,1-.59.59H383V12.628h2.174a.59.59,0,0,1,.59.59Z" transform="translate(-307.895)"/>
    <path id="Trazado_724881" data-name="Trazado 724881" d="M425.148,251.741H428.5a1.175,1.175,0,0,0,0-2.35h-3.355a1.175,1.175,0,0,0,0,2.35Z" transform="translate(-357.545 -201.649)"/>
    <path id="Trazado_724882" data-name="Trazado 724882" d="M425.148,297.2H428.5a1.175,1.175,0,1,0,0-2.35h-3.355a1.175,1.175,0,1,0,0,2.35Z" transform="translate(-357.545 -239.985)"/>
    <path id="Trazado_724883" data-name="Trazado 724883" d="M428.5,340.308h-3.355a1.175,1.175,0,1,0,0,2.35H428.5a1.175,1.175,0,1,0,0-2.35Z" transform="translate(-357.545 -278.321)"/>
  </g>
</svg>
