<svg xmlns="http://www.w3.org/2000/svg" xmlns:xlink="http://www.w3.org/1999/xlink" width="408" height="544" viewBox="0 0 408 544">
  <defs>
    <clipPath id="clip-path">
      <rect id="Rectángulo_340067" data-name="Rectángulo 340067" width="408" height="523" transform="translate(-51 -7252)" fill="#fff" stroke="#707070" stroke-width="1"/>
    </clipPath>
    <linearGradient id="linear-gradient" x1="0.5" x2="0.5" y2="1" gradientUnits="objectBoundingBox">
      <stop offset="0" stop-color="#0540b7"/>
      <stop offset="1" stop-color="#03205c"/>
    </linearGradient>
  </defs>
  <g id="Grupo_959073" data-name="Grupo 959073" transform="translate(118 9126)">
    <g id="Grupo_959072" data-name="Grupo 959072">
      <g id="Grupo_959070" data-name="Grupo 959070">
        <g id="Enmascarar_grupo_927231" data-name="Enmascarar grupo 927231" transform="translate(-67 -1853)" clip-path="url(#clip-path)">
          <g id="Grupo_958477" data-name="Grupo 958477" transform="translate(-3274.041 -7376.57)">
            <g id="Grupo_958463" data-name="Grupo 958463" transform="translate(3226.531 848.91)">
              <path id="Trazado_722909" data-name="Trazado 722909" d="M3274.457,1021.884s-4.024,14.489-2.1,21.129,10.652,44.522,4.858,46.345-11.14,5.024-15.86-18.166c0,0-7.138,2.552-6.51,7.914s11.9,11.193,12.89,14.8a5.072,5.072,0,0,1-5.264,6.339s9.757,5.15,3.862,10.99c0,0-1.744,2.207-6.872-.053,0,0,3.463,12.467-3.757,11.882s-25.9-18.42-27.16-24.28-1.432-24.433-.617-29.678,9.962-39.5,10.848-53.907Z" transform="translate(-3227.427 -1015.195)" fill="#e4edf4"/>
              <path id="Trazado_722910" data-name="Trazado 722910" d="M3238.289,1032.283l.816.261s18.351,5.859,34.437,1.543l.659.1a87.871,87.871,0,0,1,2.37-12.306l-35.684-6.689A142.435,142.435,0,0,1,3238.289,1032.283Z" transform="translate(-3229.54 -1015.195)" fill="#3a5870"/>
              <path id="Trazado_722911" data-name="Trazado 722911" d="M3270.267,1124.758c5.9-5.84-3.863-10.99-3.863-10.99a5.072,5.072,0,0,0,5.265-6.339c-.994-3.6-12.262-9.433-12.89-14.795s6.51-7.914,6.51-7.914c-17.159,4.108-18.733,27.7-17.162,33.382s14.507,17.631,14.507,17.631h0c3.059-2.747.76-11.028.76-11.028C3268.523,1126.965,3270.267,1124.758,3270.267,1124.758Z" transform="translate(-3231.363 -1028.723)" fill="#3a5870"/>
            </g>
            <g id="Grupo_958464" data-name="Grupo 958464" transform="translate(3592.593 849.426)">
              <path id="Trazado_722912" data-name="Trazado 722912" d="M3689.762,1020.7s3.281,14.674,1.023,21.209-12.9,43.922-7.212,46.037,10.87,5.585,16.764-17.335c0,0,7,2.913,6.1,8.235s-12.45,10.573-13.626,14.12a5.072,5.072,0,0,0,4.935,6.6s-10.007,4.646-4.417,10.779c0,0,1.629,2.293,6.865.3,0,0-4.093,12.274,3.148,12.058s26.805-17.078,28.361-22.865,2.675-24.329,2.127-29.608-7.937-39.956-8.089-54.389Z" transform="translate(-3681.919 -1015.836)" fill="#e4edf4"/>
              <path id="Trazado_722913" data-name="Trazado 722913" d="M3729.359,1033.034l-.828.218s-18.625,4.918-34.472-.212l-.663.069a87.8,87.8,0,0,0-1.74-12.41l35.978-4.864A142.354,142.354,0,0,0,3729.359,1033.034Z" transform="translate(-3683.814 -1015.836)" fill="#3a5870"/>
              <path id="Trazado_722914" data-name="Trazado 722914" d="M3695.674,1123.576c-5.59-6.132,4.417-10.779,4.417-10.779a5.072,5.072,0,0,1-4.935-6.6c1.176-3.547,12.726-8.8,13.626-14.12s-6.1-8.235-6.1-8.235c16.928,4.977,17.3,28.62,15.44,34.213s-15.386,16.869-15.386,16.869h0c-2.916-2.9-.2-11.052-.2-11.052C3697.3,1125.868,3695.674,1123.576,3695.674,1123.576Z" transform="translate(-3684.265 -1029.068)" fill="#3a5870"/>
            </g>
            <g id="Grupo_958465" data-name="Grupo 958465" transform="translate(3406.485 321.078)">
              <path id="Trazado_722915" data-name="Trazado 722915" d="M3450.852,359.852l3.275,64.66,9.394,74.478,53.946-8.857-3.758-65.219.891-37.866Z" transform="translate(-3450.852 -359.852)" fill="#f3aa8b"/>
            </g>
            <g id="Grupo_958467" data-name="Grupo 958467" transform="translate(3222.823 385.738)">
              <g id="Grupo_958466" data-name="Grupo 958466" transform="translate(0 0)">
                <path id="Trazado_722916" data-name="Trazado 722916" d="M3584.061,484.8c-16.621-21.735-65.277-33.183-65.277-33.183l-49.443-11.081s-1.14,26.11-30.379,25.383-29.2-25.785-29.2-25.785l-71.974,14.929c-.006,0-19.88,4.1-34.478,20.576s-25.866,48.5-30.716,72.209-8.671,43.906-12.933,75.443c-8.877,65.694-14.01,99.692-23.171,165.434-2.308,16.557-9.106,50.727-10.778,67.36-1.305,12.99-6.581,36.885,1.561,48.257,10.059,14.048,52.343,13.768,59.267-2.42,2.958-6.915,7.223-30.049,9.226-56.615,1.709-22.656,3.013-43.244,5.928-65.743,3.373-26.032,10.434-47.669,12.166-74.324-6.6,101.573-8,210.787-7.105,211.574,8.589,7.515,255.146.741,255.146.741s-6.049-225.541-6.059-225.9A153.577,153.577,0,0,0,3561,726.792c1.883,6.513.183,15.946,1.5,22.595,1.094,5.5,3.507,12.72,3.772,18.322.994,21.028,7.219,32.48,8.891,53.348,1.825,22.78,3.491,47.784,8.117,69.318,1.154,5.375,1.4,16.957,4.847,21.217,3.093,3.824,11.512,4.633,16.136,4.845,11.81.545,32.285-5.044,41.373-12.35a12.791,12.791,0,0,0,3.337-3.581c5.307-9.554-1.1-32.746-2.856-42.882-2.515-14.53-10.276-35.333-11.407-50.04-1.705-22.161-4.018-32.274-5.389-56.043-1.137-19.7-4.042-38.8-5.389-63.588-2.22-40.853-8.262-73.287-12.214-112.086C3608.067,539.967,3600.683,506.534,3584.061,484.8Z" transform="translate(-3222.823 -440.133)" fill="#d57e63"/>
              </g>
              <path id="Trazado_722917" data-name="Trazado 722917" d="M3276.016,733.4a34.031,34.031,0,0,0-14.628-26.266c-2.86,19.884-5.525,40.163-7.979,60.133A34.1,34.1,0,0,0,3276.016,733.4Z" transform="translate(-3228.774 -492.083)" fill="#b76751"/>
              <path id="Trazado_722918" data-name="Trazado 722918" d="M3698.11,742.532a34.029,34.029,0,0,0,19.509,22.876c-1.107-20.058-3.134-41.458-4.656-61.52C3700.373,711.432,3694.3,727.58,3698.11,742.532Z" transform="translate(-3315.081 -491.452)" fill="#b76751"/>
            </g>
            <g id="Grupo_958469" data-name="Grupo 958469" transform="translate(3374.386 189.152)">
              <path id="Trazado_722919" data-name="Trazado 722919" d="M3417.159,297.739s-11.391-71.131,7.594-77.46c0,0,1.664-14.324,20.251-19.744,36.451-10.632,51.975.66,62.018,3.29,10.632,2.785,21.2-1.148,27.591,4.557,7.088,6.328,9.113,42.78,8.1,54.424s-5.063,38.223-5.063,38.223Z" transform="translate(-3411.539 -196.057)" fill="#914837"/>
              <g id="Grupo_958468" data-name="Grupo 958468" transform="translate(0 19.912)">
                <path id="Trazado_722920" data-name="Trazado 722920" d="M3534.343,317.558c-2.592,41.931-35.124,58.736-55.22,58.574s-50.572-17.589-54.088-59.453c-5.33-63.449,12.118-95.9,55.265-95.9S3538.2,255.2,3534.343,317.558Z" transform="translate(-3413.55 -220.78)" fill="#f3aa8b"/>
                <path id="Trazado_722921" data-name="Trazado 722921" d="M3518.031,319.6c.029-3.562,1.846-6.436,4.058-6.418s3.983,2.921,3.954,6.483-1.845,6.436-4.058,6.418S3518,323.161,3518.031,319.6Z" transform="translate(-3431.825 -238.758)" fill="#3b2413"/>
                <path id="Trazado_722922" data-name="Trazado 722922" d="M3458.829,319.167c.029-3.563,1.845-6.437,4.058-6.419s3.983,2.921,3.954,6.483-1.845,6.437-4.058,6.419S3458.8,322.73,3458.829,319.167Z" transform="translate(-3420.306 -238.674)" fill="#3b2413"/>
                <path id="Trazado_722923" data-name="Trazado 722923" d="M3494.838,347.878a1.024,1.024,0,0,1-.457-.108l-5.134-2.556a1.028,1.028,0,0,1-.564-1.02l3.041-31.355a1.028,1.028,0,1,1,2.046.2l-2.972,30.65,4.5,2.241a1.029,1.029,0,0,1-.46,1.949Z" transform="translate(-3426.114 -238.511)" fill="#c48974"/>
                <path id="Trazado_722924" data-name="Trazado 722924" d="M3512.755,297.3c-.365,2.3,3.406,3.92,10.719,5.081s15.4,1.422,15.764-.875-7.289-5.272-14.6-6.435S3513.12,295,3512.755,297.3Z" transform="translate(-3430.794 -235.144)" fill="#914837"/>
                <path id="Trazado_722925" data-name="Trazado 722925" d="M3442.165,300.5c.462,2.279,9.381,1.487,16.639.018s10.1-3.057,9.643-5.337-3.854-3.386-11.112-1.917S3441.7,298.22,3442.165,300.5Z" transform="translate(-3417.06 -234.754)" fill="#914837"/>
                <path id="Trazado_722926" data-name="Trazado 722926" d="M3411.941,338.394c3.014,9.168,9.882,15.147,15.342,13.353s7.438-10.679,4.424-19.847-7.137-15.852-12.594-14.058S3408.926,329.225,3411.941,338.394Z" transform="translate(-3411 -239.608)" fill="#f3aa8b"/>
                <path id="Trazado_722927" data-name="Trazado 722927" d="M3568.306,338.394c-3.015,9.168-9.884,15.147-15.342,13.353s-7.44-10.679-4.425-19.847,7.137-15.852,12.6-14.058S3571.321,329.225,3568.306,338.394Z" transform="translate(-3437.487 -239.608)" fill="#f3aa8b"/>
              </g>
              <path id="Trazado_722928" data-name="Trazado 722928" d="M3490.767,373.4a22.984,22.984,0,0,1-9.74-2.3,1.028,1.028,0,1,1,.867-1.864c6.078,2.829,11.755,2.833,17.358.014a1.028,1.028,0,0,1,.925,1.836A20.722,20.722,0,0,1,3490.767,373.4Z" transform="translate(-3424.51 -229.734)" fill="#c48974"/>
              <path id="Trazado_722929" data-name="Trazado 722929" d="M3480.009,220.475c-40.522,0-59.351,21.945-57.283,77.254l3.139,11.985s5.881-56.974,25.773-61.629c12.638-2.958,20.073,2.218,29.738,1.972s21.132-4.975,30.232-2.712c12.887,3.2,19.082,25.391,19.082,62.369l4.137-11.155C3535.8,244.548,3520.276,220.475,3480.009,220.475Z" transform="translate(-3413.252 -200.808)" fill="#914837"/>
            </g>
            <g id="Grupo_958470" data-name="Grupo 958470" transform="translate(3360.911 160.57)">
              <path id="Trazado_722930" data-name="Trazado 722930" d="M3539.907,228.692a63.627,63.627,0,1,0-126.933,9.035l-18.705,24.732a917.658,917.658,0,0,0,167.656-11.934h0Z" transform="translate(-3394.269 -162.323)" fill="#eac759"/>
              <path id="Rectángulo_340059" data-name="Rectángulo 340059" d="M7.5,0H19.249a0,0,0,0,1,0,0V41.284a0,0,0,0,1,0,0H0a0,0,0,0,1,0,0V7.5A7.5,7.5,0,0,1,7.5,0Z" transform="translate(8.844 53.521) rotate(-4.071)" fill="#eac759"/>
              <path id="Rectángulo_340060" data-name="Rectángulo 340060" d="M0,0H11.745a7.5,7.5,0,0,1,7.5,7.5V41.284a0,0,0,0,1,0,0H0a0,0,0,0,1,0,0V0A0,0,0,0,1,0,0Z" transform="translate(133.192 44.669) rotate(-4.071)" fill="#eac759"/>
              <path id="Rectángulo_340061" data-name="Rectángulo 340061" d="M3.578,0h22.3a3.578,3.578,0,0,1,3.578,3.578v8.37a0,0,0,0,1,0,0H0a0,0,0,0,1,0,0V3.578A3.578,3.578,0,0,1,3.578,0Z" transform="translate(62.51 2.091) rotate(-4.072)" fill="#eac759"/>
              <path id="Trazado_722931" data-name="Trazado 722931" d="M3443.757,249.692a.852.852,0,0,1-.852-.83,34.256,34.256,0,0,1,2.851-14.674.826.826,0,0,1,.125-.287,34.443,34.443,0,0,1,5.064-8.1,59.279,59.279,0,0,0,9.69-15.351c4.151-10.067,6.271-24.44,5.4-36.616a.853.853,0,0,1,1.7-.121c.884,12.419-1.286,27.094-5.529,37.386a60.99,60.99,0,0,1-9.961,15.8,32.755,32.755,0,0,0-4.849,7.782l-.016.039a32.563,32.563,0,0,0-2.776,14.1.852.852,0,0,1-.829.876Zm86.039-6.13a.853.853,0,0,1-.846-.755,32.568,32.568,0,0,0-4.745-13.557l-.017-.03a32.732,32.732,0,0,0-5.907-7.023,60.956,60.956,0,0,1-12.1-14.226c-5.658-9.588-9.885-23.808-10.77-36.226a.853.853,0,0,1,1.7-.122c.867,12.176,5,26.1,10.537,35.482a59.324,59.324,0,0,0,11.767,13.823,34.435,34.435,0,0,1,6.2,7.366.95.95,0,0,1,.06.1,34.265,34.265,0,0,1,4.964,14.217.854.854,0,0,1-.749.946C3529.862,243.559,3529.829,243.561,3529.8,243.561Z" transform="translate(-3403.73 -162.567)" fill="#c4a345"/>
              <path id="Trazado_722932" data-name="Trazado 722932" d="M3465.593,189.288a.853.853,0,0,1-.85-.793l-.8-11.289a.853.853,0,0,1,1.7-.122l.8,11.29a.853.853,0,0,1-.79.911Z" transform="translate(-3407.824 -163.629)" fill="#c4a345"/>
              <path id="Trazado_722933" data-name="Trazado 722933" d="M3517.923,185.571a.853.853,0,0,1-.85-.793l-.8-11.253a.853.853,0,1,1,1.7-.121l.8,11.253a.854.854,0,0,1-.791.912Z" transform="translate(-3418.007 -162.913)" fill="#c4a345"/>
            </g>
            <path id="Trazado_722934" data-name="Trazado 722934" d="M3333.469,757.292a1.029,1.029,0,0,1-1-1.264l19.614-83.529a1.028,1.028,0,1,1,2,.47L3334.469,756.5A1.029,1.029,0,0,1,3333.469,757.292Z" transform="translate(-21.328 -99.452)" fill="#b76751"/>
            <g id="Grupo_958474" data-name="Grupo 958474" transform="translate(3288.852 395.655)">
              <g id="Grupo_958471" data-name="Grupo 958471">
                <path id="Trazado_722935" data-name="Trazado 722935" d="M3356.926,668.556,3326.111,808.1s-9.5,101.667-8.707,166c.757,61.309.379,103.667.614,165.021.147,38.68-6.616,76.078-7.364,114.442-.8,41.318,10.546,86.13,1.312,126.531-4.474,19.578-.929,42.133-.427,62.178.624,24.906,3.46,4.128-.461,28.538-4.126,25.688-6.91,53.118-6.152,79.137,15.04,3.809,36.33-1.756,52.221-1.754,24.671,0,56.68,2.715,56.68,2.715,7.761.657,1.264-75.174.905-82.744-1.482-31.3,2.632-15.749,6.668-46.72,6.167-47.317,14.318-96.37,14.318-144.173l9.438-127.176c1.536-20.7,2.277-41.642,4.623-62.265,1.092-9.6,9.619-24.3,8.326-33.227,3.462,23.9,10.078,46.96,10.916,70.944,1.367,39.123,3.417,78.308,9.215,117.061,3.467,23.171,8.277,46.239,8.994,69.657,1.413,46.1-.115,66.959,1.232,113.39.686,23.6.719,26.585,1.423,49.613.611,20-3.773,51.717,3.663,70.257,9.01,22.464,69.371,19.429,88.8,15.885,31.44-5.831,39.847-12.426,39.847-12.426-3.706-75.377-15.967-102.168-15.322-178.045.358-42.121-.827-78.119-4.707-150.776-2.76-51.677-3.835-102.759-2.964-154.118.794-46.859-5.129-108.625-5.129-108.625l-11.119-106.811-29.832-179.17a10.854,10.854,0,0,0-10.167-7.622l-175.393-3.156A10.853,10.853,0,0,0,3356.926,668.556Z" transform="translate(-3304.802 -492.957)" fill="#3a5870"/>
                <path id="Trazado_722936" data-name="Trazado 722936" d="M3399.861,454.012l20.438,166.97h-25.911l-26.364-161.535C3367.386,455.032,3399.3,449.762,3399.861,454.012Z" transform="translate(-3317.101 -452.445)" fill="#54809e"/>
                <path id="Trazado_722937" data-name="Trazado 722937" d="M3542.6,623.829l31.219-168.39c.569-4.241,27.744,5.873,27.128,10.278L3569,623.829Z" transform="translate(-3351.072 -452.83)" fill="#54809e"/>
                <path id="Trazado_722938" data-name="Trazado 722938" d="M3464.6,919.431c-47.437,0-113.242-7.084-139.332-10.13a.823.823,0,0,1,.191-1.636c26.061,3.042,91.791,10.118,139.141,10.118,54.228,0,93.118-3.823,118.892-11.688a.824.824,0,0,1,.482,1.575C3558.042,915.585,3518.994,919.431,3464.6,919.431Z" transform="translate(-3308.643 -540.705)" fill="#233a49"/>
                <path id="Trazado_722939" data-name="Trazado 722939" d="M3321.812,1095.269a.824.824,0,0,1-.416-1.536l82.488-48.084a27.627,27.627,0,0,0,10.357-21.628v-104.8a.823.823,0,1,1,1.647,0v104.8a29.267,29.267,0,0,1-11.021,22.952.885.885,0,0,1-.1.068l-82.542,48.116A.822.822,0,0,1,3321.812,1095.269Z" transform="translate(-3307.951 -543.106)" fill="#233a49"/>
                <path id="Trazado_722940" data-name="Trazado 722940" d="M3647.733,1074.175a.814.814,0,0,1-.316-.063l-55.029-22.856a.823.823,0,0,1-.176-.1,29.58,29.58,0,0,1-11.565-19.656l-12.572-112.184a.823.823,0,0,1,1.637-.184l12.571,112.167a27.914,27.914,0,0,0,10.833,18.476l54.934,22.816a.824.824,0,0,1-.317,1.585Z" transform="translate(-3356.026 -543.106)" fill="#233a49"/>
                <path id="Trazado_722941" data-name="Trazado 722941" d="M3555.227,879.153a.824.824,0,0,1-.824-.824V719.6H3394.044V878.329a.824.824,0,0,1-1.648,0V718.777a.824.824,0,0,1,.824-.824h162.007a.824.824,0,0,1,.824.824V878.329A.824.824,0,0,1,3555.227,879.153Z" transform="translate(-3321.846 -504.105)" fill="#233a49"/>
                <path id="Rectángulo_340062" data-name="Rectángulo 340062" d="M0,0H162.008a0,0,0,0,1,0,0V0a38.122,38.122,0,0,1-38.122,38.122H38.122A38.122,38.122,0,0,1,0,0V0A0,0,0,0,1,0,0Z" transform="translate(71.374 214.104)" fill="#2f495b"/>
                <path id="Trazado_722942" data-name="Trazado 722942" d="M3494.942,1106c-.024,0-.049,0-.075,0a.824.824,0,0,1-.747-.895c.023-.25,2.324-25.33,7.824-59.9,5.478-34.433-5.06-122.77-5.167-123.658a.824.824,0,1,1,1.637-.2c.106.89,10.671,89.457,5.157,124.114-5.491,34.518-7.787,59.544-7.81,59.793A.823.823,0,0,1,3494.942,1106Z" transform="translate(-3341.637 -543.537)" fill="#233a49"/>
                <path id="Trazado_722943" data-name="Trazado 722943" d="M3420.653,1699.538a.824.824,0,0,1-.822-.771c-.58-8.993,1.881-20.842,7.312-35.219a191.146,191.146,0,0,1,8.335-18.917.824.824,0,0,1,1.459.765c-.168.321-16.81,32.344-15.463,53.266a.823.823,0,0,1-.769.875C3420.688,1699.538,3420.67,1699.538,3420.653,1699.538Z" transform="translate(-3327.167 -684.323)" fill="#233a49"/>
                <path id="Trazado_722944" data-name="Trazado 722944" d="M3387.952,1530.576a.814.814,0,0,1-.353-.081.824.824,0,0,1-.39-1.1c.043-.089,4.278-8.962,10.794-19.563,6.026-9.807,15.3-23.148,25.238-31.018,9.7-7.678,16.486-21.228,20.474-31.243a147.286,147.286,0,0,0,6.414-20.189.824.824,0,0,1,1.609.355c-.334,1.514-8.4,37.27-27.474,52.368-18.695,14.8-35.4,49.647-35.566,50A.825.825,0,0,1,3387.952,1530.576Z" transform="translate(-3320.821 -642.014)" fill="#233a49"/>
                <path id="Trazado_722945" data-name="Trazado 722945" d="M3346.738,1456.078a.816.816,0,0,1-.49-.163,125.732,125.732,0,0,1-26.012-25.687,72.248,72.248,0,0,1-7.465-11.969.824.824,0,0,1,1.5-.677c.085.189,8.816,19.1,32.957,37.011a.824.824,0,0,1-.492,1.485Z" transform="translate(-3306.338 -640.138)" fill="#233a49"/>
                <path id="Trazado_722946" data-name="Trazado 722946" d="M3414.25,1270.18a.861.861,0,0,1-.09,0c-29.3-3.168-47.92-19.1-48.1-19.259a.824.824,0,1,1,1.081-1.244c.181.157,18.434,15.754,47.2,18.864a.824.824,0,0,1-.087,1.643Z" transform="translate(-3316.665 -607.523)" fill="#233a49"/>
                <path id="Trazado_722947" data-name="Trazado 722947" d="M3632.417,1284.505a.819.819,0,0,1-.473-.15l-42.549-29.948a.823.823,0,1,1,.948-1.347l42.549,29.947a.824.824,0,0,1-.475,1.5Z" transform="translate(-3360.108 -608.192)" fill="#233a49"/>
                <path id="Trazado_722948" data-name="Trazado 722948" d="M3580.135,1370.664a.824.824,0,0,1-.776-.549l-15.3-42.994-52.076-38.352a.824.824,0,1,1,.977-1.326l52.279,38.5a.818.818,0,0,1,.288.387l15.38,43.232a.823.823,0,0,1-.5,1.052A.813.813,0,0,1,3580.135,1370.664Z" transform="translate(-3345.049 -614.88)" fill="#233a49"/>
                <path id="Trazado_722949" data-name="Trazado 722949" d="M3648.665,1518.407h-.056a.824.824,0,0,1-.767-.878l4.349-64.184a.823.823,0,0,1,.224-.511c15.461-16.3,16.169-20.068,16.14-20.694a.824.824,0,0,1,.414-1.564,1.308,1.308,0,0,1,1.1.861c.354.9,1.423,3.645-16.257,22.315l-4.328,63.889A.824.824,0,0,1,3648.665,1518.407Zm20.191-86.189h0Z" transform="translate(-3371.547 -642.76)" fill="#233a49"/>
                <path id="Trazado_722950" data-name="Trazado 722950" d="M3568.977,1552.655a.831.831,0,0,1-.267-.044c-20.175-6.924-36.2-22.762-36.356-22.921a.824.824,0,0,1,.306-1.359l49.925-17.729a.824.824,0,1,1,.552,1.553l-48.662,17.28c3.707,3.447,17.746,15.775,34.769,21.618a.824.824,0,0,1-.267,1.6Z" transform="translate(-3349.03 -658.322)" fill="#233a49"/>
                <path id="Trazado_722951" data-name="Trazado 722951" d="M3657.282,1695.182a.824.824,0,0,1-.527-1.457c18.144-15.113,24.725-36.216,24.79-36.428a.824.824,0,0,1,1.576.479c-.065.216-6.776,21.776-25.312,37.215A.821.821,0,0,1,3657.282,1695.182Z" transform="translate(-3373.224 -686.76)" fill="#233a49"/>
                <path id="Trazado_722952" data-name="Trazado 722952" d="M3573.072,1717.854a.824.824,0,0,1-.721-.424c-12.675-22.832-36.933-38.475-37.176-38.631a.824.824,0,1,1,.886-1.389c.247.157,24.848,16.015,37.731,39.22a.824.824,0,0,1-.72,1.224Z" transform="translate(-3349.552 -690.762)" fill="#233a49"/>
                <path id="Trazado_722953" data-name="Trazado 722953" d="M3637.623,1741.407a.824.824,0,0,1-.07-1.645c35.109-3.05,45.2-19.407,45.292-19.571a.824.824,0,0,1,1.42.836c-.413.7-10.527,17.245-46.57,20.377A.72.72,0,0,1,3637.623,1741.407Z" transform="translate(-3369.399 -699.032)" fill="#233a49"/>
                <path id="Trazado_722954" data-name="Trazado 722954" d="M3549.063,1740.009a.817.817,0,0,1-.531-.2l-14.3-12.114a.824.824,0,1,1,1.065-1.257l14.3,12.114a.824.824,0,0,1-.532,1.452Z" transform="translate(-3349.385 -700.29)" fill="#233a49"/>
                <path id="Trazado_722955" data-name="Trazado 722955" d="M3612.622,1020.281a.824.824,0,0,1-.444-1.518c10.337-6.6,22.584-16.984,36.4-30.85a.824.824,0,1,1,1.167,1.163c-13.9,13.951-26.241,24.406-36.68,31.075A.819.819,0,0,1,3612.622,1020.281Z" transform="translate(-3364.535 -556.584)" fill="#233a49"/>
                <path id="Trazado_722956" data-name="Trazado 722956" d="M3652.729,1073.549a.823.823,0,0,1-.613-1.373c.083-.093,8.328-9.3,9.944-11.286a.824.824,0,1,1,1.278,1.04c-1.64,2.016-9.654,10.966-9.994,11.346A.82.82,0,0,1,3652.729,1073.549Z" transform="translate(-3372.339 -570.771)" fill="#233a49"/>
                <path id="Trazado_722957" data-name="Trazado 722957" d="M3361.33,997.095a.82.82,0,0,1-.478-.154l-32-22.855a.824.824,0,1,1,.958-1.34l32,22.855a.824.824,0,0,1-.479,1.494Z" transform="translate(-3309.415 -553.65)" fill="#233a49"/>
                <path id="Trazado_722958" data-name="Trazado 722958" d="M3374.924,1028.366a.831.831,0,0,1-.181-.02c-17.669-3.955-42.5-18.968-53.637-28.283a.824.824,0,0,1,1.057-1.264c11,9.208,35.525,24.04,52.94,27.939a.824.824,0,0,1-.179,1.629Z" transform="translate(-3307.917 -558.712)" fill="#233a49"/>
              </g>
              <g id="Grupo_958472" data-name="Grupo 958472" transform="translate(53.979 38.112)">
                <path id="Trazado_722959" data-name="Trazado 722959" d="M3402.944,537.727a4.6,4.6,0,0,1-4.62-3.957l-.573-4.082a4.6,4.6,0,0,1,3.354-5.075l2.1-.566a3.355,3.355,0,0,0,2.448-3.7l-1.25-8.917a2.941,2.941,0,0,0-3.321-2.5l-25.042,3.51a2.941,2.941,0,0,0-2.5,3.32l1.25,8.918a3.355,3.355,0,0,0,3.372,2.888l2.171-.033a4.6,4.6,0,0,1,4.621,3.958l.572,4.082a4.6,4.6,0,0,1-3.354,5.075l-2.1.566a3.354,3.354,0,0,0-2.448,3.7h0a2.941,2.941,0,0,0,3.32,2.5l25.042-3.51a2.941,2.941,0,0,0,2.5-3.321h0a3.355,3.355,0,0,0-3.372-2.888Z" transform="translate(-3372.149 -501.541)" fill="#3a5870"/>
                <path id="Trazado_722960" data-name="Trazado 722960" d="M3401.744,502.744l-28.123,3.941a1.385,1.385,0,0,1-1.564-1.179h0a1.386,1.386,0,0,1,1.18-1.564L3401.359,500a1.385,1.385,0,0,1,1.564,1.18h0A1.386,1.386,0,0,1,3401.744,502.744Z" transform="translate(-3371.865 -499.807)" fill="#3a5870"/>
                <path id="Rectángulo_340063" data-name="Rectángulo 340063" d="M1.309,0H17.716a1.309,1.309,0,0,1,1.309,1.309v.154a1.308,1.308,0,0,1-1.308,1.308H1.309A1.309,1.309,0,0,1,0,1.462V1.309A1.309,1.309,0,0,1,1.309,0Z" transform="translate(2.641 23.167) rotate(-97.978)" fill="#3a5870"/>
                <rect id="Rectángulo_340064" data-name="Rectángulo 340064" width="19.025" height="2.771" rx="1.309" transform="translate(30.763 19.225) rotate(-97.978)" fill="#3a5870"/>
                <path id="Trazado_722961" data-name="Trazado 722961" d="M3374.032,517.148a.522.522,0,0,1-.072-1.039l29.806-4.178a.523.523,0,0,1,.145,1.035l-29.805,4.177A.563.563,0,0,1,3374.032,517.148Z" transform="translate(-3372.15 -502.131)" fill="#233a49"/>
              </g>
              <g id="Grupo_958473" data-name="Grupo 958473" transform="translate(204.705 44.308)">
                <path id="Trazado_722962" data-name="Trazado 722962" d="M3564.545,545.423a4.6,4.6,0,0,0,4.637-3.938l.59-4.079a4.6,4.6,0,0,0-3.333-5.089l-2.094-.575a3.355,3.355,0,0,1-2.433-3.715l1.288-8.911a2.939,2.939,0,0,1,3.331-2.49l25.027,3.616a2.94,2.94,0,0,1,2.489,3.331l-1.287,8.911a3.354,3.354,0,0,1-3.385,2.874l-2.171-.041a4.6,4.6,0,0,0-4.637,3.938l-.589,4.08a4.6,4.6,0,0,0,3.333,5.089l2.094.575a3.354,3.354,0,0,1,2.432,3.714h0a2.941,2.941,0,0,1-3.332,2.49l-25.027-3.616a2.942,2.942,0,0,1-2.49-3.331h0a3.355,3.355,0,0,1,3.385-2.874Z" transform="translate(-3558.959 -509.235)" fill="#3a5870"/>
                <path id="Trazado_722963" data-name="Trazado 722963" d="M3566.92,510.442l28.106,4.061a1.384,1.384,0,0,0,1.568-1.173h0a1.384,1.384,0,0,0-1.173-1.57l-28.105-4.06a1.385,1.385,0,0,0-1.569,1.173h0A1.385,1.385,0,0,0,3566.92,510.442Z" transform="translate(-3560.277 -507.502)" fill="#3a5870"/>
                <path id="Rectángulo_340065" data-name="Rectángulo 340065" d="M1.309,0H17.717a1.308,1.308,0,0,1,1.308,1.308v.153a1.309,1.309,0,0,1-1.309,1.309H1.309A1.309,1.309,0,0,1,0,1.462V1.309A1.309,1.309,0,0,1,1.309,0Z" transform="translate(31.053 22.891) rotate(-81.779)" fill="#3a5870"/>
                <path id="Rectángulo_340066" data-name="Rectángulo 340066" d="M1.309,0H17.716a1.309,1.309,0,0,1,1.309,1.309v.153a1.308,1.308,0,0,1-1.308,1.308H1.308A1.308,1.308,0,0,1,0,1.462V1.309A1.309,1.309,0,0,1,1.309,0Z" transform="translate(2.948 18.83) rotate(-81.779)" fill="#3a5870"/>
                <path id="Trazado_722964" data-name="Trazado 722964" d="M3594.584,524.963a.467.467,0,0,1-.075-.006l-29.788-4.3a.523.523,0,1,1,.15-1.034l29.787,4.3a.522.522,0,0,1-.074,1.039Z" transform="translate(-3559.993 -509.823)" fill="#233a49"/>
              </g>
            </g>
            <g id="Grupo_958476" data-name="Grupo 958476" transform="translate(3297.087 387.332)">
              <g id="Grupo_958475" data-name="Grupo 958475">
                <path id="Trazado_722965" data-name="Trazado 722965" d="M3355.725,455.447c2.547-3.821,59.248-12.922,62.814-12.412s.781,10.671,5.3,17.671,7.087,21.668,8.1,31.14,9.294,34.179,12.95,41.154,14.958,31.342,16.13,35.24c0,0,9.157-19.473,14.669-31.757s13.547-37.37,15.944-45.884-2.093-16.37-1.98-20.23,4.254-26.338,8.075-28.121,67.2,14.461,70.511,19.045,8.743,36.167,6,67.42c-2.677,30.453-.569,60.8,0,85.236.558,24.007,3.875,55.674,5.312,79.751s12.008,143.395,14.378,164.924-54.865,29.783-78.867,28.647-53.983-10.325-53.983-10.325-48.3,12.029-78.417,12.6-63.915-.709-67.332-15.831,24.146-267.244,24.146-267.244,2.213-34.8,3.3-72.263C3343.9,495,3353.177,459.268,3355.725,455.447Z" transform="translate(-3315.027 -442.112)" fill="#eac759"/>
                <path id="Trazado_722966" data-name="Trazado 722966" d="M3341.779,676.867c-.853,7.761-1.957,15.149-2.131,23.427l115.985,3.881c-.549-7.8.207-16.1-2.19-23.49C3401.649,679.113,3370.335,677.622,3341.779,676.867Z" transform="translate(-3319.817 -487.788)" fill="#e4edf4"/>
                <path id="Trazado_722967" data-name="Trazado 722967" d="M3609.806,686.457c-31.391-.977-61.457-2.8-119.229-4.555a130.763,130.763,0,0,1,2.033,23.478l118.9,4.307C3611.259,702.156,3610,694.113,3609.806,686.457Z" transform="translate(-3349.184 -488.768)" fill="#e4edf4"/>
                <path id="Trazado_722968" data-name="Trazado 722968" d="M3334.1,764.087a104.154,104.154,0,0,0-1.7,23.445l125.479,3.9a206.667,206.667,0,0,0,1.682-23.367C3407.426,766.473,3365.21,764.928,3334.1,764.087Z" transform="translate(-3318.385 -504.759)" fill="#e4edf4"/>
                <path id="Trazado_722969" data-name="Trazado 722969" d="M3615.661,773.706c-28.739-.894-60.248-2.689-118.4-4.462-.373,7.386-1.6,15.649-1.4,23.369l121.5,4.314C3617.176,788.809,3615.852,780.9,3615.661,773.706Z" transform="translate(-3350.209 -505.762)" fill="#e4edf4"/>
                <path id="Trazado_722970" data-name="Trazado 722970" d="M3499.068,878.408a.987.987,0,0,1-.986-.951c-.045-1.183-4.473-118.542-4.987-133.514-.341-9.957.346-21.719.951-32.1.327-5.6.635-10.889.773-15.555.224-7.589-1.02-17.636-2.46-29.268-1.93-15.594-4.117-33.268-3.259-49.786,1.244-23.932,4.69-31.827,8.681-40.967.788-1.8,1.6-3.667,2.41-5.7a178.837,178.837,0,0,1,8.755-18.039c2.569-4.825,5.225-9.813,7.693-15.315,6.186-13.783,12.487-35.753,13.688-40.018,1.622-5.757.337-14.762-.513-20.721a46.291,46.291,0,0,1-.658-6.112,54.921,54.921,0,0,1,1.5-7.962c1.237-5.44,2.778-12.21,2.657-16.846a.987.987,0,1,1,1.974-.052c.127,4.884-1.442,11.788-2.705,17.336a56.234,56.234,0,0,0-1.45,7.581,47,47,0,0,0,.639,5.776c.873,6.123,2.193,15.376.459,21.536-1.208,4.287-7.545,26.381-13.787,40.291-2.5,5.563-5.168,10.582-7.752,15.435a177.482,177.482,0,0,0-8.664,17.841c-.821,2.059-1.641,3.939-2.434,5.756-3.914,8.964-7.294,16.706-8.519,40.28-.849,16.344,1.327,33.927,3.247,49.44,1.45,11.713,2.7,21.829,2.474,29.57-.138,4.694-.448,10-.776,15.612-.6,10.335-1.286,22.05-.948,31.915.514,14.97,4.941,132.325,4.986,133.508a.989.989,0,0,1-.951,1.024Z" transform="translate(-3348.859 -442.585)" fill="#c4a345"/>
                <path id="Trazado_722971" data-name="Trazado 722971" d="M3480.2,877.732a.988.988,0,0,1-.987-.961c-.034-1.2-3.366-120.446-3.272-134.462.027-3.943.482-9.122,1.011-15.119,1.369-15.551,3.245-36.848-.833-55.476-5.62-25.667-4.719-62.039-2.681-73.532a111.168,111.168,0,0,1,6.507-21.405c-1.692-4.787-14.862-32.084-18.582-39.178-3.675-7.01-12.038-31.922-13.058-41.509-1.134-10.651-3.817-24.312-7.943-30.709-4.61-7.148-5.087-19.831-5.1-20.369a.988.988,0,0,1,1.974-.066c0,.126.478,12.677,4.79,19.363,5.43,8.418,7.686,26.293,8.248,31.571,1,9.415,9.228,33.9,12.844,40.8s17.628,35.853,18.833,39.854a.985.985,0,0,1-.041.681,109.557,109.557,0,0,0-6.521,21.311c-2.015,11.362-2.9,47.345,2.666,72.765,4.143,18.922,2.252,40.394.872,56.072-.524,5.954-.977,11.1-1,14.958-.094,13.982,3.236,133.191,3.27,134.394a.987.987,0,0,1-.959,1.015Z" transform="translate(-3338.419 -442.478)" fill="#c4a345"/>
              </g>
            </g>
          </g>
        </g>
        <g id="Grupo_958483" data-name="Grupo 958483" transform="translate(805 -3107)">
          <circle id="Elipse_5494" data-name="Elipse 5494" cx="52.5" cy="52.5" r="52.5" transform="translate(-695 -6019)" fill="url(#linear-gradient)"/>
          <g id="respirador" transform="translate(-672.287 -5996)">
            <path id="Trazado_721607" data-name="Trazado 721607" d="M55.807,37.672,53.53,35.395A21.6,21.6,0,0,0,36.9,0H22.24A21.6,21.6,0,0,0,5.521,35.29L3.138,37.672a9.735,9.735,0,0,0,0,13.767l4.147,4.147a9.735,9.735,0,0,0,13.767,0l4.071-4.071a9.8,9.8,0,0,0,.8-.906,9.587,9.587,0,0,0,7.105,0,9.9,9.9,0,0,0,.8.906l4.066,4.066.005.006a9.744,9.744,0,0,0,12.319,1.192.856.856,0,0,0-.958-1.419A8.031,8.031,0,0,1,39.1,54.376h0L39.1,54.37A8.032,8.032,0,0,1,39.1,43.029l4.147-4.147A8.022,8.022,0,1,1,54.6,50.228L51.66,53.165a.856.856,0,0,0,1.211,1.211l2.937-2.937a9.734,9.734,0,0,0,0-13.766ZM2.34,21.612a19.922,19.922,0,0,1,19.9-19.9H36.9A19.889,19.889,0,0,1,52.314,34.179l-.467-.467a9.635,9.635,0,0,0,.02-1.776A18.182,18.182,0,0,0,36.9,3.422H22.24A18.181,18.181,0,0,0,7.1,31.687a9.631,9.631,0,0,0,0,2.025l-.362.362a19.855,19.855,0,0,1-4.4-12.462ZM14.168,56.725A7.97,7.97,0,0,1,8.5,54.375L4.349,50.229A8.023,8.023,0,1,1,15.695,38.883l4.147,4.147a8.023,8.023,0,0,1-5.673,13.7ZM23.912,50.3l-.172.172A9.836,9.836,0,0,0,23.9,48.7a9.671,9.671,0,0,0-2.851-6.883l-4.147-4.147a9.671,9.671,0,0,0-6.883-2.851,9.838,9.838,0,0,0-1.774.163l.172-.172a8.023,8.023,0,0,1,11.346,0l4.147,4.147A8.032,8.032,0,0,1,23.912,50.3Zm2.957-1.167a9.752,9.752,0,0,0-1.746-11.389L20.976,33.6A9.738,9.738,0,0,0,8.769,32.333a7.761,7.761,0,0,1,3.318-6l6.265-4.391a.856.856,0,0,0-.983-1.4L11.1,24.935a9.488,9.488,0,0,0-3.429,4.376A16.471,16.471,0,0,1,22.24,5.134H36.9a16.473,16.473,0,0,1,14.45,24.389,9.484,9.484,0,0,0-3.507-4.588L34.937,15.892a9.549,9.549,0,0,0-10.928,0l-3.837,2.689a.856.856,0,1,0,.982,1.4l3.837-2.689a7.832,7.832,0,0,1,8.963,0L46.86,26.337a7.761,7.761,0,0,1,3.318,6A9.738,9.738,0,0,0,37.97,33.6l-4.147,4.147a9.745,9.745,0,0,0-1.749,11.39A7.882,7.882,0,0,1,26.869,49.137ZM42.041,37.672l-4.147,4.147a9.731,9.731,0,0,0-2.682,8.664l-.178-.178a8.023,8.023,0,0,1,0-11.346l4.147-4.147a8.023,8.023,0,0,1,11.346,0l.171.171a9.835,9.835,0,0,0-1.774-.163,9.67,9.67,0,0,0-6.883,2.852Z" fill="#fff"/>
            <path id="Trazado_721608" data-name="Trazado 721608" d="M349.581,336.764a6.341,6.341,0,0,0-8.957,0l-4.147,4.147a6.334,6.334,0,0,0,8.957,8.957l4.147-4.147A6.341,6.341,0,0,0,349.581,336.764Zm-5.357,11.893a4.622,4.622,0,0,1-6.536-6.536l4.147-4.147a4.622,4.622,0,1,1,6.536,6.536Z" transform="translate(-296.179 -296.687)" fill="#fff"/>
            <path id="Trazado_721609" data-name="Trazado 721609" d="M45.064,340.909l-4.147-4.147a6.334,6.334,0,0,0-8.957,8.957l4.147,4.147a6.334,6.334,0,0,0,8.957-8.957Zm-1.211,7.747a4.628,4.628,0,0,1-6.536,0l-4.147-4.147a4.622,4.622,0,0,1,6.536-6.536l4.147,4.147a4.628,4.628,0,0,1,0,6.536Z" transform="translate(-26.417 -296.685)" fill="#fff"/>
            <path id="Trazado_721610" data-name="Trazado 721610" d="M219.963,190.451a5.33,5.33,0,1,0-5.33,5.33A5.336,5.336,0,0,0,219.963,190.451Zm-5.33,3.618a3.618,3.618,0,1,1,3.618-3.618A3.622,3.622,0,0,1,214.633,194.069Z" transform="translate(-185.16 -163.992)" fill="#fff"/>
          </g>
        </g>
      </g>
    </g>
    <g id="Grupo_958482" data-name="Grupo 958482" transform="translate(40.307 -8943.323)">
      <path id="Trazado_721520" data-name="Trazado 721520" d="M2313.518,324.46a13.7,13.7,0,0,0-9.719,4.026l-18.345,23.242-1.3,37.21,12.683,8.4c1.614,1.07,3.118,2.289,4.629,3.5a16.773,16.773,0,0,0,10.486,3.682h1.57Z" transform="translate(-2255.239 -324.46)" fill="#3a5870"/>
      <path id="Trazado_721521" data-name="Trazado 721521" d="M2300.72,334.342l-15.081,19.106-.419,11.981a17.6,17.6,0,0,0,15.5-31.087Z" transform="translate(-2255.425 -326.179)" fill="#54809e"/>
      <path id="Trazado_721522" data-name="Trazado 721522" d="M2319.7,324.46a13.707,13.707,0,0,1,9.721,4.026l18.344,23.242,1.3,37.21-12.683,8.4c-1.615,1.07-3.118,2.289-4.63,3.5a16.77,16.77,0,0,1-10.485,3.682H2319.7Z" transform="translate(-2261.423 -324.46)" fill="#3a5870"/>
      <path id="Trazado_721523" data-name="Trazado 721523" d="M2333.883,334.342l15.08,19.106.42,11.981a17.6,17.6,0,0,1-15.5-31.087Z" transform="translate(-2262.619 -326.179)" fill="#54809e"/>
      <g id="Grupo_957039" data-name="Grupo 957039" transform="translate(41.96 35.247)">
        <rect id="Rectángulo_339685" data-name="Rectángulo 339685" width="12.232" height="3.046" transform="translate(2.276 8.918) rotate(-39.243)" fill="#cce1f2"/>
        <circle id="Elipse_5495" data-name="Elipse 5495" cx="13.096" cy="13.096" r="13.096" transform="translate(0 7.559) rotate(-16.775)" fill="#cce1f2"/>
        <path id="Trazado_721524" data-name="Trazado 721524" d="M2317.356,395.68a11.142,11.142,0,1,1,11.143-11.143A11.154,11.154,0,0,1,2317.356,395.68Zm0-21.06a9.918,9.918,0,1,0,9.918,9.918A9.929,9.929,0,0,0,2317.356,374.62Z" transform="translate(-2301.038 -368.219)" fill="#afc9db"/>
      </g>
      <ellipse id="Elipse_5496" data-name="Elipse 5496" cx="16.952" cy="6.929" rx="16.952" ry="6.929" transform="translate(41.327 67.9)" fill="#233a49"/>
      <path id="Trazado_721525" data-name="Trazado 721525" d="M2317.038,418.683c-6.989,0-12.655,2.316-12.655,5.173s5.666,5.174,12.655,5.174,12.655-2.316,12.655-5.174S2324.027,418.683,2317.038,418.683Z" transform="translate(-2258.759 -340.85)" fill="#233a49"/>
      <path id="Trazado_721526" data-name="Trazado 721526" d="M2299.664,416.862l4.229,7.857,2.785-4.793Z" transform="translate(-2257.938 -340.534)" fill="#233a49"/>
      <path id="Trazado_721527" data-name="Trazado 721527" d="M2338.266,416.862l-4.229,7.857-2.786-4.793Z" transform="translate(-2263.433 -340.534)" fill="#233a49"/>
      <path id="Trazado_721528" data-name="Trazado 721528" d="M2329.328,424.279a.6.6,0,0,1-.6-.6c0-2.106-4.827-4.452-11.756-4.452s-11.755,2.346-11.755,4.452a.6.6,0,0,1-1.2,0c0-3.167,5.689-5.648,12.951-5.648s12.951,2.481,12.951,5.648A.6.6,0,0,1,2329.328,424.279Z" transform="translate(-2258.697 -340.738)" fill="#09151c"/>
      <g id="Grupo_957040" data-name="Grupo 957040" transform="translate(0 16.827)">
        <path id="Trazado_721529" data-name="Trazado 721529" d="M2273.918,379.2c2.528,13.534-.777,25.506-7.381,26.739S2252.529,397.2,2250,383.668s.776-25.505,7.38-26.739S2271.389,365.667,2273.918,379.2Z" transform="translate(-2249.151 -346.918)" fill="#68a4e0"/>
        <ellipse id="Elipse_5497" data-name="Elipse 5497" cx="12.165" cy="24.929" rx="12.165" ry="24.929" transform="translate(8.039 4.467) rotate(-10.58)" fill="#68a4e0"/>
        <path id="Trazado_721530" data-name="Trazado 721530" d="M2256.86,356.185l11.321-7.509,2.6,8.555-13.212,3.939Z" transform="translate(-2250.492 -345.5)" fill="#68a4e0"/>
        <path id="Trazado_721531" data-name="Trazado 721531" d="M2273.135,412.908l12.055-7.988-8.023-2.167-3.324,4.676Z" transform="translate(-2253.323 -354.907)" fill="#68a4e0"/>
        <path id="Trazado_721532" data-name="Trazado 721532" d="M2267.712,406.361a.613.613,0,0,1-.6-.477l-10.658-47.221a.612.612,0,0,1,1.194-.269l10.658,47.221a.613.613,0,0,1-.462.732A.593.593,0,0,1,2267.712,406.361Z" transform="translate(-2250.419 -347.107)" fill="#588eba"/>
        <path id="Trazado_721533" data-name="Trazado 721533" d="M2250.821,388.811a.612.612,0,0,1-.112-1.214l23.28-4.415a.612.612,0,1,1,.227,1.2l-23.28,4.415A.591.591,0,0,1,2250.821,388.811Z" transform="translate(-2249.335 -351.5)" fill="#588eba"/>
        <path id="Trazado_721534" data-name="Trazado 721534" d="M2276.26,397.881a.614.614,0,0,1-.591-.775c1.371-4.963,1.46-11.252.255-17.708-1.529-8.188-4.925-15.36-9.084-19.187a12.309,12.309,0,0,0-2.378-1.745.612.612,0,0,1,.589-1.074,13.608,13.608,0,0,1,2.619,1.917c4.347,4,7.882,11.425,9.458,19.864,1.239,6.635,1.14,13.119-.278,18.257A.612.612,0,0,1,2276.26,397.881Z" transform="translate(-2251.759 -347.003)" fill="#588eba"/>
      </g>
      <g id="Grupo_957041" data-name="Grupo 957041" transform="translate(75.448 16.827)">
        <path id="Trazado_721535" data-name="Trazado 721535" d="M2360.094,379.2c-2.528,13.534.777,25.506,7.381,26.739s14.008-8.738,16.537-22.272-.778-25.505-7.382-26.739S2362.622,365.667,2360.094,379.2Z" transform="translate(-2343.75 -346.918)" fill="#68a4e0"/>
        <ellipse id="Elipse_5498" data-name="Elipse 5498" cx="24.929" cy="12.165" rx="24.929" ry="12.165" transform="translate(0 49.011) rotate(-79.42)" fill="#68a4e0"/>
        <path id="Trazado_721536" data-name="Trazado 721536" d="M2379.615,356.185l-11.321-7.509-2.6,8.555,13.213,3.939Z" transform="translate(-2344.872 -345.5)" fill="#68a4e0"/>
        <path id="Trazado_721537" data-name="Trazado 721537" d="M2363.732,412.908l-12.055-7.988,8.023-2.167,3.324,4.676Z" transform="translate(-2342.433 -354.907)" fill="#68a4e0"/>
        <path id="Trazado_721538" data-name="Trazado 721538" d="M2369.135,406.352a.6.6,0,0,1-.137-.016.613.613,0,0,1-.46-.734l10.853-47.358a.612.612,0,1,1,1.194.273l-10.853,47.358A.613.613,0,0,1,2369.135,406.352Z" transform="translate(-2345.364 -347.082)" fill="#588eba"/>
        <path id="Trazado_721539" data-name="Trazado 721539" d="M2383.585,388.775a.666.666,0,0,1-.113-.01l-23.439-4.38a.612.612,0,1,1,.223-1.2l23.441,4.38a.612.612,0,0,1-.111,1.213Z" transform="translate(-2343.8 -351.5)" fill="#588eba"/>
        <path id="Trazado_721540" data-name="Trazado 721540" d="M2360.229,397.881a.613.613,0,0,1-.59-.449c-1.418-5.138-1.515-11.622-.277-18.257,1.915-10.255,6.656-18.8,12.077-21.781a.612.612,0,0,1,.589,1.074c-5.033,2.763-9.64,11.176-11.463,20.931a40.58,40.58,0,0,0,.254,17.708.614.614,0,0,1-.591.775Z" transform="translate(-2343.621 -347.003)" fill="#588eba"/>
      </g>
    </g>
  </g>
</svg>
