<svg xmlns="http://www.w3.org/2000/svg" xmlns:xlink="http://www.w3.org/1999/xlink" width="311" height="471" viewBox="0 0 311 471">
  <defs>
    <clipPath id="clip-path">
      <rect id="Rectángulo_340081" data-name="Rectángulo 340081" width="311" height="471" transform="translate(36 -6001)" fill="#fff" stroke="#707070" stroke-width="1"/>
    </clipPath>
    <linearGradient id="linear-gradient" x1="0.5" x2="0.5" y2="1" gradientUnits="objectBoundingBox">
      <stop offset="0" stop-color="#0540b7"/>
      <stop offset="1" stop-color="#03205c"/>
    </linearGradient>
  </defs>
  <g id="Grupo_959082" data-name="Grupo 959082" transform="translate(40 8511)">
    <g id="Grupo_959074" data-name="Grupo 959074">
      <g id="Enmascarar_grupo_927233" data-name="Enmascarar grupo 927233" transform="translate(-76 -2510)" clip-path="url(#clip-path)">
        <g id="Grupo_958507" data-name="Grupo 958507" transform="translate(-1997.491 -6621.661)">
          <g id="Grupo_957363" data-name="Grupo 957363" transform="translate(2052.003 626.838)">
            <path id="Trazado_721883" data-name="Trazado 721883" d="M2085.951,1019.726s-2.725,9.814-1.423,14.312,7.215,30.159,3.291,31.393-7.546,3.4-10.743-12.305c0,0-4.836,1.729-4.41,5.361s8.058,7.582,8.731,10.022a3.436,3.436,0,0,1-3.566,4.294s6.609,3.488,2.616,7.444c0,0-1.181,1.495-4.655-.036,0,0,2.346,8.445-2.545,8.049s-17.545-12.477-18.4-16.447-.971-16.551-.418-20.1,6.748-26.756,7.349-36.515Z" transform="translate(-2054.095 -1015.195)" fill="#e4edf4"/>
            <path id="Trazado_721884" data-name="Trazado 721884" d="M2064.957,1026.77l.553.177s12.43,3.969,23.327,1.045l.446.07a59.487,59.487,0,0,1,1.605-8.336l-24.172-4.531A96.507,96.507,0,0,1,2064.957,1026.77Z" transform="translate(-2059.031 -1015.195)" fill="#3a5870"/>
            <path id="Trazado_721885" data-name="Trazado 721885" d="M2089.64,1111.841c3.993-3.956-2.616-7.444-2.616-7.444a3.435,3.435,0,0,0,3.566-4.294c-.674-2.44-8.306-6.39-8.731-10.022s4.41-5.361,4.41-5.361c-11.623,2.782-12.69,18.765-11.625,22.612s9.827,11.943,9.827,11.943h0c2.072-1.86.515-7.47.515-7.47C2088.459,1113.336,2089.64,1111.841,2089.64,1111.841Z" transform="translate(-2063.288 -1046.788)" fill="#3a5870"/>
          </g>
          <g id="Grupo_957364" data-name="Grupo 957364" transform="translate(2299.966 627.188)">
            <path id="Trazado_721886" data-name="Trazado 721886" d="M2513.9,1019.131s2.222,9.94.693,14.366-8.741,29.752-4.885,31.185,7.363,3.783,11.356-11.742c0,0,4.741,1.973,4.131,5.578s-8.434,7.162-9.23,9.565a3.436,3.436,0,0,0,3.343,4.469s-6.778,3.147-2.992,7.3c0,0,1.1,1.553,4.65.2,0,0-2.772,8.314,2.132,8.168s18.158-11.568,19.211-15.489,1.812-16.48,1.441-20.056-5.377-27.065-5.48-36.842Z" transform="translate(-2508.587 -1015.836)" fill="#e4edf4"/>
            <path id="Trazado_721887" data-name="Trazado 721887" d="M2543.864,1027.486l-.561.148s-12.617,3.331-23.35-.143l-.449.047a59.585,59.585,0,0,0-1.178-8.406l24.371-3.295A96.422,96.422,0,0,0,2543.864,1027.486Z" transform="translate(-2513.012 -1015.836)" fill="#3a5870"/>
            <path id="Trazado_721888" data-name="Trazado 721888" d="M2521.794,1110.757c-3.786-4.154,2.992-7.3,2.992-7.3a3.436,3.436,0,0,1-3.343-4.47c.8-2.4,8.621-5.958,9.23-9.565s-4.131-5.578-4.131-5.578c11.467,3.371,11.718,19.387,10.459,23.175s-10.422,11.427-10.422,11.427h0c-1.975-1.963-.134-7.486-.134-7.486C2522.9,1112.31,2521.794,1110.757,2521.794,1110.757Z" transform="translate(-2514.066 -1046.74)" fill="#3a5870"/>
          </g>
          <g id="Grupo_957365" data-name="Grupo 957365" transform="translate(2173.9 269.295)">
            <path id="Trazado_721889" data-name="Trazado 721889" d="M2277.52,359.852l2.219,43.8,6.363,50.45,36.542-6-2.545-44.178.6-25.649Z" transform="translate(-2277.52 -359.852)" fill="#f3aa8b"/>
          </g>
          <g id="Grupo_957367" data-name="Grupo 957367" transform="translate(2049.491 313.095)">
            <g id="Grupo_957366" data-name="Grupo 957366">
              <path id="Trazado_721890" data-name="Trazado 721890" d="M2294.187,470.389c-11.259-14.723-44.217-22.477-44.217-22.477l-33.492-7.506s-.772,17.686-20.579,17.194-19.781-17.466-19.781-17.466l-48.754,10.112a47.343,47.343,0,0,0-23.354,13.938c-9.889,11.163-17.521,32.852-20.806,48.913s-5.874,29.741-8.761,51.1c-6.013,44.5-9.491,67.529-15.7,112.062-1.562,11.216-6.168,34.361-7.3,45.628-.884,8.8-4.458,24.985,1.057,32.689,6.814,9.516,35.456,9.326,40.146-1.639,2-4.684,4.893-20.355,6.25-38.35,1.158-15.347,2.04-29.292,4.015-44.533,2.285-17.634,7.068-32.29,8.241-50.346-4.47,68.8-5.422,142.783-4.812,143.316,5.817,5.09,172.831.5,172.831.5s-4.1-152.777-4.1-153.018a104.014,104.014,0,0,0,3.5,23.8c1.276,4.412.124,10.8,1.019,15.305.741,3.726,2.376,8.616,2.555,12.411.673,14.244,4.891,22,6.023,36.137,1.236,15.431,2.364,32.368,5.5,46.955.782,3.641.949,11.486,3.283,14.372,2.1,2.59,7.8,3.138,10.93,3.282,8,.369,21.869-3.416,28.024-8.366a8.649,8.649,0,0,0,2.261-2.426c3.594-6.472-.747-22.181-1.935-29.047-1.7-9.842-6.961-23.934-7.727-33.9-1.155-15.012-2.722-21.861-3.651-37.962-.77-13.344-2.737-26.282-3.651-43.073-1.5-27.673-5.6-49.643-8.273-75.925C2310.447,507.758,2305.446,485.112,2294.187,470.389Z" transform="translate(-2049.491 -440.133)" fill="#d57e63"/>
            </g>
            <path id="Trazado_721891" data-name="Trazado 721891" d="M2095.39,724.923a23.051,23.051,0,0,0-9.909-17.792c-1.937,13.469-3.742,27.205-5.405,40.733A23.1,23.1,0,0,0,2095.39,724.923Z" transform="translate(-2063.389 -561.462)" fill="#b76751"/>
            <path id="Trazado_721892" data-name="Trazado 721892" d="M2524.415,730.065a23.052,23.052,0,0,0,13.215,15.5c-.75-13.587-2.124-28.083-3.154-41.673C2525.948,709,2521.837,719.936,2524.415,730.065Z" transform="translate(-2264.958 -559.988)" fill="#b76751"/>
          </g>
          <g id="Grupo_957369" data-name="Grupo 957369" transform="translate(2152.157 179.931)">
            <path id="Trazado_721893" data-name="Trazado 721893" d="M2242.734,264.935s-7.716-48.183,5.145-52.47c0,0,1.127-9.7,13.717-13.374,24.692-7.2,35.208.447,42.01,2.229,7.2,1.887,14.362-.777,18.691,3.087,4.8,4.287,6.172,28.978,5.487,36.866s-3.43,25.892-3.43,25.892Z" transform="translate(-2238.927 -196.057)" fill="#914837"/>
            <g id="Grupo_957368" data-name="Grupo 957368" transform="translate(0 13.488)">
              <path id="Trazado_721894" data-name="Trazado 721894" d="M2325.446,286.335c-1.756,28.4-23.792,39.787-37.405,39.677S2253.784,314.1,2251.4,285.74c-3.611-42.979,8.208-64.96,37.436-64.96S2328.058,244.094,2325.446,286.335Z" transform="translate(-2243.623 -220.78)" fill="#f3aa8b"/>
              <path id="Trazado_721895" data-name="Trazado 721895" d="M2344.7,317.527c.02-2.413,1.25-4.36,2.749-4.348s2.7,1.978,2.678,4.391-1.25,4.36-2.749,4.348S2344.68,319.94,2344.7,317.527Z" transform="translate(-2286.305 -262.768)" fill="#3b2413"/>
              <path id="Trazado_721896" data-name="Trazado 721896" d="M2285.5,317.1c.019-2.414,1.25-4.36,2.749-4.348s2.7,1.978,2.678,4.391-1.25,4.36-2.749,4.348S2285.477,319.509,2285.5,317.1Z" transform="translate(-2259.402 -262.572)" fill="#3b2413"/>
              <path id="Trazado_721897" data-name="Trazado 721897" d="M2319.518,336.274a.693.693,0,0,1-.31-.073l-3.478-1.731a.7.7,0,0,1-.383-.691l2.06-21.24a.7.7,0,0,1,1.386.135l-2.013,20.762,3.048,1.518a.7.7,0,0,1-.311,1.32Z" transform="translate(-2272.966 -262.191)" fill="#c48974"/>
              <path id="Trazado_721898" data-name="Trazado 721898" d="M2339.415,296.429c-.247,1.556,2.307,2.655,7.26,3.442s10.431.964,10.678-.592-4.938-3.571-9.892-4.359S2339.662,294.873,2339.415,296.429Z" transform="translate(-2283.896 -254.326)" fill="#914837"/>
              <path id="Trazado_721899" data-name="Trazado 721899" d="M2268.828,297.95c.312,1.544,6.354,1.007,11.271.012s6.844-2.071,6.532-3.615-2.611-2.294-7.527-1.3S2268.515,296.406,2268.828,297.95Z" transform="translate(-2251.822 -253.415)" fill="#914837"/>
              <path id="Trazado_721900" data-name="Trazado 721900" d="M2238.3,331.669c2.042,6.21,6.695,10.26,10.392,9.045s5.04-7.234,3-13.444-4.834-10.738-8.531-9.523S2236.263,325.458,2238.3,331.669Z" transform="translate(-2237.668 -264.754)" fill="#f3aa8b"/>
              <path id="Trazado_721901" data-name="Trazado 721901" d="M2388.143,331.669c-2.042,6.21-6.7,10.26-10.393,9.045s-5.039-7.234-3-13.444,4.834-10.738,8.532-9.523S2390.185,325.458,2388.143,331.669Z" transform="translate(-2299.528 -264.754)" fill="#f3aa8b"/>
            </g>
            <path id="Trazado_721902" data-name="Trazado 721902" d="M2314.1,372.025a15.568,15.568,0,0,1-6.6-1.557.7.7,0,1,1,.587-1.262,12.757,12.757,0,0,0,11.758.009.7.7,0,0,1,.627,1.244A14.04,14.04,0,0,1,2314.1,372.025Z" transform="translate(-2269.219 -274.709)" fill="#c48974"/>
            <path id="Trazado_721903" data-name="Trazado 721903" d="M2288.147,220.475c-27.449,0-40.2,14.865-38.8,52.331l2.127,8.118s3.983-38.593,17.458-41.746c8.561-2,13.6,1.5,20.144,1.336s14.314-3.37,20.479-1.837c8.729,2.171,12.926,17.2,12.926,42.248l2.8-7.556C2325.938,236.781,2315.423,220.475,2288.147,220.475Z" transform="translate(-2242.927 -207.153)" fill="#914837"/>
          </g>
          <g id="Grupo_957370" data-name="Grupo 957370" transform="translate(2143.807 241.607)">
            <path id="Trazado_721904" data-name="Trazado 721904" d="M2234.316,346.752l5.855-.667a1.535,1.535,0,0,0,1.353-1.7l-3.86-33.912a1.528,1.528,0,0,0-1.816-1.337,17.047,17.047,0,0,0-13.375,18.6l1.2,10.552A9.614,9.614,0,0,0,2234.316,346.752Z" transform="translate(-2222.363 -309.103)" fill="#eac759"/>
            <path id="Trazado_721905" data-name="Trazado 721905" d="M2251.952,345.588h0a3.149,3.149,0,0,1-3.485-2.772l-3.352-29.448a3.15,3.15,0,0,1,2.772-3.485h0a3.149,3.149,0,0,1,3.485,2.773l3.352,29.448A3.149,3.149,0,0,1,2251.952,345.588Z" transform="translate(-2232.693 -309.448)" fill="#233a49"/>
            <path id="Trazado_721906" data-name="Trazado 721906" d="M2244.19,347.99a.405.405,0,0,1-.4-.359l-3.667-32.217a.4.4,0,1,1,.8-.092l3.667,32.217a.4.4,0,0,1-.356.448A.342.342,0,0,1,2244.19,347.99Z" transform="translate(-2230.432 -311.766)" fill="#c4a345"/>
            <rect id="Rectángulo_339753" data-name="Rectángulo 339753" width="2.443" height="8.36" rx="1.194" transform="matrix(0.827, -0.563, 0.563, 0.827, 6.773, 14.864)" fill="#d66371"/>
            <path id="Trazado_721907" data-name="Trazado 721907" d="M2393.056,346.805l-5.863-.6a1.536,1.536,0,0,1-1.373-1.683l3.45-33.957a1.529,1.529,0,0,1,1.8-1.359,17.047,17.047,0,0,1,13.6,18.435l-1.073,10.566A9.616,9.616,0,0,1,2393.056,346.805Z" transform="translate(-2296.637 -309.139)" fill="#eac759"/>
            <path id="Trazado_721908" data-name="Trazado 721908" d="M2396.5,368.084a11.256,11.256,0,0,1-1.138-.058.4.4,0,1,1,.082-.805c5.325.54,10.241-3.07,10.73-7.886a.4.4,0,1,1,.805.082C2406.482,364.321,2401.81,368.084,2396.5,368.084Z" transform="translate(-2300.811 -331.764)" fill="#c4a345"/>
            <path id="Trazado_721909" data-name="Trazado 721909" d="M2236.665,368.134a11.4,11.4,0,0,1-6.431-1.991,9.206,9.206,0,0,1-4.054-6.548.4.4,0,0,1,.8-.091,8.411,8.411,0,0,0,3.712,5.973,10.558,10.558,0,0,0,7.114,1.783.4.4,0,1,1,.092.8A10.872,10.872,0,0,1,2236.665,368.134Z" transform="translate(-2224.096 -331.843)" fill="#c4a345"/>
            <path id="Trazado_721910" data-name="Trazado 721910" d="M2383.31,345.749h0a3.149,3.149,0,0,0,3.451-2.814l3-29.487a3.148,3.148,0,0,0-2.814-3.45h0a3.149,3.149,0,0,0-3.451,2.814l-3,29.487A3.149,3.149,0,0,0,2383.31,345.749Z" transform="translate(-2294.213 -309.502)" fill="#233a49"/>
            <path id="Trazado_721911" data-name="Trazado 721911" d="M2395.4,348.029l-.042,0a.405.405,0,0,1-.362-.444l3.278-32.26a.4.4,0,1,1,.8.082l-3.277,32.259A.4.4,0,0,1,2395.4,348.029Z" transform="translate(-2300.811 -311.765)" fill="#c4a345"/>
            <rect id="Rectángulo_339754" data-name="Rectángulo 339754" width="2.443" height="8.36" rx="1.163" transform="matrix(-0.833, -0.553, 0.553, -0.833, 96.705, 21.789)" fill="#d66371"/>
          </g>
          <g id="Grupo_957374" data-name="Grupo 957374" transform="translate(2158.422 249.985)">
            <path id="Trazado_721912" data-name="Trazado 721912" d="M2303.547,324.46a9.053,9.053,0,0,0-6.42,2.659l-12.116,15.351-.861,24.576,8.377,5.55c1.066.707,2.06,1.512,3.057,2.312a11.079,11.079,0,0,0,6.926,2.432h1.038Z" transform="translate(-2265.055 -324.46)" fill="#3a5870"/>
            <path id="Trazado_721913" data-name="Trazado 721913" d="M2295.457,334.342l-9.96,12.619-.277,7.913a11.623,11.623,0,0,0,10.237-20.532Z" transform="translate(-2265.541 -328.951)" fill="#54809e"/>
            <path id="Trazado_721914" data-name="Trazado 721914" d="M2319.7,324.46a9.052,9.052,0,0,1,6.42,2.659l12.116,15.351.861,24.576-8.376,5.55c-1.067.707-2.06,1.512-3.058,2.312a11.077,11.077,0,0,1-6.926,2.432H2319.7Z" transform="translate(-2281.211 -324.46)" fill="#3a5870"/>
            <path id="Trazado_721915" data-name="Trazado 721915" d="M2331.4,334.342l9.96,12.619.277,7.913a11.624,11.624,0,0,1-10.237-20.532Z" transform="translate(-2284.334 -328.951)" fill="#54809e"/>
            <g id="Grupo_957371" data-name="Grupo 957371" transform="translate(27.714 23.28)">
              <rect id="Rectángulo_339755" data-name="Rectángulo 339755" width="8.079" height="2.012" transform="translate(1.503 5.89) rotate(-39.243)" fill="#cce1f2"/>
              <circle id="Elipse_5504" data-name="Elipse 5504" cx="8.65" cy="8.65" r="8.65" transform="translate(0 4.993) rotate(-16.775)" fill="#cce1f2"/>
              <path id="Trazado_721916" data-name="Trazado 721916" d="M2313.573,388.114a7.359,7.359,0,1,1,7.36-7.359A7.368,7.368,0,0,1,2313.573,388.114Zm0-13.91a6.551,6.551,0,1,0,6.551,6.55A6.558,6.558,0,0,0,2313.573,374.2Z" transform="translate(-2302.795 -369.977)" fill="#afc9db"/>
            </g>
            <ellipse id="Elipse_5505" data-name="Elipse 5505" cx="11.196" cy="4.577" rx="11.196" ry="4.577" transform="translate(27.296 44.846)" fill="#233a49"/>
            <path id="Trazado_721917" data-name="Trazado 721917" d="M2312.741,418.683c-4.616,0-8.358,1.53-8.358,3.416s3.742,3.417,8.358,3.417,8.358-1.53,8.358-3.417S2317.358,418.683,2312.741,418.683Z" transform="translate(-2274.25 -367.277)" fill="#233a49"/>
            <path id="Trazado_721918" data-name="Trazado 721918" d="M2299.663,416.862l2.793,5.189,1.839-3.166Z" transform="translate(-2272.105 -366.449)" fill="#233a49"/>
            <path id="Trazado_721919" data-name="Trazado 721919" d="M2335.884,416.862l-2.793,5.189-1.839-3.166Z" transform="translate(-2286.458 -366.449)" fill="#233a49"/>
            <path id="Trazado_721920" data-name="Trazado 721920" d="M2320.737,422.159a.394.394,0,0,1-.395-.394c0-1.391-3.188-2.941-7.764-2.941s-7.764,1.549-7.764,2.941a.395.395,0,0,1-.789,0c0-2.092,3.757-3.73,8.553-3.73s8.554,1.638,8.554,3.73A.4.4,0,0,1,2320.737,422.159Z" transform="translate(-2274.087 -366.982)" fill="#09151c"/>
            <g id="Grupo_957372" data-name="Grupo 957372" transform="translate(0 11.114)">
              <path id="Trazado_721921" data-name="Trazado 721921" d="M2265.509,371.6c1.669,8.939-.513,16.846-4.875,17.66s-9.252-5.771-10.921-14.71.513-16.845,4.875-17.66S2263.839,362.665,2265.509,371.6Z" transform="translate(-2249.151 -350.282)" fill="#68a4e0"/>
              <ellipse id="Elipse_5506" data-name="Elipse 5506" cx="8.035" cy="16.465" rx="8.035" ry="16.465" transform="translate(5.31 2.951) rotate(-10.58)" fill="#68a4e0"/>
              <path id="Trazado_721922" data-name="Trazado 721922" d="M2256.861,353.636l7.477-4.96,1.716,5.651-8.726,2.6Z" transform="translate(-2252.655 -346.578)" fill="#68a4e0"/>
              <path id="Trazado_721923" data-name="Trazado 721923" d="M2273.135,409.46l7.962-5.276-5.3-1.431-2.2,3.088Z" transform="translate(-2260.05 -371.152)" fill="#68a4e0"/>
              <path id="Trazado_721924" data-name="Trazado 721924" d="M2263.885,389.912a.405.405,0,0,1-.394-.315l-7.04-31.188a.4.4,0,0,1,.789-.178l7.04,31.188a.4.4,0,0,1-.306.483A.384.384,0,0,1,2263.885,389.912Z" transform="translate(-2252.464 -350.777)" fill="#588eba"/>
              <path id="Trazado_721925" data-name="Trazado 721925" d="M2250.614,386.9a.4.4,0,0,1-.074-.8l15.376-2.916a.4.4,0,1,1,.15.794l-15.375,2.916A.391.391,0,0,1,2250.614,386.9Z" transform="translate(-2249.632 -362.254)" fill="#588eba"/>
              <path id="Trazado_721926" data-name="Trazado 721926" d="M2272.146,384.109a.4.4,0,0,1-.39-.512,26.809,26.809,0,0,0,.168-11.7c-1.01-5.408-3.252-10.145-6-12.672a8.126,8.126,0,0,0-1.571-1.152.4.4,0,1,1,.389-.709,8.977,8.977,0,0,1,1.73,1.266c2.871,2.641,5.206,7.546,6.247,13.12a27.634,27.634,0,0,1-.184,12.058A.4.4,0,0,1,2272.146,384.109Z" transform="translate(-2255.964 -350.505)" fill="#588eba"/>
            </g>
            <g id="Grupo_957373" data-name="Grupo 957373" transform="translate(49.831 11.114)">
              <path id="Trazado_721927" data-name="Trazado 721927" d="M2359.805,371.6c-1.67,8.939.513,16.846,4.875,17.66s9.252-5.771,10.922-14.71-.514-16.845-4.875-17.66S2361.475,362.665,2359.805,371.6Z" transform="translate(-2349.01 -350.282)" fill="#68a4e0"/>
              <ellipse id="Elipse_5507" data-name="Elipse 5507" cx="16.465" cy="8.035" rx="16.465" ry="8.035" transform="translate(0 32.371) rotate(-79.42)" fill="#68a4e0"/>
              <path id="Trazado_721928" data-name="Trazado 721928" d="M2374.889,353.636l-7.477-4.96-1.716,5.651,8.727,2.6Z" transform="translate(-2351.942 -346.578)" fill="#68a4e0"/>
              <path id="Trazado_721929" data-name="Trazado 721929" d="M2359.639,409.46l-7.963-5.276,5.3-1.431,2.2,3.088Z" transform="translate(-2345.572 -371.152)" fill="#68a4e0"/>
              <path id="Trazado_721930" data-name="Trazado 721930" d="M2368.928,389.857a.405.405,0,0,1-.395-.495l7.168-31.279a.4.4,0,0,1,.789.181l-7.168,31.279A.4.4,0,0,1,2368.928,389.857Z" transform="translate(-2353.227 -350.711)" fill="#588eba"/>
              <path id="Trazado_721931" data-name="Trazado 721931" d="M2375.418,386.872a.438.438,0,0,1-.075-.007l-15.482-2.893a.4.4,0,0,1,.148-.795l15.482,2.893a.4.4,0,0,1-.073.8Z" transform="translate(-2349.141 -362.253)" fill="#588eba"/>
              <path id="Trazado_721932" data-name="Trazado 721932" d="M2359.642,384.108a.4.4,0,0,1-.389-.3,27.63,27.63,0,0,1-.183-12.058c1.265-6.773,4.4-12.42,7.977-14.386a.4.4,0,0,1,.389.709c-3.325,1.825-6.367,7.381-7.571,13.824a26.8,26.8,0,0,0,.168,11.7.405.405,0,0,1-.39.512Z" transform="translate(-2348.672 -350.505)" fill="#588eba"/>
            </g>
          </g>
          <g id="Grupo_957375" data-name="Grupo 957375" transform="translate(2143.029 160.57)">
            <path id="Trazado_721933" data-name="Trazado 721933" d="M2319.59,209.621a43.1,43.1,0,1,0-85.982,6.12l-12.67,16.753a621.605,621.605,0,0,0,113.567-8.084h0Z" transform="translate(-2220.937 -164.664)" fill="#eac759"/>
            <path id="Rectángulo_339756" data-name="Rectángulo 339756" d="M7.5,0h5.534a0,0,0,0,1,0,0V27.965a0,0,0,0,1,0,0H0a0,0,0,0,1,0,0V7.5A7.5,7.5,0,0,1,7.5,0Z" transform="translate(5.991 36.254) rotate(-4.071)" fill="#eac759"/>
            <path id="Rectángulo_339757" data-name="Rectángulo 339757" d="M0,0H5.534a7.5,7.5,0,0,1,7.5,7.5v20.46a0,0,0,0,1,0,0H0a0,0,0,0,1,0,0V0A0,0,0,0,1,0,0Z" transform="translate(90.221 30.258) rotate(-4.071)" fill="#eac759"/>
            <path id="Rectángulo_339758" data-name="Rectángulo 339758" d="M3.578,0H16.372A3.578,3.578,0,0,1,19.95,3.578V8.093a0,0,0,0,1,0,0H0a0,0,0,0,1,0,0V3.578A3.578,3.578,0,0,1,3.578,0Z" transform="translate(42.343 1.416) rotate(-4.072)" fill="#eac759"/>
            <path id="Trazado_721934" data-name="Trazado 721934" d="M2270.145,224.25a.578.578,0,0,1-.577-.562,23.213,23.213,0,0,1,1.931-9.94.565.565,0,0,1,.085-.194,23.3,23.3,0,0,1,3.43-5.486,40.153,40.153,0,0,0,6.564-10.4c2.811-6.819,4.248-16.555,3.661-24.8a.578.578,0,0,1,1.152-.082c.6,8.412-.871,18.353-3.745,25.325a41.315,41.315,0,0,1-6.747,10.7,22.168,22.168,0,0,0-3.285,5.271l-.011.027a22.053,22.053,0,0,0-1.88,9.549.578.578,0,0,1-.562.593Zm58.282-4.152a.578.578,0,0,1-.573-.511,22.059,22.059,0,0,0-3.214-9.183l-.012-.02a22.146,22.146,0,0,0-4-4.757,41.284,41.284,0,0,1-8.193-9.637c-3.833-6.495-6.7-16.127-7.295-24.539a.578.578,0,0,1,1.153-.082c.587,8.248,3.389,17.681,7.137,24.035a40.177,40.177,0,0,0,7.971,9.363,23.315,23.315,0,0,1,4.2,4.99.53.53,0,0,1,.041.066,23.207,23.207,0,0,1,3.363,9.631.578.578,0,0,1-.507.641C2328.472,220.1,2328.449,220.1,2328.427,220.1Z" transform="translate(-2243.032 -165.233)" fill="#c4a345"/>
            <path id="Trazado_721935" data-name="Trazado 721935" d="M2291.727,185.1a.578.578,0,0,1-.575-.537l-.545-7.647a.578.578,0,1,1,1.153-.082l.545,7.647a.578.578,0,0,1-.536.617Z" transform="translate(-2252.595 -167.715)" fill="#c4a345"/>
            <path id="Trazado_721936" data-name="Trazado 721936" d="M2344.058,181.39a.578.578,0,0,1-.576-.537l-.542-7.623a.578.578,0,1,1,1.153-.082l.542,7.623a.578.578,0,0,1-.536.618Z" transform="translate(-2276.376 -166.042)" fill="#c4a345"/>
          </g>
          <g id="Grupo_957376" data-name="Grupo 957376" transform="translate(2065.353 993.644)">
            <path id="Trazado_721937" data-name="Trazado 721937" d="M2096.52,1741.656h10.81c11.182,0,25.96-9.064,25.96-20.246v-30.2a2.6,2.6,0,0,1,2.285-2.586,145.894,145.894,0,0,1,35.685-.025,2.6,2.6,0,0,1,2.25,2.581v55.756l2.2,1.274a2.418,2.418,0,0,1,1.207,2.093v8.53a2.417,2.417,0,0,1-1.207,2.093l-2.2,1.274v3.618a8.691,8.691,0,0,1-8.8,8.8c-10.646,0-15.079-2.637-26.361-2.637s-17.583,2.637-25.275,2.637a179.513,179.513,0,0,1-25.9-2.527,10.391,10.391,0,0,1-8.6-10.236v-2.249A17.955,17.955,0,0,1,2096.52,1741.656Z" transform="translate(-2078.565 -1687.516)" fill="#233a49"/>
            <path id="Trazado_721938" data-name="Trazado 721938" d="M2178.872,1691.21a2.6,2.6,0,0,1,2.285-2.586,145.9,145.9,0,0,1,35.685-.025,2.6,2.6,0,0,1,2.25,2.581v33.113l-40.22-23.15Z" transform="translate(-2124.146 -1687.516)" fill="#233a49"/>
            <path id="Trazado_721939" data-name="Trazado 721939" d="M2218.751,1735.711a.4.4,0,0,1-.2-.055l-40.22-23.15a.41.41,0,1,1,.409-.71l40.22,23.15a.41.41,0,0,1-.2.765Z" transform="translate(-2123.805 -1698.525)" fill="#d66371"/>
            <path id="Trazado_721940" data-name="Trazado 721940" d="M2114.711,1809.154c-13.3,0-23.793-2.595-32.225-4.68a.409.409,0,1,1,.2-.795c8.389,2.074,18.83,4.655,32.029,4.655a53.083,53.083,0,0,0,8.753-1.011,91.855,91.855,0,0,1,16.522-1.626,81.41,81.41,0,0,1,15.019,1.469,32.051,32.051,0,0,1,3.452.78.41.41,0,0,1-.236.785,31.785,31.785,0,0,0-3.351-.757,80.747,80.747,0,0,0-14.884-1.458,91.093,91.093,0,0,0-16.381,1.614A53.63,53.63,0,0,1,2114.711,1809.154Z" transform="translate(-2080.205 -1740.297)" fill="#d66371"/>
            <path id="Trazado_721941" data-name="Trazado 721941" d="M2231.4,1804.2c-7.243,0-17.223-10.213-17.223-17.626,0-6.944,4.672-11.091,12.5-11.091a16.466,16.466,0,0,1,8.68,2.144.41.41,0,0,1-.433.7,15.651,15.651,0,0,0-8.247-2.02c-7.312,0-11.678,3.839-11.678,10.271,0,6.911,9.658,16.807,16.4,16.807a.41.41,0,1,1,0,.819Z" transform="translate(-2140.189 -1727.49)" fill="#d66371"/>
            <path id="Trazado_721942" data-name="Trazado 721942" d="M2218.751,1702.625h-40.221a.41.41,0,0,1,0-.819h40.221a.41.41,0,0,1,0,.819Z" transform="translate(-2123.805 -1694.009)" fill="#d66371"/>
            <path id="Trazado_721943" data-name="Trazado 721943" d="M2138.346,1831.255c-11.282,0-17.583,2.637-25.276,2.637a153.823,153.823,0,0,1-25.9-2.527h0a10.391,10.391,0,0,1-8.6-10.236v-2.25q0-.471.024-.936c8.816,2.159,20.267,5.262,34.481,5.262a53.347,53.347,0,0,0,8.825-1.018,91.47,91.47,0,0,1,16.45-1.62,81.042,81.042,0,0,1,14.954,1.465,61.161,61.161,0,0,0,11.408,1.173,66.561,66.561,0,0,0,8.8-1.055v2.937a8.692,8.692,0,0,1-8.8,8.8C2154.06,1833.893,2149.628,1831.255,2138.346,1831.255Z" transform="translate(-2078.565 -1746.785)" fill="#3a5870"/>
          </g>
          <g id="Grupo_957377" data-name="Grupo 957377" transform="translate(2234.034 993.644)">
            <path id="Trazado_721944" data-name="Trazado 721944" d="M2468.139,1741.656h-10.81c-11.182,0-25.96-9.064-25.96-20.246v-30.2a2.6,2.6,0,0,0-2.285-2.586,145.89,145.89,0,0,0-35.685-.025,2.6,2.6,0,0,0-2.251,2.581v55.756l-2.2,1.274a2.418,2.418,0,0,0-1.207,2.093v8.53a2.417,2.417,0,0,0,1.207,2.093l2.2,1.274v3.618a8.692,8.692,0,0,0,8.8,8.8c10.646,0,15.079-2.637,26.361-2.637s17.583,2.637,25.275,2.637a179.51,179.51,0,0,0,25.9-2.527,10.39,10.39,0,0,0,8.6-10.236v-2.249A17.955,17.955,0,0,0,2468.139,1741.656Z" transform="translate(-2387.741 -1687.516)" fill="#233a49"/>
            <path id="Trazado_721945" data-name="Trazado 721945" d="M2434.205,1691.21a2.6,2.6,0,0,0-2.284-2.586,145.89,145.89,0,0,0-35.685-.025,2.6,2.6,0,0,0-2.251,2.581v33.113l40.22-23.15Z" transform="translate(-2390.578 -1687.516)" fill="#233a49"/>
            <path id="Trazado_721946" data-name="Trazado 721946" d="M2393.645,1735.711a.41.41,0,0,1-.2-.765l40.22-23.15a.41.41,0,0,1,.409.71l-40.22,23.15A.4.4,0,0,1,2393.645,1735.711Z" transform="translate(-2390.237 -1698.525)" fill="#d66371"/>
            <path id="Trazado_721947" data-name="Trazado 721947" d="M2468.087,1809.154a53.608,53.608,0,0,1-8.891-1.023,91.115,91.115,0,0,0-16.384-1.615,80.726,80.726,0,0,0-14.88,1.458,31.693,31.693,0,0,0-3.355.758.41.41,0,0,1-.235-.785,31.988,31.988,0,0,1,3.448-.78,81.419,81.419,0,0,1,15.022-1.47,91.866,91.866,0,0,1,16.518,1.625,53.068,53.068,0,0,0,8.757,1.012c13.2,0,23.64-2.581,32.029-4.655a.409.409,0,1,1,.2.795C2491.881,1806.56,2481.387,1809.154,2468.087,1809.154Z" transform="translate(-2404.24 -1740.297)" fill="#d66371"/>
            <path id="Trazado_721948" data-name="Trazado 721948" d="M2397.379,1804.2a.41.41,0,1,1,0-.819c6.745,0,16.4-9.9,16.4-16.807,0-6.432-4.366-10.271-11.678-10.271a15.651,15.651,0,0,0-8.247,2.02.41.41,0,1,1-.432-.7,16.464,16.464,0,0,1,8.679-2.144c7.826,0,12.5,4.147,12.5,11.091C2414.6,1793.989,2404.622,1804.2,2397.379,1804.2Z" transform="translate(-2390.236 -1727.49)" fill="#d66371"/>
            <path id="Trazado_721949" data-name="Trazado 721949" d="M2433.865,1702.625h-40.221a.41.41,0,0,1,0-.819h40.221a.41.41,0,0,1,0,.819Z" transform="translate(-2390.237 -1694.009)" fill="#d66371"/>
            <path id="Trazado_721950" data-name="Trazado 721950" d="M2429.15,1831.255c11.282,0,17.582,2.637,25.275,2.637a153.828,153.828,0,0,0,25.9-2.527h0a10.391,10.391,0,0,0,8.6-10.236v-2.25c0-.314-.009-.626-.024-.936-8.816,2.159-20.267,5.262-34.482,5.262a53.35,53.35,0,0,1-8.824-1.018,91.468,91.468,0,0,0-16.451-1.62,81.056,81.056,0,0,0-14.954,1.465,61.153,61.153,0,0,1-11.407,1.173,66.571,66.571,0,0,1-8.8-1.055v2.937a8.692,8.692,0,0,0,8.8,8.8C2413.436,1833.893,2417.868,1831.255,2429.15,1831.255Z" transform="translate(-2390.578 -1746.785)" fill="#3a5870"/>
          </g>
          <path id="Trazado_721951" data-name="Trazado 721951" d="M2159.805,729.68a.7.7,0,0,1-.679-.856l13.286-56.581a.7.7,0,0,1,1.356.319l-13.286,56.581A.7.7,0,0,1,2159.805,729.68Z" transform="translate(-49.812 -232.27)" fill="#b76751"/>
          <g id="Grupo_957381" data-name="Grupo 957381" transform="translate(2094.218 319.812)">
            <g id="Grupo_957378" data-name="Grupo 957378" transform="translate(0 0)">
              <path id="Trazado_721952" data-name="Trazado 721952" d="M2166.778,666.007,2145.9,760.531s-6.435,68.867-5.9,112.445c.513,41.529.257,70.222.415,111.782.1,26.2-4.481,51.534-4.988,77.521-.545,27.988,7.144,58.343.889,85.71-3.031,13.261-.63,28.54-.289,42.118.423,16.871,2.344,2.8-.313,19.331-2.794,17.4-4.68,35.981-4.166,53.606,10.188,2.58,24.609-1.189,35.373-1.188,16.712,0,38.395,1.839,38.395,1.839,5.257.445.856-50.921.613-56.049-1-21.2,1.783-10.668,4.517-31.647,4.178-32.052,9.7-65.279,9.7-97.66q3.2-43.074,6.392-86.147c1.041-14.022,1.543-28.208,3.133-42.177.739-6.5,6.516-16.461,5.64-22.508,2.345,16.188,6.826,31.81,7.394,48.056.926,26.5,2.314,53.044,6.242,79.295,2.348,15.7,5.606,31.321,6.093,47.184.957,31.229-.078,45.357.835,76.808.464,15.984.487,18.008.963,33.607.414,13.55-2.556,35.032,2.481,47.59,6.1,15.217,46.991,13.161,60.151,10.761,21.3-3.95,26.992-8.417,26.992-8.417-2.51-51.059-10.816-69.206-10.379-120.6.242-28.532-.56-52.916-3.188-102.133-1.869-35.005-2.6-69.607-2.008-104.4.539-31.741-3.474-73.58-3.474-73.58l-7.531-72.352-20.208-121.366a7.353,7.353,0,0,0-6.887-5.163l-118.808-2.138A7.351,7.351,0,0,0,2166.778,666.007Z" transform="translate(-2131.47 -547.06)" fill="#3a5870"/>
              <path id="Trazado_721953" data-name="Trazado 721953" d="M2216.253,453.506l13.844,113.1h-17.552l-17.859-109.421C2194.257,454.2,2215.873,450.628,2216.253,453.506Z" transform="translate(-2160.195 -452.445)" fill="#54809e"/>
              <path id="Trazado_721954" data-name="Trazado 721954" d="M2369.271,569.175l21.147-114.064c.385-2.872,18.793,3.978,18.376,6.962l-21.642,107.1Z" transform="translate(-2239.531 -453.344)" fill="#54809e"/>
              <path id="Trazado_721955" data-name="Trazado 721955" d="M2246.083,915.117c-32.133,0-76.708-4.8-94.381-6.862a.558.558,0,1,1,.13-1.108c17.654,2.061,62.177,6.854,94.251,6.854,36.733,0,63.076-2.59,80.535-7.917a.558.558,0,0,1,.326,1.067C2309.378,912.511,2282.928,915.117,2246.083,915.117Z" transform="translate(-2140.44 -658.575)" fill="#233a49"/>
              <path id="Trazado_721956" data-name="Trazado 721956" d="M2148.214,1038.207a.558.558,0,0,1-.282-1.04l55.876-32.571a18.714,18.714,0,0,0,7.016-14.651V918.957a.558.558,0,1,1,1.116,0v70.988a19.825,19.825,0,0,1-7.465,15.547.558.558,0,0,1-.068.046l-55.912,32.593A.558.558,0,0,1,2148.214,1038.207Z" transform="translate(-2138.825 -664.183)" fill="#233a49"/>
              <path id="Trazado_721957" data-name="Trazado 721957" d="M2448.7,1023.919a.548.548,0,0,1-.214-.043l-37.275-15.482a.528.528,0,0,1-.12-.068,20.038,20.038,0,0,1-7.834-13.315l-8.516-75.991a.558.558,0,0,1,1.109-.124l8.515,75.979a18.91,18.91,0,0,0,7.338,12.516l37.211,15.455a.558.558,0,0,1-.214,1.074Z" transform="translate(-2251.104 -664.183)" fill="#233a49"/>
              <path id="Trazado_721958" data-name="Trazado 721958" d="M2329.362,827.147a.558.558,0,0,1-.558-.558V719.069H2220.18V826.589a.558.558,0,0,1-1.116,0V718.511a.558.558,0,0,1,.558-.558h109.74a.558.558,0,0,1,.558.558V826.589A.558.558,0,0,1,2329.362,827.147Z" transform="translate(-2171.275 -573.097)" fill="#233a49"/>
              <path id="Rectángulo_339759" data-name="Rectángulo 339759" d="M0,0H109.741a0,0,0,0,1,0,0V0A25.823,25.823,0,0,1,83.918,25.823H25.823A25.823,25.823,0,0,1,0,0V0A0,0,0,0,1,0,0Z" transform="translate(48.347 145.03)" fill="#2f495b"/>
              <path id="Trazado_721959" data-name="Trazado 721959" d="M2321.343,1046.189l-.05,0a.558.558,0,0,1-.506-.606c.015-.169,1.574-17.158,5.3-40.577,3.711-23.324-3.427-83.162-3.5-83.764a.558.558,0,1,1,1.108-.133c.073.6,7.229,60.6,3.494,84.073-3.72,23.382-5.275,40.334-5.291,40.5A.557.557,0,0,1,2321.343,1046.189Z" transform="translate(-2217.498 -665.19)" fill="#233a49"/>
              <path id="Trazado_721960" data-name="Trazado 721960" d="M2247.029,1681.682a.558.558,0,0,1-.556-.522c-.393-6.091,1.274-14.118,4.953-23.857a129.723,129.723,0,0,1,5.646-12.814.558.558,0,0,1,.989.518c-.114.217-11.386,21.909-10.474,36.081a.558.558,0,0,1-.521.593Z" transform="translate(-2183.704 -993.995)" fill="#233a49"/>
              <path id="Trazado_721961" data-name="Trazado 721961" d="M2214.354,1497.076a.551.551,0,0,1-.239-.055.558.558,0,0,1-.265-.744c.029-.06,2.9-6.071,7.312-13.252,4.083-6.643,10.362-15.68,17.1-21.011,6.569-5.2,11.168-14.379,13.869-21.163a99.735,99.735,0,0,0,4.344-13.676.558.558,0,0,1,1.09.241c-.226,1.026-5.691,25.246-18.61,35.473-12.663,10.025-23.979,33.63-24.092,33.867A.559.559,0,0,1,2214.354,1497.076Z" transform="translate(-2168.881 -895.182)" fill="#233a49"/>
              <path id="Trazado_721962" data-name="Trazado 721962" d="M2162.424,1443.5a.555.555,0,0,1-.333-.11,85.166,85.166,0,0,1-17.62-17.4,48.942,48.942,0,0,1-5.056-8.107.558.558,0,0,1,1.017-.459c.058.128,5.972,12.939,22.324,25.071a.558.558,0,0,1-.333,1.006Z" transform="translate(-2135.058 -890.8)" fill="#233a49"/>
              <path id="Trazado_721963" data-name="Trazado 721963" d="M2225.277,1263.5a.6.6,0,0,1-.061,0,64.382,64.382,0,0,1-32.585-13.046.558.558,0,0,1,.732-.842,63.211,63.211,0,0,0,31.973,12.778.558.558,0,0,1-.06,1.113Z" transform="translate(-2159.176 -814.629)" fill="#233a49"/>
              <path id="Trazado_721964" data-name="Trazado 721964" d="M2445.092,1274.312a.554.554,0,0,1-.321-.1l-28.822-20.286a.558.558,0,1,1,.642-.912l28.823,20.285a.558.558,0,0,1-.322,1.014Z" transform="translate(-2260.635 -816.191)" fill="#233a49"/>
              <path id="Trazado_721965" data-name="Trazado 721965" d="M2384.708,1343.763a.559.559,0,0,1-.525-.371l-10.361-29.123-35.275-25.979a.558.558,0,1,1,.661-.9l35.413,26.081a.551.551,0,0,1,.194.262l10.418,29.285a.557.557,0,0,1-.339.712A.544.544,0,0,1,2384.708,1343.763Z" transform="translate(-2225.467 -831.81)" fill="#233a49"/>
              <path id="Trazado_721966" data-name="Trazado 721966" d="M2475.066,1490.07h-.038a.558.558,0,0,1-.52-.595l2.945-43.477a.561.561,0,0,1,.152-.346c10.473-11.042,10.953-13.594,10.933-14.018a.558.558,0,0,1,.28-1.06.887.887,0,0,1,.749.583c.239.612.964,2.469-11.013,15.116l-2.931,43.277A.559.559,0,0,1,2475.066,1490.07Zm13.677-58.383h0Z" transform="translate(-2287.353 -896.924)" fill="#233a49"/>
              <path id="Trazado_721967" data-name="Trazado 721967" d="M2383.751,1539.073a.569.569,0,0,1-.181-.03c-13.666-4.69-24.519-15.419-24.626-15.526a.558.558,0,0,1,.207-.921l33.819-12.01a.558.558,0,1,1,.374,1.052l-32.962,11.7c2.511,2.335,12.02,10.686,23.552,14.643a.558.558,0,0,1-.182,1.086Z" transform="translate(-2234.764 -933.269)" fill="#233a49"/>
              <path id="Trazado_721968" data-name="Trazado 721968" d="M2483.683,1682.771a.558.558,0,0,1-.357-.987c12.29-10.237,16.748-24.532,16.792-24.676a.558.558,0,0,1,1.068.324c-.044.146-4.59,14.75-17.146,25.209A.557.557,0,0,1,2483.683,1682.771Z" transform="translate(-2291.269 -999.686)" fill="#233a49"/>
              <path id="Trazado_721969" data-name="Trazado 721969" d="M2387.391,1704.764a.557.557,0,0,1-.488-.287c-8.586-15.466-25.018-26.062-25.183-26.168a.558.558,0,1,1,.6-.941c.167.106,16.832,10.848,25.558,26.567a.558.558,0,0,1-.487.829Z" transform="translate(-2235.982 -1009.033)" fill="#233a49"/>
              <path id="Trazado_721970" data-name="Trazado 721970" d="M2464.026,1734.431a.558.558,0,0,1-.047-1.115c23.781-2.066,30.614-13.146,30.68-13.257a.558.558,0,0,1,.962.567c-.28.476-7.131,11.681-31.546,13.8A.41.41,0,0,1,2464.026,1734.431Z" transform="translate(-2282.336 -1028.347)" fill="#233a49"/>
              <path id="Trazado_721971" data-name="Trazado 721971" d="M2370.851,1735.569a.554.554,0,0,1-.36-.132l-9.689-8.206a.558.558,0,1,1,.721-.852l9.689,8.206a.558.558,0,0,1-.36.984Z" transform="translate(-2235.593 -1031.284)" fill="#233a49"/>
              <path id="Trazado_721972" data-name="Trazado 721972" d="M2439.023,1009.761a.558.558,0,0,1-.3-1.029c7-4.474,15.3-11.5,24.656-20.9a.558.558,0,1,1,.791.788c-9.416,9.45-17.775,16.532-24.846,21.05A.556.556,0,0,1,2439.023,1009.761Z" transform="translate(-2270.974 -695.661)" fill="#233a49"/>
              <path id="Trazado_721973" data-name="Trazado 721973" d="M2479.131,1069.367a.558.558,0,0,1-.416-.93c.057-.063,5.641-6.3,6.736-7.645a.558.558,0,1,1,.865.7c-1.111,1.365-6.54,7.428-6.77,7.685A.557.557,0,0,1,2479.131,1069.367Z" transform="translate(-2289.2 -728.795)" fill="#233a49"/>
              <path id="Trazado_721974" data-name="Trazado 721974" d="M2177.41,989.19a.554.554,0,0,1-.324-.1L2155.412,973.6a.558.558,0,1,1,.649-.908l21.674,15.481a.558.558,0,0,1-.325,1.012Z" transform="translate(-2142.244 -688.809)" fill="#233a49"/>
              <path id="Trazado_721975" data-name="Trazado 721975" d="M2184.134,1018.765a.557.557,0,0,1-.123-.014c-11.968-2.679-28.791-12.848-36.332-19.159a.558.558,0,1,1,.716-.856c7.454,6.237,24.064,16.285,35.861,18.925a.558.558,0,0,1-.122,1.1Z" transform="translate(-2138.745 -700.631)" fill="#233a49"/>
            </g>
            <g id="Grupo_957379" data-name="Grupo 957379" transform="translate(36.564 25.816)">
              <path id="Trazado_721976" data-name="Trazado 721976" d="M2220.115,528.425a3.113,3.113,0,0,1-3.13-2.68l-.387-2.765a3.113,3.113,0,0,1,2.272-3.438l1.42-.384a2.272,2.272,0,0,0,1.658-2.509l-.846-6.04a1.992,1.992,0,0,0-2.249-1.7l-16.963,2.378a1.992,1.992,0,0,0-1.7,2.249l.847,6.041a2.272,2.272,0,0,0,2.283,1.956l1.471-.022a3.113,3.113,0,0,1,3.13,2.681l.388,2.765a3.114,3.114,0,0,1-2.272,3.438l-1.42.383a2.272,2.272,0,0,0-1.658,2.509h0a1.993,1.993,0,0,0,2.25,1.7l16.963-2.378a1.993,1.993,0,0,0,1.7-2.249h0a2.273,2.273,0,0,0-2.285-1.956Z" transform="translate(-2199.255 -503.913)" fill="#3a5870"/>
              <path id="Trazado_721977" data-name="Trazado 721977" d="M2218.829,501.854l-19.05,2.669a.938.938,0,0,1-1.059-.8h0a.938.938,0,0,1,.8-1.06l19.049-2.67a.939.939,0,0,1,1.06.8h0A.939.939,0,0,1,2218.829,501.854Z" transform="translate(-2198.59 -499.865)" fill="#3a5870"/>
              <path id="Rectángulo_339760" data-name="Rectángulo 339760" d="M.938,0h11.01a.938.938,0,0,1,.938.938v0a.938.938,0,0,1-.938.938H.938A.938.938,0,0,1,0,.938v0A.938.938,0,0,1,.938,0Z" transform="translate(1.789 15.693) rotate(-97.978)" fill="#3a5870"/>
              <rect id="Rectángulo_339761" data-name="Rectángulo 339761" width="12.887" height="1.877" rx="0.938" transform="translate(20.838 13.023) rotate(-97.978)" fill="#3a5870"/>
              <path id="Trazado_721978" data-name="Trazado 721978" d="M2200.532,515.463a.354.354,0,0,1-.049-.7l20.19-2.83a.354.354,0,0,1,.1.7l-20.19,2.829A.384.384,0,0,1,2200.532,515.463Z" transform="translate(-2199.257 -505.291)" fill="#233a49"/>
            </g>
            <g id="Grupo_957380" data-name="Grupo 957380" transform="translate(138.663 30.014)">
              <path id="Trazado_721979" data-name="Trazado 721979" d="M2389.411,536.122a3.114,3.114,0,0,0,3.141-2.667l.4-2.763a3.113,3.113,0,0,0-2.257-3.448l-1.419-.39a2.272,2.272,0,0,1-1.647-2.516l.872-6.036a1.992,1.992,0,0,1,2.257-1.686l16.953,2.449a1.992,1.992,0,0,1,1.687,2.256l-.872,6.036a2.271,2.271,0,0,1-2.292,1.947l-1.471-.028a3.113,3.113,0,0,0-3.14,2.667l-.4,2.763a3.113,3.113,0,0,0,2.257,3.448l1.419.39a2.272,2.272,0,0,1,1.648,2.516h0a1.993,1.993,0,0,1-2.257,1.687l-16.953-2.45a1.992,1.992,0,0,1-1.686-2.257h0a2.273,2.273,0,0,1,2.292-1.947Z" transform="translate(-2385.627 -511.61)" fill="#3a5870"/>
              <path id="Trazado_721980" data-name="Trazado 721980" d="M2393.205,509.553l19.039,2.751a.937.937,0,0,0,1.063-.794h0a.939.939,0,0,0-.794-1.063l-19.038-2.75a.938.938,0,0,0-1.063.794h0A.938.938,0,0,0,2393.205,509.553Z" transform="translate(-2388.705 -507.561)" fill="#3a5870"/>
              <path id="Rectángulo_339762" data-name="Rectángulo 339762" d="M.938,0H11.949a.938.938,0,0,1,.938.938v0a.938.938,0,0,1-.938.938H.938A.938.938,0,0,1,0,.938v0A.938.938,0,0,1,.938,0Z" transform="translate(21.035 15.505) rotate(-81.779)" fill="#3a5870"/>
              <path id="Rectángulo_339763" data-name="Rectángulo 339763" d="M.939,0h11.01a.939.939,0,0,1,.939.939v0a.938.938,0,0,1-.938.938H.938A.938.938,0,0,1,0,.939v0A.939.939,0,0,1,.939,0Z" transform="translate(1.997 12.755) rotate(-81.779)" fill="#3a5870"/>
              <path id="Trazado_721981" data-name="Trazado 721981" d="M2411.473,523.237a.319.319,0,0,1-.051,0l-20.177-2.915a.354.354,0,1,1,.1-.7l20.177,2.916a.354.354,0,0,1-.05.7Z" transform="translate(-2388.042 -512.981)" fill="#233a49"/>
            </g>
          </g>
          <path id="Trazado_721982" data-name="Trazado 721982" d="M2405.423,307.429a.771.771,0,0,1-.593-1.262c.107-.129,9.181-11.535-.834-31.626a.77.77,0,0,1,1.379-.687c10.5,21.057,1.048,32.807.641,33.3A.77.77,0,0,1,2405.423,307.429Z" transform="translate(-161.057 -51.284)" fill="#233a49"/>
          <path id="Trazado_721983" data-name="Trazado 721983" d="M2232.2,312.612a.769.769,0,0,1-.6-.281c-.319-.388-7.739-9.715-1.677-26.982a.77.77,0,1,1,1.453.511c-3.012,8.58-2.465,15.055-1.476,18.977a18.232,18.232,0,0,0,2.893,6.519.771.771,0,0,1-.6,1.258Z" transform="translate(-80.916 -56.467)" fill="#233a49"/>
          <g id="Grupo_957383" data-name="Grupo 957383" transform="translate(2154.178 227.524)">
            <path id="Trazado_721984" data-name="Trazado 721984" d="M2308.5,330.1c-9.039,0-13.623,8.975-13.623,8.975,8.167-8.167,19.079-8.167,27.246,0C2322.128,339.075,2317.544,330.1,2308.5,330.1Z" transform="translate(-2265.688 -304.562)" fill="#d66371"/>
            <path id="Trazado_721985" data-name="Trazado 721985" d="M2314.029,290.5v0h0a220.508,220.508,0,0,0-55.187,0h0v0c-7.993,1.108-12.527,8.21-12.527,16.813,0,9.371,9.182,15.223,18.553,15.223,4.435,0,7.193-1.313,8.869-3.687v.048c3.62-5.506,6.283-7.761,12.7-7.937,6.415.176,9.078,2.431,12.7,7.937v-.048c1.675,2.374,4.433,3.687,8.868,3.687,9.371,0,18.554-5.852,18.554-15.223C2326.556,298.707,2322.022,291.6,2314.029,290.5Z" transform="translate(-2243.619 -285.776)" fill="#e4edf4" opacity="0.44"/>
            <g id="Grupo_957382" data-name="Grupo 957382" transform="translate(7.122 3.063)">
              <path id="Trazado_721986" data-name="Trazado 721986" d="M2254.428,318.421a17.7,17.7,0,0,0,3.7,2.648l7.709-29.849q-1.654.183-3.305.391v0c-.423.059-.834.138-1.237.229Z" transform="translate(-2254.428 -289.957)" fill="#f2f6f9"/>
              <path id="Trazado_721987" data-name="Trazado 721987" d="M2267.076,322.366l8.262-31.994q-1.123.1-2.245.213l-8.029,31.089C2265.718,321.937,2266.391,322.167,2267.076,322.366Z" transform="translate(-2259.262 -289.572)" fill="#f2f6f9"/>
              <path id="Trazado_721988" data-name="Trazado 721988" d="M2325.537,288.9l-5.712,22.119h.015a17.247,17.247,0,0,1,4.647.674l5.842-22.622C2328.731,289,2327.135,288.946,2325.537,288.9Z" transform="translate(-2284.145 -288.905)" fill="#f2f6f9"/>
              <path id="Trazado_721989" data-name="Trazado 721989" d="M2361.818,291.73v0h0c-.712-.089-1.425-.17-2.138-.253l-8.2,31.754a15.461,15.461,0,0,0,4.311.54c.748,0,1.493-.042,2.235-.115l7.926-30.692A13.893,13.893,0,0,0,2361.818,291.73Z" transform="translate(-2298.53 -290.072)" fill="#f2f6f9"/>
            </g>
            <path id="Rectángulo_339764" data-name="Rectángulo 339764" d="M3.013,0h0a0,0,0,0,1,0,0V10.328a0,0,0,0,1,0,0h0A3.013,3.013,0,0,1,0,7.315v-4.3A3.013,3.013,0,0,1,3.013,0Z" transform="translate(0 15.537)" fill="#d66371"/>
            <path id="Rectángulo_339765" data-name="Rectángulo 339765" d="M3.013,0h0a0,0,0,0,1,0,0V10.328a0,0,0,0,1,0,0h0A3.013,3.013,0,0,1,0,7.315v-4.3A3.013,3.013,0,0,1,3.013,0Z" transform="translate(85.95 25.866) rotate(180)" fill="#d66371"/>
            <path id="Trazado_721990" data-name="Trazado 721990" d="M2324.462,287.278a220.505,220.505,0,0,0-55.187,0,72.936,72.936,0,0,1,13.66-3.051l1.732-.234c.579-.068,1.158-.115,1.737-.174l3.482-.3c2.324-.142,4.653-.189,6.982-.232,2.329.043,4.657.089,6.982.232l3.482.3c.579.059,1.158.106,1.738.174l1.732.234A72.974,72.974,0,0,1,2324.462,287.278Z" transform="translate(-2254.052 -283.291)" fill="#d66371"/>
            <path id="Trazado_721991" data-name="Trazado 721991" d="M2307.089,322.717c-4.465,0-7.606-1.28-9.588-3.912a1.045,1.045,0,0,1-.2-.221c-3.355-5.1-5.738-7.27-11.783-7.443-6.045.172-8.427,2.338-11.783,7.443a1.077,1.077,0,0,1-.2.229c-1.983,2.627-5.122,3.9-9.583,3.9-9.659,0-19.649-6.1-19.649-16.319,0-9.7,5.245-16.706,13.372-17.884a1.133,1.133,0,0,1,.113-.02,221.661,221.661,0,0,1,55.462,0,1.152,1.152,0,0,1,.114.02c8.125,1.178,13.37,8.185,13.37,17.884C2326.738,316.613,2316.748,322.717,2307.089,322.717Zm-8.106-5.568a1.03,1.03,0,0,1,.133.154c1.553,2.2,4.086,3.224,7.974,3.224,8.582,0,17.458-5.285,17.458-14.128,0-8.58-4.546-14.754-11.582-15.728-.029,0-.057-.009-.084-.015a219.626,219.626,0,0,0-54.719,0l-.083.015c-7.036.974-11.582,7.148-11.582,15.728,0,8.844,8.876,14.128,17.458,14.128,3.888,0,6.422-1.024,7.973-3.223a1.108,1.108,0,0,1,.136-.158c3.585-5.4,6.563-8.006,13.428-8.194h.06C2292.418,309.139,2295.4,311.746,2298.983,317.149Z" transform="translate(-2242.706 -284.864)" fill="#c4a345"/>
          </g>
          <g id="Grupo_957385" data-name="Grupo 957385" transform="translate(2099.795 314.174)">
            <g id="Grupo_957384" data-name="Grupo 957384" transform="translate(0 0)">
              <path id="Trazado_721992" data-name="Trazado 721992" d="M2169.263,451.145c1.725-2.588,40.133-8.753,42.549-8.408s.529,7.228,3.587,11.97,4.8,14.677,5.484,21.094,6.3,23.152,8.772,27.877,10.132,21.231,10.927,23.871c0,0,6.2-13.191,9.937-21.512s9.177-25.314,10.8-31.081-1.418-11.089-1.341-13.7,2.882-17.841,5.47-19.048,45.52,9.8,47.763,12.9,5.922,24.5,4.062,45.669c-1.813,20.628-.385,41.186,0,57.737.378,16.262,2.625,37.713,3.6,54.022s8.134,97.133,9.74,111.716-37.165,20.175-53.423,19.4-36.567-6.994-36.567-6.994-32.718,8.148-53.119,8.533-43.294-.48-45.609-10.724,16.357-181.026,16.357-181.026,1.5-23.571,2.234-48.95C2161.254,477.936,2167.537,453.733,2169.263,451.145Z" transform="translate(-2141.694 -442.112)" fill="#eac759"/>
              <path id="Trazado_721993" data-name="Trazado 721993" d="M2167.759,676.867c-.577,5.257-1.325,10.261-1.443,15.869l78.566,2.629c-.371-5.281.14-10.9-1.483-15.911C2208.313,678.389,2187.1,677.378,2167.759,676.867Z" transform="translate(-2152.882 -548.789)" fill="#e4edf4"/>
              <path id="Trazado_721994" data-name="Trazado 721994" d="M2398.009,684.987c-21.263-.662-41.629-1.894-80.763-3.085a88.568,88.568,0,0,1,1.377,15.9l80.54,2.918C2398.993,695.622,2398.137,690.174,2398.009,684.987Z" transform="translate(-2221.468 -551.077)" fill="#e4edf4"/>
              <path id="Trazado_721995" data-name="Trazado 721995" d="M2160.18,764.087a70.567,70.567,0,0,0-1.155,15.881l85,2.639a139.962,139.962,0,0,0,1.139-15.828C2209.852,765.7,2181.256,764.657,2160.18,764.087Z" transform="translate(-2149.537 -588.423)" fill="#e4edf4"/>
              <path id="Trazado_721996" data-name="Trazado 721996" d="M2403.673,772.267c-19.467-.606-40.81-1.821-80.2-3.022-.252,5-1.081,10.6-.946,15.829l82.3,2.922C2404.7,782.5,2403.8,777.142,2403.673,772.267Z" transform="translate(-2223.861 -590.767)" fill="#e4edf4"/>
              <path id="Trazado_721997" data-name="Trazado 721997" d="M2322.458,738.435a.669.669,0,0,1-.668-.644c-.031-.8-3.03-80.3-3.377-90.44-.231-6.745.233-14.712.644-21.743.221-3.793.43-7.376.523-10.537.151-5.141-.69-11.946-1.666-19.826-1.307-10.563-2.789-22.535-2.208-33.724.843-16.211,3.177-21.559,5.881-27.75.533-1.222,1.085-2.484,1.632-3.858a121.12,121.12,0,0,1,5.931-12.219c1.74-3.268,3.539-6.647,5.211-10.374,4.19-9.336,8.458-24.218,9.272-27.107,1.1-3.9.228-10-.348-14.036a31.3,31.3,0,0,1-.446-4.14,37.184,37.184,0,0,1,1.015-5.393c.838-3.685,1.882-8.271,1.8-11.411a.669.669,0,1,1,1.337-.035c.086,3.308-.978,7.985-1.833,11.743a38.185,38.185,0,0,0-.982,5.136,31.944,31.944,0,0,0,.433,3.912c.592,4.148,1.485,10.416.31,14.588-.817,2.9-5.11,17.87-9.338,27.292-1.691,3.768-3.5,7.168-5.251,10.456a120.2,120.2,0,0,0-5.869,12.085c-.556,1.4-1.112,2.668-1.649,3.9-2.651,6.072-4.941,11.317-5.771,27.285-.575,11.071.9,22.982,2.2,33.49.982,7.934,1.83,14.786,1.676,20.03-.094,3.18-.3,6.772-.526,10.575-.408,7-.871,14.936-.642,21.619.348,10.14,3.347,89.634,3.377,90.436a.669.669,0,0,1-.643.694Z" transform="translate(-2220.709 -443.217)" fill="#c4a345"/>
              <path id="Trazado_721998" data-name="Trazado 721998" d="M2292.366,737.8a.67.67,0,0,1-.669-.651c-.023-.815-2.28-81.588-2.216-91.082.018-2.671.326-6.179.684-10.241.928-10.534,2.2-24.96-.565-37.578-3.806-17.387-3.2-42.024-1.816-49.809a75.288,75.288,0,0,1,4.408-14.5c-1.147-3.243-10.068-21.733-12.587-26.538-2.489-4.748-8.154-21.624-8.845-28.117-.768-7.215-2.586-16.468-5.381-20.8-3.122-4.842-3.445-13.433-3.457-13.8a.669.669,0,0,1,1.337-.045c0,.085.323,8.587,3.244,13.116,3.678,5.7,5.206,17.811,5.587,21.386.679,6.377,6.251,22.966,8.7,27.638s11.941,24.286,12.757,27a.669.669,0,0,1-.028.461,74.14,74.14,0,0,0-4.418,14.436c-1.365,7.7-1.964,32.07,1.806,49.29,2.806,12.817,1.525,27.362.59,37.982-.355,4.033-.662,7.516-.679,10.133-.064,9.471,2.192,90.221,2.215,91.036a.669.669,0,0,1-.65.687Z" transform="translate(-2196.327 -442.966)" fill="#c4a345"/>
            </g>
          </g>
        </g>
      </g>
      <g id="Grupo_957100" data-name="Grupo 957100" transform="translate(-981 -13020)">
        <circle id="Elipse_5486" data-name="Elipse 5486" cx="52.5" cy="52.5" r="52.5" transform="translate(1125 4562)" fill="url(#linear-gradient)"/>
        <g id="botas" transform="translate(1130.534 4586)">
          <path id="Trazado_722074" data-name="Trazado 722074" d="M88.713,221.219H85.13l1.048-5.3a1.152,1.152,0,0,0-2.066-.888L77.5,224.2a1.342,1.342,0,0,0,1.12,2.118H82.2l-1.048,5.3a1.152,1.152,0,0,0,2.066.888l6.614-9.164a1.342,1.342,0,0,0-1.121-2.118Zm-5.487,8.444.794-4.016a.828.828,0,0,0-.812-.988h-4l4.9-6.788-.794,4.016a.828.828,0,0,0,.812.988h4Z" transform="translate(-49.623 -190.875)" fill="#fff"/>
          <path id="Trazado_722075" data-name="Trazado 722075" d="M64.423,35.318A15.276,15.276,0,0,1,54.929,28.7a3.3,3.3,0,0,0-1.9-4.437,14.857,14.857,0,0,1-.389-2.414,3.3,3.3,0,0,0-.045-5.092V12.785a3.3,3.3,0,0,0,0-5.129V3.5A3.5,3.5,0,0,0,47.505.388L42.038,3.181A3.971,3.971,0,0,0,36.464.9L26.549,5.963a8.842,8.842,0,0,0-4.8,8.724A118.347,118.347,0,0,0,23.9,28.249a15.524,15.524,0,0,1-.358,7.849C21.188,43.666,21.45,47.559,21.5,48.073v3.152A5.281,5.281,0,0,0,26.774,56.5h1.989a5.137,5.137,0,0,0,3.618-1.62,1.744,1.744,0,0,1,2.3,0A5.154,5.154,0,0,0,38.3,56.5h1.849a5.158,5.158,0,0,0,3.618-1.62,1.743,1.743,0,0,1,2.3,0,4.85,4.85,0,0,0,7.236,0,1.742,1.742,0,0,1,2.3,0l.511.449a4.707,4.707,0,0,0,6.214,0l.51-.448a1.744,1.744,0,0,1,2.3,0l1.108.974a2.593,2.593,0,0,0,1.713.646,5.279,5.279,0,0,0,5.273-5.273c-.187-1.85.92-8.293-3.135-12.711a10.974,10.974,0,0,0-5.663-3.2ZM52.434,28.935l-2.619.881a1.65,1.65,0,0,1-1.052-3.129c2.833-.95,2.869-1.029,3.4-.943a1.651,1.651,0,0,1,.269,3.192Zm-1.926-7.963H47.751a1.65,1.65,0,1,1,0-3.3c2.892.012,3.039-.081,3.558.208a1.65,1.65,0,0,1-.8,3.093Zm-2.758-9.1a1.65,1.65,0,1,1,0-3.3h2.758a1.65,1.65,0,0,1,.8,3.093C50.819,11.934,50.659,11.867,47.751,11.87Zm.507-10.009A1.841,1.841,0,0,1,50.936,3.5V6.942c-.3-.039-.33-.028-3.186-.028a3.306,3.306,0,0,0,0,6.612c2.829,0,2.86.015,3.186-.028v2.546c-.358-.047-.414-.02-3.186-.028a3.306,3.306,0,0,0,0,6.611c2.236-.029,2.729.048,3.293-.044q.089.775.25,1.539c-.465.088-.814.258-3.059.994a3.306,3.306,0,0,0,2.106,6.267c2.734-.922,2.953-.939,3.5-1.331a16.449,16.449,0,0,0,1.7,2.082l-4.756,2.78a3.661,3.661,0,0,1-4.975-1.265,25.193,25.193,0,0,1-3.57-12.941c0-.456,0-14.857,0-15.772ZM25.123,36.589a17.181,17.181,0,0,0,.4-8.688c-.47-2.187-1.122-5.492-1.622-9.073L28.71,16.37a.828.828,0,1,0-.753-1.474l-4.288,2.19c-.107-.877-.2-1.731-.274-2.551a7.2,7.2,0,0,1,3.907-7.1l9.915-5.065a2.312,2.312,0,0,1,3.364,2.059V8.448c-10.327,5.282-9.749,4.963-9.873,5.062a.828.828,0,0,0,.816,1.418c.074-.029-.508.263,9.057-4.621v10.4A26.849,26.849,0,0,0,44.386,34.5a5.323,5.323,0,0,0,5.247,2.522c1.38-.18,1.655-.492,7.164-3.707A17.62,17.62,0,0,0,61,35.933l-1.22,2.149A4.979,4.979,0,0,1,55.462,40.6h-3.91a6.675,6.675,0,0,0-4.685,1.94L42.2,47.2H23.114a38.433,38.433,0,0,1,2.008-10.615Zm35.8,12.27H71.566v2.367a3.622,3.622,0,0,1-3.618,3.618.938.938,0,0,1-.62-.234l-1.108-.974a3.4,3.4,0,0,0-4.484,0,3.243,3.243,0,0,1-5.05,0,3.4,3.4,0,0,0-4.482,0,3.243,3.243,0,0,1-5.05,0,3.4,3.4,0,0,0-4.483,0,3.623,3.623,0,0,1-2.525,1.208H38.3a3.617,3.617,0,0,1-2.525-1.208,3.4,3.4,0,0,0-4.484,0,3.621,3.621,0,0,1-2.525,1.208H26.774a3.623,3.623,0,0,1-3.619-3.619V48.86H57.614a.828.828,0,0,0,0-1.655H44.544l3.494-3.5a5.008,5.008,0,0,1,3.515-1.455h3.91A6.637,6.637,0,0,0,61.224,38.9l1.348-2.375c.485.157.982.293,1.482.408,5.009,1.144,7.288,5.118,7.5,10.273H60.925a.827.827,0,1,0,0,1.655Z" transform="translate(0 0)" fill="#fff"/>
        </g>
      </g>
    </g>
  </g>
</svg>
