<svg xmlns="http://www.w3.org/2000/svg" width="404.75" height="210.086" viewBox="0 0 404.75 210.086">
  <g id="Grupo_958058" data-name="Grupo 958058" transform="translate(-524.849 -2103.404)">
    <path id="Trazado_31569" data-name="Trazado 31569" d="M54.051,217.7c0,2.082.043,4.146.138,6.211H.1q-.1-3.1-.1-6.211a199.967,199.967,0,0,1,25.086-97.28l47.333,26.117A146.193,146.193,0,0,0,54.051,217.7" transform="translate(526.349 2088.079)" fill="#307f27" stroke="#fff" stroke-width="3"/>
    <path id="Trazado_31570" data-name="Trazado 31570" d="M133.83,77.762a147.555,147.555,0,0,0-57.338,57.319L29.16,108.964A201.85,201.85,0,0,1,94.5,38.43Z" transform="translate(522.275 2099.535)" fill="#449b25" stroke="#fff" stroke-width="3"/>
    <path id="Trazado_31571" data-name="Trazado 31571" d="M215.561,0V54.051a146.22,146.22,0,0,0-71.119,18.341L105.11,33.06A199.969,199.969,0,0,1,215.561,0" transform="translate(511.663 2104.904)" fill="#ffbc1c" stroke="#fff" stroke-width="3"/>
    <path id="Trazado_31572" data-name="Trazado 31572" d="M420.84,108.964l-47.333,26.117A147.555,147.555,0,0,0,316.17,77.762L355.493,38.43a201.88,201.88,0,0,1,65.347,70.534" transform="translate(482.173 2099.535)" fill="#bd2110" stroke="#fff" stroke-width="3"/>
    <path id="Trazado_31573" data-name="Trazado 31573" d="M455.238,217.7q0,3.11-.1,6.211H401.049c.095-2.066.138-4.129.138-6.211a146.193,146.193,0,0,0-18.367-71.163l47.332-26.117a199.967,199.967,0,0,1,25.086,97.28" transform="translate(472.861 2088.079)" fill="#871e21" stroke="#fff" stroke-width="3"/>
    <path id="Trazado_31574" data-name="Trazado 31574" d="M343.943,33.06,304.619,72.392A146.22,146.22,0,0,0,233.5,54.051V0A199.962,199.962,0,0,1,343.943,33.06" transform="translate(493.724 2104.904)" fill="#f38232" stroke="#fff" stroke-width="3"/>
    <path id="Trazado_31575" data-name="Trazado 31575" d="M245.393,190.979A13.476,13.476,0,1,1,226.149,178.8L231.3,78.756l6.255,99.982a13.471,13.471,0,0,1,7.836,12.242" transform="translate(695.887 1981.387) rotate(45)" fill="#871e21"/>
    <path id="Trazado_31576" data-name="Trazado 31576" d="M120.235,204.612c0-.08,0-.161,0-.24,0-53.74,44.221-97.961,97.96-97.961s97.96,44.221,97.96,97.961" transform="translate(509.55 2090.037)" fill="none" stroke="#d9000d" stroke-miterlimit="10" stroke-width="2"/>
    <line id="Línea_1" data-name="Línea 1" y2="12.926" transform="translate(727.744 2196.072)" fill="none" stroke="#d9000d" stroke-miterlimit="10" stroke-width="2"/>
    <line id="Línea_2" data-name="Línea 2" x2="9.14" y2="9.14" transform="translate(653.348 2230.938)" fill="none" stroke="#d9000d" stroke-miterlimit="10" stroke-width="2"/>
    <line id="Línea_3" data-name="Línea 3" x1="9.14" y2="9.14" transform="translate(792.625 2230.938)" fill="none" stroke="#d9000d" stroke-miterlimit="10" stroke-width="2"/>
    <rect id="Rectángulo_3167" data-name="Rectángulo 3167" width="401.75" height="207.086" transform="translate(526.349 2104.904)" fill="none"/>
    <text id="DB" transform="translate(728.755 2238)" fill="red" font-size="25" font-family="SegoeUI-Bold, Segoe UI" font-weight="700"><tspan x="-17.23" y="0">DB</tspan></text>
  </g>
</svg>
