<svg xmlns="http://www.w3.org/2000/svg" width="474" height="154" viewBox="0 0 474 154">
  <g id="Grupo_959089" data-name="Grupo 959089" transform="translate(-915 -2100)">
    <rect id="Rectángulo_4679" data-name="Rectángulo 4679" width="474" height="154" rx="14" transform="translate(915 2100)" fill="#fffffd"/>
    <g id="Grupo_958062" data-name="Grupo 958062" transform="translate(-5 6)">
      <path id="Trazado_725279" data-name="Trazado 725279" d="M8.728-10.292H4.28V-7.2H8.367v2.3H4.28V0H1.441V-12.6H8.728ZM17.481,0H14.854V-1.292h-.035A2.933,2.933,0,0,1,12.138.22a2.8,2.8,0,0,1-2.061-.743A2.661,2.661,0,0,1,9.325-2.5q0-2.619,3.1-3.023l2.443-.325q0-1.477-1.6-1.477a5.46,5.46,0,0,0-3.059.958V-8.464A6.881,6.881,0,0,1,11.8-8.991a8.339,8.339,0,0,1,1.833-.229q3.85,0,3.85,3.841Zm-2.61-3.656v-.606l-1.635.211q-1.354.176-1.354,1.222a1.01,1.01,0,0,0,.33.778,1.266,1.266,0,0,0,.892.3,1.644,1.644,0,0,0,1.274-.541A1.952,1.952,0,0,0,14.871-3.656ZM26.5-.325A5.492,5.492,0,0,1,23.783.22a4.593,4.593,0,0,1-3.357-1.257A4.341,4.341,0,0,1,19.143-4.28,4.782,4.782,0,0,1,20.518-7.9,5.083,5.083,0,0,1,24.2-9.22a4.72,4.72,0,0,1,2.3.422v2.355a3.166,3.166,0,0,0-1.942-.65,2.559,2.559,0,0,0-1.894.7,2.607,2.607,0,0,0-.7,1.929,2.565,2.565,0,0,0,.668,1.876,2.455,2.455,0,0,0,1.837.681,3.666,3.666,0,0,0,2.03-.65Zm7.26.22A4.105,4.105,0,0,1,31.9.22q-2.936,0-2.936-3.05V-6.952H27.51V-9h1.459v-1.942l2.769-.791V-9h2.021v2.048H31.737v3.639q0,1.406,1.116,1.406a1.882,1.882,0,0,0,.905-.255ZM39.542.22A4.838,4.838,0,0,1,36-1.042a4.573,4.573,0,0,1-1.288-3.423,4.573,4.573,0,0,1,1.336-3.494A5.048,5.048,0,0,1,39.665-9.22a4.78,4.78,0,0,1,3.516,1.261,4.483,4.483,0,0,1,1.274,3.335,4.759,4.759,0,0,1-1.314,3.542A4.892,4.892,0,0,1,39.542.22Zm.07-7.312a1.852,1.852,0,0,0-1.529.677A2.984,2.984,0,0,0,37.538-4.5q0,2.593,2.092,2.593,2,0,2-2.663Q41.625-7.093,39.612-7.093Zm12.516.6a2.409,2.409,0,0,0-1.169-.272,1.684,1.684,0,0,0-1.415.664,2.9,2.9,0,0,0-.51,1.806V0H46.257V-9h2.777v1.67h.035a2.4,2.4,0,0,1,2.373-1.828,1.788,1.788,0,0,1,.686.105ZM67.192,0H64.415V-1.239H64.38A3.114,3.114,0,0,1,61.594.22,3.412,3.412,0,0,1,58.878-.971,4.93,4.93,0,0,1,57.85-4.3a5.366,5.366,0,0,1,1.134-3.577A3.7,3.7,0,0,1,61.954-9.22,2.527,2.527,0,0,1,64.38-7.972h.035v-5.353h2.777ZM64.468-4.377v-.677a2.13,2.13,0,0,0-.51-1.459,1.683,1.683,0,0,0-1.327-.58,1.673,1.673,0,0,0-1.441.725,3.367,3.367,0,0,0-.519,1.991,2.914,2.914,0,0,0,.5,1.828,1.663,1.663,0,0,0,1.389.642,1.67,1.67,0,0,0,1.375-.677A2.821,2.821,0,0,0,64.468-4.377Zm13.148.668H71.745q.141,1.96,2.47,1.96a4.822,4.822,0,0,0,2.61-.7v2A6.858,6.858,0,0,1,73.582.22,4.565,4.565,0,0,1,70.2-.989a4.566,4.566,0,0,1-1.2-3.371,4.816,4.816,0,0,1,1.3-3.551,4.334,4.334,0,0,1,3.2-1.31A3.933,3.933,0,0,1,76.54-8.051a4.5,4.5,0,0,1,1.077,3.173ZM75.041-5.414q0-1.934-1.564-1.934a1.494,1.494,0,0,0-1.156.554,2.513,2.513,0,0,0-.593,1.38Zm18.5,4.966a8.311,8.311,0,0,1-3.6.668,6.074,6.074,0,0,1-4.562-1.705,6.233,6.233,0,0,1-1.661-4.544,6.659,6.659,0,0,1,1.868-4.9,6.533,6.533,0,0,1,4.847-1.881,9.065,9.065,0,0,1,3.111.466v2.733a5.513,5.513,0,0,0-2.883-.756,3.824,3.824,0,0,0-2.865,1.116A4.142,4.142,0,0,0,86.7-6.231a4.062,4.062,0,0,0,1.028,2.914A3.633,3.633,0,0,0,90.5-2.232a5.905,5.905,0,0,0,3.041-.809ZM99.756.22a4.838,4.838,0,0,1-3.538-1.261,4.573,4.573,0,0,1-1.288-3.423,4.573,4.573,0,0,1,1.336-3.494A5.048,5.048,0,0,1,99.879-9.22a4.78,4.78,0,0,1,3.516,1.261,4.483,4.483,0,0,1,1.274,3.335,4.759,4.759,0,0,1-1.314,3.542A4.892,4.892,0,0,1,99.756.22Zm.07-7.312a1.852,1.852,0,0,0-1.529.677A2.984,2.984,0,0,0,97.752-4.5q0,2.593,2.092,2.593,2,0,2-2.663Q101.839-7.093,99.826-7.093ZM115.163,0h-2.769V-5q0-2.092-1.494-2.092a1.483,1.483,0,0,0-1.187.554,2.109,2.109,0,0,0-.466,1.406V0h-2.777V-9h2.777v1.424h.035a3.183,3.183,0,0,1,2.892-1.644q2.988,0,2.988,3.709ZM125.93-9l-3.349,9h-3.164l-3.19-9H119.2l1.564,5.546a8.1,8.1,0,0,1,.308,1.6h.035A9.078,9.078,0,0,1,121.43-3.4l1.6-5.6Zm9.1,5.291h-5.871q.141,1.96,2.47,1.96a4.822,4.822,0,0,0,2.61-.7v2a6.858,6.858,0,0,1-3.243.668,4.565,4.565,0,0,1-3.384-1.208,4.566,4.566,0,0,1-1.2-3.371,4.816,4.816,0,0,1,1.3-3.551,4.334,4.334,0,0,1,3.2-1.31,3.933,3.933,0,0,1,3.045,1.169,4.5,4.5,0,0,1,1.077,3.173Zm-2.575-1.705q0-1.934-1.564-1.934a1.494,1.494,0,0,0-1.156.554,2.513,2.513,0,0,0-.593,1.38ZM142.55-6.5a2.409,2.409,0,0,0-1.169-.272,1.684,1.684,0,0,0-1.415.664,2.9,2.9,0,0,0-.51,1.806V0h-2.777V-9h2.777v1.67h.035a2.4,2.4,0,0,1,2.373-1.828,1.788,1.788,0,0,1,.686.105Zm.809,6.258v-2.25a5.913,5.913,0,0,0,1.367.615,4.531,4.531,0,0,0,1.288.2,2.762,2.762,0,0,0,1.165-.2.653.653,0,0,0,.426-.615.569.569,0,0,0-.193-.439,1.8,1.8,0,0,0-.5-.308,5.635,5.635,0,0,0-.664-.237q-.36-.105-.694-.237a6.653,6.653,0,0,1-.945-.435,2.731,2.731,0,0,1-.686-.541A2.125,2.125,0,0,1,143.5-5.4a2.841,2.841,0,0,1-.145-.958,2.466,2.466,0,0,1,.33-1.3,2.692,2.692,0,0,1,.879-.892,4.016,4.016,0,0,1,1.257-.51A6.553,6.553,0,0,1,147.3-9.22a8.168,8.168,0,0,1,1.213.092,9.053,9.053,0,0,1,1.213.268v2.145a4.383,4.383,0,0,0-1.129-.461,4.764,4.764,0,0,0-1.182-.154,2.619,2.619,0,0,0-.514.048,1.693,1.693,0,0,0-.426.141.783.783,0,0,0-.29.237.546.546,0,0,0-.105.33.609.609,0,0,0,.158.422,1.374,1.374,0,0,0,.413.3,4.078,4.078,0,0,0,.567.229q.312.1.62.207a8.056,8.056,0,0,1,1,.422,3.2,3.2,0,0,1,.769.536,2.105,2.105,0,0,1,.492.721,2.562,2.562,0,0,1,.171.984,2.568,2.568,0,0,1-.347,1.367A2.78,2.78,0,0,1,149-.461a4.185,4.185,0,0,1-1.327.519,7.357,7.357,0,0,1-1.56.163A8.042,8.042,0,0,1,143.358-.237Zm9.914-10.187a1.622,1.622,0,0,1-1.151-.417,1.345,1.345,0,0,1-.448-1.024,1.3,1.3,0,0,1,.448-1.02,1.676,1.676,0,0,1,1.151-.4,1.672,1.672,0,0,1,1.156.4,1.3,1.3,0,0,1,.444,1.02,1.34,1.34,0,0,1-.444,1.037A1.65,1.65,0,0,1,153.272-10.424ZM154.644,0h-2.777V-9h2.777Zm6.627.22a4.838,4.838,0,0,1-3.538-1.261,4.573,4.573,0,0,1-1.288-3.423,4.573,4.573,0,0,1,1.336-3.494,5.048,5.048,0,0,1,3.612-1.261,4.78,4.78,0,0,1,3.516,1.261,4.483,4.483,0,0,1,1.274,3.335,4.759,4.759,0,0,1-1.314,3.542A4.892,4.892,0,0,1,161.271.22Zm.07-7.312a1.852,1.852,0,0,0-1.529.677,2.984,2.984,0,0,0-.545,1.916q0,2.593,2.092,2.593,2,0,2-2.663Q163.354-7.093,161.341-7.093Zm2.979-6.17-2.751,2.839h-2l2.285-2.839ZM176.669,0H173.9V-5q0-2.092-1.494-2.092a1.483,1.483,0,0,0-1.187.554,2.109,2.109,0,0,0-.466,1.406V0h-2.777V-9h2.777v1.424h.035a3.183,3.183,0,0,1,2.892-1.644q2.988,0,2.988,3.709Zm10.274-4.342V0H184.1V-12.6h4.447q4.764,0,4.764,4.017a3.854,3.854,0,0,1-1.367,3.072A5.414,5.414,0,0,1,188.3-4.342Zm0-6.082V-6.5h1.116q2.268,0,2.268-1.986,0-1.942-2.268-1.942ZM201.929,0H199.3V-1.292h-.035A2.933,2.933,0,0,1,196.585.22a2.8,2.8,0,0,1-2.061-.743,2.661,2.661,0,0,1-.751-1.982q0-2.619,3.1-3.023l2.443-.325q0-1.477-1.6-1.477a5.46,5.46,0,0,0-3.059.958V-8.464a6.881,6.881,0,0,1,1.586-.527,8.339,8.339,0,0,1,1.833-.229q3.85,0,3.85,3.841Zm-2.61-3.656v-.606l-1.635.211q-1.354.176-1.354,1.222a1.01,1.01,0,0,0,.33.778,1.266,1.266,0,0,0,.892.3,1.644,1.644,0,0,0,1.274-.541A1.952,1.952,0,0,0,199.318-3.656ZM216.58,0h-2.628V-1.292h-.035A2.933,2.933,0,0,1,211.236.22a2.8,2.8,0,0,1-2.061-.743,2.661,2.661,0,0,1-.751-1.982q0-2.619,3.1-3.023l2.443-.325q0-1.477-1.6-1.477a5.46,5.46,0,0,0-3.059.958V-8.464a6.881,6.881,0,0,1,1.586-.527,8.339,8.339,0,0,1,1.833-.229q3.85,0,3.85,3.841Zm-2.61-3.656v-.606l-1.635.211q-1.354.176-1.354,1.222a1.01,1.01,0,0,0,.33.778,1.266,1.266,0,0,0,.892.3,1.644,1.644,0,0,0,1.274-.541A1.952,1.952,0,0,0,213.97-3.656ZM232.55,0h-2.777V-1.239h-.035A3.114,3.114,0,0,1,226.951.22a3.412,3.412,0,0,1-2.716-1.191A4.93,4.93,0,0,1,223.207-4.3a5.366,5.366,0,0,1,1.134-3.577,3.7,3.7,0,0,1,2.971-1.345,2.527,2.527,0,0,1,2.426,1.248h.035v-5.353h2.777Zm-2.725-4.377v-.677a2.13,2.13,0,0,0-.51-1.459,1.683,1.683,0,0,0-1.327-.58,1.673,1.673,0,0,0-1.441.725,3.367,3.367,0,0,0-.519,1.991,2.914,2.914,0,0,0,.5,1.828,1.663,1.663,0,0,0,1.389.642,1.67,1.67,0,0,0,1.375-.677A2.821,2.821,0,0,0,229.825-4.377ZM235.16,0V-12.6h4.588a5.729,5.729,0,0,1,3.243.773,2.488,2.488,0,0,1,1.134,2.18,2.58,2.58,0,0,1-.69,1.784A3.625,3.625,0,0,1,241.673-6.8v.035a3.493,3.493,0,0,1,2.149.993,2.778,2.778,0,0,1,.8,2.013,3.364,3.364,0,0,1-1.239,2.747A5.186,5.186,0,0,1,240,0ZM238-10.512v2.988h1.248a2.08,2.08,0,0,0,1.384-.426,1.453,1.453,0,0,0,.505-1.173q0-1.389-2.074-1.389Zm0,5.1v3.322h1.538a2.367,2.367,0,0,0,1.542-.457,1.527,1.527,0,0,0,.558-1.248,1.425,1.425,0,0,0-.549-1.187,2.43,2.43,0,0,0-1.534-.431ZM247.667.22A1.62,1.62,0,0,1,246.524-.2a1.356,1.356,0,0,1-.457-1.037,1.306,1.306,0,0,1,.47-1.037,1.736,1.736,0,0,1,1.173-.4,1.671,1.671,0,0,1,1.165.409,1.331,1.331,0,0,1,.453,1.033,1.339,1.339,0,0,1-.461,1.05A1.742,1.742,0,0,1,247.667.22ZM0,2H250.137V3H0Z" transform="translate(938 2138)" fill="#00223d"/>
      <path id="Trazado_725280" data-name="Trazado 725280" d="M7.313,6.115V19H4.544V9.244A3.315,3.315,0,0,1,4,9.626a5.58,5.58,0,0,1-.664.325,5.925,5.925,0,0,1-.729.246,5.328,5.328,0,0,1-.747.145V8A11.549,11.549,0,0,0,3.9,7.2,11.6,11.6,0,0,0,5.634,6.115Zm14.5,15.75H19.547a11.026,11.026,0,0,1-2.839-7.69A11.731,11.731,0,0,1,19.547,6.4H21.8a12.632,12.632,0,0,0-2.663,7.778A12.216,12.216,0,0,0,21.814,21.865Zm4.43-7.207V19H23.405V6.4h4.447q4.764,0,4.764,4.017a3.854,3.854,0,0,1-1.367,3.072A5.414,5.414,0,0,1,27.6,14.658Zm0-6.082V12.5H27.36q2.268,0,2.268-1.986,0-1.942-2.268-1.942ZM41.229,19H38.6V17.708h-.035a2.933,2.933,0,0,1-2.681,1.512,2.8,2.8,0,0,1-2.061-.743,2.661,2.661,0,0,1-.751-1.982q0-2.619,3.1-3.023l2.443-.325q0-1.477-1.6-1.477a5.46,5.46,0,0,0-3.059.958V10.536a6.881,6.881,0,0,1,1.586-.527A8.339,8.339,0,0,1,37.38,9.78q3.85,0,3.85,3.841Zm-2.61-3.656v-.606l-1.635.211q-1.354.176-1.354,1.222a1.01,1.01,0,0,0,.33.778,1.266,1.266,0,0,0,.892.3,1.644,1.644,0,0,0,1.274-.541A1.952,1.952,0,0,0,38.619,15.344Zm6.047,6.521h-2.25a12.144,12.144,0,0,0,2.689-7.69A12.6,12.6,0,0,0,42.416,6.4h2.268a11.731,11.731,0,0,1,2.848,7.778A11.047,11.047,0,0,1,44.666,21.865Zm19.5-9.4H55.907V11.3h8.262Zm0,3.744H55.907v-1.16h8.262Zm15.768-4.263a12.554,12.554,0,0,1-.343,3.081,6.872,6.872,0,0,1-1,2.285,4.435,4.435,0,0,1-1.608,1.424,4.663,4.663,0,0,1-2.162.488,5.179,5.179,0,0,1-2.2-.439V17.4a4.479,4.479,0,0,0,2.232.589,3.242,3.242,0,0,0,1.525-.352,3.158,3.158,0,0,0,1.138-1.024,5.027,5.027,0,0,0,.712-1.657,9.354,9.354,0,0,0,.246-2.259h-.035a2.879,2.879,0,0,1-2.812,1.626,3.782,3.782,0,0,1-1.485-.286,3.4,3.4,0,0,1-1.169-.809,3.7,3.7,0,0,1-.765-1.244,4.466,4.466,0,0,1-.272-1.591,4.634,4.634,0,0,1,.3-1.705,3.974,3.974,0,0,1,.844-1.332,3.775,3.775,0,0,1,1.283-.866,4.2,4.2,0,0,1,1.622-.308,3.59,3.59,0,0,1,1.683.382,3.373,3.373,0,0,1,1.235,1.116,5.515,5.515,0,0,1,.765,1.806A10.312,10.312,0,0,1,79.937,11.942ZM78.381,10.65a4.388,4.388,0,0,0-.189-1.327A3.213,3.213,0,0,0,77.669,8.3a2.346,2.346,0,0,0-.8-.659,2.2,2.2,0,0,0-1.006-.233,2.282,2.282,0,0,0-.967.207,2.324,2.324,0,0,0-.778.58,2.77,2.77,0,0,0-.519.888,3.225,3.225,0,0,0-.189,1.121,3.686,3.686,0,0,0,.18,1.2,2.5,2.5,0,0,0,.514.892,2.22,2.22,0,0,0,.8.558,2.714,2.714,0,0,0,1.042.193,2.387,2.387,0,0,0,.945-.189,2.5,2.5,0,0,0,.773-.51,2.349,2.349,0,0,0,.519-.756A2.324,2.324,0,0,0,78.381,10.65Zm10.811,4.781a3.674,3.674,0,0,1-.321,1.551,3.425,3.425,0,0,1-.905,1.2,4.178,4.178,0,0,1-1.4.769,5.67,5.67,0,0,1-1.8.272,5.236,5.236,0,0,1-2.865-.686V16.987a4.592,4.592,0,0,0,2.918,1,3.965,3.965,0,0,0,1.191-.167,2.67,2.67,0,0,0,.914-.483,2.147,2.147,0,0,0,.589-.765,2.388,2.388,0,0,0,.207-1.011q0-2.47-3.516-2.47H83.153V11.872h.993q3.111,0,3.111-2.32,0-2.145-2.373-2.145a4.041,4.041,0,0,0-2.5.9v-1.4a5.476,5.476,0,0,1,2.865-.721,4.4,4.4,0,0,1,1.433.22,3.283,3.283,0,0,1,1.1.615,2.726,2.726,0,0,1,.708.949,2.93,2.93,0,0,1,.25,1.222,3.076,3.076,0,0,1-2.514,3.2v.035a3.976,3.976,0,0,1,1.187.312,3.166,3.166,0,0,1,.94.628,2.8,2.8,0,0,1,.62.91A2.9,2.9,0,0,1,89.191,15.432Zm3.287,3.762a.933.933,0,0,1-.69-.29.955.955,0,0,1-.286-.694.969.969,0,0,1,.286-.7.926.926,0,0,1,.69-.294.95.95,0,0,1,.7.294.962.962,0,0,1,.29.7.947.947,0,0,1-.29.694A.958.958,0,0,1,92.479,19.193Zm10.767-7.251a12.554,12.554,0,0,1-.343,3.081,6.872,6.872,0,0,1-1,2.285,4.435,4.435,0,0,1-1.608,1.424,4.663,4.663,0,0,1-2.162.488,5.179,5.179,0,0,1-2.2-.439V17.4a4.479,4.479,0,0,0,2.232.589,3.242,3.242,0,0,0,1.525-.352,3.158,3.158,0,0,0,1.138-1.024,5.027,5.027,0,0,0,.712-1.657,9.354,9.354,0,0,0,.246-2.259h-.035a2.879,2.879,0,0,1-2.812,1.626,3.782,3.782,0,0,1-1.485-.286,3.4,3.4,0,0,1-1.169-.809,3.7,3.7,0,0,1-.765-1.244,4.466,4.466,0,0,1-.272-1.591,4.634,4.634,0,0,1,.3-1.705,3.974,3.974,0,0,1,.844-1.332,3.775,3.775,0,0,1,1.283-.866A4.2,4.2,0,0,1,99.3,6.186a3.59,3.59,0,0,1,1.683.382,3.373,3.373,0,0,1,1.235,1.116,5.515,5.515,0,0,1,.765,1.806A10.312,10.312,0,0,1,103.245,11.942Zm-1.556-1.292a4.388,4.388,0,0,0-.189-1.327,3.213,3.213,0,0,0-.523-1.024,2.346,2.346,0,0,0-.8-.659,2.2,2.2,0,0,0-1.006-.233,2.282,2.282,0,0,0-.967.207,2.324,2.324,0,0,0-.778.58,2.77,2.77,0,0,0-.519.888,3.225,3.225,0,0,0-.189,1.121,3.686,3.686,0,0,0,.18,1.2,2.5,2.5,0,0,0,.514.892,2.22,2.22,0,0,0,.8.558,2.714,2.714,0,0,0,1.042.193,2.387,2.387,0,0,0,.945-.189,2.5,2.5,0,0,0,.773-.51,2.349,2.349,0,0,0,.519-.756A2.324,2.324,0,0,0,101.689,10.65ZM113,7.231q-.29.5-.7,1.248t-.866,1.679q-.457.932-.932,2t-.888,2.215q-.413,1.143-.725,2.316A17.229,17.229,0,0,0,108.439,19h-1.547a17.526,17.526,0,0,1,.488-2.3q.33-1.173.747-2.3t.883-2.175q.466-1.046.905-1.925t.8-1.551q.365-.672.584-1.05h-6.319V6.4H113Zm9.65,4.711a12.554,12.554,0,0,1-.343,3.081,6.872,6.872,0,0,1-1,2.285,4.435,4.435,0,0,1-1.608,1.424,4.663,4.663,0,0,1-2.162.488,5.179,5.179,0,0,1-2.2-.439V17.4a4.479,4.479,0,0,0,2.232.589,3.242,3.242,0,0,0,1.525-.352,3.158,3.158,0,0,0,1.138-1.024,5.027,5.027,0,0,0,.712-1.657,9.354,9.354,0,0,0,.246-2.259h-.035a2.879,2.879,0,0,1-2.812,1.626,3.782,3.782,0,0,1-1.485-.286,3.4,3.4,0,0,1-1.169-.809,3.7,3.7,0,0,1-.765-1.244,4.466,4.466,0,0,1-.272-1.591,4.634,4.634,0,0,1,.3-1.705,3.974,3.974,0,0,1,.844-1.332,3.775,3.775,0,0,1,1.283-.866,4.2,4.2,0,0,1,1.622-.308,3.59,3.59,0,0,1,1.683.382,3.373,3.373,0,0,1,1.235,1.116,5.515,5.515,0,0,1,.765,1.806A10.312,10.312,0,0,1,122.651,11.942ZM121.1,10.65a4.388,4.388,0,0,0-.189-1.327,3.213,3.213,0,0,0-.523-1.024,2.346,2.346,0,0,0-.8-.659,2.2,2.2,0,0,0-1.006-.233,2.282,2.282,0,0,0-.967.207,2.324,2.324,0,0,0-.778.58,2.77,2.77,0,0,0-.519.888,3.225,3.225,0,0,0-.189,1.121,3.686,3.686,0,0,0,.18,1.2,2.5,2.5,0,0,0,.514.892,2.22,2.22,0,0,0,.8.558,2.714,2.714,0,0,0,1.042.193,2.387,2.387,0,0,0,.945-.189,2.5,2.5,0,0,0,.773-.51,2.349,2.349,0,0,0,.519-.756A2.324,2.324,0,0,0,121.1,10.65Zm13.86,11.215h-2.268a11.026,11.026,0,0,1-2.839-7.69A11.731,11.731,0,0,1,132.688,6.4h2.25a12.632,12.632,0,0,0-2.663,7.778A12.216,12.216,0,0,0,134.956,21.865ZM145.081,19H142.3V17.761h-.035a3.114,3.114,0,0,1-2.786,1.459,3.412,3.412,0,0,1-2.716-1.191,4.93,4.93,0,0,1-1.028-3.327,5.366,5.366,0,0,1,1.134-3.577,3.7,3.7,0,0,1,2.971-1.345,2.527,2.527,0,0,1,2.426,1.248h.035V5.676h2.777Zm-2.725-4.377v-.677a2.13,2.13,0,0,0-.51-1.459,1.8,1.8,0,0,0-2.769.145,3.367,3.367,0,0,0-.519,1.991,2.914,2.914,0,0,0,.5,1.828,1.779,1.779,0,0,0,2.764-.035A2.821,2.821,0,0,0,142.356,14.623ZM147.691,19V6.4h4.588a5.729,5.729,0,0,1,3.243.773,2.488,2.488,0,0,1,1.134,2.18,2.58,2.58,0,0,1-.69,1.784A3.625,3.625,0,0,1,154.2,12.2v.035a3.493,3.493,0,0,1,2.149.993,2.778,2.778,0,0,1,.8,2.013,3.364,3.364,0,0,1-1.239,2.747A5.186,5.186,0,0,1,152.534,19ZM150.53,8.488v2.988h1.248a2.08,2.08,0,0,0,1.384-.426,1.453,1.453,0,0,0,.505-1.173q0-1.389-2.074-1.389Zm0,5.1v3.322h1.538a2.367,2.367,0,0,0,1.542-.457,1.527,1.527,0,0,0,.558-1.248,1.425,1.425,0,0,0-.549-1.187,2.43,2.43,0,0,0-1.534-.431Zm9.668,8.279h-2.25a12.144,12.144,0,0,0,2.689-7.69A12.6,12.6,0,0,0,157.948,6.4h2.268a11.731,11.731,0,0,1,2.848,7.778A11.047,11.047,0,0,1,160.2,21.865Z" transform="translate(961 2164)" fill="#00223d"/>
      <path id="Trazado_725281" data-name="Trazado 725281" d="M7.313,6.115V19H4.544V9.244A3.315,3.315,0,0,1,4,9.626a5.58,5.58,0,0,1-.664.325,5.925,5.925,0,0,1-.729.246,5.328,5.328,0,0,1-.747.145V8A11.549,11.549,0,0,0,3.9,7.2,11.6,11.6,0,0,0,5.634,6.115Zm14.5,15.75H19.547a11.026,11.026,0,0,1-2.839-7.69A11.731,11.731,0,0,1,19.547,6.4H21.8a12.632,12.632,0,0,0-2.663,7.778A12.216,12.216,0,0,0,21.814,21.865ZM31.939,19H29.162V17.761h-.035a3.114,3.114,0,0,1-2.786,1.459,3.412,3.412,0,0,1-2.716-1.191A4.93,4.93,0,0,1,22.6,14.7a5.366,5.366,0,0,1,1.134-3.577A3.7,3.7,0,0,1,26.7,9.78a2.527,2.527,0,0,1,2.426,1.248h.035V5.676h2.777Zm-2.725-4.377v-.677a2.13,2.13,0,0,0-.51-1.459,1.8,1.8,0,0,0-2.769.145,3.367,3.367,0,0,0-.519,1.991,2.914,2.914,0,0,0,.5,1.828,1.779,1.779,0,0,0,2.764-.035A2.821,2.821,0,0,0,29.215,14.623ZM34.55,19V6.4h4.588a5.729,5.729,0,0,1,3.243.773,2.488,2.488,0,0,1,1.134,2.18,2.58,2.58,0,0,1-.69,1.784A3.625,3.625,0,0,1,41.063,12.2v.035a3.493,3.493,0,0,1,2.149.993,2.778,2.778,0,0,1,.8,2.013,3.364,3.364,0,0,1-1.239,2.747A5.186,5.186,0,0,1,39.393,19ZM37.389,8.488v2.988h1.248a2.08,2.08,0,0,0,1.384-.426,1.453,1.453,0,0,0,.505-1.173q0-1.389-2.074-1.389Zm0,5.1v3.322h1.538a2.367,2.367,0,0,0,1.542-.457,1.527,1.527,0,0,0,.558-1.248,1.425,1.425,0,0,0-.549-1.187,2.43,2.43,0,0,0-1.534-.431Zm9.668,8.279h-2.25a12.144,12.144,0,0,0,2.689-7.69A12.6,12.6,0,0,0,44.807,6.4h2.268a11.731,11.731,0,0,1,2.848,7.778A11.047,11.047,0,0,1,47.057,21.865Zm19.5-9.4H58.3V11.3H66.56Zm0,3.744H58.3v-1.16H66.56Zm15.908-3.56a12.381,12.381,0,0,1-.286,2.8,6.533,6.533,0,0,1-.826,2.061,3.718,3.718,0,0,1-1.327,1.274,3.633,3.633,0,0,1-1.789.435,3.393,3.393,0,0,1-1.692-.417A3.546,3.546,0,0,1,75.3,17.585a6.17,6.17,0,0,1-.773-1.964,12.146,12.146,0,0,1-.264-2.667,13.749,13.749,0,0,1,.277-2.918,6.674,6.674,0,0,1,.813-2.123A3.619,3.619,0,0,1,76.68,6.621,3.739,3.739,0,0,1,78.5,6.186Q82.468,6.186,82.468,12.646Zm-1.477.141q0-5.379-2.558-5.379-2.7,0-2.7,5.476,0,5.106,2.646,5.106Q80.991,17.989,80.991,12.786Zm4.175,6.407a.933.933,0,0,1-.69-.29.955.955,0,0,1-.286-.694.969.969,0,0,1,.286-.7.926.926,0,0,1,.69-.294.95.95,0,0,1,.7.294.962.962,0,0,1,.29.7.947.947,0,0,1-.29.694A.958.958,0,0,1,85.166,19.193Zm10.907-6.548a12.381,12.381,0,0,1-.286,2.8,6.533,6.533,0,0,1-.826,2.061,3.718,3.718,0,0,1-1.327,1.274,3.633,3.633,0,0,1-1.789.435,3.393,3.393,0,0,1-1.692-.417A3.546,3.546,0,0,1,88.9,17.585a6.17,6.17,0,0,1-.773-1.964,12.146,12.146,0,0,1-.264-2.667,13.749,13.749,0,0,1,.277-2.918,6.674,6.674,0,0,1,.813-2.123,3.619,3.619,0,0,1,1.332-1.292,3.739,3.739,0,0,1,1.824-.435Q96.073,6.186,96.073,12.646Zm-1.477.141q0-5.379-2.558-5.379-2.7,0-2.7,5.476,0,5.106,2.646,5.106Q94.6,17.989,94.6,12.786Zm11.18-.141a12.381,12.381,0,0,1-.286,2.8,6.533,6.533,0,0,1-.826,2.061,3.718,3.718,0,0,1-1.327,1.274,3.633,3.633,0,0,1-1.789.435,3.393,3.393,0,0,1-1.692-.417A3.546,3.546,0,0,1,98.6,17.585a6.17,6.17,0,0,1-.773-1.964,12.146,12.146,0,0,1-.264-2.667,13.749,13.749,0,0,1,.277-2.918,6.674,6.674,0,0,1,.813-2.123,3.619,3.619,0,0,1,1.332-1.292,3.739,3.739,0,0,1,1.824-.435Q105.776,6.186,105.776,12.646Zm-1.477.141q0-5.379-2.558-5.379-2.7,0-2.7,5.476,0,5.106,2.646,5.106Q104.3,17.989,104.3,12.786Zm11.18-.141a12.381,12.381,0,0,1-.286,2.8,6.533,6.533,0,0,1-.826,2.061,3.718,3.718,0,0,1-1.327,1.274,3.633,3.633,0,0,1-1.789.435,3.393,3.393,0,0,1-1.692-.417,3.546,3.546,0,0,1-1.252-1.217,6.17,6.17,0,0,1-.773-1.964,12.146,12.146,0,0,1-.264-2.667,13.749,13.749,0,0,1,.277-2.918,6.674,6.674,0,0,1,.813-2.123,3.619,3.619,0,0,1,1.332-1.292,3.739,3.739,0,0,1,1.824-.435Q115.479,6.186,115.479,12.646ZM114,12.786q0-5.379-2.558-5.379-2.7,0-2.7,5.476,0,5.106,2.646,5.106Q114,17.989,114,12.786Zm11.18-.141a12.381,12.381,0,0,1-.286,2.8,6.533,6.533,0,0,1-.826,2.061,3.718,3.718,0,0,1-1.327,1.274,3.633,3.633,0,0,1-1.789.435,3.393,3.393,0,0,1-1.692-.417,3.546,3.546,0,0,1-1.252-1.217,6.17,6.17,0,0,1-.773-1.964,12.146,12.146,0,0,1-.264-2.667,13.749,13.749,0,0,1,.277-2.918,6.674,6.674,0,0,1,.813-2.123A3.619,3.619,0,0,1,119.4,6.621a3.739,3.739,0,0,1,1.824-.435Q125.183,6.186,125.183,12.646Zm-1.477.141q0-5.379-2.558-5.379-2.7,0-2.7,5.476,0,5.106,2.646,5.106Q123.706,17.989,123.706,12.786Zm9-3.085a2.606,2.606,0,0,0-.18-1.011A1.957,1.957,0,0,0,131.3,7.548a2.874,2.874,0,0,0-.914-.141,3.023,3.023,0,0,0-.826.114,4.016,4.016,0,0,0-.787.316,4.839,4.839,0,0,0-.738.483,5.333,5.333,0,0,0-.664.624V7.4a4.309,4.309,0,0,1,1.358-.9,4.781,4.781,0,0,1,1.833-.312,4.424,4.424,0,0,1,1.433.224,3.285,3.285,0,0,1,1.143.655,3.027,3.027,0,0,1,.76,1.063,3.587,3.587,0,0,1,.277,1.45A4.973,4.973,0,0,1,134,10.932a4.186,4.186,0,0,1-.519,1.143,5.513,5.513,0,0,1-.875,1.028,12.388,12.388,0,0,1-1.239,1q-.888.633-1.463,1.081a6.469,6.469,0,0,0-.914.839,2.436,2.436,0,0,0-.475.782,2.734,2.734,0,0,0-.136.9h6.275V19h-7.778v-.624a5.2,5.2,0,0,1,.176-1.424,3.7,3.7,0,0,1,.58-1.169,6.487,6.487,0,0,1,1.059-1.107q.655-.554,1.6-1.248a10.141,10.141,0,0,0,1.147-.94,4.889,4.889,0,0,0,.743-.9,3.22,3.22,0,0,0,.4-.91A3.922,3.922,0,0,0,132.706,9.7Zm9.7,0a2.606,2.606,0,0,0-.18-1.011A1.957,1.957,0,0,0,141,7.548a2.874,2.874,0,0,0-.914-.141,3.023,3.023,0,0,0-.826.114,4.016,4.016,0,0,0-.787.316,4.839,4.839,0,0,0-.738.483,5.333,5.333,0,0,0-.664.624V7.4a4.309,4.309,0,0,1,1.358-.9,4.781,4.781,0,0,1,1.833-.312,4.424,4.424,0,0,1,1.433.224,3.285,3.285,0,0,1,1.143.655,3.027,3.027,0,0,1,.76,1.063,3.587,3.587,0,0,1,.277,1.45,4.973,4.973,0,0,1-.171,1.354,4.186,4.186,0,0,1-.519,1.143,5.513,5.513,0,0,1-.875,1.028,12.388,12.388,0,0,1-1.239,1q-.888.633-1.463,1.081a6.469,6.469,0,0,0-.914.839,2.436,2.436,0,0,0-.475.782,2.734,2.734,0,0,0-.136.9h6.275V19h-7.778v-.624a5.2,5.2,0,0,1,.176-1.424,3.7,3.7,0,0,1,.58-1.169,6.487,6.487,0,0,1,1.059-1.107q.655-.554,1.6-1.248a10.141,10.141,0,0,0,1.147-.94,4.889,4.889,0,0,0,.743-.9,3.22,3.22,0,0,0,.4-.91A3.922,3.922,0,0,0,142.409,9.7ZM152.8,6.4V14.72h1.617v1.318H152.8V19h-1.424V16.038H145.45V14.79q.826-.932,1.67-1.991t1.613-2.149q.769-1.09,1.424-2.175a19.88,19.88,0,0,0,1.1-2.079Zm-5.722,8.323h4.3V8.55q-.659,1.151-1.248,2.057t-1.121,1.644q-.532.738-1.015,1.336T147.076,14.72ZM162.5,6.4V14.72h1.617v1.318H162.5V19h-1.424V16.038h-5.924V14.79q.826-.932,1.67-1.991t1.613-2.149q.769-1.09,1.424-2.175a19.88,19.88,0,0,0,1.1-2.079Zm-5.722,8.323h4.3V8.55q-.659,1.151-1.248,2.057t-1.121,1.644q-.532.738-1.015,1.336T156.779,14.72ZM173.7,12.646a12.381,12.381,0,0,1-.286,2.8,6.533,6.533,0,0,1-.826,2.061,3.718,3.718,0,0,1-1.327,1.274,3.633,3.633,0,0,1-1.789.435,3.393,3.393,0,0,1-1.692-.417,3.546,3.546,0,0,1-1.252-1.217,6.17,6.17,0,0,1-.773-1.964,12.146,12.146,0,0,1-.264-2.667,13.749,13.749,0,0,1,.277-2.918,6.674,6.674,0,0,1,.813-2.123,3.619,3.619,0,0,1,1.332-1.292,3.739,3.739,0,0,1,1.824-.435Q173.7,6.186,173.7,12.646Zm-1.477.141q0-5.379-2.558-5.379-2.7,0-2.7,5.476,0,5.106,2.646,5.106Q172.222,17.989,172.222,12.786Zm10.591,2.646a3.674,3.674,0,0,1-.321,1.551,3.425,3.425,0,0,1-.905,1.2,4.178,4.178,0,0,1-1.4.769,5.67,5.67,0,0,1-1.8.272,5.236,5.236,0,0,1-2.865-.686V16.987a4.592,4.592,0,0,0,2.918,1,3.965,3.965,0,0,0,1.191-.167,2.67,2.67,0,0,0,.914-.483,2.147,2.147,0,0,0,.589-.765,2.388,2.388,0,0,0,.207-1.011q0-2.47-3.516-2.47h-1.046V11.872h.993q3.111,0,3.111-2.32,0-2.145-2.373-2.145a4.041,4.041,0,0,0-2.5.9v-1.4a5.476,5.476,0,0,1,2.865-.721,4.4,4.4,0,0,1,1.433.22,3.283,3.283,0,0,1,1.1.615,2.726,2.726,0,0,1,.708.949,2.93,2.93,0,0,1,.25,1.222,3.076,3.076,0,0,1-2.514,3.2v.035a3.976,3.976,0,0,1,1.187.312,3.166,3.166,0,0,1,.94.628,2.8,2.8,0,0,1,.62.91A2.9,2.9,0,0,1,182.813,15.432Zm10.2-8.2q-.29.5-.7,1.248t-.866,1.679q-.457.932-.932,2t-.888,2.215q-.413,1.143-.725,2.316A17.229,17.229,0,0,0,188.455,19h-1.547a17.526,17.526,0,0,1,.488-2.3q.33-1.173.747-2.3t.883-2.175q.466-1.046.905-1.925t.8-1.551q.365-.672.584-1.05H185V6.4h8.016Zm7.321,14.634H198.07a11.026,11.026,0,0,1-2.839-7.69A11.731,11.731,0,0,1,198.07,6.4h2.25a12.632,12.632,0,0,0-2.663,7.778A12.216,12.216,0,0,0,200.338,21.865Zm4.43-7.207V19h-2.839V6.4h4.447q4.764,0,4.764,4.017a3.854,3.854,0,0,1-1.367,3.072,5.414,5.414,0,0,1-3.652,1.173Zm0-6.082V12.5h1.116q2.268,0,2.268-1.986,0-1.942-2.268-1.942ZM219.753,19h-2.628V17.708h-.035a2.933,2.933,0,0,1-2.681,1.512,2.8,2.8,0,0,1-2.061-.743A2.661,2.661,0,0,1,211.6,16.5q0-2.619,3.1-3.023l2.443-.325q0-1.477-1.6-1.477a5.46,5.46,0,0,0-3.059.958V10.536a6.881,6.881,0,0,1,1.586-.527A8.339,8.339,0,0,1,215.9,9.78q3.85,0,3.85,3.841Zm-2.61-3.656v-.606l-1.635.211q-1.354.176-1.354,1.222a1.01,1.01,0,0,0,.33.778,1.266,1.266,0,0,0,.892.3,1.644,1.644,0,0,0,1.274-.541A1.952,1.952,0,0,0,217.143,15.344Zm6.047,6.521h-2.25a12.144,12.144,0,0,0,2.689-7.69A12.6,12.6,0,0,0,220.939,6.4h2.268a11.731,11.731,0,0,1,2.848,7.778A11.047,11.047,0,0,1,223.189,21.865Zm19.5-9.4h-8.262V11.3h8.262Zm0,3.744h-8.262v-1.16h8.262Zm13.729-6.5a2.606,2.606,0,0,0-.18-1.011,1.957,1.957,0,0,0-1.226-1.143,2.874,2.874,0,0,0-.914-.141,3.023,3.023,0,0,0-.826.114,4.016,4.016,0,0,0-.787.316,4.839,4.839,0,0,0-.738.483,5.333,5.333,0,0,0-.664.624V7.4a4.309,4.309,0,0,1,1.358-.9,4.781,4.781,0,0,1,1.833-.312,4.424,4.424,0,0,1,1.433.224,3.285,3.285,0,0,1,1.143.655,3.027,3.027,0,0,1,.76,1.063,3.587,3.587,0,0,1,.277,1.45,4.973,4.973,0,0,1-.171,1.354,4.186,4.186,0,0,1-.519,1.143,5.513,5.513,0,0,1-.875,1.028,12.388,12.388,0,0,1-1.239,1q-.888.633-1.463,1.081a6.469,6.469,0,0,0-.914.839,2.436,2.436,0,0,0-.475.782,2.734,2.734,0,0,0-.136.9h6.275V19h-7.778v-.624a5.2,5.2,0,0,1,.176-1.424,3.7,3.7,0,0,1,.58-1.169,6.487,6.487,0,0,1,1.059-1.107q.655-.554,1.6-1.248a10.141,10.141,0,0,0,1.147-.94,4.889,4.889,0,0,0,.743-.9,3.22,3.22,0,0,0,.4-.91A3.922,3.922,0,0,0,256.421,9.7Zm5.7,7.295L260.71,21.32h-1.028L260.71,17Zm7.91-7.295a2.606,2.606,0,0,0-.18-1.011,1.957,1.957,0,0,0-1.226-1.143,2.874,2.874,0,0,0-.914-.141,3.023,3.023,0,0,0-.826.114,4.016,4.016,0,0,0-.787.316,4.839,4.839,0,0,0-.738.483,5.333,5.333,0,0,0-.664.624V7.4a4.309,4.309,0,0,1,1.358-.9,4.781,4.781,0,0,1,1.833-.312,4.424,4.424,0,0,1,1.433.224,3.285,3.285,0,0,1,1.143.655,3.027,3.027,0,0,1,.76,1.063,3.587,3.587,0,0,1,.277,1.45,4.973,4.973,0,0,1-.171,1.354,4.186,4.186,0,0,1-.519,1.143,5.513,5.513,0,0,1-.875,1.028,12.388,12.388,0,0,1-1.239,1q-.888.633-1.463,1.081a6.469,6.469,0,0,0-.914.839,2.436,2.436,0,0,0-.475.782,2.734,2.734,0,0,0-.136.9h6.275V19H264.2v-.624a5.2,5.2,0,0,1,.176-1.424,3.7,3.7,0,0,1,.58-1.169,6.487,6.487,0,0,1,1.059-1.107q.655-.554,1.6-1.248a10.141,10.141,0,0,0,1.147-.94,4.889,4.889,0,0,0,.743-.9,3.22,3.22,0,0,0,.4-.91A3.922,3.922,0,0,0,270.026,9.7Zm10.389-3.3V14.72h1.617v1.318h-1.617V19h-1.424V16.038h-5.924V14.79q.826-.932,1.67-1.991t1.613-2.149q.769-1.09,1.424-2.175a19.88,19.88,0,0,0,1.1-2.079Zm-5.722,8.323h4.3V8.55q-.659,1.151-1.248,2.057t-1.121,1.644q-.532.738-1.015,1.336T274.693,14.72ZM290.118,6.4V14.72h1.617v1.318h-1.617V19h-1.424V16.038h-5.924V14.79q.826-.932,1.67-1.991t1.613-2.149q.769-1.09,1.424-2.175a19.88,19.88,0,0,0,1.1-2.079ZM284.4,14.72h4.3V8.55q-.659,1.151-1.248,2.057t-1.121,1.644q-.532.738-1.015,1.336T284.4,14.72ZM302.7,19h-1.8L298,14.175a4.327,4.327,0,0,1-.29-.624h-.035q-.088.2-.3.624L294.39,19h-1.811l4.219-6.337L292.913,6.4h1.811l2.575,4.43a8.885,8.885,0,0,1,.448.879h.035a9.7,9.7,0,0,1,.492-.914L300.955,6.4h1.7l-3.964,6.249Zm6.627,0H307.89V8.11a3.336,3.336,0,0,1-.488.382,7.951,7.951,0,0,1-.721.426q-.4.211-.844.4a6.132,6.132,0,0,1-.866.29V8.146a8.379,8.379,0,0,0,1.006-.356q.532-.224,1.046-.5t.971-.58a7.71,7.71,0,0,0,.791-.593h.545Zm12.3-6.354a12.381,12.381,0,0,1-.286,2.8,6.533,6.533,0,0,1-.826,2.061,3.718,3.718,0,0,1-1.327,1.274,3.633,3.633,0,0,1-1.789.435,3.393,3.393,0,0,1-1.692-.417,3.546,3.546,0,0,1-1.252-1.217,6.17,6.17,0,0,1-.773-1.964,12.146,12.146,0,0,1-.264-2.667,13.749,13.749,0,0,1,.277-2.918,6.674,6.674,0,0,1,.813-2.123,3.619,3.619,0,0,1,1.332-1.292,3.739,3.739,0,0,1,1.824-.435Q321.636,6.186,321.636,12.646Zm-1.477.141q0-5.379-2.558-5.379-2.7,0-2.7,5.476,0,5.106,2.646,5.106Q320.159,17.989,320.159,12.786Zm8.628-2.38h-2.8V9.745h2.8Zm5.629.349a2.474,2.474,0,0,1-.185.974,2.13,2.13,0,0,1-.525.748,2.353,2.353,0,0,1-.823.482,3.218,3.218,0,0,1-1.071.169,2.96,2.96,0,0,1-1.523-.308v-.892a2.8,2.8,0,0,0,1.533.482,2.074,2.074,0,0,0,.72-.118,1.6,1.6,0,0,0,.546-.328,1.4,1.4,0,0,0,.346-.508,1.718,1.718,0,0,0,.12-.651,1.4,1.4,0,0,0-.482-1.125,2.113,2.113,0,0,0-1.4-.408q-.149,0-.313.005l-.328.013-.32.018q-.156.01-.285.026l.251-3.686h3.4v.759h-2.671l-.149,2.158q.164-.01.349-.018t.328-.008a3.3,3.3,0,0,1,1.046.154,2.216,2.216,0,0,1,.782.438,1.838,1.838,0,0,1,.487.7A2.452,2.452,0,0,1,334.417,10.755Zm25.677,11.111h-2.268a11.026,11.026,0,0,1-2.839-7.69A11.731,11.731,0,0,1,357.826,6.4h2.25a12.632,12.632,0,0,0-2.663,7.778A12.216,12.216,0,0,0,360.093,21.865Zm4.43-7.207V19h-2.839V6.4h4.447q4.764,0,4.764,4.017a3.854,3.854,0,0,1-1.367,3.072,5.414,5.414,0,0,1-3.652,1.173Zm0-6.082V12.5h1.116q2.268,0,2.268-1.986,0-1.942-2.268-1.942ZM379.508,19H376.88V17.708h-.035a2.933,2.933,0,0,1-2.681,1.512,2.8,2.8,0,0,1-2.061-.743,2.661,2.661,0,0,1-.751-1.982q0-2.619,3.1-3.023l2.443-.325q0-1.477-1.6-1.477a5.46,5.46,0,0,0-3.059.958V10.536a6.881,6.881,0,0,1,1.586-.527,8.339,8.339,0,0,1,1.833-.229q3.85,0,3.85,3.841Zm-2.61-3.656v-.606l-1.635.211q-1.354.176-1.354,1.222a1.01,1.01,0,0,0,.33.778,1.266,1.266,0,0,0,.892.3,1.644,1.644,0,0,0,1.274-.541A1.952,1.952,0,0,0,376.9,15.344Zm6.047,6.521h-2.25a12.144,12.144,0,0,0,2.689-7.69A12.6,12.6,0,0,0,380.695,6.4h2.268a11.731,11.731,0,0,1,2.848,7.778A11.047,11.047,0,0,1,382.945,21.865Z" transform="translate(961 2195)" fill="#00223d"/>
    </g>
  </g>
</svg>
