<svg xmlns="http://www.w3.org/2000/svg" xmlns:xlink="http://www.w3.org/1999/xlink" width="420" height="527" viewBox="0 0 420 527">
  <defs>
    <clipPath id="clip-path">
      <rect id="Rectángulo_340097" data-name="Rectángulo 340097" width="408" height="523" transform="translate(-51 -7252)" fill="#fff" stroke="#707070" stroke-width="1"/>
    </clipPath>
    <clipPath id="clip-path-3">
      <rect id="Rectángulo_340094" data-name="Rectángulo 340094" width="420" height="179" transform="translate(-54 -4957)" fill="#fff" stroke="#707070" stroke-width="1"/>
    </clipPath>
  </defs>
  <g id="Grupo_959080" data-name="Grupo 959080" transform="translate(130 7147)">
    <g id="Grupo_959076" data-name="Grupo 959076">
      <g id="Grupo_958533" data-name="Grupo 958533" transform="translate(-76 -1846)">
        <g id="Enmascarar_grupo_927235" data-name="Enmascarar grupo 927235" transform="translate(9 1951)" clip-path="url(#clip-path)">
          <g id="Grupo_958525" data-name="Grupo 958525" transform="translate(-3274.041 -7376.57)">
            <g id="Grupo_958511" data-name="Grupo 958511" transform="translate(3226.531 848.91)">
              <path id="Trazado_722972" data-name="Trazado 722972" d="M3274.457,1021.884s-4.024,14.489-2.1,21.129,10.652,44.522,4.858,46.345-11.14,5.024-15.86-18.166c0,0-7.138,2.552-6.51,7.914s11.9,11.193,12.89,14.8a5.072,5.072,0,0,1-5.264,6.339s9.757,5.15,3.862,10.99c0,0-1.744,2.207-6.872-.053,0,0,3.463,12.467-3.757,11.882s-25.9-18.42-27.16-24.28-1.432-24.433-.617-29.678,9.962-39.5,10.848-53.907Z" transform="translate(-3227.427 -1015.195)" fill="#e4edf4"/>
              <path id="Trazado_722973" data-name="Trazado 722973" d="M3238.289,1032.283l.816.261s18.351,5.859,34.437,1.543l.659.1a87.871,87.871,0,0,1,2.37-12.306l-35.684-6.689A142.435,142.435,0,0,1,3238.289,1032.283Z" transform="translate(-3229.54 -1015.195)" fill="#3a5870"/>
              <path id="Trazado_722974" data-name="Trazado 722974" d="M3270.267,1124.758c5.9-5.84-3.863-10.99-3.863-10.99a5.072,5.072,0,0,0,5.265-6.339c-.994-3.6-12.262-9.433-12.89-14.795s6.51-7.914,6.51-7.914c-17.159,4.108-18.733,27.7-17.162,33.382s14.507,17.631,14.507,17.631h0c3.059-2.747.76-11.028.76-11.028C3268.523,1126.965,3270.267,1124.758,3270.267,1124.758Z" transform="translate(-3231.363 -1028.723)" fill="#3a5870"/>
            </g>
            <g id="Grupo_958512" data-name="Grupo 958512" transform="translate(3592.593 849.426)">
              <path id="Trazado_722975" data-name="Trazado 722975" d="M3689.762,1020.7s3.281,14.674,1.023,21.209-12.9,43.922-7.212,46.037,10.87,5.585,16.764-17.335c0,0,7,2.913,6.1,8.235s-12.45,10.573-13.626,14.12a5.072,5.072,0,0,0,4.935,6.6s-10.007,4.646-4.417,10.779c0,0,1.629,2.293,6.865.3,0,0-4.093,12.274,3.148,12.058s26.805-17.078,28.361-22.865,2.675-24.329,2.127-29.608-7.937-39.956-8.089-54.389Z" transform="translate(-3681.919 -1015.836)" fill="#e4edf4"/>
              <path id="Trazado_722976" data-name="Trazado 722976" d="M3729.359,1033.034l-.828.218s-18.625,4.918-34.472-.212l-.663.069a87.8,87.8,0,0,0-1.74-12.41l35.978-4.864A142.354,142.354,0,0,0,3729.359,1033.034Z" transform="translate(-3683.814 -1015.836)" fill="#3a5870"/>
              <path id="Trazado_722977" data-name="Trazado 722977" d="M3695.674,1123.576c-5.59-6.132,4.417-10.779,4.417-10.779a5.072,5.072,0,0,1-4.935-6.6c1.176-3.547,12.726-8.8,13.626-14.12s-6.1-8.235-6.1-8.235c16.928,4.977,17.3,28.62,15.44,34.213s-15.386,16.869-15.386,16.869h0c-2.916-2.9-.2-11.052-.2-11.052C3697.3,1125.868,3695.674,1123.576,3695.674,1123.576Z" transform="translate(-3684.265 -1029.068)" fill="#3a5870"/>
            </g>
            <g id="Grupo_958513" data-name="Grupo 958513" transform="translate(3406.485 321.078)">
              <path id="Trazado_722978" data-name="Trazado 722978" d="M3450.852,359.852l3.275,64.66,9.394,74.478,53.946-8.857-3.758-65.219.891-37.866Z" transform="translate(-3450.852 -359.852)" fill="#f3aa8b"/>
            </g>
            <g id="Grupo_958515" data-name="Grupo 958515" transform="translate(3222.823 385.738)">
              <g id="Grupo_958514" data-name="Grupo 958514" transform="translate(0 0)">
                <path id="Trazado_722979" data-name="Trazado 722979" d="M3584.061,484.8c-16.621-21.735-65.277-33.183-65.277-33.183l-49.443-11.081s-1.14,26.11-30.379,25.383-29.2-25.785-29.2-25.785l-71.974,14.929c-.006,0-19.88,4.1-34.478,20.576s-25.866,48.5-30.716,72.209-8.671,43.906-12.933,75.443c-8.877,65.694-14.01,99.692-23.171,165.434-2.308,16.557-9.106,50.727-10.778,67.36-1.305,12.99-6.581,36.885,1.561,48.257,10.059,14.048,52.343,13.768,59.267-2.42,2.958-6.915,7.223-30.049,9.226-56.615,1.709-22.656,3.013-43.244,5.928-65.743,3.373-26.032,10.434-47.669,12.166-74.324-6.6,101.573-8,210.787-7.105,211.574,8.589,7.515,255.146.741,255.146.741s-6.049-225.541-6.059-225.9A153.577,153.577,0,0,0,3561,726.792c1.883,6.513.183,15.946,1.5,22.595,1.094,5.5,3.507,12.72,3.772,18.322.994,21.028,7.219,32.48,8.891,53.348,1.825,22.78,3.491,47.784,8.117,69.318,1.154,5.375,1.4,16.957,4.847,21.217,3.093,3.824,11.512,4.633,16.136,4.845,11.81.545,32.285-5.044,41.373-12.35a12.791,12.791,0,0,0,3.337-3.581c5.307-9.554-1.1-32.746-2.856-42.882-2.515-14.53-10.276-35.333-11.407-50.04-1.705-22.161-4.018-32.274-5.389-56.043-1.137-19.7-4.042-38.8-5.389-63.588-2.22-40.853-8.262-73.287-12.214-112.086C3608.067,539.967,3600.683,506.534,3584.061,484.8Z" transform="translate(-3222.823 -440.133)" fill="#d57e63"/>
              </g>
              <path id="Trazado_722980" data-name="Trazado 722980" d="M3276.016,733.4a34.031,34.031,0,0,0-14.628-26.266c-2.86,19.884-5.525,40.163-7.979,60.133A34.1,34.1,0,0,0,3276.016,733.4Z" transform="translate(-3228.774 -492.083)" fill="#b76751"/>
              <path id="Trazado_722981" data-name="Trazado 722981" d="M3698.11,742.532a34.029,34.029,0,0,0,19.509,22.876c-1.107-20.058-3.134-41.458-4.656-61.52C3700.373,711.432,3694.3,727.58,3698.11,742.532Z" transform="translate(-3315.081 -491.452)" fill="#b76751"/>
            </g>
            <g id="Grupo_958517" data-name="Grupo 958517" transform="translate(3374.386 189.152)">
              <path id="Trazado_722982" data-name="Trazado 722982" d="M3417.159,297.739s-11.391-71.131,7.594-77.46c0,0,1.664-14.324,20.251-19.744,36.451-10.632,51.975.66,62.018,3.29,10.632,2.785,21.2-1.148,27.591,4.557,7.088,6.328,9.113,42.78,8.1,54.424s-5.063,38.223-5.063,38.223Z" transform="translate(-3411.539 -196.057)" fill="#914837"/>
              <g id="Grupo_958516" data-name="Grupo 958516" transform="translate(0 19.912)">
                <path id="Trazado_722983" data-name="Trazado 722983" d="M3534.343,317.558c-2.592,41.931-35.124,58.736-55.22,58.574s-50.572-17.589-54.088-59.453c-5.33-63.449,12.118-95.9,55.265-95.9S3538.2,255.2,3534.343,317.558Z" transform="translate(-3413.55 -220.78)" fill="#f3aa8b"/>
                <path id="Trazado_722984" data-name="Trazado 722984" d="M3518.031,319.6c.029-3.562,1.846-6.436,4.058-6.418s3.983,2.921,3.954,6.483-1.845,6.436-4.058,6.418S3518,323.161,3518.031,319.6Z" transform="translate(-3431.825 -238.758)" fill="#3b2413"/>
                <path id="Trazado_722985" data-name="Trazado 722985" d="M3458.829,319.167c.029-3.563,1.845-6.437,4.058-6.419s3.983,2.921,3.954,6.483-1.845,6.437-4.058,6.419S3458.8,322.73,3458.829,319.167Z" transform="translate(-3420.306 -238.674)" fill="#3b2413"/>
                <path id="Trazado_722986" data-name="Trazado 722986" d="M3494.838,347.878a1.024,1.024,0,0,1-.457-.108l-5.134-2.556a1.028,1.028,0,0,1-.564-1.02l3.041-31.355a1.028,1.028,0,1,1,2.046.2l-2.972,30.65,4.5,2.241a1.029,1.029,0,0,1-.46,1.949Z" transform="translate(-3426.114 -238.511)" fill="#c48974"/>
                <path id="Trazado_722987" data-name="Trazado 722987" d="M3512.755,297.3c-.365,2.3,3.406,3.92,10.719,5.081s15.4,1.422,15.764-.875-7.289-5.272-14.6-6.435S3513.12,295,3512.755,297.3Z" transform="translate(-3430.794 -235.144)" fill="#914837"/>
                <path id="Trazado_722988" data-name="Trazado 722988" d="M3442.165,300.5c.462,2.279,9.381,1.487,16.639.018s10.1-3.057,9.643-5.337-3.854-3.386-11.112-1.917S3441.7,298.22,3442.165,300.5Z" transform="translate(-3417.06 -234.754)" fill="#914837"/>
                <path id="Trazado_722989" data-name="Trazado 722989" d="M3411.941,338.394c3.014,9.168,9.882,15.147,15.342,13.353s7.438-10.679,4.424-19.847-7.137-15.852-12.594-14.058S3408.926,329.225,3411.941,338.394Z" transform="translate(-3411 -239.608)" fill="#f3aa8b"/>
                <path id="Trazado_722990" data-name="Trazado 722990" d="M3568.306,338.394c-3.015,9.168-9.884,15.147-15.342,13.353s-7.44-10.679-4.425-19.847,7.137-15.852,12.6-14.058S3571.321,329.225,3568.306,338.394Z" transform="translate(-3437.487 -239.608)" fill="#f3aa8b"/>
              </g>
              <path id="Trazado_722991" data-name="Trazado 722991" d="M3490.767,373.4a22.984,22.984,0,0,1-9.74-2.3,1.028,1.028,0,1,1,.867-1.864c6.078,2.829,11.755,2.833,17.358.014a1.028,1.028,0,0,1,.925,1.836A20.722,20.722,0,0,1,3490.767,373.4Z" transform="translate(-3424.51 -229.734)" fill="#c48974"/>
              <path id="Trazado_722992" data-name="Trazado 722992" d="M3480.009,220.475c-40.522,0-59.351,21.945-57.283,77.254l3.139,11.985s5.881-56.974,25.773-61.629c12.638-2.958,20.073,2.218,29.738,1.972s21.132-4.975,30.232-2.712c12.887,3.2,19.082,25.391,19.082,62.369l4.137-11.155C3535.8,244.548,3520.276,220.475,3480.009,220.475Z" transform="translate(-3413.252 -200.808)" fill="#914837"/>
            </g>
            <g id="Grupo_958518" data-name="Grupo 958518" transform="translate(3360.911 160.57)">
              <path id="Trazado_722993" data-name="Trazado 722993" d="M3539.907,228.692a63.627,63.627,0,1,0-126.933,9.035l-18.705,24.732a917.658,917.658,0,0,0,167.656-11.934h0Z" transform="translate(-3394.269 -162.323)" fill="#eac759"/>
              <path id="Rectángulo_340085" data-name="Rectángulo 340085" d="M7.5,0H19.249a0,0,0,0,1,0,0V41.284a0,0,0,0,1,0,0H0a0,0,0,0,1,0,0V7.5A7.5,7.5,0,0,1,7.5,0Z" transform="translate(8.844 53.521) rotate(-4.071)" fill="#eac759"/>
              <path id="Rectángulo_340086" data-name="Rectángulo 340086" d="M0,0H11.745a7.5,7.5,0,0,1,7.5,7.5V41.284a0,0,0,0,1,0,0H0a0,0,0,0,1,0,0V0A0,0,0,0,1,0,0Z" transform="translate(133.192 44.669) rotate(-4.071)" fill="#eac759"/>
              <path id="Rectángulo_340087" data-name="Rectángulo 340087" d="M3.578,0h22.3a3.578,3.578,0,0,1,3.578,3.578v8.37a0,0,0,0,1,0,0H0a0,0,0,0,1,0,0V3.578A3.578,3.578,0,0,1,3.578,0Z" transform="translate(62.51 2.091) rotate(-4.072)" fill="#eac759"/>
              <path id="Trazado_722994" data-name="Trazado 722994" d="M3443.757,249.692a.852.852,0,0,1-.852-.83,34.256,34.256,0,0,1,2.851-14.674.826.826,0,0,1,.125-.287,34.443,34.443,0,0,1,5.064-8.1,59.279,59.279,0,0,0,9.69-15.351c4.151-10.067,6.271-24.44,5.4-36.616a.853.853,0,0,1,1.7-.121c.884,12.419-1.286,27.094-5.529,37.386a60.99,60.99,0,0,1-9.961,15.8,32.755,32.755,0,0,0-4.849,7.782l-.016.039a32.563,32.563,0,0,0-2.776,14.1.852.852,0,0,1-.829.876Zm86.039-6.13a.853.853,0,0,1-.846-.755,32.568,32.568,0,0,0-4.745-13.557l-.017-.03a32.732,32.732,0,0,0-5.907-7.023,60.956,60.956,0,0,1-12.1-14.226c-5.658-9.588-9.885-23.808-10.77-36.226a.853.853,0,0,1,1.7-.122c.867,12.176,5,26.1,10.537,35.482a59.324,59.324,0,0,0,11.767,13.823,34.435,34.435,0,0,1,6.2,7.366.95.95,0,0,1,.06.1,34.265,34.265,0,0,1,4.964,14.217.854.854,0,0,1-.749.946C3529.862,243.559,3529.829,243.561,3529.8,243.561Z" transform="translate(-3403.73 -162.567)" fill="#c4a345"/>
              <path id="Trazado_722995" data-name="Trazado 722995" d="M3465.593,189.288a.853.853,0,0,1-.85-.793l-.8-11.289a.853.853,0,0,1,1.7-.122l.8,11.29a.853.853,0,0,1-.79.911Z" transform="translate(-3407.824 -163.629)" fill="#c4a345"/>
              <path id="Trazado_722996" data-name="Trazado 722996" d="M3517.923,185.571a.853.853,0,0,1-.85-.793l-.8-11.253a.853.853,0,1,1,1.7-.121l.8,11.253a.854.854,0,0,1-.791.912Z" transform="translate(-3418.007 -162.913)" fill="#c4a345"/>
            </g>
            <path id="Trazado_722997" data-name="Trazado 722997" d="M3333.469,757.292a1.029,1.029,0,0,1-1-1.264l19.614-83.529a1.028,1.028,0,1,1,2,.47L3334.469,756.5A1.029,1.029,0,0,1,3333.469,757.292Z" transform="translate(-21.328 -99.452)" fill="#b76751"/>
            <g id="Grupo_958522" data-name="Grupo 958522" transform="translate(3288.852 395.655)">
              <g id="Grupo_958519" data-name="Grupo 958519">
                <path id="Trazado_722998" data-name="Trazado 722998" d="M3356.926,668.556,3326.111,808.1s-9.5,101.667-8.707,166c.757,61.309.379,103.667.614,165.021.147,38.68-6.616,76.078-7.364,114.442-.8,41.318,10.546,86.13,1.312,126.531-4.474,19.578-.929,42.133-.427,62.178.624,24.906,3.46,4.128-.461,28.538-4.126,25.688-6.91,53.118-6.152,79.137,15.04,3.809,36.33-1.756,52.221-1.754,24.671,0,56.68,2.715,56.68,2.715,7.761.657,1.264-75.174.905-82.744-1.482-31.3,2.632-15.749,6.668-46.72,6.167-47.317,14.318-96.37,14.318-144.173l9.438-127.176c1.536-20.7,2.277-41.642,4.623-62.265,1.092-9.6,9.619-24.3,8.326-33.227,3.462,23.9,10.078,46.96,10.916,70.944,1.367,39.123,3.417,78.308,9.215,117.061,3.467,23.171,8.277,46.239,8.994,69.657,1.413,46.1-.115,66.959,1.232,113.39.686,23.6.719,26.585,1.423,49.613.611,20-3.773,51.717,3.663,70.257,9.01,22.464,69.371,19.429,88.8,15.885,31.44-5.831,39.847-12.426,39.847-12.426-3.706-75.377-15.967-102.168-15.322-178.045.358-42.121-.827-78.119-4.707-150.776-2.76-51.677-3.835-102.759-2.964-154.118.794-46.859-5.129-108.625-5.129-108.625l-11.119-106.811-29.832-179.17a10.854,10.854,0,0,0-10.167-7.622l-175.393-3.156A10.853,10.853,0,0,0,3356.926,668.556Z" transform="translate(-3304.802 -492.957)" fill="#3a5870"/>
                <path id="Trazado_722999" data-name="Trazado 722999" d="M3399.861,454.012l20.438,166.97h-25.911l-26.364-161.535C3367.386,455.032,3399.3,449.762,3399.861,454.012Z" transform="translate(-3317.101 -452.445)" fill="#54809e"/>
                <path id="Trazado_723000" data-name="Trazado 723000" d="M3542.6,623.829l31.219-168.39c.569-4.241,27.744,5.873,27.128,10.278L3569,623.829Z" transform="translate(-3351.072 -452.83)" fill="#54809e"/>
                <path id="Trazado_723001" data-name="Trazado 723001" d="M3464.6,919.431c-47.437,0-113.242-7.084-139.332-10.13a.823.823,0,0,1,.191-1.636c26.061,3.042,91.791,10.118,139.141,10.118,54.228,0,93.118-3.823,118.892-11.688a.824.824,0,0,1,.482,1.575C3558.042,915.585,3518.994,919.431,3464.6,919.431Z" transform="translate(-3308.643 -540.705)" fill="#233a49"/>
                <path id="Trazado_723002" data-name="Trazado 723002" d="M3321.812,1095.269a.824.824,0,0,1-.416-1.536l82.488-48.084a27.627,27.627,0,0,0,10.357-21.628v-104.8a.823.823,0,1,1,1.647,0v104.8a29.267,29.267,0,0,1-11.021,22.952.885.885,0,0,1-.1.068l-82.542,48.116A.822.822,0,0,1,3321.812,1095.269Z" transform="translate(-3307.951 -543.106)" fill="#233a49"/>
                <path id="Trazado_723003" data-name="Trazado 723003" d="M3647.733,1074.175a.814.814,0,0,1-.316-.063l-55.029-22.856a.823.823,0,0,1-.176-.1,29.58,29.58,0,0,1-11.565-19.656l-12.572-112.184a.823.823,0,0,1,1.637-.184l12.571,112.167a27.914,27.914,0,0,0,10.833,18.476l54.934,22.816a.824.824,0,0,1-.317,1.585Z" transform="translate(-3356.026 -543.106)" fill="#233a49"/>
                <path id="Trazado_723004" data-name="Trazado 723004" d="M3555.227,879.153a.824.824,0,0,1-.824-.824V719.6H3394.044V878.329a.824.824,0,0,1-1.648,0V718.777a.824.824,0,0,1,.824-.824h162.007a.824.824,0,0,1,.824.824V878.329A.824.824,0,0,1,3555.227,879.153Z" transform="translate(-3321.846 -504.105)" fill="#233a49"/>
                <path id="Rectángulo_340088" data-name="Rectángulo 340088" d="M0,0H162.008a0,0,0,0,1,0,0V0a38.122,38.122,0,0,1-38.122,38.122H38.122A38.122,38.122,0,0,1,0,0V0A0,0,0,0,1,0,0Z" transform="translate(71.374 214.104)" fill="#2f495b"/>
                <path id="Trazado_723005" data-name="Trazado 723005" d="M3494.942,1106c-.024,0-.049,0-.075,0a.824.824,0,0,1-.747-.895c.023-.25,2.324-25.33,7.824-59.9,5.478-34.433-5.06-122.77-5.167-123.658a.824.824,0,1,1,1.637-.2c.106.89,10.671,89.457,5.157,124.114-5.491,34.518-7.787,59.544-7.81,59.793A.823.823,0,0,1,3494.942,1106Z" transform="translate(-3341.637 -543.537)" fill="#233a49"/>
                <path id="Trazado_723006" data-name="Trazado 723006" d="M3420.653,1699.538a.824.824,0,0,1-.822-.771c-.58-8.993,1.881-20.842,7.312-35.219a191.146,191.146,0,0,1,8.335-18.917.824.824,0,0,1,1.459.765c-.168.321-16.81,32.344-15.463,53.266a.823.823,0,0,1-.769.875C3420.688,1699.538,3420.67,1699.538,3420.653,1699.538Z" transform="translate(-3327.167 -684.323)" fill="#233a49"/>
                <path id="Trazado_723007" data-name="Trazado 723007" d="M3387.952,1530.576a.814.814,0,0,1-.353-.081.824.824,0,0,1-.39-1.1c.043-.089,4.278-8.962,10.794-19.563,6.026-9.807,15.3-23.148,25.238-31.018,9.7-7.678,16.486-21.228,20.474-31.243a147.286,147.286,0,0,0,6.414-20.189.824.824,0,0,1,1.609.355c-.334,1.514-8.4,37.27-27.474,52.368-18.695,14.8-35.4,49.647-35.566,50A.825.825,0,0,1,3387.952,1530.576Z" transform="translate(-3320.821 -642.014)" fill="#233a49"/>
                <path id="Trazado_723008" data-name="Trazado 723008" d="M3346.738,1456.078a.816.816,0,0,1-.49-.163,125.732,125.732,0,0,1-26.012-25.687,72.248,72.248,0,0,1-7.465-11.969.824.824,0,0,1,1.5-.677c.085.189,8.816,19.1,32.957,37.011a.824.824,0,0,1-.492,1.485Z" transform="translate(-3306.338 -640.138)" fill="#233a49"/>
                <path id="Trazado_723009" data-name="Trazado 723009" d="M3414.25,1270.18a.861.861,0,0,1-.09,0c-29.3-3.168-47.92-19.1-48.1-19.259a.824.824,0,1,1,1.081-1.244c.181.157,18.434,15.754,47.2,18.864a.824.824,0,0,1-.087,1.643Z" transform="translate(-3316.665 -607.523)" fill="#233a49"/>
                <path id="Trazado_723010" data-name="Trazado 723010" d="M3632.417,1284.505a.819.819,0,0,1-.473-.15l-42.549-29.948a.823.823,0,1,1,.948-1.347l42.549,29.947a.824.824,0,0,1-.475,1.5Z" transform="translate(-3360.108 -608.192)" fill="#233a49"/>
                <path id="Trazado_723011" data-name="Trazado 723011" d="M3580.135,1370.664a.824.824,0,0,1-.776-.549l-15.3-42.994-52.076-38.352a.824.824,0,1,1,.977-1.326l52.279,38.5a.818.818,0,0,1,.288.387l15.38,43.232a.823.823,0,0,1-.5,1.052A.813.813,0,0,1,3580.135,1370.664Z" transform="translate(-3345.049 -614.88)" fill="#233a49"/>
                <path id="Trazado_723012" data-name="Trazado 723012" d="M3648.665,1518.407h-.056a.824.824,0,0,1-.767-.878l4.349-64.184a.823.823,0,0,1,.224-.511c15.461-16.3,16.169-20.068,16.14-20.694a.824.824,0,0,1,.414-1.564,1.308,1.308,0,0,1,1.1.861c.354.9,1.423,3.645-16.257,22.315l-4.328,63.889A.824.824,0,0,1,3648.665,1518.407Zm20.191-86.189h0Z" transform="translate(-3371.547 -642.76)" fill="#233a49"/>
                <path id="Trazado_723013" data-name="Trazado 723013" d="M3568.977,1552.655a.831.831,0,0,1-.267-.044c-20.175-6.924-36.2-22.762-36.356-22.921a.824.824,0,0,1,.306-1.359l49.925-17.729a.824.824,0,1,1,.552,1.553l-48.662,17.28c3.707,3.447,17.746,15.775,34.769,21.618a.824.824,0,0,1-.267,1.6Z" transform="translate(-3349.03 -658.322)" fill="#233a49"/>
                <path id="Trazado_723014" data-name="Trazado 723014" d="M3657.282,1695.182a.824.824,0,0,1-.527-1.457c18.144-15.113,24.725-36.216,24.79-36.428a.824.824,0,0,1,1.576.479c-.065.216-6.776,21.776-25.312,37.215A.821.821,0,0,1,3657.282,1695.182Z" transform="translate(-3373.224 -686.76)" fill="#233a49"/>
                <path id="Trazado_723015" data-name="Trazado 723015" d="M3573.072,1717.854a.824.824,0,0,1-.721-.424c-12.675-22.832-36.933-38.475-37.176-38.631a.824.824,0,1,1,.886-1.389c.247.157,24.848,16.015,37.731,39.22a.824.824,0,0,1-.72,1.224Z" transform="translate(-3349.552 -690.762)" fill="#233a49"/>
                <path id="Trazado_723016" data-name="Trazado 723016" d="M3637.623,1741.407a.824.824,0,0,1-.07-1.645c35.109-3.05,45.2-19.407,45.292-19.571a.824.824,0,0,1,1.42.836c-.413.7-10.527,17.245-46.57,20.377A.72.72,0,0,1,3637.623,1741.407Z" transform="translate(-3369.399 -699.032)" fill="#233a49"/>
                <path id="Trazado_723017" data-name="Trazado 723017" d="M3549.063,1740.009a.817.817,0,0,1-.531-.2l-14.3-12.114a.824.824,0,1,1,1.065-1.257l14.3,12.114a.824.824,0,0,1-.532,1.452Z" transform="translate(-3349.385 -700.29)" fill="#233a49"/>
                <path id="Trazado_723018" data-name="Trazado 723018" d="M3612.622,1020.281a.824.824,0,0,1-.444-1.518c10.337-6.6,22.584-16.984,36.4-30.85a.824.824,0,1,1,1.167,1.163c-13.9,13.951-26.241,24.406-36.68,31.075A.819.819,0,0,1,3612.622,1020.281Z" transform="translate(-3364.535 -556.584)" fill="#233a49"/>
                <path id="Trazado_723019" data-name="Trazado 723019" d="M3652.729,1073.549a.823.823,0,0,1-.613-1.373c.083-.093,8.328-9.3,9.944-11.286a.824.824,0,1,1,1.278,1.04c-1.64,2.016-9.654,10.966-9.994,11.346A.82.82,0,0,1,3652.729,1073.549Z" transform="translate(-3372.339 -570.771)" fill="#233a49"/>
                <path id="Trazado_723020" data-name="Trazado 723020" d="M3361.33,997.095a.82.82,0,0,1-.478-.154l-32-22.855a.824.824,0,1,1,.958-1.34l32,22.855a.824.824,0,0,1-.479,1.494Z" transform="translate(-3309.415 -553.65)" fill="#233a49"/>
                <path id="Trazado_723021" data-name="Trazado 723021" d="M3374.924,1028.366a.831.831,0,0,1-.181-.02c-17.669-3.955-42.5-18.968-53.637-28.283a.824.824,0,0,1,1.057-1.264c11,9.208,35.525,24.04,52.94,27.939a.824.824,0,0,1-.179,1.629Z" transform="translate(-3307.917 -558.712)" fill="#233a49"/>
              </g>
              <g id="Grupo_958520" data-name="Grupo 958520" transform="translate(53.979 38.112)">
                <path id="Trazado_723022" data-name="Trazado 723022" d="M3402.944,537.727a4.6,4.6,0,0,1-4.62-3.957l-.573-4.082a4.6,4.6,0,0,1,3.354-5.075l2.1-.566a3.355,3.355,0,0,0,2.448-3.7l-1.25-8.917a2.941,2.941,0,0,0-3.321-2.5l-25.042,3.51a2.941,2.941,0,0,0-2.5,3.32l1.25,8.918a3.355,3.355,0,0,0,3.372,2.888l2.171-.033a4.6,4.6,0,0,1,4.621,3.958l.572,4.082a4.6,4.6,0,0,1-3.354,5.075l-2.1.566a3.354,3.354,0,0,0-2.448,3.7h0a2.941,2.941,0,0,0,3.32,2.5l25.042-3.51a2.941,2.941,0,0,0,2.5-3.321h0a3.355,3.355,0,0,0-3.372-2.888Z" transform="translate(-3372.149 -501.541)" fill="#3a5870"/>
                <path id="Trazado_723023" data-name="Trazado 723023" d="M3401.744,502.744l-28.123,3.941a1.385,1.385,0,0,1-1.564-1.179h0a1.386,1.386,0,0,1,1.18-1.564L3401.359,500a1.385,1.385,0,0,1,1.564,1.18h0A1.386,1.386,0,0,1,3401.744,502.744Z" transform="translate(-3371.865 -499.807)" fill="#3a5870"/>
                <path id="Rectángulo_340089" data-name="Rectángulo 340089" d="M1.309,0H17.716a1.309,1.309,0,0,1,1.309,1.309v.154a1.308,1.308,0,0,1-1.308,1.308H1.309A1.309,1.309,0,0,1,0,1.462V1.309A1.309,1.309,0,0,1,1.309,0Z" transform="translate(2.641 23.167) rotate(-97.978)" fill="#3a5870"/>
                <rect id="Rectángulo_340090" data-name="Rectángulo 340090" width="19.025" height="2.771" rx="1.309" transform="translate(30.763 19.225) rotate(-97.978)" fill="#3a5870"/>
                <path id="Trazado_723024" data-name="Trazado 723024" d="M3374.032,517.148a.522.522,0,0,1-.072-1.039l29.806-4.178a.523.523,0,0,1,.145,1.035l-29.805,4.177A.563.563,0,0,1,3374.032,517.148Z" transform="translate(-3372.15 -502.131)" fill="#233a49"/>
              </g>
              <g id="Grupo_958521" data-name="Grupo 958521" transform="translate(204.705 44.308)">
                <path id="Trazado_723025" data-name="Trazado 723025" d="M3564.545,545.423a4.6,4.6,0,0,0,4.637-3.938l.59-4.079a4.6,4.6,0,0,0-3.333-5.089l-2.094-.575a3.355,3.355,0,0,1-2.433-3.715l1.288-8.911a2.939,2.939,0,0,1,3.331-2.49l25.027,3.616a2.94,2.94,0,0,1,2.489,3.331l-1.287,8.911a3.354,3.354,0,0,1-3.385,2.874l-2.171-.041a4.6,4.6,0,0,0-4.637,3.938l-.589,4.08a4.6,4.6,0,0,0,3.333,5.089l2.094.575a3.354,3.354,0,0,1,2.432,3.714h0a2.941,2.941,0,0,1-3.332,2.49l-25.027-3.616a2.942,2.942,0,0,1-2.49-3.331h0a3.355,3.355,0,0,1,3.385-2.874Z" transform="translate(-3558.959 -509.235)" fill="#3a5870"/>
                <path id="Trazado_723026" data-name="Trazado 723026" d="M3566.92,510.442l28.106,4.061a1.384,1.384,0,0,0,1.568-1.173h0a1.384,1.384,0,0,0-1.173-1.57l-28.105-4.06a1.385,1.385,0,0,0-1.569,1.173h0A1.385,1.385,0,0,0,3566.92,510.442Z" transform="translate(-3560.277 -507.502)" fill="#3a5870"/>
                <path id="Rectángulo_340091" data-name="Rectángulo 340091" d="M1.309,0H17.717a1.308,1.308,0,0,1,1.308,1.308v.153a1.309,1.309,0,0,1-1.309,1.309H1.309A1.309,1.309,0,0,1,0,1.462V1.309A1.309,1.309,0,0,1,1.309,0Z" transform="translate(31.053 22.891) rotate(-81.779)" fill="#3a5870"/>
                <path id="Rectángulo_340092" data-name="Rectángulo 340092" d="M1.309,0H17.716a1.309,1.309,0,0,1,1.309,1.309v.153a1.308,1.308,0,0,1-1.308,1.308H1.308A1.308,1.308,0,0,1,0,1.462V1.309A1.309,1.309,0,0,1,1.309,0Z" transform="translate(2.948 18.83) rotate(-81.779)" fill="#3a5870"/>
                <path id="Trazado_723027" data-name="Trazado 723027" d="M3594.584,524.963a.467.467,0,0,1-.075-.006l-29.788-4.3a.523.523,0,1,1,.15-1.034l29.787,4.3a.522.522,0,0,1-.074,1.039Z" transform="translate(-3559.993 -509.823)" fill="#233a49"/>
              </g>
            </g>
            <g id="Grupo_958524" data-name="Grupo 958524" transform="translate(3297.087 387.332)">
              <g id="Grupo_958523" data-name="Grupo 958523">
                <path id="Trazado_723028" data-name="Trazado 723028" d="M3355.725,455.447c2.547-3.821,59.248-12.922,62.814-12.412s.781,10.671,5.3,17.671,7.087,21.668,8.1,31.14,9.294,34.179,12.95,41.154,14.958,31.342,16.13,35.24c0,0,9.157-19.473,14.669-31.757s13.547-37.37,15.944-45.884-2.093-16.37-1.98-20.23,4.254-26.338,8.075-28.121,67.2,14.461,70.511,19.045,8.743,36.167,6,67.42c-2.677,30.453-.569,60.8,0,85.236.558,24.007,3.875,55.674,5.312,79.751s12.008,143.395,14.378,164.924-54.865,29.783-78.867,28.647-53.983-10.325-53.983-10.325-48.3,12.029-78.417,12.6-63.915-.709-67.332-15.831,24.146-267.244,24.146-267.244,2.213-34.8,3.3-72.263C3343.9,495,3353.177,459.268,3355.725,455.447Z" transform="translate(-3315.027 -442.112)" fill="#eac759"/>
                <path id="Trazado_723029" data-name="Trazado 723029" d="M3341.779,676.867c-.853,7.761-1.957,15.149-2.131,23.427l115.985,3.881c-.549-7.8.207-16.1-2.19-23.49C3401.649,679.113,3370.335,677.622,3341.779,676.867Z" transform="translate(-3319.817 -487.788)" fill="#e4edf4"/>
                <path id="Trazado_723030" data-name="Trazado 723030" d="M3609.806,686.457c-31.391-.977-61.457-2.8-119.229-4.555a130.763,130.763,0,0,1,2.033,23.478l118.9,4.307C3611.259,702.156,3610,694.113,3609.806,686.457Z" transform="translate(-3349.184 -488.768)" fill="#e4edf4"/>
                <path id="Trazado_723031" data-name="Trazado 723031" d="M3334.1,764.087a104.154,104.154,0,0,0-1.7,23.445l125.479,3.9a206.667,206.667,0,0,0,1.682-23.367C3407.426,766.473,3365.21,764.928,3334.1,764.087Z" transform="translate(-3318.385 -504.759)" fill="#e4edf4"/>
                <path id="Trazado_723032" data-name="Trazado 723032" d="M3615.661,773.706c-28.739-.894-60.248-2.689-118.4-4.462-.373,7.386-1.6,15.649-1.4,23.369l121.5,4.314C3617.176,788.809,3615.852,780.9,3615.661,773.706Z" transform="translate(-3350.209 -505.762)" fill="#e4edf4"/>
                <path id="Trazado_723033" data-name="Trazado 723033" d="M3499.068,878.408a.987.987,0,0,1-.986-.951c-.045-1.183-4.473-118.542-4.987-133.514-.341-9.957.346-21.719.951-32.1.327-5.6.635-10.889.773-15.555.224-7.589-1.02-17.636-2.46-29.268-1.93-15.594-4.117-33.268-3.259-49.786,1.244-23.932,4.69-31.827,8.681-40.967.788-1.8,1.6-3.667,2.41-5.7a178.837,178.837,0,0,1,8.755-18.039c2.569-4.825,5.225-9.813,7.693-15.315,6.186-13.783,12.487-35.753,13.688-40.018,1.622-5.757.337-14.762-.513-20.721a46.291,46.291,0,0,1-.658-6.112,54.921,54.921,0,0,1,1.5-7.962c1.237-5.44,2.778-12.21,2.657-16.846a.987.987,0,1,1,1.974-.052c.127,4.884-1.442,11.788-2.705,17.336a56.234,56.234,0,0,0-1.45,7.581,47,47,0,0,0,.639,5.776c.873,6.123,2.193,15.376.459,21.536-1.208,4.287-7.545,26.381-13.787,40.291-2.5,5.563-5.168,10.582-7.752,15.435a177.482,177.482,0,0,0-8.664,17.841c-.821,2.059-1.641,3.939-2.434,5.756-3.914,8.964-7.294,16.706-8.519,40.28-.849,16.344,1.327,33.927,3.247,49.44,1.45,11.713,2.7,21.829,2.474,29.57-.138,4.694-.448,10-.776,15.612-.6,10.335-1.286,22.05-.948,31.915.514,14.97,4.941,132.325,4.986,133.508a.989.989,0,0,1-.951,1.024Z" transform="translate(-3348.859 -442.585)" fill="#c4a345"/>
                <path id="Trazado_723034" data-name="Trazado 723034" d="M3480.2,877.732a.988.988,0,0,1-.987-.961c-.034-1.2-3.366-120.446-3.272-134.462.027-3.943.482-9.122,1.011-15.119,1.369-15.551,3.245-36.848-.833-55.476-5.62-25.667-4.719-62.039-2.681-73.532a111.168,111.168,0,0,1,6.507-21.405c-1.692-4.787-14.862-32.084-18.582-39.178-3.675-7.01-12.038-31.922-13.058-41.509-1.134-10.651-3.817-24.312-7.943-30.709-4.61-7.148-5.087-19.831-5.1-20.369a.988.988,0,0,1,1.974-.066c0,.126.478,12.677,4.79,19.363,5.43,8.418,7.686,26.293,8.248,31.571,1,9.415,9.228,33.9,12.844,40.8s17.628,35.853,18.833,39.854a.985.985,0,0,1-.041.681,109.557,109.557,0,0,0-6.521,21.311c-2.015,11.362-2.9,47.345,2.666,72.765,4.143,18.922,2.252,40.394.872,56.072-.524,5.954-.977,11.1-1,14.958-.094,13.982,3.236,133.191,3.27,134.394a.987.987,0,0,1-.959,1.015Z" transform="translate(-3338.419 -442.478)" fill="#c4a345"/>
              </g>
            </g>
          </g>
        </g>
        <g id="Enmascarar_grupo_927236" data-name="Enmascarar grupo 927236" clip-path="url(#clip-path-3)">
          <g id="Grupo_958526" data-name="Grupo 958526" transform="translate(222.773 -4811.533) rotate(-56)">
            <g id="Grupo_957360" data-name="Grupo 957360" transform="translate(0 57.255)">
              <path id="Trazado_721872" data-name="Trazado 721872" d="M.745,44.773c-3.209,3.2,4.237,12.082,16.889,28.386S38.487,99.245,43.982,95.4,71.2,75.9,80.11,69.716c2.653-1.844,7.3-5.019,12.8-8.765-19.575-1.7-28.858-14.734-38.977-29.776C46.087,19.507,45.8,7.134,46.531,0c-5.379,13.017-10.2,19.154-17.959,26.3C19.321,34.831,3.952,41.569.745,44.773Z" transform="translate(3.312 0)" fill="#e4edf4"/>
              <g id="Grupo_957359" data-name="Grupo 957359" transform="translate(5.498 9.684)">
                <path id="Trazado_721873" data-name="Trazado 721873" d="M43.87.8a.478.478,0,0,1-.041.031L20.549,16.562A93.383,93.383,0,0,0,7.6,26.464c-.308.3-.616.6-.924.911C4.884,29.159,3.03,31,.609,31.894A.452.452,0,1,1,.3,31.046c2.235-.823,4.018-2.6,5.743-4.312.31-.309.621-.617.932-.919a94.175,94.175,0,0,1,13.073-10L43.323.078A.452.452,0,0,1,43.87.8Z" transform="translate(37.135 48.329)" fill="#ccd9e2"/>
                <path id="Trazado_721874" data-name="Trazado 721874" d="M33.127,6.992q-4.182,3.566-8.547,6.875c-1.3.983-2.609,1.951-3.92,2.917L.72,31.494a.452.452,0,0,1-.536-.728L20.123,16.057c1.307-.966,2.616-1.93,3.911-2.911A190.859,190.859,0,0,0,39.445.122a.452.452,0,1,1,.619.659Q36.686,3.959,33.127,6.992Z" transform="translate(33.432 43.629)" fill="#ccd9e2"/>
                <path id="Trazado_721875" data-name="Trazado 721875" d="M42.6.8l-.025.019C34.51,6.8,26.527,13.241,18.8,19.472,12.913,24.225,6.823,29.14.728,33.824a.452.452,0,0,1-.551-.717c6.086-4.678,12.173-9.59,18.06-14.339C25.964,12.532,33.956,6.083,42.04.09A.452.452,0,0,1,42.6.8Z" transform="translate(24.606 38.739)" fill="#ccd9e2"/>
                <path id="Trazado_721876" data-name="Trazado 721876" d="M35.5,3.747a60.708,60.708,0,0,1-6.388,4.559,47.531,47.531,0,0,0-7.866,5.928c-.6.6-1.182,1.253-1.745,1.881-.6.669-1.217,1.362-1.87,2.01a45.157,45.157,0,0,1-3.792,3.242C9.638,24.7,5.291,28.151.7,31.11a.452.452,0,1,1-.49-.76c4.556-2.936,8.886-6.371,13.072-9.692A44.45,44.45,0,0,0,17,17.482c.635-.628,1.244-1.31,1.833-1.97.571-.638,1.159-1.3,1.779-1.917a48.179,48.179,0,0,1,8.014-6.048C31.906,5.41,35.3,3.2,37.791.164a.452.452,0,0,1,.7.573A23.669,23.669,0,0,1,35.5,3.747Z" transform="translate(23.253 31.957)" fill="#ccd9e2"/>
                <path id="Trazado_721877" data-name="Trazado 721877" d="M40.584,1.99A32.391,32.391,0,0,1,36.1,5.023c-.411.246-.822.491-1.227.74A115.792,115.792,0,0,0,20.525,16.794l-9.952,8.515A49.751,49.751,0,0,1,.653,32.466a.452.452,0,0,1-.6-.62l1.391-2.579a.452.452,0,1,1,.795.429l-.68,1.26a56.174,56.174,0,0,0,8.425-6.336l9.951-8.515A116.467,116.467,0,0,1,34.4,4.993c.408-.251.822-.5,1.237-.746A23.755,23.755,0,0,0,41.2.147a.452.452,0,0,1,.669.608A13.879,13.879,0,0,1,40.584,1.99Z" transform="translate(15.471 26.014)" fill="#ccd9e2"/>
                <path id="Trazado_721878" data-name="Trazado 721878" d="M40.905.8a.48.48,0,0,1-.113.071,41.215,41.215,0,0,0-9.319,5.613c-.749.6-1.477,1.225-2.205,1.849-.956.817-1.939,1.663-2.962,2.44-.751.571-1.538,1.114-2.3,1.639-.879.608-1.788,1.236-2.638,1.9A53.818,53.818,0,0,0,15.2,20.33,58.406,58.406,0,0,1,9.364,26.1,58.407,58.407,0,0,1,.673,31.64a.452.452,0,0,1-.441-.79A57.554,57.554,0,0,0,8.792,25.4a56.938,56.938,0,0,0,5.746-5.68A54.751,54.751,0,0,1,20.811,13.6c.871-.684,1.792-1.32,2.682-1.936.752-.519,1.53-1.057,2.266-1.616,1-.76,1.978-1.6,2.919-2.406.737-.631,1.473-1.263,2.23-1.869A42.149,42.149,0,0,1,40.431.038.452.452,0,0,1,40.905.8Z" transform="translate(12.465 19.787)" fill="#ccd9e2"/>
                <path id="Trazado_721879" data-name="Trazado 721879" d="M43.866.8a.5.5,0,0,1-.049.036,140.729,140.729,0,0,0-22.65,18.205l-.605.6a46.052,46.052,0,0,1-3.908,3.606,46.563,46.563,0,0,1-4.163,2.827l-1,.631A97.793,97.793,0,0,0,.746,34.655h0a.452.452,0,0,1-.588-.688,97.274,97.274,0,0,1,10.847-8.024l1.005-.635a45.576,45.576,0,0,0,4.083-2.77A46.33,46.33,0,0,0,19.923,19l.608-.6A141.5,141.5,0,0,1,43.327.072.452.452,0,0,1,43.866.8Z" transform="translate(5.376 11.819)" fill="#ccd9e2"/>
                <path id="Trazado_721880" data-name="Trazado 721880" d="M54.121.8h0C39.672,13.073,24.732,25.767,8.028,35.5,5.583,36.921,3.085,38.29.671,39.614a.452.452,0,1,1-.435-.793c2.409-1.321,4.9-2.688,7.337-4.106C24.208,25.025,39.117,12.357,53.535.108A.452.452,0,0,1,54.121.8Z" transform="translate(0 0)" fill="#ccd9e2"/>
              </g>
              <path id="Trazado_721881" data-name="Trazado 721881" d="M40.9,53.787s-6.79-8.019-12.016-14.4C23.782,33.151.861,6.049.861,6.049A3.682,3.682,0,0,1,1.316.861h0A3.683,3.683,0,0,1,6.5,1.316S22.083,19.2,28.582,26.952s17.963,22.1,17.963,22.1a3.682,3.682,0,0,1-.455,5.188h0A3.682,3.682,0,0,1,40.9,53.787Z" transform="translate(0 44.159)" fill="#3a5870"/>
            </g>
            <path id="Trazado_721882" data-name="Trazado 721882" d="M4.235,48.888C2.8,52.9,1.44,56.37.1,59.444a27.242,27.242,0,0,0-.03,4.274A52.916,52.916,0,0,0,2.4,75.188c3.095,9.691,8.7,18.433,15.316,26.162,4.211,4.922,8.913,9.525,14.5,12.8a31.853,31.853,0,0,0,14.523,4.512c13.02-8.87,31.238-21.22,39.034-26.66C96.684,84.388,116.88,69.5,124.4,63.19c4.639-3.891,1.645-10.416-4.854-7.849-5.617,2.218-36.47,20.85-37.3,19.627s2-4.948,5.952-8.261,14.617-11.683,23.121-18.047,16.2-13.008,12.221-17.748c-2.847-3.393-11.1,2.387-18.8,8.076C93.229,47.491,75,61.053,73.293,59.022s33.1-30.451,38.288-34.806,9.277-8.422,4.81-13.519c-3.625-4.137-24.476,12.84-34.709,21.422S62.529,46.647,61.393,45.292s.773-4.045,4.03-7.8S78.973,25.26,84.69,20.464,102.344,6.329,98.306,1.514c-3.543-4.225-9.7.961-19.008,8.51S45.033,36.713,38.107,40.984s-10.563-.369-10.452-4.819,4.387-11.884,6.936-17.1,5.645-11.912-.6-13.854S22.468,13.569,18.951,19.37C16.344,23.672,11.063,29.831,4.235,48.888Z" transform="translate(48.813 0)" fill="#3a5870"/>
          </g>
          <g id="Grupo_958527" data-name="Grupo 958527" transform="translate(-8.881 -4724.009) rotate(-124)">
            <g id="Grupo_957360-2" data-name="Grupo 957360" transform="translate(0 0)">
              <path id="Trazado_721872-2" data-name="Trazado 721872" d="M.744,51.464c-3.209-3.2,4.237-12.082,16.889-28.386S38.487-3.007,43.982.833,71.2,20.333,80.11,26.522c2.653,1.844,7.3,5.019,12.8,8.765-19.575,1.7-28.858,14.734-38.976,29.776C46.087,76.731,45.8,89.1,46.532,96.238c-5.379-13.017-10.2-19.154-17.959-26.3C19.322,61.406,3.953,54.669.744,51.464Z" transform="translate(3.312 3.025)" fill="#e4edf4"/>
              <g id="Grupo_957359-2" data-name="Grupo 957359" transform="translate(5.499 9.327)">
                <path id="Trazado_721873-2" data-name="Trazado 721873" d="M43.87,31.127a.476.476,0,0,0-.041-.031L20.549,15.36A93.393,93.393,0,0,1,7.6,5.459c-.309-.3-.615-.6-.924-.911C4.884,2.764,3.029.919.609.028A.452.452,0,1,0,.3.876c2.235.823,4.018,2.6,5.743,4.312.31.309.621.617.932.919a94.169,94.169,0,0,0,13.072,10L43.322,31.845a.452.452,0,0,0,.547-.718Z" transform="translate(37.135 0)" fill="#ccd9e2"/>
                <path id="Trazado_721874-2" data-name="Trazado 721874" d="M33.127,24.59q-4.182-3.566-8.547-6.875c-1.3-.983-2.609-1.951-3.92-2.917L.72.088A.452.452,0,0,0,.184.816L20.123,15.525c1.308.966,2.616,1.93,3.911,2.911A190.819,190.819,0,0,1,39.446,31.461a.452.452,0,1,0,.619-.659Q36.686,27.624,33.127,24.59Z" transform="translate(33.432 5.041)" fill="#ccd9e2"/>
                <path id="Trazado_721875-2" data-name="Trazado 721875" d="M42.6,33.122l-.025-.019C34.51,27.12,26.526,20.677,18.8,14.446,12.913,9.693,6.823,4.778.728.093A.452.452,0,0,0,.176.81C6.262,5.488,12.35,10.4,18.237,15.15c7.728,6.236,15.72,12.685,23.8,18.679a.452.452,0,0,0,.563-.707Z" transform="translate(24.606 7.594)" fill="#ccd9e2"/>
                <path id="Trazado_721876-2" data-name="Trazado 721876" d="M35.5,27.436a60.692,60.692,0,0,0-6.388-4.559,47.544,47.544,0,0,1-7.866-5.928c-.6-.6-1.182-1.253-1.744-1.881-.6-.67-1.218-1.362-1.871-2.01a45.191,45.191,0,0,0-3.792-3.242C9.638,6.48,5.291,3.032.7.072a.452.452,0,1,0-.49.76C4.763,3.768,9.093,7.2,13.28,10.524A44.486,44.486,0,0,1,17,13.7c.634.628,1.244,1.31,1.833,1.97.571.638,1.159,1.3,1.779,1.917a48.169,48.169,0,0,0,8.014,6.048c3.284,2.137,6.682,4.346,9.169,7.383a.452.452,0,0,0,.7-.573A23.652,23.652,0,0,0,35.5,27.436Z" transform="translate(23.253 17.113)" fill="#ccd9e2"/>
                <path id="Trazado_721877-2" data-name="Trazado 721877" d="M40.584,30.523A32.388,32.388,0,0,0,36.1,27.49c-.41-.246-.821-.491-1.227-.74A115.8,115.8,0,0,1,20.525,15.72L10.574,7.205A49.756,49.756,0,0,0,.653.047a.452.452,0,0,0-.6.62L1.446,3.246a.452.452,0,1,0,.795-.429l-.68-1.26A56.165,56.165,0,0,1,9.986,7.892l9.951,8.515A116.485,116.485,0,0,0,34.4,27.521c.409.251.822.5,1.237.746a23.766,23.766,0,0,1,5.562,4.1.452.452,0,0,0,.669-.608A13.87,13.87,0,0,0,40.584,30.523Z" transform="translate(15.471 21.724)" fill="#ccd9e2"/>
                <path id="Trazado_721878-2" data-name="Trazado 721878" d="M40.9,30.9a.471.471,0,0,0-.113-.071,41.22,41.22,0,0,1-9.319-5.613c-.749-.6-1.477-1.225-2.205-1.849-.956-.817-1.939-1.663-2.962-2.44-.751-.571-1.538-1.114-2.3-1.639-.879-.608-1.788-1.236-2.638-1.9A53.841,53.841,0,0,1,15.2,11.367,58.358,58.358,0,0,0,9.364,5.6,58.4,58.4,0,0,0,.673.057a.452.452,0,0,0-.44.79A57.579,57.579,0,0,1,8.792,6.3a56.986,56.986,0,0,1,5.746,5.68A54.742,54.742,0,0,0,20.811,18.1c.871.684,1.792,1.32,2.682,1.936.752.519,1.53,1.057,2.266,1.616,1,.76,1.978,1.6,2.919,2.406.737.631,1.473,1.263,2.23,1.869a42.144,42.144,0,0,0,9.522,5.737A.452.452,0,0,0,40.9,30.9Z" transform="translate(12.465 28.767)" fill="#ccd9e2"/>
                <path id="Trazado_721879-2" data-name="Trazado 721879" d="M43.866,33.967a.506.506,0,0,0-.048-.036A140.722,140.722,0,0,1,21.167,15.726l-.605-.6a46.039,46.039,0,0,0-3.908-3.606,46.656,46.656,0,0,0-4.163-2.827l-1-.631A97.85,97.85,0,0,1,.746.108h0A.452.452,0,0,0,.158.8,97.187,97.187,0,0,0,11.006,8.82l1,.635a45.621,45.621,0,0,1,4.082,2.771,46.272,46.272,0,0,1,3.83,3.538l.608.605a141.494,141.494,0,0,0,22.8,18.323.452.452,0,0,0,.539-.724Z" transform="translate(5.376 33.67)" fill="#ccd9e2"/>
                <path id="Trazado_721880-2" data-name="Trazado 721880" d="M54.121,38.874h0C39.673,26.6,24.733,13.9,8.028,4.174,5.583,2.749,3.085,1.38.67.056A.452.452,0,1,0,.235.849c2.41,1.321,4.9,2.688,7.337,4.106,16.636,9.689,31.545,22.358,45.962,34.607a.452.452,0,0,0,.586-.688Z" transform="translate(0 40.582)" fill="#ccd9e2"/>
              </g>
              <path id="Trazado_721881-2" data-name="Trazado 721881" d="M40.9,1.316s-6.79,8.019-12.016,14.4C23.782,21.953.861,49.054.861,49.054a3.682,3.682,0,0,0,.455,5.188h0A3.683,3.683,0,0,0,6.5,53.787S22.083,35.9,28.582,28.152s17.963-22.1,17.963-22.1A3.682,3.682,0,0,0,46.09.861h0A3.683,3.683,0,0,0,40.9,1.316Z" transform="translate(0 0)" fill="#3a5870"/>
            </g>
            <path id="Trazado_721882-2" data-name="Trazado 721882" d="M4.235,69.777C2.8,65.769,1.44,62.3.1,59.222a27.234,27.234,0,0,1-.03-4.274A52.93,52.93,0,0,1,2.4,43.478c3.095-9.691,8.7-18.433,15.316-26.162,4.212-4.922,8.912-9.525,14.5-12.8A31.853,31.853,0,0,1,46.737,0c13.02,8.87,31.237,21.22,39.034,26.661,10.914,7.617,31.11,22.505,38.634,28.816,4.639,3.891,1.645,10.416-4.854,7.849-5.617-2.218-36.471-20.85-37.3-19.627s2,4.948,5.952,8.261,14.617,11.683,23.122,18.047,16.2,13.008,12.221,17.748c-2.847,3.393-11.1-2.387-18.8-8.076C93.229,71.175,75,57.613,73.293,59.644s33.1,30.451,38.288,34.806,9.277,8.422,4.81,13.519c-3.626,4.137-24.476-12.84-34.71-21.422S62.529,72.019,61.393,73.374s.773,4.045,4.031,7.8S78.973,93.406,84.69,98.2s17.654,14.136,13.616,18.95c-3.543,4.225-9.7-.961-19.008-8.51S45.033,81.954,38.107,77.682,27.544,78.05,27.655,82.5s4.387,11.884,6.936,17.1,5.645,11.912-.6,13.854S22.468,105.1,18.951,99.3C16.344,94.994,11.063,88.835,4.235,69.777Z" transform="translate(48.814 37.852)" fill="#3a5870"/>
          </g>
        </g>
      </g>
    </g>
    <g id="Grupo_958534" data-name="Grupo 958534" transform="translate(20 -7000.073)">
      <path id="Trazado_721512" data-name="Trazado 721512" d="M2239.923,364.41l8.6-.979a2.256,2.256,0,0,0,1.987-2.5l-5.67-49.818a2.244,2.244,0,0,0-2.667-1.964,25.042,25.042,0,0,0-19.648,27.32l1.765,15.5A14.125,14.125,0,0,0,2239.923,364.41Z" transform="translate(-2222.363 -309.103)" fill="#eac759"/>
      <path id="Trazado_721513" data-name="Trazado 721513" d="M2255.167,362.344h0a4.625,4.625,0,0,1-5.118-4.072l-4.924-43.26a4.627,4.627,0,0,1,4.073-5.119h0a4.627,4.627,0,0,1,5.119,4.073l4.923,43.26A4.625,4.625,0,0,1,2255.167,362.344Z" transform="translate(-2226.876 -309.254)" fill="#233a49"/>
      <path id="Trazado_721514" data-name="Trazado 721514" d="M2246.1,363.48a.6.6,0,0,1-.591-.527l-5.386-47.328a.594.594,0,1,1,1.181-.135l5.387,47.328a.594.594,0,0,1-.524.658A.489.489,0,0,1,2246.1,363.48Z" transform="translate(-2225.888 -310.267)" fill="#c4a345"/>
      <rect id="Rectángulo_339683" data-name="Rectángulo 339683" width="3.588" height="12.281" rx="1.194" transform="matrix(0.827, -0.563, 0.563, 0.827, 9.95, 21.836)" fill="#d66371"/>
      <path id="Trazado_721515" data-name="Trazado 721515" d="M2396.454,364.452l-8.613-.875a2.256,2.256,0,0,1-2.017-2.473l5.068-49.884a2.246,2.246,0,0,1,2.644-2,25.043,25.043,0,0,1,19.976,27.081l-1.577,15.521A14.125,14.125,0,0,1,2396.454,364.452Z" transform="translate(-2254.811 -309.119)" fill="#eac759"/>
      <path id="Trazado_721516" data-name="Trazado 721516" d="M2397.2,372.358a16.521,16.521,0,0,1-1.671-.085.595.595,0,1,1,.121-1.183c7.823.793,15.044-4.51,15.763-11.585a.595.595,0,1,1,1.183.12C2411.868,366.83,2405,372.358,2397.2,372.358Z" transform="translate(-2256.634 -319.003)" fill="#c4a345"/>
      <path id="Trazado_721517" data-name="Trazado 721517" d="M2241.584,372.35a16.739,16.739,0,0,1-9.447-2.925,13.528,13.528,0,0,1-5.957-9.619.595.595,0,0,1,1.182-.134,12.354,12.354,0,0,0,5.452,8.774,15.512,15.512,0,0,0,10.451,2.619.595.595,0,1,1,.134,1.181A15.96,15.96,0,0,1,2241.584,372.35Z" transform="translate(-2223.12 -319.038)" fill="#c4a345"/>
      <path id="Trazado_721518" data-name="Trazado 721518" d="M2384.637,362.525h0a4.625,4.625,0,0,0,5.069-4.134l4.4-43.317a4.624,4.624,0,0,0-4.134-5.069h0a4.624,4.624,0,0,0-5.068,4.133l-4.4,43.317A4.626,4.626,0,0,0,2384.637,362.525Z" transform="translate(-2253.753 -309.278)" fill="#233a49"/>
      <path id="Trazado_721519" data-name="Trazado 721519" d="M2395.593,363.539c-.02,0-.04,0-.061,0a.6.6,0,0,1-.532-.652l4.816-47.39a.595.595,0,0,1,1.183.121L2396.184,363A.594.594,0,0,1,2395.593,363.539Z" transform="translate(-2256.634 -310.266)" fill="#c4a345"/>
      <rect id="Rectángulo_339684" data-name="Rectángulo 339684" width="3.589" height="12.28" rx="1.163" transform="matrix(-0.833, -0.553, 0.553, -0.833, 142.063, 32.009)" fill="#d66371"/>
    </g>
    <path id="Trazado_723035" data-name="Trazado 723035" d="M2406.129,314.71a1.274,1.274,0,0,1-.722-.216.829.829,0,0,1-.149-1.316c.157-.157,13.487-14-1.224-38.4a.867.867,0,0,1,.508-1.254,1.25,1.25,0,0,1,1.518.419c15.419,25.567,1.539,39.833.941,40.428A1.241,1.241,0,0,1,2406.129,314.71Z" transform="translate(-2238.405 -7293.427)" fill="#233a49"/>
    <path id="Trazado_723036" data-name="Trazado 723036" d="M2236,316.782a1.8,1.8,0,0,1-1.081-.324c-.58-.447-14.054-11.174-3.047-31.033a1.7,1.7,0,0,1,1.784-.542c.729.162,1.111.668.856,1.13-5.47,9.868-4.477,17.315-2.681,21.826a19.27,19.27,0,0,0,5.253,7.5c.486.379.4.937-.2,1.246A1.945,1.945,0,0,1,2236,316.782Z" transform="translate(-2203.394 -7295.499)" fill="#233a49"/>
    <g id="Grupo_958536" data-name="Grupo 958536" transform="translate(41.136 -7010.667)">
      <path id="Trazado_721786" data-name="Trazado 721786" d="M3486.689,330.1c-12.258,0-18.474,12.171-18.474,12.171,11.075-11.075,25.874-11.075,36.948,0C3505.163,342.271,3498.946,330.1,3486.689,330.1Z" transform="translate(-3428.625 -295.467)" fill="#d66371"/>
      <path id="Trazado_721787" data-name="Trazado 721787" d="M3511.476,291.116v-.006h0a299.033,299.033,0,0,0-74.841,0h0v.006c-10.84,1.5-16.989,11.134-16.989,22.8,0,12.708,12.453,20.645,25.161,20.645,6.015,0,9.754-1.78,12.027-5v.065c4.909-7.467,8.521-10.525,17.22-10.764,8.7.238,12.312,3.3,17.22,10.764v-.065c2.273,3.22,6.012,5,12.026,5,12.709,0,25.162-7.937,25.162-20.645C3528.464,302.25,3522.315,292.617,3511.476,291.116Z" transform="translate(-3415.991 -284.713)" fill="#e4edf4" opacity="0.44"/>
      <g id="Grupo_957336" data-name="Grupo 957336" transform="translate(9.659 4.154)">
        <path id="Trazado_721788" data-name="Trazado 721788" d="M3427.76,328.108a23.98,23.98,0,0,0,5.013,3.591l10.454-40.479q-2.242.249-4.482.53v.006c-.573.08-1.131.186-1.678.311Z" transform="translate(-3427.76 -289.507)" fill="#f2f6f9"/>
        <path id="Trazado_721789" data-name="Trazado 721789" d="M3441.125,333.76l11.2-43.388q-1.523.137-3.044.289l-10.888,42.16Q3439.727,333.356,3441.125,333.76Z" transform="translate(-3430.527 -289.287)" fill="#f2f6f9"/>
        <path id="Trazado_721790" data-name="Trazado 721790" d="M3500.9,288.9l-7.746,30h.02a23.388,23.388,0,0,1,6.3.915l7.922-30.678C3505.236,289.034,3503.07,288.961,3500.9,288.9Z" transform="translate(-3444.772 -288.905)" fill="#f2f6f9"/>
        <path id="Trazado_721791" data-name="Trazado 721791" d="M3538.832,291.822v-.006h0c-.966-.121-1.932-.23-2.9-.343l-11.121,43.062a20.963,20.963,0,0,0,5.845.732c1.015,0,2.026-.056,3.031-.155l10.748-41.622A18.833,18.833,0,0,0,3538.832,291.822Z" transform="translate(-3453.006 -289.573)" fill="#f2f6f9"/>
      </g>
      <path id="Rectángulo_339743" data-name="Rectángulo 339743" d="M3.126,0h.96a0,0,0,0,1,0,0V14.007a0,0,0,0,1,0,0h-.96A3.126,3.126,0,0,1,0,10.88V3.126A3.126,3.126,0,0,1,3.126,0Z" transform="translate(0 21.071)" fill="#d66371"/>
      <path id="Rectángulo_339744" data-name="Rectángulo 339744" d="M3.126,0h.96a0,0,0,0,1,0,0V14.007a0,0,0,0,1,0,0h-.96A3.126,3.126,0,0,1,0,10.88V3.126A3.126,3.126,0,0,1,3.126,0Z" transform="translate(116.559 35.077) rotate(180)" fill="#d66371"/>
      <path id="Trazado_721792" data-name="Trazado 721792" d="M3517.448,288.7a299.036,299.036,0,0,0-74.841,0,98.9,98.9,0,0,1,18.525-4.137l2.35-.317c.784-.092,1.571-.156,2.357-.236l4.721-.4c3.153-.193,6.31-.257,9.469-.314,3.157.058,6.316.121,9.469.314l4.721.4c.786.08,1.572.144,2.357.236l2.35.317A98.954,98.954,0,0,1,3517.448,288.7Z" transform="translate(-3421.964 -283.291)" fill="#d66371"/>
      <path id="Trazado_721793" data-name="Trazado 721793" d="M3502.78,335.525c-6.055,0-10.314-1.736-13-5.306a1.4,1.4,0,0,1-.264-.3c-4.552-6.922-7.782-9.86-15.98-10.093-8.2.234-11.427,3.171-15.978,10.093a1.491,1.491,0,0,1-.272.31c-2.69,3.563-6.946,5.3-13,5.3-13.1,0-26.647-8.278-26.647-22.13,0-13.152,7.114-22.655,18.134-24.253a1.5,1.5,0,0,1,.154-.027,300.6,300.6,0,0,1,75.213,0,1.489,1.489,0,0,1,.155.027c11.021,1.6,18.133,11.1,18.133,24.253C3529.427,327.247,3515.878,335.525,3502.78,335.525Zm-10.993-7.551a1.443,1.443,0,0,1,.181.209c2.1,2.982,5.541,4.372,10.813,4.372,11.638,0,23.676-7.167,23.676-19.16,0-11.635-6.166-20.008-15.707-21.329-.039-.006-.077-.013-.114-.021a297.839,297.839,0,0,0-74.206,0c-.037.008-.075.015-.112.021-9.542,1.321-15.708,9.694-15.708,21.329,0,11.993,12.038,19.16,23.676,19.16,5.273,0,8.708-1.389,10.813-4.371a1.433,1.433,0,0,1,.184-.215c4.862-7.323,8.9-10.858,18.21-11.112h.08C3482.885,317.111,3486.924,320.647,3491.787,327.974Z" transform="translate(-3415.469 -284.192)" fill="#c4a345"/>
    </g>
    <g id="Grupo_958535" data-name="Grupo 958535" transform="translate(41.136 -6982.99)">
      <path id="Trazado_721520" data-name="Trazado 721520" d="M2313.518,324.46a13.7,13.7,0,0,0-9.719,4.026l-18.345,23.242-1.3,37.21,12.683,8.4c1.614,1.07,3.118,2.289,4.629,3.5a16.773,16.773,0,0,0,10.486,3.682h1.57Z" transform="translate(-2255.239 -324.46)" fill="#3a5870"/>
      <path id="Trazado_721521" data-name="Trazado 721521" d="M2300.72,334.342l-15.081,19.106-.419,11.981a17.6,17.6,0,0,0,15.5-31.087Z" transform="translate(-2255.425 -326.179)" fill="#54809e"/>
      <path id="Trazado_721522" data-name="Trazado 721522" d="M2319.7,324.46a13.707,13.707,0,0,1,9.721,4.026l18.344,23.242,1.3,37.21-12.683,8.4c-1.615,1.07-3.118,2.289-4.63,3.5a16.77,16.77,0,0,1-10.485,3.682H2319.7Z" transform="translate(-2261.423 -324.46)" fill="#3a5870"/>
      <path id="Trazado_721523" data-name="Trazado 721523" d="M2333.883,334.342l15.08,19.106.42,11.981a17.6,17.6,0,0,1-15.5-31.087Z" transform="translate(-2262.619 -326.179)" fill="#54809e"/>
      <g id="Grupo_957039" data-name="Grupo 957039" transform="translate(41.96 35.247)">
        <rect id="Rectángulo_339685" data-name="Rectángulo 339685" width="12.232" height="3.046" transform="translate(2.276 8.918) rotate(-39.243)" fill="#cce1f2"/>
        <circle id="Elipse_5495" data-name="Elipse 5495" cx="13.096" cy="13.096" r="13.096" transform="translate(0 7.559) rotate(-16.775)" fill="#cce1f2"/>
        <path id="Trazado_721524" data-name="Trazado 721524" d="M2317.356,395.68a11.142,11.142,0,1,1,11.143-11.143A11.154,11.154,0,0,1,2317.356,395.68Zm0-21.06a9.918,9.918,0,1,0,9.918,9.918A9.929,9.929,0,0,0,2317.356,374.62Z" transform="translate(-2301.038 -368.219)" fill="#afc9db"/>
      </g>
      <ellipse id="Elipse_5496" data-name="Elipse 5496" cx="16.952" cy="6.929" rx="16.952" ry="6.929" transform="translate(41.327 67.9)" fill="#233a49"/>
      <path id="Trazado_721525" data-name="Trazado 721525" d="M2317.038,418.683c-6.989,0-12.655,2.316-12.655,5.173s5.666,5.174,12.655,5.174,12.655-2.316,12.655-5.174S2324.027,418.683,2317.038,418.683Z" transform="translate(-2258.759 -340.85)" fill="#233a49"/>
      <path id="Trazado_721526" data-name="Trazado 721526" d="M2299.664,416.862l4.229,7.857,2.785-4.793Z" transform="translate(-2257.938 -340.534)" fill="#233a49"/>
      <path id="Trazado_721527" data-name="Trazado 721527" d="M2338.266,416.862l-4.229,7.857-2.786-4.793Z" transform="translate(-2263.433 -340.534)" fill="#233a49"/>
      <path id="Trazado_721528" data-name="Trazado 721528" d="M2329.328,424.279a.6.6,0,0,1-.6-.6c0-2.106-4.827-4.452-11.756-4.452s-11.755,2.346-11.755,4.452a.6.6,0,0,1-1.2,0c0-3.167,5.689-5.648,12.951-5.648s12.951,2.481,12.951,5.648A.6.6,0,0,1,2329.328,424.279Z" transform="translate(-2258.697 -340.738)" fill="#09151c"/>
      <g id="Grupo_957040" data-name="Grupo 957040" transform="translate(0 16.827)">
        <path id="Trazado_721529" data-name="Trazado 721529" d="M2273.918,379.2c2.528,13.534-.777,25.506-7.381,26.739S2252.529,397.2,2250,383.668s.776-25.505,7.38-26.739S2271.389,365.667,2273.918,379.2Z" transform="translate(-2249.151 -346.918)" fill="#68a4e0"/>
        <ellipse id="Elipse_5497" data-name="Elipse 5497" cx="12.165" cy="24.929" rx="12.165" ry="24.929" transform="translate(8.039 4.467) rotate(-10.58)" fill="#68a4e0"/>
        <path id="Trazado_721530" data-name="Trazado 721530" d="M2256.86,356.185l11.321-7.509,2.6,8.555-13.212,3.939Z" transform="translate(-2250.492 -345.5)" fill="#68a4e0"/>
        <path id="Trazado_721531" data-name="Trazado 721531" d="M2273.135,412.908l12.055-7.988-8.023-2.167-3.324,4.676Z" transform="translate(-2253.323 -354.907)" fill="#68a4e0"/>
        <path id="Trazado_721532" data-name="Trazado 721532" d="M2267.712,406.361a.613.613,0,0,1-.6-.477l-10.658-47.221a.612.612,0,0,1,1.194-.269l10.658,47.221a.613.613,0,0,1-.462.732A.593.593,0,0,1,2267.712,406.361Z" transform="translate(-2250.419 -347.107)" fill="#588eba"/>
        <path id="Trazado_721533" data-name="Trazado 721533" d="M2250.821,388.811a.612.612,0,0,1-.112-1.214l23.28-4.415a.612.612,0,1,1,.227,1.2l-23.28,4.415A.591.591,0,0,1,2250.821,388.811Z" transform="translate(-2249.335 -351.5)" fill="#588eba"/>
        <path id="Trazado_721534" data-name="Trazado 721534" d="M2276.26,397.881a.614.614,0,0,1-.591-.775c1.371-4.963,1.46-11.252.255-17.708-1.529-8.188-4.925-15.36-9.084-19.187a12.309,12.309,0,0,0-2.378-1.745.612.612,0,0,1,.589-1.074,13.608,13.608,0,0,1,2.619,1.917c4.347,4,7.882,11.425,9.458,19.864,1.239,6.635,1.14,13.119-.278,18.257A.612.612,0,0,1,2276.26,397.881Z" transform="translate(-2251.759 -347.003)" fill="#588eba"/>
      </g>
      <g id="Grupo_957041" data-name="Grupo 957041" transform="translate(75.448 16.827)">
        <path id="Trazado_721535" data-name="Trazado 721535" d="M2360.094,379.2c-2.528,13.534.777,25.506,7.381,26.739s14.008-8.738,16.537-22.272-.778-25.505-7.382-26.739S2362.622,365.667,2360.094,379.2Z" transform="translate(-2343.75 -346.918)" fill="#68a4e0"/>
        <ellipse id="Elipse_5498" data-name="Elipse 5498" cx="24.929" cy="12.165" rx="24.929" ry="12.165" transform="translate(0 49.011) rotate(-79.42)" fill="#68a4e0"/>
        <path id="Trazado_721536" data-name="Trazado 721536" d="M2379.615,356.185l-11.321-7.509-2.6,8.555,13.213,3.939Z" transform="translate(-2344.872 -345.5)" fill="#68a4e0"/>
        <path id="Trazado_721537" data-name="Trazado 721537" d="M2363.732,412.908l-12.055-7.988,8.023-2.167,3.324,4.676Z" transform="translate(-2342.433 -354.907)" fill="#68a4e0"/>
        <path id="Trazado_721538" data-name="Trazado 721538" d="M2369.135,406.352a.6.6,0,0,1-.137-.016.613.613,0,0,1-.46-.734l10.853-47.358a.612.612,0,1,1,1.194.273l-10.853,47.358A.613.613,0,0,1,2369.135,406.352Z" transform="translate(-2345.364 -347.082)" fill="#588eba"/>
        <path id="Trazado_721539" data-name="Trazado 721539" d="M2383.585,388.775a.666.666,0,0,1-.113-.01l-23.439-4.38a.612.612,0,1,1,.223-1.2l23.441,4.38a.612.612,0,0,1-.111,1.213Z" transform="translate(-2343.8 -351.5)" fill="#588eba"/>
        <path id="Trazado_721540" data-name="Trazado 721540" d="M2360.229,397.881a.613.613,0,0,1-.59-.449c-1.418-5.138-1.515-11.622-.277-18.257,1.915-10.255,6.656-18.8,12.077-21.781a.612.612,0,0,1,.589,1.074c-5.033,2.763-9.64,11.176-11.463,20.931a40.58,40.58,0,0,0,.254,17.708.614.614,0,0,1-.591.775Z" transform="translate(-2343.621 -347.003)" fill="#588eba"/>
      </g>
    </g>
  </g>
</svg>
