<svg xmlns="http://www.w3.org/2000/svg" width="474" height="154" viewBox="0 0 474 154">
  <g id="Grupo_959090" data-name="Grupo 959090" transform="translate(-915 -2348)">
    <rect id="Rectángulo_339821" data-name="Rectángulo 339821" width="474" height="154" rx="14" transform="translate(915 2348)" fill="#fffffd"/>
    <g id="Grupo_958061" data-name="Grupo 958061" transform="translate(0 25)">
      <path id="Trazado_725283" data-name="Trazado 725283" d="M3.946,19H1.169V5.676H3.946Zm6.627.22a4.838,4.838,0,0,1-3.538-1.261,4.573,4.573,0,0,1-1.288-3.423,4.573,4.573,0,0,1,1.336-3.494A5.048,5.048,0,0,1,10.7,9.78a4.78,4.78,0,0,1,3.516,1.261,4.483,4.483,0,0,1,1.274,3.335,4.759,4.759,0,0,1-1.314,3.542A4.892,4.892,0,0,1,10.573,19.22Zm.07-7.312a1.852,1.852,0,0,0-1.529.677A2.984,2.984,0,0,0,8.569,14.5q0,2.593,2.092,2.593,2,0,2-2.663Q12.656,11.907,10.644,11.907Zm15.469,6.064a5.092,5.092,0,0,1-1.45,3.88,5.877,5.877,0,0,1-4.2,1.375,6.659,6.659,0,0,1-2.883-.519V20.371a5.521,5.521,0,0,0,2.8.809,3.02,3.02,0,0,0,2.18-.743,2.665,2.665,0,0,0,.773-2.017v-.712H23.3a3.1,3.1,0,0,1-2.8,1.512,3.372,3.372,0,0,1-2.733-1.213,4.919,4.919,0,0,1-1.011-3.252,5.478,5.478,0,0,1,1.125-3.63A3.673,3.673,0,0,1,20.839,9.78,2.733,2.733,0,0,1,23.3,11.046h.035V10h2.777Zm-2.742-3.3v-.712a2.188,2.188,0,0,0-.505-1.455,1.635,1.635,0,0,0-1.314-.6,1.7,1.7,0,0,0-1.45.721,3.389,3.389,0,0,0-.527,2.03,2.86,2.86,0,0,0,.5,1.78,1.633,1.633,0,0,0,1.371.655,1.7,1.7,0,0,0,1.393-.664A2.721,2.721,0,0,0,23.37,14.676Zm6.216,9.714h-.021V25h-1.62V17.228h1.62V20.54h.021a1.922,1.922,0,0,1,1.707-.918,1.873,1.873,0,0,1,1.564.7,3.007,3.007,0,0,1,.549,1.907,3.256,3.256,0,0,1-.641,2.107,2.088,2.088,0,0,1-1.712.795A1.654,1.654,0,0,1,29.586,24.39Zm-.046-2.215v.538a1.229,1.229,0,0,0,.292.841.951.951,0,0,0,.748.333.993.993,0,0,0,.859-.428,2.067,2.067,0,0,0,.305-1.212,1.644,1.644,0,0,0-.279-1.018.943.943,0,0,0-.8-.367,1.03,1.03,0,0,0-.807.364A1.383,1.383,0,0,0,29.54,22.175Zm10.73-.31H38a11.026,11.026,0,0,1-2.839-7.69A11.731,11.731,0,0,1,38,6.4h2.25a12.632,12.632,0,0,0-2.663,7.778A12.216,12.216,0,0,0,40.27,21.865ZM49.076,19H46.448V17.708h-.035a2.933,2.933,0,0,1-2.681,1.512,2.8,2.8,0,0,1-2.061-.743A2.661,2.661,0,0,1,40.92,16.5q0-2.619,3.1-3.023l2.443-.325q0-1.477-1.6-1.477a5.46,5.46,0,0,0-3.059.958V10.536a6.881,6.881,0,0,1,1.586-.527,8.339,8.339,0,0,1,1.833-.229q3.85,0,3.85,3.841Zm-2.61-3.656v-.606l-1.635.211q-1.354.176-1.354,1.222a1.01,1.01,0,0,0,.33.778,1.266,1.266,0,0,0,.892.3,1.644,1.644,0,0,0,1.274-.541A1.952,1.952,0,0,0,46.466,15.344Zm6.047,6.521h-2.25a12.144,12.144,0,0,0,2.689-7.69A12.6,12.6,0,0,0,50.263,6.4H52.53a11.731,11.731,0,0,1,2.848,7.778A11.047,11.047,0,0,1,52.513,21.865Zm19.854-9.018H63.807v-1.8h8.561Zm0,3.814H63.807V14.878h8.561ZM87.4,18.675a5.492,5.492,0,0,1-2.716.545,4.593,4.593,0,0,1-3.357-1.257A4.341,4.341,0,0,1,80.04,14.72,4.782,4.782,0,0,1,81.416,11.1,5.083,5.083,0,0,1,85.094,9.78a4.72,4.72,0,0,1,2.3.422v2.355a3.166,3.166,0,0,0-1.942-.65,2.559,2.559,0,0,0-1.894.7,2.607,2.607,0,0,0-.7,1.929,2.565,2.565,0,0,0,.668,1.876,2.455,2.455,0,0,0,1.837.681,3.666,3.666,0,0,0,2.03-.65Zm17.007-3.3,1.063-1.037H96.054l1.081,1.037v1.3l-2.8-2.918v-.035l2.8-2.918v1.3l-1.1,1.055h9.448L104.4,12.109v-1.3l2.813,2.918v.035L104.4,16.68Zm13.069,2.575h-.035V19H114.66V5.676h2.777v5.678h.035A3.3,3.3,0,0,1,120.4,9.78a3.211,3.211,0,0,1,2.681,1.2,5.155,5.155,0,0,1,.94,3.27,5.582,5.582,0,0,1-1.1,3.612,3.579,3.579,0,0,1-2.936,1.362A2.836,2.836,0,0,1,117.473,17.954Zm-.079-3.8v.923a2.107,2.107,0,0,0,.5,1.441,1.63,1.63,0,0,0,1.283.571,1.7,1.7,0,0,0,1.472-.734,3.543,3.543,0,0,0,.523-2.079,2.819,2.819,0,0,0-.479-1.745,1.616,1.616,0,0,0-1.367-.628,1.766,1.766,0,0,0-1.384.624A2.37,2.37,0,0,0,117.394,14.157Zm11.92-1.347a3.2,3.2,0,0,1-1.584.318,2.679,2.679,0,0,1-1.958-.733,2.532,2.532,0,0,1-.748-1.892,2.789,2.789,0,0,1,.8-2.11,2.965,2.965,0,0,1,2.146-.772,2.753,2.753,0,0,1,1.343.246V9.242a1.847,1.847,0,0,0-1.133-.379,1.493,1.493,0,0,0-1.1.408,1.521,1.521,0,0,0-.408,1.125,1.5,1.5,0,0,0,.39,1.095,1.432,1.432,0,0,0,1.071.4,2.138,2.138,0,0,0,1.184-.379Zm11.032.037h-8.561v-1.8h8.561Zm0,3.814h-8.561V14.878h8.561ZM151.077,19h-2.628V17.708h-.035a2.933,2.933,0,0,1-2.681,1.512,2.8,2.8,0,0,1-2.061-.743,2.661,2.661,0,0,1-.751-1.982q0-2.619,3.1-3.023l2.443-.325q0-1.477-1.6-1.477a5.46,5.46,0,0,0-3.059.958V10.536a6.881,6.881,0,0,1,1.586-.527,8.339,8.339,0,0,1,1.833-.229q3.85,0,3.85,3.841Zm-2.61-3.656v-.606l-1.635.211q-1.354.176-1.354,1.222a1.01,1.01,0,0,0,.33.778,1.266,1.266,0,0,0,.892.3,1.644,1.644,0,0,0,1.274-.541A1.952,1.952,0,0,0,148.466,15.344Z" transform="translate(1076 2400)" fill="#00223d"/>
      <path id="Trazado_725282" data-name="Trazado 725282" d="M11.461,2.865H9.193a11.026,11.026,0,0,1-2.839-7.69A11.731,11.731,0,0,1,9.193-12.6h2.25A12.632,12.632,0,0,0,8.78-4.825,12.216,12.216,0,0,0,11.461,2.865ZM24.135,0H21.041l-.9-2.8H15.662L14.774,0H11.7l4.588-12.6h3.366ZM19.494-4.983,18.141-9.22a5.521,5.521,0,0,1-.211-1.134h-.07a4.807,4.807,0,0,1-.22,1.1L16.269-4.983ZM28.213,0H25.436V-13.324h2.777ZM39.375-1.028a5.092,5.092,0,0,1-1.45,3.88,5.877,5.877,0,0,1-4.2,1.375,6.659,6.659,0,0,1-2.883-.519V1.371a5.521,5.521,0,0,0,2.8.809,3.02,3.02,0,0,0,2.18-.743A2.665,2.665,0,0,0,36.6-.58v-.712h-.035A3.1,3.1,0,0,1,33.759.22,3.372,3.372,0,0,1,31.025-.993a4.919,4.919,0,0,1-1.011-3.252,5.478,5.478,0,0,1,1.125-3.63A3.673,3.673,0,0,1,34.1-9.22a2.733,2.733,0,0,1,2.461,1.266H36.6V-9h2.777Zm-2.742-3.3v-.712a2.188,2.188,0,0,0-.505-1.455,1.635,1.635,0,0,0-1.314-.6,1.7,1.7,0,0,0-1.45.721,3.389,3.389,0,0,0-.527,2.03,2.86,2.86,0,0,0,.5,1.78,1.633,1.633,0,0,0,1.371.655A1.7,1.7,0,0,0,36.1-2.571,2.721,2.721,0,0,0,36.633-4.324Zm13.148.615H43.91q.141,1.96,2.47,1.96a4.822,4.822,0,0,0,2.61-.7v2A6.858,6.858,0,0,1,45.747.22,4.565,4.565,0,0,1,42.363-.989a4.566,4.566,0,0,1-1.2-3.371,4.816,4.816,0,0,1,1.3-3.551,4.334,4.334,0,0,1,3.2-1.31A3.933,3.933,0,0,1,48.7-8.051a4.5,4.5,0,0,1,1.077,3.173ZM47.206-5.414q0-1.934-1.564-1.934a1.494,1.494,0,0,0-1.156.554,2.513,2.513,0,0,0-.593,1.38Zm7.04,4.368h-.035V0H51.434V-13.324h2.777v5.678h.035A3.3,3.3,0,0,1,57.173-9.22a3.211,3.211,0,0,1,2.681,1.2,5.155,5.155,0,0,1,.94,3.27,5.582,5.582,0,0,1-1.1,3.612A3.579,3.579,0,0,1,56.76.22,2.836,2.836,0,0,1,54.246-1.046Zm-.079-3.8v.923a2.107,2.107,0,0,0,.5,1.441,1.63,1.63,0,0,0,1.283.571,1.7,1.7,0,0,0,1.472-.734,3.543,3.543,0,0,0,.523-2.079,2.819,2.819,0,0,0-.479-1.745A1.616,1.616,0,0,0,56.1-7.093a1.766,1.766,0,0,0-1.384.624A2.37,2.37,0,0,0,54.167-4.843ZM68.467-6.5A2.409,2.409,0,0,0,67.3-6.768a1.684,1.684,0,0,0-1.415.664,2.9,2.9,0,0,0-.51,1.806V0H62.6V-9h2.777v1.67h.035a2.4,2.4,0,0,1,2.373-1.828,1.788,1.788,0,0,1,.686.105ZM77.247,0H74.619V-1.292h-.035A2.933,2.933,0,0,1,71.9.22a2.8,2.8,0,0,1-2.061-.743A2.661,2.661,0,0,1,69.091-2.5q0-2.619,3.1-3.023l2.443-.325q0-1.477-1.6-1.477a5.46,5.46,0,0,0-3.059.958V-8.464a6.881,6.881,0,0,1,1.586-.527A8.339,8.339,0,0,1,73.4-9.22q3.85,0,3.85,3.841Zm-2.61-3.656v-.606L73-4.052q-1.354.176-1.354,1.222a1.01,1.01,0,0,0,.33.778,1.266,1.266,0,0,0,.892.3,1.644,1.644,0,0,0,1.274-.541A1.952,1.952,0,0,0,74.637-3.656ZM90.281-6.5a2.409,2.409,0,0,0-1.169-.272A1.684,1.684,0,0,0,87.7-6.1a2.9,2.9,0,0,0-.51,1.806V0H84.41V-9h2.777v1.67h.035A2.4,2.4,0,0,1,89.6-9.158a1.788,1.788,0,0,1,.686.105Zm9.308,2.786H93.718q.141,1.96,2.47,1.96a4.822,4.822,0,0,0,2.61-.7v2A6.858,6.858,0,0,1,95.555.22,4.565,4.565,0,0,1,92.171-.989a4.566,4.566,0,0,1-1.2-3.371,4.816,4.816,0,0,1,1.3-3.551,4.334,4.334,0,0,1,3.2-1.31,3.933,3.933,0,0,1,3.045,1.169,4.5,4.5,0,0,1,1.077,3.173ZM97.014-5.414q0-1.934-1.564-1.934a1.494,1.494,0,0,0-1.156.554,2.513,2.513,0,0,0-.593,1.38ZM108.062-.325a5.492,5.492,0,0,1-2.716.545,4.593,4.593,0,0,1-3.357-1.257,4.341,4.341,0,0,1-1.283-3.243A4.782,4.782,0,0,1,102.081-7.9a5.083,5.083,0,0,1,3.678-1.323,4.72,4.72,0,0,1,2.3.422v2.355a3.166,3.166,0,0,0-1.942-.65,2.559,2.559,0,0,0-1.894.7,2.607,2.607,0,0,0-.7,1.929,2.565,2.565,0,0,0,.668,1.876,2.455,2.455,0,0,0,1.837.681,3.666,3.666,0,0,0,2.03-.65Zm7.69-6.17a2.409,2.409,0,0,0-1.169-.272,1.684,1.684,0,0,0-1.415.664,2.9,2.9,0,0,0-.51,1.806V0h-2.777V-9h2.777v1.67h.035a2.4,2.4,0,0,1,2.373-1.828,1.788,1.788,0,0,1,.686.105Zm9.308,2.786h-5.871q.141,1.96,2.47,1.96a4.822,4.822,0,0,0,2.61-.7v2a6.858,6.858,0,0,1-3.243.668,4.565,4.565,0,0,1-3.384-1.208,4.566,4.566,0,0,1-1.2-3.371,4.816,4.816,0,0,1,1.3-3.551,4.334,4.334,0,0,1,3.2-1.31,3.933,3.933,0,0,1,3.045,1.169,4.5,4.5,0,0,1,1.077,3.173Zm-2.575-1.705q0-1.934-1.564-1.934a1.494,1.494,0,0,0-1.156.554,2.513,2.513,0,0,0-.593,1.38ZM134.2,0h-2.628V-1.292h-.035A2.933,2.933,0,0,1,128.856.22,2.8,2.8,0,0,1,126.8-.523a2.661,2.661,0,0,1-.751-1.982q0-2.619,3.1-3.023l2.443-.325q0-1.477-1.6-1.477a5.46,5.46,0,0,0-3.059.958V-8.464a6.881,6.881,0,0,1,1.586-.527,8.339,8.339,0,0,1,1.833-.229q3.85,0,3.85,3.841Zm-2.61-3.656v-.606l-1.635.211Q128.6-3.876,128.6-2.83a1.01,1.01,0,0,0,.33.778,1.266,1.266,0,0,0,.892.3A1.644,1.644,0,0,0,131.1-2.29,1.952,1.952,0,0,0,131.59-3.656ZM141.838-.105a4.105,4.105,0,0,1-1.854.325q-2.936,0-2.936-3.05V-6.952h-1.459V-9h1.459v-1.942l2.769-.791V-9h2.021v2.048h-2.021v3.639q0,1.406,1.116,1.406a1.882,1.882,0,0,0,.905-.255Zm2.971-10.318a1.622,1.622,0,0,1-1.151-.417,1.345,1.345,0,0,1-.448-1.024,1.3,1.3,0,0,1,.448-1.02,1.676,1.676,0,0,1,1.151-.4,1.672,1.672,0,0,1,1.156.4,1.3,1.3,0,0,1,.444,1.02,1.34,1.34,0,0,1-.444,1.037A1.65,1.65,0,0,1,144.809-10.424ZM146.18,0H143.4V-9h2.777Zm10.907-9-3.349,9h-3.164l-3.19-9h2.971l1.564,5.546a8.1,8.1,0,0,1,.308,1.6h.035a9.078,9.078,0,0,1,.325-1.547l1.6-5.6Zm8.4,9h-2.628V-1.292h-.035A2.933,2.933,0,0,1,160.146.22a2.8,2.8,0,0,1-2.061-.743,2.661,2.661,0,0,1-.751-1.982q0-2.619,3.1-3.023l2.443-.325q0-1.477-1.6-1.477a5.46,5.46,0,0,0-3.059.958V-8.464a6.881,6.881,0,0,1,1.586-.527,8.339,8.339,0,0,1,1.833-.229q3.85,0,3.85,3.841Zm-2.61-3.656v-.606l-1.635.211q-1.354.176-1.354,1.222a1.01,1.01,0,0,0,.33.778,1.266,1.266,0,0,0,.892.3,1.644,1.644,0,0,0,1.274-.541A1.952,1.952,0,0,0,162.879-3.656Zm7.436,1.441-1.292,4.447H166.86l.9-4.447Zm8.394-10.67V0h-2.769V-9.756a3.315,3.315,0,0,1-.541.382,5.58,5.58,0,0,1-.664.325,5.925,5.925,0,0,1-.729.246,5.328,5.328,0,0,1-.747.145V-11A11.549,11.549,0,0,0,175.3-11.8a11.6,11.6,0,0,0,1.731-1.081ZM191.3-6.908a11.18,11.18,0,0,1-.369,3,6.438,6.438,0,0,1-1.077,2.237,4.755,4.755,0,0,1-1.727,1.4,5.291,5.291,0,0,1-2.312.488,6.568,6.568,0,0,1-2.663-.492V-2.558a4.267,4.267,0,0,0,2.391.65,2.752,2.752,0,0,0,2.241-.976A4.352,4.352,0,0,0,188.6-5.7l-.053-.018a2.854,2.854,0,0,1-2.54,1.239,3.487,3.487,0,0,1-1.428-.29,3.431,3.431,0,0,1-1.134-.8A3.675,3.675,0,0,1,182.7-6.8a4.407,4.407,0,0,1-.268-1.564,4.857,4.857,0,0,1,.325-1.811,4.145,4.145,0,0,1,.91-1.406,4.014,4.014,0,0,1,1.4-.91,4.917,4.917,0,0,1,1.811-.321,4.145,4.145,0,0,1,1.846.4,3.878,3.878,0,0,1,1.393,1.156A5.4,5.4,0,0,1,191-9.4,9.4,9.4,0,0,1,191.3-6.908Zm-2.8-1.477a3.266,3.266,0,0,0-.123-.91,2.394,2.394,0,0,0-.343-.734,1.669,1.669,0,0,0-.536-.488,1.379,1.379,0,0,0-.694-.18,1.413,1.413,0,0,0-.664.158,1.618,1.618,0,0,0-.523.435,2.061,2.061,0,0,0-.343.664,2.74,2.74,0,0,0-.123.835,2.853,2.853,0,0,0,.123.875,1.867,1.867,0,0,0,.347.646,1.456,1.456,0,0,0,.541.4,1.76,1.76,0,0,0,.7.136,1.51,1.51,0,0,0,.668-.145,1.609,1.609,0,0,0,.514-.391,1.77,1.77,0,0,0,.334-.58A2.138,2.138,0,0,0,188.5-8.385ZM201.718-11q-.844,1.521-1.512,2.852t-1.178,2.628a24.783,24.783,0,0,0-.87,2.637A25.468,25.468,0,0,0,197.569,0h-2.9a23.731,23.731,0,0,1,.65-2.83,26.541,26.541,0,0,1,.936-2.641q.532-1.279,1.178-2.492t1.367-2.373h-5.854V-12.6h8.771Zm1.441,7.611a3.356,3.356,0,0,1,.154-1.015,3.076,3.076,0,0,1,.461-.905,3.4,3.4,0,0,1,.769-.747,4.131,4.131,0,0,1,1.085-.541,3.893,3.893,0,0,1-1.485-1.217,2.782,2.782,0,0,1-.527-1.648,2.98,2.98,0,0,1,.3-1.336,3.241,3.241,0,0,1,.839-1.063,3.926,3.926,0,0,1,1.279-.7,5.046,5.046,0,0,1,1.622-.25,5.144,5.144,0,0,1,1.644.25,4.019,4.019,0,0,1,1.288.694,3.149,3.149,0,0,1,.839,1.05,2.942,2.942,0,0,1,.3,1.318,2.616,2.616,0,0,1-.562,1.63,4.188,4.188,0,0,1-1.556,1.208,4.24,4.24,0,0,1,1.081.541,3.479,3.479,0,0,1,.782.751,3.078,3.078,0,0,1,.475.918,3.381,3.381,0,0,1,.158,1.033,3.3,3.3,0,0,1-.325,1.472A3.351,3.351,0,0,1,210.863-.8a4.334,4.334,0,0,1-1.415.743A5.917,5.917,0,0,1,207.633.2a5.948,5.948,0,0,1-1.8-.259,4.319,4.319,0,0,1-1.415-.734,3.4,3.4,0,0,1-.927-1.138A3.208,3.208,0,0,1,203.159-3.393Zm2.628-.237a2.141,2.141,0,0,0,.132.773,1.582,1.582,0,0,0,.378.58,1.688,1.688,0,0,0,.584.365,2.144,2.144,0,0,0,.76.127,2.029,2.029,0,0,0,.743-.132,1.743,1.743,0,0,0,.584-.369,1.679,1.679,0,0,0,.387-.58,2,2,0,0,0,.141-.765,1.99,1.99,0,0,0-.132-.721,1.713,1.713,0,0,0-.378-.593,1.867,1.867,0,0,0-.584-.4,1.863,1.863,0,0,0-.76-.149,1.981,1.981,0,0,0-.738.136,1.689,1.689,0,0,0-.589.387,1.824,1.824,0,0,0-.387.593A1.949,1.949,0,0,0,205.787-3.63Zm.387-5.581a1.665,1.665,0,0,0,.119.628,1.622,1.622,0,0,0,.321.51,1.466,1.466,0,0,0,.479.338,1.423,1.423,0,0,0,.584.123,1.414,1.414,0,0,0,.589-.123,1.5,1.5,0,0,0,.479-.343,1.647,1.647,0,0,0,.325-.51,1.632,1.632,0,0,0,.119-.624,1.746,1.746,0,0,0-.114-.637,1.523,1.523,0,0,0-.321-.51,1.516,1.516,0,0,0-.483-.338,1.444,1.444,0,0,0-.593-.123,1.443,1.443,0,0,0-.611.127,1.472,1.472,0,0,0-.475.343,1.54,1.54,0,0,0-.308.51A1.783,1.783,0,0,0,206.174-9.211Zm9.044,12.076h-2.25a12.144,12.144,0,0,0,2.689-7.69,12.6,12.6,0,0,0-2.689-7.778h2.268a11.731,11.731,0,0,1,2.848,7.778A11.047,11.047,0,0,1,215.218,2.865ZM0,2H7.483V3H0ZM12.461,2h17.38V3H12.461ZM39.619,2H165.86V3H39.619ZM170.09,2h41.878V3H170.09Zm46.839,0h2.525V3h-2.525Z" transform="translate(1043 2387)" fill="#00223d"/>
    </g>
  </g>
</svg>
