<svg xmlns="http://www.w3.org/2000/svg" width="124" height="124" viewBox="0 0 124 124">
  <g id="Grupo_959099" data-name="Grupo 959099" transform="translate(-1020 -520)">
    <rect id="Rectángulo_340128" data-name="Rectángulo 340128" width="124" height="124" transform="translate(1020 520)" fill="#80cab6"/>
    <g id="plan" transform="translate(1039.712 495.296)">
      <g id="Grupo_958778" data-name="Grupo 958778" transform="translate(1.251 54.956)">
        <path id="Trazado_724332" data-name="Trazado 724332" d="M7.511,156.773H87.553a3.4,3.4,0,0,1,2.748,2.748v43.484a3.407,3.407,0,0,1-2.748,2.748H15.468a7.958,7.958,0,0,1-7.957-7.961V156.773Z" transform="translate(-7.511 -140.856)" fill="#ecf4ff" fill-rule="evenodd"/>
        <path id="Trazado_724333" data-name="Trazado 724333" d="M15.468,61.218a7.954,7.954,0,0,0-7.957,7.956v48.98a7.954,7.954,0,0,1,7.957-7.956,7.434,7.434,0,0,1,3.948,1.044.553.553,0,0,0,.85-.519V63.839A1.936,1.936,0,0,0,19.3,62.2,7.873,7.873,0,0,0,15.468,61.218Z" transform="translate(-7.511 -61.218)" fill="#cbe2ff" fill-rule="evenodd"/>
        <path id="Trazado_724334" data-name="Trazado 724334" d="M125.226,195.041h11.89a1.219,1.219,0,0,1,1.214,1.213V208.14a1.216,1.216,0,0,1-1.214,1.214h-11.89a1.212,1.212,0,0,1-1.209-1.214V196.255A1.215,1.215,0,0,1,125.226,195.041Z" transform="translate(-104.61 -172.749)" fill="#cbe2ff" fill-rule="evenodd"/>
        <path id="Trazado_724335" data-name="Trazado 724335" d="M411.047,107.53l-5.577-1.7-5.1,1.7v39.8l5.369,1.4,5.307-1.4Z" transform="translate(-334.929 -98.403)" fill="#ff6978" fill-rule="evenodd"/>
        <path id="Trazado_724336" data-name="Trazado 724336" d="M406.382,364.1l2-3.929,2.668-5.256H400.371l2.668,5.256,2,3.929A.733.733,0,0,0,406.382,364.1Z" transform="translate(-334.929 -305.992)" fill="#ffcbbe" fill-rule="evenodd"/>
        <path id="Trazado_724337" data-name="Trazado 724337" d="M411.047,70.345V64.481a3.273,3.273,0,0,0-3.263-3.263h-4.146a3.274,3.274,0,0,0-3.268,3.263v5.865Z" transform="translate(-334.929 -61.218)" fill="#ff8793" fill-rule="evenodd"/>
        <path id="Trazado_724338" data-name="Trazado 724338" d="M117.757,378.7H125.9l1.336-4.419-1.336-3.438h-8.141a2.532,2.532,0,0,0-2.045,2.049v3.763a2.532,2.532,0,0,0,2.045,2.044Z" transform="translate(-97.688 -319.269)" fill="#f2ce7e" fill-rule="evenodd"/>
        <path id="Trazado_724339" data-name="Trazado 724339" d="M176.856,336.84h10.19l1.393-5.024-1.393-7.73v-1.421A2.532,2.532,0,0,0,185,320.616h-6.091a2.532,2.532,0,0,0-2.049,2.049V336.84Z" transform="translate(-148.647 -277.406)" fill="#b3e59f" fill-rule="evenodd"/>
        <path id="Trazado_724340" data-name="Trazado 724340" d="M238.028,354.2h10.185l1.029-3.385-1.029-4.472V343.5a2.532,2.532,0,0,0-2.049-2.045h-8.136Z" transform="translate(-199.629 -294.77)" fill="#f2ce7e" fill-rule="evenodd"/>
        <path id="Trazado_724341" data-name="Trazado 724341" d="M299.172,378.7h8.141a2.532,2.532,0,0,0,2.045-2.044V372.9a2.532,2.532,0,0,0-2.045-2.049h-8.141Z" transform="translate(-250.588 -319.269)" fill="#b3e59f" fill-rule="evenodd"/>
        <path id="Trazado_724342" data-name="Trazado 724342" d="M86.937,201.711H14.852a7.921,7.921,0,0,1-3.23-.685,7.953,7.953,0,0,0,7.272,4.726H90.979a3.407,3.407,0,0,0,2.748-2.748V159.521a3.4,3.4,0,0,0-2.748-2.748H89.685v42.19A3.407,3.407,0,0,1,86.937,201.711Z" transform="translate(-10.937 -140.856)" fill="#cbe2ff" fill-rule="evenodd"/>
        <path id="Trazado_724343" data-name="Trazado 724343" d="M45.944,77.135v33.091a7.2,7.2,0,0,1,3.192,1.015.553.553,0,0,0,.85-.519V63.838a1.936,1.936,0,0,0-.968-1.643,7.874,7.874,0,0,0-3.829-.977,8.107,8.107,0,0,0-2.016.255,8.1,8.1,0,0,1,1.8.722,1.936,1.936,0,0,1,.968,1.643v13.3Z" transform="translate(-37.232 -61.218)" fill="#bed8fb" fill-rule="evenodd"/>
        <path id="Trazado_724344" data-name="Trazado 724344" d="M440.2,116.011v39.8h4.042v-39.8Z" transform="translate(-368.122 -106.884)" fill="#eb616f" fill-rule="evenodd"/>
        <path id="Trazado_724345" data-name="Trazado 724345" d="M423.849,64.481v5.865h4.042V64.481a3.273,3.273,0,0,0-3.263-3.263h-4.047A3.274,3.274,0,0,1,423.849,64.481Z" transform="translate(-351.772 -61.218)" fill="#f77b87" fill-rule="evenodd"/>
      </g>
      <path id="Trazado_724346" data-name="Trazado 724346" d="M76.123,62.836V58.218A2.031,2.031,0,0,0,74.106,56.2H69.961a2.023,2.023,0,0,0-2.016,2.016v4.618h8.178ZM23.9,85.289a1.249,1.249,0,1,1,1.766-1.766L26.8,84.661,29.961,81.5a1.25,1.25,0,1,1,1.766,1.771L27.685,87.31a1.251,1.251,0,0,1-1.766,0ZM70.782,70.873a1.249,1.249,0,1,1,2.5,0V97.094a1.249,1.249,0,1,1-2.5,0Zm-19.7,42.271h7.687v-5.359H51.087Zm8.934,2.5H19.275a1.254,1.254,0,0,1-1.251-1.251v-7.857a1.249,1.249,0,0,1,1.251-1.247h8.939V98.166a1.245,1.245,0,0,1,1.247-1.246H39.65A1.245,1.245,0,0,1,40.9,98.166v2.219h8.939a1.253,1.253,0,0,1,1.251,1.251v3.65h8.934a1.249,1.249,0,0,1,1.251,1.247v7.857a1.253,1.253,0,0,1-1.251,1.252Zm-19.124-2.5h7.687V102.888H40.9Zm-10.185,0H38.4V99.417H30.712Zm-10.19,0h7.692v-5.359H20.522Zm-5.27-43.522h50.19v-11.4A4.53,4.53,0,0,1,69.961,53.7h4.146a4.53,4.53,0,0,1,4.514,4.514v11.4h5.421a1.249,1.249,0,0,1,1.247,1.251v48.98a1.245,1.245,0,0,1-1.247,1.247H49.453a1.249,1.249,0,0,1,0-2.5H82.79V72.12H78.621v9.033a1.249,1.249,0,1,1-2.5,0V65.334H67.944v37.3h8.178V86.814a1.249,1.249,0,1,1,2.5,0v17.065a1.326,1.326,0,0,1-.213.708l-5.26,10.36a1.27,1.27,0,0,1-.557.557,1.244,1.244,0,0,1-1.671-.552L65.64,104.564a1.329,1.329,0,0,1-.2-.685V72.12H15.252v9.453a1.249,1.249,0,1,1-2.5,0V57.213A6.626,6.626,0,0,0,9.208,56.2a6.707,6.707,0,0,0-6.71,6.71v42.676c.066-.071.132-.142.2-.208a9.183,9.183,0,0,1,6.512-2.7,9.324,9.324,0,0,1,2.928.477c.208.071.416.151.619.236V87.235a1.249,1.249,0,1,1,2.5,0v18.307a1.249,1.249,0,0,1-2,.992,6.542,6.542,0,0,0-1.908-1.006A6.712,6.712,0,1,0,9.208,118.6H43.8a1.249,1.249,0,0,1,0,2.5H9.208A9.205,9.205,0,0,1,0,111.892V62.912a9.208,9.208,0,0,1,14.695-7.395,1.258,1.258,0,0,1,.557,1.044V69.622Zm60.087,35.509H68.723l3.31,6.512Zm-16.7-27.939a1.249,1.249,0,0,1,0,2.5H41.733a1.249,1.249,0,0,1,0-2.5ZM51.611,89.119a1.249,1.249,0,1,1,0,2.5H41.733a1.249,1.249,0,0,1,0-2.5Zm7.031-5.964a1.249,1.249,0,0,1,0,2.5H41.733a1.249,1.249,0,0,1,0-2.5ZM20.658,76H34.971a1.249,1.249,0,0,1,1.247,1.251V91.56a1.249,1.249,0,0,1-1.247,1.251H20.658a1.25,1.25,0,0,1-1.251-1.251V77.248A1.25,1.25,0,0,1,20.658,76ZM33.72,78.5H21.905V90.313H33.72Z" transform="translate(0 0)"/>
    </g>
  </g>
</svg>
