<svg xmlns="http://www.w3.org/2000/svg" width="100.135" height="100.161" viewBox="0 0 100.135 100.161">
  <g id="atmosfera_1_" data-name="atmosfera (1)" transform="translate(-0.067)">
    <path id="Trazado_722512" data-name="Trazado 722512" d="M217.736,15.142a61.744,61.744,0,0,0-30.2-7.856V68.979h62.036A62.007,62.007,0,0,0,217.736,15.142Z" transform="translate(-150.792 -5.861)" fill="#6dc9fc"/>
    <path id="Trazado_722513" data-name="Trazado 722513" d="M213.39,59.642a52.861,52.861,0,0,0-25.857-6.725v52.766h53.109A53.085,53.085,0,0,0,213.39,59.642Z" transform="translate(-150.792 -42.565)" fill="#aaddf9"/>
    <path id="Trazado_722514" data-name="Trazado 722514" d="M209.044,104.144a43.976,43.976,0,0,0-21.511-5.6v43.839h44.18A44.159,44.159,0,0,0,209.044,104.144Z" transform="translate(-150.792 -79.27)" fill="#d4ebf9"/>
    <circle id="Elipse_5606" data-name="Elipse 5606" cx="35.256" cy="35.256" r="35.256" transform="translate(1.484 28.208)" fill="#21d8de"/>
    <path id="Trazado_722515" data-name="Trazado 722515" d="M181.271,148.639a35.1,35.1,0,0,0-22.813-4.006,35.259,35.259,0,0,1-.049,69.6,35.26,35.26,0,0,0,22.862-65.594Z" transform="translate(-127.366 -115.969)" fill="#11b9c1"/>
    <g id="Grupo_958101" data-name="Grupo 958101" transform="translate(9.693 28.204)">
      <path id="Trazado_722516" data-name="Trazado 722516" d="M75.26,191.125c-3.619-2.129-2.628-15.419-11.769-15.774-2.926-.114-8.58-8.457-7.282-10,3.15-3.753-.309-6.385,2.445-8.33,1.5-1.058,3.3-2.183,4.64-.17s-1.167,4.416.332,5.178,3.1-1.755,4.781-3.445,3.672.254,4.885-.52a11.646,11.646,0,0,1,6.46-2.265c3.082-.014,1.9-2.012,3.033-2.333s4.169,2.029,5.579,1.321c3.073-1.544,4.828-4.056,5.029-6.193a35.251,35.251,0,0,0-36.612,1.491l0,0a18.175,18.175,0,0,0-7.117,9.529c-1.787,6.816,3.035,13.706,5.362,16.53a1.78,1.78,0,0,1-.146,2.428c-1.934,1.825-5,5.725-1.974,10.153,4.183,6.132,3.184,7.923-.027,12.28a26.664,26.664,0,0,0-1.911,2.935q.313.324.636.641l.023.022q.312.306.633.6l.039.036q.314.292.636.577l.05.045q.318.281.644.554l.058.049q.325.272.659.537l.058.047q.337.267.682.526l.051.039q.354.265.715.522l.033.024q.377.268.763.527h0c3.324-.394,8-.413,9.934-2.393,2.612-2.68,12.732-1.286,14.564-6.077C81.739,198.665,78.879,193.254,75.26,191.125Z" transform="translate(-49.273 -144.173)" fill="#bbf44d"/>
      <path id="Trazado_722517" data-name="Trazado 722517" d="M266.014,241.5a35.27,35.27,0,0,0-5.277-41.5c.623,3.665,1.375,9.093.559,10.03-1.244,1.43-.98,4.165-.98,4.165s-5,2.559-6.829,6.235-1.5,12.013.017,13.209,7.051-.656,7.833,1.785c1.693,5.287-9.35,17.131-14.519,22.205A35.119,35.119,0,0,0,266.014,241.5Z" transform="translate(-208.173 -189.077)" fill="#bbf44d"/>
    </g>
    <g id="Grupo_958102" data-name="Grupo 958102" transform="translate(31.103 28.206)">
      <path id="Trazado_722518" data-name="Trazado 722518" d="M270.487,224.1c0-.088,0-.175,0-.263q-.006-.382-.019-.764c0-.058-.006-.115-.008-.173q-.013-.3-.03-.605c-.006-.1-.013-.2-.019-.293q-.016-.245-.036-.49-.013-.156-.027-.311c-.015-.163-.031-.326-.048-.488-.01-.1-.02-.2-.031-.293q-.034-.3-.074-.6c-.007-.057-.014-.113-.021-.17-.034-.249-.071-.5-.11-.747-.015-.094-.031-.188-.047-.282-.027-.162-.054-.324-.083-.485q-.028-.158-.059-.316-.043-.229-.09-.458c-.021-.1-.042-.208-.064-.312-.035-.166-.072-.331-.11-.5-.02-.087-.039-.175-.059-.262q-.085-.362-.178-.722c-.023-.089-.047-.178-.071-.266q-.064-.241-.131-.482c-.03-.105-.06-.21-.091-.316q-.063-.217-.129-.433c-.033-.107-.065-.214-.1-.321q-.07-.222-.143-.442c-.033-.1-.065-.2-.1-.3q-.106-.315-.219-.627c-.035-.1-.071-.194-.107-.291-.062-.167-.124-.335-.189-.5-.04-.1-.082-.207-.123-.31q-.082-.206-.166-.411-.067-.162-.135-.323-.085-.2-.174-.4c-.046-.1-.091-.209-.138-.313-.069-.153-.14-.306-.211-.458-.041-.088-.082-.177-.124-.266q-.153-.32-.313-.637c-.049-.1-.1-.2-.151-.294q-.1-.2-.206-.395-.084-.158-.169-.314-.1-.187-.206-.374-.087-.156-.176-.311c-.075-.13-.15-.259-.227-.388-.056-.094-.11-.189-.167-.283q-.189-.313-.384-.623c-.057-.09-.115-.178-.172-.267-.083-.129-.166-.258-.251-.385-.066-.1-.134-.2-.2-.3q-.119-.175-.239-.349-.1-.151-.211-.3c-.083-.117-.167-.233-.252-.349-.069-.1-.139-.191-.209-.285-.109-.146-.22-.291-.331-.435q-.141-.183-.285-.365c-.1-.133-.21-.265-.317-.4-.076-.093-.153-.185-.23-.277q-.137-.165-.276-.328-.121-.142-.243-.282-.14-.161-.282-.32c-.081-.091-.162-.182-.244-.272-.107-.117-.215-.233-.324-.349-.072-.076-.142-.154-.215-.23h0c.623,3.665,1.375,9.093.559,10.03-1.244,1.43-.98,4.165-.98,4.165a21.118,21.118,0,0,0-2.285,1.418,35.179,35.179,0,0,1-.263,18.452c1.644,0,3.183.157,3.568,1.359,1.692,5.286-9.346,17.127-14.516,22.2q.445-.155.885-.321l.371-.143c.316-.123.63-.25.942-.382.105-.045.21-.092.315-.138q.385-.168.766-.345c.106-.049.212-.1.317-.147.307-.146.611-.3.914-.453q.175-.09.35-.182.452-.238.9-.488c.1-.058.205-.118.308-.178q.387-.223.768-.457c.092-.057.185-.112.277-.17.287-.179.57-.363.852-.551.1-.066.2-.132.3-.2q.436-.3.864-.607c.091-.066.181-.133.271-.2q.418-.309.827-.63l.191-.152q.4-.318.788-.649c.076-.064.151-.127.226-.192q.419-.361.827-.737l.223-.207c.277-.259.552-.522.822-.791.046-.046.091-.093.137-.139q.378-.381.745-.776c.05-.053.1-.106.149-.16q.394-.429.775-.873l.177-.207q.381-.45.749-.914l.126-.162q.357-.457.7-.928l.073-.1q.36-.5.7-1.012l.136-.2q.336-.507.657-1.029l.115-.19c.221-.366.439-.735.649-1.112h0l0,0q.2-.364.395-.73c.041-.079.082-.158.122-.237q.132-.255.26-.511c.045-.089.088-.179.132-.269q.122-.25.239-.5c.04-.086.081-.171.12-.257q.136-.3.267-.6c.023-.052.046-.1.069-.156q.162-.376.314-.754c.028-.069.054-.138.081-.207q.11-.278.216-.556c.034-.091.067-.181.1-.272q.093-.254.182-.508.048-.137.1-.275.094-.274.182-.55c.024-.074.049-.148.072-.222q.121-.383.232-.767c.014-.049.027-.1.041-.146q.09-.315.174-.63c.023-.088.046-.177.068-.265q.067-.26.13-.52.034-.142.067-.285.061-.264.118-.528c.019-.086.038-.172.056-.258q.074-.356.14-.712c0-.023.009-.046.013-.069q.071-.388.133-.776c.014-.085.026-.169.039-.254.027-.178.054-.356.078-.534.014-.1.026-.195.039-.292q.033-.256.062-.513c.011-.094.022-.188.032-.282q.031-.294.057-.589c.006-.066.013-.132.018-.2q.032-.387.056-.774c0-.076.008-.151.012-.227.01-.186.019-.372.026-.559,0-.1.007-.2.01-.295q.008-.25.012-.5c0-.1,0-.2,0-.3C270.489,224.449,270.489,224.274,270.487,224.1Z" transform="translate(-229.592 -189.079)" fill="#a2d82b"/>
      <path id="Trazado_722519" data-name="Trazado 722519" d="M170.174,148.646a35.3,35.3,0,0,1,7.379,5.477,8.008,8.008,0,0,0,3.874-5.527q-.55-.3-1.105-.586L180.3,148q-.54-.274-1.085-.527l-.09-.042q-1.1-.507-2.211-.933l-.063-.024q-.547-.208-1.1-.4l-.1-.034q-1.105-.375-2.223-.673l-.112-.03q-.544-.143-1.09-.268l-.126-.028q-1.1-.248-2.207-.424l-.166-.026q-.532-.082-1.066-.148l-.158-.018q-.521-.061-1.042-.108l-.068-.006c-.354-.03-.708-.054-1.061-.073l-.218-.012q-.517-.026-1.033-.036l-.185,0q-.477-.007-.953,0h-.159c-.339.006-.678.018-1.016.033l-.255.013q-.5.027-1,.067l-.2.018q-.447.039-.893.09l-.217.024q-.491.059-.98.132l-.27.041c-.078.012-.155.027-.233.039A35.181,35.181,0,0,1,170.174,148.646Z" transform="translate(-158.717 -144.182)" fill="#a2d82b"/>
    </g>
    <path id="Trazado_722520" data-name="Trazado 722520" d="M91.63,31.606A63.508,63.508,0,0,0,36.8,0h-.057a1.425,1.425,0,0,0-1.424,1.425V26.793a36.683,36.683,0,0,0-18.9,6.131l-.013.009q-.34.227-.674.473a36.672,36.672,0,0,0-5.407,55.5c.015.017.026.035.042.051.143.148.289.292.434.438l.007.007c.074.074.146.149.221.223l.024.023c.107.1.218.208.327.312l.13.124c.069.065.135.131.2.2l.038.036c.084.078.171.154.255.231l.214.194c.066.059.129.119.2.178l.049.043c.062.055.126.108.189.162q.158.137.317.273c.055.046.108.094.163.14l.061.052c.047.039.1.077.143.116q.194.161.391.319l.155.126.058.046.1.081q.234.184.472.364l.134.1.051.038.113.083.246.182c.13.095.262.19.4.286l.024.017.048.033q.323.229.652.451l.093.064.016.01q1.254.841,2.594,1.591a36.681,36.681,0,0,0,48.583-12l.066-.1c.127-.2.253-.393.376-.592.063-.1.125-.206.187-.309.084-.139.169-.277.251-.417q.221-.375.434-.756c.138-.247.271-.495.4-.744.039-.075.078-.15.117-.224q.139-.268.275-.538l.121-.245q.135-.276.266-.553c.033-.07.066-.139.1-.209q.167-.36.326-.723l.017-.038q.178-.408.345-.82l.016-.04q.152-.375.3-.753l.055-.146q.126-.335.245-.671l.053-.151q.127-.365.247-.732l.024-.073q.264-.82.489-1.649c.016-.061.032-.122.048-.183q.081-.3.156-.609.034-.137.067-.274.062-.258.119-.518c.024-.107.048-.214.071-.321.032-.151.063-.3.093-.453q.172-.857.3-1.721c.005-.034.011-.067.015-.1q.05-.34.094-.682l0-.035q.228-1.778.279-3.574H98.777a1.425,1.425,0,0,0,1.425-1.435A63.811,63.811,0,0,0,91.63,31.606ZM12.149,84.189c-.362.491-.69.96-.99,1.414A33.888,33.888,0,0,1,7.191,46.993q.562-1.009,1.183-1.963c-.832,6.883,3.8,13.418,5.969,16.049a.357.357,0,0,1-.024.485c-4,3.778-4.8,8.149-2.174,11.993C15.913,79.081,15.116,80.162,12.149,84.189ZM47.563,95.517q-.779.262-1.575.489A33.587,33.587,0,0,1,21.564,93.7c2.522-.311,4.988-.87,6.457-2.377.758-.778,3.118-1.189,5.2-1.551,3.9-.678,8.311-1.446,9.674-5.011.638-1.667-.649-4.209-1.473-5.575a15.411,15.411,0,0,0-5.02-5.255c-.81-.477-1.507-2.646-1.882-3.812a1.425,1.425,0,1,0-2.714.872c.74,2.3,1.537,4.448,3.151,5.4,3.2,1.884,5.375,6.377,5.261,7.394-.815,2.022-4.357,2.638-7.485,3.182-2.752.479-5.351.931-6.753,2.37-1.208,1.239-4.473,1.536-7.1,1.775-.5.046-.983.089-1.448.138l-.245-.172L17,90.934q-.262-.188-.519-.379l-.248-.188q-.211-.16-.417-.322c-.1-.081-.2-.162-.306-.244s-.232-.188-.346-.282-.244-.2-.364-.306l-.261-.224q-.219-.19-.434-.383l-.157-.143q-.392-.357-.77-.726c.362-.582.783-1.2,1.27-1.857,1.748-2.372,2.905-4.085,3.061-6.217s-.715-4.358-3-7.712c-2.277-3.338-.291-6.363,1.776-8.313a3.215,3.215,0,0,0,.268-4.371C14.472,56.751,9.829,50.231,11.461,44a16.619,16.619,0,0,1,5.9-8.258A34.06,34.06,0,0,1,36.8,29.64a33.671,33.671,0,0,1,5.949.533c.123.022.247.042.371.066s.229.048.344.071c.25.051.5.1.748.157l.029.007a33.948,33.948,0,0,1,5.056,1.576l.18.074c.264.107.526.217.788.33.146.064.291.131.437.2.178.08.356.16.532.243q.433.206.862.425l.1.051a7.91,7.91,0,0,1-4.014,4.15,7.273,7.273,0,0,1-2.113-.7c-1.216-.526-2.266-.981-3.251-.7a2.374,2.374,0,0,0-1.61,1.807,2.438,2.438,0,0,1-.112.325,1.819,1.819,0,0,1-.929.147,12.827,12.827,0,0,0-7.059,2.386L33,40.857a4.416,4.416,0,0,1-.8-.143,4.245,4.245,0,0,0-4.378.891c-.407.409-.8.851-1.177,1.278a18.237,18.237,0,0,1-1.476,1.536l0-.013A4.891,4.891,0,0,0,24.9,40.09,3.639,3.639,0,0,0,22.53,38.4c-1.58-.3-3.037.614-4.277,1.489-1.991,1.406-1.816,3.256-1.688,4.606a4.532,4.532,0,0,1-1.027,3.972c-.739.88-.7,2.217.132,4.085a21.3,21.3,0,0,0,3.419,5.172c1.775,1.994,3.379,3.032,4.767,3.086,2.568.1,4.344,1.383,5.757,4.161a1.425,1.425,0,0,0,2.541-1.293c-1.886-3.706-4.564-5.575-8.187-5.716-.261-.01-1.294-.447-2.915-2.322a13.727,13.727,0,0,1-3.187-5.516,7.272,7.272,0,0,0,1.538-5.9c-.125-1.32-.1-1.589.494-2.008.473-.334,1.579-1.116,2.109-1.016.2.037.393.276.523.47.3.452.163,1.039-.1,1.953s-.805,2.8.973,3.707c2.143,1.088,3.933-.93,5.372-2.552.352-.4.716-.808,1.065-1.159.373-.374.682-.364,1.713-.125a3.607,3.607,0,0,0,2.929-.2l.166-.106a9.986,9.986,0,0,1,5.534-1.935c2.71-.013,3.4-1.43,3.679-2.252.329.116.755.3,1.076.44,1.455.63,3.1,1.345,4.491.649A10.956,10.956,0,0,0,54.707,34.8a33.691,33.691,0,0,1,6.226,5.027c.92,5.544.9,7.909.727,8.488A7,7,0,0,0,60.389,52.5c-1.587.937-5.092,3.274-6.656,6.423a19.2,19.2,0,0,0-1.392,8.192c.032,2.022.31,5.59,1.8,6.769,1.028.812,2.589.78,4.239.746.739-.015,2.986-.062,3.119.356C62.49,78.078,56.9,86.311,47.563,95.517Zm22.755-27.8-.015.116q-.036.279-.077.557c-.01.068-.021.137-.032.205-.025.166-.051.332-.079.5q-.057.338-.121.675c-.016.084-.034.167-.05.251-.034.171-.068.343-.105.514-.017.081-.036.162-.054.243q-.06.268-.123.535l-.05.208q-.076.308-.158.615l-.032.122q-.21.776-.458,1.543l-.01.03q-.116.357-.24.712l-.041.118q-.114.322-.234.642l-.044.117q-.136.358-.281.715l-.008.019q-.156.382-.321.762l-.01.023q-.148.34-.305.678l-.09.191q-.121.256-.246.512l-.112.227q-.123.246-.251.491c-.037.071-.073.142-.111.213q-.177.335-.361.667l-.009.017h0q-.242.434-.5.859c-.04.067-.081.133-.121.2q-.214.353-.435.7l-.086.135A33.767,33.767,0,0,1,54.757,92.1c1.522-1.7,3.109-3.587,4.554-5.512,4.2-5.59,5.8-9.67,4.9-12.473-.673-2.1-2.952-2.349-4.949-2.349-.325,0-.642.007-.944.013a9.328,9.328,0,0,1-2.393-.126c-.246-.371-.729-1.989-.742-4.871a16.376,16.376,0,0,1,1.1-6.591c1.591-3.2,6.157-5.578,6.2-5.6a1.425,1.425,0,0,0,.77-1.406,5,5,0,0,1,.637-3.093c.565-.649.884-1.756.6-5.048-.028-.327-.061-.672-.1-1.032a34.045,34.045,0,0,1,4.212,8.133c.023.064.043.128.066.191.095.271.187.542.275.815.032.1.062.2.093.3.076.242.15.485.22.729.03.105.059.211.088.317.067.244.133.489.2.736.025.1.049.2.074.3q.094.385.179.773.029.135.058.27.086.409.161.82c.015.079.029.159.043.238q.075.428.139.858c.011.074.023.147.033.221a33.731,33.731,0,0,1,.34,4.419c0,.02,0,.04,0,.06A33.678,33.678,0,0,1,70.318,67.72Zm20.927-6.027A54.839,54.839,0,0,0,83.9,36.066a54.451,54.451,0,0,0-20.6-20.233,55.117,55.117,0,0,0-7.265-3.383,1.425,1.425,0,0,0-1.011,2.665A52.288,52.288,0,0,1,61.9,18.322,51.6,51.6,0,0,1,81.43,37.5a51.987,51.987,0,0,1,6.964,24.2H82.31a45.834,45.834,0,0,0-1.627-10.409,1.425,1.425,0,1,0-2.747.761,42.977,42.977,0,0,1,1.521,9.648H73.389a36.92,36.92,0,0,0-1.182-7.576l-.014-.052c-.056-.209-.111-.418-.17-.627-.031-.109-.065-.217-.1-.325l-.043-.146q-.139-.467-.29-.929l-.021-.064a36.374,36.374,0,0,0-14.837-19.26l-.081-.052q-.427-.275-.863-.54l-.214-.13c-.323-.193-.649-.383-.979-.568l-.095-.051h0l-.008,0q-.4-.222-.805-.433l-.211-.108-.016-.008-.2-.1c-.17-.086-.341-.171-.512-.255l-.208-.1-.24-.114-.115-.055c-.139-.064-.278-.126-.416-.189l-.148-.066c-.167-.074-.334-.149-.5-.22-.082-.035-.165-.068-.247-.1l-.143-.059-.036-.015q-.3-.124-.6-.243-.2-.078-.4-.153c-.216-.082-.432-.16-.649-.237q-.489-.175-.98-.335c-.1-.033-.205-.068-.308-.1-.259-.082-.518-.159-.778-.235l-.123-.036A36.516,36.516,0,0,0,38.166,26.8V20.727a42.807,42.807,0,0,1,19.392,5.392A42.375,42.375,0,0,1,75.765,46a1.425,1.425,0,0,0,2.6-1.161A45.2,45.2,0,0,0,58.945,23.63a45.66,45.66,0,0,0-20.78-5.754V11.8A51.458,51.458,0,0,1,48.823,13.2a1.425,1.425,0,1,0,.667-2.771A54.037,54.037,0,0,0,38.165,8.944V2.866A60.606,60.606,0,0,1,97.324,61.693Z" transform="translate(0)"/>
  </g>
</svg>
