<svg xmlns="http://www.w3.org/2000/svg" width="94" height="94" viewBox="0 0 94 94">
  <g id="Grupo_958148" data-name="Grupo 958148" transform="translate(-358 -9614)">
    <g id="planeta-tierra" transform="translate(359.203 9614.999)">
      <path id="Trazado_722585" data-name="Trazado 722585" d="M76.938,93.255a44.575,44.575,0,1,1,16.315-60.89A44.574,44.574,0,0,1,76.938,93.255Z" transform="translate(-8.243 -8.244)" fill="#78d2fa"/>
      <g id="Grupo_958147" data-name="Grupo 958147" transform="translate(2.109 1.944)">
        <path id="Trazado_722586" data-name="Trazado 722586" d="M164.418,167.561a3.742,3.742,0,0,0-1.211.449c-.336.269.189.619,0,.772-.331.265-.571.745-1.279.7-1.479-.094-3.753-2.008-5.1-2.731,2.179-2.243-1.269-2.579-2.612-2.466-1.74.146-4.751-.011-6.323.874-1.091.614-2.557,3.164-3.436,4.176a19.288,19.288,0,0,0-3.252,4.32c-2.924,6.19,1.577,13.3,8.651,12.465,1.964-.231,4.024-1.466,5.765.164,1.283,1.2.6,2.331.944,3.731.294,1.212,1.636,1.957,2.1,3.07.89,2.133.327,3.467-.309,5.435-.834,2.582,1.323,5.647,2.162,8.139.423,1.255,1.655,4.768,2.864,5.318,1.9.865,4.882-1.728,6.018-3.123.888-1.09.6-2.2,1.194-3.218.645-1.1,1.462-1.436,1.914-2.861a6.646,6.646,0,0,1,2.023-3.037c1.657-1.8,1.4-2.857.737-5-1.377-4.442,3.623-6.518,5.876-9.778,2.352-3.4-2.194-2.27-3.976-3.434-1.832-1.2-2.632-3.473-3.515-5.359s-1.614-4.722-3.076-6.271C169.444,168.705,166.018,168.152,164.418,167.561Z" transform="translate(-116.975 -136.436)" fill="#a5dc69"/>
        <path id="Trazado_722587" data-name="Trazado 722587" d="M367.416,331.994l-2.132,7.185c-.5,1.674-2.253,7.152-4.717,3.643-.937-1.333-.175-3.08.348-4.307.659-1.548-.232-2.327.228-3.793.527-1.68,2.7-1.737,3.721-2.918a17.548,17.548,0,0,0,1.68-3.1Q366.98,330.351,367.416,331.994Z" transform="translate(-296.963 -271.074)" fill="#a5dc69"/>
        <path id="Trazado_722588" data-name="Trazado 722588" d="M211.144,32.9A44.529,44.529,0,0,0,175.73,10.721L169.9,18.033l-12.493,4.38-3.352,8.125,5.17,7.242.55-1.531a6.435,6.435,0,0,1,6.057-4.261h8.521l9.794,3.442,3.373,3.22V40.7l4.69,8.984,1.366-.5a21.737,21.737,0,0,0,7.85-5.024l-1.132-1.7a.813.813,0,0,1,.676-1.263H203.7a2.736,2.736,0,0,1,2.08.959l2.233,2.614a2.737,2.737,0,0,1,.491.842l2.464,6.775,1.173-1.173a4.007,4.007,0,0,0,1.131-2.793,3.014,3.014,0,0,1,1.008-2.2l.9-.8a3.025,3.025,0,0,1,.746-.489A44.582,44.582,0,0,0,211.144,32.9Z" transform="translate(-128.243 -10.721)" fill="#a5dc69"/>
        <path id="Trazado_722589" data-name="Trazado 722589" d="M28.487,86.457l2.132-2.285a5.824,5.824,0,0,0,1.127-6.192h0a6.5,6.5,0,0,0-5.158-3.97,44.577,44.577,0,0,0-14.177,26.91,36.631,36.631,0,0,1,3.4,3.15c-.019.263,6.236-.786,6.236-.786l-3.22-4.724,4.625-3.307Z" transform="translate(-12.271 -62.539)" fill="#a5dc69"/>
        <path id="Trazado_722590" data-name="Trazado 722590" d="M32.188,292.665a3.826,3.826,0,0,0,2.457-4.821l-.574-1.767a3.825,3.825,0,0,1,0-2.375h0a3.826,3.826,0,0,0-2.9-4.947l-4.5-.88-8.228-6.256-6.8,2.21a44.69,44.69,0,0,0,16.723,30l2.027-10.581Z" transform="translate(-11.637 -224.333)" fill="#a5dc69"/>
      </g>
      <path id="Trazado_722591" data-name="Trazado 722591" d="M369.6,459.282l-.07.04a1.812,1.812,0,1,0,1.819,3.135l.07-.04a1.812,1.812,0,1,0-1.819-3.135Z" transform="translate(-301.818 -375.838)"/>
      <path id="Trazado_722592" data-name="Trazado 722592" d="M86.579,23.214A46.387,46.387,0,0,0,1.6,34.4,46.395,46.395,0,0,0,63,89.732a1.812,1.812,0,0,0-1.3-3.383A42.488,42.488,0,0,1,20.814,80.73l1.624-8.476L23.22,72a5.645,5.645,0,0,0,3.62-7.1l-.574-1.767a2,2,0,0,1,0-1.25,5.639,5.639,0,0,0-4.276-7.291l-4.091-.8-7.893-6a1.813,1.813,0,0,0-1.657-.281l-4.621,1.5a42.727,42.727,0,0,1-.006-4.949c.182.17.3.285.374.361a1.9,1.9,0,0,0,1.771.908,26.325,26.325,0,0,0,3.248-.37c1.529-.226,3.05-.481,3.065-.483a1.812,1.812,0,0,0,1.2-2.808l-2.222-3.259,3.183-2.276a1.814,1.814,0,0,0,.519-.573l4.934-8.614,1.989-2.131a7.655,7.655,0,0,0,1.477-8.119,8.335,8.335,0,0,0-3.3-3.888A42.708,42.708,0,0,1,45.911,3.659l-3.236,4.06-12,4.207A1.811,1.811,0,0,0,29.6,12.945L26.247,21.07a1.813,1.813,0,0,0,.2,1.744l4.9,6.857a17.225,17.225,0,0,0-2.2,2.728c-.357.507-.695.986-.928,1.255-.2.234-.406.462-.607.688a16.96,16.96,0,0,0-2.915,4.046,10.8,10.8,0,0,0,.9,10.918,10.172,10.172,0,0,0,9.6,4.121,14.111,14.111,0,0,0,1.77-.357c1.554-.384,2.046-.423,2.544.044.243.227.265.27.26,1.04a7.045,7.045,0,0,0,.162,1.8,5.728,5.728,0,0,0,1.532,2.5,4.061,4.061,0,0,1,.657.838c.565,1.355.319,2.1-.22,3.749q-.069.211-.141.431c-.819,2.537.323,5.053,1.331,7.272.327.721.636,1.4.839,2,1.63,4.835,2.851,5.943,3.832,6.389a3.777,3.777,0,0,0,1.582.336c2.613,0,5.339-2.426,6.591-3.964a5.57,5.57,0,0,0,1.122-2.639,2.889,2.889,0,0,1,.232-.81,4.749,4.749,0,0,1,.594-.764,6.289,6.289,0,0,0,1.482-2.462,3.988,3.988,0,0,1,1.23-1.93c.125-.132.258-.274.4-.429,2.414-2.627,1.792-4.633,1.134-6.758-.554-1.788.415-2.931,2.758-5.113a19.583,19.583,0,0,0,2.878-3.1c.355-.514,1.436-2.079.767-3.63-.656-1.521-2.322-1.776-3.66-1.981a6.005,6.005,0,0,1-1.582-.37c-1.121-.733-1.807-2.263-2.471-3.743-.132-.295-.262-.585-.395-.867-.236-.5-.471-1.113-.72-1.758a15.2,15.2,0,0,0-2.679-4.989c-1.143-1.212-3.3-1.8-5.2-2.31-.64-.173-1.243-.337-1.642-.484A1.81,1.81,0,0,0,49.14,31.3a4.7,4.7,0,0,0-1.932.8,2.251,2.251,0,0,0-.645.868,20.729,20.729,0,0,1-2.137-1.3l-.035-.023a2.57,2.57,0,0,0-.161-1.744c-1.013-2.142-4.373-1.974-5.036-1.918-.377.032-.853.048-1.357.066-.792.028-1.667.06-2.533.157l.045-.124A4.634,4.634,0,0,1,39.7,25.023h1.03a1.812,1.812,0,0,0,0-3.625H39.7a8.273,8.273,0,0,0-7.016,3.913l-2.7-3.787,2.66-6.447,11.727-4.112a1.813,1.813,0,0,0,.818-.581L50.4,3.846a42.74,42.74,0,0,1,33.044,21.18A42.294,42.294,0,0,1,87.711,35.4l-.768.685a4.841,4.841,0,0,0-1.613,3.521c0,.015,0,.029,0,.044l-1.252-3.442a4.525,4.525,0,0,0-.816-1.4l-2.233-2.614A4.542,4.542,0,0,0,77.57,30.6H74.837a2.625,2.625,0,0,0-2.184,4.081l.277.415a20.086,20.086,0,0,1-5.984,3.553L63.2,31.474v-1.6a1.811,1.811,0,0,0-.561-1.311l-3.373-3.221a1.815,1.815,0,0,0-.651-.4l-3.037-1.067a1.812,1.812,0,1,0-1.2,3.42l2.669.938,2.531,2.415v1.27a1.813,1.813,0,0,0,.206.839l4.69,8.984A1.811,1.811,0,0,0,66.7,42.6l1.366-.5a23.718,23.718,0,0,0,8.5-5.443,1.812,1.812,0,0,0,.226-2.287l-.1-.145h.865a.923.923,0,0,1,.7.324l2.233,2.614a.921.921,0,0,1,.166.284l2.464,6.775a1.812,1.812,0,0,0,2.984.662l1.173-1.173a5.658,5.658,0,0,0,1.5-2.725,42.917,42.917,0,0,1-15.934,39.03,1.812,1.812,0,1,0,2.238,2.851A46.4,46.4,0,0,0,86.579,23.214ZM8.57,51.247l7.473,5.682a1.81,1.81,0,0,0,.749.336l4.5.88a2.014,2.014,0,0,1,1.527,2.6,5.6,5.6,0,0,0,0,3.5l.574,1.767A2.016,2.016,0,0,1,22.1,68.553l-1.8.585a1.812,1.812,0,0,0-1.22,1.383l-1.45,7.567a43.241,43.241,0,0,1-8.256-10.3A42.534,42.534,0,0,1,4.109,52.7ZM3.838,43.586a1.844,1.844,0,0,0,.03.234A1.751,1.751,0,0,1,3.838,43.586ZM19.908,18.075a4.022,4.022,0,0,1-.776,4.266L17,24.625a1.82,1.82,0,0,0-.248.336l-4.841,8.452-4.3,3.077a1.812,1.812,0,0,0-.443,2.5l1.609,2.361c-.928.138-1.76.252-2.314.312-.106-.1-.218-.206-.333-.312-.431-.4-1.029-.935-1.922-1.716A42.837,42.837,0,0,1,16.971,15.387,4.711,4.711,0,0,1,19.908,18.075Zm18.055,13.6c.549-.019,1.068-.038,1.531-.077a4.929,4.929,0,0,1,.772,0,1.812,1.812,0,0,0,.834,2.255c.34.182.813.5,1.314.832,1.416.944,3.022,2.015,4.53,2.111a3.007,3.007,0,0,0,2.462-1.026c.026-.026.051-.053.077-.077a1.942,1.942,0,0,0,.485-.594c.29.083.594.165.906.25,1.073.291,3.07.831,3.512,1.3a12.865,12.865,0,0,1,1.934,3.808c.272.705.53,1.371.818,1.988.124.265.246.538.37.814.836,1.865,1.784,3.98,3.8,5.294a7.492,7.492,0,0,0,3.016.919l.395.062a17.525,17.525,0,0,1-2.3,2.413c-2.244,2.089-5.036,4.69-3.75,8.838.607,1.959.635,2.171-.341,3.232-.133.145-.257.277-.373.4a7.447,7.447,0,0,0-2.043,3.315,2.829,2.829,0,0,1-.738,1.152,8.1,8.1,0,0,0-1.014,1.343,5.873,5.873,0,0,0-.656,1.925,2.22,2.22,0,0,1-.379,1.063,10.564,10.564,0,0,1-2.288,2.023,2.99,2.99,0,0,1-1.519.6c-.193-.207-.894-1.115-1.952-4.257-.261-.775-.623-1.572-.973-2.344-.772-1.7-1.57-3.458-1.182-4.66q.069-.213.136-.416c.62-1.89,1.206-3.675.121-6.274a6.536,6.536,0,0,0-1.319-1.88,3.369,3.369,0,0,1-.692-.919,3.918,3.918,0,0,1-.059-.917,4.5,4.5,0,0,0-1.407-3.71c-2.006-1.877-4.344-1.3-5.892-.916a11.369,11.369,0,0,1-1.323.275,6.511,6.511,0,0,1-6.238-2.637,7.175,7.175,0,0,1-.562-7.254,13.761,13.761,0,0,1,2.346-3.186c.21-.237.423-.476.635-.72.353-.407.742-.959,1.154-1.543a13.1,13.1,0,0,1,1.8-2.242A11.629,11.629,0,0,1,37.963,31.674Z" transform="translate(0 0)"/>
      <path id="Trazado_722593" data-name="Trazado 722593" d="M354.481,337.562c1.849-.3,3.238-2.225,4.374-6.052l2.132-7.185a1.813,1.813,0,0,0,.014-.981l-.872-3.287a1.812,1.812,0,0,0-3.345-.4c-.2.366-.378.754-.55,1.129a7.787,7.787,0,0,1-.9,1.643,4,4,0,0,1-1.064.631A4.983,4.983,0,0,0,351.247,326a5.31,5.31,0,0,0-.12,2.557,1.649,1.649,0,0,1-.046,1.068l-.018.042c-.577,1.354-1.65,3.874-.145,6.016A3.775,3.775,0,0,0,354,337.6,2.941,2.941,0,0,0,354.481,337.562Zm-.6-3.966c-.346-.493.171-1.708.514-2.513l.018-.042a5.1,5.1,0,0,0,.3-3.02,1.9,1.9,0,0,1-.007-.941c.071-.226.5-.445,1.135-.754.284-.137.6-.288.911-.47l-1.371,4.622a11,11,0,0,1-1.387,3.266C353.96,333.7,353.923,333.652,353.883,333.6Z" transform="translate(-286.687 -260.945)"/>
      <path id="Trazado_722594" data-name="Trazado 722594" d="M258.456,118.162a1.812,1.812,0,0,0-1.2,3.42l.122.043a1.812,1.812,0,1,0,1.2-3.42Z" transform="translate(-209.637 -96.661)"/>
    </g>
    <path id="idioma" d="M47,0A47,47,0,1,0,94,47,47,47,0,0,0,47,0ZM87.648,63.465,74.282,65.772a70.137,70.137,0,0,0,2.459-17.205H90.828a43.576,43.576,0,0,1-3.179,14.9ZM3.172,48.567H17.259a70.138,70.138,0,0,0,2.459,17.205L6.352,63.465a43.576,43.576,0,0,1-3.179-14.9ZM6.352,30.535l13.366-2.306a70.138,70.138,0,0,0-2.459,17.205H3.172a43.576,43.576,0,0,1,3.179-14.9Zm42.215-5.38a107.776,107.776,0,0,1,16.795,1.534l5.53.954a67.248,67.248,0,0,1,2.718,17.791H48.567ZM65.9,23.6a111.051,111.051,0,0,0-17.329-1.579V3.221c8.982.863,16.784,9.086,21.205,21.054ZM45.433,22.021A111.031,111.031,0,0,0,28.106,23.6l-3.878.671C28.65,12.3,36.452,4.073,45.433,3.214ZM28.64,26.688a107.749,107.749,0,0,1,16.793-1.534V45.433H20.39a67.249,67.249,0,0,1,2.718-17.791ZM20.39,48.567H45.433V68.845a107.776,107.776,0,0,1-16.8-1.534l-5.53-.954A67.248,67.248,0,0,1,20.39,48.567ZM28.1,70.4a111.424,111.424,0,0,0,17.329,1.587v18.8C36.452,89.923,28.65,81.7,24.228,69.732Zm20.462,1.587A111.413,111.413,0,0,0,65.894,70.4l3.878-.671C65.35,81.7,57.548,89.927,48.567,90.785ZM65.36,67.312a107.748,107.748,0,0,1-16.793,1.534V48.567H73.61a67.249,67.249,0,0,1-2.718,17.791ZM76.741,45.433a70.138,70.138,0,0,0-2.459-17.205l13.366,2.306a43.576,43.576,0,0,1,3.179,14.9Zm9.322-18.352L73.251,24.871A43.2,43.2,0,0,0,60.786,5.365,44.074,44.074,0,0,1,86.063,27.082ZM33.214,5.365A43.2,43.2,0,0,0,20.749,24.871L7.937,27.081A44.075,44.075,0,0,1,33.214,5.365ZM7.937,66.918l12.813,2.211A43.2,43.2,0,0,0,33.214,88.634,44.074,44.074,0,0,1,7.937,66.918Zm52.85,21.716A43.2,43.2,0,0,0,73.251,69.129l12.813-2.211A44.075,44.075,0,0,1,60.786,88.635Zm0,0" transform="translate(358 9614)"/>
  </g>
</svg>
