<svg xmlns="http://www.w3.org/2000/svg" width="105" height="105" viewBox="0 0 105 105">
  <g id="Grupo_959103" data-name="Grupo 959103" transform="translate(-327 -1097)">
    <circle id="Elipse_5684" data-name="Elipse 5684" cx="52.5" cy="52.5" r="52.5" transform="translate(327 1097)" fill="#80cab6"/>
    <g id="lista-de-verificacion_1_" data-name="lista-de-verificacion (1)" transform="translate(354 1115)">
      <path id="Trazado_724395" data-name="Trazado 724395" d="M50.352,77.176H14.783A7.181,7.181,0,0,0,7.6,84.357V128.2a7.181,7.181,0,0,0,7.181,7.181H50.352a7.181,7.181,0,0,0,7.181-7.181V84.357A7.181,7.181,0,0,0,50.352,77.176Zm0,0" transform="translate(-6.566 -66.662)" fill="#ff8040"/>
      <path id="Trazado_724396" data-name="Trazado 724396" d="M49.812,164.885a1.658,1.658,0,0,1-1.656-1.656V119.387a1.658,1.658,0,0,1,1.656-1.656H85.381a1.658,1.658,0,0,1,1.656,1.656v43.842a1.658,1.658,0,0,1-1.656,1.656Zm0,0" transform="translate(-41.595 -101.691)" fill="#e4e4ef"/>
      <path id="Trazado_724397" data-name="Trazado 724397" d="M113.645,15.313h-2.862a6.707,6.707,0,1,0-13.339-1,6.863,6.863,0,0,0,.075,1H94.658a4.181,4.181,0,0,0-4.181,4.18v2.524a4.181,4.181,0,0,0,4.181,4.18h18.987a4.18,4.18,0,0,0,4.18-4.18V19.493a4.18,4.18,0,0,0-4.18-4.18Zm-9.493-.285a1.588,1.588,0,1,1,1.588-1.589,1.588,1.588,0,0,1-1.588,1.589Zm0,0" transform="translate(-78.15 -6.566)" fill="#ffbf3e"/>
      <path id="Trazado_724398" data-name="Trazado 724398" d="M174.211,31.2a2.624,2.624,0,1,0,2.624,2.624A2.627,2.627,0,0,0,174.211,31.2Zm0,3.177a.553.553,0,1,1,.552-.553A.553.553,0,0,1,174.211,34.372Zm0,0" transform="translate(-148.209 -26.945)"/>
      <path id="Trazado_724399" data-name="Trazado 724399" d="M81.4,177.456a1.13,1.13,0,0,0,.127-.007,1.036,1.036,0,0,0,.858-.705l2.9-8.84a1.036,1.036,0,1,0-1.969-.646L81.1,174l-1.175-1.865a1.036,1.036,0,1,0-1.753,1.1l2.348,3.73a1.036,1.036,0,0,0,.877.484Zm0,0" transform="translate(-67.387 -143.854)"/>
      <path id="Trazado_724400" data-name="Trazado 724400" d="M146.982,206.131h19.061a1.036,1.036,0,1,0,0-2.072H146.982a1.036,1.036,0,1,0,0,2.072Zm0,0" transform="translate(-126.062 -176.258)"/>
      <path id="Trazado_724401" data-name="Trazado 724401" d="M78.176,266.45l2.348,3.73a1.036,1.036,0,0,0,.877.484,1.137,1.137,0,0,0,.127-.007,1.036,1.036,0,0,0,.858-.705l2.9-8.84a1.036,1.036,0,1,0-1.969-.646L81.1,267.211l-1.175-1.865a1.036,1.036,0,0,0-1.753,1.1Zm0,0" transform="translate(-67.387 -224.362)"/>
      <path id="Trazado_724402" data-name="Trazado 724402" d="M146.982,299.338h19.061a1.036,1.036,0,0,0,0-2.072H146.982a1.036,1.036,0,1,0,0,2.072Zm0,0" transform="translate(-126.062 -256.767)"/>
      <path id="Trazado_724403" data-name="Trazado 724403" d="M78.176,359.658l2.348,3.73a1.035,1.035,0,0,0,.877.484,1.013,1.013,0,0,0,.127-.007,1.035,1.035,0,0,0,.858-.705l2.9-8.84a1.036,1.036,0,1,0-1.969-.646L81.1,360.419l-1.175-1.865a1.036,1.036,0,0,0-1.753,1.1Zm0,0" transform="translate(-67.387 -304.872)"/>
      <path id="Trazado_724404" data-name="Trazado 724404" d="M146.982,392.545h19.061a1.036,1.036,0,0,0,0-2.072H146.982a1.036,1.036,0,1,0,0,2.072Zm0,0" transform="translate(-126.062 -337.275)"/>
      <path id="Trazado_724405" data-name="Trazado 724405" d="M50.967,55.288A1.036,1.036,0,0,0,52,54.253V17.7a8.227,8.227,0,0,0-8.218-8.218H39.4A5.2,5.2,0,0,0,35.5,7.712h-1.75a7.743,7.743,0,0,0-15.487,0H16.507A5.2,5.2,0,0,0,12.6,9.478H8.217A8.227,8.227,0,0,0,0,17.7V61.537a8.227,8.227,0,0,0,8.217,8.218H43.785A8.227,8.227,0,0,0,52,61.537v-2.45a1.036,1.036,0,0,0-2.072,0v2.45a6.153,6.153,0,0,1-6.146,6.146H8.217a6.152,6.152,0,0,1-6.145-6.146V17.7A6.152,6.152,0,0,1,8.217,11.55h3.26a5.19,5.19,0,0,0-.186,1.378V15H8.217A2.7,2.7,0,0,0,5.525,17.7v1.61a1.036,1.036,0,1,0,2.072,0V17.7a.621.621,0,0,1,.62-.621h3.335a5.224,5.224,0,0,0,4.955,3.591H35.5a5.224,5.224,0,0,0,4.956-3.591h3.335a.621.621,0,0,1,.621.621V61.537a.621.621,0,0,1-.621.621H8.218a.621.621,0,0,1-.621-.621V23.45a1.036,1.036,0,0,0-2.072,0V61.537A2.7,2.7,0,0,0,8.218,64.23H43.785a2.7,2.7,0,0,0,2.692-2.692V17.7A2.7,2.7,0,0,0,43.785,15H40.712V12.928a5.212,5.212,0,0,0-.186-1.378h3.26A6.152,6.152,0,0,1,49.931,17.7V54.253a1.035,1.035,0,0,0,1.036,1.036ZM38.639,15.45A3.148,3.148,0,0,1,35.5,18.594H16.508a3.148,3.148,0,0,1-3.144-3.144V12.928a3.148,3.148,0,0,1,3.144-3.144h2.862a1.036,1.036,0,0,0,1.024-1.19,5.672,5.672,0,1,1,11.279-.85,5.779,5.779,0,0,1-.063.85,1.036,1.036,0,0,0,1.024,1.189H35.5a3.148,3.148,0,0,1,3.144,3.144V15.45Zm0,0"/>
    </g>
  </g>
</svg>
