<svg xmlns="http://www.w3.org/2000/svg" width="85.998" height="86" viewBox="0 0 85.998 86">
  <g id="_11-rain" data-name="11-rain" transform="translate(0 0.001)">
    <path id="Trazado_722573" data-name="Trazado 722573" d="M83.415,33.25A17.8,17.8,0,0,0,63.136,15.508a25.068,25.068,0,0,0-47.8,10.576c0,.048.007.1.007.144a12.535,12.535,0,1,0-1.8,24.939H67.29v-.09A17.917,17.917,0,0,0,83.415,33.25Z" transform="translate(0.792 0.792)" fill="#6ee1ef"/>
    <g id="Grupo_958139" data-name="Grupo 958139" transform="translate(1.792 1.792)">
      <path id="Trazado_722574" data-name="Trazado 722574" d="M24.291,29.666A30.442,30.442,0,0,1,43.87,1.245,25.046,25.046,0,0,0,15.333,26.083c0,.048.007.1.007.144a12.535,12.535,0,1,0-1.8,24.939H33.178a30.359,30.359,0,0,1-8.887-21.5Z" transform="translate(-1 -1)" fill="#5fb1d7"/>
      <path id="Trazado_722575" data-name="Trazado 722575" d="M42.75,35.75c0,3.958-1.417,7.167-5.375,7.167S32,39.708,32,35.75,37.375,25,37.375,25,42.75,31.792,42.75,35.75Z" transform="translate(23.54 17.999)" fill="#5fb1d7"/>
      <path id="Trazado_722576" data-name="Trazado 722576" d="M17.166,45.167a3.583,3.583,0,1,1-7.167,0C10,43.188,13.583,38,13.583,38S17.166,43.188,17.166,45.167Z" transform="translate(6.124 28.29)" fill="#5fb1d7"/>
      <path id="Trazado_722577" data-name="Trazado 722577" d="M32.166,48.167a3.583,3.583,0,1,1-7.167,0C25,46.188,28.583,41,28.583,41S32.166,46.188,32.166,48.167Z" transform="translate(17.999 30.665)" fill="#5fb1d7"/>
      <path id="Trazado_722578" data-name="Trazado 722578" d="M25.166,39.167a3.583,3.583,0,0,1-7.167,0C18,37.188,21.583,32,21.583,32S25.166,37.188,25.166,39.167Z" transform="translate(12.457 23.541)" fill="#5fb1d7"/>
    </g>
    <path id="Trazado_722579" data-name="Trazado 722579" d="M64.978,14.386a26.849,26.849,0,0,0-50.572,10.7C14.382,25.084,0,25.711,0,39.417A14.349,14.349,0,0,0,14.333,53.75H51.957a1.792,1.792,0,0,0,0-3.583H14.333a10.75,10.75,0,1,1,0-21.5,13.06,13.06,0,0,1,9.28,4.609,2.013,2.013,0,0,0,2.495.444,1.786,1.786,0,0,0,.444-2.495,14.872,14.872,0,0,0-8.569-5.684A23.242,23.242,0,0,1,61.207,15.012a19.545,19.545,0,0,0-10.683,7.2,1.743,1.743,0,0,0,.357,2.509,1.936,1.936,0,0,0,2.509-.357,15.708,15.708,0,0,1,12.9-6.451,16.124,16.124,0,0,1,9.674,29.025,1.792,1.792,0,1,0,2.152,2.866A19.558,19.558,0,0,0,86,34.042c0-19.05-20.562-19.691-21.02-19.656Z"/>
    <path id="Trazado_722580" data-name="Trazado 722580" d="M36.762,24.664C36.172,25.409,31,32.073,31,36.526c0,5.609,2.679,8.958,7.167,8.958s7.167-3.349,7.167-8.958c0-4.453-5.172-11.116-5.762-11.862a1.854,1.854,0,0,0-2.81,0Zm1.4,17.237c-.886,0-3.583,0-3.583-5.375,0-1.886,1.853-5.195,3.584-7.721,1.73,2.523,3.582,5.832,3.582,7.721C41.75,41.9,39.053,41.9,38.166,41.9Z" transform="translate(24.54 19.016)"/>
    <path id="Trazado_722581" data-name="Trazado 722581" d="M12.9,37.753c-1.173,1.7-3.9,5.895-3.9,8.185a5.375,5.375,0,1,0,10.75,0c0-2.29-2.728-6.486-3.9-8.185a1.858,1.858,0,0,0-2.948,0Zm1.474,9.976a1.793,1.793,0,0,1-1.792-1.79,13.416,13.416,0,0,1,1.792-3.847,13.4,13.4,0,0,1,1.792,3.847A1.794,1.794,0,0,1,14.375,47.729Z" transform="translate(7.125 29.312)"/>
    <path id="Trazado_722582" data-name="Trazado 722582" d="M27.9,40.753c-1.173,1.7-3.9,5.895-3.9,8.185a5.375,5.375,0,1,0,10.75,0c0-2.29-2.728-6.486-3.9-8.185a1.858,1.858,0,0,0-2.948,0Zm1.474,9.976a1.793,1.793,0,0,1-1.792-1.79,13.415,13.415,0,0,1,1.792-3.847,13.4,13.4,0,0,1,1.792,3.847A1.794,1.794,0,0,1,29.375,50.729Z" transform="translate(18.999 31.686)"/>
    <path id="Trazado_722583" data-name="Trazado 722583" d="M20.9,31.753c-1.173,1.7-3.9,5.895-3.9,8.185a5.375,5.375,0,0,0,10.75,0c0-2.29-2.728-6.486-3.9-8.185a1.858,1.858,0,0,0-2.948,0Zm1.474,9.976a1.793,1.793,0,0,1-1.792-1.79,13.416,13.416,0,0,1,1.792-3.847,13.4,13.4,0,0,1,1.792,3.847,1.794,1.794,0,0,1-1.792,1.79Z" transform="translate(13.458 24.562)"/>
  </g>
</svg>
