<svg xmlns="http://www.w3.org/2000/svg" xmlns:xlink="http://www.w3.org/1999/xlink" width="143" height="143" viewBox="0 0 143 143">
  <defs>
    <clipPath id="clip-path">
      <rect id="Rectángulo_3932" data-name="Rectángulo 3932" width="84.71" height="104.522" fill="none"/>
    </clipPath>
  </defs>
  <g id="Grupo_957455" data-name="Grupo 957455" transform="translate(-309 -6038)">
    <circle id="Elipse_5478" data-name="Elipse 5478" cx="71.5" cy="71.5" r="71.5" transform="translate(309 6038)" fill="#80cab6"/>
    <g id="Grupo_16977" data-name="Grupo 16977" transform="translate(338 6057)">
      <g id="Grupo_16976" data-name="Grupo 16976" clip-path="url(#clip-path)">
        <path id="Trazado_32076" data-name="Trazado 32076" d="M70.155,69.018c.309,3.479-.206,11.63-1.234,14.413,2.572,4.274,6.79,7.356,11.11,7.356s8.538-3.081,11.11-7.356C90.112,80.648,89.6,72.5,89.906,69.018Z" transform="translate(-33.508 -33.555)" fill="#fabb85"/>
        <path id="Trazado_32077" data-name="Trazado 32077" d="M91.074,79.345c-2.3,4.318-5.529,7.321-9.882,7.321s-7.577-3-9.882-7.321c.021-.358.036-.713.05-1.061,2.256,4.309,5.458,7.34,9.831,7.34s7.573-3.031,9.831-7.34c.014.348.03.7.051,1.061" transform="translate(-34.67 -38.06)" fill="#cf8b50"/>
        <path id="Trazado_32078" data-name="Trazado 32078" d="M119.9,38.368c-.068.362-1.045.547-1.977.189-.533-.205,1.243-3.531,1.243-3.531L119.9,37.1Z" transform="translate(-57.284 -17.029)" fill="#1d2f70"/>
        <path id="Trazado_32079" data-name="Trazado 32079" d="M59.219,38.368c.068.362,1.045.547,1.977.189.533-.205-1.242-3.531-1.242-3.531L59.219,37.1Z" transform="translate(-28.791 -17.029)" fill="#1d2f70"/>
        <path id="Trazado_32080" data-name="Trazado 32080" d="M115.98,44.85c1.383-2.391,3.255-1.827,2.68,2.828-.29,2.346-2.673,8.944-4.248,5.679a78.847,78.847,0,0,1,1.568-8.507" transform="translate(-55.625 -21.133)" fill="#fabb85"/>
        <path id="Trazado_32081" data-name="Trazado 32081" d="M60.984,44.85c-1.383-2.391-3.255-1.827-2.68,2.828.29,2.346,2.673,8.944,4.248,5.679a78.846,78.846,0,0,0-1.568-8.507" transform="translate(-28.295 -21.133)" fill="#fabb85"/>
        <path id="Trazado_32082" data-name="Trazado 32082" d="M77.038,54.224c9.392,0,13.386-13.986,14.23-24.58.5-6.294-3.411-15.944-14.23-15.944s-14.732,9.65-14.23,15.944c.844,10.594,4.839,24.58,14.23,24.58" transform="translate(-30.516 -6.661)" fill="#fabb85"/>
        <path id="Trazado_32083" data-name="Trazado 32083" d="M112.195,17.827c-.655,1.965-.991,5.027-.381,6.7s1.618,2.323,1.5,3.065a12.014,12.014,0,0,0-.629,3.827c.172,1.542.8,1.714.857,3.256s-.172,2.342.115,3.028c.456-.8.343-3.2.514-4.227s1.142-2.113,1.6-3.6a16.085,16.085,0,0,0,.628-5.646c-.057-2.8-.387-6.194-1.828-7.778-.571-.628-1.847-.229-2.38,1.371" transform="translate(-54.206 -7.863)" fill="#875b34"/>
        <path id="Trazado_32084" data-name="Trazado 32084" d="M64.238,17.827c.655,1.965.99,5.027.381,6.7s-1.619,2.323-1.5,3.065a12.014,12.014,0,0,1,.629,3.827c-.172,1.542-.8,1.714-.857,3.256s.172,2.342-.115,3.028c-.457-.8-.343-3.2-.514-4.227s-1.142-2.113-1.6-3.6a16.073,16.073,0,0,1-.628-5.646c.057-2.8.387-6.194,1.828-7.778.571-.628,1.847-.229,2.38,1.371" transform="translate(-29.182 -7.863)" fill="#875b34"/>
        <path id="Trazado_32085" data-name="Trazado 32085" d="M88.458,11.82C87.414,13.947,80.975,18.1,74.692,18.1s-11.032-.127-14-3.555c1.028-3.485,1.612-7.077,4.977-9.869,2.685-2.228,6.738-2.742,9.882-2.742,5.141,0,8.969,1.542,11.253,3.485s3.2,3.256,1.657,6.4" transform="translate(-29.507 -0.942)" fill="#875b34"/>
        <path id="Trazado_32086" data-name="Trazado 32086" d="M88.617,99.281c-4.348-1.271-17.237-6.159-23.708-7.334-1.5,3.41-5.628,5.864-10.5,5.864s-9-2.454-10.5-5.864c-6.471,1.175-19.36,6.064-23.707,7.334-1.355-.231-4.037,2.8-3.978,12.255.025,4.094.45,14.681,1.039,20.911A96.177,96.177,0,0,0,29.135,135.5l0,.008c.1.02.2.036.3.055l.074.015v0a133.752,133.752,0,0,0,24.894,2.258A133.752,133.752,0,0,0,79.3,135.58v0l.075-.015c.1-.019.2-.035.3-.055l0-.008a96.234,96.234,0,0,0,11.874-3.057c.588-6.23,1.014-16.817,1.038-20.911.058-9.458-2.624-12.485-3.978-12.255" transform="translate(-7.886 -44.703)" fill="#395cda"/>
        <path id="Trazado_32087" data-name="Trazado 32087" d="M88.647,91.946c-1.5,3.41-5.628,5.864-10.5,5.864s-9-2.454-10.5-5.864c-.781.142-1.659.34-2.6.577,1.771,4.5,6.964,7.758,13.1,7.758s11.33-3.26,13.1-7.758c-.941-.237-1.819-.435-2.6-.577" transform="translate(-31.624 -44.703)" fill="#2c45a0"/>
        <path id="Trazado_32088" data-name="Trazado 32088" d="M36.94,129.516A29.929,29.929,0,0,0,33.949,121c.275.734.53,1.47.753,2.182a74.487,74.487,0,0,1,3.114,18.136c.046,1.041.316,5.183.317,8.39q.514.1,1.033.192c.022-.761.029-1.36.018-1.673a116.03,116.03,0,0,0-2.244-18.709" transform="translate(-16.505 -58.827)" fill="#2c45a0"/>
        <path id="Trazado_32089" data-name="Trazado 32089" d="M136.943,148.224c-.01.313,0,.911.019,1.673q.519-.094,1.033-.192c0-3.206.271-7.348.317-8.39a74.48,74.48,0,0,1,3.114-18.136c.223-.712.477-1.448.752-2.182a29.976,29.976,0,0,0-2.991,8.519,116.092,116.092,0,0,0-2.244,18.709" transform="translate(-66.577 -58.827)" fill="#2c45a0"/>
        <path id="Trazado_32090" data-name="Trazado 32090" d="M151.763,157.042c-.152,2.558-.323,5.031-.513,7.048a95.942,95.942,0,0,1-11.871,3.062c-.009,0-.009,0-.009.009-.1.019-.2.029-.3.058-.019,0-.048.009-.067.009,0-2.235.133-4.917.219-6.7a68.463,68.463,0,0,0,12.545-3.49" transform="translate(-67.579 -76.351)" fill="#fabb85"/>
        <path id="Trazado_32091" data-name="Trazado 32091" d="M151.976,154.108c0,.011,0,.022,0,.032.061-1.039.119-2.09.172-3.133-4.08,1.313-8.4,2.483-12.546,3.433-.028.486-.057.971-.076,1.465-.014.317-.049.92-.09,1.692a68.5,68.5,0,0,0,12.539-3.489" transform="translate(-67.792 -73.417)" fill="#2c45a0"/>
        <path id="Trazado_32092" data-name="Trazado 32092" d="M17.244,157.042c.152,2.558.323,5.031.514,7.048a95.933,95.933,0,0,0,11.87,3.062c.009,0,.009,0,.009.009.1.019.2.029.3.058.02,0,.048.009.067.009,0-2.235-.133-4.917-.219-6.7a68.452,68.452,0,0,1-12.545-3.49" transform="translate(-8.384 -76.351)" fill="#fabb85"/>
        <path id="Trazado_32093" data-name="Trazado 32093" d="M17.081,154.108c0,.011,0,.022,0,.032-.061-1.039-.119-2.09-.171-3.133,4.08,1.313,8.4,2.483,12.545,3.433.028.486.057.971.076,1.465.014.317.049.92.09,1.692a68.5,68.5,0,0,1-12.539-3.489" transform="translate(-8.221 -73.417)" fill="#2c45a0"/>
        <path id="Trazado_32094" data-name="Trazado 32094" d="M91.481,158.7a134.756,134.756,0,0,1-23.864,2.064c-4.451,0-8.779-.2-12.945-.58-3.785-.352-7.437-.856-10.919-1.484.029-.76.029-1.36.019-1.674-.066-2.036-.2-4.061-.38-6l7.117-11.255a1.417,1.417,0,0,1,1.2-.66H83.527a1.417,1.417,0,0,1,1.2.66l7.117,11.255c-.18,1.94-.313,3.966-.38,6-.01.314,0,.914.019,1.674" transform="translate(-21.096 -67.633)" fill="#646069"/>
        <path id="Trazado_32095" data-name="Trazado 32095" d="M109.706,118.264l5.99.9L119.361,94.9a.534.534,0,0,0-.367-.586c-1.7-.534-3.345-1.027-4.865-1.436a.527.527,0,0,0-.655.436Z" transform="translate(-53.337 -45.145)" fill="#646069"/>
        <path id="Trazado_32096" data-name="Trazado 32096" d="M120.445,109.288l-5.784-.873a.217.217,0,0,1-.182-.247l.136-.9a.216.216,0,0,1,.247-.182l5.784.873a.217.217,0,0,1,.182.247l-.137.905a.217.217,0,0,1-.247.182" transform="translate(-55.657 -52.06)" fill="#3a343d"/>
        <path id="Trazado_32097" data-name="Trazado 32097" d="M118.458,116.757,113.452,116a.685.685,0,0,1-.575-.779l.484-3.208a.685.685,0,0,1,.78-.575l5.006.756a.685.685,0,0,1,.575.779l-.484,3.208a.685.685,0,0,1-.779.575" transform="translate(-54.875 -54.176)" fill="#3a343d"/>
        <path id="Trazado_32098" data-name="Trazado 32098" d="M62.238,118.264l-5.991.9L52.583,94.9a.533.533,0,0,1,.367-.586c1.7-.534,3.345-1.027,4.865-1.436a.527.527,0,0,1,.656.436Z" transform="translate(-25.562 -45.145)" fill="#646069"/>
        <path id="Trazado_32099" data-name="Trazado 32099" d="M54.627,109.288l5.784-.873a.217.217,0,0,0,.182-.247l-.137-.9a.216.216,0,0,0-.247-.182l-5.784.873a.217.217,0,0,0-.182.247l.137.905a.217.217,0,0,0,.247.182" transform="translate(-26.371 -52.06)" fill="#3a343d"/>
        <path id="Trazado_32100" data-name="Trazado 32100" d="M56.136,116.757,61.142,116a.685.685,0,0,0,.575-.779l-.485-3.208a.685.685,0,0,0-.779-.575l-5.007.756a.685.685,0,0,0-.575.779l.485,3.208a.685.685,0,0,0,.779.575" transform="translate(-26.674 -54.176)" fill="#3a343d"/>
        <path id="Trazado_32101" data-name="Trazado 32101" d="M82.448,140.514H81.014a.357.357,0,0,0,0,.713h1.434a.357.357,0,1,0,0-.713m-3.346,0H77.668a.357.357,0,1,0,0,.713H79.1a.357.357,0,1,0,0-.713m-6.692,0H70.975a.357.357,0,1,0,0,.713h1.434a.357.357,0,1,0,0-.713m14.1,2.955a.357.357,0,0,0-.6.382l.767,1.212a.357.357,0,0,0,.3.165.352.352,0,0,0,.191-.055.357.357,0,0,0,.111-.492Zm-20.788-2.955H64.283a.357.357,0,1,0,0,.713h1.434a.357.357,0,1,0,0-.713m10.039,0H74.322a.357.357,0,0,0,0,.713h1.434a.357.357,0,1,0,0-.713m15.47,14.642a.349.349,0,0,0-.376.336c-.028.481-.05.961-.07,1.438a.358.358,0,0,0,.342.371h.015a.358.358,0,0,0,.357-.342c.02-.473.041-.95.068-1.427a.357.357,0,0,0-.336-.376M52.231,140.544a.707.707,0,0,0-.387.294l-.637,1.008a.358.358,0,0,0,.111.492.348.348,0,0,0,.191.055.356.356,0,0,0,.3-.166l.634-1a.357.357,0,0,0-.213-.681M91.475,151.82a.355.355,0,0,0-.387.324c-.042.478-.08.957-.116,1.434a.358.358,0,0,0,.33.383h.026a.356.356,0,0,0,.356-.33q.053-.712.116-1.424a.357.357,0,0,0-.324-.386M88.292,146.3a.356.356,0,1,0-.6.382l.767,1.212a.355.355,0,0,0,.3.165.351.351,0,0,0,.191-.055.356.356,0,0,0,.11-.492Zm2.556,4.04-.766-1.212a.357.357,0,0,0-.6.381l.766,1.212a.357.357,0,0,0,.3.166.35.35,0,0,0,.19-.056.356.356,0,0,0,.112-.492m-6.008-9.5a.7.7,0,0,0-.368-.288.361.361,0,0,0-.456.221.351.351,0,0,0,.221.448l.643,1.015a.356.356,0,0,0,.3.166.35.35,0,0,0,.19-.056.356.356,0,0,0,.11-.492ZM45.58,158.5a.356.356,0,0,0-.357.357v.653c.233.041.468.08.7.119a.32.32,0,0,0,.012-.059v-.714a.356.356,0,0,0-.357-.357m10.1-17.985H54.245a.357.357,0,1,0,0,.713h1.434a.357.357,0,1,0,0-.713M91.106,158.5h0a.357.357,0,0,0-.357.355v.715a.314.314,0,0,0,.012.058c.234-.039.469-.078.7-.119v-.652a.356.356,0,0,0-.356-.358M62.371,140.514H60.937a.357.357,0,1,0,0,.713h1.434a.357.357,0,1,0,0-.713M47.1,149.008a.357.357,0,0,0-.492.11l-.767,1.212a.355.355,0,0,0,.11.492.351.351,0,0,0,.191.055.355.355,0,0,0,.3-.166l.767-1.211a.356.356,0,0,0-.11-.492m21.963-8.494H67.63a.357.357,0,1,0,0,.713h1.434a.357.357,0,1,0,0-.713m-10.039,0H57.591a.357.357,0,1,0,0,.713h1.434a.357.357,0,1,0,0-.713m-8.347,2.837a.358.358,0,0,0-.492.11l-.767,1.212a.355.355,0,0,0,.111.492.345.345,0,0,0,.19.056.355.355,0,0,0,.3-.166l.767-1.212a.356.356,0,0,0-.11-.492m-5.128,13.941h.015a.358.358,0,0,0,.342-.371q-.029-.715-.07-1.438a.35.35,0,0,0-.375-.337.357.357,0,0,0-.337.376q.038.716.068,1.427a.357.357,0,0,0,.357.342m-.166-3.341a.357.357,0,0,0,.33-.382q-.053-.717-.116-1.434a.35.35,0,0,0-.387-.324.358.358,0,0,0-.325.386q.063.713.116,1.425a.357.357,0,0,0,.356.33h.026m3.505-7.772a.358.358,0,0,0-.492.111L47.63,147.5a.357.357,0,0,0,.111.492.35.35,0,0,0,.19.055.357.357,0,0,0,.3-.166L49,146.671a.357.357,0,0,0-.112-.492" transform="translate(-21.822 -68.316)" fill="#433d47"/>
        <path id="Trazado_32102" data-name="Trazado 32102" d="M52.509,151.8l1.7-2.629L24.308,129.793a7.613,7.613,0,0,0-10.516,2.244L9.8,138.2l2.629,1.7,3.993-6.161a4.476,4.476,0,0,1,6.182-1.32Z" transform="translate(-4.764 -62.51)" fill="#a4a4a4"/>
        <path id="Trazado_32103" data-name="Trazado 32103" d="M11.523,139.452l-.657-.426,4.126-6.366a6.939,6.939,0,0,1,9.461-2.057l29.658,19.222-.426.658L24.027,131.26a6.144,6.144,0,0,0-8.378,1.826Z" transform="translate(-5.283 -62.982)" fill="#dbdbdb"/>
        <path id="Trazado_32104" data-name="Trazado 32104" d="M17.613,135.063l-4.065,6.272-.657-.426,4.065-6.272c1.851-2.856,4.878-3.411,7.9-1.452L54.3,152.265l-.426.658L24.432,133.842c-2.658-1.723-5.207-1.266-6.819,1.221" transform="translate(-6.267 -64.189)" fill="#6e6e6e"/>
        <path id="Trazado_32105" data-name="Trazado 32105" d="M7.242,147.308l-2.7,2.019,4.6,2.984.728-3.3Z" transform="translate(-2.206 -71.619)" fill="#9e9e9e"/>
        <rect id="Rectángulo_3927" data-name="Rectángulo 3927" width="4.287" height="5.487" transform="translate(0 81.305) rotate(-57.047)" fill="#a4a4a4"/>
        <rect id="Rectángulo_3928" data-name="Rectángulo 3928" width="3.977" height="1.44" transform="matrix(0.544, -0.839, 0.839, 0.544, 3.246, 83.04)" fill="#6e6e6e"/>
        <rect id="Rectángulo_3929" data-name="Rectángulo 3929" width="3.977" height="1.44" transform="matrix(0.544, -0.839, 0.839, 0.544, 0.487, 81.252)" fill="#dbdbdb"/>
        <path id="Trazado_32106" data-name="Trazado 32106" d="M10.932,149.738l-.664,3.34L7.51,151.29l2.765-1.978Z" transform="translate(-3.651 -72.593)" fill="#6e6e6e"/>
        <path id="Trazado_32107" data-name="Trazado 32107" d="M5.826,150.3l2.922-1.876L8.09,148l-2.932,1.869Z" transform="translate(-2.508 -71.955)" fill="#dbdbdb"/>
        <path id="Trazado_32108" data-name="Trazado 32108" d="M80.029,168.245c3.8,0,7.51-.156,11.111-.439V154.5H68.921v13.315c3.6.279,7.3.434,11.108.434" transform="translate(-33.508 -75.113)" fill="#433d47"/>
        <path id="Trazado_32109" data-name="Trazado 32109" d="M72.641,153.8a.357.357,0,0,0-.357.356v1.427a.357.357,0,0,0,.713,0v-1.427a.357.357,0,0,0-.357-.356m0,13.316a.357.357,0,0,0-.357.357v.127c.236.016.476.026.713.041v-.167a.357.357,0,0,0-.357-.357m0-3.329a.357.357,0,0,0-.357.357v1.427a.357.357,0,1,0,.713,0v-1.427a.357.357,0,0,0-.357-.357m0-6.658a.357.357,0,0,0-.357.357v1.426a.357.357,0,1,0,.713,0v-1.426a.357.357,0,0,0-.357-.357m0,3.329a.357.357,0,0,0-.357.357v1.427a.357.357,0,0,0,.713,0v-1.427a.357.357,0,0,0-.357-.357m18.049-3.329a.357.357,0,0,0-.357.357v1.426a.357.357,0,1,0,.713,0v-1.426a.357.357,0,0,0-.357-.357m0,9.987a.357.357,0,0,0-.357.357v.166c.237-.015.477-.024.713-.04v-.126a.357.357,0,0,0-.357-.357m0-13.316a.357.357,0,0,0-.357.356v1.427a.357.357,0,0,0,.713,0v-1.427a.357.357,0,0,0-.357-.356m0,9.987a.357.357,0,0,0-.357.357v1.427a.357.357,0,1,0,.713,0v-1.427a.357.357,0,0,0-.357-.357m0-3.329a.357.357,0,0,0-.357.357v1.427a.357.357,0,0,0,.713,0v-1.427a.357.357,0,0,0-.357-.357" transform="translate(-35.143 -74.777)" fill="#646069"/>
        <path id="Trazado_32110" data-name="Trazado 32110" d="M89.467,153.045H67.845a1.752,1.752,0,0,1-1.752-1.752V143.93H91.219v7.363a1.752,1.752,0,0,1-1.752,1.752" transform="translate(-32.133 -69.976)" fill="#3a343d"/>
        <path id="Trazado_32111" data-name="Trazado 32111" d="M90.36,34.545a3.944,3.944,0,0,1-2.06,1.507.91.91,0,0,1,.073.475c0,.024-.012.055-.017.082a3.942,3.942,0,0,0,2-1.491,6.636,6.636,0,0,1,.971,1.406c.018-.151.035-.308.05-.469a6.555,6.555,0,0,0-1.021-1.509m-29.153,0a6.545,6.545,0,0,0-1.02,1.509c.015.161.031.319.05.469h0a6.617,6.617,0,0,1,.97-1.405,3.955,3.955,0,0,0,2,1.483c0-.023-.013-.052-.016-.075a.91.91,0,0,1,.076-.48,3.957,3.957,0,0,1-2.063-1.5" transform="translate(-29.262 -16.795)" fill="#734a25"/>
        <path id="Trazado_32112" data-name="Trazado 32112" d="M91.139,36.2a7.287,7.287,0,0,1-3.775-.036l-1.222-.274a27.69,27.69,0,0,0-15.038,0l-1.222.274a9.944,9.944,0,0,1-2.158.266,5.314,5.314,0,0,1-1.614-.234.911.911,0,0,0-.076.48c0,.022.012.051.016.075A5.264,5.264,0,0,0,67.723,37a9.912,9.912,0,0,0,2.158-.266l1.222-.274a27.69,27.69,0,0,1,15.038,0l1.222.274a7.214,7.214,0,0,0,3.831.021c.005-.026.014-.058.018-.082a.917.917,0,0,0-.074-.475" transform="translate(-32.101 -16.943)" fill="#cf8b50"/>
        <path id="Trazado_32113" data-name="Trazado 32113" d="M76.987,25.059c-6.254,0-11.663,1.88-14.327,4.62.85,1.187,2.281,2.114,5.506,1.393,4.56-1.02,5.564-1.324,8.821-1.324s4.261.3,8.821,1.324c3.225.721,4.655-.207,5.506-1.393-2.665-2.74-8.073-4.62-14.327-4.62" transform="translate(-30.464 -12.183)" fill="#5574f2"/>
        <path id="Trazado_32114" data-name="Trazado 32114" d="M64.984,34.475c-2.943,0-3.839-1.821-4.525-3.217l-.067-.135.638-.292.067.136c.81,1.646,1.736,3.508,5.886,2.581l1.221-.274a28.39,28.39,0,0,1,15.36,0l1.221.274c4.155.928,5.076-.935,5.886-2.58l.067-.137.638.292-.067.136c-.831,1.69-1.969,4.006-6.683,2.951L83.4,33.935a27.692,27.692,0,0,0-15.039,0l-1.222.274a9.908,9.908,0,0,1-2.158.266" transform="translate(-29.362 -14.99)" fill="#739de0"/>
        <path id="Trazado_32115" data-name="Trazado 32115" d="M87.739,5.078C85.622,2.8,78.527-.1,75.139,0c-3.389-.1-10.483,2.8-12.6,5.075S58.2,17.093,59.044,21.34c0-4.674,7.206-8.464,16.095-8.464s16.095,3.789,16.095,8.464c.847-4.246-1.377-13.982-3.494-16.261" transform="translate(-28.617 0)" fill="#395cda"/>
        <path id="Trazado_32116" data-name="Trazado 32116" d="M124.086,151.7a9.721,9.721,0,0,1-3.06.3l-.205-.01c-.147-.007-.315-.016-.492-.029-.089-.007-.18-.014-.273-.023a7.161,7.161,0,0,1-1.094-.174,7.4,7.4,0,0,1,1.75-.786c.587-.217,1.822-.587,2.494-.822a1.943,1.943,0,0,1,1.731.052,5.723,5.723,0,0,1,1.126,1.087c-.708.075-1.511.318-1.976.4" transform="translate(-57.837 -72.918)" fill="#eba971"/>
        <path id="Trazado_32117" data-name="Trazado 32117" d="M112.762,190.007a3.861,3.861,0,0,1,.219.567,4.4,4.4,0,0,1-.254,2.549c-.022.062-.1.24-.1.24a8.863,8.863,0,0,1-1.234,2.167,1.955,1.955,0,0,1-.491.469l.108-2.687a2.213,2.213,0,0,0-2.119-2.3l-1.183-.048a2.207,2.207,0,0,0-2.3,2.121l-.107,2.648-.307-.618a9.558,9.558,0,0,1-.811-2.358l-.051-.255a4.931,4.931,0,0,1-.049-1.673l.018-.128a2.613,2.613,0,0,1,.243-.788,2.348,2.348,0,0,1,.295-.455l0,0a5.514,5.514,0,0,1,4.057-1.27,7.5,7.5,0,0,1,4.059,1.819" transform="translate(-50.582 -91.477)" fill="#b3b3b3"/>
        <path id="Trazado_32118" data-name="Trazado 32118" d="M108.7,188.188a5.514,5.514,0,0,0-4.057,1.27l0,0a2.351,2.351,0,0,0-.3.455,2.612,2.612,0,0,0-.243.788l-.018.128a4.918,4.918,0,0,0,.049,1.673l.051.255a9.537,9.537,0,0,0,.81,2.358l.307.619v-.029a10.1,10.1,0,0,1-.788-2.371l-.053-.269a5.253,5.253,0,0,1-.046-1.771l.02-.136a2.909,2.909,0,0,1,.258-.835,2.156,2.156,0,0,1,.313-.485,5.094,5.094,0,0,1,4.267-1.358,8.465,8.465,0,0,1,1.924.478,6.731,6.731,0,0,0-2.5-.772" transform="translate(-50.583 -91.477)" fill="#dbdbdb"/>
        <path id="Trazado_32119" data-name="Trazado 32119" d="M112.852,195.66a2.272,2.272,0,0,0-2.176-2.331l-1.208-.055a2.235,2.235,0,0,0-2.1,1.219,2.2,2.2,0,0,1,.585-.624l.014-.01a2.368,2.368,0,0,1,.234-.145l.01,0a2.229,2.229,0,0,1,.252-.115l0,0a2.162,2.162,0,0,1,.254-.077l.041-.01a1.98,1.98,0,0,1,.254-.041l.044,0a2.161,2.161,0,0,1,.271-.008l1.182.048a2.213,2.213,0,0,1,2.119,2.3l-.108,2.688a1.321,1.321,0,0,0,.237-.186Z" transform="translate(-52.199 -93.966)" fill="#949494"/>
        <path id="Trazado_32120" data-name="Trazado 32120" d="M124.978,130.714a3.861,3.861,0,0,1-.219-.568,4.4,4.4,0,0,1,.254-2.549c.022-.061.1-.24.1-.24a8.843,8.843,0,0,1,1.234-2.166,1.956,1.956,0,0,1,.49-.469l-.108,2.688a2.213,2.213,0,0,0,2.119,2.3l1.182.048a2.207,2.207,0,0,0,2.3-2.121l.107-2.648.306.618a9.535,9.535,0,0,1,.811,2.358l.051.254a4.932,4.932,0,0,1,.049,1.673l-.018.128a2.612,2.612,0,0,1-.243.788,2.321,2.321,0,0,1-.3.455l0,0a5.516,5.516,0,0,1-4.058,1.269,7.5,7.5,0,0,1-4.058-1.819" transform="translate(-60.611 -60.637)" fill="#b3b3b3"/>
        <path id="Trazado_32121" data-name="Trazado 32121" d="M119.582,138.2a7.5,7.5,0,0,1-4.059-1.819c.048.107.1.212.15.306a9.162,9.162,0,0,1,.494,1.173c.043.117.089.275.137.455a4.818,4.818,0,0,1-.161,2.976l-7.064,18.322a8.389,8.389,0,0,1-.929,1.753l-.534.77a4.716,4.716,0,0,1-.777.785l-1.2.954a2.7,2.7,0,0,0-.418.41,5.513,5.513,0,0,1,4.057-1.27,7.5,7.5,0,0,1,4.059,1.819c-.048-.107-.1-.212-.149-.307a9.014,9.014,0,0,1-.495-1.173c-.043-.117-.089-.275-.137-.455a4.816,4.816,0,0,1,.162-2.976l7.064-18.322a8.31,8.31,0,0,1,.928-1.753l.534-.771a4.769,4.769,0,0,1,.776-.784l1.2-.955a2.715,2.715,0,0,0,.418-.41,5.514,5.514,0,0,1-4.057,1.269" transform="translate(-51.157 -66.308)" fill="#a4a4a4"/>
        <path id="Trazado_32122" data-name="Trazado 32122" d="M129.241,138.982a5.653,5.653,0,0,0,1.916-.1,4.649,4.649,0,0,1,.614-.588l1.2-.954a2.738,2.738,0,0,0,.418-.41,5.512,5.512,0,0,1-4.057,1.269,7.5,7.5,0,0,1-4.059-1.819c.048.107.1.212.15.306a9.194,9.194,0,0,1,.494,1.173l0,0a8.062,8.062,0,0,0,3.323,1.115" transform="translate(-60.905 -66.308)" fill="#949494"/>
        <path id="Trazado_32123" data-name="Trazado 32123" d="M109.368,186.666a5.641,5.641,0,0,0-1.916.1,4.651,4.651,0,0,1-.613.589l-1.2.954a2.738,2.738,0,0,0-.417.41,5.509,5.509,0,0,1,4.057-1.269,7.5,7.5,0,0,1,4.059,1.819c-.048-.107-.1-.212-.15-.307a9.114,9.114,0,0,1-.494-1.173l0,0a8.053,8.053,0,0,0-3.324-1.114" transform="translate(-51.157 -90.734)" fill="#949494"/>
        <path id="Trazado_32124" data-name="Trazado 32124" d="M123.338,144.246l-7.648,19.835a.894.894,0,0,1-1.669-.643l7.648-19.835a.894.894,0,0,1,1.669.643" transform="translate(-55.406 -69.539)" fill="#b3b3b3"/>
        <path id="Trazado_32125" data-name="Trazado 32125" d="M122.264,159.007l.521-1.35-.627-.241-.521,1.35Zm-1.051,2.728.8-2.067-.627-.242-.8,2.066Zm1.2-4.98.627.242.326-.845-.627-.242Zm-2.206,7.591.752-1.949-.627-.242-.752,1.949Z" transform="translate(-58.137 -75.8)" fill="#949494"/>
        <rect id="Rectángulo_3930" data-name="Rectángulo 3930" width="0.915" height="0.96" transform="translate(59.124 93.73) rotate(-68.879)" fill="#949494"/>
        <rect id="Rectángulo_3931" data-name="Rectángulo 3931" width="0.915" height="0.96" transform="translate(66.198 75.383) rotate(-68.909)" fill="#949494"/>
        <path id="Trazado_32126" data-name="Trazado 32126" d="M123.173,143.048a.885.885,0,0,1,.286.055.9.9,0,0,1,.513,1.156l-7.647,19.835a.89.89,0,0,1-.693.557.892.892,0,0,0,.871-.568l7.647-19.834a.894.894,0,0,0-.513-1.156.884.884,0,0,0-.463-.045" transform="translate(-56.218 -69.542)" fill="#dbdbdb"/>
        <path id="Trazado_32127" data-name="Trazado 32127" d="M114.838,164.513a.9.9,0,0,1-.513-1.156l7.647-19.835a.889.889,0,0,1,.434-.474.89.89,0,0,0-.737.563l-7.647,19.835a.891.891,0,0,0,1.234,1.118.881.881,0,0,1-.418-.051" transform="translate(-55.406 -69.548)" fill="#6e6e6e"/>
        <path id="Trazado_32128" data-name="Trazado 32128" d="M128.307,132.011a8.438,8.438,0,0,0,1.924.478,5.1,5.1,0,0,0,4.267-1.357,2.155,2.155,0,0,0,.313-.485,2.92,2.92,0,0,0,.258-.835l.02-.135a5.256,5.256,0,0,0-.046-1.771l-.052-.269a10.108,10.108,0,0,0-.788-2.37v-.03l.306.619a9.518,9.518,0,0,1,.811,2.358l.051.255a4.932,4.932,0,0,1,.049,1.673l-.018.128a2.628,2.628,0,0,1-.243.788,2.32,2.32,0,0,1-.3.455l0,0a5.516,5.516,0,0,1-4.058,1.269,6.725,6.725,0,0,1-2.5-.772" transform="translate(-62.381 -60.888)" fill="#dbdbdb"/>
        <path id="Trazado_32129" data-name="Trazado 32129" d="M128.244,127.549a2.273,2.273,0,0,0,2.177,2.331l1.208.055a2.235,2.235,0,0,0,2.1-1.219,2.2,2.2,0,0,1-.585.624l-.014.01a2.3,2.3,0,0,1-.234.145l-.01.005a2.322,2.322,0,0,1-.252.114l-.005,0a2.123,2.123,0,0,1-.253.077l-.041.01a2.081,2.081,0,0,1-.254.042l-.044,0a2.175,2.175,0,0,1-.272.007l-1.182-.048a2.213,2.213,0,0,1-2.119-2.3l.108-2.688a1.317,1.317,0,0,0-.236.186Z" transform="translate(-62.349 -60.637)" fill="#949494"/>
        <path id="Trazado_32130" data-name="Trazado 32130" d="M112.212,195.971l-.108,2.687-.8-.032.108-2.687a1.413,1.413,0,0,0-1.355-1.47l-1.182-.047a1.413,1.413,0,0,0-1.47,1.355l-.108,2.688-.775-.031-.02-.04.107-2.648a2.207,2.207,0,0,1,2.3-2.121l1.183.047a2.213,2.213,0,0,1,2.119,2.3" transform="translate(-51.782 -94.137)" fill="#dbdbdb"/>
        <path id="Trazado_32131" data-name="Trazado 32131" d="M128.675,127.409l.108-2.688.8.033-.108,2.687a1.413,1.413,0,0,0,1.355,1.469l1.182.048a1.414,1.414,0,0,0,1.47-1.355l.108-2.688.775.031.02.04-.107,2.648a2.188,2.188,0,0,1-.145.708,2.211,2.211,0,0,1-2.152,1.413l-1.182-.048a2.213,2.213,0,0,1-2.119-2.3" transform="translate(-62.559 -60.637)" fill="#dbdbdb"/>
        <path id="Trazado_32132" data-name="Trazado 32132" d="M121.746,152.945a3.766,3.766,0,0,0,.453-.047c1.282-.224,2.415-.37,3.028-.528a17.363,17.363,0,0,1,1.948-.371c.091.1.174.2.24.278-.163.017-.331.045-.5.076l-.1.019c-.357.07-.7.156-1,.225-.14.033-.269.062-.378.082a9.737,9.737,0,0,1-3.06.3l-.238-.011c-.121-.006-.256-.014-.4-.024" transform="translate(-59.191 -73.899)" fill="#cf8b50"/>
        <path id="Trazado_32133" data-name="Trazado 32133" d="M103.315,158.657c.286-.029,2.066-.53,2.394-.638a7.578,7.578,0,0,0,2.3-1.108c.751-.667,1.025-1.912,1.961-2.761a14.769,14.769,0,0,1,1.388-1.165,7.162,7.162,0,0,0,1.094.174c.093.009.184.016.273.023.177.013.345.023.493.029l.2.01a9.721,9.721,0,0,0,3.06-.3,9.988,9.988,0,0,1,2.651-.406,2.2,2.2,0,0,1,1.919,1.347,1.494,1.494,0,0,1-.652,1.747,1.533,1.533,0,0,1,1,1.569,1.9,1.9,0,0,1-.751,1.48,1.587,1.587,0,0,1,.387,1.147,1.936,1.936,0,0,1-.75,1.454.933.933,0,0,1,.3.741,3.561,3.561,0,0,1-1.565,2.316,5.069,5.069,0,0,1-2.5.871c-.954.158-8.914,1.353-10.273,1.616-.563.108-1.578.38-1.89.42Z" transform="translate(-50.23 -74.14)" fill="#fabb85"/>
        <path id="Trazado_32134" data-name="Trazado 32134" d="M119.727,173.457a5.062,5.062,0,0,1-2.5.871c-.954.158-8.914,1.353-10.273,1.616-.563.108-1.579.38-1.891.42l-.283-1.581c.405-.1,1.758-.241,2.134-.318,6.031-1.221,8.735-.437,11.229-1.022a5.158,5.158,0,0,0,3.128-2.143,3.713,3.713,0,0,1-1.544,2.156" transform="translate(-50.942 -83.284)" fill="#cf8b50"/>
        <path id="Trazado_32135" data-name="Trazado 32135" d="M134.691,153.859c.008.029.014.058.021.086a3.012,3.012,0,0,0-1.53-1.126,4.1,4.1,0,0,0-1.807-.184,4.509,4.509,0,0,1,1.4-.124,2.2,2.2,0,0,1,1.918,1.347" transform="translate(-63.872 -74.14)" fill="#fad5b4"/>
        <path id="Trazado_32136" data-name="Trazado 32136" d="M136.205,159.056a3.031,3.031,0,0,0-1.781-.306,2.776,2.776,0,0,1,1.1-.2,1.827,1.827,0,0,1,.684.506" transform="translate(-65.355 -77.084)" fill="#fad5b4"/>
        <path id="Trazado_32137" data-name="Trazado 32137" d="M135.522,157.622a2.774,2.774,0,0,0-1.1.2,8.288,8.288,0,0,0,1.8-1.182,1.675,1.675,0,0,1-.7.981" transform="translate(-65.355 -76.156)" fill="#cf8b50"/>
        <path id="Trazado_32138" data-name="Trazado 32138" d="M136.3,163.431a1.4,1.4,0,0,1-.792.443,6.084,6.084,0,0,0,1.484-1.556,1.71,1.71,0,0,1-.692,1.113" transform="translate(-65.88 -78.916)" fill="#cf8b50"/>
        <path id="Trazado_32139" data-name="Trazado 32139" d="M135.505,164.928a1.4,1.4,0,0,0,.792-.443c.04.047.077.095.111.143a1.411,1.411,0,0,1-.9.3" transform="translate(-65.88 -79.97)" fill="#fad5b4"/>
        <path id="Trazado_32140" data-name="Trazado 32140" d="M135.354,168.408a2.682,2.682,0,0,1-1.041.481,5.142,5.142,0,0,0,1.764-1.685,1.918,1.918,0,0,1-.723,1.2" transform="translate(-65.301 -81.292)" fill="#cf8b50"/>
        <path id="Trazado_32141" data-name="Trazado 32141" d="M134.312,170.028a2.679,2.679,0,0,0,1.041-.481,1.259,1.259,0,0,1,.086.1,1.614,1.614,0,0,1-1.127.384" transform="translate(-65.3 -82.431)" fill="#fad5b4"/>
        <path id="Trazado_32142" data-name="Trazado 32142" d="M110.631,164.311a41.358,41.358,0,0,0,7.183,1.43l4.445.482a1.727,1.727,0,0,0,.144-.137c.03-.035.052-.073.079-.11a2.034,2.034,0,0,0,.128-.2l-4.744-.514a41.053,41.053,0,0,1-7.1-1.414L107.9,163c-.127.046-.251.089-.364.126-.082.027-.251.078-.465.139Z" transform="translate(-52.056 -79.249)" fill="#cf8b50"/>
        <path id="Trazado_32143" data-name="Trazado 32143" d="M30.352,165.359l1.6.238a24.735,24.735,0,0,0,10.6-.731s13.065.557,20.54-1.184c1.211-.282,7.778,6.084,6.093,6.838a106.949,106.949,0,0,1-11.516,4.6c-8.3,2.2-18.293,2.933-25.882,3.136l-7.529.2a5.317,5.317,0,0,1-5.443-4.9l-.569-6.232Z" transform="translate(-8.87 -79.575)" fill="#fabb85"/>
        <path id="Trazado_32144" data-name="Trazado 32144" d="M103.995,162.19l-.567,6.229c-.223,2.823-3.086,5.931-7.878,6.1a50.665,50.665,0,0,1-7.228-.143c-6.086-.624-10.161-2.636-15.926-4.836q-1.957-.747-3.859-1.645l-1.689-.8-12.213-5.772a8.655,8.655,0,0,0-4.162-.836,6.061,6.061,0,0,0-.951.115c-.017,0-.034.006-.051.006a24.526,24.526,0,0,1-6.069-.149l-1.6-.24.24-.579A9.067,9.067,0,0,1,48,154.2l.893-.269a19.1,19.1,0,0,1,10.873-.034l7.077,2.078L78.9,159.507a41.367,41.367,0,0,0,7.184,1.431l4.909.533a.725.725,0,0,0,.794-.607l.1-.637Z" transform="translate(-20.324 -74.445)" fill="#fabb85"/>
        <path id="Trazado_32145" data-name="Trazado 32145" d="M79.228,159.452l-11.874-3.481-7.077-2.078a19.1,19.1,0,0,0-10.873.034l-.894.269A9.43,9.43,0,0,0,44.4,156.71a8.955,8.955,0,0,0-1.544,2.278,8.268,8.268,0,0,1,1.032-1.411,9.455,9.455,0,0,1,4.043-2.588l.886-.289a19.363,19.363,0,0,1,10.868-.327l7.13,1.857,12.147,3.158c.088.023.178.041.268.063" transform="translate(-20.836 -74.444)" fill="#fad5b4"/>
        <path id="Trazado_32146" data-name="Trazado 32146" d="M75.909,174.864l-1.689-.8L62.007,168.3a8.648,8.648,0,0,0-4.162-.836c-.071,0-.144.011-.216.017-.194.025-.388.052-.583.073-.026,0-.052.007-.078.012a9.166,9.166,0,0,1,4.832,1.174L75.7,175.3q1.242.587,2.5,1.106c.222-.078.454-.162.69-.249q-1.509-.605-2.985-1.3" transform="translate(-27.697 -81.411)" fill="#cf8b50"/>
        <path id="Trazado_32147" data-name="Trazado 32147" d="M46.764,166.637c-1.188-.083-2.112-.19-3.29-.365L42,166.052l-.192.461,1.6.24a24.523,24.523,0,0,0,6.069.149c.017,0,.034-.006.051-.006a6.05,6.05,0,0,1,.926-.113,28.374,28.374,0,0,1-3.685-.147" transform="translate(-20.325 -80.732)" fill="#cf8b50"/>
      </g>
    </g>
  </g>
</svg>
