<svg xmlns="http://www.w3.org/2000/svg" width="237.001" height="141.997" viewBox="0 0 237.001 141.997">
  <g id="Grupo_959294" data-name="Grupo 959294" transform="translate(-888.999 -3418.002)">
    <g id="Grupo_959166" data-name="Grupo 959166">
      <g id="Uni贸n_2" data-name="Uni贸n 2" transform="translate(13069 -8194)" fill="#fff">
        <path d="M -12162.9990234375 11753.4990234375 C -12167.4169921875 11753.4990234375 -12171.5673828125 11751.9482421875 -12174.6865234375 11749.1337890625 C -12177.791015625 11746.33203125 -12179.5009765625 11742.611328125 -12179.5009765625 11738.65625 C -12179.5009765625 11736.2509765625 -12178.880859375 11733.9560546875 -12177.658203125 11731.8349609375 C -12176.4892578125 11729.8056640625 -12174.783203125 11728.0185546875 -12172.7265625 11726.6650390625 L -12172.5009765625 11726.5166015625 L -12172.5009765625 11726.2470703125 L -12172.5009765625 11615.5009765625 L -12153.5 11615.5009765625 L -12153.5 11726.2470703125 L -12153.5 11726.5166015625 L -12153.2744140625 11726.6650390625 C -12151.2177734375 11728.017578125 -12149.51171875 11729.8056640625 -12148.341796875 11731.8349609375 C -12147.1201171875 11733.955078125 -12146.5 11736.2509765625 -12146.5 11738.65625 C -12146.5 11742.6103515625 -12148.2099609375 11746.33203125 -12151.314453125 11749.1337890625 C -12154.4326171875 11751.9482421875 -12158.5830078125 11753.4990234375 -12162.9990234375 11753.4990234375 Z" stroke="none"/>
        <path d="M -12162.9990234375 11752.9990234375 C -12158.70703125 11752.9990234375 -12154.67578125 11751.494140625 -12151.6494140625 11748.7626953125 C -12148.6513671875 11746.056640625 -12147 11742.4677734375 -12147 11738.65625 C -12147 11736.3388671875 -12147.59765625 11734.1279296875 -12148.775390625 11732.0849609375 C -12149.90625 11730.1220703125 -12151.5576171875 11728.392578125 -12153.5498046875 11727.0830078125 L -12154 11726.7861328125 L -12154 11616.0009765625 L -12172.0009765625 11616.0009765625 L -12172.0009765625 11726.7861328125 L -12172.451171875 11727.08203125 C -12174.443359375 11728.3935546875 -12176.0947265625 11730.123046875 -12177.2255859375 11732.0849609375 C -12178.4033203125 11734.12890625 -12179.0009765625 11736.33984375 -12179.0009765625 11738.65625 C -12179.0009765625 11742.4677734375 -12177.349609375 11746.056640625 -12174.3515625 11748.7626953125 C -12171.32421875 11751.494140625 -12167.29296875 11752.9990234375 -12162.9990234375 11752.9990234375 M -12162.9990234375 11753.9990234375 C -12172.3896484375 11753.9990234375 -12180.0009765625 11747.12890625 -12180.0009765625 11738.65625 C -12180.0009765625 11733.5556640625 -12177.2431640625 11729.0380859375 -12173.0009765625 11726.2470703125 L -12173.0009765625 11615.0009765625 L -12153 11615.0009765625 L -12153 11726.2470703125 C -12148.7568359375 11729.037109375 -12146 11733.5556640625 -12146 11738.65625 C -12146 11747.12890625 -12153.611328125 11753.9990234375 -12162.9990234375 11753.9990234375 Z" stroke="none" fill="#707070"/>
      </g>
      <path id="Trazado_725242" data-name="Trazado 725242" d="M13069-8092h35.668" transform="translate(-12180 11615)" fill="none" stroke="#707070" stroke-width="1"/>
      <path id="Trazado_725251" data-name="Trazado 725251" d="M13069-8092h35.668" transform="translate(-12180 11565)" fill="none" stroke="#707070" stroke-width="1"/>
      <path id="Trazado_725243" data-name="Trazado 725243" d="M13069-8092h35.668" transform="translate(-12180 11605)" fill="none" stroke="#707070" stroke-width="1"/>
      <path id="Trazado_725250" data-name="Trazado 725250" d="M13069-8092h35.668" transform="translate(-12180 11555)" fill="none" stroke="#707070" stroke-width="1"/>
      <path id="Trazado_725244" data-name="Trazado 725244" d="M13069-8092h35.668" transform="translate(-12180 11595)" fill="none" stroke="#707070" stroke-width="1"/>
      <path id="Trazado_725249" data-name="Trazado 725249" d="M13069-8092h35.668" transform="translate(-12180 11545)" fill="none" stroke="#707070" stroke-width="1"/>
      <path id="Trazado_725245" data-name="Trazado 725245" d="M13069-8092h35.668" transform="translate(-12180 11585)" fill="none" stroke="#707070" stroke-width="1"/>
      <path id="Trazado_725248" data-name="Trazado 725248" d="M13069-8092h35.668" transform="translate(-12180 11535)" fill="none" stroke="#707070" stroke-width="1"/>
      <path id="Trazado_725246" data-name="Trazado 725246" d="M13069-8092h35.668" transform="translate(-12180 11575)" fill="none" stroke="#707070" stroke-width="1"/>
      <path id="Trazado_725247" data-name="Trazado 725247" d="M13069-8092h35.668" transform="translate(-12180 11525)" fill="none" stroke="#707070" stroke-width="1"/>
      <text id="_1" data-name="1" transform="translate(933 3528)" fill="#12263f" font-size="8" font-family="Roboto-Regular, Roboto"><tspan x="-2.246" y="0">1</tspan></text>
      <text id="_6" data-name="6" transform="translate(933 3478)" fill="#12263f" font-size="8" font-family="Roboto-Regular, Roboto"><tspan x="-2.246" y="0">6</tspan></text>
      <text id="_2" data-name="2" transform="translate(933 3518)" fill="#12263f" font-size="8" font-family="Roboto-Regular, Roboto"><tspan x="-2.246" y="0">2</tspan></text>
      <text id="_7" data-name="7" transform="translate(933 3468)" fill="#12263f" font-size="8" font-family="Roboto-Regular, Roboto"><tspan x="-2.246" y="0">7</tspan></text>
      <text id="_3" data-name="3" transform="translate(933 3508)" fill="#12263f" font-size="8" font-family="Roboto-Regular, Roboto"><tspan x="-2.246" y="0">3</tspan></text>
      <text id="_8" data-name="8" transform="translate(933 3458)" fill="#12263f" font-size="8" font-family="Roboto-Regular, Roboto"><tspan x="-2.246" y="0">8</tspan></text>
      <text id="_4" data-name="4" transform="translate(933 3498)" fill="#12263f" font-size="8" font-family="Roboto-Regular, Roboto"><tspan x="-2.246" y="0">4</tspan></text>
      <text id="_9" data-name="9" transform="translate(933 3448)" fill="#12263f" font-size="8" font-family="Roboto-Regular, Roboto"><tspan x="-2.246" y="0">9</tspan></text>
      <text id="_5" data-name="5" transform="translate(933 3488)" fill="#12263f" font-size="8" font-family="Roboto-Regular, Roboto"><tspan x="-2.246" y="0">5</tspan></text>
      <text id="_10" data-name="10" transform="translate(933 3438)" fill="#12263f" font-size="8" font-family="Roboto-Regular, Roboto"><tspan x="-4.492" y="0">10</tspan></text>
    </g>
    <g id="Grupo_959167" data-name="Grupo 959167" transform="translate(188 -2.999)">
      <g id="Uni贸n_2-2" data-name="Uni贸n 2" transform="translate(13069 -8194)" fill="#fff">
        <path d="M -12162.9990234375 11753.4990234375 C -12167.4169921875 11753.4990234375 -12171.5673828125 11751.9482421875 -12174.6865234375 11749.1337890625 C -12177.791015625 11746.33203125 -12179.5009765625 11742.611328125 -12179.5009765625 11738.65625 C -12179.5009765625 11736.2509765625 -12178.880859375 11733.9560546875 -12177.658203125 11731.8349609375 C -12176.4892578125 11729.8056640625 -12174.783203125 11728.0185546875 -12172.7265625 11726.6650390625 L -12172.5009765625 11726.5166015625 L -12172.5009765625 11726.2470703125 L -12172.5009765625 11615.5009765625 L -12153.5 11615.5009765625 L -12153.5 11726.2470703125 L -12153.5 11726.5166015625 L -12153.2744140625 11726.6650390625 C -12151.2177734375 11728.017578125 -12149.51171875 11729.8056640625 -12148.341796875 11731.8349609375 C -12147.1201171875 11733.955078125 -12146.5 11736.2509765625 -12146.5 11738.65625 C -12146.5 11742.6103515625 -12148.2099609375 11746.33203125 -12151.314453125 11749.1337890625 C -12154.4326171875 11751.9482421875 -12158.5830078125 11753.4990234375 -12162.9990234375 11753.4990234375 Z" stroke="none"/>
        <path d="M -12162.9990234375 11752.9990234375 C -12158.70703125 11752.9990234375 -12154.67578125 11751.494140625 -12151.6494140625 11748.7626953125 C -12148.6513671875 11746.056640625 -12147 11742.4677734375 -12147 11738.65625 C -12147 11736.3388671875 -12147.59765625 11734.1279296875 -12148.775390625 11732.0849609375 C -12149.90625 11730.1220703125 -12151.5576171875 11728.392578125 -12153.5498046875 11727.0830078125 L -12154 11726.7861328125 L -12154 11616.0009765625 L -12172.0009765625 11616.0009765625 L -12172.0009765625 11726.7861328125 L -12172.451171875 11727.08203125 C -12174.443359375 11728.3935546875 -12176.0947265625 11730.123046875 -12177.2255859375 11732.0849609375 C -12178.4033203125 11734.12890625 -12179.0009765625 11736.33984375 -12179.0009765625 11738.65625 C -12179.0009765625 11742.4677734375 -12177.349609375 11746.056640625 -12174.3515625 11748.7626953125 C -12171.32421875 11751.494140625 -12167.29296875 11752.9990234375 -12162.9990234375 11752.9990234375 M -12162.9990234375 11753.9990234375 C -12172.3896484375 11753.9990234375 -12180.0009765625 11747.12890625 -12180.0009765625 11738.65625 C -12180.0009765625 11733.5556640625 -12177.2431640625 11729.0380859375 -12173.0009765625 11726.2470703125 L -12173.0009765625 11615.0009765625 L -12153 11615.0009765625 L -12153 11726.2470703125 C -12148.7568359375 11729.037109375 -12146 11733.5556640625 -12146 11738.65625 C -12146 11747.12890625 -12153.611328125 11753.9990234375 -12162.9990234375 11753.9990234375 Z" stroke="none" fill="#707070"/>
      </g>
      <path id="Trazado_725242-2" data-name="Trazado 725242" d="M13069-8092h35.668" transform="translate(-12180 11615)" fill="none" stroke="#707070" stroke-width="1"/>
      <path id="Trazado_725251-2" data-name="Trazado 725251" d="M13069-8092h35.668" transform="translate(-12180 11565)" fill="none" stroke="#707070" stroke-width="1"/>
      <path id="Trazado_725243-2" data-name="Trazado 725243" d="M13069-8092h35.668" transform="translate(-12180 11605)" fill="none" stroke="#707070" stroke-width="1"/>
      <path id="Trazado_725250-2" data-name="Trazado 725250" d="M13069-8092h35.668" transform="translate(-12180 11555)" fill="none" stroke="#707070" stroke-width="1"/>
      <path id="Trazado_725244-2" data-name="Trazado 725244" d="M13069-8092h35.668" transform="translate(-12180 11595)" fill="none" stroke="#707070" stroke-width="1"/>
      <path id="Trazado_725249-2" data-name="Trazado 725249" d="M13069-8092h35.668" transform="translate(-12180 11545)" fill="none" stroke="#707070" stroke-width="1"/>
      <path id="Trazado_725245-2" data-name="Trazado 725245" d="M13069-8092h35.668" transform="translate(-12180 11585)" fill="none" stroke="#707070" stroke-width="1"/>
      <path id="Trazado_725248-2" data-name="Trazado 725248" d="M13069-8092h35.668" transform="translate(-12180 11535)" fill="none" stroke="#707070" stroke-width="1"/>
      <path id="Trazado_725246-2" data-name="Trazado 725246" d="M13069-8092h35.668" transform="translate(-12180 11575)" fill="none" stroke="#707070" stroke-width="1"/>
      <path id="Trazado_725247-2" data-name="Trazado 725247" d="M13069-8092h35.668" transform="translate(-12180 11525)" fill="none" stroke="#707070" stroke-width="1"/>
      <text id="_1-2" data-name="1" transform="translate(933 3528)" fill="#12263f" font-size="8" font-family="Roboto-Regular, Roboto"><tspan x="-2.246" y="0">1</tspan></text>
      <text id="_6-2" data-name="6" transform="translate(933 3478)" fill="#12263f" font-size="8" font-family="Roboto-Regular, Roboto"><tspan x="-2.246" y="0">6</tspan></text>
      <text id="_2-2" data-name="2" transform="translate(933 3518)" fill="#12263f" font-size="8" font-family="Roboto-Regular, Roboto"><tspan x="-2.246" y="0">2</tspan></text>
      <text id="_7-2" data-name="7" transform="translate(933 3468)" fill="#12263f" font-size="8" font-family="Roboto-Regular, Roboto"><tspan x="-2.246" y="0">7</tspan></text>
      <text id="_3-2" data-name="3" transform="translate(933 3508)" fill="#12263f" font-size="8" font-family="Roboto-Regular, Roboto"><tspan x="-2.246" y="0">3</tspan></text>
      <text id="_8-2" data-name="8" transform="translate(933 3458)" fill="#12263f" font-size="8" font-family="Roboto-Regular, Roboto"><tspan x="-2.246" y="0">8</tspan></text>
      <text id="_4-2" data-name="4" transform="translate(933 3498)" fill="#12263f" font-size="8" font-family="Roboto-Regular, Roboto"><tspan x="-2.246" y="0">4</tspan></text>
      <text id="_9-2" data-name="9" transform="translate(933 3448)" fill="#12263f" font-size="8" font-family="Roboto-Regular, Roboto"><tspan x="-2.246" y="0">9</tspan></text>
      <text id="_5-2" data-name="5" transform="translate(933 3488)" fill="#12263f" font-size="8" font-family="Roboto-Regular, Roboto"><tspan x="-2.246" y="0">5</tspan></text>
      <text id="_10-2" data-name="10" transform="translate(933 3438)" fill="#12263f" font-size="8" font-family="Roboto-Regular, Roboto"><tspan x="-4.492" y="0">10</tspan></text>
    </g>
  </g>
</svg>
