<svg xmlns="http://www.w3.org/2000/svg" width="92.301" height="82.009" viewBox="0 0 92.301 82.009">
  <g id="Grupo_956857" data-name="Grupo 956857" transform="translate(-426.85 -4043.991)">
    <g id="Trazado_721157" data-name="Trazado 721157" transform="translate(421 4036)" fill="#f1cc4b">
      <path d="M 90.13847351074219 87.50000762939453 L 13.86154270172119 87.50000762939453 C 11.87282848358154 87.50000762939453 10.09204292297363 86.4716796875 9.097970962524414 84.74923706054688 C 8.10387134552002 83.02679443359375 8.104371070861816 80.97043609619141 9.099271774291992 79.24846649169922 L 47.23772811889648 13.23960876464844 C 48.23210144042969 11.51859378814697 50.01237106323242 10.49112319946289 52 10.49112319946289 C 53.98761367797852 10.49112319946289 55.76788711547852 11.51859378814697 56.76225662231445 13.23959445953369 L 94.90072631835938 79.24848175048828 C 95.89564514160156 80.97043609619141 95.89612579345703 83.02679443359375 94.90204620361328 84.74923706054688 C 93.907958984375 86.4716796875 92.12718200683594 87.50000762939453 90.13847351074219 87.50000762939453 Z" stroke="none"/>
      <path d="M 52 12.99111938476562 C 51.47941589355469 12.99111938476562 50.18420028686523 13.13719940185547 49.40241622924805 14.49028015136719 L 11.26393127441406 80.49918365478516 C 10.48173522949219 81.85299682617188 11.00285339355469 83.04844665527344 11.26321411132812 83.49958038330078 C 11.52358245849609 83.95071411132812 12.29796600341797 85 13.86153411865234 85 L 90.13846588134766 85 C 91.70203399658203 85 92.47641754150391 83.95071411132812 92.73678588867188 83.49958038330078 C 92.99714660644531 83.04844665527344 93.51826477050781 81.85299682617188 92.73605346679688 80.49916839599609 L 54.59758377075195 14.49028015136719 C 53.81579971313477 13.13719940185547 52.52058410644531 12.99111938476562 52 12.99111938476562 M 52 7.991127014160156 C 54.69351577758789 7.991127014160156 57.38703155517578 9.323715209960938 58.92691802978516 11.98889923095703 L 97.06538391113281 77.99777984619141 C 100.1468658447266 83.33110046386719 96.29799652099609 90 90.13846588134766 90 L 13.86153411865234 90 C 7.702003479003906 90 3.853134155273438 83.33110046386719 6.934616088867188 77.99777984619141 L 45.07308197021484 11.98889923095703 C 46.61296844482422 9.323715209960938 49.30648422241211 7.991127014160156 52 7.991127014160156 Z" stroke="none" fill="#00223d"/>
    </g>
    <path id="Trazado_31900" data-name="Trazado 31900" d="M-2.507-28.223H1.466V-7.271H-2.7v-16.66L-7.51-19.45v-4.292Z" transform="translate(475.51 4107.858)" fill="#00223d"/>
  </g>
</svg>
