<svg id="Grupo_16971" data-name="Grupo 16971" xmlns="http://www.w3.org/2000/svg" xmlns:xlink="http://www.w3.org/1999/xlink" width="112.684" height="168.555" viewBox="0 0 112.684 168.555">
  <defs>
    <clipPath id="clip-path">
      <rect id="Rectángulo_3916" data-name="Rectángulo 3916" width="112.684" height="168.555" fill="none"/>
    </clipPath>
    <clipPath id="clip-path-2">
      <path id="Trazado_32044" data-name="Trazado 32044" d="M18.261,45.738s-4.446,4.821-4.539,8.845S16.39,68.3,18.17,72.93s2.2,20.78,2.2,22.745-.794,4.821-.742,6.39a6.306,6.306,0,0,0,1.071,3.393c.515.8,3.276,2.806,6.926,2.573a6.662,6.662,0,0,0,5.242-3.6,35.822,35.822,0,0,0,.842-7.02c-.141-2.48.422-5.991.375-8.425s.28-9.36,0-14.835S32.724,58,31.741,54.4s-2.527-12.73-2.527-12.73Z" transform="translate(-13.72 -41.666)" fill="none"/>
    </clipPath>
    <clipPath id="clip-path-4">
      <path id="Trazado_32052" data-name="Trazado 32052" d="M17.511,10.532s-5.6,3.58-7.942,4.96a36.023,36.023,0,0,0-7.535,6.222S8.4,32.132,8.914,34.566s.187,11.7-.328,12.917S5.4,58.294,5.4,58.294s3.509,5.429,8.236,6.88,12.684.422,16.1-1.731a31.576,31.576,0,0,0,5.617-4.494s-.187-12.59-.609-15.631S36.06,35.69,36.34,33.208s-1.077-7.944-1.135-9.734-.69-5.126-.69-7.02.386-3.931-2.071-4.914a31.4,31.4,0,0,0-10-1.76,14.176,14.176,0,0,0-4.93.752" transform="translate(-2.034 -9.78)" fill="none"/>
    </clipPath>
    <clipPath id="clip-path-6">
      <path id="Trazado_32064" data-name="Trazado 32064" d="M39.485,25.518V145.7a2.5,2.5,0,0,0,1.47,2.05,7.852,7.852,0,0,0,7.1,0,2.494,2.494,0,0,0,1.471-2.05V25.518Z" transform="translate(-39.485 -25.518)" fill="none"/>
    </clipPath>
  </defs>
  <g id="Grupo_16958" data-name="Grupo 16958" transform="translate(0 0)">
    <g id="Grupo_16957" data-name="Grupo 16957" clip-path="url(#clip-path)">
      <path id="Trazado_32039" data-name="Trazado 32039" d="M47.179,90.409c10.021,5.785,10.021,15.167,0,20.952s-26.269,5.785-36.29,0-10.021-15.167,0-20.952,26.268-5.787,36.29,0" transform="translate(1.517 38.694)" fill="#e3dbda"/>
      <path id="Trazado_32040" data-name="Trazado 32040" d="M18.413,84.353,18.1,87.021a55.725,55.725,0,0,0,5.371,2.773c2.071.842,5.055,4.457,7.828,5.546a18.13,18.13,0,0,0,6.517,1.438c1.076-.093,2.5-.56,2.574-1.825s-.7-3.088-2.493-4.739-7.616-4.985-7.616-4.985S23.221,83.3,22.836,83.3s-4.423,1.054-4.423,1.054" transform="translate(8.136 37.449)" fill="#47423f"/>
      <path id="Trazado_32041" data-name="Trazado 32041" d="M29.214,41.666s1.544,9.127,2.527,12.73,2.06,14.275,2.341,19.75-.046,12.4,0,14.838-.516,5.943-.374,8.423a35.9,35.9,0,0,1-.844,7.02,6.662,6.662,0,0,1-5.242,3.6c-3.65.233-6.411-1.777-6.926-2.573a6.319,6.319,0,0,1-1.071-3.393c-.052-1.568.742-4.424.742-6.388s-.42-18.112-2.2-22.747S13.63,58.609,13.723,54.583s4.54-8.844,4.54-8.844Z" transform="translate(6.168 18.732)" fill="#eb4f46"/>
      <path id="Trazado_32042" data-name="Trazado 32042" d="M6.234,95.847s-.023,1.954,0,2.024,4.96,4.288,6.739,5.95,4.634,3.934,7.934,4.636,5.592.41,6.037-.012a2.49,2.49,0,0,0,.8-1.853,29.028,29.028,0,0,0-4.563-6.883A47.687,47.687,0,0,0,18.309,95h-7.3Z" transform="translate(2.798 42.712)" fill="#47423f"/>
    </g>
  </g>
  <g id="Grupo_16960" data-name="Grupo 16960" transform="translate(19.889 60.398)">
    <g id="Grupo_16959" data-name="Grupo 16959" clip-path="url(#clip-path-2)">
      <path id="Trazado_32043" data-name="Trazado 32043" d="M23.4,47.965a51.925,51.925,0,0,0-2.131,8.441c-.351,3.23,5.2,17.27,4.914,22.044s-4.21,17.131-.6,21.552,10.917,2.176,12.32,1.123-9.267,16.428-18.463,10.25S10.389,74.308,11.653,64.06,19.777,46.965,23.4,47.965" transform="translate(-14.927 -38.878)" fill="#cf3028"/>
    </g>
  </g>
  <g id="Grupo_16962" data-name="Grupo 16962" transform="translate(0 0)">
    <g id="Grupo_16961" data-name="Grupo 16961" clip-path="url(#clip-path)">
      <path id="Trazado_32045" data-name="Trazado 32045" d="M5.487,42.973a30.384,30.384,0,0,0-1.1,5.662,35.981,35.981,0,0,0,.7,8.706c.467,1.615,3.72,13.526,4.492,16.311s2.5,12.542,2.693,13.713-1.406,3.557-1.942,5.827-2.645,19.352-2.973,21.271-.8,5.2-.8,5.2,1.029,4.4,6.552,3.978,7.864-3.7,7.864-3.7,2.527-17.318,3.836-23.261,2.108-14.228,1.638-17.222-4.444-17.879-4.3-19.985,4.631-7.862,4.727-11-15.819-8.1-21.388-5.5" transform="translate(1.955 18.993)" fill="#eb4f46"/>
      <path id="Trazado_32046" data-name="Trazado 32046" d="M31.049,21.488a7.219,7.219,0,0,0,1.977,1.918,35.8,35.8,0,0,1,6.669,5.16,41.363,41.363,0,0,0,8.618,6.2c1.474.79,3.106,1.808,4.65,2.44a20.191,20.191,0,0,1,2.457,1.176,8.463,8.463,0,0,1,0,3.756,9.713,9.713,0,0,1-1.368,2.282s-2.528-1.1-3.862-1.877a6.735,6.735,0,0,1-2.843-2.44,3.188,3.188,0,0,0-2.282-1.721c-1.177-.351-8.916-3.247-10.618-3.949a22.076,22.076,0,0,1-5.933-4.107c-1.122-1.264-2.948-3.773-2.948-3.773S30,21.3,31.049,21.488" transform="translate(11.494 9.658)" fill="#ffad91"/>
      <path id="Trazado_32047" data-name="Trazado 32047" d="M23.976,11s1.79-.455,3.756,2.738,2.492,6.633,3.23,7.618,3.3,4.949,3.3,4.949-2.176,4.141-3.966,5.263-4.775.316-4.775.316-2.492-5.545-3.791-7.826S20.186,13.177,23.976,11" transform="translate(9.381 4.936)" fill="#e6ddcd"/>
      <path id="Trazado_32048" data-name="Trazado 32048" d="M17.511,10.534s-5.6,3.58-7.942,4.96a35.978,35.978,0,0,0-7.535,6.222S8.4,32.132,8.914,34.566s.188,11.7-.328,12.917S5.4,58.294,5.4,58.294s3.509,5.429,8.238,6.88,12.682.422,16.1-1.731a31.5,31.5,0,0,0,5.617-4.494s-.187-12.588-.609-15.631,1.31-7.629,1.592-10.109-1.077-7.945-1.135-9.735-.691-5.124-.691-7.02.387-3.931-2.07-4.914S22.2,8.754,17.511,10.534" transform="translate(0.914 4.397)" fill="#eb4f46"/>
    </g>
  </g>
  <g id="Grupo_16964" data-name="Grupo 16964" transform="translate(2.948 14.177)">
    <g id="Grupo_16963" data-name="Grupo 16963" clip-path="url(#clip-path-4)">
      <path id="Trazado_32049" data-name="Trazado 32049" d="M5.8,15.654A6.6,6.6,0,0,1,11.982,17.1c3.135,2.574,10.156,14.228,11.092,17.5s-3.276,11-11.046,9.315S1.638,34.27.655,29.783-1.183,16.442,5.8,15.654" transform="translate(-2.948 -7.249)" fill="#e6ddcd"/>
      <path id="Trazado_32050" data-name="Trazado 32050" d="M22.61,10.782s-.691,18.343-.832,21.5,5.078,4.543,7.606,2.437,1.85-25.4-6.774-23.94" transform="translate(6.841 -9.359)" fill="#e6ddcd"/>
      <path id="Trazado_32051" data-name="Trazado 32051" d="M5.36,17.466a7.789,7.789,0,0,1,7.3,3.23c2.877,4,12.613,15.937,12.613,15.937L28.458,7.216s-21.483,1.4-23.1,10.25" transform="translate(-0.539 -10.933)" fill="#e6ddcd"/>
    </g>
  </g>
  <g id="Grupo_16966" data-name="Grupo 16966" transform="translate(0 0)">
    <g id="Grupo_16965" data-name="Grupo 16965" clip-path="url(#clip-path)">
      <path id="Trazado_32053" data-name="Trazado 32053" d="M15.188,7.216a40.473,40.473,0,0,1-2.9,5.8,22.075,22.075,0,0,1-2.973,3.65s3.417,5.569,7.7,6.741,7.068-2.387,7.207-2.669-.023-8.19-.139-9.055-8.893-4.47-8.893-4.47" transform="translate(4.187 3.244)" fill="#ed967e"/>
      <path id="Trazado_32054" data-name="Trazado 32054" d="M15.065,18.972s-1.123-4.937-1.474-6.109-1.1-2.785-.819-4.423.515-6.972,6.411-7.955,8.074,2.854,9.618,5.1,1.5,3.159,1.592,5.663a18.362,18.362,0,0,1-.586,5.358,28.322,28.322,0,0,0-1.521,2.948c-.258.867.235,2.083-.023,2.527s-1.147.47-1.428.8-1.871,2.693-3.205,3A3.147,3.147,0,0,1,20.5,24.8c-.936-.89-3.744-2.551-4.307-3.393a8.573,8.573,0,0,1-1.123-2.434" transform="translate(5.714 0.147)" fill="#ffad91"/>
      <path id="Trazado_32055" data-name="Trazado 32055" d="M12.99,7.558s-1.7,4.994-1.8,5.449.861.471,1.8.542,1.682-2.271,2.224-2.7,1.418.383,1.621.78a7,7,0,0,1-.287,2.29L18,14.509s.889-3.089,1.871-4.049S15,6.691,12.99,7.558" transform="translate(5.028 3.324)" fill="#47423f"/>
      <path id="Trazado_32056" data-name="Trazado 32056" d="M16.383,10.978s-1.521-2.316-2.877-1.871-1.5,2.247-.625,3.6,1.654,1.615,2.332,1.661.281-2.1,1.17-3.393" transform="translate(5.543 4.069)" fill="#ffb899"/>
      <path id="Trazado_32057" data-name="Trazado 32057" d="M5.36,36.284s1.661,8.764,3.159,10.94,3.885,2.995,7.512,3.206,11.631.023,14.345.139,4.4-.326,6.741.4a38.1,38.1,0,0,0,6.13,1.077,17.962,17.962,0,0,0,.164-3.582c-.117-1.871-.117-2.48-.773-2.9s-1.708-.7-1.8-1.123,1.9-.96,2.786-1.358a4.331,4.331,0,0,0,1.567-1.613,17.743,17.743,0,0,0-5.311.515,18.4,18.4,0,0,0-4.7,2.715c-.983.819-3.253.8-6.061.677s-8.168-1.239-10.275-1.45-4.421-.561-4.586-.936.8-5.64.258-7.722-8.4-.351-9.15,1.018" transform="translate(2.41 15.421)" fill="#ffad91"/>
      <path id="Trazado_32058" data-name="Trazado 32058" d="M2.687,18.093A10.923,10.923,0,0,0,.581,24.509c0,3.837,3.206,9.8,3.815,11.491s2.737,8.447,2.737,8.447,1.873,1.123,5.571.632,5.007-1.848,5.007-1.848-2.012-4.821-2.879-7.184S13.8,28.955,12.866,25.257,7.813,16.662,2.687,18.093" transform="translate(0.261 8.02)" fill="#f2e9d8"/>
      <path id="Trazado_32059" data-name="Trazado 32059" d="M17.435,11.9l7.523,5.9a2.52,2.52,0,0,0,2.558.331l5.411-2.343a1.382,1.382,0,0,0,.38-2.29l-6.28-5.7Z" transform="translate(7.838 3.506)" fill="#73201b"/>
      <path id="Trazado_32060" data-name="Trazado 32060" d="M11.994,11.9s6.306,2.89,8.916,4.015,9.7-.981,10.643-2.621c0,0-.07-5.691-1.587-8.028C28.281,2.669,26.385,0,21.542,0s-7.41,2.235-8.51,5.779a32.462,32.462,0,0,0-1.038,6.12" transform="translate(5.392 0)" fill="#eb4f46"/>
      <path id="Trazado_32061" data-name="Trazado 32061" d="M66.756,98.12,31.373,118.549l23.4,13.509,35.383-20.429L69.243,99.557,98.579,82.62l-2.487-1.438Z" transform="translate(14.104 36.497)" fill="#e3dbda"/>
      <rect id="Rectángulo_3918" data-name="Rectángulo 3918" width="10.044" height="120.178" transform="translate(57.236 36.99)" fill="#748994"/>
      <path id="Trazado_32062" data-name="Trazado 32062" d="M48.058,107.273c1.961,1.132,1.961,2.969,0,4.1a7.852,7.852,0,0,1-7.1,0c-1.961-1.131-1.961-2.967,0-4.1a7.852,7.852,0,0,1,7.1,0" transform="translate(17.751 47.846)" fill="#748994"/>
      <path id="Trazado_32063" data-name="Trazado 32063" d="M48.058,24.366c1.961,1.132,1.961,2.969,0,4.1a7.852,7.852,0,0,1-7.1,0c-1.961-1.132-1.961-2.969,0-4.1a7.852,7.852,0,0,1,7.1,0" transform="translate(17.751 10.573)" fill="#869eab"/>
    </g>
  </g>
  <g id="Grupo_16968" data-name="Grupo 16968" transform="translate(57.236 36.99)">
    <g id="Grupo_16967" data-name="Grupo 16967" clip-path="url(#clip-path-6)">
      <rect id="Rectángulo_3920" data-name="Rectángulo 3920" width="2.502" height="127.615" transform="translate(1.552 -1.787)" fill="#869eab"/>
      <rect id="Rectángulo_3921" data-name="Rectángulo 3921" width="7.575" height="130.359" transform="translate(7.432 -3.282)" fill="#5f7480"/>
    </g>
  </g>
  <g id="Grupo_16970" data-name="Grupo 16970" transform="translate(0 0)">
    <g id="Grupo_16969" data-name="Grupo 16969" clip-path="url(#clip-path)">
      <path id="Trazado_32065" data-name="Trazado 32065" d="M65.847,4.111l1.825.948-4,3.248.9-2.792Z" transform="translate(28.628 1.848)" fill="#7fb0a1"/>
      <path id="Trazado_32066" data-name="Trazado 32066" d="M45.917,73.487,73.832,57.371V4.112L45.917,20.227Z" transform="translate(20.643 1.849)" fill="#7fb0a1"/>
      <path id="Trazado_32067" data-name="Trazado 32067" d="M47.177,74.141,75.091,58.025V4.766L47.177,20.882Z" transform="translate(21.21 2.143)" fill="#608579"/>
      <path id="Trazado_32068" data-name="Trazado 32068" d="M47.176,15.884l7.167,49.5L67.659,57.3V20.788Z" transform="translate(21.209 7.141)" fill="#517368"/>
      <path id="Trazado_32069" data-name="Trazado 32069" d="M26.685,84.558,54.6,68.443V15.183L26.685,31.3Z" transform="translate(11.997 6.826)" fill="#83a89c"/>
      <path id="Trazado_32070" data-name="Trazado 32070" d="M39.27,91.868,67.185,75.751V22.493L39.27,38.609Z" transform="translate(17.655 10.112)" fill="#778c86"/>
      <path id="Trazado_32071" data-name="Trazado 32071" d="M26.685,79.56l18.243,10.6,4.6-49.354-4.6-3.907L26.685,26.3Z" transform="translate(11.997 11.824)" fill="#83a89c"/>
      <path id="Trazado_32072" data-name="Trazado 32072" d="M39.27,91.868,67.185,75.751V22.493L39.27,38.609Z" transform="translate(17.655 10.112)" fill="#699184"/>
      <path id="Trazado_32073" data-name="Trazado 32073" d="M46.665,56.223,51.959,53.7,42.949,70.9,59.006,47.575l-5.458,2.089L60.2,34.852Z" transform="translate(19.309 15.668)" fill="#ffed8a"/>
      <path id="Trazado_32074" data-name="Trazado 32074" d="M26.684,31.3,44.927,41.9,72.842,25.778,54.6,15.183Z" transform="translate(11.997 6.826)" fill="#93baae"/>
    </g>
  </g>
</svg>
