<svg xmlns="http://www.w3.org/2000/svg" width="473" height="109" viewBox="0 0 473 109">
  <g id="Grupo_959097" data-name="Grupo 959097" transform="translate(-370 -13903)">
    <g id="Grupo_19294" data-name="Grupo 19294" transform="translate(-242 -3988)">
      <rect id="Rectángulo_5022" data-name="Rectángulo 5022" width="473" height="109" rx="17" transform="translate(612 17891)" fill="#fff"/>
      <path id="Trazado_66421" data-name="Trazado 66421" d="M13.257,17.164l-1.992-1.2,2.344-2.886q.337-.41.176-.688t-.674-.19L9.39,12.77V10.455l3.721.557q.513.088.674-.19t-.176-.688L11.265,7.218l1.992-1.157,1.377,3.5q.176.513.513.513t.513-.513l1.362-3.5,2.036,1.157L16.67,10.133q-.337.41-.176.688t.688.19l3.706-.557V12.77L17.183,12.2q-.527-.088-.688.19t.19.688l2.373,2.886-2.036,1.2-1.362-3.486q-.176-.513-.513-.513t-.513.513Z" transform="translate(772 17928)" fill="#00223d"/>
      <path id="Trazado_66422" data-name="Trazado 66422" d="M5.159,4.625H6.583V17H5.08V6.286L2.109,8.861V7.235ZM23.862,17l-4.447-5.722h-1.09V17H16.752V4.625h1.573V9.854h1.081l4.28-5.229H25.62l-4.86,5.9L25.884,17ZM36.738,8.193a2.785,2.785,0,0,1,2.013.734,2.722,2.722,0,0,1,.765,2.061V17H38V11.384a1.952,1.952,0,0,0-.475-1.424,1.616,1.616,0,0,0-1.2-.483A1.706,1.706,0,0,0,35,10.021a2.343,2.343,0,0,0-.5,1.635V17H32.95V11.445a2.042,2.042,0,0,0-.479-1.472,1.629,1.629,0,0,0-1.226-.5,1.69,1.69,0,0,0-1.314.558,2.424,2.424,0,0,0-.505,1.674V17H27.905V8.36h1.521V9.477a2.625,2.625,0,0,1,.989-.949,2.82,2.82,0,0,1,1.375-.334,2.935,2.935,0,0,1,1.477.365,2.271,2.271,0,0,1,.958,1.05,2.689,2.689,0,0,1,1.037-1.05A2.966,2.966,0,0,1,36.738,8.193Z" transform="translate(849 17911)" fill="#00223d"/>
      <path id="Trazado_66423" data-name="Trazado 66423" d="M5.159,4.625H6.583V17H5.08V6.286L2.109,8.861V7.235ZM15.205,17.167a3.447,3.447,0,0,1-3.05-1.617A8.623,8.623,0,0,1,11.083,10.8a8.662,8.662,0,0,1,1.059-4.737,3.444,3.444,0,0,1,3.063-1.608,3.436,3.436,0,0,1,3.05,1.613A8.637,8.637,0,0,1,19.318,10.8a8.6,8.6,0,0,1-1.077,4.742A3.44,3.44,0,0,1,15.205,17.167Zm0-1.406a2.093,2.093,0,0,0,1.925-1.239A8.08,8.08,0,0,0,17.8,10.8a7.851,7.851,0,0,0-.681-3.713,2.115,2.115,0,0,0-3.828,0,7.891,7.891,0,0,0-.677,3.718,8.122,8.122,0,0,0,.664,3.722A2.091,2.091,0,0,0,15.205,15.761Zm10.134,1.406a3.447,3.447,0,0,1-3.05-1.617A8.623,8.623,0,0,1,21.217,10.8a8.662,8.662,0,0,1,1.059-4.737,3.444,3.444,0,0,1,3.063-1.608,3.436,3.436,0,0,1,3.05,1.613A8.637,8.637,0,0,1,29.452,10.8a8.6,8.6,0,0,1-1.077,4.742A3.44,3.44,0,0,1,25.339,17.167Zm0-1.406a2.093,2.093,0,0,0,1.925-1.239,8.08,8.08,0,0,0,.668-3.718A7.851,7.851,0,0,0,27.25,7.09a2.115,2.115,0,0,0-3.828,0,7.891,7.891,0,0,0-.677,3.718,8.122,8.122,0,0,0,.664,3.722A2.091,2.091,0,0,0,25.339,15.761Zm6.688,1.415a.987.987,0,0,1-.716-.3,1.022,1.022,0,0,1,.716-1.74.994.994,0,0,1,.721.3,1,1,0,0,1,0,1.437A1,1,0,0,1,32.027,17.176Zm7.98-.009a3.447,3.447,0,0,1-3.05-1.617A8.623,8.623,0,0,1,35.886,10.8a8.662,8.662,0,0,1,1.059-4.737,3.705,3.705,0,0,1,6.113,0A8.637,8.637,0,0,1,44.121,10.8a8.6,8.6,0,0,1-1.077,4.742A3.44,3.44,0,0,1,40.008,17.167Zm0-1.406a2.093,2.093,0,0,0,1.925-1.239A8.08,8.08,0,0,0,42.6,10.8a7.851,7.851,0,0,0-.681-3.713,2.115,2.115,0,0,0-3.828,0,7.891,7.891,0,0,0-.677,3.718,8.122,8.122,0,0,0,.664,3.722A2.091,2.091,0,0,0,40.008,15.761Zm10.134,1.406a3.447,3.447,0,0,1-3.05-1.617A8.623,8.623,0,0,1,46.02,10.8a8.662,8.662,0,0,1,1.059-4.737,3.705,3.705,0,0,1,6.113,0A8.637,8.637,0,0,1,54.255,10.8a8.6,8.6,0,0,1-1.077,4.742A3.44,3.44,0,0,1,50.142,17.167Zm0-1.406a2.093,2.093,0,0,0,1.925-1.239,8.08,8.08,0,0,0,.668-3.718,7.851,7.851,0,0,0-.681-3.713,2.115,2.115,0,0,0-3.828,0,7.891,7.891,0,0,0-.677,3.718,8.122,8.122,0,0,0,.664,3.722A2.091,2.091,0,0,0,50.142,15.761Zm10.134,1.406a3.447,3.447,0,0,1-3.05-1.617A8.623,8.623,0,0,1,56.153,10.8a8.662,8.662,0,0,1,1.059-4.737,3.705,3.705,0,0,1,6.113,0A8.637,8.637,0,0,1,64.389,10.8a8.6,8.6,0,0,1-1.077,4.742A3.44,3.44,0,0,1,60.275,17.167Zm0-1.406A2.093,2.093,0,0,0,62.2,14.521a8.08,8.08,0,0,0,.668-3.718,7.851,7.851,0,0,0-.681-3.713,2.115,2.115,0,0,0-3.828,0,7.891,7.891,0,0,0-.677,3.718,8.122,8.122,0,0,0,.664,3.722A2.091,2.091,0,0,0,60.275,15.761Zm14.871,1.4a4.161,4.161,0,0,1-3.094-1.239,4.421,4.421,0,0,1-1.222-3.243,4.43,4.43,0,0,1,1.217-3.243,4.5,4.5,0,0,1,5.6-.483,3.815,3.815,0,0,1,1.455,2.1l-1.424.229A2.63,2.63,0,0,0,76.7,9.934a2.656,2.656,0,0,0-1.564-.475,2.554,2.554,0,0,0-2,.888,3.382,3.382,0,0,0-.787,2.329A3.365,3.365,0,0,0,73.138,15a2.56,2.56,0,0,0,2,.883,2.656,2.656,0,0,0,1.564-.475,2.63,2.63,0,0,0,.976-1.345L79.1,14.3a3.819,3.819,0,0,1-1.463,2.1A4.185,4.185,0,0,1,75.146,17.158ZM90.176,8.193a2.785,2.785,0,0,1,2.013.734,2.722,2.722,0,0,1,.765,2.061V17H91.433V11.384a1.952,1.952,0,0,0-.475-1.424,1.616,1.616,0,0,0-1.2-.483,1.706,1.706,0,0,0-1.318.545,2.343,2.343,0,0,0-.5,1.635V17H86.388V11.445a2.042,2.042,0,0,0-.479-1.472,1.629,1.629,0,0,0-1.226-.5,1.69,1.69,0,0,0-1.314.558,2.424,2.424,0,0,0-.505,1.674V17H81.343V8.36h1.521V9.477a2.625,2.625,0,0,1,.989-.949,2.82,2.82,0,0,1,1.375-.334,2.935,2.935,0,0,1,1.477.365,2.271,2.271,0,0,1,.958,1.05A2.689,2.689,0,0,1,88.7,8.558,2.966,2.966,0,0,1,90.176,8.193Z" transform="translate(827 17950)" fill="#00223d"/>
      <g id="Grupo_12182" data-name="Grupo 12182" transform="translate(549 13617)">
        <text id="_50_Km" data-name="= 50 Km" transform="translate(401 4311)" fill="#00223d" font-size="18" font-family="SegoeUI, Segoe UI"><tspan x="0" y="19">= 50 Km</tspan></text>
        <path id="Trazado_26104" data-name="Trazado 26104" d="M26,0" transform="translate(400.5 4319.456)" fill="none" stroke="#707070" stroke-width="1"/>
      </g>
      <path id="Trazado_66424" data-name="Trazado 66424" d="M4.781,9.037a4.8,4.8,0,0,1,3.375,1.042,3.778,3.778,0,0,1,1.116,2.9,4.107,4.107,0,0,1-1.147,3.01,4.026,4.026,0,0,1-3,1.165,4.769,4.769,0,0,1-1.551-.25,4.19,4.19,0,0,1-1.31-.721,3.3,3.3,0,0,1-.914-1.217,4,4,0,0,1-.338-1.67,5.645,5.645,0,0,1,.044-.633l1.556-.132a6.186,6.186,0,0,0-.07.694,2.794,2.794,0,0,0,.224,1.151,1.968,1.968,0,0,0,.6.787,2.738,2.738,0,0,0,.813.426,2.968,2.968,0,0,0,.918.141,2.538,2.538,0,0,0,1.92-.756,2.69,2.69,0,0,0,.725-1.942,2.559,2.559,0,0,0-.751-1.951,3.368,3.368,0,0,0-2.377-.712H1.485l.765-5.73H8.736V6.058h-5.2l-.4,2.979Zm8.235,8.139a.987.987,0,0,1-.716-.3,1.022,1.022,0,0,1,.716-1.74.994.994,0,0,1,.721.3,1,1,0,0,1,0,1.437A1,1,0,0,1,13.017,17.176ZM21,17.167a3.447,3.447,0,0,1-3.05-1.617A8.623,8.623,0,0,1,16.875,10.8a8.662,8.662,0,0,1,1.059-4.737A3.444,3.444,0,0,1,21,4.458a3.436,3.436,0,0,1,3.05,1.613A8.637,8.637,0,0,1,25.11,10.8a8.6,8.6,0,0,1-1.077,4.742A3.44,3.44,0,0,1,21,17.167Zm0-1.406a2.093,2.093,0,0,0,1.925-1.239A8.08,8.08,0,0,0,23.59,10.8a7.851,7.851,0,0,0-.681-3.713,2.115,2.115,0,0,0-3.828,0A7.891,7.891,0,0,0,18.4,10.8a8.122,8.122,0,0,0,.664,3.722A2.091,2.091,0,0,0,21,15.761Zm10.134,1.406a3.447,3.447,0,0,1-3.05-1.617A8.623,8.623,0,0,1,27.009,10.8a8.662,8.662,0,0,1,1.059-4.737,3.705,3.705,0,0,1,6.113,0A8.637,8.637,0,0,1,35.244,10.8a8.6,8.6,0,0,1-1.077,4.742A3.44,3.44,0,0,1,31.131,17.167Zm0-1.406a2.093,2.093,0,0,0,1.925-1.239,8.08,8.08,0,0,0,.668-3.718,7.851,7.851,0,0,0-.681-3.713,2.115,2.115,0,0,0-3.828,0,7.891,7.891,0,0,0-.677,3.718,8.122,8.122,0,0,0,.664,3.722A2.091,2.091,0,0,0,31.131,15.761Zm10.134,1.406a3.447,3.447,0,0,1-3.05-1.617A8.623,8.623,0,0,1,37.143,10.8,8.662,8.662,0,0,1,38.2,6.066a3.705,3.705,0,0,1,6.113,0A8.637,8.637,0,0,1,45.378,10.8,8.6,8.6,0,0,1,44.3,15.545,3.44,3.44,0,0,1,41.265,17.167Zm0-1.406a2.093,2.093,0,0,0,1.925-1.239,8.08,8.08,0,0,0,.668-3.718,7.851,7.851,0,0,0-.681-3.713,2.115,2.115,0,0,0-3.828,0,7.891,7.891,0,0,0-.677,3.718,8.122,8.122,0,0,0,.664,3.722A2.091,2.091,0,0,0,41.265,15.761Zm6.688,1.415a.987.987,0,0,1-.716-.3,1.022,1.022,0,0,1,.716-1.74.994.994,0,0,1,.721.3,1,1,0,0,1,0,1.437A1,1,0,0,1,47.953,17.176Zm7.98-.009a3.447,3.447,0,0,1-3.05-1.617A8.623,8.623,0,0,1,51.812,10.8a8.662,8.662,0,0,1,1.059-4.737,3.705,3.705,0,0,1,6.113,0A8.637,8.637,0,0,1,60.047,10.8a8.6,8.6,0,0,1-1.077,4.742A3.44,3.44,0,0,1,55.934,17.167Zm0-1.406a2.093,2.093,0,0,0,1.925-1.239,8.08,8.08,0,0,0,.668-3.718,7.851,7.851,0,0,0-.681-3.713,2.115,2.115,0,0,0-3.828,0,7.891,7.891,0,0,0-.677,3.718A8.122,8.122,0,0,0,54,14.526,2.091,2.091,0,0,0,55.934,15.761Zm10.134,1.406a3.447,3.447,0,0,1-3.05-1.617A8.623,8.623,0,0,1,61.945,10.8,8.662,8.662,0,0,1,63,6.066a3.705,3.705,0,0,1,6.113,0A8.637,8.637,0,0,1,70.181,10.8,8.6,8.6,0,0,1,69.1,15.545,3.44,3.44,0,0,1,66.067,17.167Zm0-1.406a2.093,2.093,0,0,0,1.925-1.239A8.08,8.08,0,0,0,68.66,10.8a7.851,7.851,0,0,0-.681-3.713,2.115,2.115,0,0,0-3.828,0,7.891,7.891,0,0,0-.677,3.718,8.122,8.122,0,0,0,.664,3.722A2.091,2.091,0,0,0,66.067,15.761ZM76.2,17.167a3.447,3.447,0,0,1-3.05-1.617A8.623,8.623,0,0,1,72.079,10.8a8.662,8.662,0,0,1,1.059-4.737,3.705,3.705,0,0,1,6.113,0A8.637,8.637,0,0,1,80.314,10.8a8.6,8.6,0,0,1-1.077,4.742A3.44,3.44,0,0,1,76.2,17.167Zm0-1.406a2.093,2.093,0,0,0,1.925-1.239,8.08,8.08,0,0,0,.668-3.718,7.851,7.851,0,0,0-.681-3.713,2.115,2.115,0,0,0-3.828,0,7.891,7.891,0,0,0-.677,3.718,8.122,8.122,0,0,0,.664,3.722A2.091,2.091,0,0,0,76.2,15.761Zm14.871,1.4a4.161,4.161,0,0,1-3.094-1.239,4.421,4.421,0,0,1-1.222-3.243,4.43,4.43,0,0,1,1.217-3.243,4.5,4.5,0,0,1,5.6-.483,3.815,3.815,0,0,1,1.455,2.1l-1.424.229a2.63,2.63,0,0,0-.976-1.345,2.656,2.656,0,0,0-1.564-.475,2.554,2.554,0,0,0-2,.888,3.382,3.382,0,0,0-.787,2.329A3.365,3.365,0,0,0,89.064,15a2.56,2.56,0,0,0,2,.883,2.656,2.656,0,0,0,1.564-.475,2.63,2.63,0,0,0,.976-1.345l1.424.237a3.819,3.819,0,0,1-1.463,2.1A4.185,4.185,0,0,1,91.072,17.158ZM106.1,8.193a2.785,2.785,0,0,1,2.013.734,2.722,2.722,0,0,1,.765,2.061V17h-1.521V11.384a1.952,1.952,0,0,0-.475-1.424,1.616,1.616,0,0,0-1.2-.483,1.706,1.706,0,0,0-1.318.545,2.343,2.343,0,0,0-.5,1.635V17h-1.547V11.445a2.042,2.042,0,0,0-.479-1.472,1.629,1.629,0,0,0-1.226-.5,1.69,1.69,0,0,0-1.314.558,2.424,2.424,0,0,0-.505,1.674V17H97.269V8.36h1.521V9.477a2.625,2.625,0,0,1,.989-.949,2.82,2.82,0,0,1,1.375-.334,2.935,2.935,0,0,1,1.477.365,2.271,2.271,0,0,1,.958,1.05,2.689,2.689,0,0,1,1.037-1.05A2.966,2.966,0,0,1,106.1,8.193Z" transform="translate(657 17928)" fill="#00223d"/>
      <path id="Trazado_66425" data-name="Trazado 66425" d="M126,0H0" transform="translate(814.5 17941.5)" fill="none" stroke="#707070" stroke-width="1"/>
      <path id="Trazado_66426" data-name="Trazado 66426" d="M0,24,28,0" transform="translate(744.5 17929.5)" fill="none" stroke="#707070" stroke-width="1"/>
      <path id="Trazado_66427" data-name="Trazado 66427" d="M0,24,28,0" transform="translate(896.5 17949.5)" fill="none" stroke="#707070" stroke-width="1"/>
    </g>
  </g>
</svg>
