<svg xmlns="http://www.w3.org/2000/svg" width="282.36" height="196.13" viewBox="0 0 282.36 196.13">
  <g id="Grupo_958762" data-name="Grupo 958762" transform="translate(-68.461 -133.296)">
    <g id="Grupo_958750" data-name="Grupo 958750">
      <g id="Grupo_958749" data-name="Grupo 958749">
        <g id="Grupo_958748" data-name="Grupo 958748">
          <g id="Grupo_958663" data-name="Grupo 958663">
            <path id="Trazado_724013" data-name="Trazado 724013" d="M118.847,223.709l174.539-1.5,46.42,81.2H79.854Z" fill="#fff9d6"/>
          </g>
          <g id="Grupo_958664" data-name="Grupo 958664">
            <path id="Trazado_724014" data-name="Trazado 724014" d="M324.634,287.765a43.754,43.754,0,0,0-9.127-.367c-4.158.547-4.695,2.421-5.66,4.045-1.149,1.885-2.916,3.495-7.376,4.32a57.808,57.808,0,0,1-11.121.709l1.693,4.364,39.109-.007L325.034,287.8Z" fill="#dfcaa7"/>
            <path id="Trazado_724015" data-name="Trazado 724015" d="M324.634,287.765a43.754,43.754,0,0,0-9.127-.367c-4.158.547-4.695,2.421-5.66,4.045-1.149,1.885-2.916,3.495-7.376,4.32a57.808,57.808,0,0,1-11.121.709l1.693,4.364,39.109-.007L325.034,287.8Z" fill="none" stroke="#cab899" stroke-miterlimit="10" stroke-width="0.82"/>
          </g>
          <g id="Grupo_958665" data-name="Grupo 958665">
            <path id="Trazado_724016" data-name="Trazado 724016" d="M301.748,292.875c2.472-1.308,2.607-3.165,3.979-4.717,1.549-1.785,4.566-3.086,9.456-3.22a66.838,66.838,0,0,1,8.534.461l-1.178-2.158-36.3.057,4.206,10.847C294.877,294.252,299.424,294.087,301.748,292.875Z" fill="#dfcaa7"/>
            <path id="Trazado_724017" data-name="Trazado 724017" d="M301.748,292.875c2.472-1.308,2.607-3.165,3.979-4.717,1.549-1.785,4.566-3.086,9.456-3.22a66.838,66.838,0,0,1,8.534.461l-1.178-2.158-36.3.057,4.206,10.847C294.877,294.252,299.424,294.087,301.748,292.875Z" fill="none" stroke="#cab899" stroke-miterlimit="10" stroke-width="0.82"/>
          </g>
          <g id="Grupo_958666" data-name="Grupo 958666">
            <path id="Trazado_724018" data-name="Trazado 724018" d="M278.755,263.989l33.2-.112,9.615,17.589-36.012.062Z" fill="#dfcaa7"/>
            <path id="Trazado_724019" data-name="Trazado 724019" d="M278.755,263.989l33.2-.112,9.615,17.589-36.012.062Z" fill="none" stroke="#cab899" stroke-miterlimit="10" stroke-width="0.82"/>
          </g>
          <g id="Grupo_958667" data-name="Grupo 958667">
            <path id="Trazado_724020" data-name="Trazado 724020" d="M276.572,258.357l1.435,3.7,32.888-.116-2.029-3.711Z" fill="#dfcaa7"/>
            <path id="Trazado_724021" data-name="Trazado 724021" d="M276.572,258.357l1.435,3.7,32.888-.116-2.029-3.711Z" fill="none" stroke="#cab899" stroke-miterlimit="10" stroke-width="0.82"/>
          </g>
          <path id="Trazado_724022" data-name="Trazado 724022" d="M274.013,251.759l1.5,3.862,31.855-.135-2.117-3.873Z" fill="#91b051" stroke="#839e42" stroke-miterlimit="10" stroke-width="0.748"/>
          <g id="Grupo_958668" data-name="Grupo 958668">
            <path id="Trazado_724023" data-name="Trazado 724023" d="M303.75,248.869l-2.47-4.518-30.075.165,1.747,4.506Z" fill="#dfcaa7"/>
            <path id="Trazado_724024" data-name="Trazado 724024" d="M303.75,248.869l-2.47-4.518-30.075.165,1.747,4.506Z" fill="none" stroke="#cab899" stroke-miterlimit="10" stroke-width="0.82"/>
          </g>
          <g id="Grupo_958669" data-name="Grupo 958669">
            <path id="Trazado_724025" data-name="Trazado 724025" d="M293.97,238.088c-2.687.513-4.666,2.619-2.951,4.38l9.2-.053-2.465-4.509A16.543,16.543,0,0,0,293.97,238.088Z" fill="#91b051"/>
            <path id="Trazado_724026" data-name="Trazado 724026" d="M293.97,238.088c-2.687.513-4.666,2.619-2.951,4.38l9.2-.053-2.465-4.509A16.543,16.543,0,0,0,293.97,238.088Z" fill="none" stroke="#839e42" stroke-miterlimit="10" stroke-width="0.748"/>
          </g>
          <g id="Grupo_958670" data-name="Grupo 958670">
            <path id="Trazado_724027" data-name="Trazado 724027" d="M272.01,237a15.279,15.279,0,0,0-4.365-1.671l2.812,7.254,5.868-.034A8.877,8.877,0,0,0,272.01,237Z" fill="#91b051"/>
            <path id="Trazado_724028" data-name="Trazado 724028" d="M272.01,237a15.279,15.279,0,0,0-4.365-1.671l2.812,7.254,5.868-.034A8.877,8.877,0,0,0,272.01,237Z" fill="none" stroke="#839e42" stroke-miterlimit="10" stroke-width="0.748"/>
          </g>
          <g id="Grupo_958671" data-name="Grupo 958671">
            <path id="Trazado_724029" data-name="Trazado 724029" d="M265.965,231l.7,1.792a22.7,22.7,0,0,1,8.955,3.2,12.617,12.617,0,0,1,5.244,6.538l5.643-.032c-1.5-2.279-.354-4.874,2.621-6.006a18.708,18.708,0,0,1,7.381-.873l-2.633-4.817Z" fill="#dfcaa7"/>
            <path id="Trazado_724030" data-name="Trazado 724030" d="M265.965,231l.7,1.792a22.7,22.7,0,0,1,8.955,3.2,12.617,12.617,0,0,1,5.244,6.538l5.643-.032c-1.5-2.279-.354-4.874,2.621-6.006a18.708,18.708,0,0,1,7.381-.873l-2.633-4.817Z" fill="none" stroke="#cab899" stroke-miterlimit="10" stroke-width="0.82"/>
          </g>
          <g id="Grupo_958672" data-name="Grupo 958672">
            <path id="Trazado_724031" data-name="Trazado 724031" d="M292.746,228.74l-2.139-3.914-26.951.222,1.513,3.9Z" fill="#dfcaa7"/>
            <path id="Trazado_724032" data-name="Trazado 724032" d="M292.746,228.74l-2.139-3.914-26.951.222,1.513,3.9Z" fill="none" stroke="#cab899" stroke-miterlimit="10" stroke-width="0.82"/>
          </g>
          <g id="Grupo_958673" data-name="Grupo 958673">
            <path id="Trazado_724033" data-name="Trazado 724033" d="M228.829,293l1.013,7.85,42.872-.008-2.4-7.873Z" fill="#dfcaa7"/>
            <path id="Trazado_724034" data-name="Trazado 724034" d="M228.829,293l1.013,7.85,42.872-.008-2.4-7.873Z" fill="none" stroke="#cab899" stroke-miterlimit="10" stroke-width="0.992"/>
          </g>
          <g id="Grupo_958674" data-name="Grupo 958674">
            <path id="Trazado_724035" data-name="Trazado 724035" d="M245.834,296.337A41.774,41.774,0,0,0,228.88,293.4l.961,7.444,21.909,0A11.941,11.941,0,0,0,245.834,296.337Z" fill="#91b051"/>
            <path id="Trazado_724036" data-name="Trazado 724036" d="M245.834,296.337A41.774,41.774,0,0,0,228.88,293.4l.961,7.444,21.909,0A11.941,11.941,0,0,0,245.834,296.337Z" fill="none" stroke="#839e42" stroke-miterlimit="10" stroke-width="0.748"/>
          </g>
          <path id="Trazado_724037" data-name="Trazado 724037" d="M269.1,290.558l-2.189-7.229-39.319.062.931,7.207Z" fill="#91b051" stroke="#839e42" stroke-miterlimit="10" stroke-width="0.748"/>
          <g id="Grupo_958675" data-name="Grupo 958675">
            <path id="Trazado_724038" data-name="Trazado 724038" d="M274.013,290.553l9.313-.009-2.629-7.238-9.024.014Z" fill="#dfcaa7"/>
            <path id="Trazado_724039" data-name="Trazado 724039" d="M274.013,290.553l9.313-.009-2.629-7.238-9.024.014Z" fill="none" stroke="#cab899" stroke-miterlimit="10" stroke-width="0.992"/>
          </g>
          <g id="Grupo_958676" data-name="Grupo 958676">
            <path id="Trazado_724040" data-name="Trazado 724040" d="M274.208,292.964l2.53,7.877,10.328,0-2.864-7.88Z" fill="#dfcaa7"/>
            <path id="Trazado_724041" data-name="Trazado 724041" d="M274.208,292.964l2.53,7.877,10.328,0-2.864-7.88Z" fill="none" stroke="#cab899" stroke-miterlimit="10" stroke-width="0.992"/>
          </g>
          <g id="Grupo_958677" data-name="Grupo 958677">
            <path id="Trazado_724042" data-name="Trazado 724042" d="M250.6,239.927l.79,2.77,14.522-.085-1.008-2.773Z" fill="#dfcaa7"/>
            <path id="Trazado_724043" data-name="Trazado 724043" d="M250.6,239.927l.79,2.77,14.522-.085-1.008-2.773Z" fill="none" stroke="#cab899" stroke-miterlimit="10" stroke-width="0.992"/>
          </g>
          <g id="Grupo_958678" data-name="Grupo 958678">
            <path id="Trazado_724044" data-name="Trazado 724044" d="M249.289,235.349l.688,2.409,14.135-.09-.877-2.413Z" fill="#dfcaa7"/>
            <path id="Trazado_724045" data-name="Trazado 724045" d="M249.289,235.349l.688,2.409,14.135-.09-.877-2.413Z" fill="none" stroke="#cab899" stroke-miterlimit="10" stroke-width="0.992"/>
          </g>
          <g id="Grupo_958679" data-name="Grupo 958679">
            <path id="Trazado_724046" data-name="Trazado 724046" d="M248.017,230.892l.584,2.047,13.757-.1-.746-2.049Z" fill="#dfcaa7"/>
            <path id="Trazado_724047" data-name="Trazado 724047" d="M248.017,230.892l.584,2.047,13.757-.1-.746-2.049Z" fill="none" stroke="#cab899" stroke-miterlimit="10" stroke-width="0.992"/>
          </g>
          <g id="Grupo_958680" data-name="Grupo 958680">
            <path id="Trazado_724048" data-name="Trazado 724048" d="M260.868,228.74l-1.33-3.659-13.149.107,1.043,3.655Z" fill="#dfcaa7"/>
            <path id="Trazado_724049" data-name="Trazado 724049" d="M260.868,228.74l-1.33-3.659-13.149.107,1.043,3.655Z" fill="none" stroke="#cab899" stroke-miterlimit="10" stroke-width="0.992"/>
          </g>
          <path id="Trazado_724050" data-name="Trazado 724050" d="M247.249,242.722l-4.606-17.5-22.537.185,2.253,17.46Z" fill="#91b051" stroke="#839e42" stroke-miterlimit="10" stroke-width="0.748"/>
          <g id="Grupo_958681" data-name="Grupo 958681">
            <path id="Trazado_724051" data-name="Trazado 724051" d="M206.636,290.578l-.25-7.156-10.712.017-.091,7.15Z" fill="#dfcaa7"/>
            <path id="Trazado_724052" data-name="Trazado 724052" d="M206.636,290.578l-.25-7.156-10.712.017-.091,7.15Z" fill="none" stroke="#cab899" stroke-miterlimit="10" stroke-width="0.714"/>
          </g>
          <g id="Grupo_958682" data-name="Grupo 958682">
            <path id="Trazado_724053" data-name="Trazado 724053" d="M212.708,290.573l11.238-.012-.784-7.166-10.892.018Z" fill="#dfcaa7"/>
            <path id="Trazado_724054" data-name="Trazado 724054" d="M212.708,290.573l11.238-.012-.784-7.166-10.892.018Z" fill="none" stroke="#cab899" stroke-miterlimit="10" stroke-width="0.714"/>
          </g>
          <g id="Grupo_958683" data-name="Grupo 958683">
            <path id="Trazado_724055" data-name="Trazado 724055" d="M195.553,292.985l-.1,7.87,29.618-.006-.863-7.887Z" fill="#dfcaa7"/>
            <path id="Trazado_724056" data-name="Trazado 724056" d="M195.553,292.985l-.1,7.87,29.618-.006-.863-7.887Z" fill="none" stroke="#cab899" stroke-miterlimit="10" stroke-width="0.714"/>
          </g>
          <g id="Grupo_958684" data-name="Grupo 958684">
            <path id="Trazado_724057" data-name="Trazado 724057" d="M213.249,240.154l.224,2.761,5.256-.031-.3-2.761Z" fill="#dfcaa7"/>
            <path id="Trazado_724058" data-name="Trazado 724058" d="M213.249,240.154l.224,2.761,5.256-.031-.3-2.761Z" fill="none" stroke="#cab899" stroke-miterlimit="10" stroke-width="0.714"/>
          </g>
          <g id="Grupo_958685" data-name="Grupo 958685">
            <path id="Trazado_724059" data-name="Trazado 724059" d="M216.156,234.33c-1.125.084-2.237.2-3.353.316l.31,3.828,5.13-.032-.465-4.24C217.137,234.238,216.517,234.3,216.156,234.33Z" fill="#dfcaa7"/>
            <path id="Trazado_724060" data-name="Trazado 724060" d="M216.156,234.33c-1.125.084-2.237.2-3.353.316l.31,3.828,5.13-.032-.465-4.24C217.137,234.238,216.517,234.3,216.156,234.33Z" fill="none" stroke="#cab899" stroke-miterlimit="10" stroke-width="0.714"/>
          </g>
          <g id="Grupo_958686" data-name="Grupo 958686">
            <path id="Trazado_724061" data-name="Trazado 724061" d="M217.517,231.807l-.7-6.376-4.759.04.545,6.735A48.75,48.75,0,0,1,217.517,231.807Z" fill="#dfcaa7"/>
            <path id="Trazado_724062" data-name="Trazado 724062" d="M217.517,231.807l-.7-6.376-4.759.04.545,6.735A48.75,48.75,0,0,1,217.517,231.807Z" fill="none" stroke="#cab899" stroke-miterlimit="10" stroke-width="0.714"/>
          </g>
          <g id="Grupo_958687" data-name="Grupo 958687">
            <path id="Trazado_724063" data-name="Trazado 724063" d="M204.648,240.207l.093,2.758,5.744-.032-.178-2.76Z" fill="#dfcaa7"/>
            <path id="Trazado_724064" data-name="Trazado 724064" d="M204.648,240.207l.093,2.758,5.744-.032-.178-2.76Z" fill="none" stroke="#cab899" stroke-miterlimit="10" stroke-width="0.714"/>
          </g>
          <g id="Grupo_958688" data-name="Grupo 958688">
            <path id="Trazado_724065" data-name="Trazado 724065" d="M204.468,234.849l.124,3.678,5.606-.035-.233-3.6A36.935,36.935,0,0,1,204.468,234.849Z" fill="#dfcaa7"/>
            <path id="Trazado_724066" data-name="Trazado 724066" d="M204.468,234.849l.124,3.678,5.606-.035-.233-3.6A36.935,36.935,0,0,1,204.468,234.849Z" fill="none" stroke="#cab899" stroke-miterlimit="10" stroke-width="0.714"/>
          </g>
          <g id="Grupo_958689" data-name="Grupo 958689">
            <path id="Trazado_724067" data-name="Trazado 724067" d="M206.844,232.631a25.381,25.381,0,0,0,2.967-.122l-.455-7.017-5.2.044.233,6.914C205.174,232.544,206,232.606,206.844,232.631Z" fill="#dfcaa7"/>
            <path id="Trazado_724068" data-name="Trazado 724068" d="M206.844,232.631a25.381,25.381,0,0,0,2.967-.122l-.455-7.017-5.2.044.233,6.914C205.174,232.544,206,232.606,206.844,232.631Z" fill="none" stroke="#cab899" stroke-miterlimit="10" stroke-width="0.714"/>
          </g>
          <g id="Grupo_958690" data-name="Grupo 958690">
            <path id="Trazado_724069" data-name="Trazado 724069" d="M196.223,240.258l-.035,2.757,5.567-.031-.048-2.759Z" fill="#dfcaa7"/>
            <path id="Trazado_724070" data-name="Trazado 724070" d="M196.223,240.258l-.035,2.757,5.567-.031-.048-2.759Z" fill="none" stroke="#cab899" stroke-miterlimit="10" stroke-width="0.714"/>
          </g>
          <g id="Grupo_958691" data-name="Grupo 958691">
            <path id="Trazado_724071" data-name="Trazado 724071" d="M201.363,234.421a23.96,23.96,0,0,1-5.047-1.54l-.071,5.7,5.432-.034-.071-4.083C201.525,234.448,201.444,234.437,201.363,234.421Z" fill="#dfcaa7"/>
            <path id="Trazado_724072" data-name="Trazado 724072" d="M201.363,234.421a23.96,23.96,0,0,1-5.047-1.54l-.071,5.7,5.432-.034-.071-4.083C201.525,234.448,201.444,234.437,201.363,234.421Z" fill="none" stroke="#cab899" stroke-miterlimit="10" stroke-width="0.714"/>
          </g>
          <g id="Grupo_958692" data-name="Grupo 958692">
            <path id="Trazado_724073" data-name="Trazado 724073" d="M201.561,231.927l-.111-6.369-5.041.041-.047,3.7A11.671,11.671,0,0,0,201.561,231.927Z" fill="#dfcaa7"/>
            <path id="Trazado_724074" data-name="Trazado 724074" d="M201.561,231.927l-.111-6.369-5.041.041-.047,3.7A11.671,11.671,0,0,0,201.561,231.927Z" fill="none" stroke="#cab899" stroke-miterlimit="10" stroke-width="0.714"/>
          </g>
          <g id="Grupo_958693" data-name="Grupo 958693">
            <path id="Trazado_724075" data-name="Trazado 724075" d="M178.175,294.5c-5.474,1.551-6.941,3.917-7.451,6.358l19.325,0,.27-7.7A37.569,37.569,0,0,0,178.175,294.5Z" fill="#dfcaa7"/>
            <path id="Trazado_724076" data-name="Trazado 724076" d="M178.175,294.5c-5.474,1.551-6.941,3.917-7.451,6.358l19.325,0,.27-7.7A37.569,37.569,0,0,0,178.175,294.5Z" fill="none" stroke="#cab899" stroke-miterlimit="10" stroke-width="0.82"/>
          </g>
          <g id="Grupo_958694" data-name="Grupo 958694">
            <path id="Trazado_724077" data-name="Trazado 724077" d="M152.013,295.407l-1.076,5.456,13.959,0a9.359,9.359,0,0,1,3.8-5.463Z" fill="#dfcaa7"/>
            <path id="Trazado_724078" data-name="Trazado 724078" d="M152.013,295.407l-1.076,5.456,13.959,0a9.359,9.359,0,0,1,3.8-5.463Z" fill="none" stroke="#cab899" stroke-miterlimit="10" stroke-width="0.82"/>
          </g>
          <g id="Grupo_958695" data-name="Grupo 958695">
            <path id="Trazado_724079" data-name="Trazado 724079" d="M167.317,292.769l7.068-.006c.707-.215,1.468-.421,2.288-.613a53.244,53.244,0,0,1,13.73-1.369l.091-2.583-22.569.026Z" fill="#dfcaa7"/>
            <path id="Trazado_724080" data-name="Trazado 724080" d="M167.317,292.769l7.068-.006c.707-.215,1.468-.421,2.288-.613a53.244,53.244,0,0,1,13.73-1.369l.091-2.583-22.569.026Z" fill="none" stroke="#cab899" stroke-miterlimit="10" stroke-width="0.82"/>
          </g>
          <g id="Grupo_958696" data-name="Grupo 958696">
            <path id="Trazado_724081" data-name="Trazado 724081" d="M161.482,292.772l.721-4.541-8.775.011-.9,4.537Z" fill="#dfcaa7"/>
            <path id="Trazado_724082" data-name="Trazado 724082" d="M161.482,292.772l.721-4.541-8.775.011-.9,4.537Z" fill="none" stroke="#cab899" stroke-miterlimit="10" stroke-width="0.82"/>
          </g>
          <g id="Grupo_958697" data-name="Grupo 958697">
            <path id="Trazado_724083" data-name="Trazado 724083" d="M190.568,286.043l.091-2.6-36.3.058-.51,2.589Z" fill="#dfcaa7"/>
            <path id="Trazado_724084" data-name="Trazado 724084" d="M190.568,286.043l.091-2.6-36.3.058-.51,2.589Z" fill="none" stroke="#cab899" stroke-miterlimit="10" stroke-width="0.82"/>
          </g>
          <g id="Grupo_958698" data-name="Grupo 958698">
            <path id="Trazado_724085" data-name="Trazado 724085" d="M260.163,281.571l8.9-.017-5.513-17.516-8.2.027Z" fill="#dfcaa7"/>
            <path id="Trazado_724086" data-name="Trazado 724086" d="M260.163,281.571l8.9-.017-5.513-17.516-8.2.027Z" fill="none" stroke="#cab899" stroke-miterlimit="10" stroke-width="0.992"/>
          </g>
          <path id="Trazado_724087" data-name="Trazado 724087" d="M235.833,278.268a22.081,22.081,0,0,0-6.49-1.521c-.819-.085-1.713-.155-2.638-.2l.655,5.081,10.836-.018A3.954,3.954,0,0,0,235.833,278.268Z" fill="#91b051" stroke="#839e42" stroke-miterlimit="10" stroke-width="0.748"/>
          <g id="Grupo_958699" data-name="Grupo 958699">
            <path id="Trazado_724088" data-name="Trazado 724088" d="M231.036,274.532c3.188.422,7.087,1.161,9.12,2.465a7.361,7.361,0,0,1,3.434,4.6l10.273-.019-4.324-17.494-10.714.035c.017,3.492-5.355,6.313-12.844,6.811l.414,3.212C227.985,274.2,229.555,274.336,231.036,274.532Z" fill="#dfcaa7"/>
            <path id="Trazado_724089" data-name="Trazado 724089" d="M231.036,274.532c3.188.422,7.087,1.161,9.12,2.465a7.361,7.361,0,0,1,3.434,4.6l10.273-.019-4.324-17.494-10.714.035c.017,3.492-5.355,6.313-12.844,6.811l.414,3.212C227.985,274.2,229.555,274.336,231.036,274.532Z" fill="none" stroke="#cab899" stroke-miterlimit="10" stroke-width="0.992"/>
          </g>
          <path id="Trazado_724090" data-name="Trazado 724090" d="M250.838,269.343l-1.3-5.256-10.714.035c.013,2.133-1.967,4.014-5.221,5.269Z" fill="#91b051" stroke="#839e42" stroke-miterlimit="10" stroke-width="0.748"/>
          <g id="Grupo_958700" data-name="Grupo 958700">
            <path id="Trazado_724091" data-name="Trazado 724091" d="M273.879,281.547l6.174-.011L273.682,264l-5.692.02Z" fill="#dfcaa7"/>
            <path id="Trazado_724092" data-name="Trazado 724092" d="M273.879,281.547l6.174-.011L273.682,264l-5.692.02Z" fill="none" stroke="#cab899" stroke-miterlimit="10" stroke-width="0.992"/>
          </g>
          <g id="Grupo_958701" data-name="Grupo 958701">
            <path id="Trazado_724093" data-name="Trazado 724093" d="M204.943,277.791a17.408,17.408,0,0,0-9.195-.142l-.052,4.032,11.505-.019C207.157,280.374,207.557,278.664,204.943,277.791Z" fill="#dfcaa7"/>
            <path id="Trazado_724094" data-name="Trazado 724094" d="M204.943,277.791a17.408,17.408,0,0,0-9.195-.142l-.052,4.032,11.505-.019C207.157,280.374,207.557,278.664,204.943,277.791Z" fill="none" stroke="#cab899" stroke-miterlimit="10" stroke-width="0.714"/>
          </g>
          <g id="Grupo_958702" data-name="Grupo 958702">
            <path id="Trazado_724095" data-name="Trazado 724095" d="M205.822,268.863c2.932.986,3.895,2.646,6.57,3.728s6.279,1.374,9.742,1.41l-.332-3.034c-7.792-.378-14.034-3.2-14.857-6.738l-11.028.037L195.87,268A25.527,25.527,0,0,1,205.822,268.863Z" fill="#dfcaa7"/>
            <path id="Trazado_724096" data-name="Trazado 724096" d="M205.822,268.863c2.932.986,3.895,2.646,6.57,3.728s6.279,1.374,9.742,1.41l-.332-3.034c-7.792-.378-14.034-3.2-14.857-6.738l-11.028.037L195.87,268A25.527,25.527,0,0,1,205.822,268.863Z" fill="none" stroke="#cab899" stroke-miterlimit="10" stroke-width="0.714"/>
          </g>
          <g id="Grupo_958703" data-name="Grupo 958703">
            <path id="Trazado_724097" data-name="Trazado 724097" d="M206.389,272.953c-1.543-1.059-3.02-2.582-6.221-2.677a30.924,30.924,0,0,0-4.329.149l-.058,4.624a28.4,28.4,0,0,1,12.4.9c4.192,1.4,4.358,3.591,4.5,5.706l10.294-.017-.577-5.271C216.055,276.3,210.019,275.4,206.389,272.953Z" fill="#dfcaa7"/>
            <path id="Trazado_724098" data-name="Trazado 724098" d="M206.389,272.953c-1.543-1.059-3.02-2.582-6.221-2.677a30.924,30.924,0,0,0-4.329.149l-.058,4.624a28.4,28.4,0,0,1,12.4.9c4.192,1.4,4.358,3.591,4.5,5.706l10.294-.017-.577-5.271C216.055,276.3,210.019,275.4,206.389,272.953Z" fill="none" stroke="#cab899" stroke-miterlimit="10" stroke-width="0.714"/>
          </g>
          <g id="Grupo_958704" data-name="Grupo 958704">
            <path id="Trazado_724099" data-name="Trazado 724099" d="M260.257,257.885a15.522,15.522,0,0,1-8.411-4.286c-2.678-2.877-3.459-5.93-4.136-8.951l-14.378.08c.677,2.529.434,5.957,4.456,7.866,3.927,1.834,9.518,1.81,13.177,3.993,2.742,1.608,4.185,3.6,4.441,5.551l17.575-.063-1.334-3.671A55.406,55.406,0,0,1,260.257,257.885Z" fill="#dfcaa7"/>
            <path id="Trazado_724100" data-name="Trazado 724100" d="M260.257,257.885a15.522,15.522,0,0,1-8.411-4.286c-2.678-2.877-3.459-5.93-4.136-8.951l-14.378.08c.677,2.529.434,5.957,4.456,7.866,3.927,1.834,9.518,1.81,13.177,3.993,2.742,1.608,4.185,3.6,4.441,5.551l17.575-.063-1.334-3.671A55.406,55.406,0,0,1,260.257,257.885Z" fill="none" stroke="#cab899" stroke-miterlimit="10" stroke-width="0.992"/>
          </g>
          <g id="Grupo_958705" data-name="Grupo 958705">
            <path id="Trazado_724101" data-name="Trazado 724101" d="M235.443,244.714a5.844,5.844,0,0,0,3.93,5.347c2.73,1.141,6.119.446,9.2.634.42.025.83.063,1.232.11a22.394,22.394,0,0,1-2.091-6.157Z" fill="#91b051"/>
            <path id="Trazado_724102" data-name="Trazado 724102" d="M235.443,244.714a5.844,5.844,0,0,0,3.93,5.347c2.73,1.141,6.119.446,9.2.634.42.025.83.063,1.232.11a22.394,22.394,0,0,1-2.091-6.157Z" fill="none" stroke="#839e42" stroke-miterlimit="10" stroke-width="0.748"/>
          </g>
          <g id="Grupo_958706" data-name="Grupo 958706">
            <path id="Trazado_724103" data-name="Trazado 724103" d="M254.179,255.525a2.069,2.069,0,0,1-1.169-.7c-1.81-2.5-6.588-1.584-10.423-1.746a17.971,17.971,0,0,1-6.193-1.321,7.752,7.752,0,0,0,1.394.836c3.927,1.834,9.518,1.81,13.177,3.993,2.742,1.608,4.185,3.6,4.441,5.551l17.575-.063-1.334-3.671a55.406,55.406,0,0,1-11.39-.519A17.325,17.325,0,0,1,254.179,255.525Z" fill="#91b051"/>
            <path id="Trazado_724104" data-name="Trazado 724104" d="M254.179,255.525a2.069,2.069,0,0,1-1.169-.7c-1.81-2.5-6.588-1.584-10.423-1.746a17.971,17.971,0,0,1-6.193-1.321,7.752,7.752,0,0,0,1.394.836c3.927,1.834,9.518,1.81,13.177,3.993,2.742,1.608,4.185,3.6,4.441,5.551l17.575-.063-1.334-3.671a55.406,55.406,0,0,1-11.39-.519A17.325,17.325,0,0,1,254.179,255.525Z" fill="none" stroke="#839e42" stroke-miterlimit="10" stroke-width="0.748"/>
          </g>
          <g id="Grupo_958707" data-name="Grupo 958707">
            <path id="Trazado_724105" data-name="Trazado 724105" d="M255.445,252.013a10.03,10.03,0,0,0,6.659,3.8,58.453,58.453,0,0,0,8.68.217l-4.174-11.485-14.355.079A16.591,16.591,0,0,0,255.445,252.013Z" fill="#dfcaa7"/>
            <path id="Trazado_724106" data-name="Trazado 724106" d="M255.445,252.013a10.03,10.03,0,0,0,6.659,3.8,58.453,58.453,0,0,0,8.68.217l-4.174-11.485-14.355.079A16.591,16.591,0,0,0,255.445,252.013Z" fill="none" stroke="#cab899" stroke-miterlimit="10" stroke-width="0.992"/>
          </g>
          <g id="Grupo_958708" data-name="Grupo 958708">
            <path id="Trazado_724107" data-name="Trazado 724107" d="M238.292,262.2l12.089-.043c-.134-2.076-1.962-4.5-6.224-5.389-4.936-1.035-9.349-1.785-12.076-4.234-2.641-2.42-2.541-5.161-3.306-7.78l-6.168.034,1.455,11.285C230.771,256.494,236.541,258.991,238.292,262.2Z" fill="#dfcaa7"/>
            <path id="Trazado_724108" data-name="Trazado 724108" d="M238.292,262.2l12.089-.043c-.134-2.076-1.962-4.5-6.224-5.389-4.936-1.035-9.349-1.785-12.076-4.234-2.641-2.42-2.541-5.161-3.306-7.78l-6.168.034,1.455,11.285C230.771,256.494,236.541,258.991,238.292,262.2Z" fill="none" stroke="#cab899" stroke-miterlimit="10" stroke-width="0.992"/>
          </g>
          <g id="Grupo_958709" data-name="Grupo 958709">
            <path id="Trazado_724109" data-name="Trazado 724109" d="M207.026,262.309c1.011-3.268,6.36-5.838,13.145-6.245l-1.232-11.257-22.776.126-.221,17.416Z" fill="#dfcaa7"/>
            <path id="Trazado_724110" data-name="Trazado 724110" d="M207.026,262.309c1.011-3.268,6.36-5.838,13.145-6.245l-1.232-11.257-22.776.126-.221,17.416Z" fill="none" stroke="#cab899" stroke-miterlimit="10" stroke-width="0.714"/>
          </g>
          <path id="Trazado_724111" data-name="Trazado 724111" d="M211.574,263.673c-.185-2.915,4.571-5.3,10.622-5.322s11.367,2.324,11.872,5.246-4.25,5.3-10.622,5.322S211.76,266.588,211.574,263.673Z" fill="#dfcaa7" stroke="#cab899" stroke-miterlimit="10" stroke-width="0.785"/>
          <g id="Grupo_958710" data-name="Grupo 958710">
            <path id="Trazado_724112" data-name="Trazado 724112" d="M198.489,294.5l22.933-.015.47,4.853-23.4.007Z" fill="#91b051"/>
            <path id="Trazado_724113" data-name="Trazado 724113" d="M198.489,294.5l22.933-.015.47,4.853-23.4.007Z" fill="none" stroke="#839e42" stroke-miterlimit="10" stroke-width="0.748"/>
          </g>
          <path id="Trazado_724114" data-name="Trazado 724114" d="M216.4,263.3c-.127-1.458,2.25-2.65,5.31-2.661l1.511-.006c3.061-.011,5.718,1.164,5.935,2.624l.108.721c.218,1.459-2.158,2.652-5.31,2.662l-1.555.005c-3.152.009-5.809-1.166-5.937-2.624Z" fill="#91b051" stroke="#839e42" stroke-miterlimit="10" stroke-width="0.748"/>
          <path id="Trazado_724115" data-name="Trazado 724115" d="M215.221,253.279c-.417-.628-2.567-.973-4.213-1.355-3.56-.828-.915-2.454-3.477-3.454-1.208-.594-5.925-.451-6.622.392-1.654,1.448,3.152,2.382,2.706,3.705-.209,1.32-4.343,2.3-5.076,3.619-.5,1.2.5,2.875,3.741,2.5,2.188-.274,3.142-1.565,4.654-2.237,1.971-.884,5-.911,6.93-1.792C215.14,254.073,215.457,253.632,215.221,253.279Z" fill="#4cb9d3" stroke="#45aab4" stroke-miterlimit="10" stroke-width="0.748"/>
          <path id="Trazado_724116" data-name="Trazado 724116" d="M312.039,275.832c-1.765-1.281-12.328-1.333-8.361-3.34,1.621-.834,3.374-.583,2.96-2.1-.444-1.6-1.894-1.472-4.73-1.56a19.616,19.616,0,0,1-3.528-.229c-1.432-.353-1.633-.944-2.813-1.45a17.539,17.539,0,0,0-8.426-.907c-2.471.342-3.392,1.136-.971,2.178,2.248.962,5.654.729,5.616,2.466-.035,1.164-2.524,1.188-3.467,2.091a2.942,2.942,0,0,0-.469,3.267c.506.639,1.17.518,1.771.984.737.569.59,1.246,1.294,1.791,1.261.978,4.244,1.188,5.53.226,1.027-.775-.694-2.712,2.825-1.972.816.17,1.067.748,1.794.965a14.189,14.189,0,0,0,3.419.387,24.1,24.1,0,0,0,7.165-.5S314.556,277.644,312.039,275.832Z" fill="#4cb9d3" stroke="#45aab4" stroke-miterlimit="10" stroke-width="0.748"/>
          <g id="Grupo_958711" data-name="Grupo 958711">
            <path id="Trazado_724117" data-name="Trazado 724117" d="M149.373,253.338a23.263,23.263,0,0,0-3.722,4.407c-.935,1.575-1.215,3.215-2.2,4.79l10.031-.037,3.1-13.932A20.411,20.411,0,0,0,149.373,253.338Z" fill="#91b051"/>
            <path id="Trazado_724118" data-name="Trazado 724118" d="M149.373,253.338a23.263,23.263,0,0,0-3.722,4.407c-.935,1.575-1.215,3.215-2.2,4.79l10.031-.037,3.1-13.932A20.411,20.411,0,0,0,149.373,253.338Z" fill="none" stroke="#839e42" stroke-miterlimit="10" stroke-width="0.748"/>
          </g>
          <g id="Grupo_958712" data-name="Grupo 958712">
            <path id="Trazado_724119" data-name="Trazado 724119" d="M117.375,257.983a14.221,14.221,0,0,0-5.627,4.663l26.621-.093c1.655-2.055,1.929-4.289,3.485-6.362.05-.068.1-.134.157-.2C135.229,254.4,123.729,254.79,117.375,257.983Z" fill="#dfcaa7"/>
            <path id="Trazado_724120" data-name="Trazado 724120" d="M117.375,257.983a14.221,14.221,0,0,0-5.627,4.663l26.621-.093c1.655-2.055,1.929-4.289,3.485-6.362.05-.068.1-.134.157-.2C135.229,254.4,123.729,254.79,117.375,257.983Z" fill="none" stroke="#cab899" stroke-miterlimit="10" stroke-width="0.992"/>
          </g>
          <g id="Grupo_958713" data-name="Grupo 958713">
            <path id="Trazado_724121" data-name="Trazado 724121" d="M121.982,253.981a56.488,56.488,0,0,1,8.9-1.158l2.652-7.546-8.126.046Z" fill="#dfcaa7"/>
            <path id="Trazado_724122" data-name="Trazado 724122" d="M121.982,253.981a56.488,56.488,0,0,1,8.9-1.158l2.652-7.546-8.126.046Z" fill="none" stroke="#cab899" stroke-miterlimit="10" stroke-width="0.992"/>
          </g>
          <g id="Grupo_958714" data-name="Grupo 958714">
            <path id="Trazado_724123" data-name="Trazado 724123" d="M106.759,262.665a18.625,18.625,0,0,1,8.8-6.746c.1-.041.21-.08.313-.122l4.422-10.446-6.965.039-7.971,17.28Z" fill="#dfcaa7"/>
            <path id="Trazado_724124" data-name="Trazado 724124" d="M106.759,262.665a18.625,18.625,0,0,1,8.8-6.746c.1-.041.21-.08.313-.122l4.422-10.446-6.965.039-7.971,17.28Z" fill="none" stroke="#cab899" stroke-miterlimit="10" stroke-width="0.992"/>
          </g>
          <g id="Grupo_958715" data-name="Grupo 958715">
            <path id="Trazado_724125" data-name="Trazado 724125" d="M135.964,252.776a46.006,46.006,0,0,1,8.008.92,31.146,31.146,0,0,1,2.7-2.511,26.338,26.338,0,0,1,6.73-4.092,3.525,3.525,0,0,1-1.753-1.915l-13.242.073Z" fill="#dfcaa7"/>
            <path id="Trazado_724126" data-name="Trazado 724126" d="M135.964,252.776a46.006,46.006,0,0,1,8.008.92,31.146,31.146,0,0,1,2.7-2.511,26.338,26.338,0,0,1,6.73-4.092,3.525,3.525,0,0,1-1.753-1.915l-13.242.073Z" fill="none" stroke="#cab899" stroke-miterlimit="10" stroke-width="0.992"/>
          </g>
          <g id="Grupo_958716" data-name="Grupo 958716">
            <path id="Trazado_724127" data-name="Trazado 724127" d="M118.593,233.99l-4.382,9.5,7.734-.044c1.646-2.948,4.519-5.873,9.985-7.707a23.843,23.843,0,0,1,9.778-1.312,11.724,11.724,0,0,0-1.49-2.6C133.5,233.658,124.956,234.821,118.593,233.99Z" fill="#dfcaa7"/>
            <path id="Trazado_724128" data-name="Trazado 724128" d="M118.593,233.99l-4.382,9.5,7.734-.044c1.646-2.948,4.519-5.873,9.985-7.707a23.843,23.843,0,0,1,9.778-1.312,11.724,11.724,0,0,0-1.49-2.6C133.5,233.658,124.956,234.821,118.593,233.99Z" fill="none" stroke="#cab899" stroke-miterlimit="10" stroke-width="0.992"/>
          </g>
          <g id="Grupo_958717" data-name="Grupo 958717">
            <path id="Trazado_724129" data-name="Trazado 724129" d="M138.465,229.9a13.878,13.878,0,0,0-1.429-1.134,19.215,19.215,0,0,0-6.074-2.631l-8.779.071-2.468,5.351C124.859,232.585,132.536,231.489,138.465,229.9Z" fill="#dfcaa7"/>
            <path id="Trazado_724130" data-name="Trazado 724130" d="M138.465,229.9a13.878,13.878,0,0,0-1.429-1.134,19.215,19.215,0,0,0-6.074-2.631l-8.779.071-2.468,5.351C124.859,232.585,132.536,231.489,138.465,229.9Z" fill="none" stroke="#cab899" stroke-miterlimit="10" stroke-width="0.992"/>
          </g>
          <g id="Grupo_958718" data-name="Grupo 958718">
            <path id="Trazado_724131" data-name="Trazado 724131" d="M142.37,237.491c-1.794-1.676-7.171-.64-9.882.62a11.926,11.926,0,0,0-6.024,5.306l14.853-.086a10.235,10.235,0,0,0,1.171-5.743C142.447,237.558,142.408,237.525,142.37,237.491Z" fill="#dfcaa7"/>
            <path id="Trazado_724132" data-name="Trazado 724132" d="M142.37,237.491c-1.794-1.676-7.171-.64-9.882.62a11.926,11.926,0,0,0-6.024,5.306l14.853-.086a10.235,10.235,0,0,0,1.171-5.743C142.447,237.558,142.408,237.525,142.37,237.491Z" fill="none" stroke="#cab899" stroke-miterlimit="10" stroke-width="0.992"/>
          </g>
          <g id="Grupo_958719" data-name="Grupo 958719">
            <path id="Trazado_724133" data-name="Trazado 724133" d="M146.825,236.752a11.061,11.061,0,0,1-.958,6.553l6.052-.035c.931-1.667,3.529-3.037,6.624-3.548l.678-3.053Z" fill="#91b051"/>
            <path id="Trazado_724134" data-name="Trazado 724134" d="M146.825,236.752a11.061,11.061,0,0,1-.958,6.553l6.052-.035c.931-1.667,3.529-3.037,6.624-3.548l.678-3.053Z" fill="none" stroke="#839e42" stroke-miterlimit="10" stroke-width="0.748"/>
          </g>
          <g id="Grupo_958720" data-name="Grupo 958720">
            <path id="Trazado_724135" data-name="Trazado 724135" d="M140.916,227.349a18.176,18.176,0,0,1,1.39,1.228l18.745-.145.566-2.547-22.656.184A13.713,13.713,0,0,1,140.916,227.349Z" fill="#dfcaa7"/>
            <path id="Trazado_724136" data-name="Trazado 724136" d="M140.916,227.349a18.176,18.176,0,0,1,1.39,1.228l18.745-.145.566-2.547-22.656.184A13.713,13.713,0,0,1,140.916,227.349Z" fill="none" stroke="#cab899" stroke-miterlimit="10" stroke-width="0.992"/>
          </g>
          <g id="Grupo_958721" data-name="Grupo 958721">
            <path id="Trazado_724137" data-name="Trazado 724137" d="M144.519,231.177a13.953,13.953,0,0,1,1.685,3.2l13.547-.094.717-3.224Z" fill="#dfcaa7"/>
            <path id="Trazado_724138" data-name="Trazado 724138" d="M144.519,231.177a13.953,13.953,0,0,1,1.685,3.2l13.547-.094.717-3.224Z" fill="none" stroke="#cab899" stroke-miterlimit="10" stroke-width="0.992"/>
          </g>
          <path id="Trazado_724139" data-name="Trazado 724139" d="M155.058,244.03c.343-1.453,2.862-2.643,5.632-2.66s4.8,1.149,4.535,2.6-2.784,2.644-5.631,2.659S154.715,245.482,155.058,244.03Z" fill="#dfcaa7" stroke="#cab899" stroke-miterlimit="10" stroke-width="0.393"/>
          <g id="Grupo_958722" data-name="Grupo 958722">
            <path id="Trazado_724140" data-name="Trazado 724140" d="M225.48,233.856c1.779,1.383,4.952,1.665,7.688,1.962,2.85.306,5.31,1.081,6.316,2.641.894,1.377.479,2.935.144,4.306l2.359-.014c.343-1.655.544-3.406-.719-5.052-1.543-2.038-5.529-2.859-9.078-3.178-2.309-.207-4.786-.707-5.627-2.039a1.546,1.546,0,0,1,.3-1.86,2.959,2.959,0,0,0,1.878,1.068,9.7,9.7,0,0,0,1.9.106c1.1-.023,1.452-.063,1.511.657.02.247.452.532.911.575,5.648.511,6.086-3.342,2.161-5.068a9.161,9.161,0,0,0-6.6-.152,2.653,2.653,0,0,0-1.58.673,6.852,6.852,0,0,0-2.1,1.6A2.43,2.43,0,0,0,225.48,233.856Z" fill="#4cb9d3" stroke="#45aab4" stroke-miterlimit="10" stroke-width="0.748"/>
          </g>
          <g id="Grupo_958723" data-name="Grupo 958723">
            <path id="Trazado_724141" data-name="Trazado 724141" d="M115.824,295.11a17.163,17.163,0,0,0,1.185,3.469,3.429,3.429,0,0,1,.438,2.768h2.72a3.618,3.618,0,0,0-.3-2.673,26.953,26.953,0,0,1-1.645-5.1,32.814,32.814,0,0,1,.1-9.661c.333-2.62,1.01-5.837,6.29-7.879,5.364-2.11,13.593-1.733,19.6-1.689,10.3.074,19.9-1.119,25.478-5.459,6.216-5.035,4.7-10.831,7.127-16.205,1-2.275,3.224-4.385,3.959-6.685a5.4,5.4,0,0,0-1.633-6.013c-1.555-1.476-5.1-2.176-5.806-3.883a3.245,3.245,0,0,1,.732-3.255,10.914,10.914,0,0,1,3.7-1.975q5.26-2.155,7.438-5.178l-1.929.016a10.963,10.963,0,0,1-1.843,1.855c-2.465,1.953-7.2,2.795-9.168,4.97-1.845,1.994-1.418,4.568,1.4,5.96,2,.975,3.772,1.836,4.731,3.273,1.112,1.635.672,3.5-.158,5.211-.77,1.561-2.161,3.039-3.055,4.588a16.363,16.363,0,0,0-1.781,5.09c-1.023,4.8-1.5,10.726-10.335,14.332-6.364,2.528-14.771,2.29-22.306,2.26-7.473-.029-16.705.416-21.233,3.957-4.426,3.385-3.909,7.455-4.2,10.952A24.67,24.67,0,0,0,115.824,295.11Z" fill="#4cb9d3" stroke="#45aab4" stroke-miterlimit="10" stroke-width="0.748"/>
          </g>
          <g id="Grupo_958724" data-name="Grupo 958724">
            <path id="Trazado_724142" data-name="Trazado 724142" d="M125.245,298.005c-.73.276-1.405.567-2.037.863a4.075,4.075,0,0,1,.246,2l21.508,0,1.2-5.4C138.983,294.986,131.136,295.744,125.245,298.005Z" fill="#dfcaa7"/>
            <path id="Trazado_724143" data-name="Trazado 724143" d="M125.245,298.005c-.73.276-1.405.567-2.037.863a4.075,4.075,0,0,1,.246,2l21.508,0,1.2-5.4C138.983,294.986,131.136,295.744,125.245,298.005Z" fill="none" stroke="#cab899" stroke-miterlimit="10" stroke-width="0.992"/>
          </g>
          <g id="Grupo_958725" data-name="Grupo 958725">
            <path id="Trazado_724144" data-name="Trazado 724144" d="M127.189,288.505q-3.318-.246-6.231-.75a24.1,24.1,0,0,0,.341,5.482,19.623,19.623,0,0,0,.845,2.923c.014,0,.025-.01.042-.016a66.267,66.267,0,0,1,24.5-3.058l.949-4.27C140.79,288.809,133.812,288.992,127.189,288.505Z" fill="#dfcaa7"/>
            <path id="Trazado_724145" data-name="Trazado 724145" d="M127.189,288.505q-3.318-.246-6.231-.75a24.1,24.1,0,0,0,.341,5.482,19.623,19.623,0,0,0,.845,2.923c.014,0,.025-.01.042-.016a66.267,66.267,0,0,1,24.5-3.058l.949-4.27C140.79,288.809,133.812,288.992,127.189,288.505Z" fill="none" stroke="#cab899" stroke-miterlimit="10" stroke-width="0.992"/>
          </g>
          <g id="Grupo_958726" data-name="Grupo 958726">
            <path id="Trazado_724146" data-name="Trazado 724146" d="M121.154,285.019a48.527,48.527,0,0,0,8.969,1.267c5.876.338,12.01.178,18.038.179l.656-2.952-27.508.042c-.012.118-.026.237-.039.352Q121.208,284.464,121.154,285.019Z" fill="#dfcaa7"/>
            <path id="Trazado_724147" data-name="Trazado 724147" d="M121.154,285.019a48.527,48.527,0,0,0,8.969,1.267c5.876.338,12.01.178,18.038.179l.656-2.952-27.508.042c-.012.118-.026.237-.039.352Q121.208,284.464,121.154,285.019Z" fill="none" stroke="#cab899" stroke-miterlimit="10" stroke-width="0.992"/>
          </g>
          <g id="Grupo_958727" data-name="Grupo 958727">
            <path id="Trazado_724148" data-name="Trazado 724148" d="M112.719,295.445a25.809,25.809,0,0,1-.394-7.288c.018-.174.029-.352.042-.528a13.883,13.883,0,0,0-7.619,4.1,15.553,15.553,0,0,0-3.9,9.144l13.568,0a3.845,3.845,0,0,0-.549-1.957A16.914,16.914,0,0,1,112.719,295.445Z" fill="#dfcaa7"/>
            <path id="Trazado_724149" data-name="Trazado 724149" d="M112.719,295.445a25.809,25.809,0,0,1-.394-7.288c.018-.174.029-.352.042-.528a13.883,13.883,0,0,0-7.619,4.1,15.553,15.553,0,0,0-3.9,9.144l13.568,0a3.845,3.845,0,0,0-.549-1.957A16.914,16.914,0,0,1,112.719,295.445Z" fill="none" stroke="#cab899" stroke-miterlimit="10" stroke-width="0.992"/>
          </g>
          <g id="Grupo_958728" data-name="Grupo 958728">
            <path id="Trazado_724150" data-name="Trazado 724150" d="M94.876,300.873c.524-3.6,1.588-7.323,5.613-10.712,2.539-2.172,6.393-4.057,11.882-4.938l.182-.026c.052-.54.114-1.083.214-1.629l-17.059.026-7.972,17.282Z" fill="#dfcaa7"/>
            <path id="Trazado_724151" data-name="Trazado 724151" d="M94.876,300.873c.524-3.6,1.588-7.323,5.613-10.712,2.539-2.172,6.393-4.057,11.882-4.938l.182-.026c.052-.54.114-1.083.214-1.629l-17.059.026-7.972,17.282Z" fill="none" stroke="#cab899" stroke-miterlimit="10" stroke-width="0.992"/>
          </g>
          <g id="Grupo_958729" data-name="Grupo 958729">
            <path id="Trazado_724152" data-name="Trazado 724152" d="M139.37,277.532a3.726,3.726,0,0,1,.4,4.246l9.438-.016,1.394-6.28c-2.213.1-4.448.13-6.706.115-2.538-.02-5.743-.14-8.883-.038C136.923,276.019,138.584,276.626,139.37,277.532Z" fill="#dfcaa7"/>
            <path id="Trazado_724153" data-name="Trazado 724153" d="M139.37,277.532a3.726,3.726,0,0,1,.4,4.246l9.438-.016,1.394-6.28c-2.213.1-4.448.13-6.706.115-2.538-.02-5.743-.14-8.883-.038C136.923,276.019,138.584,276.626,139.37,277.532Z" fill="none" stroke="#cab899" stroke-miterlimit="10" stroke-width="0.992"/>
          </g>
          <g id="Grupo_958730" data-name="Grupo 958730">
            <path id="Trazado_724154" data-name="Trazado 724154" d="M134.383,278.73c-1.1-1.062-4.069-1.438-6.422-1.836a3.44,3.44,0,0,1-.86-.249c-.264.085-.525.17-.773.268-3.213,1.247-4.283,3.116-4.727,4.9l12.793-.023C134.975,280.7,135.264,279.563,134.383,278.73Z" fill="#91b051"/>
            <path id="Trazado_724155" data-name="Trazado 724155" d="M134.383,278.73c-1.1-1.062-4.069-1.438-6.422-1.836a3.44,3.44,0,0,1-.86-.249c-.264.085-.525.17-.773.268-3.213,1.247-4.283,3.116-4.727,4.9l12.793-.023C134.975,280.7,135.264,279.563,134.383,278.73Z" fill="none" stroke="#839e42" stroke-miterlimit="10" stroke-width="0.748"/>
          </g>
          <g id="Grupo_958731" data-name="Grupo 958731">
            <path id="Trazado_724156" data-name="Trazado 724156" d="M140.873,271.992h.231c3.268.014,6.827.1,10.289-.079l1.667-7.5-10.134.034Z" fill="#dfcaa7"/>
            <path id="Trazado_724157" data-name="Trazado 724157" d="M140.873,271.992h.231c3.268.014,6.827.1,10.289-.079l1.667-7.5-10.134.034Z" fill="none" stroke="#cab899" stroke-miterlimit="10" stroke-width="0.992"/>
          </g>
          <g id="Grupo_958732" data-name="Grupo 958732">
            <path id="Trazado_724158" data-name="Trazado 724158" d="M116.129,272.234a46.729,46.729,0,0,0-10.923-.377,35.653,35.653,0,0,0-4.383.651l-4.311,9.344,16.7-.029a10.257,10.257,0,0,1,3.685-4.946,18.086,18.086,0,0,1,5.288-2.677C121.491,273.184,118.007,272.524,116.129,272.234Z" fill="#91b051"/>
            <path id="Trazado_724159" data-name="Trazado 724159" d="M116.129,272.234a46.729,46.729,0,0,0-10.923-.377,35.653,35.653,0,0,0-4.383.651l-4.311,9.344,16.7-.029a10.257,10.257,0,0,1,3.685-4.946,18.086,18.086,0,0,1,5.288-2.677C121.491,273.184,118.007,272.524,116.129,272.234Z" fill="none" stroke="#839e42" stroke-miterlimit="10" stroke-width="0.748"/>
          </g>
          <g id="Grupo_958733" data-name="Grupo 958733">
            <path id="Trazado_724160" data-name="Trazado 724160" d="M107.355,269.441c5.936-.241,17.515.688,19.979,3.495a60.7,60.7,0,0,1,6.4-.739l2.362-7.731-31.608.1-2.476,5.369A51.247,51.247,0,0,1,107.355,269.441Z" fill="#dfcaa7"/>
            <path id="Trazado_724161" data-name="Trazado 724161" d="M107.355,269.441c5.936-.241,17.515.688,19.979,3.495a60.7,60.7,0,0,1,6.4-.739l2.362-7.731-31.608.1-2.476,5.369A51.247,51.247,0,0,1,107.355,269.441Z" fill="none" stroke="#cab899" stroke-miterlimit="10" stroke-width="0.992"/>
          </g>
          <g id="Grupo_958734" data-name="Grupo 958734">
            <path id="Trazado_724162" data-name="Trazado 724162" d="M182.68,279.311l-.172,2.393,8.213-.015.084-2.395Z" fill="#dfcaa7"/>
            <path id="Trazado_724163" data-name="Trazado 724163" d="M182.68,279.311l-.172,2.393,8.213-.015.084-2.395Z" fill="none" stroke="#cab899" stroke-miterlimit="10" stroke-width="0.82"/>
          </g>
          <g id="Grupo_958735" data-name="Grupo 958735">
            <path id="Trazado_724164" data-name="Trazado 724164" d="M183.053,274.122l-.224,3.113,8.049-.018.108-3.114Z" fill="#dfcaa7"/>
            <path id="Trazado_724165" data-name="Trazado 724165" d="M183.053,274.122l-.224,3.113,8.049-.018.108-3.114Z" fill="none" stroke="#cab899" stroke-miterlimit="10" stroke-width="0.82"/>
          </g>
          <g id="Grupo_958736" data-name="Grupo 958736">
            <path id="Trazado_724166" data-name="Trazado 724166" d="M183.409,269.174l-.218,3.032,7.863-.02.106-3.034Z" fill="#dfcaa7"/>
            <path id="Trazado_724167" data-name="Trazado 724167" d="M183.409,269.174l-.218,3.032,7.863-.02.106-3.034Z" fill="none" stroke="#cab899" stroke-miterlimit="10" stroke-width="0.82"/>
          </g>
          <g id="Grupo_958737" data-name="Grupo 958737">
            <path id="Trazado_724168" data-name="Trazado 724168" d="M191.242,266.836l.089-2.554-7.571.025-.185,2.554Z" fill="#dfcaa7"/>
            <path id="Trazado_724169" data-name="Trazado 724169" d="M191.242,266.836l.089-2.554-7.571.025-.185,2.554Z" fill="none" stroke="#cab899" stroke-miterlimit="10" stroke-width="0.82"/>
          </g>
          <g id="Grupo_958738" data-name="Grupo 958738">
            <path id="Trazado_724170" data-name="Trazado 724170" d="M169.349,281.727l8.341-.015,1.629-17.391-3.22.01a13.814,13.814,0,0,1-4.115,5.18c-.353.282-.736.561-1.141.833Z" fill="#dfcaa7"/>
            <path id="Trazado_724171" data-name="Trazado 724171" d="M169.349,281.727l8.341-.015,1.629-17.391-3.22.01a13.814,13.814,0,0,1-4.115,5.18c-.353.282-.736.561-1.141.833Z" fill="none" stroke="#cab899" stroke-miterlimit="10" stroke-width="0.82"/>
          </g>
          <g id="Grupo_958739" data-name="Grupo 958739">
            <path id="Trazado_724172" data-name="Trazado 724172" d="M155.163,279.442l-.456,2.309,10.009-.016.352-2.312Z" fill="#dfcaa7"/>
            <path id="Trazado_724173" data-name="Trazado 724173" d="M155.163,279.442l-.456,2.309,10.009-.016.352-2.312Z" fill="none" stroke="#cab899" stroke-miterlimit="10" stroke-width="0.82"/>
          </g>
          <g id="Grupo_958740" data-name="Grupo 958740">
            <path id="Trazado_724174" data-name="Trazado 724174" d="M165.4,277.273l.683-4.491a32.073,32.073,0,0,1-4.731,1.4c-1.751.377-3.524.661-5.318.872l-.442,2.241Z" fill="#dfcaa7"/>
            <path id="Trazado_724175" data-name="Trazado 724175" d="M165.4,277.273l.683-4.491a32.073,32.073,0,0,1-4.731,1.4c-1.751.377-3.524.661-5.318.872l-.442,2.241Z" fill="none" stroke="#cab899" stroke-miterlimit="10" stroke-width="0.82"/>
          </g>
          <g id="Grupo_958741" data-name="Grupo 958741">
            <path id="Trazado_724176" data-name="Trazado 724176" d="M161.261,270.105c3.806-1.542,5.921-3.573,7.192-5.748l-10.321.036-1.37,6.945A22.959,22.959,0,0,0,161.261,270.105Z" fill="#dfcaa7"/>
            <path id="Trazado_724177" data-name="Trazado 724177" d="M161.261,270.105c3.806-1.542,5.921-3.573,7.192-5.748l-10.321.036-1.37,6.945A22.959,22.959,0,0,0,161.261,270.105Z" fill="none" stroke="#cab899" stroke-miterlimit="10" stroke-width="0.82"/>
          </g>
          <g id="Grupo_958744" data-name="Grupo 958744">
            <g id="Grupo_958742" data-name="Grupo 958742">
              <path id="Trazado_724178" data-name="Trazado 724178" d="M183.226,245.981c-.743,2.418-2.979,4.631-4,7.021-1.35,3.106-1.481,6.3-2.416,9.415l14.586-.053.609-17.409-8.56.047A6.883,6.883,0,0,1,183.226,245.981Z" fill="#dfcaa7"/>
              <path id="Trazado_724179" data-name="Trazado 724179" d="M183.226,245.981c-.743,2.418-2.979,4.631-4,7.021-1.35,3.106-1.481,6.3-2.416,9.415l14.586-.053.609-17.409-8.56.047A6.883,6.883,0,0,1,183.226,245.981Z" fill="none" stroke="#cab899" stroke-miterlimit="10" stroke-width="0.82"/>
            </g>
            <g id="Grupo_958743" data-name="Grupo 958743">
              <path id="Trazado_724180" data-name="Trazado 724180" d="M170.815,256.666a17.831,17.831,0,0,1,1.981-5.425c.914-1.549,2.321-3.027,3.11-4.589a7.155,7.155,0,0,0,.6-1.611l-8.346.046c-1.1,1.527-3.714,2.724-6.837,3.115l-2.817,14.279,10.854-.039A41.071,41.071,0,0,0,170.815,256.666Z" fill="#dfcaa7"/>
              <path id="Trazado_724181" data-name="Trazado 724181" d="M170.815,256.666a17.831,17.831,0,0,1,1.981-5.425c.914-1.549,2.321-3.027,3.11-4.589a7.155,7.155,0,0,0,.6-1.611l-8.346.046c-1.1,1.527-3.714,2.724-6.837,3.115l-2.817,14.279,10.854-.039A41.071,41.071,0,0,0,170.815,256.666Z" fill="none" stroke="#cab899" stroke-miterlimit="10" stroke-width="0.82"/>
            </g>
          </g>
          <g id="Grupo_958747" data-name="Grupo 958747">
            <g id="Grupo_958745" data-name="Grupo 958745">
              <path id="Trazado_724182" data-name="Trazado 724182" d="M178.778,231.943c-2.474,1-3.875,2.087-3.161,3.807.273.645,1.14.982,2.036,1.393a13.693,13.693,0,0,1,3.6,2.191,6.652,6.652,0,0,1,2.182,3.754l8.644-.05.61-17.408-5.185.042C185.919,228.141,183.006,230.213,178.778,231.943Z" fill="#91b051"/>
              <path id="Trazado_724183" data-name="Trazado 724183" d="M178.778,231.943c-2.474,1-3.875,2.087-3.161,3.807.273.645,1.14.982,2.036,1.393a13.693,13.693,0,0,1,3.6,2.191,6.652,6.652,0,0,1,2.182,3.754l8.644-.05.61-17.408-5.185.042C185.919,228.141,183.006,230.213,178.778,231.943Z" fill="none" stroke="#839e42" stroke-miterlimit="10" stroke-width="0.748"/>
            </g>
            <g id="Grupo_958746" data-name="Grupo 958746">
              <path id="Trazado_724184" data-name="Trazado 724184" d="M168.687,243.172l7.821-.043a3.413,3.413,0,0,0-.46-1.019c-.79-1.2-2.5-1.908-4.174-2.721-3.6-1.781-3.8-4.987-1.469-7.477,2.048-2.238,6.69-3,9.192-4.969a10.535,10.535,0,0,0,1.293-1.217l-15.156.125-2.716,13.77C166.175,240.018,168.437,241.413,168.687,243.172Z" fill="#dfcaa7"/>
              <path id="Trazado_724185" data-name="Trazado 724185" d="M168.687,243.172l7.821-.043a3.413,3.413,0,0,0-.46-1.019c-.79-1.2-2.5-1.908-4.174-2.721-3.6-1.781-3.8-4.987-1.469-7.477,2.048-2.238,6.69-3,9.192-4.969a10.535,10.535,0,0,0,1.293-1.217l-15.156.125-2.716,13.77C166.175,240.018,168.437,241.413,168.687,243.172Z" fill="none" stroke="#cab899" stroke-miterlimit="10" stroke-width="0.82"/>
            </g>
          </g>
        </g>
        <rect id="Rectángulo_340122" data-name="Rectángulo 340122" width="259.953" height="9.494" transform="translate(79.854 303.411)" fill="#e0d9bc"/>
      </g>
      <path id="Trazado_724186" data-name="Trazado 724186" d="M79.854,312.905,68.461,329.426h282.36l-11.014-16.521Z" fill="#bababa" style="mix-blend-mode: multiply;isolation: isolate"/>
    </g>
    <g id="Grupo_958753" data-name="Grupo 958753">
      <g id="Grupo_958751" data-name="Grupo 958751">
        <path id="Trazado_724187" data-name="Trazado 724187" d="M166.861,259.5l-37.633-54.66,76.54-.543Z" fill="#db0613"/>
        <path id="Trazado_724188" data-name="Trazado 724188" d="M213.225,179.465A45.908,45.908,0,1,1,167.579,133.3,45.906,45.906,0,0,1,213.225,179.465Z" fill="#db0613"/>
        <path id="Trazado_724189" data-name="Trazado 724189" d="M207.936,179.435a40.619,40.619,0,1,1-40.387-40.849A40.616,40.616,0,0,1,207.936,179.435Z" fill="#9a0e0c"/>
        <path id="Trazado_724190" data-name="Trazado 724190" d="M203.024,179.407a35.707,35.707,0,1,1-35.5-35.909A35.709,35.709,0,0,1,203.024,179.407Z" fill="#fff"/>
        <path id="Trazado_724191" data-name="Trazado 724191" d="M170.543,210.018a35.7,35.7,0,0,1-30.632-53.7A35.7,35.7,0,1,0,198.153,197.2,35.636,35.636,0,0,1,170.543,210.018Z" fill="#bbe4fb"/>
        <path id="Trazado_724192" data-name="Trazado 724192" d="M196.193,147.669a50.108,50.108,0,0,1,15.215,28.913A41.388,41.388,0,0,0,205,155.04c-7.334-11.827-19.109-18.688-30.078-18.73C182.1,137.583,189.591,141.386,196.193,147.669Z" fill="#de2217"/>
        <path id="Trazado_724193" data-name="Trazado 724193" d="M166.861,259.5l-31.132-45.217s5.189,5.3,16.785,10.088c8.582,3.545,14.527,3.389,14.527,3.389Z" fill="#de2217"/>
        <path id="Trazado_724194" data-name="Trazado 724194" d="M161.478,244.033l5.615,8.156,5.7-8.092-5.673,2.3Z" fill="#fff"/>
      </g>
    </g>
    <g id="Grupo_958761" data-name="Grupo 958761">
      <path id="Trazado_724197" data-name="Trazado 724197" d="M337.357,250.674a44.611,44.611,0,1,1-44.61-44.611A44.611,44.611,0,0,1,337.357,250.674Z" fill="#db0613"/>
      <circle id="Elipse_5668" data-name="Elipse 5668" cx="33.605" cy="33.605" r="33.605" transform="translate(262.45 209.441)" fill="#f7bdb5" style="mix-blend-mode: soft-light;isolation: isolate"/>
      <path id="Trazado_724198" data-name="Trazado 724198" d="M297.274,284.938a44.607,44.607,0,0,1-42.8-57.188,44.612,44.612,0,1,0,81.073,35.5A44.579,44.579,0,0,1,297.274,284.938Z" fill="#d2d1d1" style="mix-blend-mode: multiply;isolation: isolate"/>
      <path id="Trazado_724199" data-name="Trazado 724199" d="M312.485,221.1a10.322,10.322,0,1,1-10.322-10.323A10.32,10.32,0,0,1,312.485,221.1Z" fill="#f7bdb5" style="mix-blend-mode: soft-light;isolation: isolate"/>
      <path id="Trazado_724200" data-name="Trazado 724200" d="M324.67,230.854A4.853,4.853,0,1,1,319.817,226,4.851,4.851,0,0,1,324.67,230.854Z" fill="#f7bdb5" style="mix-blend-mode: soft-light;isolation: isolate"/>
      <path id="Trazado_724201" data-name="Trazado 724201" d="M314.965,236.742a2.935,2.935,0,1,1-2.935-2.934A2.936,2.936,0,0,1,314.965,236.742Z" fill="#f7bdb5" style="mix-blend-mode: soft-light;isolation: isolate"/>
      <g id="Grupo_958760" data-name="Grupo 958760">
        <path id="Trazado_724202" data-name="Trazado 724202" d="M318.176,252.562a24.555,24.555,0,1,1-24.555-24.553A24.553,24.553,0,0,1,318.176,252.562Z" fill="none" stroke="#fff" stroke-miterlimit="10" stroke-width="1.576"/>
        <line id="Línea_143" data-name="Línea 143" x1="3.157" y2="3.157" transform="translate(307.828 235.16)" fill="none" stroke="#fff" stroke-miterlimit="10" stroke-width="1.576"/>
        <line id="Línea_144" data-name="Línea 144" x1="3.156" y2="3.155" transform="translate(276.26 266.732)" fill="none" stroke="#fff" stroke-miterlimit="10" stroke-width="1.576"/>
        <line id="Línea_145" data-name="Línea 145" x1="3.157" y1="3.155" transform="translate(307.828 266.732)" fill="none" stroke="#fff" stroke-miterlimit="10" stroke-width="1.576"/>
        <line id="Línea_146" data-name="Línea 146" x1="3.156" y1="3.157" transform="translate(276.26 235.16)" fill="none" stroke="#fff" stroke-miterlimit="10" stroke-width="1.576"/>
        <g id="Grupo_958755" data-name="Grupo 958755">
          <path id="Trazado_724203" data-name="Trazado 724203" d="M293.228,280.888,287.2,258.228h12.843Z" fill="#fff"/>
          <path id="Trazado_724204" data-name="Trazado 724204" d="M293.228,224.238l6.816,22.66H287.2Z" fill="none" stroke="#fff" stroke-miterlimit="10" stroke-width="1.631"/>
          <path id="Trazado_724205" data-name="Trazado 724205" d="M265.3,252.17l22.661-6.028v12.842Z" fill="#fff"/>
          <path id="Trazado_724206" data-name="Trazado 724206" d="M321.947,252.17l-22.661,6.813V246.142Z" fill="#fff"/>
          <g id="Grupo_958754" data-name="Grupo 958754">
            <path id="Trazado_724207" data-name="Trazado 724207" d="M302.443,252.284a8.821,8.821,0,1,1-8.82-8.82A8.821,8.821,0,0,1,302.443,252.284Z" fill="#fff"/>
            <path id="Trazado_724208" data-name="Trazado 724208" d="M293.623,261.921a9.636,9.636,0,1,1,9.635-9.637A9.647,9.647,0,0,1,293.623,261.921Zm0-17.641a8.005,8.005,0,1,0,8,8A8.013,8.013,0,0,0,293.623,244.28Z" fill="#db0613"/>
          </g>
        </g>
        <g id="Grupo_958756" data-name="Grupo 958756">
          <path id="Trazado_724209" data-name="Trazado 724209" d="M326.213,252.46h-1.919v1.779h2.139v.535h-2.776v-4.936h2.666v.534h-2.029v1.561h1.919Z" fill="#fff"/>
        </g>
        <g id="Grupo_958757" data-name="Grupo 958757">
          <path id="Trazado_724210" data-name="Trazado 724210" d="M291.387,219.357v-4.936h.7l1.582,2.5a13.843,13.843,0,0,1,.886,1.6l.015-.008c-.059-.659-.073-1.26-.073-2.029v-2.065h.6v4.936h-.644l-1.568-2.5a15.65,15.65,0,0,1-.923-1.649l-.022.008c.037.623.052,1.216.052,2.036v2.109Z" fill="#fff"/>
        </g>
        <g id="Grupo_958758" data-name="Grupo 958758">
          <path id="Trazado_724211" data-name="Trazado 724211" d="M291.3,286.693a2.256,2.256,0,0,0,1.142.323c.652,0,1.033-.345,1.033-.843,0-.461-.264-.725-.93-.981-.806-.286-1.3-.7-1.3-1.4a1.422,1.422,0,0,1,1.6-1.341,2.237,2.237,0,0,1,1.091.242l-.176.52a1.962,1.962,0,0,0-.937-.234c-.674,0-.93.4-.93.74,0,.461.3.688.981.952.835.322,1.26.726,1.26,1.45,0,.762-.564,1.421-1.728,1.421a2.555,2.555,0,0,1-1.26-.315Z" fill="#fff"/>
        </g>
        <g id="Grupo_958759" data-name="Grupo 958759">
          <path id="Trazado_724212" data-name="Trazado 724212" d="M258.4,253.475l-1.253-4.937h.674l.586,2.5c.147.615.279,1.231.367,1.706h.014c.081-.491.234-1.077.4-1.714l.659-2.49h.667l.6,2.505c.139.586.271,1.172.345,1.692h.014c.1-.543.242-1.091.4-1.707l.652-2.49h.651l-1.4,4.937h-.666l-.623-2.572a14.792,14.792,0,0,1-.322-1.611h-.015a15.359,15.359,0,0,1-.38,1.611l-.7,2.572Z" fill="#fff"/>
        </g>
      </g>
    </g>
  </g>
</svg>
