<svg xmlns="http://www.w3.org/2000/svg" width="124" height="124" viewBox="0 0 124 124">
  <g id="Grupo_959101" data-name="Grupo 959101" transform="translate(-600 -658)">
    <rect id="Rectángulo_340132" data-name="Rectángulo 340132" width="124" height="124" transform="translate(600 658)" fill="#80cab6"/>
    <g id="muestra-de-orina_1_" data-name="muestra-de-orina (1)" transform="translate(610.551 687)">
      <g id="Grupo_958779" data-name="Grupo 958779" transform="translate(22.416 0.967)">
        <path id="Trazado_724347" data-name="Trazado 724347" d="M84.755,98.47H31.678a2.73,2.73,0,0,1-2.73-2.73V84.714a2.73,2.73,0,0,1,2.73-2.73H84.755a2.73,2.73,0,0,1,2.73,2.73V95.74a2.73,2.73,0,0,1-2.73,2.73Z" transform="translate(-28.948 -72.383)" fill="#838383"/>
        <path id="Trazado_724348" data-name="Trazado 724348" d="M421.356,81.984h-6a2.73,2.73,0,0,1,2.73,2.73V95.74a2.73,2.73,0,0,1-2.73,2.73h6a2.73,2.73,0,0,0,2.73-2.73V84.714a2.73,2.73,0,0,0-2.73-2.73Z" transform="translate(-365.549 -72.383)" fill="#6d6d6d"/>
        <path id="Trazado_724349" data-name="Trazado 724349" d="M104.319,209.88l-6.095,35.5a2.988,2.988,0,0,1-2.946,2.483H60.67a2.988,2.988,0,0,1-2.946-2.483l-2.639-15.369L52.228,213.36l-.6-3.48Z" transform="translate(-48.706 -183.792)" fill="#eaf9fa"/>
        <path id="Trazado_724350" data-name="Trazado 724350" d="M320.83,209.88l-6.095,35.5a2.988,2.988,0,0,1-2.946,2.483H321.9a2.988,2.988,0,0,0,2.946-2.483l6.095-35.5Z" transform="translate(-275.33 -183.792)" fill="#d4f2f6"/>
        <path id="Trazado_724351" data-name="Trazado 724351" d="M88.988,267.9l-5.326-31.018h44.431L122.767,267.9Z" transform="translate(-76.609 -207.311)" fill="#fee97d"/>
        <path id="Trazado_724352" data-name="Trazado 724352" d="M341.295,236.879,335.969,267.9h6.581l5.326-31.018Z" transform="translate(-296.392 -207.311)" fill="#fedf30"/>
        <path id="Trazado_724353" data-name="Trazado 724353" d="M111.073,17.1H60.73l1.626-6.725A3.76,3.76,0,0,1,66.01,7.5h39.783a3.76,3.76,0,0,1,3.655,2.876Z" transform="translate(-56.633 -7.5)" fill="#cecece"/>
        <path id="Trazado_724354" data-name="Trazado 724354" d="M373.447,10.376A3.76,3.76,0,0,0,369.793,7.5h-6a3.76,3.76,0,0,1,3.655,2.876l1.625,6.725h6Z" transform="translate(-320.633 -7.5)" fill="#bfbfbf"/>
        <path id="Trazado_724355" data-name="Trazado 724355" d="M287.618,7.5v2.693a1.63,1.63,0,0,1-1.63,1.63h-7.5a1.63,1.63,0,0,1-1.63-1.63V7.5Z" transform="translate(-244.903 -7.5)" fill="#fee97d"/>
        <path id="Trazado_724356" data-name="Trazado 724356" d="M321.769,7.5v2.693a1.63,1.63,0,0,1-1.63,1.63h3.548a1.63,1.63,0,0,0,1.63-1.63V7.5Z" transform="translate(-282.603 -7.5)" fill="#fedf30"/>
        <path id="Trazado_724357" data-name="Trazado 724357" d="M83.857,238.547v13.312a1.667,1.667,0,0,1-1.667,1.667H59.128L56.27,236.88H82.19A1.667,1.667,0,0,1,83.857,238.547Z" transform="translate(-52.748 -207.311)" fill="#a6e7f0"/>
        <path id="Trazado_724358" data-name="Trazado 724358" d="M217.7,236.88h-5.867a1.667,1.667,0,0,1,1.667,1.667v13.312a1.667,1.667,0,0,1-1.667,1.667H217.7a1.667,1.667,0,0,0,1.667-1.667V238.547A1.667,1.667,0,0,0,217.7,236.88Z" transform="translate(-188.261 -207.312)" fill="#6bd9e7"/>
        <path id="Trazado_724359" data-name="Trazado 724359" d="M103.91,283.608H99.586a1.277,1.277,0,0,1-1.1-1.929l2.162-3.642a1.277,1.277,0,0,1,2.2,0l2.162,3.642A1.277,1.277,0,0,1,103.91,283.608Z" transform="translate(-89.366 -242.619)" fill="#fd4755"/>
      </g>
      <g id="Grupo_958780" data-name="Grupo 958780" transform="translate(21.449 0)">
        <path id="Trazado_724360" data-name="Trazado 724360" d="M78.222,9.6h-.606L76.17,3.615A4.715,4.715,0,0,0,71.576,0H31.793A4.715,4.715,0,0,0,27.2,3.616L25.752,9.6h-.606a3.7,3.7,0,0,0-3.7,3.7V24.325a3.7,3.7,0,0,0,3.066,3.642L28.99,54.025A.967.967,0,1,0,30.9,53.7l-.953-5.55h1.569l2.331,13.569a.967.967,0,0,0,.953.8H68.574a.967.967,0,0,0,.953-.8L74.853,30.7a.967.967,0,0,0-.953-1.131H57.546a.967.967,0,0,0,0,1.934H72.753L67.758,60.586H35.61L33.473,48.148H51.858a2.637,2.637,0,0,0,2.634-2.634V32.2a2.693,2.693,0,0,0-2.634-2.634H26.752l-.266-1.547h50.4l-5.9,34.365a2.017,2.017,0,0,1-1.993,1.679H34.38a2.017,2.017,0,0,1-1.993-1.68l-.725-4.221a.967.967,0,0,0-1.906.327l.725,4.221A3.946,3.946,0,0,0,34.38,66H68.988a3.946,3.946,0,0,0,3.9-3.286l5.966-34.747a3.7,3.7,0,0,0,3.066-3.642V13.3a3.7,3.7,0,0,0-3.7-3.7ZM51.858,31.5a.7.7,0,0,1,.7.7V45.514a.7.7,0,0,1-.7.7H29.61L27.085,31.5ZM42.65,11.535V26.088H39.205V11.535Zm1.934,0h3.445V26.088H44.583Zm5.378,0h3.445V26.088H49.962Zm5.378,0h3.445V26.088H55.34Zm5.378,0h3.445V26.088H60.718Zm5.378,0h3.445V26.088H66.1Zm-34.2,0v2.453a.967.967,0,1,0,1.934,0V11.535h3.445V26.088H33.827V18.522a.967.967,0,0,0-1.934,0v7.566H28.448V11.535ZM71.475,26.088V11.535H74.92V26.088ZM64.163,1.934V3.66a.664.664,0,0,1-.663.664H56a.664.664,0,0,1-.663-.664V1.934ZM29.078,4.07a2.786,2.786,0,0,1,2.715-2.137H53.406V3.66a2.6,2.6,0,0,0,2.6,2.6h7.5a2.6,2.6,0,0,0,2.6-2.6V1.934h5.479A2.786,2.786,0,0,1,74.29,4.07L75.627,9.6H27.741Zm-5.7,20.254V13.3a1.765,1.765,0,0,1,1.763-1.763h1.369V26.088H25.146A1.765,1.765,0,0,1,23.382,24.325Zm56.6,0a1.765,1.765,0,0,1-1.763,1.763H76.853V11.535h1.369A1.765,1.765,0,0,1,79.986,13.3Z" transform="translate(-21.449 0)"/>
        <path id="Trazado_724361" data-name="Trazado 724361" d="M93.041,278.042h4.324a2.244,2.244,0,0,0,1.929-3.389l-2.162-3.642a2.244,2.244,0,0,0-3.859,0l-2.162,3.642a2.244,2.244,0,0,0,1.929,3.389Zm-.267-2.4L94.936,272a.31.31,0,0,1,.534,0l2.162,3.642a.31.31,0,0,1-.267.469H93.041a.31.31,0,0,1-.267-.469Z" transform="translate(-81.854 -235.12)"/>
        <path id="Trazado_724362" data-name="Trazado 724362" d="M179.3,287.163h2.774a.967.967,0,0,0,0-1.934H179.3a.967.967,0,0,0,0,1.934Z" transform="translate(-158.111 -248.461)"/>
        <path id="Trazado_724363" data-name="Trazado 724363" d="M179.3,314.8h6.355a.967.967,0,0,0,0-1.934H179.3a.967.967,0,0,0,0,1.934Z" transform="translate(-158.111 -272.535)"/>
        <path id="Trazado_724364" data-name="Trazado 724364" d="M350.952,392.428a.964.964,0,1,0,.964-.964A.964.964,0,0,0,350.952,392.428Z" transform="translate(-308.477 -341.002)"/>
        <circle id="Elipse_5681" data-name="Elipse 5681" cx="0.964" cy="0.964" r="0.964" transform="translate(37.145 51.651) rotate(-13.3)"/>
        <circle id="Elipse_5682" data-name="Elipse 5682" cx="0.964" cy="0.964" r="0.964" transform="translate(40.245 56.476) rotate(-67.486)"/>
        <circle id="Elipse_5683" data-name="Elipse 5683" cx="0.964" cy="0.964" r="0.964" transform="translate(17.843 55.395) rotate(-45)"/>
        <path id="Trazado_724365" data-name="Trazado 724365" d="M341.437,269.933a.964.964,0,1,0,.964.964A.964.964,0,0,0,341.437,269.933Z" transform="translate(-299.349 -235.137)"/>
      </g>
    </g>
  </g>
</svg>
