<svg xmlns="http://www.w3.org/2000/svg" width="124" height="124" viewBox="0 0 124 124">
  <g id="Grupo_959102" data-name="Grupo 959102" transform="translate(-1020 -658)">
    <rect id="Rectángulo_340131" data-name="Rectángulo 340131" width="124" height="124" transform="translate(1020 658)" fill="#80cab6"/>
    <g id="transporte" transform="translate(1046 684)">
      <path id="Trazado_724254" data-name="Trazado 724254" d="M53.6,277.2,51.2,264H34.4L32,277.2l10.8-3.6Z" transform="translate(-27.2 -224.4)" fill="#f7ec2f"/>
      <path id="Trazado_724255" data-name="Trazado 724255" d="M17.209,349.6c2.6,0,2.6-2.4,5.2-2.4s2.6,2.4,5.2,2.4c2.1,0,2.519-1.543,3.96-2.148L36.8,332.8,22.4,328,8,332.8l5.231,14.648c1.453.6,1.874,2.152,3.978,2.152Z" transform="translate(-6.8 -278.8)" fill="#3f4e56"/>
      <path id="Trazado_724256" data-name="Trazado 724256" d="M136.337,91.967A13.528,13.528,0,0,0,126.767,88H88l7.2,7.2,44.4.026Z" transform="translate(-74.8 -74.8)" fill="#f5fafc"/>
      <path id="Trazado_724257" data-name="Trazado 724257" d="M180.855,136.513l-.455-.455-44.4-.026.3.3a15.349,15.349,0,0,0,10.855,4.5h2.168l1.066-2.4h7.2l-1.679,2.4h23.166a2.527,2.527,0,0,0,1.787-4.314Z" transform="translate(-115.6 -115.627)" fill="#1493b0"/>
      <path id="Trazado_724258" data-name="Trazado 724258" d="M88,232h4.8v4.8H88Z" transform="translate(-74.8 -197.2)" fill="#ed4720"/>
      <path id="Trazado_724259" data-name="Trazado 724259" d="M232,304v21.6h6a3.6,3.6,0,1,1,7.2,0H256V304Z" transform="translate(-197.2 -258.4)" fill="#d3d3d3"/>
      <circle id="Elipse_5672" data-name="Elipse 5672" cx="3.5" cy="3.5" r="3.5" transform="translate(41 64)" fill="#3f4e56"/>
      <path id="Trazado_724260" data-name="Trazado 724260" d="M400.4,336H392v16.8a3.6,3.6,0,1,1,7.2,0H404v-9.6Z" transform="translate(-333.2 -285.6)" fill="#55d5f2"/>
      <circle id="Elipse_5673" data-name="Elipse 5673" cx="3.5" cy="3.5" r="3.5" transform="translate(59 64)" fill="#3f4e56"/>
      <g id="Grupo_958764" data-name="Grupo 958764" transform="translate(13.2 1.2)">
        <path id="Trazado_724261" data-name="Trazado 724261" d="M94,8H88V20h9.6Z" transform="translate(-88 -8)" fill="#55d5f2"/>
        <path id="Trazado_724262" data-name="Trazado 724262" d="M216,24l2.4,9.6h7.2l-6-9.6Z" transform="translate(-196.8 -21.6)" fill="#55d5f2"/>
        <path id="Trazado_724263" data-name="Trazado 724263" d="M204.732,152l-4.8,10.8,3.6,1.2,8.4-12Z" transform="translate(-183.146 -130.4)" fill="#55d5f2"/>
      </g>
      <path id="Trazado_724264" data-name="Trazado 724264" d="M31.2,452.8a4.652,4.652,0,0,1-3.413-1.518,2.246,2.246,0,0,0-3.568,0,4.593,4.593,0,0,1-6.826,0,2.248,2.248,0,0,0-3.57,0,4.6,4.6,0,0,1-6.832,0A2.328,2.328,0,0,0,5.2,450.4a2.332,2.332,0,0,0-1.789.882A4.656,4.656,0,0,1,0,452.8v-2.4a2.334,2.334,0,0,0,1.789-.882,4.6,4.6,0,0,1,6.832,0,2.252,2.252,0,0,0,3.575,0,4.6,4.6,0,0,1,6.828,0,2.246,2.246,0,0,0,3.566,0,4.594,4.594,0,0,1,6.826,0,2.322,2.322,0,0,0,1.784.882v2.4Z" transform="translate(0 -380.8)" fill="#1493b0"/>
      <path id="Trazado_724265" data-name="Trazado 724265" d="M424,336v7.2h7.2l-3.6-7.2Z" transform="translate(-360.4 -285.6)" fill="#f5fafc"/>
      <path id="Trazado_724266" data-name="Trazado 724266" d="M7.391,258.164,2.742,245.15,14.4,241.266v16.49a4.783,4.783,0,0,1,2.4-.006V241.266l11.658,3.886-4.65,13.021A4.233,4.233,0,0,1,26,257.6a4.865,4.865,0,0,1,.545.034l4.582-12.83a1.2,1.2,0,0,0-.751-1.542l-2.926-.976-2.273-12.5A1.2,1.2,0,0,0,24,228.8H19.2v-3.6A1.2,1.2,0,0,0,18,224H13.2a1.2,1.2,0,0,0-1.2,1.2v3.6H7.2a1.2,1.2,0,0,0-1.181.985l-2.273,12.5-2.926.976A1.2,1.2,0,0,0,.069,244.8l4.583,12.83A5.016,5.016,0,0,1,5.2,257.6a4.254,4.254,0,0,1,2.186.564ZM14.4,226.4h2.4v2.4H14.4Zm-1.2,4.8H23l1.858,10.22-8.876-2.959a1.219,1.219,0,0,0-.38-.061,1.206,1.206,0,0,0-.379.061L6.344,241.42,8.2,231.2Z" transform="translate(0 -190.4)"/>
      <path id="Trazado_724267" data-name="Trazado 724267" d="M80.079,13.592c.013.037.023.076.04.112a1.177,1.177,0,0,0,.233.346l7.5,7.5a16.441,16.441,0,0,0,11.7,4.85h.323l-2.982,6.713a1.2,1.2,0,0,0,.718,1.626l3.6,1.2a1.224,1.224,0,0,0,.38.061,1.2,1.2,0,0,0,.983-.512l6.358-9.088H131.47a3.728,3.728,0,0,0,2.634-6.362l-3.718-3.72A14.639,14.639,0,0,0,119.967,12h-9.3l-5.647-9.036A1.2,1.2,0,0,0,104,2.4h-3.6a1.2,1.2,0,0,0-1.164,1.492L101.263,12h-9.57L88.35.856A1.2,1.2,0,0,0,87.2,0h-6A1.2,1.2,0,0,0,80,1.2v12c0,.026.013.048.014.074A1.208,1.208,0,0,0,80.079,13.592ZM82.4,2.4h3.907l2.88,9.6H82.4Zm20.935,2.4,4.5,7.2h-4.1l-1.8-7.2Zm-.535,9.6h17.167a12.222,12.222,0,0,1,7.288,2.4H118.4v2.4h11.473l1.229,1.23,1.3,1.3A1.327,1.327,0,0,1,131.47,24H110.607l.358-.512a1.2,1.2,0,0,0-.983-1.888h-7.2a1.271,1.271,0,0,0-1.1.713L100.941,24H99.553a14.026,14.026,0,0,1-9.4-3.6c-.2-.182-.414-.358-.608-.553L84.1,14.4h18.7ZM99.624,32.88,103.568,24h4.111l-6.56,9.378Z" transform="translate(-68)"/>
      <path id="Trazado_724268" data-name="Trazado 724268" d="M72,288h9.6v2.4H72Z" transform="translate(-61.2 -244.8)"/>
      <path id="Trazado_724269" data-name="Trazado 724269" d="M176,112h2.4v2.4H176Z" transform="translate(-149.6 -95.2)"/>
      <path id="Trazado_724270" data-name="Trazado 724270" d="M208,112h2.4v2.4H208Z" transform="translate(-176.8 -95.2)"/>
      <path id="Trazado_724271" data-name="Trazado 724271" d="M240,112h2.4v2.4H240Z" transform="translate(-204 -95.2)"/>
      <path id="Trazado_724272" data-name="Trazado 724272" d="M272,112h2.4v2.4H272Z" transform="translate(-231.2 -95.2)"/>
      <path id="Trazado_724273" data-name="Trazado 724273" d="M304.008,112h2.4v2.4h-2.4Z" transform="translate(-258.407 -95.2)"/>
      <path id="Trazado_724274" data-name="Trazado 724274" d="M262.274,308.664l-3.6-7.2a1.2,1.2,0,0,0-1.074-.664h-7.2v-3.6a1.2,1.2,0,0,0-1.2-1.2h-24a1.2,1.2,0,0,0-1.2,1.2v21.6a1.2,1.2,0,0,0,1.2,1.2h4.97a4.777,4.777,0,0,0,9.259,0h8.741a4.777,4.777,0,0,0,9.259,0h3.77a1.2,1.2,0,0,0,1.2-1.2v-9.6c0-.013-.008-.024-.008-.037a1.214,1.214,0,0,0-.118-.5Zm-5,8.452c-.028-.072-.046-.148-.076-.217a4.742,4.742,0,0,0-.412-.756c-.035-.052-.078-.1-.114-.146a5.053,5.053,0,0,0-.427-.518c-.07-.072-.146-.137-.221-.2a5.113,5.113,0,0,0-.431-.356c-.089-.064-.18-.122-.272-.181a4.77,4.77,0,0,0-.481-.262c-.1-.047-.2-.094-.3-.133a4.729,4.729,0,0,0-.569-.176c-.092-.024-.182-.054-.277-.072a4.669,4.669,0,0,0-.9-.092,4.742,4.742,0,0,0-.862.088c-.068.012-.134.025-.2.041a4.69,4.69,0,0,0-.8.248c-.011,0-.019.011-.03.014a4.778,4.778,0,0,0-.509.253V303.2h2.4v6a1.2,1.2,0,0,0,1.2,1.2h6v7.2H257.45a5.029,5.029,0,0,0-.172-.485ZM252.8,321.2a2.4,2.4,0,1,1,2.4-2.4A2.4,2.4,0,0,1,252.8,321.2Zm-13.522-4.085c-.028-.072-.046-.148-.076-.217a4.742,4.742,0,0,0-.412-.756c-.035-.052-.078-.1-.114-.146a5.057,5.057,0,0,0-.427-.518c-.07-.072-.146-.137-.221-.2a5.113,5.113,0,0,0-.431-.356c-.089-.064-.18-.122-.272-.181a4.77,4.77,0,0,0-.481-.262c-.1-.047-.2-.094-.3-.133a4.729,4.729,0,0,0-.569-.176c-.092-.024-.182-.054-.277-.072a4.669,4.669,0,0,0-.9-.092,4.739,4.739,0,0,0-.9.091c-.095.018-.184.049-.277.072a4.806,4.806,0,0,0-.569.176c-.1.04-.2.086-.3.133a4.773,4.773,0,0,0-.481.262c-.094.058-.185.116-.272.181a4.388,4.388,0,0,0-.431.356c-.074.068-.151.132-.221.2a4.778,4.778,0,0,0-.427.518c-.036.05-.08.095-.114.146a4.74,4.74,0,0,0-.412.756c-.03.071-.049.145-.076.217a4.814,4.814,0,0,0-.169.485H226.4V298.4H248v19.2h-8.551a4.729,4.729,0,0,0-.17-.485ZM234.8,321.2a2.4,2.4,0,1,1,2.4-2.4A2.4,2.4,0,0,1,234.8,321.2ZM259.258,308H255.2v-4.8h1.658Z" transform="translate(-190.4 -251.6)"/>
    </g>
  </g>
</svg>
